<svg xmlns="http://www.w3.org/2000/svg" xmlns:xlink="http://www.w3.org/1999/xlink" width="415" height="306" fill="#FC6A00" viewBox="0 0 415 306"><style>#inst{animation:banner 5s linear infinite}</style><defs><g id="four-oh-four"><path d="M30 238.22H85.161L80.7958 273.101L72.4621 299.262L72.0653 301.64H119.686L120.083 299.262L117.305 273.101L121.671 238.22H137.941L146.275 217.609H124.448L145.878 52.7176L97.0663 147.054L87.9389 217.609H43.0958L146.275 4.36009H120.083L115.718 59.0596L30 237.031V238.22Z"/><path d="M242.732 0C212.175 0 160.189 116.534 160.189 193.43C160.189 242.977 181.222 306 198.683 306C229.24 306 281.623 189.466 281.623 112.57C281.623 63.0233 260.193 0 242.732 0ZM192.333 269.534C192.333 251.697 198.286 203.339 205.032 150.622C214.16 76.1036 232.017 4.36009 241.938 4.36009C245.51 4.36009 249.082 13.8731 249.082 36.4663C249.082 54.3031 243.129 102.661 236.78 155.378C226.858 229.896 209.794 301.64 199.476 301.64C195.905 301.64 192.333 292.127 192.333 269.534Z"/><path d="M268.725 238.22H323.886L319.521 273.101L311.187 299.262L310.791 301.64H358.412L358.808 299.262L356.031 273.101L360.396 238.22H376.666L385 217.609H363.174L384.603 52.7176L335.792 147.054L326.664 217.609H281.821L385 4.36009H358.808L354.443 59.0596L268.725 237.031V238.22Z"/></g></defs><g id="inst"><use x="0" y="0" xlink:href="#four-oh-four"/><use x="-415" y="0" xlink:href="#four-oh-four"/></g></svg>