<svg xmlns="http://www.w3.org/2000/svg" width="8" height="8" fill="none" viewBox="0 0 8 8"><style>path{fill:#888}</style><path fill-rule="evenodd" d="M2 0C0.895431 0 0 0.895431 0 2V6C0 7.10457 0.895431 8 2 8H6C7.10457 8 8 7.10457 8 6V5H7V6C7 6.55228 6.55228 7 6 7H2C1.44772 7 1 6.55228 1 6V2C1 1.44772 1.44772 1 2 1H3V0H2ZM4.5 0C4.22386 0 4 0.223858 4 0.5C4 0.776142 4.22386 1 4.5 1H6.29289L2.64645 4.64645C2.45118 4.84171 2.45118 5.15829 2.64645 5.35355C2.84171 5.54882 3.15829 5.54882 3.35355 5.35355L7 1.70711V3.5C7 3.77614 7.22386 4 7.5 4C7.77614 4 8 3.77614 8 3.5V0.5C8 0.223858 7.77614 0 7.5 0H4.5Z" clip-rule="evenodd"/></svg>