<svg width="106" height="52" viewBox="0 0 106 52" fill="none" xmlns="http://www.w3.org/2000/svg">
<rect x="1" y="1" width="104" height="50" rx="5" fill="white" stroke="black" stroke-width="2"/>
<path d="M21.9453 20.2109C21.8568 21.4349 21.4036 22.3984 20.5859 23.1016C19.7734 23.8047 18.7005 24.1562 17.3672 24.1562C15.9089 24.1562 14.7604 23.6667 13.9219 22.6875C13.0885 21.7031 12.6719 20.3542 12.6719 18.6406V17.9453C12.6719 16.8516 12.8646 15.888 13.25 15.0547C13.6354 14.2214 14.1849 13.5833 14.8984 13.1406C15.6172 12.6927 16.4505 12.4688 17.3984 12.4688C18.7109 12.4688 19.7682 12.8203 20.5703 13.5234C21.3724 14.2266 21.8359 15.2135 21.9609 16.4844H19.6172C19.5599 15.75 19.3542 15.2188 19 14.8906C18.651 14.5573 18.1172 14.3906 17.3984 14.3906C16.6172 14.3906 16.0312 14.6719 15.6406 15.2344C15.2552 15.7917 15.0573 16.6589 15.0469 17.8359V18.6953C15.0469 19.9245 15.2318 20.8229 15.6016 21.3906C15.9766 21.9583 16.5651 22.2422 17.3672 22.2422C18.0911 22.2422 18.6302 22.0781 18.9844 21.75C19.3438 21.4167 19.5495 20.9036 19.6016 20.2109H21.9453ZM22.9844 19.6953C22.9844 18.8568 23.1458 18.1094 23.4688 17.4531C23.7917 16.7969 24.2552 16.2891 24.8594 15.9297C25.4688 15.5703 26.1745 15.3906 26.9766 15.3906C28.1172 15.3906 29.0469 15.7396 29.7656 16.4375C30.4896 17.1354 30.8932 18.0833 30.9766 19.2812L30.9922 19.8594C30.9922 21.1562 30.6302 22.1979 29.9062 22.9844C29.1823 23.7656 28.2109 24.1562 26.9922 24.1562C25.7734 24.1562 24.7995 23.7656 24.0703 22.9844C23.3464 22.2031 22.9844 21.1406 22.9844 19.7969V19.6953ZM25.2422 19.8594C25.2422 20.6615 25.3932 21.276 25.6953 21.7031C25.9974 22.125 26.4297 22.3359 26.9922 22.3359C27.5391 22.3359 27.9661 22.1276 28.2734 21.7109C28.5807 21.2891 28.7344 20.6172 28.7344 19.6953C28.7344 18.9089 28.5807 18.2995 28.2734 17.8672C27.9661 17.4349 27.5339 17.2188 26.9766 17.2188C26.4245 17.2188 25.9974 17.4349 25.6953 17.8672C25.3932 18.2943 25.2422 18.9583 25.2422 19.8594ZM34.4609 15.5469L34.5312 16.5234C35.1354 15.7682 35.9453 15.3906 36.9609 15.3906C37.8568 15.3906 38.5234 15.6536 38.9609 16.1797C39.3984 16.7057 39.6224 17.4922 39.6328 18.5391V24H37.375V18.5938C37.375 18.1146 37.2708 17.7682 37.0625 17.5547C36.8542 17.3359 36.5078 17.2266 36.0234 17.2266C35.388 17.2266 34.9115 17.4974 34.5938 18.0391V24H32.3359V15.5469H34.4609ZM41.8984 24V17.2031H40.6406V15.5469H41.8984V15.1562C41.9089 14.0938 42.2344 13.276 42.875 12.7031C43.5208 12.125 44.4297 11.8359 45.6016 11.8359C46.3047 11.8359 47.1589 11.9896 48.1641 12.2969L47.8359 14.1641C47.3255 14.013 46.9297 13.9167 46.6484 13.875C46.3672 13.8281 46.0651 13.8047 45.7422 13.8047C44.6901 13.8047 44.1641 14.2708 44.1641 15.2031V15.5469H45.8281V17.2031H44.1641V24H41.8984ZM49.2188 24H46.9531V15.5469H49.2188V24ZM55.8359 17.6641C55.5286 17.6224 55.2578 17.6016 55.0234 17.6016C54.1693 17.6016 53.6094 17.8906 53.3438 18.4688V24H51.0859V15.5469H53.2188L53.2812 16.5547C53.7344 15.7786 54.362 15.3906 55.1641 15.3906C55.4141 15.3906 55.6484 15.4245 55.8672 15.4922L55.8359 17.6641ZM59.0469 15.5469L59.1172 16.4922C59.7161 15.7578 60.526 15.3906 61.5469 15.3906C62.6354 15.3906 63.3828 15.8203 63.7891 16.6797C64.3828 15.8203 65.2292 15.3906 66.3281 15.3906C67.2448 15.3906 67.9271 15.6589 68.375 16.1953C68.8229 16.7266 69.0469 17.5286 69.0469 18.6016V24H66.7812V18.6094C66.7812 18.1302 66.6875 17.7812 66.5 17.5625C66.3125 17.3385 65.9818 17.2266 65.5078 17.2266C64.8307 17.2266 64.362 17.5495 64.1016 18.1953L64.1094 24H61.8516V18.6172C61.8516 18.1276 61.7552 17.7734 61.5625 17.5547C61.3698 17.3359 61.0417 17.2266 60.5781 17.2266C59.9375 17.2266 59.474 17.4922 59.1875 18.0234V24H56.9297V15.5469H59.0469Z" fill="white"/>
<rect x="13" y="9" width="80" height="34" rx="5" fill="white" stroke="black" stroke-width="2"/>
<path d="M33.9453 28.2109C33.8568 29.4349 33.4036 30.3984 32.5859 31.1016C31.7734 31.8047 30.7005 32.1562 29.3672 32.1562C27.9089 32.1562 26.7604 31.6667 25.9219 30.6875C25.0885 29.7031 24.6719 28.3542 24.6719 26.6406V25.9453C24.6719 24.8516 24.8646 23.888 25.25 23.0547C25.6354 22.2214 26.1849 21.5833 26.8984 21.1406C27.6172 20.6927 28.4505 20.4688 29.3984 20.4688C30.7109 20.4688 31.7682 20.8203 32.5703 21.5234C33.3724 22.2266 33.8359 23.2135 33.9609 24.4844H31.6172C31.5599 23.75 31.3542 23.2188 31 22.8906C30.651 22.5573 30.1172 22.3906 29.3984 22.3906C28.6172 22.3906 28.0312 22.6719 27.6406 23.2344C27.2552 23.7917 27.0573 24.6589 27.0469 25.8359V26.6953C27.0469 27.9245 27.2318 28.8229 27.6016 29.3906C27.9766 29.9583 28.5651 30.2422 29.3672 30.2422C30.0911 30.2422 30.6302 30.0781 30.9844 29.75C31.3438 29.4167 31.5495 28.9036 31.6016 28.2109H33.9453ZM34.9844 27.6953C34.9844 26.8568 35.1458 26.1094 35.4688 25.4531C35.7917 24.7969 36.2552 24.2891 36.8594 23.9297C37.4688 23.5703 38.1745 23.3906 38.9766 23.3906C40.1172 23.3906 41.0469 23.7396 41.7656 24.4375C42.4896 25.1354 42.8932 26.0833 42.9766 27.2812L42.9922 27.8594C42.9922 29.1562 42.6302 30.1979 41.9062 30.9844C41.1823 31.7656 40.2109 32.1562 38.9922 32.1562C37.7734 32.1562 36.7995 31.7656 36.0703 30.9844C35.3464 30.2031 34.9844 29.1406 34.9844 27.7969V27.6953ZM37.2422 27.8594C37.2422 28.6615 37.3932 29.276 37.6953 29.7031C37.9974 30.125 38.4297 30.3359 38.9922 30.3359C39.5391 30.3359 39.9661 30.1276 40.2734 29.7109C40.5807 29.2891 40.7344 28.6172 40.7344 27.6953C40.7344 26.9089 40.5807 26.2995 40.2734 25.8672C39.9661 25.4349 39.5339 25.2188 38.9766 25.2188C38.4245 25.2188 37.9974 25.4349 37.6953 25.8672C37.3932 26.2943 37.2422 26.9583 37.2422 27.8594ZM46.4609 23.5469L46.5312 24.5234C47.1354 23.7682 47.9453 23.3906 48.9609 23.3906C49.8568 23.3906 50.5234 23.6536 50.9609 24.1797C51.3984 24.7057 51.6224 25.4922 51.6328 26.5391V32H49.375V26.5938C49.375 26.1146 49.2708 25.7682 49.0625 25.5547C48.8542 25.3359 48.5078 25.2266 48.0234 25.2266C47.388 25.2266 46.9115 25.4974 46.5938 26.0391V32H44.3359V23.5469H46.4609ZM53.8984 32V25.2031H52.6406V23.5469H53.8984V23.1562C53.9089 22.0938 54.2344 21.276 54.875 20.7031C55.5208 20.125 56.4297 19.8359 57.6016 19.8359C58.3047 19.8359 59.1589 19.9896 60.1641 20.2969L59.8359 22.1641C59.3255 22.013 58.9297 21.9167 58.6484 21.875C58.3672 21.8281 58.0651 21.8047 57.7422 21.8047C56.6901 21.8047 56.1641 22.2708 56.1641 23.2031V23.5469H57.8281V25.2031H56.1641V32H53.8984ZM61.2188 32H58.9531V23.5469H61.2188V32ZM67.8359 25.6641C67.5286 25.6224 67.2578 25.6016 67.0234 25.6016C66.1693 25.6016 65.6094 25.8906 65.3438 26.4688V32H63.0859V23.5469H65.2188L65.2812 24.5547C65.7344 23.7786 66.362 23.3906 67.1641 23.3906C67.4141 23.3906 67.6484 23.4245 67.8672 23.4922L67.8359 25.6641ZM71.0469 23.5469L71.1172 24.4922C71.7161 23.7578 72.526 23.3906 73.5469 23.3906C74.6354 23.3906 75.3828 23.8203 75.7891 24.6797C76.3828 23.8203 77.2292 23.3906 78.3281 23.3906C79.2448 23.3906 79.9271 23.6589 80.375 24.1953C80.8229 24.7266 81.0469 25.5286 81.0469 26.6016V32H78.7812V26.6094C78.7812 26.1302 78.6875 25.7812 78.5 25.5625C78.3125 25.3385 77.9818 25.2266 77.5078 25.2266C76.8307 25.2266 76.362 25.5495 76.1016 26.1953L76.1094 32H73.8516V26.6172C73.8516 26.1276 73.7552 25.7734 73.5625 25.5547C73.3698 25.3359 73.0417 25.2266 72.5781 25.2266C71.9375 25.2266 71.474 25.4922 71.1875 26.0234V32H68.9297V23.5469H71.0469Z" fill="black"/>
</svg>
