<svg width="82" height="36" viewBox="0 0 82 36" fill="none" xmlns="http://www.w3.org/2000/svg">
<rect x="1" y="1" width="80" height="34" rx="5" fill="white" stroke="black" stroke-width="2"/>
<path d="M21.9453 20.2109C21.8568 21.4349 21.4036 22.3984 20.5859 23.1016C19.7734 23.8047 18.7005 24.1562 17.3672 24.1562C15.9089 24.1562 14.7604 23.6667 13.9219 22.6875C13.0885 21.7031 12.6719 20.3542 12.6719 18.6406V17.9453C12.6719 16.8516 12.8646 15.888 13.25 15.0547C13.6354 14.2214 14.1849 13.5833 14.8984 13.1406C15.6172 12.6927 16.4505 12.4688 17.3984 12.4688C18.7109 12.4688 19.7682 12.8203 20.5703 13.5234C21.3724 14.2266 21.8359 15.2135 21.9609 16.4844H19.6172C19.5599 15.75 19.3542 15.2188 19 14.8906C18.651 14.5573 18.1172 14.3906 17.3984 14.3906C16.6172 14.3906 16.0312 14.6719 15.6406 15.2344C15.2552 15.7917 15.0573 16.6589 15.0469 17.8359V18.6953C15.0469 19.9245 15.2318 20.8229 15.6016 21.3906C15.9766 21.9583 16.5651 22.2422 17.3672 22.2422C18.0911 22.2422 18.6302 22.0781 18.9844 21.75C19.3438 21.4167 19.5495 20.9036 19.6016 20.2109H21.9453ZM22.9844 19.6953C22.9844 18.8568 23.1458 18.1094 23.4688 17.4531C23.7917 16.7969 24.2552 16.2891 24.8594 15.9297C25.4688 15.5703 26.1745 15.3906 26.9766 15.3906C28.1172 15.3906 29.0469 15.7396 29.7656 16.4375C30.4896 17.1354 30.8932 18.0833 30.9766 19.2812L30.9922 19.8594C30.9922 21.1562 30.6302 22.1979 29.9062 22.9844C29.1823 23.7656 28.2109 24.1562 26.9922 24.1562C25.7734 24.1562 24.7995 23.7656 24.0703 22.9844C23.3464 22.2031 22.9844 21.1406 22.9844 19.7969V19.6953ZM25.2422 19.8594C25.2422 20.6615 25.3932 21.276 25.6953 21.7031C25.9974 22.125 26.4297 22.3359 26.9922 22.3359C27.5391 22.3359 27.9661 22.1276 28.2734 21.7109C28.5807 21.2891 28.7344 20.6172 28.7344 19.6953C28.7344 18.9089 28.5807 18.2995 28.2734 17.8672C27.9661 17.4349 27.5339 17.2188 26.9766 17.2188C26.4245 17.2188 25.9974 17.4349 25.6953 17.8672C25.3932 18.2943 25.2422 18.9583 25.2422 19.8594ZM34.4609 15.5469L34.5312 16.5234C35.1354 15.7682 35.9453 15.3906 36.9609 15.3906C37.8568 15.3906 38.5234 15.6536 38.9609 16.1797C39.3984 16.7057 39.6224 17.4922 39.6328 18.5391V24H37.375V18.5938C37.375 18.1146 37.2708 17.7682 37.0625 17.5547C36.8542 17.3359 36.5078 17.2266 36.0234 17.2266C35.388 17.2266 34.9115 17.4974 34.5938 18.0391V24H32.3359V15.5469H34.4609ZM41.8984 24V17.2031H40.6406V15.5469H41.8984V15.1562C41.9089 14.0938 42.2344 13.276 42.875 12.7031C43.5208 12.125 44.4297 11.8359 45.6016 11.8359C46.3047 11.8359 47.1589 11.9896 48.1641 12.2969L47.8359 14.1641C47.3255 14.013 46.9297 13.9167 46.6484 13.875C46.3672 13.8281 46.0651 13.8047 45.7422 13.8047C44.6901 13.8047 44.1641 14.2708 44.1641 15.2031V15.5469H45.8281V17.2031H44.1641V24H41.8984ZM49.2188 24H46.9531V15.5469H49.2188V24ZM55.8359 17.6641C55.5286 17.6224 55.2578 17.6016 55.0234 17.6016C54.1693 17.6016 53.6094 17.8906 53.3438 18.4688V24H51.0859V15.5469H53.2188L53.2812 16.5547C53.7344 15.7786 54.362 15.3906 55.1641 15.3906C55.4141 15.3906 55.6484 15.4245 55.8672 15.4922L55.8359 17.6641ZM59.0469 15.5469L59.1172 16.4922C59.7161 15.7578 60.526 15.3906 61.5469 15.3906C62.6354 15.3906 63.3828 15.8203 63.7891 16.6797C64.3828 15.8203 65.2292 15.3906 66.3281 15.3906C67.2448 15.3906 67.9271 15.6589 68.375 16.1953C68.8229 16.7266 69.0469 17.5286 69.0469 18.6016V24H66.7812V18.6094C66.7812 18.1302 66.6875 17.7812 66.5 17.5625C66.3125 17.3385 65.9818 17.2266 65.5078 17.2266C64.8307 17.2266 64.362 17.5495 64.1016 18.1953L64.1094 24H61.8516V18.6172C61.8516 18.1276 61.7552 17.7734 61.5625 17.5547C61.3698 17.3359 61.0417 17.2266 60.5781 17.2266C59.9375 17.2266 59.474 17.4922 59.1875 18.0234V24H56.9297V15.5469H59.0469Z" fill="black"/>
</svg>
