<svg xmlns="http://www.w3.org/2000/svg" width="997.13" height="336.287" viewBox="0 0 997.13 336.287"><g stroke="#C4C9CA" stroke-width="4" stroke-linejoin="round" fill="none" opacity=".9" enable-background="new"><path d="M386.351 25.394l.023-6.477 6.477.025"/><path stroke-dasharray="12.851,12.851" d="M406.723 18.994l48.549.181"/><path d="M462.209 19.202l6.476.024-.025 6.476"/><path stroke-dasharray="12.2049,12.2049" d="M468.612 38.877l-.964 256.895"/><path d="M467.623 302.359l-.025 6.476-6.476-.024"/><path stroke-dasharray="12.851,12.851" d="M447.25 308.759l-48.55-.182"/><path d="M391.765 308.551l-6.476-.024.023-6.477"/><path stroke-dasharray="12.2049,12.2049" d="M385.362 288.876l.964-256.896"/></g><path opacity=".9" fill="#2D2F30" enable-background="new" d="M348.945 310.648l-17.327.225-3.765-289.573 17.327-.225zM716.896 18.316l17.326-.36 6.024 289.566-17.326.36zM585.396 308.625l-82.315.23-.811-289.629 82.315-.23z"/><path opacity=".9" fill="#C4C9CA" enable-background="new" d="M914.062 308.619l-82.315.23-.811-289.629 82.315-.23zM155.273 303.238l-82.315.23-.811-289.629 82.315-.23zM810.632 308.312l-44.069 1.526-10.021-289.436 44.069-1.526z"/><path opacity=".9" fill="#4FB5C6" enable-background="new" d="M697.768 310.584l-82.28 2.329-8.196-289.502 82.28-2.329zM296.867 308.478l-102.069 1.848-5.241-289.521 102.069-1.848z"/></svg>