<svg xmlns="http://www.w3.org/2000/svg" width="42" height="42" viewBox="0 0 42 42"><path fill="#EED115" d="M18.697 20.437h-6.691c-.592 0-1.074.479-1.074 1.071v2.9c0 .592.482 1.072 1.074 1.072h6.691c.592 0 1.071-.481 1.071-1.072v-2.9c.001-.591-.479-1.071-1.071-1.071zm10.933-14.992c-.2-.403-1.494-2.968-1.494-2.968s.491-.291.716-.401c.222-.112.391-.253.087-.826-.327-.618-.648-.439-.648-.439s-.433.24-.913.483c-.803-1.183-1.92-1.297-2.254-1.294h-1.65c-.336 0-.648.044-.783.224-.132.178-.445.334-.823.334h-11.312c-.112.01-.135-.068-.202-.112-.759-.424-1.595-.01-1.773.19-.179.2-.893 1.071-1.315 1.549-.426.481-.794.57-1.084.66.178-.234.044-.458.044-.458l-.168-.334.235-.636.211-.112-.124-.291-.38.179c-.243.123-.243.235-.243.235-.111.401-.401.424-.401.424s-.648-1.227-.737-1.383c-.09-.157-.267-.647-2.433.513-2.163 1.161-1.651 1.606-1.651 1.606l.738 1.427-.224.179.537 1.071s-.136.067-.604.38c-.468.312-.982.625-.982 1.471v31.148c0 2.344.67 3.414 3.281 3.414h23.829c1.539 0 3.013-.804 3.013-3.479v-30.792c0-1.538-.293-1.561-.493-1.962zm-17.111-2.589h7.94c.679 0 1.229.55 1.229 1.228 0 .678-.55 1.226-1.229 1.226h-7.94c-.678 0-1.228-.548-1.228-1.226-.001-.679.549-1.228 1.228-1.228zm10.061 24.51s2.658 4.639 3.213 5.703c.737 1.408-.267 2.012-.267 2.012s-1.34.673-2.01-.535c-.568-1.027-2.419-4.294-3.078-5.302-.848-1.296-1.205-1.745-2.342-1.745h-5.601000000000001c-1.146 0-1.507.45-2.361 1.745-.664 1.008-2.531 4.275-3.104 5.302-.676 1.208-2.023.535-2.023.535s-1.013-.604-.269-2.012c.56-1.064 3.237-5.703 3.237-5.703s.674-1.029.674-1.878v-5.1850000000000005c0-.848-.674-1.874-.674-1.874s-2.677-4.628-3.237-5.689c-.743-1.406.269-2.008.269-2.008s1.347-.67 2.023.535c.574 1.024 2.44 4.284 3.104 5.288.854 1.295 1.215 1.739 2.361 1.739h5.601000000000001c1.138 0 1.494-.444 2.342-1.739.659-1.004 2.51-4.264 3.078-5.288.67-1.205 2.01-.535 2.01-.535s1.004.602.267 2.008c-.555 1.061-3.213 5.689-3.213 5.689s-.67 1.027-.67 1.874v5.1850000000000005c0 .85.67 1.878.67 1.878z"/></svg>