<?xml version="1.0" encoding="UTF-8" standalone="no"?>
<svg width="285px" height="69px" viewBox="0 0 285 69" version="1.1" xmlns="http://www.w3.org/2000/svg" xmlns:xlink="http://www.w3.org/1999/xlink" xmlns:sketch="http://www.bohemiancoding.com/sketch/ns">
    <!-- Generator: Sketch 3.0.3 (7891) - http://www.bohemiancoding.com/sketch -->
    <title>design-thinking-c</title>
    <desc>Created with Sketch.</desc>
    <defs></defs>
    <g id="Page-1" stroke="none" stroke-width="1" fill="none" fill-rule="evenodd" sketch:type="MSPage">
        <path d="M8.224,2.288 C11.2000149,3.58400648 13.6959899,5.08399148 15.712,6.788 C17.7280101,8.49200852 18.736,10.1119923 18.736,11.648 C18.736,12.7040053 18.3880035,13.6999953 17.692,14.636 C16.9959965,15.5720047 16.348003,16.04 15.748,16.04 C15.147997,16.04 14.7400011,15.7760026 14.524,15.248 C14.3079989,14.7199974 14.1640004,13.8080065 14.092,12.512 C14.0199996,11.2159935 13.4320055,9.70400864 12.328,7.976 C11.2239945,6.24799136 9.66401008,4.56800816 7.648,2.936 L8.224,2.288 Z M63.736,21.584 C64.744005,22.1120026 65.6559959,22.7599962 66.472,23.528 C67.2880041,24.2960038 67.696,24.7639992 67.696,24.932 C67.696,25.1000008 66.8320086,25.387998 65.104,25.796 C63.3759914,26.204002 60.9880152,26.408 57.94,26.408 C54.8919848,26.408 52.864005,26.1200029 51.856,25.544 C50.847995,24.9679971 50.344,23.6720101 50.344,21.656 L50.344,7.544 L35.872,7.544 C35.8239998,15.8480415 34.8400096,21.4879851 32.92,24.464 C30.9999904,27.4400149 27.136029,30.3919854 21.328,33.32 L20.824,32.384 C25.2400221,29.5999861 28.2759917,26.8400137 29.932,24.104 C31.5880083,21.3679863 32.416,17.2400276 32.416,11.72 C32.416,9.36798824 32.2720014,6.41601776 31.984,2.864 L36.448,5.96 L49.624,5.96 L51.856,3.008 L56.536,6.824 C56.8720017,7.0640012 57.04,7.27999904 57.04,7.472 C57.04,7.66400096 56.8480019,7.85599904 56.464,8.048 L53.728,9.488 L53.728,20.504 C53.728,21.6080055 53.9199981,22.363998 54.304,22.772 C54.6880019,23.180002 55.9719891,23.384 58.156,23.384 C60.3400109,23.384 62.1999923,22.784006 63.736,21.584 Z M27.088,46.784 C22.7679784,50.7200197 19.3480126,53.9479874 16.828,56.468 C14.3079874,58.9880126 12.6880036,60.9679928 11.968,62.408 C11.8239993,62.7920019 11.6800007,62.984 11.536,62.984 C11.3919993,62.984 11.2480007,62.888001 11.104,62.696 L7.936,58.304 C9.42400744,57.2479947 10.371998,56.3360038 10.78,55.568 C11.188002,54.7999962 11.392,53.5520086 11.392,51.824 L11.392,26.84 L5.416,27.488 C4.11999352,27.6320007 3.08800384,27.9199978 2.32,28.352 L0.376,26.048 C1.76800696,26.1440005 3.32799136,26.096001 5.056,25.904 L10.672,25.328 L13.048,22.16 L17.584,25.472 C18.0160022,25.8080017 18.232,26.0479993 18.232,26.192 C18.232,26.3360007 18.0160022,26.5279988 17.584,26.768 L14.776,28.352 L14.776,54.272 L26.368,45.776 L27.088,46.784 Z M67.912,62.192 C65.9919904,62.1439998 64.3960064,62.3839974 63.124,62.912 C61.8519936,63.4400026 61.0480017,64.1599954 60.712,65.072 C60.6639998,65.264001 60.5680007,65.36 60.424,65.36 C59.9439976,65.36 57.604021,64.3040106 53.404,62.192 C49.203979,60.0799894 45.6880142,57.8000122 42.856,55.352 C37.6239738,60.344025 29.3680564,64.2079863 18.088,66.944 L17.8,65.864 C28.0720514,62.5519834 35.7279748,58.400025 40.768,53.408 C36.7839801,49.1359786 33.9040089,42.7280427 32.128,34.184 C31.119995,34.2800005 30.2080041,34.5199981 29.392,34.904 L27.376,32.24 C29.6800115,32.432001 31.431994,32.528 32.632,32.528 L49.696,32.528 L52.504,29.36 L57.04,33.248 C57.4720022,33.5840017 57.688,33.847999 57.688,34.04 C57.688,34.232001 57.388003,34.3879994 56.788,34.508 C56.187997,34.6280006 55.6120028,34.9039978 55.06,35.336 C54.5079972,35.7680022 54.136001,36.2479974 53.944,36.776 C52.2159914,41.4320233 50.6440071,44.9359882 49.228,47.288 C47.8119929,49.6400118 46.4320067,51.5599926 45.088,53.048 C50.9920295,57.4640221 58.5999534,60.175995 67.912,61.184 L67.912,62.192 Z M50.704,34.112 L33.568,34.112 C35.4400094,41.3600362 38.5359784,47.0239796 42.856,51.104 C46.3120173,46.9279791 48.9279911,41.2640358 50.704,34.112 Z M138.832,25.544 C139.216002,25.9280019 139.408,26.2039992 139.408,26.372 C139.408,26.5400008 139.168002,26.624 138.688,26.624 L118.168,26.624 L118.168,52.688 C118.168,56.7680204 118.204,59.8639894 118.276,61.976 C118.348,64.0880106 118.384,65.2159993 118.384,65.36 C118.384,66.2240043 117.856005,66.859998 116.8,67.268 C115.743995,67.676002 115.060002,67.88 114.748,67.88 C114.435998,67.88 114.28,67.4000048 114.28,66.44 L114.424,61.328 C114.52,59.4559906 114.568,56.5280199 114.568,52.544 L114.568,26.624 L102.04,26.624 C99.4959873,26.624 97.8400038,26.8159981 97.072,27.2 L94.696,24.824 C96.5680094,24.9680007 98.4879902,25.04 100.456,25.04 L114.568,25.04 L114.568,11.288 C114.568,5.62397168 114.52,2.00000792 114.424,0.416 L120.328,3.44 C120.808002,3.6800012 121.048,3.88399916 121.048,4.052 C121.048,4.22000084 120.856002,4.4239988 120.472,4.664 L118.168,6.176 L118.168,25.04 L131.272,25.04 L134.368,20.648 L138.832,25.544 Z M81.808,3.44 C84.4960134,4.78400672 86.643992,6.03199424 88.252,7.184 C89.860008,8.33600576 90.9279974,9.3319958 91.456,10.172 C91.9840026,11.0120042 92.248,11.9599947 92.248,13.016 C92.248,14.0720053 91.9840026,14.9719963 91.456,15.716 C90.9279974,16.4600037 90.4120025,16.832 89.908,16.832 C89.4039975,16.832 89.0320012,16.6640017 88.792,16.328 C88.5519988,15.9919983 88.1800025,14.9960083 87.676,13.34 C87.1719975,11.6839917 86.3800054,10.1360072 85.3,8.696 C84.2199946,7.2559928 82.8640082,5.76800768 81.232,4.232 L81.808,3.44 Z M101.32,47.792 C95.4639707,53.3120276 91.7080083,57.0319904 90.052,58.952 C88.3959917,60.8720096 87.2560031,62.6239921 86.632,64.208 C86.4879993,64.5920019 86.3320008,64.784 86.164,64.784 C85.9959992,64.784 85.816001,64.688001 85.624,64.496 L81.52,60.752 C82.9600072,59.6479945 83.8479983,58.7600034 84.184,58.088 C84.5200017,57.4159966 84.688,56.1200096 84.688,54.2 L84.688,26.12 L79.144,26.336 C77.0799897,26.4320005 75.544005,26.6479983 74.536,26.984 L72.52,24.824 C73.2880038,24.9200005 74.0199965,24.9560001 74.716,24.932 C75.4120035,24.9079999 76.7439902,24.8720002 78.712,24.824 L84.616,24.608 L87.064,21.368 L91.6,25.04 C92.0800024,25.4240019 92.32,25.6879993 92.32,25.832 C92.32,25.9760007 92.0800024,26.1679988 91.6,26.408 L88.144,28.136 L88.144,56.432 L100.384,46.928 L101.32,47.792 Z M202.336,6.608 C202.528001,6.75200072 202.624,6.90799916 202.624,7.076 C202.624,7.24400084 202.504001,7.39999928 202.264,7.544 L199.816,8.984 L199.816,27.92 C199.816,30.128011 199.864,31.9759926 199.96,33.464 C200.056,34.9520074 200.104,35.8159988 200.104,36.056 C200.104,36.8240038 199.624005,37.4479976 198.664,37.928 C197.703995,38.4080024 197.092001,38.648 196.828,38.648 C196.563999,38.648 196.432,38.2880036 196.432,37.568 L196.432,35.336 L160.36,35.336 L160.36,37.064 C160.36,37.4960022 160.276001,37.8199989 160.108,38.036 C159.939999,38.2520011 159.508003,38.5039986 158.812,38.792 C158.115997,39.0800014 157.600002,39.224 157.264,39.224 C156.927998,39.224 156.76,38.8160041 156.76,38 L156.904,34.4 C156.952,33.007993 156.976,31.1840113 156.976,28.928 L156.976,10.208 C156.976,7.75998776 156.904001,5.43201104 156.76,3.224 L160.936,6.32 L195.064,6.32 L197.728,2.864 L202.336,6.608 Z M196.432,19.568 L196.432,7.904 L180.16,7.904 L180.16,19.568 L196.432,19.568 Z M176.776,19.568 L176.776,7.904 L160.36,7.904 L160.36,19.568 L176.776,19.568 Z M196.432,33.752 L196.432,21.152 L180.16,21.152 L180.16,33.752 L196.432,33.752 Z M176.776,33.752 L176.776,21.152 L160.36,21.152 L160.36,33.752 L176.776,33.752 Z M174.472,38.648 C178.600021,40.6640101 181.395993,42.3199935 182.86,43.616 C184.324007,44.9120065 185.056,46.0399952 185.056,47 C185.056,47.9600048 184.792003,48.8599958 184.264,49.7 C183.735997,50.5400042 183.268002,50.96 182.86,50.96 C182.451998,50.96 182.092002,50.8160014 181.78,50.528 C181.467998,50.2399986 181.264,49.8800022 181.168,49.448 C180.399996,46.4239849 178.00002,43.0400187 173.968,39.296 L174.472,38.648 Z M194.2,48.008 C194.296,51.1280156 194.427999,53.4319926 194.596,54.92 C194.764001,56.4080074 195.015998,57.4279972 195.352,57.98 C195.688002,58.5320028 196.215996,58.9279988 196.936,59.168 C197.224001,59.2640005 197.368,59.4559986 197.368,59.744 C197.368,60.0320014 197.056003,60.6679951 196.432,61.652 C195.807997,62.6360049 194.920006,63.3679976 193.768,63.848 C192.615994,64.3280024 190.384017,64.6279994 187.072,64.748 C183.759983,64.8680006 180.07602,64.928 176.02,64.928 C171.96398,64.928 169.168008,64.8440008 167.632,64.676 C166.095992,64.5079992 165.124002,64.124003 164.716,63.524 C164.307998,62.923997 164.104,61.7600086 164.104,60.032 L164.104,47.432 C164.104,45.1759887 164.056,42.9920106 163.96,40.88 L169.432,43.76 C169.720001,43.9040007 169.864,44.0359994 169.864,44.156 C169.864,44.2760006 169.720001,44.431999 169.432,44.624 L167.416,46.064 L167.416,58.952 C167.416,60.1040058 167.619998,60.8479983 168.028,61.184 C168.436002,61.5200017 169.491991,61.7239996 171.196,61.796 C172.900009,61.8680004 175.047987,61.904 177.64,61.904 C184.984037,61.904 189.339993,61.5440036 190.708,60.824 C192.076007,60.1039964 192.855999,55.8320391 193.048,48.008 L194.2,48.008 Z M198.52,42.968 C206.53604,47.0480204 210.544,50.6239846 210.544,53.696 C210.544,54.896006 210.328002,55.9039959 209.896,56.72 C209.463998,57.5360041 208.984003,57.944 208.456,57.944 C207.927997,57.944 207.532001,57.8120013 207.268,57.548 C207.003999,57.2839987 206.680002,56.5280062 206.296,55.28 C205.911998,54.0319938 204.976007,52.2440116 203.488,49.916 C201.999993,47.5879884 200.176011,45.4640096 198.016,43.544 L198.52,42.968 Z M157.12,44.552 C156.687998,51.0800326 155.656008,55.4959885 154.024,57.8 C152.391992,60.1040115 150.736008,61.256 149.056,61.256 C148.335996,61.256 147.760002,61.052002 147.328,60.644 C146.895998,60.235998 146.68,59.7440029 146.68,59.168 C146.68,58.3039957 147.111996,57.6080026 147.976,57.08 C150.424012,55.6399928 152.235994,53.9480097 153.412,52.004 C154.588006,50.0599903 155.487997,47.5280156 156.112,44.408 L157.12,44.552 Z M282.904,58.592 C283.192001,58.9280017 283.336,59.1679993 283.336,59.312 C283.336,59.4560007 283.048003,59.528 282.472,59.528 L251.008,59.528 L251.224,63.848 C251.272,64.3280024 251.236001,64.6759989 251.116,64.892 C250.995999,65.1080011 250.504004,65.515997 249.64,66.116 C248.775996,66.716003 248.188002,67.016 247.876,67.016 C247.563998,67.016 247.408,66.416006 247.408,65.216 L247.552,59.672 C247.6,57.5119892 247.624,55.1600127 247.624,52.616 L247.624,20.144 C244.359984,26.0960298 241.264015,30.7519832 238.336,34.112 L237.544,33.464 C240.616015,28.855977 243.567986,23.3960316 246.4,17.084 C249.232014,10.7719684 251.175995,5.4560216 252.232,1.136 L256.336,3.152 C256.912003,3.44000144 257.2,3.67999904 257.2,3.872 C257.2,4.06400096 256.840004,4.37599784 256.12,4.808 C255.399996,5.24000216 254.824002,5.9359952 254.392,6.896 L250.936,13.808 L250.936,15.248 L274.624,15.248 L277.504,11.504 L281.824,15.896 C282.160002,16.2320017 282.328,16.4719993 282.328,16.616 C282.328,16.7600007 282.016003,16.832 281.392,16.832 L266.488,16.832 L266.488,28.712 L273.04,28.712 L275.848,25.112 L280.096,29.288 C280.480002,29.6240017 280.672,29.8759992 280.672,30.044 C280.672,30.2120008 280.360003,30.296 279.736,30.296 L266.488,30.296 L266.488,42.176 L273.544,42.176 L276.568,38.432 L280.816,42.824 C281.152002,43.1600017 281.32,43.3999993 281.32,43.544 C281.32,43.6880007 281.056003,43.76 280.528,43.76 L266.488,43.76 L266.488,57.944 L275.344,57.944 L278.584,53.696 L282.904,58.592 Z M263.104,28.712 L263.104,16.832 L250.936,16.832 L250.936,28.712 L263.104,28.712 Z M263.104,42.176 L263.104,30.296 L250.936,30.296 L250.936,42.176 L263.104,42.176 Z M263.104,57.944 L263.104,43.76 L250.936,43.76 L250.936,52.76 C250.936,55.2560125 250.96,56.9839952 251.008,57.944 L263.104,57.944 Z M262.096,1.568 C267.088025,4.83201632 269.584,7.61598848 269.584,9.92 C269.584,10.8800048 269.380002,11.659997 268.972,12.26 C268.563998,12.860003 268.048003,13.16 267.424,13.16 C266.559996,13.16 266.08,12.7040046 265.984,11.792 C265.791999,9.96799088 265.336004,8.32400732 264.616,6.86 C263.895996,5.39599268 262.864007,3.84800816 261.52,2.216 L262.096,1.568 Z M241.936,15.68 C242.368002,15.9200012 242.584,16.1119993 242.584,16.256 C242.584,16.4000007 242.272003,16.6039987 241.648,16.868 C241.023997,17.1320013 240.568001,17.3959987 240.28,17.66 C239.991999,17.9240013 239.680002,18.3439971 239.344,18.92 C237.183989,23.0000204 231.928042,30.439946 223.576,41.24 L241.072,39.152 L241.144,40.232 C230.247946,42.1040094 223.79201,43.8319921 221.776,45.416 C221.535999,45.608001 221.332001,45.704 221.164,45.704 C220.995999,45.704 220.816001,45.5840012 220.624,45.344 L218.176,41.888 C219.808008,41.5039981 221.043996,40.9640035 221.884,40.268 C222.724004,39.5719965 224.211989,37.6880154 226.348,34.616 C228.484011,31.5439846 230.631989,28.0880192 232.792,24.248 C226.311968,25.0640041 221.968011,26.1439933 219.76,27.488 C219.471999,27.6320007 219.232001,27.704 219.04,27.704 C218.847999,27.704 218.680001,27.5600014 218.536,27.272 L216.592,23.672 C217.696006,23.5279993 218.511997,23.2880017 219.04,22.952 C219.568003,22.6159983 220.515993,21.4040104 221.884,19.316 C223.252007,17.2279896 224.703992,14.7200146 226.24,11.792 C227.776008,8.86398536 229.047995,6.03201368 230.056,3.296 L234.232,5.24 C234.664002,5.43200096 234.88,5.59999928 234.88,5.744 C234.88,5.88800072 234.544003,6.09199868 233.872,6.356 C233.199997,6.62000132 232.756001,6.88399868 232.54,7.148 C232.323999,7.41200132 232.072001,7.75999784 231.784,8.192 L220.408,23.96 L233.44,23.096 C235.168009,19.8799839 236.727993,16.6160166 238.12,13.304 L241.936,15.68 Z M243.304,51.752 L231.856,56.072 C225.90397,58.3280113 222.472005,60.0799938 221.56,61.328 C221.415999,61.520001 221.284001,61.616 221.164,61.616 C221.043999,61.616 220.840001,61.4480017 220.552,61.112 L217.816,57.728 L243.088,50.816 L243.304,51.752 Z" id="design-thinking-c" fill="#3d464d" sketch:type="MSShapeGroup"></path>
    </g>
</svg>
