<svg xmlns="http://www.w3.org/2000/svg" width="44" height="44" viewBox="0 0 44 44"><path d="M0 24.131c2.215-1.644 4.159-5.099 8.889-6.607-2.851-.537-4.26-2.65-4.26-4.763 0-2.28 1.712-4.025 4.091-4.025 1.947 0 3.154 1.409 4.094 3.019-.502-.168-1.008-.269-1.442-.269-1.243 0-2.215.672-2.215 1.913 0 1.643 1.275 2.112 3.154 2.112 2.179 0 5.466-.67 9.994-.67 6.607 0 13.515 4.763 13.515 12.308.437.134 1.04.235 1.678.235 3.621 0 4.83-1.408 4.83-3.321 0-1.475-1.208-2.615-4.361-2.918-.268-.033-.401-.502-.401-1.14 0-1.274.569-3.22 1.341-3.22.101 0 .168 0 .235.034 1.979.905 4.729 3.22 4.729 6.775 0 3.487-2.347 4.862-6.371 4.862-.672 0-1.241-.033-1.745-.134-.47 4.259-3.287 6.942-8.116 6.942-4.259 0-6.909-2.716-6.909-5.332 0-3.119 2.213-4.763 5.903-4.763 3.756 0 5.501.939 7.144 1.442-.403-3.722-3.487-6.64-9.358-6.64-6.808 0-10.664 3.857-10.664 6.373 0 1.341.737 1.979 1.843 1.979 1.107 0 1.879-.739 2.448-1.509.067.401.101.804.101 1.173 0 2.65-2.013 4.394-4.125 4.394-2.28 0-4.192-1.811-4.192-4.192 0-1.577.571-2.683 1.24-3.355-1.24.336-2.212.47-3.487.47-3.055 0-5.535-1.074-7.583-1.173zm21.936 5.802c0 1.912 2.045 4.259 5.701 4.259 4.293 0 6.105-2.481 6.172-6.405-1.845-.47-3.823-1.543-7.178-1.543-3.287-.001-4.695 1.575-4.695 3.689z" fill="#4fb5c6"/></svg>