<svg xmlns="http://www.w3.org/2000/svg" width="44" height="44" viewBox="0 0 44 44"><path fill="#4FB5C6" d="M36.289 22.304c-1.275 0-2.248-.134-3.487-.47.669.672 1.24 1.778 1.24 3.355 0 2.381-1.912 4.192-4.192 4.192-2.112 0-4.125-1.744-4.125-4.394 0-.369.034-.771.101-1.173.569.77 1.341 1.509 2.448 1.509 1.106 0 1.843-.638 1.843-1.979 0-2.515-3.856-6.373-10.664-6.373-5.87 0-8.955 2.918-9.358 6.64 1.643-.502 3.388-1.442 7.144-1.442 3.689 0 5.903 1.644 5.903 4.763 0 2.616-2.65 5.332-6.909 5.332-4.83 0-7.647-2.683-8.116-6.942-.504.101-1.073.134-1.745.134-4.025.001-6.372-1.374-6.372-4.862 0-3.556 2.75-5.87 4.729-6.775.067-.034.134-.034.235-.034.771 0 1.341 1.946 1.341 3.22 0 .638-.134 1.107-.401 1.14-3.153.303-4.361 1.443-4.361 2.918 0 1.913 1.208 3.321 4.83 3.321.638 0 1.241-.101 1.678-.235 0-7.546 6.908-12.308 13.515-12.308 4.528 0 7.815.67 9.994.67 1.879 0 3.154-.47 3.154-2.112 0-1.241-.972-1.913-2.215-1.913-.434 0-.939.101-1.442.269.939-1.61 2.147-3.019 4.094-3.019 2.379 0 4.091 1.745 4.091 4.025 0 2.112-1.409 4.226-4.26 4.763 4.73 1.509 6.674 4.963 8.889 6.607-2.05.099-4.529 1.173-7.582 1.173zm-19.05.939c-3.355 0-5.333 1.073-7.178 1.543.067 3.924 1.879 6.405 6.172 6.405 3.655 0 5.701-2.347 5.701-4.259-.001-2.113-1.408-3.689-4.695-3.689z"/></svg>