<svg xmlns="http://www.w3.org/2000/svg" width="1190.55" height="675.766" viewBox="0 72.766 1190.55 675.766" enable-background="new 0 72.766 1190.55 675.766"><path opacity=".9" fill="#2D2F30" enable-background="new" d="M254.625 755.743l-5.152-585.773 10-.088 5.152 585.773-10 .088M373.608 748.457M383.61 748.457M373.608 748.457l7.644-456.649 9.999.167-7.641 456.482M513.539 748.456M523.542 748.457M513.539 748.456l12.47-575.194 9.998.217-12.465 574.978M576.122 748.457M586.168 748.456M576.122 748.457l50.204-518.991 9.953.963-50.111 518.027"/><path opacity=".9" fill="#50B5C6" enable-background="new" d="M238.524 304.869l-208.687-66.481 208.248-67.845z"/><path opacity=".9" fill="#C4C9CA" enable-background="new" d="M368.525 426.217l-208.687-66.481 208.248-67.845z"/><path opacity=".9" fill="#50B5C6" enable-background="new" d="M635.656 364.97l213.415-49.232-202.017-84.61z"/><path opacity=".9" fill="#F3BB1A" enable-background="new" d="M510.575 307.218l-206.565-72.808 210.218-61.469z"/><path opacity=".9" fill="#2D2F30" enable-background="new" d="M918.809 748.456M928.853 748.457M918.809 748.456l-52.229-550.889 9.955-.944 52.318 551.834"/><path opacity=".9" fill="#50B5C6" enable-background="new" d="M901.346 329.813l200.717-87.65-214.134-46.004z"/><path opacity=".9" fill="#2D2F30" enable-background="new" d="M698.031 748.457M708.034 748.457M698.031 748.457l-7.364-339.692 9.998-.217 7.369 339.909"/><path opacity=".9" fill="#F3BB1A" enable-background="new" d="M922.664 469.696l-210.218-61.468 3.654 134.276"/><path opacity=".9" fill="#2D2F30" enable-background="new" d="M1011.488 748.457M1021.556 748.456M1011.488 748.457l48.066-413.525 9.933 1.154-47.931 412.37"/><path opacity=".9" fill="#C4C9CA" enable-background="new" d="M1033.594 467.693l-201.096-86.777 213.933-46.934z"/></svg>