<svg xmlns="http://www.w3.org/2000/svg" width="1190.55" height="675.766" viewBox="0 72.766 1190.55 675.766" enable-background="new 0 72.766 1190.55 675.766"><polyline opacity=".9" fill="#2D2F30" enable-background="new" points="254.625,755.743 249.473,169.97 259.473,169.882 264.625,755.655 254.625,755.743"/><path opacity=".9" fill="#2D2F30" enable-background="new" d="M373.608 748.457M383.61 748.457"/><polyline opacity=".9" fill="#2D2F30" enable-background="new" points="373.608,748.457 381.252,291.808 391.251,291.975 383.61,748.457"/><path opacity=".9" fill="#2D2F30" enable-background="new" d="M513.539 748.456M523.542 748.457"/><polyline opacity=".9" fill="#2D2F30" enable-background="new" points="513.539,748.456 526.009,173.262 536.007,173.479 523.542,748.457"/><path opacity=".9" fill="#2D2F30" enable-background="new" d="M576.122 748.457M586.168 748.456"/><polyline opacity=".9" fill="#2D2F30" enable-background="new" points="576.122,748.457 626.326,229.466 636.279,230.429 586.168,748.456"/><polygon opacity=".9" fill="#50B5C6" enable-background="new" points="238.524,304.869 29.837,238.388 238.085,170.543"/><polygon opacity=".9" fill="#C4C9CA" enable-background="new" points="368.525,426.217 159.838,359.736 368.086,291.891"/><polygon opacity=".9" fill="#50B5C6" enable-background="new" points="635.656,364.97 849.071,315.738 647.054,231.128"/><polygon opacity=".9" fill="#F3BB1A" enable-background="new" points="510.575,307.218 304.01,234.41 514.228,172.941"/><path opacity=".9" fill="#2D2F30" enable-background="new" d="M918.809 748.456M928.853 748.457"/><polyline opacity=".9" fill="#2D2F30" enable-background="new" points="918.809,748.456 866.58,197.567 876.535,196.623 928.853,748.457"/><polygon opacity=".9" fill="#50B5C6" enable-background="new" points="901.346,329.813 1102.063,242.163 887.929,196.159"/><path opacity=".9" fill="#2D2F30" enable-background="new" d="M698.031 748.457M708.034 748.457"/><polyline opacity=".9" fill="#2D2F30" enable-background="new" points="698.031,748.457 690.667,408.765 700.665,408.548 708.034,748.457"/><polyline opacity=".9" fill="#F3BB1A" enable-background="new" points="922.664,469.696 712.446,408.228 716.1,542.504"/><path opacity=".9" fill="#2D2F30" enable-background="new" d="M1011.488 748.457M1021.556 748.456"/><polyline opacity=".9" fill="#2D2F30" enable-background="new" points="1011.488,748.457 1059.554,334.932 1069.487,336.086 1021.556,748.456"/><polygon opacity=".9" fill="#C4C9CA" enable-background="new" points="1033.594,467.693 832.498,380.916 1046.431,333.982"/></svg>