<?xml version="1.0" encoding="UTF-8" standalone="no"?>
<svg width="512px" height="512px" viewBox="0 0 512 512" version="1.1" xmlns="http://www.w3.org/2000/svg" xmlns:xlink="http://www.w3.org/1999/xlink" xmlns:sketch="http://www.bohemiancoding.com/sketch/ns">
    <!-- Generator: Sketch 3.3.3 (12072) - http://www.bohemiancoding.com/sketch -->
    <title>icon-mask</title>
    <desc>Created with Sketch.</desc>
    <defs></defs>
    <g id="Page-1" stroke="none" stroke-width="1" fill="none" fill-rule="evenodd" sketch:type="MSPage">
        <path d="M198.324169,265.454955 C190.236885,265.454955 183.304928,263.529412 177.528297,259.293216 C149.030251,306.66159 169.441014,374.055619 242.996782,374.055619 C349.286793,374.055619 364.306034,257.367672 299.992875,257.367672 C218.349823,257.367672 257.245805,334.00431 272.265046,306.276481 C280.737438,290.487023 301.918419,303.58072 293.446026,320.525505 C283.048091,341.706485 234.52439,330.153223 239.530804,277.778435 C242.996782,243.503758 279.582112,222.322777 320.018529,222.322777 C423.612779,222.322777 400.121146,166.867119 388.952993,178.80549 C375.474187,193.054513 352.367663,183.426795 360.454946,165.326684 C368.157121,147.996791 419.376583,153.388314 407.823321,207.303536 C404.357342,224.248321 387.797667,250.820824 335.422879,254.671911 C383.56147,315.133982 320.403638,402.168556 228.747759,402.168556 C103.972529,402.168556 103.202311,287.791262 169.441014,253.131476 C134.01101,216.546146 145.949381,124.890267 250.313848,124.890267 C293.831135,124.890267 315.397224,148.3819 312.316354,173.028859 C308.850376,198.831144 269.184176,198.446036 273.805481,174.954403 C278.426786,152.618096 267.643741,137.598855 239.915912,137.598855 C192.547538,137.598855 175.217645,191.899187 187.926233,238.112235 C222.971128,224.248321 223.356237,265.454955 198.324169,265.454955 L198.324169,265.454955 Z" id="&amp;-copy" fill="#000000" sketch:type="MSShapeGroup"></path>
    </g>
</svg>