<svg width="256" height="256" viewBox="0 0 256 256" xmlns="http://www.w3.org/2000/svg"><title>icon-mask</title><path d="M35.955 117.097v23.162h107.78c21.5-.27 35.036-.206 49.816-13.885 14.782-13.68 23.322-33.985 23.035-53.987.287-20.59-5.594-36.784-19.658-50.91-14.063-14.127-29.095-20.04-49.698-20.04H35.954v23.01H150.99c16.754 0 25.873 7.406 34.204 16.347 8.33 8.94 9.483 19.05 9.194 31.593.29 10.525-5.206 25.364-13.895 34.216-8.69 8.85-19.917 10.976-31.383 10.493H35.955zm0 114.454v23.012H208.54v-23.01H35.954zm0-57.528v23.012H208.54v-23.012H35.954z" fill="#000" fill-rule="evenodd"/></svg>