<svg width="98" height="90" viewBox="0 0 98 90" xmlns="http://www.w3.org/2000/svg" xmlns:sketch="http://www.bohemiancoding.com/sketch/ns"><title>Logo</title><path d="M52.57 42.017l18.509-18.756-10.981-11.25 11.819-12.011 10.981 11.25 2.598-2.707 8.131 8.289-2.682 2.622c2.794 4.511 4.862 14.718 6.203 30.62l-17.938-18.609-17.544 18.004-12.639 12.639.043.043-8.419 8.563-16.094 19.286-10.981-11.165 18.86-16.325 7.198-7.263.083.08 12.853-13.309zm-4.841-2.185l-16.298-16.656 10.897-11.165-11.735-12.011-10.981 11.165-2.598-2.622-8.215 8.289 2.766 2.622-11.065 11.25 11.735 11.927 11.065-11.165 16.396 16.685 8.033-8.319zm15.175 15.47l7.085 7.207 19.028 16.325-10.981 11.165-16.094-19.286-7.22-7.229 8.182-8.182z" fill="#fff" sketch:type="MSShapeGroup"/></svg>