<svg xmlns="http://www.w3.org/2000/svg" width="200" height="200" viewBox="0 0 200 200"><circle fill="#4fb5c6" cx="100.529" cy="99.539" r="96.3"/><path fill="#fff" d="M94.558 55.005l-.008.386-.006 1.055c-.004.956.016 2.41.062 4.333.041 1.923.119 4.314.21 7.136l.3 9.726c.095 3.651.201 7.699.268 12.114.056 4.415.092 9.195.052 14.312-.026 2.558-.07 5.201-.141 7.923-.077 2.723-.179 5.526-.321 8.406-.298 5.76-.739 11.828-1.564 18.178-.407 3.176-.943 6.422-1.733 9.715-.795 3.293-1.808 6.64-3.298 9.985-.751 1.671-1.618 3.344-2.739 4.975-.562.814-1.193 1.615-1.922 2.38-.728.762-1.572 1.486-2.548 2.095-.489.302-1.011.573-1.563.798-.272.118-.558.212-.842.305l-.435.12-.218.056-.205.045c-.988.207-2.016.336-3.025.389-2.027.103-4.052-.084-6.044-.553-1.988-.472-3.951-1.247-5.758-2.426-1.802-1.172-3.451-2.788-4.589-4.813-.568-1.008-1-2.107-1.275-3.238-.272-1.133-.389-2.293-.371-3.431l.009-.27.008-.174.016-.349c.026-.296.06-.641.102-.945.094-.589.206-1.185.395-1.782.351-1.193.952-2.372 1.748-3.398.801-1.02 1.78-1.879 2.813-2.532 1.034-.666 2.114-1.146 3.186-1.528 1.075-.382 2.148-.644 3.212-.845 1.064-.199 2.121-.334 3.167-.419 4.186-.339 8.25-.049 12.263.382 2.004.219 3.997.501 5.952.772.975.135 1.936.273 2.841.371l.737.084.368.042.352.036c.471.046.936.098 1.417.138 3.819.348 7.652.519 11.43.378 3.776-.134 7.501-.576 11.033-1.446 3.53-.876 6.861-2.176 9.829-4.002 2.981-1.805 5.593-4.137 7.85-6.878 2.259-2.739 4.154-5.895 5.746-9.294 1.597-3.399 2.885-7.042 3.972-10.797l.191-.655.206-.753.051-.188.041-.164.08-.32.16-.65c.216-.908.409-1.824.58-2.745.334-1.845.585-3.711.736-5.595.618-7.536-.217-15.309-2.288-22.804-2.068-7.497-5.39-14.73-9.832-21.173-4.447-6.429-10.05-12.071-16.55-16.18-3.244-2.054-6.706-3.717-10.293-4.9-3.582-1.196-7.303-1.864-10.999-1.974-1.848-.058-3.689.032-5.503.245-1.813.223-3.6.568-5.344 1.034-1.744.468-3.443 1.055-5.094 1.731-1.648.686-3.246 1.461-4.791 2.313-3.09 1.707-5.968 3.713-8.662 5.886l-.505.408-.252.204-.228.193-.525.442-.503.431-.933.827c-.313.288-.631.57-.938.861-1.238 1.153-2.411 2.343-3.517 3.563-1.104 1.221-2.14 2.474-3.095 3.759-.96 1.282-1.832 2.602-2.598 3.958-1.556 2.698-2.716 5.525-3.453 8.398-.734 2.872-1.045 5.792-.927 8.661.107 2.87.641 5.685 1.509 8.354 1.752 5.344 4.887 10.05 8.672 13.703 3.791 3.667 8.229 6.283 12.694 7.841 4.474 1.555 8.964 2.094 13.052 1.818 2.045-.161 3.982-.559 5.77-1.121.448-.138.886-.287 1.314-.447.432-.147.847-.329 1.261-.492.819-.353 1.609-.705 2.36-1.09 3.007-1.527 5.488-3.197 7.624-4.68 1.064-.75 2.032-1.47 2.92-2.135.442-.336.876-.641 1.286-.94.416-.29.812-.567 1.192-.825 1.524-1.025 2.79-1.757 3.694-2.22.451-.232.802-.405 1.053-.507l.378-.155.108-.037c1.319-.458 2.76.239 3.219 1.559.188.541.181 1.103.017 1.609l-.156.403c-.105.267-.277.652-.532 1.142-.518.968-1.373 2.353-2.784 3.905-.703.777-1.553 1.586-2.555 2.4-1.013.8-2.159 1.629-3.456 2.444-2.592 1.623-5.819 3.169-9.628 4.246-.946.282-1.933.518-2.943.745-1.017.209-2.056.413-3.126.575-2.14.329-4.385.549-6.727.647-2.341.086-4.788.067-7.301-.251-2.511-.309-5.091-.845-7.673-1.672-5.164-1.637-10.373-4.383-15.03-8.375-1.167-.993-2.291-2.071-3.371-3.221-1.079-1.151-2.115-2.375-3.081-3.683-.965-1.307-1.872-2.688-2.696-4.144-.819-1.459-1.566-2.987-2.21-4.584-1.288-3.192-2.181-6.661-2.512-10.28-.345-3.615-.116-7.372.696-11.057.409-1.841.962-3.663 1.647-5.444.69-1.779 1.514-3.513 2.449-5.191 1.883-3.35 4.215-6.464 6.89-9.257 1.335-1.399 2.756-2.718 4.238-3.964.37-.313.75-.612 1.126-.918.377-.306.783-.61 1.177-.911l.569-.421.556-.403.314-.228.298-.208.597-.417c3.211-2.193 6.677-4.134 10.37-5.674 1.844-.774 3.739-1.454 5.675-2.028 1.939-.569 3.918-1.026 5.922-1.38 4.013-.684 8.13-.914 12.235-.632 4.106.27 8.197 1.036 12.171 2.256 3.973 1.225 7.823 2.913 11.474 4.989 3.652 2.076 7.112 4.528 10.354 7.27 1.611 1.382 3.183 2.822 4.684 4.341 1.504 1.517 2.947 3.102 4.333 4.745 5.527 6.581 10.078 14.146 13.222 22.409.793 2.063 1.47 4.177 2.076 6.319.595 2.146 1.085 4.328 1.475 6.537.777 4.418 1.108 8.954.922 13.505-.084 2.275-.317 4.552-.666 6.816-.184 1.13-.387 2.26-.636 3.381l-.2.869-.104.439-.052.215-.049.189-.194.756-.121.449-.111.399c-1.19 4.248-2.688 8.471-4.663 12.567-1.979 4.085-4.438 8.061-7.554 11.601-.77.889-1.593 1.74-2.444 2.563-.846.828-1.746 1.606-2.667 2.354-.924.746-1.888 1.443-2.87 2.107-.988.657-2.004 1.266-3.037 1.838-4.158 2.252-8.63 3.689-13.052 4.464-1.106.203-2.211.351-3.312.483-1.101.117-2.199.212-3.29.268-2.183.124-4.341.121-6.472.036-4.263-.17-8.407-.689-12.451-1.38-.503-.083-1.018-.18-1.527-.272l-.382-.069-.365-.071-.728-.142c-1.049-.199-2.027-.42-2.99-.63-1.92-.426-3.79-.825-5.65-1.172-1.858-.347-3.701-.64-5.522-.836-1.82-.196-3.619-.315-5.357-.277-1.732.04-3.414.224-4.882.641-1.477.411-2.662 1.083-3.425 1.95-.379.442-.683.938-.892 1.53-.114.289-.189.61-.257.938l-.072.441-.05.6c-.082 1.441.181 2.797.802 4.008.613 1.215 1.608 2.269 2.813 3.113 1.213.837 2.634 1.456 4.119 1.837 1.487.377 3.044.504 4.54.371.752-.068 1.471-.191 2.186-.396l.114-.034.097-.034.194-.068.378-.171c.251-.118.489-.281.725-.457.471-.358.921-.807 1.327-1.346.411-.531.784-1.133 1.122-1.775.677-1.286 1.208-2.727 1.653-4.202.88-2.966 1.434-6.079 1.903-9.159.459-3.087.826-6.161 1.146-9.19.309-3.032.524-6.025.693-8.96.17-2.935.283-5.813.362-8.624.083-2.811.129-5.555.151-8.226.026-2.671.03-5.268.016-7.787-.016-5.038-.09-9.76-.189-14.131-.089-4.371-.189-8.392-.292-12.028l-.246-9.728c-.064-2.839-.099-5.264-.117-7.246-.012-1.982.005-3.522.03-4.584l.021-.704.021-.528.019-.386c.115-2.4 2.154-4.253 4.555-4.138 2.357.113 4.186 2.081 4.142 4.425l-.001.005z"/></svg>