<svg xmlns="http://www.w3.org/2000/svg" width="305.257" height="200" viewBox="-52.453 0 305.257 200" enable-background="new -52.453 0 305.257 200"><path fill="#4FB5C6" d="M125.455 58.056c1.726 6.212 2.761 13.805 2.761 22.605 0 27.092-5.349 44.175-18.809 54.529v-79.378c5.522.173 11.044.691 16.048 2.244zm-177.908 86.106v13.632l30.888 30.888c23.813 0 60.741-.863 81.793-.863l79.032.863c60.051.345 113.544-22.605 113.544-77.134 0-22.95-10.526-45.728-31.233-65.917-23.296-22.605-58.325-32.786-119.411-33.131l-75.581.863s-55.391-.863-79.032-.863v13.632l30.888 30.888c4.314 0 7.938.173 11.389.69 1.208 6.385 1.726 13.977 1.726 22.95 0 45.729-10.872 63.502-44.003 63.502z"/><path fill="#fff" d="M130.46 80.661c0 46.591-17.083 66.953-53.493 66.953v-124.243c28.472 0 53.493 12.252 53.493 57.29zm88.695.69c0-50.732-41.414-65.055-116.995-65.4l-75.581.863s-55.391-.863-75.581-.863v7.42c32.269 0 44.003 15.358 44.003 57.29 0 48.489-12.252 66.953-44.003 66.953v7.42l79.032-.863 79.032.863c57.98.345 110.093-21.053 110.093-73.683z"/><path opacity=".4" fill="#4FB5C6" d="M115.965 142.264v.863l8.455 3.796 6.385-2.071 8.628-.518 8.283.863 13.632-2.416v-1.208l-13.632-1.898-8.283.863-8.628-.518-6.385-2.071-8.455 4.315zm-132.698-.172v.863l7.938 2.416 5.694 1.898 10.181-2.071 10.181-.345 9.318-.69 7.593 1.208 7.247-1.726 7.765.173 10.871.863 10.526-2.071v-.345l-10.526-2.071-10.871.863-7.765.173-7.247-1.726-7.593 1.208-9.318-.69-10.181-.346-10.181-2.071-5.694 1.898-7.938 2.589zm141.843-10.354v1.035l5.867 2.416 7.075-.518 11.389-.518 6.385-.69 11.044 1.898 6.385-2.243 10.871-.863v-.863l-10.871-.345-6.385-2.243-11.044 1.898-6.385-.69-11.389-.518-7.075-.518-5.867 2.762zm-132.87.173v.69l7.938 2.416 9.491.173 7.247 1.035 9.318-2.243 6.385.518 8.455-.518 11.561 2.588 8.11-3.451 9.836-.69v-.69l-9.836-.69-8.11-3.451-11.561 2.588-8.455-.518-6.385.518-9.318-2.243-7.247 1.035-9.491.173-7.938 2.76zm138.047-10.526v1.035l4.314 2.243h18.982l9.836.863 7.247-2.071 5.867-.518h11.044l9.318-1.035v-1.035l-9.318-.345h-11.044l-5.867-.518-7.247-2.071-9.836.863h-18.982l-4.314 2.589zm-133.733.172v.69l4.314 1.38 9.836 1.553 8.283-.69 9.663-1.035 8.11.173 6.385-1.208 7.593.173 10.354 1.035 9.491-1.726v-.345l-9.491-1.726-10.354 1.035-7.593.173-6.385-1.208-8.11.173-9.663-1.035-8.283-.69-9.836 1.553-4.314 1.725zm137.012-10.353v.863l4.487 1.553 10.871 2.071 8.801-.518 10.871-1.553 8.973-.173 9.146-.345 5.177 1.553 13.287-3.106v-1.035l-13.287-2.416-5.177 1.553-9.146-.345-8.973-.173-10.871-1.553-8.801-.518-10.871 2.071-4.487 2.071zm-134.941 0v.345l7.42 3.624 9.145-.173h7.42l9.491-1.035 7.075 1.381 12.942-3.106 7.765.863 10.699-1.381v-.69l-10.699-1.38-7.765.863-12.942-3.106-7.075 1.381-9.491-1.035h-7.42l-9.146-.173-7.419 3.622zm136.839-10.354v.345l5.522 3.969h10.526l5.522-1.553 8.11 1.208 10.008-1.035 7.42 1.38 10.699-2.071 7.592.518 8.973-2.416v-.69l-8.973-2.071-7.592.518-10.699-2.071-7.42 1.38-10.008-1.035-8.11 1.208-5.522-1.553h-10.526l-5.522 3.969zm-135.632 0v.863l5.867 2.934 8.973-1.035 7.42 1.208 9.318-2.071 9.663 1.38 10.699-1.726 6.73 1.208 12.079-2.243v-.69l-12.079-2.243-6.73 1.208-10.699-1.726-9.663 1.38-9.318-2.071-7.42 1.208-8.973-1.035-5.867 3.451zm136.667-10.526v.69l5.694 1.553 10.871 1.726 6.212.69 10.699-1.898 5.522-.863 7.42-.518 10.354.173 10.353.173 8.801-1.208v-.69l-8.801-.863-10.353.173-10.354.173-7.42-.518-5.522-.863-10.699-1.898-6.212.69-10.871 1.725-5.694 1.553zm-136.149 0v.69l7.592 3.279 6.73-1.208 9.491-.863 9.146.863 6.73-.863 12.769 3.451 7.42-1.208 10.354-3.624v-.345l-10.354-3.624-7.42-1.208-12.769 3.451-6.73-.863-9.146.863-9.491-.863-6.73-1.208-7.592 3.28zm136.494-10.353v.69l8.283 2.934 6.385.345 8.11.173 9.491-1.38 9.491-.69h6.212l7.593-.863 10.871 1.38 10.354-1.726v-.69l-10.354-2.071-10.871 1.38-7.593-.863h-6.212l-9.491-.69-9.491-1.38-8.11.173-6.385.345-8.283 2.933zm-136.321 0v.69l8.628 1.898 4.659 2.588 10.353-2.933 10.354-.345 8.455.345 6.04-.69 9.836.173 11.734-1.035v-.69l-11.734-1.035-9.836.173-6.04-.69-8.455.345-10.354-.345-10.353-2.936-4.659 2.588-8.628 1.899zm135.976-10.527v.69l4.487 2.416 11.389.173 7.42.173 8.973-1.035 6.73.69 10.354-1.208h6.04l10.353.173 10.008-.863v-1.381l-10.008-.863-10.353.173h-6.04l-10.354-1.208-6.73.69-8.973-1.035-7.42.173-11.389.173-4.487 2.069zm-136.149.346v.345l6.04 2.416 11.044 1.035 7.075-1.381h8.11l10.699.345 9.146-1.726 5.522 1.38 12.597-1.898v-.69l-12.597-1.898-5.522 1.38-9.146-1.726-10.699.345h-8.11l-7.075-1.381-11.044 1.038-6.04 2.416zm134.424-10.872v1.035l5.177 1.726 9.146 1.553 8.973-.518 7.075-.863 9.491 2.071 5.694-2.071 8.628 1.38 7.765-1.898 12.252-.863v-1.035l-12.252-1.553-7.765-1.898-8.628 1.38-5.694-2.071-9.491 2.071-7.075-.863-8.973-.518-9.146 1.553-5.177 1.382zm-135.114.346v.69l7.938 3.279 6.73.173 9.836-.173 7.938-1.553 10.181-.69 7.075-.345 11.044.345 10.181-1.035v-.69l-10.181-1.035-11.044.345-7.075-.345-10.181-.69-7.938-1.553-9.836-.173-6.73.173-7.938 3.277zm132.008-10.699v1.035l6.902 3.969 10.526-2.071 6.212 1.035 8.8-.863 8.801 1.035 9.146-1.898h10.008l10.526-1.035v-.862l-10.526-1.208h-10.008l-9.146-1.898-8.801 1.035-8.8-.863-6.212 1.035-10.526-2.071-6.902 3.625zm-133.561 0v1.035l8.628 3.969 8.628.173 7.247-1.208 8.11-1.381 11.906-.69 7.938 2.934 8.801-2.588 11.217-1.209v-.69l-11.216-1.208-8.801-2.588-7.938 2.934-11.906-.69-8.11-1.381-7.247-1.208-8.628.173-8.629 3.623zm128.384-10.181v.863l8.455 2.243 8.801-.518 8.283.518 11.044-.345 5.695-1.208 11.561.69 10.354-.863v-1.035l-10.354-1.553-11.561.69-5.695-1.208-11.044-.345-8.283.518-8.801-.518-8.455 2.071zm-132.008-.173v.863l7.593 2.761 5.177-.518 10.181.518 6.73-.173 11.389-1.208 6.385.345 8.283-.69 9.491.69 10.871-1.726v-.345l-10.873-1.725-9.491.69-8.283-.69-6.385.345-11.389-1.208-6.73-.173-10.179.519-5.177-.518-7.593 2.243zm122.862-10.353v.863l8.283 2.071 6.73 2.071 13.632-2.243 7.593.69 11.734-1.898v-1.208h-11.734l-7.593-1.726-13.632-2.243-6.73 2.071-8.283 1.552zm-130.972.172v.69l7.247 2.761 6.04.518 11.216-.863 9.146-.173 8.11-.69h4.487l11.734-.69 7.075.345 9.663 2.761 9.491-3.796v-.69l-9.491-3.796-9.663 2.761-7.075.345-11.734-.69h-4.487l-8.11-.69-9.146-.173-11.216-.863-6.04.518-7.247 2.415z"/></svg>