<svg width="389" height="46" viewBox="0 0 389 46" fill="none" xmlns="http://www.w3.org/2000/svg">
<path d="M33.7334 25.1133C41.0884 25.1133 46.1208 21.0575 46.1208 14.0564C46.1208 6.9588 41.5239 2.95129 33.7334 2.95129H20.3298V35.2045H28.459V25.1133H33.7334ZM37.7496 14.1047C37.7496 17.1466 36.2012 18.7882 32.7656 18.7882H28.459V9.37297H32.7656C36.2496 9.37297 37.7496 11.1594 37.7496 14.1047Z" fill="black"/>
<path d="M69.8492 18.4019C69.8492 13.2356 66.704 10.1938 59.7361 10.1938C53.5423 10.1938 49.6229 13.2356 49.1874 18.1122L56.494 19.1262C56.494 17.05 57.5102 15.8429 59.3973 15.8429C61.2361 15.8429 62.1555 16.9052 62.1555 18.6916V21.1541C61.3329 21.1058 60.0748 21.0092 59.107 21.0092C52.1875 21.0092 47.9777 23.7131 47.9777 28.5897C47.9777 33.08 51.1229 35.6873 55.7198 35.6873C58.9618 35.6873 61.7684 34.2388 62.7845 31.873C62.9781 32.5006 63.22 33.0318 63.6071 33.4663C64.6717 34.8665 66.4136 35.6873 68.6395 35.6873C70.2847 35.6873 71.9299 35.2528 73.0428 34.4803L72.7525 29.314C72.3654 29.6519 71.9299 29.8451 71.3976 29.8451C70.5266 29.8451 69.8492 29.3622 69.8492 28.1069V18.4019ZM62.1555 26.5135C62.1555 29.4588 60.3167 30.521 58.5263 30.521C56.6876 30.521 55.623 29.5071 55.623 27.962C55.623 25.9824 57.2682 24.9685 60.4619 24.9685C61.0909 24.9685 61.72 25.0167 62.1555 25.065V26.5135Z" fill="black"/>
<path d="M83.3794 18.4019C83.3794 16.0843 84.5407 14.7807 86.6698 14.7807C88.7021 14.7807 89.9118 16.0361 89.9118 18.4019C89.9118 20.7195 88.7021 22.0232 86.6698 22.0232C84.5407 22.0232 83.3794 20.623 83.3794 18.4019ZM100.267 36.2667C100.267 31.4867 96.9765 28.9277 90.2022 28.9277H83.7181C82.7504 28.9277 82.0245 28.5897 82.0245 27.7206C82.0245 26.9964 82.46 26.5135 83.1859 26.1755C84.2988 26.417 85.4601 26.5135 86.6698 26.5135C92.9603 26.5135 97.7991 23.9062 97.7991 18.4502C97.7991 16.8569 97.3153 15.4567 96.4927 14.2979C98.5734 13.815 100.654 12.27 100.993 9.75923L94.6539 7.68305C94.5087 9.17983 94.1216 10.7732 93.3474 11.6423C91.5087 10.7249 89.2344 10.1938 86.6698 10.1938C80.0406 10.1938 75.5889 13.0908 75.5889 18.4502C75.5889 21.6852 77.3793 23.9545 80.2342 25.2582C77.718 25.8376 75.7824 27.624 75.7824 30.0865C75.7824 32.4524 77.2341 34.0457 79.2664 34.6251C76.1696 35.0597 73.9921 36.7013 73.9921 39.2603C73.9921 43.8472 80.089 45.344 85.8472 45.344C93.0087 45.344 100.267 42.9298 100.267 36.2667ZM80.4277 37.9084C80.4277 36.5564 81.5407 35.7839 83.2343 35.7839H90.1538C92.1377 35.7839 93.299 36.4116 93.299 37.7152C93.299 39.6949 90.4925 40.6122 86.1375 40.6122C82.6052 40.6122 80.4277 39.7431 80.4277 37.9084Z" fill="black"/>
<path d="M113.95 29.8934C111.241 29.8934 109.402 27.8655 109.353 24.3891H124.209C124.451 23.5682 124.644 22.168 124.644 21.1541C124.644 15.1187 121.16 10.1938 113.999 10.1938C106.353 10.1938 101.708 15.2635 101.708 23.2303C101.708 31.1004 106.45 35.7839 113.805 35.7839C118.547 35.7839 122.95 33.7077 124.451 28.976L117.966 26.7549C117.337 28.9277 115.934 29.8934 113.95 29.8934ZM109.45 20.623C109.692 17.6294 111.337 15.7946 113.805 15.7946C116.079 15.7946 117.289 17.5328 117.289 19.5125C117.289 19.8987 117.289 20.285 117.192 20.623H109.45Z" fill="black"/>
<path d="M160.684 22.7474H160.588L147.813 2.95129H140.119V35.2045H147.91V15.3118H148.007L161.265 35.2045H168.475V2.95129H160.684V22.7474Z" fill="black"/>
<path d="M197.739 22.9888C197.739 14.7807 192.755 10.1938 185.448 10.1938C178.093 10.1938 173.109 14.7807 173.109 22.9888C173.109 31.1487 178.093 35.7839 185.448 35.7839C192.755 35.7839 197.739 31.1487 197.739 22.9888ZM189.803 22.9888C189.803 27.4792 188.448 29.9416 185.448 29.9416C182.4 29.9416 181.045 27.4792 181.045 22.9888C181.045 18.4985 182.4 15.9878 185.448 15.9878C188.448 15.9878 189.803 18.4985 189.803 22.9888Z" fill="black"/>
<path d="M217.497 28.1552C216.239 29.0243 215.126 29.4105 213.82 29.4105C212.078 29.4105 211.062 28.4931 211.062 26.4652V16.6155H217.449V10.7732H211.11V4.64121L203.126 5.60687V10.7732H199.933V16.6155H203.078V27.5275C203.078 33.2732 206.659 35.7839 211.836 35.7839C214.401 35.7839 216.772 35.0597 218.514 33.756L217.497 28.1552Z" fill="black"/>
<path d="M241.576 35.2045V23.6165H254.205V17.0983H241.576V9.71095H255.899V2.95129H233.446V35.2045H241.576Z" fill="black"/>
<path d="M282.749 22.9888C282.749 14.7807 277.765 10.1938 270.459 10.1938C263.103 10.1938 258.119 14.7807 258.119 22.9888C258.119 31.1487 263.103 35.7839 270.459 35.7839C277.765 35.7839 282.749 31.1487 282.749 22.9888ZM274.813 22.9888C274.813 27.4792 273.459 29.9416 270.459 29.9416C267.41 29.9416 266.055 27.4792 266.055 22.9888C266.055 18.4985 267.41 15.9878 270.459 15.9878C273.459 15.9878 274.813 18.4985 274.813 22.9888Z" fill="black"/>
<path d="M302.992 35.2045H309.863V10.7732H301.879V24.1959C301.879 27.8655 300.234 29.4588 298.008 29.4588C295.927 29.4588 294.862 28.0586 294.862 25.6444V10.7732H286.878V27.8655C286.878 33.1766 290.411 35.7839 294.572 35.7839C298.298 35.7839 300.959 34.0457 302.024 30.7624L302.992 35.2045Z" fill="black"/>
<path d="M322.389 10.7732H315.566V35.2045H323.55V21.9749C323.55 18.2571 325.437 16.8086 327.663 16.8086C329.986 16.8086 330.857 18.2571 330.857 20.6712V35.2045H338.841V18.1122C338.841 12.8976 335.599 10.1938 331.196 10.1938C327.518 10.1938 324.566 12.0768 323.357 15.4567L322.389 10.7732Z" fill="black"/>
<path d="M359.974 23.9545C359.974 27.7689 357.99 29.6037 355.619 29.6037C352.86 29.6037 351.118 27.3826 351.118 23.2303C351.118 18.4019 352.86 15.9878 355.764 15.9878C357.893 15.9878 359.974 17.6294 359.974 21.0575V23.9545ZM361.086 35.2045H368.006V0.343994H359.974V13.9116C359.103 11.6906 356.683 10.1938 353.248 10.1938C347.102 10.1938 342.941 14.9738 342.941 23.52C342.941 31.2936 347.296 35.7839 352.764 35.7839C356.296 35.7839 359.151 34.0457 360.167 30.7142L361.086 35.2045Z" fill="black"/>
</svg>
