<svg xmlns="http://www.w3.org/2000/svg" width="255.338" height="154.413" viewBox="0 0 255.338 154.413"><path fill="#4FB5C6" d="M211.22 96.436c-7.418 0-13.079-.781-20.301-2.734 3.905 3.905 7.222 10.346 7.222 19.521 0 13.86-11.127 24.402-24.402 24.402-12.298 0-24.01-10.152-24.01-25.574 0-2.147.196-4.489.585-6.832 3.32 4.49 7.81 8.784 14.252 8.784 6.441 0 10.736-3.709 10.736-11.518 0-14.641-22.448-37.09-62.076-37.09-34.163 0-52.122 16.984-54.465 38.652 9.565-2.928 19.716-8.394 41.579-8.394 21.474 0 34.357 9.565 34.357 27.721 0 15.226-15.422 31.038-40.213 31.038-28.111 0-44.507-15.616-47.242-40.409-2.928.585-6.245.781-10.151.781-23.426.002-37.091-8.002-37.091-28.304 0-20.693 16.008-34.162 27.525-39.433.392-.195.781-.195 1.366-.195 4.49 0 7.81 11.322 7.81 18.74 0 3.709-.781 6.441-2.343 6.637-18.35 1.757-25.376 8.394-25.376 16.984 0 11.126 7.026 19.326 28.109 19.326 3.709 0 7.222-.585 9.761-1.366 0-43.924 40.213-71.643 78.671-71.643 26.353 0 45.484 3.904 58.174 3.904 10.932 0 18.35-2.734 18.35-12.299 0-7.222-5.66-11.126-12.885-11.126-2.536 0-5.464.585-8.393 1.562 5.464-9.372 12.493-17.571 23.813-17.571 13.86 0 23.817 10.152 23.817 23.427 0 12.298-8.199 24.597-24.791 27.719 27.524 8.784 38.847 28.892 51.73 38.456-11.909.587-26.353 6.834-44.118 6.834zm-110.881 5.465c-19.52 0-31.039 6.247-41.775 8.98.392 22.839 10.932 37.285 35.919 37.285 21.278 0 33.187-13.665 33.187-24.791 0-12.299-8.2-21.474-27.331-21.474z"/></svg>