<svg width="110" height="10" viewBox="0 0 110 10" xmlns="http://www.w3.org/2000/svg"><title>t1</title><path d="M.025.032V10h3.192c3.332 0 5.222-1.792 5.222-4.984S6.549.032 3.217.032H.025zm1.666 1.456h1.498c2.324 0 3.514 1.204 3.514 3.528s-1.19 3.528-3.514 3.528H1.691V1.488zm15.832 5.81L18.447 10h1.764L16.585.032h-2.254L10.705 10h1.764l.924-2.702h4.13zm-.504-1.456h-3.122l.266-.784c.462-1.33.868-2.632 1.274-3.962h.028c.406 1.33.84 2.632 1.288 3.962l.266.784zM31.465 10V.032h-1.61v3.92c0 1.512.028 3.024.07 4.536h-.028a134.857 134.857 0 0 0-2.114-4.284L25.641.032h-2.422V10h1.624V6.08c0-1.512-.028-3.024-.084-4.536h.028c.672 1.428 1.386 2.87 2.114 4.284L29.057 10h2.408zm6.158 0V.032h-1.68V10h1.68zm11.128-8.512V.032h-6.664V10h6.804V8.544h-5.124V5.632h4.676V4.19h-4.676V1.488h4.984zm5.766 7.056V.032h-1.68V10h6.58V8.544h-4.9zm20.156-7.056V.032h-6.664V10h6.804V8.544h-5.124V5.632h4.676V4.19h-4.676V1.488h4.984zM78.759.032V10h3.192c3.332 0 5.222-1.792 5.222-4.984S85.283.032 81.951.032h-3.192zm1.666 1.456h1.498c2.324 0 3.514 1.204 3.514 3.528s-1.19 3.528-3.514 3.528h-1.498V1.488zm17.204 0V.032h-6.664V10h6.804V8.544h-5.124V5.632h4.676V4.19h-4.676V1.488h4.984zM109.961 10V.032h-1.61v3.92c0 1.512.028 3.024.07 4.536h-.028a134.857 134.857 0 0 0-2.114-4.284L104.137.032h-2.422V10h1.624V6.08c0-1.512-.028-3.024-.084-4.536h.028c.672 1.428 1.386 2.87 2.114 4.284L107.553 10h2.408z" fill="#FFF" fill-rule="evenodd"/></svg>