<svg width="12" height="84" viewBox="0 0 12 84" xmlns="http://www.w3.org/2000/svg"><title>t2</title><path d="M11.1.831H1.132v3.192c0 3.332 1.792 5.222 4.984 5.222S11.1 7.355 11.1 4.023V.831zM9.644 2.497v1.498c0 2.324-1.204 3.514-3.528 3.514s-3.528-1.19-3.528-3.514V2.497h7.056zm0 17.204H11.1v-6.664H1.132v6.804h1.456v-5.124H5.5v4.676h1.442v-4.676h2.702v4.984zm1.666 6.872c0-2.114-1.162-3.5-2.856-3.5-2.086 0-2.548 1.568-3.024 3.458-.378 1.526-.602 2.254-1.61 2.254-.938 0-1.512-.728-1.512-1.974 0-1.386.686-2.17 2.114-2.17v-1.722c-2.282 0-3.5 1.47-3.5 3.878 0 2.24 1.204 3.724 3.052 3.724 2.1 0 2.59-1.568 3.052-3.444.392-1.596.672-2.282 1.582-2.282.812 0 1.33.672 1.33 1.75 0 1.288-.644 2.002-1.904 2.002v1.694c2.142 0 3.276-1.246 3.276-3.668zM1.132 36.035H11.1v-1.68H1.132v1.68zm10.178 8.412c0-2.856-1.988-4.62-5.236-4.62-3.192 0-5.124 1.624-5.124 4.172 0 1.372.546 2.478 1.414 3.01v.028H1.132v1.442h5.39v-4.116h-1.4v2.548c-1.932-.014-2.814-1.008-2.814-2.534 0-1.736 1.428-2.814 3.766-2.814 2.324 0 3.738 1.106 3.738 2.884 0 1.274-.63 2.072-1.764 2.268v1.792c1.988-.196 3.262-1.694 3.262-4.06zM1.132 61.063H11.1v-1.61H7.18c-1.512 0-3.024.028-4.536.07v-.028c1.428-.672 2.87-1.386 4.284-2.114l4.172-2.142v-2.422H1.132v1.624h3.92c1.512 0 3.024-.028 4.536-.084v.028c-1.428.672-2.87 1.386-4.284 2.114l-4.172 2.156v2.408zm8.512 11.142H11.1v-6.664H1.132v6.804h1.456v-5.124H5.5v4.676h1.442v-4.676h2.702v4.984zm1.456 4.086H1.132v1.68h4.004v1.442c0 1.022-.378 1.456-1.498 1.848l-2.506.84v1.834l2.814-1.022c1.246-.448 1.666-.77 1.904-1.484h.028c.28 1.134 1.218 1.848 2.464 1.848 1.736 0 2.758-1.106 2.758-3.556v-3.43zm-1.386 1.68v1.568c0 1.316-.476 2.044-1.54 2.044-.994.014-1.666-.56-1.666-1.946v-1.666h3.206z" fill="#FFF" fill-rule="evenodd"/></svg>