<svg width="111" height="10" viewBox="0 0 111 10" xmlns="http://www.w3.org/2000/svg"><title>t3</title><path d="M110.207 10V.032h-3.192c-3.332 0-5.222 1.792-5.222 4.984S103.683 10 107.015 10h3.192zm-1.666-1.456h-1.498c-2.324 0-3.514-1.204-3.514-3.528s1.19-3.528 3.514-3.528h1.498v7.056zm-15.832-5.81L91.785.032h-1.764L93.647 10h2.254L99.527.032h-1.764l-.924 2.702h-4.13zm.504 1.456h3.122l-.266.784c-.462 1.33-.868 2.632-1.274 3.962h-.028c-.406-1.33-.84-2.632-1.288-3.962l-.266-.784zM78.767.032V10h1.61V6.08c0-1.512-.028-3.024-.07-4.536h.028c.672 1.428 1.386 2.87 2.114 4.284L84.591 10h2.422V.032h-1.624v3.92c0 1.512.028 3.024.084 4.536h-.028a134.857 134.857 0 0 0-2.114-4.284L81.175.032h-2.408zm-6.158 0V10h1.68V.032h-1.68zM61.481 8.544V10h6.664V.032h-6.804v1.456h5.124V4.4h-4.676v1.442h4.676v2.702h-4.984zm-5.766-7.056V10h1.68V.032h-6.58v1.456h4.9zM35.559 8.544V10h6.664V.032h-6.804v1.456h5.124V4.4h-4.676v1.442h4.676v2.702h-4.984zM31.473 10V.032h-3.192c-3.332 0-5.222 1.792-5.222 4.984S24.949 10 28.281 10h3.192zm-1.666-1.456h-1.498c-2.324 0-3.514-1.204-3.514-3.528s1.19-3.528 3.514-3.528h1.498v7.056zm-17.204 0V10h6.664V.032h-6.804v1.456h5.124V4.4h-4.676v1.442h4.676v2.702h-4.984zM.271.032V10h1.61V6.08c0-1.512-.028-3.024-.07-4.536h.028c.672 1.428 1.386 2.87 2.114 4.284L6.095 10h2.422V.032H6.893v3.92c0 1.512.028 3.024.084 4.536h-.028a134.857 134.857 0 0 0-2.114-4.284L2.679.032H.271z" fill="#FFF" fill-rule="evenodd"/></svg>