<svg width="12" height="84" viewBox="0 0 12 84" xmlns="http://www.w3.org/2000/svg"><title>t4</title><path d="M1.132 83.201H11.1v-3.192c0-3.332-1.792-5.222-4.984-5.222s-4.984 1.89-4.984 5.222v3.192zm1.456-1.666v-1.498c0-2.324 1.204-3.514 3.528-3.514s3.528 1.19 3.528 3.514v1.498H2.588zm0-17.204H1.132v6.664H11.1v-6.804H9.644v5.124H6.732v-4.676H5.29v4.676H2.588v-4.984zM.922 57.459c0 2.114 1.162 3.5 2.856 3.5 2.086 0 2.548-1.568 3.024-3.458.378-1.526.602-2.254 1.61-2.254.938 0 1.512.728 1.512 1.974 0 1.386-.686 2.17-2.114 2.17v1.722c2.282 0 3.5-1.47 3.5-3.878 0-2.24-1.204-3.724-3.052-3.724-2.1 0-2.59 1.568-3.052 3.444-.392 1.596-.672 2.282-1.582 2.282-.812 0-1.33-.672-1.33-1.75 0-1.288.644-2.002 1.904-2.002v-1.694c-2.142 0-3.276 1.246-3.276 3.668zM11.1 47.997H1.132v1.68H11.1v-1.68zM.922 39.585c0 2.856 1.988 4.62 5.236 4.62 3.192 0 5.124-1.624 5.124-4.172 0-1.372-.546-2.478-1.414-3.01v-.028H11.1v-1.442H5.71v4.116h1.4v-2.548c1.932.014 2.814 1.008 2.814 2.534 0 1.736-1.428 2.814-3.766 2.814-2.324 0-3.738-1.106-3.738-2.884 0-1.274.63-2.072 1.764-2.268v-1.792c-1.988.196-3.262 1.694-3.262 4.06zM11.1 22.969H1.132v1.61h3.92c1.512 0 3.024-.028 4.536-.07v.028c-1.428.672-2.87 1.386-4.284 2.114l-4.172 2.142v2.422H11.1v-1.624H7.18c-1.512 0-3.024.028-4.536.084v-.028c1.428-.672 2.87-1.386 4.284-2.114l4.172-2.156v-2.408zM2.588 11.827H1.132v6.664H11.1v-6.804H9.644v5.124H6.732v-4.676H5.29v4.676H2.588v-4.984zM1.132 7.741H11.1v-1.68H7.096V4.619c0-1.022.378-1.456 1.498-1.848l2.506-.84V.097L8.286 1.119c-1.246.448-1.666.77-1.904 1.484h-.028C6.074 1.469 5.136.755 3.89.755c-1.736 0-2.758 1.106-2.758 3.556v3.43zm1.386-1.68V4.493c0-1.316.476-2.044 1.54-2.044.994-.014 1.666.56 1.666 1.946v1.666H2.518z" fill="#FFF" fill-rule="evenodd"/></svg>