<svg xmlns="http://www.w3.org/2000/svg" width="600" height="600" viewBox="0 0 600 600"><path fill-rule="evenodd" clip-rule="evenodd" fill="#fff" d="M553.986 328.769l-101.895-101.831s-49.165 50.785-107.697 112.038c27.404 25.988 54.924 51.912 79.395 74.651 46.945 43.625 84.911 73.544 84.911 73.544l-62.268 62.229s-27.75-35.587-73.593-84.857c-22.425-24.104-47.955-51.175-73.589-78.179-25.635 27.003-51.163 54.071-73.591 78.179-43.524 46.778-73.591 84.857-73.591 84.857l-62.269-62.229s38.319-30.247 84.912-73.544c24.469-22.737 51.988-48.661 79.395-74.651-58.529-61.251-107.699-112.038-107.699-112.038l-67.93 67.887-67.93-67.887 67.93-67.888-11.322-11.314 39.625-39.602 11.322 11.315 67.93-67.888 67.93 67.888-67.93 67.887s51.433 49.731 113.218 108.688c61.782-58.956 113.217-108.688 113.217-108.688l-67.932-67.887 67.932-67.888 67.929 67.888 11.321-11.315 39.627 39.602-11.322 11.314s20.596 35.032 28.304 73.544c9.151 45.725 5.66 96.175 5.66 96.175z"/></svg>