<svg xmlns="http://www.w3.org/2000/svg" width="1190.55" height="675.766" viewBox="0 0 1190.55 675.766"><path fill="#C4C9CC" d="M373.608 675.766M383.61 675.766M513.539 675.765M523.542 675.766M576.122 675.766M586.168 675.765" opacity=".15" enable-background="new"/><g stroke="#4FB5C6" stroke-width="4" stroke-miterlimit="10" fill="none"><path d="M768.619 120.997c1.803.863 3.598 1.741 5.387 2.636l-.986 5.918"/><path stroke-dasharray="11.7375,11.7375" d="M771.09 141.129l-46.647 279.881-4.55 132.861"/><path d="M719.692 559.737l-.205 5.996h-6"/><path stroke-dasharray="9.2168,9.2168" d="M704.27 565.733h-13.825"/><path d="M685.836 565.733h-6v-6"/><path stroke-dasharray="11.0023,11.0023" d="M679.836 548.731v-82.517"/><path d="M679.836 460.713v-6c-1.366 1.48-2.725 2.947-4.077 4.403"/><path stroke-dasharray="11.9473,11.9473" d="M667.598 467.841c-65.122 69.109-113.728 107.805-163.214 107.805-71.37 0-113.994-57.493-113.994-154.636 0-182.392 115.977-328.107 259.709-328.107 41.276 0 78.49 9.747 113.114 25.564"/><path d="M724.441 155.323l.994-5.917c-1.873-.792-3.72-1.553-5.548-2.283"/><path stroke-dasharray="12.0462,12.0462" d="M708.588 142.945c-19.031-6.421-37.761-9.4-65.428-9.4-108.047 0-206.182 114.985-206.182 284.489 0 78.31 28.747 117.96 71.371 117.96 40.642 0 82.275-35.685 174.462-132.828l40.632-241.901"/></g><g stroke="#4FB5C6" stroke-width="4" stroke-miterlimit="10" fill="none"><path d="M823.923 103.642c1.873.707 3.74 1.423 5.599 2.147l-.953 5.924"/><path stroke-dasharray="12.2243,12.2243" d="M826.628 123.783l-51.624 321.016v108.822"/><path d="M775.004 559.733v6h-6"/><path stroke-dasharray="11.5821,11.5821" d="M757.422 565.733h-133.195"/><path d="M618.436 565.733h-6l-.405-5.986"/><path stroke-dasharray="12.3042,12.3042" d="M611.202 547.471l-2.903-42.967"/><path d="M607.884 498.366l-.404-5.986c-1.284 1.541-2.575 3.07-3.872 4.586"/><path stroke-dasharray="11.9988,11.9988" d="M595.679 505.972c-36.831 40.626-78.583 69.675-125.984 69.675-78.309 0-126.881-65.423-126.881-170.497 0-229.971 144.724-336.036 298.369-336.036 60.342 0 121.554 12.172 177.12 32.444"/><path d="M643.197 211.83l.96-5.923c-2.059-.686-3.96-1.267-5.738-1.754"/><path stroke-dasharray="11.9195,11.9195" d="M626.7 202.053c-1.133-.076-2.246-.111-3.36-.111-55.51 0-107.055 64.43-107.055 166.53 0 35.685 14.869 55.512 37.668 55.512 19.825 0 34.695-8.922 60.467-34.695l27.824-171.579"/></g></svg>