<svg fill="none" height="429" viewBox="0 0 840 429" width="840" xmlns="http://www.w3.org/2000/svg" xmlns:xlink="http://www.w3.org/1999/xlink"><linearGradient id="a" gradientUnits="userSpaceOnUse" x1="183.232" x2="660.187" y1="223.837" y2="223.837"><stop offset="0" stop-color="#00a2ff"/><stop offset="1" stop-color="#cb297b"/></linearGradient><path d="m401.596 388.269v-11.482h4.683v-1.575h-11.109v1.575h4.622v11.482z" fill="#000"/><path d="m412.598 377.056h2.342v-2.218h-2.342zm6.01 11.213v-1.327h-3.875v-7.73h-5.14v1.347h3.441v6.383h-3.856v1.327z" fill="#000"/><path d="m422.54 383.212c0-1.638.538-2.84 1.534-2.84 1.015 0 1.264.809 1.264 1.866v6.031h1.575v-5.057c0-1.638.56-2.84 1.534-2.84 1.016 0 1.264.809 1.264 1.866v6.031h1.575v-6.736c0-1.534-.808-2.57-2.072-2.57-1.244 0-2.072.954-2.364 2.072-.144-1.264-.89-2.072-2.01-2.072-1.285 0-2.031.995-2.3 2.134v-1.885h-1.575v9.057h1.575z" fill="#000"/><path d="m441.83 385.222c-.498 1.285-1.368 1.948-2.881 1.948-1.679 0-3.087-1.243-3.087-3.212h7.335v-.539c0-2.343-1.45-4.456-4.372-4.456-2.674 0-4.663 2.052-4.663 4.911 0 2.778 1.989 4.643 4.725 4.643 2.114 0 3.565-.912 4.269-2.507zm-5.907-2.384c.208-1.347 1.265-2.528 2.902-2.528 1.72 0 2.632 1.202 2.715 2.528z" fill="#000"/><path d="m183.766 352.641v-.115h.115v-.057h.114v-.058h.115v-.057h.115v-.058h.115v-.057h.058v-.058h.115v-.057h.115v-.058h.115v-.057h.114v-.057h.115v-.058h.058v-.057h.115v-.058h.115v-.057h.115v-.058h.115v-.057h.114v-.058h.115v-.057h.058v-.058h.115v-.057h.115v-.058h.115v-.057h.115v-.057h.114v-.058h.058v-.057h.115v-.058h.115v-.057h.115v-.058h.115v-.057h.115v-.058h.115v-.057h.057v-.058h.115v-.057h.115v-.058h.115v-.057h.115v-.058h.115v-.057h.057v-.057h.115v-.058h.115v-.057h.115v-.058h.115v-.057h.115v-.058h.115v-.057h.057v-.058h.115v-.057h.115v-.058h.115v-.057h.115v-.058h.115v-.057h.115v-.057h.057v-.058h.115v-.057h.115v-.058h.115v-.057h.115v-.058h.115v-.057h.057v-.058h.115v-.057h.115v-.058h.115v-.057h.115v-.058h.115v-.057h.115v-.057h.057v-.058h.115v-.057h.115v-.058h.115v-.057h.115v-.058h.115v-.057h.057v-.058h.115v-.057h.115v-.058h.115v-.057h.115v-.058h.115v-.057h.115v-.058h.057v-.057h.115v-.057h.115v-.058h.115v-.057h.115v-.058h.115v-.057h.057v-.058h.115v-.057h.115v-.058h.115v-.057h.115v-.058h.115v-.057h.115v-.058h.057v-.057h.115v-.057h.115v-.058h.115v-.057h.115v-.058h.115v-.057h.115v-.058h.058v-.057h.114v-.058h.115v-.057h.115v-.058h.115v-.057h.115v-.058h.058v-.057h.115v-.057h.114v-.058h.115v-.057h.115v-.058h.115v-.057h.115v-.058h.058v-.057h.115v-.058h.115v-.057h.114v-.058h.115v-.057h.115v-.058h.058v-.057h.115v-.058h.115v-.057h.115v-.057h.114v-.058h.115v-.057h.115v-.058h.058v-.057h.115v-.058h.115v-.057h.115v-.058h.114v-.057h.115v-.058h.058v-.057h.115v-.058h.115v-.057h.115v-.057h.115v-.058h.115v-.057h.114v-.058h.058v-.057h.115v-.058h.115v-.057h.115v-.058h.115v-.057h.115v-.058h.114v-.057h.058v-.058h.115v-.057h.115v-.057h.115v-.058h.115v-.057h.115v-.058h.057v-.057h.115v-.058h.115v-.057h.115v-.058h.115v-.057h.115v-.058h.115v-.057h.057v-.058h.115v-.057h.115v-.058h.115v-.057h.115v-.057h.115v-.058h.057v-.057h.115v-.058h.115v-.057h.115v-.058h.115v-.057h.115v-.058h.115v-.057h.057v-.058h.115v-.057h.115v-.058h.115v-.057h.115v-.057h.115v-.058h.057v-.057h.115v-.058h.115v-.057h.115v-.058h.115v-.057h.115v-.058h.115v-.057h.057v-.058h.115v-.057h.115v-.058h.115v-.057h.115v-.057h.115v-.058h.115v-.057h.057v-.058h.115v-.057h.115v-.058h.115v-.057h.115v-.058h.115v-.057h.057v-.058h.115v-.057h.115v-.058h.115v-.057h.115v-.058h.115v-.057h.115v-.057h.057v-.058h.115v-.057h.115v-.058h.115v-.057h.115v-.058h.115v-.057h.058v-.058h.114v-.057h.115v-.058h.115v-.057h.115v-.058h.115v-.057h.115v-.057h.058v-.058h.115v-.057h.114v-.058h.115v-.057h.115v-.058h.115v-.057h.058v-.058h.115v-.057h.115v-.058h.114v-.057h.115v-.058h.115v-.057h.115v-.058h.058v-.057h.115v-.057h.115v-.058h.114v-.057h.115v-.058h.115v-.057h.115v-.058h.058v-.057h.115v-.058h.115v-.057h.115v-.058h.114v-.057h.115v-.058h.058v-.057h.115v-.057h.115v-.058h.115v-.057h.115v-.058h.114v-.057h.115v-.058h.058v-.057h.115v-.058h.115v-.057h.115v-.058h.115v-.057h.114v-.058h.058v-.057h.115v-.057h.115v-.058h.115v-.057h.115v-.058h.115v-.057h.115v-.058h.057v-.057h.115v-.058h.115v-.057h.115v-.058h.115v-.057h.115v-.058h.057v-.057h.115v-.058h.115v-.057h.115v-.057h.115v-.058h.115v-.057h.115v-.058h.057v-.057h.115v-.058h.115v-.057h.115v-.058h.115v-.057h.115v-.058h.115v-.057h.057v-.058h.115v-.057h.115v-.057h.115v-.058h.115v-.057h.115v-.058h.057v-.057h.115v-.058h.115v-.057h.115v-.058h.115v-.057h.115v-.058h.115v-.057h.057v-.058h.115v-.057h.115v-.057h.115v-.058h.115v-.057h.115v-.058h.057v-.057h.115v-.058h.115v-.057h.115v-.058h.115v-.057h.115v-.058h.115v-.057h.057v-.058h.115v-.057h.115v-.058h.115v-.057h.115v-.057h.115v-.058h.057v-.057h.115v-.058h.115v-.057h.115v-.058h.115v-.057h.115v-.058h.115v-.057h.058v-.058h.114v-.057h.115v-.058h.115v-.057h.115v-.057h.115v-.058h.115v-.057h.058v-.058h.114v-.057h.115v-.058h.115v-.057h.115v-.058h.115v-.057h.058v-.058h.115v-.057h.114v-.058h.115v-.057h.115v-.057h.115v-.058h.115v-.057h.058v-.058h.115v-.057h.115v-.058h.114v-.057h.115v-.058h.115v-.057h.058v-.058h.115v-.057h.115v-.058h.115v-.057h.114v-.058h.115v-.057h.115v-.057h.058v-.058h.115v-.057h.115v-.058h.115v-.057h.114v-.058h.115v-.057h.058v-.058h.115v-.057h.115v-.058h.115v-.057h.115v-.058h.115v-.057h.114v-.057h.058v-.058h.115v-.057h.115v-.058h.115v-.057h.115v-.058h.115v-.057h.114v-.058h.058v-.057h.115v-.058h.115v-.057h.115v-.058h.115v-.057h.115v-.057h.057v-.058h.115v-.057h.115v-.058h.115v-.057h.115v-.058h.115v-.057h.115v-.058h.057v-.057h.115v-.058h.115v-.057h.115v-.058h.115v-.057h.115v-.058h.057v-.057h.115v-.057h.115v-.058h.115v-.057h.115v-.058h.115v-.057h.115v-.058h.057v-.057h.115v-.058h.115v-.057h.115v-.058h.115v-.057h.115v-.058h.057v-.057h.115v-.057h.115v-.058h.115v-.057h.115v-.058h.115v-.057h.115v-.058h.057v-.057h.115v-.058h.115v-.057h.115v-.058h.115v-.057h.115v-.058h.115v-.057h.057v-.058h.115v-.057h.115v-.057h.115v-.058h.115v-.057h.115v-.058h.057v-.057h.115v-.058h.115v-.057h.115v-.058h.115v-.057h.115v-.058h.115v-.057h.057v-.058h.115v-.057h.115v-.057h.115v-.058h.115v-.057h.115v-.058h.058v-.057h.114v-.058h.115v-.057h.115v-.058h.115v-.057h.115v-.058h.115v-.057h.058v-.058h.115v-.057h.114v-.057h.115v-.058h.115v-.057h.115v-.058h.058v-.057h.115v-.058h.115v-.057h.114v-.058h.115v-.057h.115v-.058h.115v-.057h.058v-.058h.115v-.057h.115v-.058h.114v-.057h.115v-.057h.115v-.058h.115v-.057h.058v-.058h.115v-.057h.115v-.058h.115v-.057h.114v-.058h.115v-.057h.058v-.058h.115v-.057h.115v-.058h.115v-.057h.115v-.057h.114v-.058h.115v-.057h.058v-.058h.115v-.057h.115v-.058h.115v-.057h.115v-.058h.114v-.057h.058v-.058h.115v-.057h.115v-.058h.115v-.057h.115v-.057h.115v-.058h.115v-.057h.057v-.058h.115v-.057h.115v-.058h.115v-.057h.115v-.058h.115v-.057h.057v-.058h.115v-.057h.115v-.058h.115v-.057h.115v-.058h.115v-.057h.115v-.057h.057v-.058h.115v-.057h.115v-.058h.115v-.057h.115v-.058h.115v-.057h.115v-.058h.057v-.057h.115v-.058h.115v-.057h.115v-.058h.115v-.057h.115v-.057h.057v-.058h.115v-.057h.115v-.058h.115v-.057h.115v-.058h.115v-.057h.115v-.058h.057v-.057h.115v-.058h.115v-.057h.115v-.058h.115v-.057h.115v-.057h.057v-.058h.115v-.057h.115v-.058h.115v-.057h.115v-.058h.115v-.057h.115v-.058h.057v-.057h.115v-.058h.115v-.057h.115v-.058h.115v-.057h.115v-.058h.057v-.057h.115v-.057h.115v-.058h.115v-.057h.115v-.058h.115v-.057h.115v-.058h.058v-.057h.114v-.058h.115v-.057h.115v-.058h.115v-.057h.115v-.058h.115v-.057h.058v-.057h.114v-.058h.115v-.057h.115v-.058h.115v-.057h.115v-.058h.058v-.057h.115v-.058h.114v-.057h.115v-.058h.115v-.057h.115v-.058h.115v-.057h.058v-.057h.115v-.058h.115v-.057h.114v-.058h.115v-.057h.115v-.058h.058v-.057h.115v-.058h.115v-.057h.115v-.058h.114v-.057h.115v-.058h.115v-.057h.058v-.058h.115v-.057h.115v-.057h.115v-.058h.114v-.057h.115v-.058h.058v-.057h.115v-.058h.115v-.057h.115v-.058h.115v-.057h.115v-.058h.114v-.057h.058v-.058h.115v-.057h.115v-.057h.115v-.058h.115v-.057h.115v-.058h.114v-.057h.058v-.058h.115v-.057h.115v-.058h.115v-.057h.115v-.058h.115v-.057h.057v-.058h.115v-.057h.115v-.058h.115v-.057h.115v-.057h.115v-.058h.115v-.057h.057v-.058h.115v-.057h.115v-.058h.115v-.057h.115v-.058h.115v-.057h.057v-.058h.115v-.057h.115v-.058h.115v-.057h.115v-.057h.115v-.058h.115v-.057h.057v-.058h.115v-.057h.115v-.058h.115v-.057h.115v-.058h.115v-.057h.057v-.058h.115v-.057h.115v-.058h.115v-.057h.115v-.057h.115v-.058h.115v-.057h.057v-.058h.115v-.057h.115v-.058h.115v-.057h.115v-.058h.115v-.057h.115v-.058h.057v-.057h.115v-.058h.115v-.057h.115v-.058h.115v-.057h.115v-.057h.057v-.058h.115v-.057h.115v-.058h.115v-.057h.115v-.058h.115v-.057h.115v-.058h.057v-.057h.115v-.058h.115v-.057h.115v-.058h.115v-.057h.115v-.057h.058v-.058h.114v-.057h.115v-.058h.115v-.057h.115v-.058h.115v-.057h.115v-.058h.058v-.057h.115v-.058h.114v-.057h.115v-.058h.115v-.057h.115v-.057h.058v-.058h.115v-.057h.115v-.058h.114v-.057h.115v-.058h.115v-.057h.115v-.058h.058v-.057h.115v-.058h.115v-.057h.114v-.058h.115v-.057h.115v-.058h.115v-.057h.058v-.057h.115v-.058h.115v-.057h.115v-.058h.114v-.057h.115v-.058h.058v-.057h.115v-.058h.115v-.057h.115v-.058h.115v-.057h.114v-.058h.115v-.057h.058v-.057h.115v-.058h.115v-.057h.115v-.058h.115v-.057h.115v-.058h.057v-.057h.115v-.058h.115v-.057h.115v-.058h.115v-.057h.115v-.058h.115v-.057h.057v-.057h.115v-.058h.115v-.057h.115v-.058h.115v-.057h.115v-.058h.057v-.057h.115v-.058h.115v-.057h.115v-.058h.115v-.057h.115v-.058h.115v-.057h.057v-.058h.115v-.057h.115v-.057h.115v-.058h.115v-.057h.115v-.058h.115v-.057h.057v-.058h.115v-.057h.115v-.058h.115v-.057h.115v-.058h.115v-.057h.057v-.058h.115v-.057h.115v-.057h.115v-.058h.115v-.057h.115v-.058h.115v-.057h.057v-.058h.115v-.057h.115v-.058h.115v-.057h.115v-.058h.115v-.057h.057v-.058h.115v-.057h.115v-.057h.115v-.058h.115v-.057h.115v-.058h.115v-.057h.057v-.058h.115v-.057h.115v-.058h.115v-.057h.115v-.058h.115v-.057h.057v-.058h.115v-.057h.115v-.058h.115v-.057h.115v-.057h.115v-.058h.115v-.057h.058v-.058h.114v-.057h.115v-.058h.115v-.057h.115v-.058h.115v-.057h.115v-.058h.058v-.057h.114v-.058h.115v-.057h.115v-.057h.115v-.058h.115v-.057h.058v-.058h.115v-.057h.114v-.058h.115v-.057h.115v-.058h.115v-.057h.115v-.058h.058v-.057h.115v-.058h.115v-.057h.114v-.058h.115v-.057h.115v-.057h.058v-.058h.115v-.057h.115v-.058h.115v-.057h.114v-.058h.115v-.057h.115v-.058h.058v-.057h.115v-.058h.115v-.057h.115v-.058h.114v-.057h.115v-.057h.058v-.058h.115v-.057h.115v-.058h.115v-.057h.115v-.058h.115v-.057h.114v-.058h.058v-.057h.115v-.058h.115v-.057h.115v-.058h.115v-.057h.115v-.057h.114v-.058h.058v-.057h.115v-.058h.115v-.057h.115v-.058h.115v-.057h.115v-.058h.057v-.057h.115v-.058h.115v-.057h.115v-.058h.115v-.057h.115v-.058h.115v-.057h.057v-.057h.115v-.058h.115v-.057h.115v-.058h.115v-.057h.115v-.058h.057v-.057h.115v-.058h.115v-.057h.115v-.058h.115v-.057h.115v-.058h.115v-.057h.057v-.057h.115v-.058h.115v-.057h.115v-.058h.115v-.057h.115v-.058h.057v-.057h.115v-.058h.115v-.057h.115v-.058h.115v-.057h.115v-.058h.115v-.057h.057v-.057h.115v-.058h.115v-.057h.115v-.058h.115v-.057h.115v-.058h.115v-.057h.057v-.058h.115v-.057h.115v-.058h.115v-.057h.115v-.058h.115v-.057h.057v-.058h.115v-.057h.115v-.057h.115v-.058h.115v-.057h.115v-.058h.115v-.057h.057v-.058h.115v-.057h.115v-.058h.115v-.057h.115v-.058h.115v-.057h.058v-.058h.114v-.057h.115v-.057h.115v-.058h.115v-.057h.115v-.058h.115v-.057h.058v-.058h.115v-.057h.114v-.058h.115v-.057h.115v-.058h.115v-.057h.058v-.058h.115v-.057h.115v-.057h.114v-.058h.115v-.057h.115v-.058h.115v-.057h.058v-.058h.115v-.057h.115v-.058h.114v-.057h.115v-.058h.115v-.057h.115v-.058h.058v-.057h.115v-.058h.115v-.057h.115v-.057h.114v-.058h.115v-.057h.058v-.058h.115v-.057h.115v-.058h.115v-.057h.115v-.058h.114v-.057h.115v-.058h.058v-.057h.115v-.058h.115v-.057h.115v-.057h.115v-.058h.115v-.057h.057v-.058h.115v-.057h.115v-.058h.115v-.057h.115v-.058h.115v-.057h.115v-.058h.057v-.057h.115v-.058h.115v-.057h.115v-.057h.115v-.058h.115v-.057h.057v-.058h.115v-.057h.115v-.058h.115v-.057h.115v-.058h.115v-.057h.115v-.058h.057v-.057h.115v-.058h.115v-.057h.115v-.058h.115v-.057h.115v-.057h.115v-.058h.057v-.057h.115v-.058h.115v-.057h.115v-.058h.115v-.057h.115v-.058h.057v-.057h.115v-.058h.115v-.057h.115v-.058h.115v-.057h.115v-.057h.115v-.058h.057v-.057h.115v-.058h.115v-.057h.115v-.058h.115v-.057h.115v-.058h.057v-.057h.115v-.058h.115v-.057h.115v-.058h.115v-.057h.115v-.057h.115v-.058h.057v-.057h.115v-.058h.115v-.057h.115v-.058h.115v-.057h.115v-.058h.057v-.057h.115v-.058h.115v-.057h.115v-.058h.115v-.057h.115v-.058h.115v-.057h.058v-.057h.114v-.058h.115v-.057h.115v-.058h.115v-.057h.115v-.058h.115v-.057h.058v-.058h.114v-.057h.115v-.058h.115v-.057h.115v-.058h.115v-.057h.058v-.057h.115v-.058h.114v-.057h.115v-.058h.115v-.057h.115v-.058h.115v-.057h.058v-.058h.115v-.057h.115v-.058h.114v-.057h.115v-.058h.115v-.057h.058v-.058h.115v-.057h.115v-.057h.115v-.058h.114v-.057h.115v-.058h.115v-.057h.058v-.058h.115v-.057h.115v-.058h.115v-.057h.115v-.058h.114v-.057h.058v-.058h.115v-.057h.115v-.057h.115v-.058h.115v-.057h.115v-.058h.114v-.057h.058v-.058h.115v-.057h.115v-.058h.115v-.057h.115v-.058h.115v-.057h.114v-.058h.058v-.057h.115v-.057h.115v-.058h.115v-.057h.115v-.058h.115v-.057h.057v-.058h.115v-.057h.115v-.058h.115v-.057h.115v-.058h.115v-.057h.115v-.058h.057v-.057h.115v-.058h.115v-.057h.115v-.057h.115v-.058h.115v-.057h.057v-.058h.115v-.057h.115v-.058h.115v-.057h.115v-.058h.115v-.057h.115v-.058h.057v-.057h.115v-.058h.115v-.057h.115v-.057h.115v-.058h.115v-.057h.057v-.058h.115v-.057h.115v-.058h.115v-.057h.115v-.058h.115v-.057h.115v-.058h.057v-.057h.115v-.058h.115v-.057h.115v-.057h.115v-.058h.115v-.057h.115v-.058h.057v-.057h.115v-.058h.115v-.057h.115v-.058h.115v-.057h.115v-.058h.057v-.057h.115v-.058h.115v-.057h.115v-.058h.115v-.057h.115v-.057h.115v-.058h.057v-.057h.115v-.058h.115v-.057h.115v-.058h.115v-.057h.115v-.058h.058v-.057h.114v-.058h.115v-.057h.115v-.058h.115v-.057h.115v-.057h.115v-.058h.058v-.057h.115v-.058h.114v-.057h.115v-.058h.115v-.057h.115v-.058h.058v-.057h.115v-.058h.115v-.057h.114v-.058h.115v-.057h.115v-.057h.115v-.058h.058v-.057h.115v-.058h.115v-.057h.115v-.058h.114v-.057h.115v-.058h.058v-.057h.115v-.058h.115v-.057h.115v-.058h.115v-.057h.114v-.058h.115v-.057h.058v-.057h.115v-.058h.115v-.057h.115v-.058h.115v-.057h.114v-.058h.115v-.057h.058v-.058h.115v-.057h.115v-.058h.115v-.057h.115v-.058h.115v-.057h.057v-.057h.115v-.058h.115v-.057h.115v-.058h.115v-.057h.115v-.058h.115v-.057h.057v-.058h.115v-.057h.115v-.058h.115v-.057h.115v-.058h.115v-.057h.057v-.057h.115v-.058h.115v-.057h.115v-.058h.115v-.057h.115v-.058h.115v-.057h.057v-.058h.115v-.057h.115v-.058h.115v-.057h.115v-.058h.115v-.057h.057v-.058h.115v-.057h.115v-.057h.115v-.058h.115v-.057h.115v-.058h.115v-.057h.057v-.058h.115v-.057h.115v-.058h.115v-.057h.115v-.058h.115v-.057h.115v-.058h.057v-.057h.115v-.057h.115v-.058h.115v-.057h.115v-.058h.115v-.057h.057v-.058h.115v-.057h.115v-.058h.115v-.057h.115v-.058h.115v-.057h.115v-.058h.057v-.057h.115v-.058h.115v-.057h.115v-.057h.115v-.058h.115v-.057h.057v-.058h.115v-.057h.115v-.058h.115v-.057h.115v-.058h.115v-.057h.115v-.058h.058v-.057h.114v-.058h.115v-.057h.115v-.057h.115v-.058h.115v-.057h.058v-.058h.115v-.057h.114v-.058h.115v-.057h.115v-.058h.115v-.057h.115v-.058h.058v-.057h.115v-.058h.115v-.057h.114v-.057h.115v-.058h.115v-.057h.115v-.058h.058v-.057h.115v-.058h.115v-.057h.114v-.058h.115v-.057h.115v-.058h.058v-.057h.115v-.058h.115v-.057h.115v-.058h.114v-.057h.115v-.057h.115v-.058h.058v-.057h.115v-.058h.115v-.057h.115v-.058h.115v-.057h.114v-.058h.058v-.057h.115v-.058h.115v-.057h.115v-.058h.115v-.057h.115v-.057h.114v-.058h.058v-.057h.115v-.058h.115v-.057h.115v-.058h.115v-.057h.115v-.058h.057v-.057h.115v-.058h.115v-.057h.115v-.058h.115v-.057h.115v-.057h.115v-.058h.057v-.057h.115v-.058h.115v-.057h.115v-.058h.115v-.057h.115v-.058h.115v-.057h.057v-.058h.115v-.057h.115v-.058h.115v-.057h.115v-.058h.115v-.057h.057v-.057h.115v-.058h.115v-.057h.115v-.058h.115v-.057h.115v-.058h.115v-.057h.057v-.058h.115v-.057h.115v-.058h.115v-.057h.115v-.058h.115v-.057h.057v-.057h.115v-.058h.115v-.057h.115v-.058h.115v-.057h.115v-.058h.115v-.057h.057v-.058h.115v-.057h.115v-.058h.115v-.057h.115v-.058h.115v-.057h.057v-.057h.115v-.058h.115v-.057h.115v-.058h.115v-.057h.115v-.058h.115v-.057h.057v-.058h.115v-.057h.115v-.058h.115v-.057h.115v-.058h.115v-.057h.115v-.058h.057v-.057h.115v-.057h.115v-.058h.115v-.057h.115v-.058h.115v-.057h.058v-.058h.114v-.057h.115v-.058h.115v-.057h.115v-.058h.115v-.057h.115v-.058h.058v-.057h.115v-.057h.114v-.058h.115v-.057h.115v-.058h.115v-.057h.058v-.058h.115v-.057h.115v-.058h.114v-.057h.115v-.058h.115v-.057h.115v-.058h.058v-.057h.115v-.057h.115v-.058h.114v-.057h.115v-.058h.115v-.057h.058v-.058h.115v-.057h.115v-.058h.115v-.057h.115v-.058h.114v-.057h.115v-.058h.058v-.057h.115v-.058h.115v-.057h.115v-.057h.115v-.058h.114v-.057h.115v-.058h.058v-.057h.115v-.058h.115v-.057h.115v-.058h.115v-.057h.115v-.058h.057v-.057h.115v-.058h.115v-.057h.115v-.057h.115v-.058h.115v-.057h.115v-.058h.057v-.057h.115v-.058h.115v-.057h.115v-.058h.115v-.057h.115v-.058h.057v-.057h.115v-.058h.115v-.057h.115v-.058h.115v-.057h.115v-.057h.115v-.058h.057v-.057h.115v-.058h.115v-.057h.115v-.058h.115v-.057h.115v-.058h.057v-.057h.115v-.058h.115v-.057h.115v-.058h.115v-.057h.115v-.057h.115v-.058h.057v-.057h.115v-.058h.115v-.057h.115v-.058h.115v-.057h.115v-.058h.115v-.057h.057v-.058h.115v-.057h.115v-.058h.115v-.057h.115v-.057h.115v-.058h.057v-.057h.115v-.058h.115v-.057h.115v-.058h.115v-.057h.115v-.058h.115v-.057h.057v-.058h.115v-.057h.115v-.058h.115v-.057h.115v-.058h.115v-.057h.057v-.057h.115v-.058h.115v-.057h.115v-.058h.115v-.057h.115v-.058h.115v-.057h.058v-.058h.114v-.057h.115v-.058h.115v-.057h.115v-.058h.115v-.057h.058v-.057h.115v-.058h.114v-.057h.115v-.058h.115v-.057h.115v-.058h.115v-.057h.058v-.058h.115v-.057h.115v-.058h.114v-.057h.115v-.058h.115v-.057h.115v-.057h.058v-.058h.115v-.057h.115v-.058h.114v-.057h.115v-.058h.115v-.057h.058v-.058h.115v-.057h.115v-.058h.115v-.057h.114v-.058h.115v-.057h.115v-.058h.058v-.057h.115v-.057h.115v-.058h.115v-.057h.115v-.058h.114v-.057h.058v-.058h.115v-.057h.115v-.058h.115v-.057h.115v-.058h.115v-.057h.114v-.058h.058v-.057h.115v-.057h.115v-.058h.115v-.057h.115v-.058h.115v-.057h.057v-.058h.115v-.057h.115v-.058h.115v-.057h.115v-.058h.115v-.057h.115v-.058h.057v-.057h.115v-.057h.115v-.058h.115v-.057h.115v-.058h.115v-.057h.115v-.058h.057v-.057h.115v-.058h.115v-.057h.115v-.058h.115v-.057h.115v-.058h.057v-.057h.115v-.058h.115v-.057h.115v-.057h.115v-.058h.115v-.057h.115v-.058h.057v-.057h.115v-.058h.115v-.057h.115v-.058h.115v-.057h.115v-.058h.057v-.057h.115v-.058h.115v-.057h.115v-.057h.115v-.058h.115v-.057h.115v-.058h.057v-.057h.115v-.058h.115v-.057h.115v-.058h.115v-.057h.115v-.058h.057v-.057h.115v-.058h.115v-.057h.115v-.057h.115v-.058h.115v-.057h.115v-.058h.057v-.057h.115v-.058h.115v-.057h.115v-.058h.115v-.057h.115v-.058h.115v-.057h.057v-.058h.115v-.057h.115v-.058h.115v-.057h.115v-.057h.115v-.058h.058v-.057h.114v-.058h.115v-.057h.115v-.058h.115v-.057h.115v-.058h.115v-.057h.058v-.058h.115v-.057h.114v-.058h.115v-.057h.115v-.057h.115v-.058h.058v-.057h.115v-.058h.115v-.057h.114v-.058h.115v-.057h.115v-.058h.115v-.057h.058v-.058h.115v-.057h.115v-.058h.115v-.057h.114v-.058h.115v-.057h.058v-.057h.115v-.058h.115v-.057h.115v-.058h.115v-.057h.114v-.058h.115v-.057h.058v-.058h.115v-.057h.115v-.058h.115v-.057h.115v-.058h.114v-.057h.115v-.057h.058v-.058h.115v-.057h.115v-.058h.115v-.057h.115v-.058h.115v-.057h.057v-.058h.115v-.057h.115v-.058h.115v-.057h.115v-.058h.115v-.057h.115v-.057h.057v-.058h.115v-.057h.115v-.058h.115v-.057h.115v-.058h.115v-.057h.057v-.058h.115v-.057h.115v-.058h.115v-.057h.115v-.058h.115v-.057h.115v-.058h.057v-.057h.115v-.057h.115v-.058h.115v-.057h.115v-.058h.115v-.057h.057v-.058h.115v-.057h.115v-.058h.115v-.057h.115v-.058h.115v-.057h.115v-.058h.057v-.057h.115v-.057h.115v-.058h.115v-.057h.115v-.058h.115v-.057h.115v-.058h.057v-.057h.115v-.058h.115v-.057h.115v-.058h.115v-.057h.115v-.058h.057v-.057h.115v-.057h.115v-.058h.115v-.057h.115v-.058h.115v-.057h.115v-.058h.057v-.057h.115v-.058h.115v-.057h.115v-.058h.115v-.057h.115v-.058h.058v-.057h.114v-.058h.115v-.057h.115v-.057h.115v-.058h.115v-.057h.115v-.058h.058v-.057h.114v-.058h.115v-.057h.115v-.058h.115v-.057h.115v-.058h.058v-.057h.115v-.058h.114v-.057h.115v-.057h.115v-.058h.115v-.057h.115v-.058h.058v-.057h.115v-.058h.115v-.057h.114v-.058h.115v-.057h.115v-.058h.115v-.057h.058v-.058h.115v-.057h.115v-.057h.114v-.058h.115v-.057h.115v-.058h.058v-.057h.115v-.058h.115v-.057h.115v-.058h.114v-.057h.115v-.058h.115v-.057h.058v-.058h.115v-.057h.115v-.058h.115v-.057h.115v-.057h.114v-.058h.058v-.057h.115v-.058h.115v-.057h.115v-.058h.115v-.057h.115v-.058h.114v-.057h.058v-.058h.115v-.057h.115v-.058h.115v-.057h.115v-.057h.115v-.058h.057v-.057h.115v-.058h.115v-.057h.115v-.058h.115v-.057h.115v-.058h.115v-.057h.057v-.058h.115v-.057h.115v-.058h.115v-.057h.115v-.057h.115v-.058h.115v-.057h.057v-.058h.115v-.057h.115v-.058h.115v-.057h.115v-.058h.115v-.057h.057v-.058h.115v-.057h.115v-.058h.115v-.057h.115v-.058h.115v-.057h.115v-.057h.057v-.058h.115v-.057h.115v-.058h.115v-.057h.115v-.058h.115v-.057h.057v-.058h.115v-.057h.115v-.058h.115v-.057h.115v-.058h.115v-.057h.115v-.057h.057v-.058h.115v-.057h.115v-.058h.115v-.057h.115v-.058h.115v-.057h.057v-.058h.115v-.057h.115v-.058h.115v-.057h.115v-.058h.115v-.057h.115v-.058h.057v-.057h.115v-.057h.115v-.058h.115v-.057h.115v-.058h.115v-.057h.115v-.058h.057v-.057h.115v-.058h.115v-.057h.115v-.058h.115v-.057h.115v-.058h.058v-.057h.114v-.057h.115v-.058h.115v-.057h.115v-.058h.115v-.057h.115v-.058h.058v-.057h.115v-.058h.114v-.057h.115v-.058h.115v-.057h.115v-.058h.058v-.057h.115v-.057h.115v-.058h.114v-.057h.115v-.058h.115v-.057h.115v-.058h.058v-.057h.115v-.058h.115v-.057h.115v-.058h.114v-.057h.115v-.058h.058v-.057h.115v-.058h.115v-.057h.115v-.057h.115v-.058h.114v-.057h.115v-.058h.058v-.057h.115v-.058h.115v-.057h.115v-.058h.115v-.057h.114v-.058h.115v-.057h.058v-.058h.115v-.057h.115v-.057h.115v-.058h.115v-.057h.115v-.058h.057v-.057h.115v-.058h.115v-.057h.115v-.058h.115v-.057h.115v-.058h.115v-.057h.057v-.058h.115v-.057h.115v-.057h.115v-.058h.115v-.057h.115v-.058h.057v-.057h.115v-.058h.115v-.057h.115v-.058h.115v-.057h.115v-.058h.115v-.057h.057v-.058h.115v-.057h.115v-.058h.115v-.057h.115v-.057h.115v-.058h.057v-.057h.115v-.058h.115v-.057h.115v-.058h.115v-.057h.115v-.058h.115v-.057h.057v-.058h.115v-.057h.115v-.058h.115v-.057h.115v-.057h.115v-.058h.115v-.057h.057v-.058h.115v-.057h.115v-.058h.115v-.057h.115v-.058h.115v-.057h.057v-.058h.115v-.057h.115v-.058h.115v-.057h.115v-.057h.115v-.058h.115v-.057h.057v-.058h.115v-.057h.115v-.058h.115v-.057h.115v-.058h.115v-.057h.058v-.058h.114v-.057h.115v-.058h.115v-.057h.115v-.058h.115v-.057h.115v-.057h.058v-.058h.114v-.057h.115v-.058h.115v-.057h.115v-.058h.115v-.057h.058v-.058h.115v-.057h.114v-.058h.115v-.057h.115v-.058h.115v-.057h.115v-.057h.058v-.058h.115v-.057h.115v-.058h.114v-.057h.115v-.058h.115v-.057h.115v-.058h.058v-.057h.115v-.058h.115v-.057h.114v-.058h.115v-.057h.115v-.057h.058v-.058h.115v-.057h.115v-.058h.115v-.057h.114v-.058h.115v-.057h.115v-.058h.058v-.057h.115v-.058h.115v-.057h.115v-.058h.115v-.057h.114v-.058h.058v-.057h.115v-.057h.115v-.058h.115v-.057h.115v-.058h.115v-.057h.114v-.058h.058v-.057h.115v-.058h.115v-.057h.115v-.058h.115v-.057h.115v-.058h.057v-.057h.115v-.057h.115v-.058h.115v-.057h.115v-.058h.115v-.057h.115v-.058h.057v-.057h.115v-.058h.115v-.057h.115v-.058h.115v-.057h.115v-.058h.115v-.057h.057v-.058h.115v-.057h.115v-.057h.115v-.058h.115v-.057h.115v-.058h.057v-.057h.115v-.058h.115v-.057h.115v-.058h.115v-.057h.115v-.058h.115v-.057h.057v-.058h.115v-.057h.115v-.057h.115v-.058h.115v-.057h.115v-.058h.057v-.057h.115v-.058h.115v-.057h.115v-.058h.115v-.057h.115v-.058h.115v-.057h.057v-.058h.115v-.057h.115v-.057h.115v-.058h.115v-.057h.115v-.058h.057v-.057h.115v-.058h.115v-.057h.115v-.058h.115v-.057h.115v-.058h.115v-.057h.057v-.058h.115v-.057h.115v-.058h.115v-.057h.115v-.057h.115v-.058h.115v-.057h.057v-.058h.115v-.057h.115v-.058h.115v-.057h.115v-.058h.115v-.057h.058v-.058h.115v-.057h.114v-.058h.115v-.057h.115v-.057h.115v-.058h.115v-.057h.058v-.058h.115v-.057h.114v-.058h.115v-.057h.115v-.058h.115v-.057h.058v-.058h.115v-.057h.115v-.058h.114v-.057h.115v-.057h.115v-.058h.115v-.057h.058v-.058h.115v-.057h.115v-.058h.115v-.057h.114v-.058h.115v-.057h.058v-.058h.115v-.057h.115v-.058h.115v-.057h.115v-.058h.114v-.057h.115v-.057h.058v-.058h.115v-.057h.115v-.058h.115v-.057h.115v-.058h.114v-.057h.115v-.058h.058v-.057h.115v-.058h.115v-.057h.115v-.058h.115v-.057h.115v-.057h.057v-.058h.115v-.057h.115v-.058h.115v-.057h.115v-.058h.115v-.057h.115v-.058h.057v-.057h.115v-.058h.115v-.057h.115v-.058h.115v-.057h.115v-.057h.057v-.058h.115v-.057h.115v-.058h.115v-.057h.115v-.058h.115v-.057h.115v-.058h.057v-.057h.115v-.058h.115v-.057h.115v-.058h.115v-.057h.115v-.058h.057v-.057h.115v-.057h.115v-.058h.115v-.057h.115v-.058h.115v-.057h.115v-.058h.057v-.057h.115v-.058h.115v-.057h.115v-.058h.115v-.057h.115v-.058h.115v-.057h.057v-.057h.115v-.058h.115v-.057h.115v-.058h.115v-.057h.115v-.058h.057v-.057h.115v-.058h.115v-.057h.115v-.058h.115v-.057h.115v-.058h.115v-.057h.057v-.057h.115v-.058h.115v-.057h.115v-.058h.115v-.057h.115v-.058h.058v-.057h.114v-.058h.115v-.057h.115v-.058h.115v-.057h.115v-.058h.115v-.057h.058v-.058h.114v-.057h.115v-.057h.115v-.058h.115v-.057h.115v-.058h.058v-.057h.115v-.058h.114v-.057h.115v-.058h.115v-.057h.115v-.058h.115v-.057h.058v-.058h.115v-.057h.115v-.057h.114v-.058h.115v-.057h.115v-.058h.115v-.057h.058v-.058h.115v-.057h.115v-.058h.114v-.057h.115v-.058h.115v-.057h.058v-.058h.115v-.057h.115v-.057h.115v-.058h.115v-.057h.114v-.058h.115v-.057h.058v-.058h.115v-.057h.115v-.058h.115v-.057h.115v-.058h.114v-.057h.058v-.058h.115v-.057h.115v-.058h.115v-.057h.115v-.057h.115v-.058h.114v-.057h.058v-.058h.115v-.057h.115v-.058h.115v-.057h.115v-.058h.115v-.057h.057v-.058h.115v-.057h.115v-.058h.115v-.057h.115v-.057h.115v-.058h.115v-.057h.057v-.058h.115v-.057h.115v-.058h.115v-.057h.115v-.058h.115v-.057h.115v-.058h.057v-.057h.115v-.058h.115v-.057h.115v-.058h.115v-.057h.115v-.057h.057v-.058h.115v-.057h.115v-.058h.115v-.057h.115v-.058h.115v-.057h.115v-.058h.057v-.057h.115v-.058h.115v-.057h.115v-.058h.115v-.057h.115v-.057h.057v-.058h.115v-.057h.115v-.058h.115v-.057h.115v-.058h.115v-.057h.115v-.058h.057v-.057h.115v-.058h.115v-.057h.115v-.058h.115v-.057h.115v-.057h.057v-.058h.115v-.057h.115v-.058h.115v-.057h.115v-.058h.115v-.057h.115v-.058h.057v-.057h.115v-.058h.115v-.057h.115v-.058h.115v-.057h.115v-.058h.115v-.057h.057v-.057h.115v-.058h.115v-.057h.115v-.058h.115v-.057h.115v-.058h.058v-.057h.115v-.058h.114v-.057h.115v-.058h.115v-.057h.115v-.058h.115v-.057h.058v-.057h.115v-.058h.114v-.057h.115v-.058h.115v-.057h.115v-.058h.058v-.057h.115v-.058h.115v-.057h.114v-.058h.115v-.057h.115v-.058h.115v-.057h.058v-.057h.115v-.058h.115v-.057h.115v-.058h.114v-.057h.115v-.058h.058v-.057h.115v-.058h.115v-.057h.115v-.058h.115v-.057h.114v-.058h.115v-.057h.058v-.058h.115v-.057h.115v-.057h.115v-.058h.115v-.057h.114v-.058h.115v-.057h.058v-.058h.115v-.057h.115v-.058h.115v-.057h.115v-.058h.115v-.057h.057v-.058h.115v-.057h.115v-.057h.115v-.058h.115v-.057h.115v-.058h.115v-.057h.057v-.058h.115v-.057h.115v-.058h.115v-.057h.115v-.058h.115v-.057h.057v-.058h.115v-.057h.115v-.057h.115v-.058h.115v-.057h.115v-.058h.115v-.057h.057v-.058h.115v-.057h.115v-.058h.115v-.057h.115v-.058h.115v-.057h.057v-.058h.115v-.057h.115v-.058h.115v-.057h.115v-.057h.115v-.058h.115v-.057h.057v-.058h.115v-.057h.115v-.058h.115v-.057h.115v-.058h.115v-.057h.115v-.058h.057v-.057h.115v-.058h.115v-.057h.115v-.057h.115v-.058h.115v-.057h.057v-.058h.115v-.057h.115v-.058h.115v-.057h.115v-.058h.115v-.057h.115v-.058h.057v-.057h.115v-.058h.115v-.057h.115v-.058h.115v-.057h.115v-.057h.058v-.058h.114v-.057h.115v-.058h.115v-.057h.115v-.058h.115v-.057h.115v-.058h.058v-.057h.114v-.058h.115v-.057h.115v-.058h.115v-.057h.115v-.057h.058v-.058h.115v-.057h.114v-.058h.115v-.057h.115v-.058h.115v-.057h.115v-.058h.058v-.057h.115v-.058h.115v-.057h.114v-.058h.115v-.057h.115v-.057h.115v-.058h.058v-.057h.115v-.058h.115v-.057h.114v-.058h.115v-.057h.115v-.058h.058v-.057h.115v-.058h.115v-.057h.115v-.058h.115v-.057h.114v-.058h.115v-.057h.058v-.057h.115v-.058h.115v-.057h.115v-.058h.115v-.057h.114v-.058h.058v-.057h.115v-.058h.115v-.057h.115v-.058h.115v-.057h.115v-.058h.114v-.057h.058v-.057h.115v-.058h.115v-.057h.115v-.058h.115v-.057h.115v-.058h.057v-.057h.115v-.058h.115v-.057h.115v-.058h.115v-.057h.115v-.058h.115v-.057h.057v-.057h.115v-.058h.115v-.057h.115v-.058h.115v-.057h.115v-.058h.115v-.057h.057v-.058h.115v-.057h.115v-.058h.115v-.057h.115v-.058h.115v-.057h.057v-.058h.115v-.057h.115v-.057h.115v-.058h.115v-.057h.115v-.058h.115v-.057h.057v-.058h.115v-.057h.115v-.058h.115v-.057h.115v-.058h.115v-.057h.057v-.058h.115v-.057h.115v-.057h.115v-.058h.115v-.057h.115v-.058h.115v-.057h.057v-.058h.115v-.057h.115v-.058h.115v-.057h.115v-.058h.115v-.057h.057v-.058h.115v-.057h.115v-.057h.115v-.058h.115v-.057h.115v-.058h.115v-.057h.057v-.058h.115v-.057h.115v-.058h.115v-.057h.115v-.058h.115v-.057h.115v-.058h.057v-.057h.115v-.058h.115v-.057h.115v-.057h.115v-.058h.115v-.057h.058v-.058h.115v-.057h.114v-.058h.115v-.057h.115v-.058h.115v-.057h.115v-.058h.058v-.057h.115v-.058h.114v-.057h.115v-.057h.115v-.058h.115v-.057h.058v-.058h.115v-.057h.115v-.058h.114v-.057h.115v-.058h.115v-.057h.115v-.058h.058v-.057h.115v-.058h.115v-.057h.115v-.057h.114v-.058h.115v-.057h.058v-.058h.115v-.057h.115v-.058h.115v-.057h.115v-.058h.114v-.057h.115v-.058h.058v-.057h.115v-.058h.115v-.057h.115v-.058h.115v-.057h.115v-.057h.114v-.058h.058v-.057h.115v-.058h.115v-.057h.115v-.058h.115v-.057h.115v-.058h.057v-.057h.115v-.058h.115v-.057h.115v-.058h.115v-.057h.115v-.057h.115v-.058h.057v-.057h.115v-.058h.115v-.057h.115v-.058h.115v-.057h.115v-.058h.057v-.057h.115v-.058h.115v-.057h.115v-.058h.115v-.057h.115v-.057h.115v-.058h.057v-.057h.115v-.058h.115v-.057h.115v-.058h.115v-.057h.115v-.058h.057v-.057h.115v-.058h.115v-.057h.115v-.058h.115v-.057h.115v-.058h.115v-.057h.057v-.057h.115v-.058h.115v-.057h.115v-.058h.115v-.057h.115v-.058h.115v-.057h.057v-.058h.115v-.057h.115v-.058h.115v-.057h.115v-.058h.115v-.057h.057v-.057h.115v-.058h.115v-.057h.115v-.058h.115v-.057h.115v-.058h.115v-.057h.057v-.058h.115v-.057h.115v-.058h.115v-.057h.115v-.058h.115v-.057h.058v-.058h.114v-.057h.115v-.057h.115v-.058h.115v-.057h.115v-.058h.115v-.057h.058v-.058h.114v-.057h.115v-.058h.115v-.057h.115v-.058h.115v-.057h.058v-.058h.115v-.057h.114v-.057h.115v-.058h.115v-.057h.115v-.058h.115v-.057h.058v-.058h.115v-.057h.115v-.058h.114v-.057h.115v-.058h.115v-.057h.115v-.058h.058v-.057h.115v-.057h.115v-.058h.114v-.057h.115v-.058h.115v-.057h.058v-.058h.115v-.057h.115v-.058h.115v-.057h.115v-.058h.114v-.057h.115v-.058h.058v-.057h.115v-.058h.115v-.057h.115v-.057h.115v-.058h.114v-.057h.058v-.058h.115v-.057h.115v-.058h.115v-.057h.115v-.058h.115v-.057h.114v-.058h.058v-.057h.115v-.058h.115v-.057h.115v-.057h.115v-.058h.115v-.057h.057v-.058h.115v-.057h.115v-.058h.115v-.057h.115v-.058h.115v-.057h.115v-.058h.057v-.057h.115v-.058h.115v-.057h.115v-.057h.115v-.058h.115v-.057h.115v-.058h.057v-.057h.115v-.058h.115v-.057h.115v-.058h.115v-.057h.115v-.058h.057v-.057h.115v-.058h.115v-.057h.115v-.058h.115v-.057h.115v-.057h.115v-.058h.057v-.057h.115v-.058h.115v-.057h.115v-.058h.115v-.057h.115v-.058h.057v-.057h.115v-.058h.115v-.057h.115v-.058h.115v-.057h.115v-.057h.115v-.058h.057v-.057h.115v-.058h.115v-.057h.115v-.058h.115v-.057h.115v-.058h.057v-.057h.115v-.058h.115v-.057h.115v-.058h.115v-.057h.115v-.057h.115v-.058h.057v-.057h.115v-.058h.115v-.057h.115v-.058h.115v-.057h.115v-.058h.115v-.057h.057v-.058h.115v-.057h.115v-.058h.115v-.057h.115v-.058h.115v-.057h.058v-.057h.115v-.058h.114v-.057h.115v-.058h.115v-.057h.115v-.058h.115v-.057h.058v-.058h.115v-.057h.114v-.058h.115v-.057h.115v-.058h.115v-.057h.058v-.057h.115v-.058h.115v-.057h.115v-.058h.114v-.057h.115v-.058h.115v-.057h.058v-.058h.115v-.057h.115v-.058h.115v-.057h.114v-.058h.115v-.057h.058v-.058h.115v-.057h.115v-.057h.115v-.058h.115v-.057h.114v-.058h.115v-.057h.058v-.058h.115v-.057h.115v-.058h.115v-.057h.115v-.058h.115v-.057h.114v-.058h.058v-.057h.115v-.057h.115v-.058h.115v-.057h.115v-.058h.115v-.057h.057v-.058h.115v-.057h.115v-.058h.115v-.057h.115v-.058h.115v-.057h.115v-.058h.057v-.057h.115v-.057h.115v-.058h.115v-.057h.115v-.058h.115v-.057h.057v-.058h.115v-.057h.115v-.058h.115v-.057h.115v-.058h.115v-.057h.115v-.058h.057v-.057h.115v-.058h.115v-.057h.115v-.057h.115v-.058h.115v-.057h.057v-.058h.115v-.057h.115v-.058h.115v-.057h.115v-.058h.115v-.057h.115v-.058h.057v-.057h.115v-.058h.115v-.057h.115v-.057h.115v-.058h.115v-.057h.115v-.058h.057v-.057h.115v-.058h.115v-.057h.115v-.058h.115v-.057h.115v-.058h.057v-.057h.115v-.058h.115v-.057h.115v-.057h.115v-.058h.115v-.057h.115v-.058h.057v-.057h.115v-.058h.115v-.057h.115v-.058h.115v-.057h.115v-.058h.058v-.057h.114v-.058h.115v-.057h.115v-.058h.115v-.057h.115v-.057h.115v-.058h.058v-.057h.114v-.058h.115v-.057h.115v-.058h.115v-.057h.115v-.058h.058v-.057h.115v-.058h.114v-.057h.115v-.058h.115v-.057h.115v-.057h.115v-.058h.058v-.057h.115v-.058h.115v-.057h.114v-.058h.115v-.057h.115v-.058h.115v-.057h.058v-.058h.115v-.057h.115v-.058h.114v-.057h.115v-.057h.115v-.058h.058v-.057h.115v-.058h.115v-.057h.115v-.058h.115v-.057h.114v-.058h.115v-.057h.058v-.058h.115v-.057h.115v-.058h.115v-.057h.115v-.058h.114v-.057h.058v-.057h.115v-.058h.115v-.057h.115v-.058h.115v-.057h.115v-.058h.114v-.057h.058v-.058h.115v-.057h.115v-.058h.115v-.057h.115v-.058h.115v-.057h.057v-.057h.115v-.058h.115v-.057h.115v-.058h.115v-.057h.115v-.058h.115v-.057h.057v-.058h.115v-.057h.115v-.058h.115v-.057h.115v-.058h.115v-.057h.115v-.057h.057v-.058h.115v-.057h.115v-.058h.115v-.057h.115v-.058h.115v-.057h.057v-.058h.115v-.057h.115v-.058h.115v-.057h.115v-.058h.115v-.057h.115v-.058h.057v-.057h.115v-.057h.115v-.058h.115v-.057h.115v-.058h.115v-.057h.057v-.058h.115v-.057h.115v-.058h.115v-.057h.115v-.058h.115v-.057h.115v-.058h.057v-.057h.115v-.057h.115v-.058h.115v-.057h.115v-.058h.115v-.057h.057v-.058h.115v-.057h.115v-.058h.115v-.057h.115v-.058h.115v-.057h.115v-.058h.057v-.057h.115v-.057h.115v-.058h.115v-.057h.115v-.058h.115v-.057h.115v-.058h.057v-.057h.115v-.058h.115v-.057h.115v-.058h.115v-.057h.115v-.058h.058v-.057h.115v-.058h.114v-.057h.115v-.057h.115v-.058h.115v-.057h.115v-.058h.058v-.057h.115v-.058h.114v-.057h.115v-.058h.115v-.057h.115v-.058h.058v-.057h.115v-.058h.115v-.057h.115v-.057h.114v-.058h.115v-.057h.115v-.058h.058v-.057h.115v-.058h.115v-.057h.115v-.058h.114v-.057h.115v-.058h.058v-.057h.115v-.058h.115v-.057h.115v-.058h.115v-.057h.114v-.057h.115v-.058h.058v-.057h.115v-.058h.115v-.057h.115v-.058h.115v-.057h.115v-.058h.114v-.057h.058v-.058h.115v-.057h.115v-.058h.115v-.057h.115v-.057h.115v-.058h.057v-.057h.115v-.058h.115v-.057h.115v-.058h.115v-.057h.115v-.058h.115v-.057h.057v-.058h.115v-.057h.115v-.058h.115v-.057h.115v-.057h.115v-.058h.057v-.057h.115v-.058h.115v-.057h.115v-.058h.115v-.057h.115v-.058h.115v-.057h.057v-.058h.115v-.057h.115v-.058h.115v-.057h.115v-.058h.115v-.057h.057v-.057h.115v-.058h.115v-.057h.115v-.058h.115v-.057h.115v-.058h.115v-.057h.057v-.058h.115v-.057h.115v-.058h.115v-.057h.115v-.058h.115v-.057h.115v-.057h.057v-.058h.115v-.057h.115v-.058h.115v-.057h.115v-.058h.115v-.057h.057v-.058h.115v-.057h.115v-.058h.115v-.057h.115v-.058h.115v-.057h.115v-.057h.057v-.058h.115v-.057h.115v-.058h.115v-.057h.115v-.058h.115v-.057h.058v-.058h.114v-.057h.115v-.058h.115v-.057h.115v-.058h.115v-.057h.115v-.058h.058v-.057h.114v-.057h.115v-.058h.115v-.057h.115v-.058h.115v-.057h.058v-.058h.115v-.057h.114v-.058h.115v-.057h.115v-.058h.115v-.057h.115v-.058h.058v-.057h.115v-.057h.115v-.058h.114v-.057h.115v-.058h.115v-.057h.115v-.058h.058v-.057h.115v-.058h.115v-.057h.114v-.058h.115v-.057h.115v-.058h.058v-.057h.115v-.057h.115v-.058h.115v-.057h.115v-.058h.114v-.057h.115v-.058h.058v-.057h.115v-.058h.115v-.057h.115v-.058h.115v-.057h.114v-.058h.058v-.057h.115v-.058h.115v-.057h.115v-.057h.115v-.058h.115v-.057h.114v-.058h.058v-.057h.115v-.058h.115v-.057h.115v-.058h.115v-.057h.115v-.058h.057v-.057h.115v-.058h.115v-.057h.115v-.057h.115v-.058h.115v-.057h.115v-.058h.057v-.057h.115v-.058h.115v-.057h.115v-.058h.115v-.057h.115v-.058h.115v-.057h.057v-.058h.115v-.057h.115v-.058h.115v-.057h.115v-.057h.115v-.058h.057v-.057h.115v-.058h.115v-.057h.115v-.058h.115v-.057h.115v-.058h.115v-.057h.057v-.058h.115v-.057h.115v-.058h.115v-.057h.115v-.057h.115v-.058h.057v-.057h.115v-.058h.115v-.057h.115v-.058h.115v-.057h.115v-.058h.115v-.057h.057v-.058h.115v-.057h.115v-.058h.115v-.057h.115v-.057h.115v-.058h.057v-.057h.115v-.058h.115v-.057h.115v-.058h.115v-.057h.115v-.058h.115v-.057h.057v-.058h.115v-.057h.115v-.058h.115v-.057h.115v-.058h.115v-.057h.115v-.057h.058v-.058h.114v-.057h.115v-.058h.115v-.057h.115v-.058h.115v-.057h.058v-.058h.115v-.057h.114v-.058h.115v-.057h.115v-.058h.115v-.057h.115v-.057h.058v-.058h.115v-.057h.114v-.058h.115v-.057h.115v-.058h.115v-.057h.058v-.058h.115v-.057h.115v-.058h.115v-.057h.114v-.058h.115v-.057h.115v-.057h.058v-.058h.115v-.057h.115v-.058h.115v-.057h.114v-.058h.115v-.057h.058v-.058h.115v-.057h.115v-.058h.115v-.057h.115v-.058h.114v-.057h.115v-.058h.058v-.057h.115v-.057h.115v-.058h.115v-.057h.115v-.058h.115v-.057h.114v-.058h.058v-.057h.115v-.058h.115v-.057h.115v-.058h.115v-.057h.115v-.058h.057v-.057h.115v-.057h.115v-.058h.115v-.057h.115v-.058h.115v-.057h.115v-.058h.057v-.057h.115v-.058h.115v-.057h.115v-.058h.115v-.057h.115v-.058h.057v-.057h.115v-.057h.115v-.058h.115v-.057h.115v-.058h.115v-.057h.115v-.058h.057v-.057h.115v-.058h.115v-.057h.115v-.058h.115v-.057h.115v-.058h.057v-.057h.115v-.058h.115v-.057h.115v-.057h.115v-.058h.115v-.057h.115v-.058h.057v-.057h.115v-.058h.115v-.057h.115v-.058h.115v-.057h.115v-.058h.115v-.057h.057v-.058h.115v-.057h.115v-.057h.115v-.058h.115v-.057h.115v-.058h.057v-.057h.115v-.058h.115v-.057h.115v-.058h.115v-.057h.115v-.058h.115v-.057h.057v-.058h.115v-.057h.115v-.057h.115v-.058h.115v-.057h.115v-.058h.058v-.057h.114v-.058h.115v-.057h.115v-.058h.115v-.057h.115v-.058h.115v-.057h.058v-.058h.114v-.057h.115v-.058h.115v-.057h.115v-.057h.115v-.058h.058v-.057h.115v-.058h.114v-.057h.115v-.058h.115v-.057h.115v-.058h.115v-.057h.058v-.058h.115v-.057h.115v-.058h.114v-.057h.115v-.057h.115v-.058h.115v-.057h.058v-.058h.115v-.057h.115v-.058h.114v-.057h.115v-.058h.115v-.057h.058v-.058h.115v-.057h.115v-.058h.115v-.057h.115v-.057h.114v-.058h.115v-.057h.058v-.058h.115v-.057h.115v-.058h.115v-.057h.115v-.058h.114v-.057h.058v-.058h.115v-.057h.115v-.058h.115v-.057h.115v-.058h.115v-.057h.115v-.057h.057v-.058h.115v-.057h.115v-.058h.115v-.057h.115v-.058h.115v-.057h.057v-.058h.115v-.057h.115v-.058h.115v-.057h.115v-.058h.115v-.057h.115v-.057h.057v-.058h.115v-.057h.115v-.058h.115v-.057h.115v-.058h.115v-.057h.115v-.058h.057v-.057h.115v-.058h.115v-.057h.115v-.058h.115v-.057h.115v-.057h.057v-.058h.115v-.057h.115v-.058h.115v-.057h.115v-.058h.115v-.057h.115v-.058h.057v-.057h.115v-.058h.115v-.057h.115v-.058h.115v-.057h.115v-.058h.057v-.057h.115v-.057h.115v-.058h.115v-.057h.115v-.058h.115v-.057h.115v-.058h.057v-.057h.115v-.058h.115v-.057h.115v-.058h.115v-.057h.115v-.058h.057v-.057h.115v-.057h.115v-.058h.115v-.057h.115v-.058h.115v-.057h.115v-.058h.057v-.057h.115v-.058h.115v-.057h.115v-.058h.115v-.057h.115v-.058h.115v-.057h.058v-.058h.114v-.057h.115v-.057h.115v-.058h.115v-.057h.115v-.058h.058v-.057h.115v-.058h.114v-.057h.115v-.058h.115v-.057h.115v-.058h.115v-.057h.058v-.058h.115v-.057h.114v-.057h.115v-.058h.115v-.057h.115v-.058h.058v-.057h.115v-.058h.115v-.057h.115v-.058h.114v-.057h.115v-.058h.115v-.057h.058v-.058h.115v-.057h.115v-.057h.115v-.058h.114v-.057h.115v-.058h.058v-.057h.115v-.058h.115v-.057h.115v-.058h.115v-.057h.115v-.058h.114v-.057h.058v-.058h.115v-.057h.115v-.058h.115v-.057h.115v-.057h.115v-.058h.114v-.057h.058v-.058h.115v-.057h.115v-.058h.115v-.057h.115v-.058h.115v-.057h.057v-.058h.115v-.057h.115v-.058h.115v-.057h.115v-.057h.115v-.058h.115v-.057h.057v-.058h.115v-.057h.115v-.058h.115v-.057h.115v-.058h.115v-.057h.057v-.058h.115v-.057h.115v-.058h.115v-.057h.115v-.057h.115v-.058h.115v-.057h.057v-.058h.115v-.057h.115v-.058h.115v-.057h.115v-.058h.115v-.057h.057v-.058h.115v-.057h.115v-.058h.115v-.057h.115v-.058h.115v-.057h.115v-.057h.057v-.058h.115v-.057h.115v-.058h.115v-.057h.115v-.058h.115v-.057h.115v-.058h.057v-.057h.115v-.058h.115v-.057h.115v-.058h.115v-.057h.115v-.057h.057v-.058h.115v-.057h.115v-.058h.115v-.057h.115v-.058h.115v-.057h.115v-.058h.057v-.057h.115v-.058h.115v-.057h.115v-.058h.115v-.057h.115v-.058h.058v-.057h.114v-.057h.115v-.058h.115v-.057h.115v-.058h.115v-.057h.115v-.058h.058v-.057h.114v-.058h.115v-.057h.115v-.058h.115v-.057h.115v-.058h.058v-.057h.115v-.057h.115v-.058h.114v-.057h.115v-.058h.115v-.057h.115v-.058h.058v-.057h.115v-.058h.115v-.057h.114v-.058h.115v-.057h.115v-.058h.115v-.057h.058v-.057h.115v-.058h.115v-.057h.114v-.058h.115v-.057h.115v-.058h.058v-.057h.115v-.058h.115v-.057h.115v-.058h.115v-.057h.114v-.058h.115v-.057h.058v-.058h.115v-.057h.115v-.057h.115v-.058h.115v-.057h.114v-.058h.058v-.057h.115v-.058h.115v-.057h.115v-.058h.115v-.057h.115v-.058h.115v-.057h.057v-.058h.115v-.057h.115v-.057h.115v-.058h.115v-.057h.115v-.058h.057v-.057h.115v-.058h.115v-.057h.115v-.058h.115v-.057h.115v-.058h.115v-.057h.057v-.058h.115v-.057h.115v-.057h.115v-.058h.115v-.057h.115v-.058h.115v-.057h.057v-.058h.115v-.057h.115v-.058h.115v-.057h.115v-.058h.115v-.057h.057v-.058h.115v-.057h.115v-.058h.115v-.057h.115v-.057h.115v-.058h.115v-.057h.057v-.058h.115v-.057h.115v-.058h.115v-.057h.115v-.058h.115v-.057h.057v-.058h.115v-.057h.115v-.058h.115v-.057h.115v-.057h.115v-.058h.115v-.057h.057v-.058h.115v-.057h.115v-.058h.115v-.057h.115v-.058h.115v-.057h.057v-.058h.115v-.057h.115v-.058h.115v-.057h.115v-.057h.115v-.058h.115v-.057h.058v-.058h.114v-.057h.115v-.058h.115v-.057h.115v-.058h.115v-.057h.115v-.058h.058v-.057h.114v-.058h.115v-.057h.115v-.058h.115v-.057h.115v-.057h.058v-.058h.115v-.057h.114v-.058h.115v-.057h.115v-.058h.115v-.057h.115v-.058h.058v-.057h.115v-.058h.114v-.057h.115v-.058h.115v-.057h.115v-.057h.058v-.058h.115v-.057h.115v-.058h.115v-.057h.114v-.058h.115v-.057h.115v-.058h.058v-.057h.115v-.058h.115v-.057h.115v-.058h.114v-.057h.115v-.057h.058v-.058h.115v-.057h.115v-.058h.115v-.057h.115v-.058h.115v-.057h.114v-.058h.058v-.057h.115v-.058h.115v-.057h.115v-.058h.115v-.057h.115v-.058h.114v-.057h.058v-.057h.115v-.058h.115v-.057h.115v-.058h.115v-.057h.115v-.058h.057v-.057h.115v-.058h.115v-.057h.115v-.058h.115v-.057h.115v-.058h.115v-.057h.057v-.057h.115v-.058h.115v-.057h.115v-.058h.115v-.057h.115v-.058h.057v-.057h.115v-.058h.115v-.057h.115v-.058h.115v-.057h.115v-.058h.115v-.057h.057v-.057h.115v-.058h.115v-.057h.115v-.058h.115v-.057h.115v-.058h.057v-.057h.115v-.058h.115v-.057h.115v-.058h.115v-.057h.115v-.058h.115v-.057h.057v-.058h.115v-.057h.115v-.057h.115v-.058h.115v-.057h.115v-.058h.115v-.057h.057v-.058h.115v-.057h.115v-.058h.115v-.057h.115v-.058h.115v-.057h.057v-.058h.115v-.057h.115v-.057h.115v-.058h.115v-.057h.115v-.058h.115v-.057h.057v-.058h.115v-.057h.115v-.058h.115v-.057h.115v-.058h.115v-.057h.058v-.058h.114v-.057h.115v-.057h.115v-.058h.115v-.057h.115v-.058h.115v-.057h.058v-.058h.114v-.057h.115v-.058h.115v-.057h.115v-.058h.115v-.057h.058v-.058h.115v-.057h.115v-.058h.114v-.057h.115v-.057h.115v-.058h.115v-.057h.058v-.058h.115v-.057h.115v-.058h.114v-.057h.115v-.058h.115v-.057h.115v-.058h.058v-.057h.115v-.058h.115v-.057h.114v-.057h.115v-.058h.115v-.057h.058v-.058h.115v-.057h.115v-.058h.115v-.057h.115v-.058h.114v-.057h.115v-.058h.058v-.057h.115v-.058h.115v-.057h.115v-.058h.115v-.057h.114v-.057h.058v-.058h.115v-.057h.115v-.058h.115v-.057h.115v-.058h.115v-.057h.115v-.058h.057v-.057h.115v-.058h.115v-.057h.115v-.058h.115v-.057h.115v-.057h.057v-.058h.115v-.057h.115v-.058h.115v-.057h.115v-.058h.115v-.057h.115v-.058h.057v-.057h.115v-.058h.115v-.057h.115v-.058h.115v-.057h.115v-.057h.115v-.058h.057v-.057h.115v-.058h.115v-.057h.115v-.058h.115v-.057h.115v-.058h.057v-.057h.115v-.058h.115v-.057h.115v-.058h.115v-.057h.115v-.058h.115v-.057h.057v-.057h.115v-.058h.115v-.057h.115v-.058h.115v-.057h.115v-.058h.057v-.057h.115v-.058h.115v-.057h.115v-.058h.115v-.057h.115v-.058h.115v-.057h.057v-.057h.115v-.058h.115v-.057h.115v-.058h.115v-.057h.115v-.058h.057v-.057h.115v-.058h.115v-.057h.115v-.058h.115v-.057h.115v-.058h.115v-.057h.058v-.057h.114v-.058h.115v-.057h.115v-.058h.115v-.057h.115v-.058h.115v-.057h.058v-.058h.114v-.057h.115v-.058h.115v-.057h.115v-.058h.115v-.057h.058v-.058h.115v-.057h.114v-.057h.115v-.058h.115v-.057h.115v-.058h.115v-.057h.058v-.058h.115v-.057h.114v-.058h.115v-.057h.115v-.058h.115v-.057h.058v-.058h.115v-.057h.115v-.057h.115v-.058h.114v-.057h.115v-.058h.115v-.057h.058v-.058h.115v-.057h.115v-.058h.115v-.057h.114v-.058h.115v-.057h.058v-.058h.115v-.057h.115v-.057h.115v-.058h.115v-.057h.115v-.058h.114v-.057h.058v-.058h.115v-.057h.115v-.058h.115v-.057h.115v-.058h.115v-.057h.114v-.058h.058v-.057h.115v-.058h.115v-.057h.115v-.057h.115v-.058h.115v-.057h.057v-.058h.115v-.057h.115v-.058h.115v-.057h.115v-.058h.115v-.057h.115v-.058h.057v-.057h.115v-.058h.115v-.057h.115v-.057h.115v-.058h.115v-.057h.057v-.058h.115v-.057h.115v-.058h.115v-.057h.115v-.058h.115v-.057h.115v-.058h.057v-.057h.115v-.058h.115v-.057h.115v-.058h.115v-.057h.115v-.057h.057v-.058h.115v-.057h.115v-.058h.115v-.057h.115v-.058h.115v-.057h.115v-.058h.057v-.057h.115v-.058h.115v-.057h.115v-.058h.115v-.057h.115v-.057h.115v-.058h.057v-.057h.115v-.058h.115v-.057h.115v-.058h.115v-.057h.115v-.058h.057v-.057h.115v-.058h.115v-.057h.115v-.058h.115v-.057h.115v-.057h.115v-.058h.057v-.057h.115v-.058h.115v-.057h.115v-.058h.115v-.057h.115v-.058h.058v-.057h.114v-.058h.115v-.057h.115v-.058h.115v-.057h.115v-.058h.115v-.057h.058v-.057h.115v-.058h.114v-.057h.115v-.058h.115v-.057h.115v-.058h.058v-.057h.115v-.058h.115v-.057h.114v-.058h.115v-.057h.115v-.058h.115v-.057h.058v-.057h.115v-.058h.115v-.057h.114v-.058h.115v-.057h.115v-.058h.058v-.057h.115v-.058h.115v-.057h.115v-.058h.114v-.057h.115v-.058h.115v-.057h.058v-.057h.115v-.058h.115v-.057h.115v-.058h.115v-.057h.114v-.058h.115v-.057h.058v-.058h.115v-.057h.115v-.058h.115v-.057h.115v-.058h.114v-.057h.058v-.058h.115v-.057h.115v-.057h.115v-.058h.115v-.057h.115v-.058h.115v-.057h.057v-.058h.115v-.057h.115v-.058h.115v-.057h.115v-.058h.115v-.057h.057v-.058h.115v-.057h.115v-.057h.115v-.058h.115v-.057h.115v-.058h.115v-.057h.057v-.058h.115v-.057h.115v-.058h.115v-.057h.115v-.058h.115v-.057h.057v-.058h.115v-.057h.115v-.057h.115v-.058h.115v-.057h.115v-.058h.115v-.057h.057v-.058h.115v-.057h.115v-.058h.115v-.057h.115v-.058h.115v-.057h.115v-.058h.057v-.057h.115v-.058h.115v-.057h.115v-.057h.115v-.058h.115v-.057h.057v-.058h.115v-.057h.115v-.058h.115v-.057h.115v-.058h.115v-.057h.115v-.058h.057v-.057h.115v-.058h.115v-.057h.115v-.057h.115v-.058h.115v-.057h.057v-.058h.115v-.057h.115v-.058h.115v-.057h.115v-.058h.115v-.057h.115v-.058h.058v-.057h.114v-.058h.115v-.057h.115v-.057h.115v-.058h.115v-.057h.058v-.058h.115v-.057h.114v-.058h.115v-.057h.115v-.058h.115v-.057h.115v-.058h.058v-.057h.115v-.058h.114v-.057h.115v-.058h.115v-.057h.115v-.057h.115v-.058h.058v-.057h.115v-.058h.114v-.057h.115v-.058h.115v-.057h.115v-.058h.058v-.057h.115v-.058h.115v-.057h.115v-.058h.114v-.057h.115v-.057h.115v-.058h.058v-.057h.115v-.058h.115v-.057h.115v-.058h.114v-.057h.115v-.058h.058v-.057h.115v-.058h.115v-.057h.115v-.058h.115v-.057h.115v-.057h.114v-.058h.058v-.057h.115v-.058h.115v-.057h.115v-.058h.115v-.057h.115v-.058h.057v-.057h.115v-.058h.115v-.057h.115v-.058h.115v-.057h.115v-.058h.115v-.057h.057v-.057h.115v-.058h.115v-.057h.115v-.058h.115v-.057h.115v-.058h.115v-.057h.057v-.058h.115v-.057h.115v-.058h.115v-.057h.115v-.058h.115v-.057h.057v-.057h.115v-.058h.115v-.057h.115v-.058h.115v-.057h.115v-.058h.115v-.057h.057v-.058h.115v-.057h.115v-.058h.115v-.057h.115v-.058h.115v-.057h.057v-.058h.115v-.057h.115v-.057h.115v-.058h.115v-.057h.115v-.058h.115v-.057h.057v-.058h.115v-.057h.115v-.058h.115v-.057h.115v-.058h.115v-.057h.057v-.058h.115v-.057h.115v-.057h.115v-.058h.115v-.057h.115v-.058h.115v-.057h.057v-.058h.115v-.057h.115v-.058h.115v-.057h.115v-.058h.115v-.057h.115v-.058h.057v-.057h.115v-.057h.115v-.058h.115v-.057h.115v-.058h.115v-.057h.058v-.058h.114v-.057h.115v-.058h.115v-.057h.115v-.058h.115v-.057h.115v-.058h.058v-.057h.115v-.058h.114v-.057h.115v-.057h.115v-.058h.115v-.057h.058v-.058h.115v-.057h.115v-.058h.114v-.057h.115v-.058h.115v-.057h.115v-.058h.058v-.057h.115v-.058h.115v-.057h.114v-.057h.115v-.058h.115v-.057h.058v-.058h.115v-.057h.115v-.058h.115v-.057h.114v-.058h.115v-.057h.115v-.058h.058v-.057h.115v-.058h.115v-.057h.115v-.057h.115v-.058h.114v-.057h.115v-.058h.058v-.057h.115v-.058h.115v-.057h.115v-.058h.115v-.057h.114v-.058h.058v-.057h.115v-.058h.115v-.057h.115v-.058h.115v-.057h.115v-.057h.115v-.058h.057v-.057h.115v-.058h.115v-.057h.115v-.058h.115v-.057h.115v-.058h.057v-.057h.115v-.058h.115v-.057h.115v-.058h.115v-.057h.115v-.057h.115v-.058h.057v-.057h.115v-.058h.115v-.057h.115v-.058h.115v-.057h.115v-.058h.057v-.057h.115v-.058h.115v-.057h.115v-.058h.115v-.057h.115v-.057h.115v-.058h.057v-.057h.115v-.058h.115v-.057h.115v-.058h.115v-.057h.115v-.058h.115v-.057h.057v-.058h.115v-.057h.115v-.058h.115v-.057h.115v-.058h.115v-.057h.057v-.057h.115v-.058h.115v-.057h.115v-.058h.115v-.057h.115v-.058h.115v-.057h.057v-.058h.115v-.057h.115v-.058h.115v-.057h.115v-.058h.115v-.057h.057v-.057h.115v-.058h.115v-.057h.115v-.058h.115v-.057h.115v-.058h.115v-.057h.058v-.058h.114v-.057h.115v-.058h.115v-.057h.115v-.058h.115v-.057h.058v-.058h.115v-.057h.114v-.057h.115v-.058h.115v-.057h.115v-.058h.115v-.057h.058v-.058h.115v-.057h.114v-.058h.115v-.057h.115v-.058h.115v-.057h.115v-.058h.058v-.057h.115v-.057h.115v-.058h.114v-.057h.115v-.058h.115v-.057h.058v-.058h.115v-.057h.115v-.058h.115v-.057h.114v-.058h.115v-.057h.115v-.058h.058v-.057h.115v-.057h.115v-.058h.115v-.057h.114v-.058h.115v-.057h.058v-.058h.115v-.057h.115v-.058h.115v-.057h.115v-.058h.115v-.057h.114v-.058h.058v-.057h.115v-.058h.115v-.057h.115v-.057h.115v-.058h.115v-.057h.057v-.058h.115v-.057h.115v-.058h.115v-.057h.115v-.058h.115v-.057h.115v-.058h.057v-.0571h.115v-.0574h.115v-.0575h.115v-.0575h.115v-.0574h.115v-.0575h.115v-.0575h.057v-.0574h.115v-.0575h.115v-.0574h.115v-.0575h.115v-.0575h.115v-.0574h.057v-.0575h.115v-.0575h.115v-.0574h.115v-.0575h.115v-.0574h.115v-.0575h.115v-.0575h.057v-.0574h.115v-.0575h.115v-.0575h.115v-.0574h.115v-.0575h.115v-.0575h.057v-.0574h.115v-.0575h.115v-.0574h.115v-.0575h.115v-.0575h.115v-.0574h.115v-.0575h.057v-.0575h.115v-.0574h.115v-.0575h.115v-.0575h.115v-.0574h.115v-.0575h.057v-.0574h.115v-.0575h.115v-.0575h.115v-.0574h.115v-.0575h.115v-.0575h.115v-.0574h.057v-.0575h.115v-.0575h.115v-.0574h.115v-.0575h.115v-.0575h.115v-.0574h.115v-.0575h.057v-.0574h.115v-.0575h.115v-.0575h.115v-.0574h.115v-.0575h.115v-.0575h.058v-.0574h.114v-.0575h.115v-.0574h.115v-.0575h.115v-.0575h.115v-.0574h.115v-.0575h.058v-.0575h.115v-.0574h.114v-.0575h.115v-.0574h.115v-.0575h.115v-.0575h.058v-.0574h.115v-.0575h.115v-.0575h.114v-.0574h.115v-.0575h.115v-.0575h.115v-.0574h.058v-.0575h.115v-.0574h.115v-.0575h.114v-.0575h.115v-.0574h.115v-.0575h.058v-.0575h.115v-.0574h.057v257.6089" fill="url(#a)"/><g fill="#000"><path d="m152.444 265.153h-5.882v-5.223h-1.548v5.223h-4.045v-6.942h-1.528v8.746h13.003z"/><path d="m141.278 251.086v-2.342h-2.208v2.342zm11.165-6.01h-1.32v3.875h-7.698v5.14h1.342v-3.441h6.356v3.856h1.32z"/><path d="m148.13 235.091c1.982 0 3.241 1.306 3.241 2.88 0 1.846-1.362 2.944-3.427 2.944-2.063 0-3.425-1.098-3.425-2.944 0-1.574 1.259-2.88 3.219-2.88zm4.314.062v-1.72h-13.003v1.72h5.944c-1.217.456-2.207 1.554-2.207 3.254 0 2.694 2.105 4.29 4.766 4.29 2.642 0 4.747-1.596 4.747-4.29 0-1.7-.969-2.798-2.188-3.254z"/><path d="m149.41 221.853c1.279.497 1.94 1.367 1.94 2.88 0 1.68-1.238 3.088-3.199 3.088v-7.336h-.537c-2.331 0-4.436 1.451-4.436 4.373 0 2.673 2.043 4.663 4.89 4.663 2.766 0 4.623-1.99 4.623-4.725 0-2.114-.908-3.565-2.496-4.27zm-2.373 5.907c-1.342-.208-2.518-1.265-2.518-2.902 0-1.72 1.197-2.632 2.518-2.715z"/><path d="m152.444 207.019h-1.3v3.875h-11.703v5.14h1.301v-3.441h10.402v3.856h1.3z"/><path d="m141.278 200.288v-2.342h-2.208v2.342zm11.165-6.01h-1.32v3.875h-7.698v5.14h1.342v-3.441h6.356v3.856h1.32z"/><path d="m143.899 192.335h1.28v-2.943h3.633c2.558 0 3.879-1.824 3.879-4.083 0-1.845-1.135-3.44-2.414-3.959l-1.301.913c1.486.642 2.229 1.616 2.229 2.963 0 1.264-.826 2.487-2.538 2.487h-3.488v-5.078h-1.28v5.078h-3.487l.515 1.679h2.972z"/><path d="m153.247 174.993c1.012.435 1.527.974 1.527 1.679 0 .766-.577 1.14-1.486 1.14l.764 1.409c1.176-.166 2.105-1.036 2.105-2.487 0-1.762-1.383-2.736-3.116-3.483l-9.617-4.061v1.678l7.016 2.881v.083l-7.016 3.212v1.907l8.997-4.311z"/></g><path d="m178.656 354.83v-269.4554" stroke="#000" stroke-width="2"/><path d="m178.656 353.79 481.982-.624" stroke="#000" stroke-width="2"/><g fill="#fff"><path d="m395.404 317.588h3.441c4.02 0 6.591-2.445 6.591-6.528s-2.571-6.528-6.591-6.528h-3.441zm1.825-1.492v-10.072h1.408c3.192 0 4.913 1.865 4.913 5.036s-1.721 5.036-4.913 5.036z"/><path d="m415.857 314.542c-.497 1.285-1.367 1.948-2.88 1.948-1.679 0-3.088-1.243-3.088-3.213h7.337v-.538c0-2.343-1.451-4.456-4.374-4.456-2.673 0-4.663 2.052-4.663 4.911 0 2.778 1.99 4.643 4.726 4.643 2.113 0 3.564-.912 4.269-2.508zm-5.906-2.384c.207-1.347 1.264-2.528 2.901-2.528 1.72 0 2.632 1.202 2.715 2.528z"/><path d="m420.93 315.765c.808 1.284 2.673 2.072 4.684 2.072 2.3 0 4.02-1.057 4.02-2.756 0-1.451-1.098-2.177-2.487-2.467l-2.528-.559c-.995-.229-1.472-.56-1.472-1.223 0-.746.912-1.202 2.072-1.202 1.285 0 2.405.538 2.923 1.471l1.16-.953c-.746-1.16-2.175-1.865-4.083-1.865-2.092 0-3.71 1.077-3.71 2.673 0 1.534 1.182 2.217 2.736 2.55l2.218.476c.974.207 1.513.539 1.513 1.223 0 .912-.953 1.306-2.383 1.306-1.451 0-2.943-.664-3.607-1.887z"/><path d="m437.422 306.376h2.342v-2.218h-2.342zm6.011 11.212v-1.326h-3.876v-7.73h-5.14v1.347h3.441v6.383h-3.856v1.326z"/><path d="m452.856 311.35c0 1.182-.971 1.948-2.178 1.948-1.201 0-2.172-.766-2.172-1.948 0-1.161.971-1.928 2.172-1.928 1.207 0 2.178.767 2.178 1.928zm3.356 6.818c0-1.45-1.241-2.424-3.316-2.424h-3.689c-.89 0-1.264-.312-1.264-.767 0-.476.333-.746.707-.932.58.248 1.264.372 2.028.372 2.282 0 3.919-1.18 3.919-3.067 0-.56-.143-1.057-.436-1.492.54-.539 1.66-.913 2.511-.747l-.19-1.512c-1.344-.187-2.465.684-2.982 1.533-.707-.538-1.678-.849-2.822-.849-2.298 0-3.936 1.202-3.936 3.067 0 .953.414 1.741 1.138 2.259-.828.332-1.408.912-1.408 1.7 0 .766.5 1.347 1.408 1.595-1.218.125-2.132.912-2.132 1.866 0 1.762 2.322 2.549 4.994 2.549 2.654 0 5.47-.891 5.47-3.151zm-8.809.374c0-.871.977-1.348 1.994-1.348h3.109c1.138 0 2.028.312 2.028 1.182 0 1.243-1.701 1.803-3.792 1.803-1.845 0-3.339-.498-3.339-1.637z"/><path d="m461.246 312.697c0-1.782 1.137-2.963 2.672-2.963 1.494 0 2.281.952 2.281 2.465v5.389h1.718v-5.616c0-2.114-1.017-3.689-3.419-3.689-1.598 0-2.816.954-3.252 2.093v-1.844h-1.719v9.056h1.719z"/><path d="m486.312 307.475c0-1.223.747-1.866 1.741-1.866 1.098 0 1.615.808 1.615 1.617 0 1.139-.598 1.741-2.195 2.528-.621-.725-1.161-1.409-1.161-2.279zm1.144 8.973c-1.414 0-2.471-.87-2.471-2.239 0-1.387.706-2.072 1.89-2.734l3.316 3.875.04.062c-.787.643-1.724 1.036-2.775 1.036zm6.275 1.306c.436 0 .976-.124 1.367-.352v-1.161c-.391.104-.701.125-1.011.125-.747 0-1.287-.394-1.891-1.078.937-1.181 1.621-2.653 1.994-4.228l-1.494-.125c-.247 1.244-.724 2.384-1.39 3.317l-3.006-3.524c1.828-.974 2.885-1.906 2.885-3.523 0-1.679-1.144-2.922-3.155-2.922-1.942 0-3.333 1.305-3.333 3.212 0 1.181.558 2.073 1.328 3.006-1.661.931-2.718 1.989-2.718 3.751 0 2.259 1.781 3.585 4.062 3.585 1.454 0 2.718-.539 3.776-1.43.971.995 1.655 1.347 2.586 1.347z"/><path d="m516.232 310.811c1.511-.228 2.793-1.285 2.793-2.798 0-2.072-1.327-3.481-4.534-3.481h-4.626v13.056h4.85c3.046 0 4.683-1.326 4.683-3.585 0-1.866-1.471-2.943-3.166-3.192zm-4.603-4.787h2.943c1.861 0 2.672.828 2.672 2.093 0 1.264-.811 2.051-2.672 2.051h-2.943zm3.046 5.534c1.948 0 2.965.849 2.965 2.3 0 1.409-1.017 2.217-2.965 2.217h-3.046v-4.517z"/><path d="m529.53 313.443c0 1.762-1.138 2.964-2.655 2.964-1.488 0-2.235-.954-2.235-2.487v-5.388h-1.718v5.636c0 2.094.971 3.669 3.356 3.669 1.591 0 2.838-.954 3.252-2.093v1.844h1.718v-9.056h-1.718z"/><path d="m539.017 306.376h2.339v-2.218h-2.339zm6.01 11.212v-1.326h-3.873v-7.73h-5.143v1.347h3.442v6.383h-3.855v1.326z"/><path d="m557.688 317.588v-1.305h-3.879v-11.751h-5.137v1.305h3.442v10.446h-3.856v1.305z"/><path d="m567.766 313.257c0 1.99-1.304 3.254-2.878 3.254-1.845 0-2.943-1.368-2.943-3.441 0-2.072 1.098-3.44 2.943-3.44 1.574 0 2.878 1.264 2.878 3.233zm-.057 4.331h1.718v-13.057h-1.718v5.97c-.46-1.224-1.557-2.218-3.258-2.218-2.695 0-4.287 2.113-4.287 4.787 0 2.654 1.592 4.767 4.287 4.767 1.701 0 2.798-.974 3.258-2.197z"/></g></svg>