<svg fill="none" height="316" viewBox="0 0 840 316" width="840" xmlns="http://www.w3.org/2000/svg"><path d="m334.793 128.968h170.294v-28.157h-170.294z" fill="#00a2ff"/><g fill="#fff"><path d="m338.807 121.773h3.44c4.021 0 6.591-2.446 6.591-6.529s-2.57-6.528-6.591-6.528h-3.44zm1.824-1.493v-10.072h1.409c3.192 0 4.912 1.865 4.912 5.036 0 3.172-1.72 5.036-4.912 5.036z"/><path d="m359.258 118.726c-.498 1.285-1.368 1.949-2.881 1.949-1.679 0-3.087-1.244-3.087-3.213h7.336v-.539c0-2.342-1.451-4.456-4.374-4.456-2.673 0-4.662 2.052-4.662 4.911 0 2.778 1.989 4.643 4.725 4.643 2.114 0 3.565-.912 4.27-2.507zm-5.907-2.384c.208-1.347 1.264-2.528 2.901-2.528 1.721 0 2.633 1.202 2.716 2.528z"/><path d="m364.33 119.949c.808 1.285 2.674 2.072 4.684 2.072 2.3 0 4.021-1.056 4.021-2.756 0-1.451-1.099-2.177-2.487-2.466l-2.529-.56c-.994-.228-1.471-.559-1.471-1.223 0-.746.911-1.202 2.072-1.202 1.285 0 2.405.538 2.922 1.472l1.161-.954c-.746-1.16-2.176-1.865-4.083-1.865-2.093 0-3.71 1.077-3.71 2.673 0 1.535 1.181 2.218 2.736 2.55l2.217.477c.975.206 1.513.538 1.513 1.222 0 .912-.953 1.306-2.383 1.306-1.451 0-2.943-.663-3.606-1.886z"/><path d="m380.823 110.56h2.341v-2.218h-2.341zm6.01 11.213v-1.327h-3.876v-7.73h-5.14v1.347h3.441v6.383h-3.856v1.327z"/><path d="m396.257 115.534c0 1.182-.974 1.948-2.176 1.948-1.201 0-2.176-.766-2.176-1.948 0-1.161.975-1.927 2.176-1.927 1.202 0 2.176.766 2.176 1.927zm3.357 6.818c0-1.449-1.243-2.423-3.315-2.423h-3.69c-.891 0-1.264-.312-1.264-.767 0-.477.332-.746.705-.933.581.249 1.264.372 2.031.372 2.279 0 3.917-1.18 3.917-3.067 0-.559-.146-1.056-.435-1.492.538-.539 1.658-.912 2.507-.746l-.186-1.513c-1.347-.187-2.466.684-2.984 1.533-.705-.538-1.679-.849-2.819-.849-2.301 0-3.937 1.202-3.937 3.067 0 .954.413 1.741 1.139 2.259-.829.332-1.409.912-1.409 1.7 0 .767.497 1.347 1.409 1.595-1.223.126-2.135.913-2.135 1.866 0 1.762 2.321 2.549 4.996 2.549 2.652 0 5.47-.891 5.47-3.151zm-8.808.374c0-.871.974-1.348 1.99-1.348h3.109c1.14 0 2.031.312 2.031 1.182 0 1.243-1.699 1.803-3.792 1.803-1.845 0-3.338-.498-3.338-1.637z"/><path d="m404.644 116.881c0-1.782 1.14-2.963 2.674-2.963 1.492 0 2.28.953 2.28 2.466v5.389h1.72v-5.616c0-2.115-1.016-3.69-3.42-3.69-1.597 0-2.818.954-3.254 2.093v-1.844h-1.72v9.057h1.72z"/><path d="m427.164 119.037c.871 1.866 3.047 2.984 5.43 2.984 2.695 0 4.767-1.409 4.767-3.792 0-2.239-1.472-3.13-3.378-3.586l-2.301-.539c-1.347-.311-2.217-.726-2.217-1.947 0-1.41 1.057-2.198 2.652-2.198 1.742 0 3.047.974 3.649 2.342l1.16-1.264c-.809-1.472-2.467-2.57-4.809-2.57-2.569 0-4.351 1.554-4.351 3.772 0 2.052 1.408 3.026 3.129 3.42l2.591.621c1.388.332 2.196.808 2.196 1.99 0 1.513-1.326 2.259-3.088 2.259-1.782 0-3.523-.974-4.331-2.86z"/><path d="m444.216 122.581c-.436 1.015-.976 1.533-1.679 1.533-.766 0-1.14-.58-1.14-1.492l-1.409.767c.166 1.182 1.036 2.114 2.487 2.114 1.764 0 2.736-1.389 3.483-3.13l4.062-9.657h-1.678l-2.884 7.047h-.081l-3.212-7.047h-1.907l4.309 9.036z"/><path d="m453.227 119.949c.81 1.285 2.672 2.072 4.683 2.072 2.298 0 4.022-1.056 4.022-2.756 0-1.451-1.097-2.177-2.488-2.466l-2.528-.56c-.994-.228-1.471-.559-1.471-1.223 0-.746.913-1.202 2.074-1.202 1.282 0 2.402.538 2.919 1.472l1.161-.954c-.747-1.16-2.178-1.865-4.08-1.865-2.097 0-3.712 1.077-3.712 2.673 0 1.535 1.184 2.218 2.735 2.55l2.218.477c.971.206 1.512.538 1.512 1.222 0 .912-.954 1.306-2.379 1.306-1.454 0-2.948-.663-3.609-1.886z"/><path d="m464.973 113.193v1.285h2.942v3.647c0 2.57 1.827 3.896 4.085 3.896 1.845 0 3.437-1.14 3.96-2.425l-.914-1.305c-.644 1.492-1.615 2.238-2.965 2.238-1.264 0-2.488-.828-2.488-2.549v-3.502h5.079v-1.285h-5.079v-3.503l-1.678.518v2.985z"/><path d="m486.25 118.726c-.495 1.285-1.368 1.949-2.879 1.949-1.678 0-3.086-1.244-3.086-3.213h7.332v-.539c0-2.342-1.448-4.456-4.373-4.456-2.672 0-4.66 2.052-4.66 4.911 0 2.778 1.988 4.643 4.723 4.643 2.115 0 3.563-.912 4.27-2.507zm-5.908-2.384c.207-1.347 1.265-2.528 2.902-2.528 1.724 0 2.632 1.202 2.718 2.528z"/><path d="m492.36 116.716c0-1.638.54-2.84 1.534-2.84 1.017 0 1.264.809 1.264 1.866v6.031h1.575v-5.057c0-1.638.563-2.84 1.534-2.84 1.017 0 1.264.809 1.264 1.866v6.031h1.575v-6.736c0-1.534-.805-2.57-2.069-2.57-1.247 0-2.075.954-2.368 2.072-.143-1.264-.89-2.072-2.005-2.072-1.287 0-2.034.995-2.304 2.134v-1.885h-1.575v9.057h1.575z"/></g><g fill="#000"><path d="m213 279.935c.871 1.865 3.047 2.984 5.43 2.984 2.695 0 4.767-1.409 4.767-3.792 0-2.239-1.472-3.13-3.378-3.587l-2.301-.538c-1.347-.311-2.217-.726-2.217-1.947 0-1.411 1.057-2.198 2.652-2.198 1.742 0 3.047.974 3.649 2.342l1.16-1.264c-.809-1.472-2.467-2.57-4.809-2.57-2.569 0-4.351 1.554-4.351 3.772 0 2.052 1.408 3.026 3.129 3.42l2.591.621c1.388.332 2.196.808 2.196 1.99 0 1.513-1.326 2.259-3.088 2.259-1.782 0-3.523-.974-4.331-2.86z"/><path d="m228.58 279.665 1.844-1.492 3.918 4.498h2.093l-4.747-5.472 4.539-3.585h-2.238l-5.409 4.393v-8.393h-1.721v13.057h1.721z"/><path d="m246.687 279.624c-.497 1.285-1.367 1.948-2.88 1.948-1.679 0-3.088-1.243-3.088-3.212h7.337v-.539c0-2.343-1.451-4.456-4.374-4.456-2.673 0-4.662 2.052-4.662 4.911 0 2.778 1.989 4.643 4.725 4.643 2.113 0 3.564-.912 4.269-2.507zm-5.906-2.384c.207-1.347 1.264-2.528 2.901-2.528 1.721 0 2.633 1.202 2.715 2.528z"/><path d="m250.807 274.091v1.284h2.943v3.648c0 2.57 1.824 3.896 4.083 3.896 1.845 0 3.44-1.14 3.958-2.425l-.912-1.305c-.642 1.492-1.616 2.238-2.963 2.238-1.264 0-2.487-.829-2.487-2.549v-3.503h5.077v-1.284h-5.077v-3.503l-1.679.518v2.985z"/><path d="m272.025 279.499c-.352 1.161-1.222 2.011-2.631 2.011-1.762 0-2.964-1.285-2.964-3.358 0-2.093 1.202-3.378 3.005-3.378 1.305 0 2.113.809 2.487 1.866l1.43-.83c-.601-1.409-1.886-2.445-3.938-2.445-2.84 0-4.787 1.99-4.787 4.787 0 2.819 1.947 4.767 4.725 4.767 2.259 0 3.585-1.223 4.104-2.715z"/><path d="m279.398 277.779c0-1.782 1.119-2.963 2.653-2.963 1.492 0 2.28.953 2.28 2.466v5.389h1.72v-5.616c0-2.115-1.016-3.69-3.399-3.69-1.595 0-2.839.954-3.254 2.093v-5.844h-1.72v13.057h1.72z"/><path d="m341.933 282.671v-5.908h5.223v-1.554h-5.223v-4.062h6.942v-1.533h-8.746v13.057z"/><path d="m356 271.458h2.342v-2.218h-2.342zm6.01 11.213v-1.327h-3.875v-7.73h-5.14v1.347h3.441v6.383h-3.856v1.327z"/><path d="m371.437 276.432c0 1.182-.975 1.948-2.177 1.948-1.201 0-2.175-.766-2.175-1.948 0-1.161.974-1.928 2.175-1.928 1.202 0 2.177.767 2.177 1.928zm3.357 6.818c0-1.45-1.243-2.424-3.316-2.424h-3.689c-.891 0-1.265-.312-1.265-.767 0-.476.333-.746.705-.932.581.249 1.265.372 2.031.372 2.28 0 3.918-1.18 3.918-3.067 0-.559-.146-1.057-.436-1.492.539-.539 1.658-.913 2.508-.747l-.186-1.512c-1.347-.187-2.466.684-2.985 1.533-.704-.538-1.678-.849-2.819-.849-2.3 0-3.937 1.202-3.937 3.067 0 .954.414 1.741 1.139 2.259-.828.332-1.408.912-1.408 1.7 0 .766.497 1.347 1.408 1.595-1.223.125-2.134.913-2.134 1.866 0 1.762 2.321 2.549 4.995 2.549 2.652 0 5.471-.891 5.471-3.151zm-8.808.374c0-.871.974-1.348 1.989-1.348h3.11c1.139 0 2.031.312 2.031 1.182 0 1.243-1.7 1.803-3.793 1.803-1.845 0-3.337-.498-3.337-1.637z"/><path d="m378.641 277.614c0-1.638.539-2.84 1.534-2.84 1.016 0 1.264.809 1.264 1.866v6.031h1.576v-5.057c0-1.638.559-2.84 1.534-2.84 1.015 0 1.264.809 1.264 1.866v6.031h1.574v-6.736c0-1.534-.808-2.57-2.072-2.57-1.243 0-2.072.954-2.363 2.072-.144-1.264-.891-2.072-2.01-2.072-1.285 0-2.031.995-2.301 2.134v-1.885h-1.575v9.057h1.575z"/><path d="m392.148 276.432c.29-.912 1.223-1.7 2.653-1.7 1.306 0 1.762.664 1.762 1.285v.767l-2.777.643c-2.115.477-3.544 1.181-3.544 2.819 0 1.596 1.202 2.611 2.88 2.611 1.659 0 3.006-.85 3.462-1.99.083 1.119 1.036 2.011 2.238 2.011.518 0 .995-.145 1.492-.498l-.103-1.285c-.269.249-.684.415-1.057.415-.477 0-.975-.29-.975-1.016v-4.414c0-1.824-1.285-2.715-3.336-2.715-2.134 0-3.606 1.077-4.228 2.508zm4.415 2.591c0 1.327-1.43 2.529-3.026 2.529-1.036 0-1.574-.623-1.574-1.431 0-.994.87-1.347 2.238-1.679l2.362-.559z"/><path d="m457.832 278.816 2.551-7.648h.121v11.503h1.718v-13.057h-2.649l-2.092 6.715h-.103l-2.265-6.715h-2.672v13.057h1.678v-11.503h.127l2.632 7.648z"/><path d="m474.863 278.152c0-2.818-2.115-4.787-4.833-4.787-2.695 0-4.809 1.969-4.809 4.787 0 2.798 2.114 4.767 4.809 4.767 2.718 0 4.833-1.969 4.833-4.767zm-7.838 0c0-2.051 1.161-3.42 3.005-3.42 1.868 0 3.029 1.369 3.029 3.42 0 2.031-1.161 3.4-3.029 3.4-1.844 0-3.005-1.369-3.005-3.4z"/><path d="m480.287 280.743c.454 1.243 1.592 2.176 3.276 2.176 2.712 0 4.31-2.113 4.31-4.767 0-2.674-1.598-4.787-4.293-4.787-1.701 0-2.798.995-3.252 2.218v-5.969h-1.719v13.056h1.265zm-.023-2.798c0-1.969 1.305-3.233 2.879-3.233 1.845 0 2.948 1.368 2.948 3.44 0 2.073-1.103 3.441-2.948 3.441-1.574 0-2.879-1.264-2.879-3.254z"/><path d="m494.601 271.458h2.338v-2.218h-2.338zm6.01 11.213v-1.327h-3.873v-7.73h-5.143v1.347h3.442v6.383h-3.855v1.327z"/><path d="m513.272 282.671v-1.306h-3.879v-11.751h-5.137v1.305h3.442v10.446h-3.856v1.306z"/><path d="m523.834 279.624c-.495 1.285-1.368 1.948-2.879 1.948-1.678 0-3.086-1.243-3.086-3.212h7.332v-.539c0-2.343-1.448-4.456-4.373-4.456-2.672 0-4.66 2.052-4.66 4.911 0 2.778 1.988 4.643 4.723 4.643 2.115 0 3.563-.912 4.27-2.507zm-5.908-2.384c.207-1.347 1.265-2.528 2.902-2.528 1.724 0 2.632 1.202 2.718 2.528z"/><path d="m597.204 271.665h-1.597l-1.908 8.643h-.103l-1.201-10.694h-1.782l1.678 13.057h2.138l1.902-8.685h.126l1.868 8.685h2.132l1.701-13.057h-1.678l-1.201 10.736h-.127z"/><path d="m612.097 279.624c-.494 1.285-1.367 1.948-2.879 1.948-1.678 0-3.085-1.243-3.085-3.212h7.332v-.539c0-2.343-1.448-4.456-4.373-4.456-2.672 0-4.66 2.052-4.66 4.911 0 2.778 1.988 4.643 4.723 4.643 2.115 0 3.563-.912 4.27-2.507zm-5.907-2.384c.207-1.347 1.264-2.528 2.902-2.528 1.724 0 2.632 1.202 2.718 2.528z"/><path d="m619.35 280.743c.454 1.243 1.592 2.176 3.275 2.176 2.713 0 4.31-2.113 4.31-4.767 0-2.674-1.597-4.787-4.293-4.787-1.7 0-2.798.995-3.252 2.218v-5.969h-1.718v13.056h1.264zm-.023-2.798c0-1.969 1.304-3.233 2.879-3.233 1.844 0 2.948 1.368 2.948 3.44 0 2.073-1.104 3.441-2.948 3.441-1.575 0-2.879-1.264-2.879-3.254z"/></g><path d="m366.547 57.1571h106.786v-28.1571h-106.786z" fill="#99195e"/><g fill="#fff"><path d="m375.877 44.7202c3.234 0 5.078-1.4716 5.078-3.9172 0-2.4451-1.844-3.9168-5.078-3.9168h-4.477v13.0569h1.804v-5.2229zm-2.673-1.513v-4.8079h2.632c2.238 0 3.336.7872 3.336 2.4037 0 1.617-1.098 2.4042-3.336 2.4042z"/><path d="m385.656 43.705c.29-.9126 1.223-1.6998 2.653-1.6998 1.306 0 1.762.6637 1.762 1.2849v.7665l-2.777.6431c-2.115.4769-3.544 1.1814-3.544 2.8185 0 1.5964 1.202 2.6118 2.88 2.6118 1.658 0 3.005-.8505 3.462-1.99.082 1.1188 1.036 2.0106 2.238 2.0106.518 0 .995-.1453 1.492-.4976l-.103-1.2849c-.269.2488-.684.4143-1.058.4143-.476 0-.974-.2901-.974-1.0159v-4.4138c0-1.8245-1.285-2.7151-3.336-2.7151-2.135 0-3.606 1.0774-4.229 2.5077zm4.415 2.5904c0 1.3268-1.43 2.529-3.026 2.529-1.036 0-1.575-.6223-1.575-1.4303 0-.9947.87-1.3475 2.239-1.6791l2.362-.5591z"/><path d="m401.94 42.1298c1.472 0 2.155.87 2.155 2.0721 0 .4356-.042.6844-.104.8494l1.596-.4552c.063-.166.083-.4355.083-.809 0-1.5952-1.119-3.1496-3.192-3.1496-1.989 0-3.191 1.409-3.627 2.8599v-2.6111h-1.72v9.0568h1.72v-3.8546c0-2.094 1.389-3.9587 3.089-3.9587z"/><path d="m408.254 41.3632v1.2849h2.943v3.6472c0 2.5703 1.824 3.8966 4.083 3.8966 1.845 0 3.44-1.1407 3.959-2.4255l-.913-1.305c-.642 1.4917-1.616 2.2382-2.963 2.2382-1.264 0-2.487-.8287-2.487-2.5491v-3.5024h5.078v-1.2849h-5.078v-3.503l-1.679.5183v2.9847z"/><path d="m424.127 45.0513c0-1.782 1.139-2.9629 2.673-2.9629 1.492 0 2.28.9528 2.28 2.4658v5.3889h1.721v-5.6159c0-2.1147-1.017-3.6897-3.42-3.6897-1.597 0-2.819.9539-3.254 2.0928v-1.844h-1.721v9.0568h1.721z"/><path d="m442.236 46.8964c-.497 1.2848-1.367 1.9486-2.88 1.9486-1.679 0-3.088-1.2436-3.088-3.2128h7.335v-.5385c0-2.3428-1.449-4.4563-4.372-4.4563-2.673 0-4.663 2.052-4.663 4.9114 0 2.7778 1.99 4.6431 4.726 4.6431 2.113 0 3.564-.9125 4.269-2.5077zm-5.906-2.3836c.207-1.347 1.264-2.5284 2.901-2.5284 1.72 0 2.632 1.2021 2.715 2.5284z"/><path d="m452.737 42.1298c1.472 0 2.155.87 2.155 2.0721 0 .4356-.04.6844-.103.8494l1.597-.4552c.064-.166.081-.4355.081-.809 0-1.5952-1.121-3.1496-3.189-3.1496-1.994 0-3.195 1.409-3.632 2.8599v-2.6111h-1.718v9.0568h1.718v-3.8546c0-2.094 1.391-3.9587 3.091-3.9587z"/><path d="m460.008 48.1198c.81 1.2843 2.672 2.0721 4.683 2.0721 2.299 0 4.023-1.0568 4.023-2.7565 0-1.451-1.098-2.1768-2.489-2.4664l-2.528-.5597c-.994-.2281-1.471-.5591-1.471-1.2228 0-.7459.914-1.2021 2.074-1.2021 1.282 0 2.402.5384 2.919 1.4716l1.161-.9533c-.747-1.1602-2.178-1.8653-4.08-1.8653-2.097 0-3.712 1.0775-3.712 2.6732 0 1.5343 1.184 2.2176 2.735 2.5497l2.219.4769c.971.2063 1.511.5385 1.511 1.2223 0 .9119-.954 1.3061-2.379 1.3061-1.454 0-2.948-.6637-3.609-1.8865z"/></g><g stroke="#000" stroke-width="2"><path d="m289.598 262.24c57.884-25.806 99.562-70.229 125.032-133.271"/><path d="m376.623 262.24c20.733-43.374 34.538-87.798 41.415-133.272"/><path d="m477.466 262.241c-28.565-36.581-47.072-81.005-55.519-133.273"/><path d="m587.331 271.485c-78.53-20.446-132.597-67.951-162.202-142.516"/><path d="m419.939 100.81v-43.6529"/></g></svg>