<svg fill="none" height="460" viewBox="0 0 840 460" width="840" xmlns="http://www.w3.org/2000/svg"><path d="m259.029 409.936h81.382v-28.158h-81.382z" fill="#ff644e"/><g fill="#fff"><path d="m268.196 398.486 2.55-7.648h.124v11.503h1.72v-13.057h-2.653l-2.093 6.715h-.104l-2.259-6.715h-2.673v13.057h1.679v-11.503h.123l2.633 7.648z"/><path d="m285.228 397.822c0-2.818-2.115-4.787-4.83-4.787-2.694 0-4.808 1.969-4.808 4.787 0 2.798 2.114 4.767 4.808 4.767 2.715 0 4.83-1.969 4.83-4.767zm-7.836 0c0-2.051 1.162-3.419 3.006-3.419 1.866 0 3.026 1.368 3.026 3.419 0 2.032-1.16 3.4-3.026 3.4-1.844 0-3.006-1.368-3.006-3.4z"/><path d="m290.652 400.413c.455 1.243 1.596 2.176 3.275 2.176 2.715 0 4.31-2.113 4.31-4.767 0-2.673-1.595-4.787-4.29-4.787-1.7 0-2.798.995-3.254 2.218v-5.969h-1.72v13.057h1.264zm-.021-2.798c0-1.969 1.306-3.233 2.881-3.233 1.844 0 2.943 1.368 2.943 3.44 0 2.073-1.099 3.441-2.943 3.441-1.575 0-2.881-1.264-2.881-3.254z"/><path d="m304.968 391.128h2.342v-2.218h-2.342zm6.01 11.213v-1.327h-3.875v-7.73h-5.14v1.347h3.441v6.383h-3.856v1.327z"/><path d="m323.636 402.341v-1.306h-3.875v-11.751h-5.14v1.305h3.441v10.446h-3.856v1.306z"/><path d="m334.201 399.294c-.497 1.285-1.367 1.949-2.881 1.949-1.679 0-3.087-1.244-3.087-3.213h7.336v-.539c0-2.342-1.451-4.456-4.373-4.456-2.673 0-4.663 2.052-4.663 4.911 0 2.778 1.99 4.643 4.725 4.643 2.114 0 3.565-.912 4.27-2.507zm-5.907-2.384c.208-1.347 1.265-2.528 2.902-2.528 1.72 0 2.632 1.202 2.715 2.528z"/></g><path d="m697.244 166.303c.868 1.866 3.046 2.984 5.43 2.984 2.69 0 4.764-1.409 4.764-3.792 0-2.239-1.471-3.13-3.379-3.586l-2.298-.539c-1.351-.311-2.218-.726-2.218-1.947 0-1.41 1.057-2.198 2.655-2.198 1.741 0 3.045.974 3.643 2.342l1.16-1.264c-.804-1.472-2.465-2.57-4.803-2.57-2.575 0-4.356 1.554-4.356 3.772 0 2.052 1.408 3.026 3.132 3.42l2.591.621c1.385.332 2.195.808 2.195 1.99 0 1.513-1.327 2.259-3.086 2.259-1.787 0-3.528-.974-4.332-2.86z" fill="#000"/><path d="m788.029 409.935h43.277v-28.157h-43.277z" fill="#ff644e"/><g fill="#fff"><path d="m797.746 391.335h-1.597l-1.908 8.643h-.103l-1.201-10.694h-1.782l1.678 13.057h2.138l1.902-8.685h.126l1.868 8.685h2.132l1.701-13.057h-1.678l-1.201 10.736h-.127z"/><path d="m812.641 399.294c-.494 1.285-1.367 1.949-2.879 1.949-1.678 0-3.085-1.244-3.085-3.213h7.332v-.539c0-2.342-1.448-4.456-4.373-4.456-2.672 0-4.66 2.052-4.66 4.911 0 2.778 1.988 4.643 4.723 4.643 2.115 0 3.563-.912 4.27-2.507zm-5.907-2.384c.207-1.347 1.264-2.528 2.902-2.528 1.724 0 2.632 1.202 2.718 2.528z"/><path d="m819.893 400.413c.454 1.243 1.591 2.176 3.275 2.176 2.712 0 4.31-2.113 4.31-4.767 0-2.673-1.598-4.787-4.293-4.787-1.7 0-2.798.995-3.252 2.218v-5.969h-1.718v13.057h1.264zm-.023-2.798c0-1.969 1.304-3.233 2.879-3.233 1.844 0 2.948 1.368 2.948 3.44 0 2.073-1.104 3.441-2.948 3.441-1.575 0-2.879-1.264-2.879-3.254z"/></g><g fill="#000"><path d="m101.48 169.039h3.441c4.021 0 6.591-2.446 6.591-6.529s-2.57-6.528-6.591-6.528h-3.441zm1.825-1.493v-10.072h1.408c3.192 0 4.913 1.865 4.913 5.036 0 3.172-1.721 5.036-4.913 5.036z"/><path d="m121.932 165.992c-.498 1.285-1.368 1.949-2.881 1.949-1.679 0-3.088-1.244-3.088-3.213h7.337v-.539c0-2.342-1.451-4.456-4.374-4.456-2.673 0-4.662 2.052-4.662 4.911 0 2.778 1.989 4.643 4.725 4.643 2.113 0 3.564-.912 4.269-2.507zm-5.907-2.384c.207-1.347 1.264-2.528 2.901-2.528 1.721 0 2.633 1.202 2.715 2.528z"/><path d="m127.004 167.215c.808 1.285 2.674 2.072 4.684 2.072 2.3 0 4.02-1.056 4.02-2.756 0-1.451-1.098-2.177-2.487-2.466l-2.528-.56c-.995-.228-1.472-.559-1.472-1.223 0-.746.912-1.202 2.073-1.202 1.284 0 2.404.538 2.922 1.472l1.16-.954c-.746-1.16-2.175-1.865-4.082-1.865-2.093 0-3.71 1.077-3.71 2.673 0 1.534 1.181 2.218 2.736 2.55l2.217.477c.975.206 1.513.538 1.513 1.222 0 .912-.953 1.306-2.383 1.306-1.451 0-2.943-.663-3.606-1.886z"/><path d="m143.495 157.826h2.342v-2.218h-2.342zm6.011 11.213v-1.327h-3.876v-7.73h-5.14v1.347h3.441v6.383h-3.856v1.327z"/><path d="m158.931 162.8c0 1.182-.975 1.948-2.177 1.948-1.201 0-2.175-.766-2.175-1.948 0-1.161.974-1.927 2.175-1.927 1.202 0 2.177.766 2.177 1.927zm3.357 6.818c0-1.449-1.243-2.423-3.316-2.423h-3.689c-.891 0-1.264-.312-1.264-.768 0-.476.332-.745.705-.932.581.249 1.264.372 2.03.372 2.28 0 3.918-1.18 3.918-3.067 0-.559-.146-1.056-.435-1.492.538-.539 1.657-.912 2.507-.746l-.186-1.513c-1.347-.187-2.466.684-2.984 1.533-.705-.538-1.679-.849-2.82-.849-2.3 0-3.936 1.202-3.936 3.067 0 .954.413 1.741 1.138 2.259-.828.332-1.408.912-1.408 1.7 0 .767.497 1.347 1.408 1.595-1.222.126-2.134.913-2.134 1.866 0 1.762 2.321 2.549 4.996 2.549 2.651 0 5.47-.891 5.47-3.151zm-8.808.374c0-.871.974-1.348 1.989-1.348h3.11c1.139 0 2.031.312 2.031 1.182 0 1.243-1.7 1.803-3.792 1.803-1.846 0-3.338-.498-3.338-1.637"/><path d="m167.32 164.147c0-1.782 1.14-2.963 2.674-2.963 1.492 0 2.279.953 2.279 2.466v5.389h1.721v-5.616c0-2.115-1.017-3.69-3.42-3.69-1.597 0-2.818.954-3.254 2.093v-1.844h-1.72v9.057h1.72z"/><path d="m189.838 166.303c.871 1.866 3.047 2.984 5.43 2.984 2.695 0 4.767-1.409 4.767-3.792 0-2.239-1.472-3.13-3.378-3.586l-2.301-.539c-1.347-.311-2.217-.726-2.217-1.947 0-1.41 1.057-2.198 2.652-2.198 1.741 0 3.047.974 3.649 2.342l1.16-1.264c-.809-1.472-2.467-2.57-4.809-2.57-2.57 0-4.351 1.554-4.351 3.772 0 2.052 1.408 3.026 3.128 3.42l2.592.621c1.388.332 2.196.808 2.196 1.99 0 1.513-1.326 2.259-3.088 2.259-1.782 0-3.523-.974-4.331-2.86z"/><path d="m206.89 169.847c-.435 1.015-.974 1.533-1.679 1.533-.766 0-1.14-.58-1.14-1.492l-1.409.767c.166 1.182 1.036 2.114 2.487 2.114 1.762 0 2.736-1.389 3.482-3.13l4.062-9.657h-1.679l-2.88 7.047h-.084l-3.211-7.047h-1.907l4.311 9.036z"/><path d="m215.9 167.215c.808 1.285 2.674 2.072 4.684 2.072 2.301 0 4.021-1.056 4.021-2.756 0-1.451-1.099-2.177-2.487-2.466l-2.528-.56c-.995-.228-1.472-.559-1.472-1.223 0-.746.911-1.202 2.072-1.202 1.285 0 2.405.538 2.923 1.472l1.16-.954c-.746-1.16-2.176-1.865-4.083-1.865-2.093 0-3.71 1.077-3.71 2.673 0 1.534 1.182 2.218 2.736 2.55l2.218.477c.974.206 1.513.538 1.513 1.222 0 .912-.954 1.306-2.383 1.306-1.451 0-2.944-.663-3.607-1.886z"/><path d="m227.646 160.459v1.285h2.943v3.647c0 2.57 1.824 3.896 4.083 3.896 1.845 0 3.44-1.14 3.958-2.425l-.912-1.305c-.642 1.492-1.616 2.238-2.963 2.238-1.264 0-2.487-.828-2.487-2.549v-3.502h5.077v-1.285h-5.077v-3.503l-1.679.518v2.985z"/><path d="m248.926 165.992c-.498 1.285-1.368 1.949-2.881 1.949-1.679 0-3.087-1.244-3.087-3.213h7.336v-.539c0-2.342-1.451-4.456-4.374-4.456-2.673 0-4.662 2.052-4.662 4.911 0 2.778 1.989 4.643 4.725 4.643 2.114 0 3.564-.912 4.27-2.507zm-5.907-2.384c.208-1.347 1.264-2.528 2.901-2.528 1.721 0 2.633 1.202 2.716 2.528z"/><path d="m255.034 163.982c0-1.638.538-2.84 1.534-2.84 1.015 0 1.264.809 1.264 1.866v6.031h1.576v-5.057c0-1.638.559-2.84 1.533-2.84 1.016 0 1.265.809 1.265 1.866v6.031h1.574v-6.736c0-1.534-.808-2.57-2.072-2.57-1.244 0-2.072.954-2.364 2.072-.144-1.264-.89-2.072-2.01-2.072-1.285 0-2.03.995-2.3 2.134v-1.885h-1.575v9.057h1.575z"/><path d="m9 399.605c.87115 1.866 3.0467 2.984 5.4303 2.984 2.6945 0 4.7666-1.409 4.7666-3.792 0-2.239-1.4716-3.13-3.3777-3.586l-2.3008-.539c-1.347-.311-2.217-.726-2.217-1.947 0-1.41 1.0568-2.198 2.652-2.198 1.7411 0 3.0467.974 3.6483 2.342l1.1602-1.264c-.8085-1.472-2.4669-2.57-4.8085-2.57-2.5698 0-4.35176 1.554-4.35176 3.772 0 2.052 1.40846 3.026 3.12886 3.42l2.5916.621c1.3878.332 2.1957.808 2.1957 1.99 0 1.513-1.3257 2.259-3.0875 2.259-1.7825 0-3.5231-.974-4.331-2.86z"/><path d="m24.5808 399.335 1.844-1.492 3.9179 4.498h2.0928l-4.7465-5.472 4.5391-3.585h-2.2382l-5.4091 4.393v-8.393h-1.7204v13.057h1.7204z"/><path d="m42.6884 399.294c-.4976 1.285-1.3676 1.949-2.8806 1.949-1.6791 0-3.0875-1.244-3.0875-3.213h7.3363v-.539c0-2.342-1.4509-4.456-4.3735-4.456-2.6732 0-4.6626 2.052-4.6626 4.911 0 2.778 1.9894 4.643 4.7252 4.643 2.1135 0 3.5645-.912 4.2696-2.507zm-5.9066-2.384c.2074-1.347 1.2642-2.528 2.9013-2.528 1.7205 0 2.6324 1.202 2.7151 2.528z"/><path d="m46.8076 393.761v1.285h2.9433v3.647c0 2.57 1.8239 3.896 4.0828 3.896 1.8451 0 3.4403-1.14 3.9587-2.425l-.9126-1.305c-.6418 1.492-1.6159 2.238-2.9628 2.238-1.2642 0-2.487-.828-2.487-2.549v-3.502h5.0775v-1.285h-5.0775v-3.503l-1.6791.518v2.985z"/><path d="m68.0254 399.169c-.3523 1.162-1.2228 2.011-2.6318 2.011-1.7619 0-2.964-1.285-2.964-3.358 0-2.093 1.2021-3.378 3.0053-3.378 1.3056 0 2.1135.809 2.487 1.866l1.4303-.829c-.6016-1.41-1.8865-2.446-3.938-2.446-2.8398 0-4.7872 1.99-4.7872 4.787 0 2.819 1.9474 4.767 4.7252 4.767 2.2589 0 3.5851-1.222 4.1035-2.715z"/><path d="m75.3982 397.449c0-1.782 1.1188-2.963 2.6531-2.963 1.4917 0 2.2796.953 2.2796 2.466v5.389h1.7204v-5.616c0-2.115-1.0165-3.69-3.399-3.69-1.5957 0-2.8392.954-3.2541 2.093v-5.844h-1.7205v13.057h1.7205z"/><path d="m155.172 402.341v-5.908h5.223v-1.553h-5.223v-4.063h6.942v-1.533h-8.746v13.057z"/><path d="m169.24 391.128h2.341v-2.218h-2.341zm6.01 11.213v-1.327h-3.876v-7.73h-5.14v1.347h3.441v6.383h-3.856v1.327z"/><path d="m184.675 396.102c0 1.182-.974 1.948-2.177 1.948-1.201 0-2.175-.766-2.175-1.948 0-1.161.974-1.928 2.175-1.928 1.203 0 2.177.767 2.177 1.928zm3.357 6.818c0-1.449-1.243-2.423-3.315-2.423h-3.69c-.891 0-1.264-.312-1.264-.768 0-.476.332-.745.705-.932.581.249 1.264.372 2.03.372 2.28 0 3.918-1.18 3.918-3.067 0-.559-.146-1.056-.435-1.492.538-.539 1.658-.912 2.507-.746l-.186-1.513c-1.347-.187-2.466.684-2.984 1.533-.705-.538-1.679-.849-2.82-.849-2.3 0-3.936 1.202-3.936 3.067 0 .954.413 1.741 1.139 2.259-.829.332-1.409.912-1.409 1.7 0 .767.497 1.347 1.409 1.595-1.223.126-2.135.913-2.135 1.866 0 1.762 2.321 2.549 4.996 2.549 2.652 0 5.47-.891 5.47-3.151zm-8.808.374c0-.871.974-1.348 1.99-1.348h3.109c1.139 0 2.031.312 2.031 1.182 0 1.243-1.699 1.803-3.792 1.803-1.845 0-3.338-.498-3.338-1.637"/><path d="m191.882 397.284c0-1.638.538-2.84 1.533-2.84 1.016 0 1.265.809 1.265 1.866v6.031h1.575v-5.057c0-1.638.559-2.84 1.534-2.84 1.015 0 1.264.809 1.264 1.866v6.031h1.575v-6.736c0-1.534-.808-2.57-2.072-2.57-1.244 0-2.073.954-2.364 2.072-.144-1.264-.891-2.072-2.01-2.072-1.285 0-2.031.995-2.3 2.134v-1.885h-1.575v9.057h1.575z"/><path d="m205.389 396.102c.291-.912 1.223-1.699 2.654-1.699 1.305 0 1.761.663 1.761 1.285v.766l-2.777.643c-2.114.477-3.544 1.182-3.544 2.819 0 1.596 1.203 2.611 2.88 2.611 1.659 0 3.006-.85 3.462-1.99.083 1.119 1.036 2.011 2.238 2.011.519 0 .995-.145 1.493-.498l-.104-1.284c-.269.248-.684.414-1.057.414-.477 0-.975-.29-.975-1.016v-4.414c0-1.824-1.285-2.715-3.336-2.715-2.134 0-3.606 1.077-4.228 2.508zm4.415 2.591c0 1.327-1.43 2.529-3.026 2.529-1.036 0-1.574-.623-1.574-1.43 0-.995.87-1.348 2.238-1.68l2.362-.559z"/><path d="m608.882 169.039h3.442c4.022 0 6.591-2.446 6.591-6.529s-2.569-6.528-6.591-6.528h-3.442zm1.827-1.493v-10.072h1.408c3.189 0 4.913 1.865 4.913 5.036 0 3.172-1.724 5.036-4.913 5.036z"/><path d="m629.333 165.992c-.495 1.285-1.368 1.949-2.879 1.949-1.678 0-3.086-1.244-3.086-3.213h7.332v-.539c0-2.342-1.448-4.456-4.373-4.456-2.672 0-4.66 2.052-4.66 4.911 0 2.778 1.988 4.643 4.724 4.643 2.114 0 3.562-.912 4.269-2.507zm-5.908-2.384c.207-1.347 1.265-2.528 2.902-2.528 1.724 0 2.632 1.202 2.718 2.528z"/><path d="m634.407 167.215c.81 1.285 2.672 2.072 4.684 2.072 2.298 0 4.022-1.056 4.022-2.756 0-1.451-1.098-2.177-2.488-2.466l-2.529-.56c-.994-.228-1.471-.559-1.471-1.223 0-.746.914-1.202 2.075-1.202 1.281 0 2.402.538 2.919 1.472l1.161-.954c-.747-1.16-2.178-1.865-4.08-1.865-2.098 0-3.712 1.077-3.712 2.673 0 1.534 1.183 2.218 2.735 2.55l2.218.477c.971.206 1.511.538 1.511 1.222 0 .912-.954 1.306-2.379 1.306-1.454 0-2.948-.663-3.608-1.886z"/><path d="m650.899 157.826h2.338v-2.218h-2.338zm6.01 11.213v-1.327h-3.873v-7.73h-5.143v1.347h3.442v6.383h-3.856v1.327z"/><path d="m666.334 162.801c0 1.181-.971 1.948-2.178 1.948-1.201 0-2.172-.767-2.172-1.948 0-1.162.971-1.928 2.172-1.928 1.207 0 2.178.766 2.178 1.928zm3.356 6.818c0-1.45-1.242-2.424-3.316-2.424h-3.689c-.891 0-1.264-.312-1.264-.767 0-.477.333-.746.706-.933.581.249 1.265.372 2.029.372 2.281 0 3.919-1.18 3.919-3.066 0-.56-.144-1.057-.437-1.493.54-.539 1.661-.912 2.511-.746l-.189-1.513c-1.345-.186-2.465.684-2.983 1.533-.706-.538-1.678-.849-2.821-.849-2.299 0-3.936 1.202-3.936 3.068 0 .953.413 1.74 1.137 2.258-.827.332-1.407.912-1.407 1.7 0 .767.5 1.347 1.407 1.595-1.218.126-2.131.913-2.131 1.866 0 1.762 2.321 2.549 4.993 2.549 2.655 0 5.471-.891 5.471-3.15zm-8.809.373c0-.871.976-1.347 1.994-1.347h3.108c1.138 0 2.029.311 2.029 1.181 0 1.244-1.701 1.803-3.793 1.803-1.844 0-3.338-.497-3.338-1.637"/><path d="m674.724 164.147c0-1.782 1.138-2.963 2.672-2.963 1.494 0 2.281.953 2.281 2.466v5.389h1.719v-5.616c0-2.115-1.018-3.69-3.42-3.69-1.597 0-2.815.954-3.252 2.093v-1.844h-1.718v9.057h1.718z"/><path d="m714.294 169.847c-.437 1.015-.977 1.533-1.678 1.533-.77 0-1.144-.579-1.144-1.492l-1.408.767c.167 1.182 1.041 2.114 2.489 2.114 1.764 0 2.735-1.389 3.482-3.13l4.063-9.657h-1.678l-2.885 7.047h-.08l-3.213-7.047h-1.908l4.31 9.036z"/><path d="m723.303 167.215c.81 1.285 2.672 2.072 4.683 2.072 2.299 0 4.022-1.056 4.022-2.756 0-1.451-1.097-2.177-2.488-2.466l-2.528-.56c-.994-.228-1.471-.559-1.471-1.223 0-.746.914-1.202 2.074-1.202 1.282 0 2.402.538 2.919 1.472l1.161-.954c-.747-1.16-2.178-1.865-4.08-1.865-2.097 0-3.712 1.077-3.712 2.673 0 1.534 1.184 2.218 2.735 2.55l2.218.477c.972.206 1.512.538 1.512 1.222 0 .912-.954 1.306-2.379 1.306-1.454 0-2.948-.663-3.609-1.886z"/><path d="m735.049 160.459v1.285h2.942v3.647c0 2.57 1.827 3.896 4.086 3.896 1.844 0 3.436-1.14 3.959-2.425l-.914-1.305c-.643 1.492-1.615 2.238-2.965 2.238-1.264 0-2.488-.828-2.488-2.549v-3.502h5.08v-1.285h-5.08v-3.503l-1.678.518v2.985z"/><path d="m756.327 165.992c-.494 1.285-1.368 1.949-2.879 1.949-1.678 0-3.086-1.244-3.086-3.213h7.332v-.539c0-2.342-1.448-4.456-4.373-4.456-2.672 0-4.66 2.052-4.66 4.911 0 2.778 1.988 4.643 4.724 4.643 2.114 0 3.562-.912 4.269-2.507zm-5.907-2.384c.206-1.347 1.264-2.528 2.901-2.528 1.724 0 2.632 1.202 2.718 2.528z"/><path d="m762.437 163.982c0-1.638.54-2.84 1.534-2.84 1.017 0 1.264.809 1.264 1.866v6.031h1.575v-5.057c0-1.638.563-2.84 1.534-2.84 1.017 0 1.264.809 1.264 1.866v6.031h1.575v-6.736c0-1.534-.805-2.57-2.069-2.57-1.247 0-2.074.954-2.367 2.072-.144-1.264-.891-2.072-2.006-2.072-1.287 0-2.034.995-2.304 2.134v-1.885h-1.575v9.057h1.575z"/><path d="m533.07 399.605c.868 1.866 3.046 2.984 5.431 2.984 2.689 0 4.763-1.409 4.763-3.792 0-2.239-1.471-3.13-3.378-3.587l-2.299-.538c-1.35-.311-2.218-.726-2.218-1.947 0-1.411 1.057-2.198 2.655-2.198 1.741 0 3.045.974 3.643 2.342l1.161-1.264c-.805-1.472-2.466-2.57-4.804-2.57-2.575 0-4.356 1.554-4.356 3.772 0 2.052 1.408 3.026 3.132 3.42l2.591.621c1.385.332 2.195.808 2.195 1.99 0 1.513-1.327 2.259-3.085 2.259-1.787 0-3.529-.974-4.333-2.86z"/><path d="m548.649 399.335 1.844-1.492 3.919 4.497h2.092l-4.746-5.471 4.539-3.585h-2.241l-5.407 4.393v-8.393h-1.718v13.056h1.718z"/><path d="m566.755 399.294c-.495 1.285-1.368 1.948-2.879 1.948-1.678 0-3.086-1.243-3.086-3.212h7.332v-.539c0-2.343-1.448-4.456-4.373-4.456-2.672 0-4.66 2.052-4.66 4.911 0 2.778 1.988 4.643 4.723 4.643 2.115 0 3.563-.912 4.27-2.507zm-5.908-2.384c.207-1.347 1.264-2.528 2.902-2.528 1.724 0 2.632 1.202 2.718 2.528z"/><path d="m570.875 393.761v1.285h2.942v3.647c0 2.57 1.827 3.896 4.086 3.896 1.844 0 3.436-1.14 3.959-2.425l-.914-1.305c-.643 1.492-1.614 2.238-2.965 2.238-1.264 0-2.488-.829-2.488-2.549v-3.502h5.08v-1.285h-5.08v-3.503l-1.678.518v2.985z"/><path d="m592.091 399.169c-.351 1.161-1.218 2.011-2.632 2.011-1.758 0-2.959-1.285-2.959-3.358 0-2.093 1.201-3.378 3.005-3.378 1.304 0 2.109.809 2.482 1.866l1.431-.829c-.597-1.41-1.885-2.446-3.936-2.446-2.839 0-4.787 1.99-4.787 4.787 0 2.819 1.948 4.767 4.724 4.767 2.258 0 3.586-1.222 4.103-2.715z"/><path d="m599.469 397.449c0-1.782 1.115-2.963 2.649-2.963 1.494 0 2.281.953 2.281 2.466v5.388h1.719v-5.615c0-2.115-1.018-3.69-3.397-3.69-1.597 0-2.838.954-3.252 2.093v-5.844h-1.724v13.056h1.724z"/><path d="m662.576 402.34v-5.907h5.223v-1.554h-5.223v-4.062h6.941v-1.533h-8.746v13.056z"/><path d="m676.643 391.128h2.338v-2.218h-2.338zm6.01 11.212v-1.326h-3.873v-7.73h-5.143v1.347h3.442v6.383h-3.855v1.326z"/><path d="m692.077 396.102c0 1.182-.971 1.948-2.178 1.948-1.201 0-2.172-.766-2.172-1.948 0-1.161.971-1.928 2.172-1.928 1.207 0 2.178.767 2.178 1.928zm3.356 6.818c0-1.449-1.241-2.423-3.316-2.423h-3.689c-.891 0-1.264-.313-1.264-.768 0-.476.333-.745.707-.932.58.249 1.264.372 2.028.372 2.281 0 3.919-1.18 3.919-3.067 0-.559-.144-1.056-.437-1.492.541-.539 1.661-.913 2.512-.747l-.19-1.512c-1.345-.187-2.465.684-2.982 1.533-.707-.538-1.678-.849-2.822-.849-2.298 0-3.936 1.202-3.936 3.067 0 .954.414 1.741 1.138 2.259-.828.332-1.408.912-1.408 1.7 0 .767.5 1.347 1.408 1.595-1.219.125-2.132.913-2.132 1.866 0 1.762 2.321 2.549 4.993 2.549 2.655 0 5.471-.891 5.471-3.151zm-8.809.374c0-.871.977-1.348 1.994-1.348h3.108c1.138 0 2.029.312 2.029 1.182 0 1.243-1.701 1.803-3.793 1.803-1.844 0-3.338-.498-3.338-1.637"/><path d="m699.283 397.284c0-1.638.541-2.84 1.535-2.84 1.017 0 1.264.809 1.264 1.866v6.03h1.574v-5.056c0-1.638.564-2.84 1.535-2.84 1.017 0 1.264.809 1.264 1.866v6.03h1.574v-6.735c0-1.534-.804-2.57-2.068-2.57-1.247 0-2.075.954-2.368 2.072-.143-1.264-.89-2.072-2.005-2.072-1.287 0-2.034.994-2.305 2.134v-1.885h-1.574v9.056h1.574z"/><path d="m712.793 396.102c.287-.912 1.223-1.699 2.654-1.699 1.305 0 1.759.663 1.759 1.284v.767l-2.776.643c-2.114.477-3.545 1.181-3.545 2.819 0 1.596 1.201 2.611 2.879 2.611 1.66 0 3.005-.85 3.465-1.99.08 1.119 1.034 2.011 2.235 2.011.517 0 .994-.145 1.494-.498l-.103-1.285c-.27.249-.684.415-1.058.415-.477 0-.977-.29-.977-1.016v-4.414c0-1.824-1.281-2.715-3.332-2.715-2.138 0-3.609 1.077-4.23 2.508zm4.413 2.591c0 1.327-1.431 2.529-3.023 2.529-1.04 0-1.574-.623-1.574-1.431 0-.994.867-1.347 2.235-1.679l2.362-.559z"/><path d="m359.7 56.5285c1.513-.2281 2.798-1.2848 2.798-2.7979 0-2.0727-1.328-3.4817-4.539-3.4817h-4.622v13.0569h4.85c3.047 0 4.683-1.3263 4.683-3.5851 0-1.8659-1.471-2.9434-3.17-3.1922zm-4.602-4.7873h2.943c1.865 0 2.674.8287 2.674 2.0929s-.809 2.0514-2.674 2.0514h-2.943zm3.047 5.5338c1.948 0 2.964.8493 2.964 2.3003 0 1.4095-1.016 2.2175-2.964 2.2175h-3.047v-4.5178z"/><path d="m371.424 55.4925c1.472 0 2.155.87 2.155 2.0721 0 .4356-.041.6844-.103.8493l1.596-.4551c.062-.1661.083-.4356.083-.8091 0-1.5952-1.12-3.1496-3.192-3.1496-1.99 0-3.192 1.4091-3.627 2.86v-2.6112h-1.721v9.0569h1.721v-3.8547c0-2.0939 1.389-3.9586 3.088-3.9586"/><path d="m380.538 57.0675c.29-.9125 1.223-1.6998 2.653-1.6998 1.306 0 1.762.6637 1.762 1.2849v.7665l-2.777.6431c-2.115.4769-3.544 1.1814-3.544 2.8185 0 1.5964 1.202 2.6118 2.88 2.6118 1.658 0 3.005-.8505 3.462-1.99.082 1.1188 1.036 2.0107 2.238 2.0107.518 0 .994-.1454 1.492-.4977l-.103-1.2849c-.269.2489-.684.4143-1.058.4143-.477 0-.974-.2901-.974-1.0159v-4.4138c0-1.8245-1.285-2.7152-3.337-2.7152-2.134 0-3.605 1.0775-4.228 2.5078zm4.415 2.5904c0 1.3268-1.43 2.529-3.026 2.529-1.036 0-1.575-.6223-1.575-1.4303 0-.9947.87-1.3475 2.239-1.6791l2.362-.559z"/><path d="m393.611 58.4139c0-1.7819 1.14-2.9628 2.674-2.9628 1.492 0 2.279.9527 2.279 2.4657v5.389h1.721v-5.616c0-2.1146-1.017-3.6897-3.42-3.6897-1.597 0-2.818.954-3.254 2.0929v-1.8441h-1.72v9.0569h1.72z"/><path d="m411.18 58.9741c0 1.99-1.306 3.2542-2.88 3.2542-1.845 0-2.943-1.3682-2.943-3.4409 0-2.0721 1.098-3.4404 2.943-3.4404 1.574 0 2.88 1.2642 2.88 3.2335zm-.062 4.3316h1.72v-13.0568h-1.72v5.9693c-.456-1.2234-1.554-2.2181-3.254-2.2181-2.694 0-4.29 2.1135-4.29 4.7873 0 2.6537 1.596 4.7672 4.29 4.7672 1.7 0 2.798-.9746 3.254-2.1975z"/><path d="m428.828 60.5699c.871 1.8658 3.047 2.9847 5.43 2.9847 2.695 0 4.767-1.4096 4.767-3.7926 0-2.2388-1.472-3.1301-3.378-3.5863l-2.301-.5385c-1.346-.3109-2.216-.7257-2.216-1.9474 0-1.4102 1.056-2.1974 2.651-2.1974 1.742 0 3.047.974 3.649 2.3416l1.16-1.2642c-.808-1.4716-2.467-2.5697-4.809-2.5697-2.569 0-4.351 1.5543-4.351 3.7719 0 2.052 1.408 3.026 3.129 3.4202l2.591.6212c1.388.3315 2.196.8079 2.196 1.9899 0 1.5125-1.326 2.259-3.088 2.259-1.782 0-3.523-.9741-4.331-2.86z"/><path d="m445.881 64.1138c-.435 1.0153-.973 1.5337-1.679 1.5337-.766 0-1.14-.5798-1.14-1.4923l-1.409.7665c.166 1.1821 1.036 2.1147 2.487 2.1147 1.762 0 2.736-1.3889 3.483-3.13l4.062-9.6574h-1.679l-2.881 7.0467h-.083l-3.212-7.0467h-1.907l4.311 9.0361z"/><path d="m454.892 61.4824c.81 1.2843 2.672 2.0722 4.683 2.0722 2.298 0 4.022-1.0568 4.022-2.7565 0-1.451-1.097-2.1768-2.488-2.4664l-2.528-.5597c-.994-.2281-1.471-.5591-1.471-1.2228 0-.7459.913-1.2022 2.074-1.2022 1.282 0 2.402.5385 2.919 1.4717l1.161-.9534c-.747-1.1602-2.178-1.8652-4.08-1.8652-2.097 0-3.712 1.0774-3.712 2.6732 0 1.5343 1.184 2.2175 2.735 2.5497l2.218.4769c.971.2063 1.512.5384 1.512 1.2222 0 .912-.954 1.3062-2.379 1.3062-1.454 0-2.948-.6637-3.609-1.8865z"/><path d="m466.637 54.7259v1.2848h2.942v3.6472c0 2.5704 1.827 3.8967 4.085 3.8967 1.845 0 3.437-1.1407 3.96-2.4256l-.914-1.305c-.644 1.4918-1.615 2.2383-2.965 2.2383-1.264 0-2.488-.8287-2.488-2.5491v-3.5025h5.08v-1.2848h-5.08v-3.503l-1.678.5183v2.9847z"/><path d="m487.916 60.2591c-.495 1.2848-1.368 1.9485-2.879 1.9485-1.678 0-3.086-1.2435-3.086-3.2127h7.332v-.5385c0-2.3428-1.448-4.4563-4.373-4.4563-2.672 0-4.66 2.052-4.66 4.9114 0 2.7778 1.988 4.6431 4.724 4.6431 2.114 0 3.562-.9125 4.269-2.5077zm-5.908-2.3837c.207-1.3469 1.265-2.5284 2.902-2.5284 1.724 0 2.632 1.2022 2.718 2.5284z"/><path d="m494.024 58.249c0-1.6377.54-2.8398 1.534-2.8398 1.017 0 1.264.809 1.264 1.8658v6.0308h1.575v-5.0568c0-1.6377.563-2.8398 1.534-2.8398 1.017 0 1.264.809 1.264 1.8658v6.0308h1.575v-6.7359c0-1.5337-.805-2.5698-2.069-2.5698-1.247 0-2.074.9539-2.368 2.0722-.143-1.2642-.89-2.0722-2.005-2.0722-1.287 0-2.034.9947-2.304 2.1342v-1.8854h-1.575v9.0569h1.575z"/></g><g stroke="#000" stroke-width="2"><path d="m65.2246 381.78c64.5004-51.381 102.9994-119.742 115.4984-205.084"/><path d="m182.533 381.778v-205.082"/><path d="m284.725 381.78c-53.54-53.328-86.928-121.689-100.167-205.084"/><path d="m583.885 381.779c49.166-53.737 83.494-122.097 102.98-205.083"/><path d="m689.997 381.778v-205.082"/><path d="m796.684 381.778c-50.189-56.806-84.707-125.167-103.555-205.082"/><g stroke-dasharray="12 12"><path d="m676.827 148.539c-38.845-37.923-95.533-64.6755-170.052-80.2585"/><path d="m192.813 148.539c31.165-37.904 83.288-64.645 156.371-80.2223"/></g></g></svg>