<svg fill="none" height="429" viewBox="0 0 840 429" width="840" xmlns="http://www.w3.org/2000/svg"><path d="m401.599 388.269v-11.482h4.684v-1.575h-11.109v1.575h4.622v11.482z" fill="#000"/><path d="m412.602 377.056h2.341v-2.218h-2.341zm6.01 11.213v-1.327h-3.875v-7.73h-5.14v1.347h3.44v6.383h-3.855v1.327z" fill="#000"/><path d="m422.544 383.212c0-1.638.538-2.84 1.534-2.84 1.015 0 1.264.809 1.264 1.866v6.031h1.575v-5.057c0-1.638.559-2.84 1.534-2.84 1.015 0 1.264.809 1.264 1.866v6.031h1.575v-6.736c0-1.534-.808-2.57-2.072-2.57-1.244 0-2.072.954-2.364 2.072-.144-1.264-.89-2.072-2.01-2.072-1.285 0-2.031.995-2.3 2.134v-1.885h-1.575v9.057h1.575z" fill="#000"/><path d="m441.834 385.222c-.498 1.285-1.368 1.948-2.881 1.948-1.679 0-3.087-1.243-3.087-3.212h7.334v-.539c0-2.343-1.449-4.456-4.371-4.456-2.674 0-4.663 2.052-4.663 4.911 0 2.778 1.989 4.643 4.725 4.643 2.114 0 3.565-.912 4.269-2.507zm-5.907-2.384c.208-1.347 1.264-2.528 2.902-2.528 1.72 0 2.632 1.202 2.715 2.528z" fill="#000"/><path d="m419.795 95.0895v257.4955h-235.99z" fill="#00a2ff"/><path d="m660.449 148.902v203.683h-239.529z" fill="#cb297b"/><g fill="#000"><path d="m152.448 265.153h-5.882v-5.223h-1.548v5.223h-4.045v-6.942h-1.528v8.746h13.003z"/><path d="m141.282 251.086v-2.342h-2.208v2.342zm11.165-6.01h-1.32v3.875h-7.698v5.14h1.342v-3.441h6.356v3.856h1.32z"/><path d="m148.134 235.091c1.982 0 3.241 1.306 3.241 2.88 0 1.846-1.362 2.944-3.427 2.944-2.063 0-3.425-1.098-3.425-2.944 0-1.574 1.259-2.88 3.219-2.88zm4.314.062v-1.72h-13.003v1.72h5.944c-1.217.456-2.207 1.554-2.207 3.254 0 2.694 2.104 4.29 4.766 4.29 2.642 0 4.747-1.596 4.747-4.29 0-1.7-.969-2.798-2.188-3.254z"/><path d="m149.414 221.853c1.279.497 1.94 1.367 1.94 2.88 0 1.68-1.238 3.088-3.199 3.088v-7.336h-.537c-2.331 0-4.436 1.451-4.436 4.373 0 2.673 2.042 4.663 4.89 4.663 2.766 0 4.623-1.99 4.623-4.725 0-2.114-.908-3.565-2.496-4.27zm-2.373 5.907c-1.342-.208-2.518-1.265-2.518-2.902 0-1.72 1.197-2.632 2.518-2.715z"/><path d="m152.448 207.019h-1.3v3.875h-11.703v5.14h1.301v-3.441h10.402v3.856h1.3z"/><path d="m141.282 200.288v-2.342h-2.208v2.342zm11.165-6.01h-1.32v3.875h-7.698v5.14h1.342v-3.441h6.356v3.856h1.32z"/><path d="m143.903 192.335h1.28v-2.943h3.632c2.559 0 3.88-1.824 3.88-4.083 0-1.845-1.135-3.44-2.414-3.959l-1.301.913c1.486.642 2.229 1.616 2.229 2.963 0 1.264-.826 2.487-2.538 2.487h-3.488v-5.078h-1.28v5.078h-3.487l.515 1.679h2.972z"/><path d="m153.251 174.993c1.011.435 1.527.974 1.527 1.679 0 .766-.578 1.14-1.486 1.14l.764 1.409c1.176-.166 2.105-1.036 2.105-2.487 0-1.762-1.383-2.736-3.116-3.483l-9.617-4.061v1.678l7.016 2.881v.083l-7.016 3.212v1.907l8.997-4.311z"/></g><path d="m178.66 354.83v-269.4554" stroke="#000" stroke-width="2"/><path d="m178.66 353.79 481.982-.624" stroke="#000" stroke-width="2"/><g fill="#fff"><path d="m279.908 317.588h3.441c4.02 0 6.591-2.445 6.591-6.528s-2.571-6.528-6.591-6.528h-3.441zm1.825-1.492v-10.072h1.408c3.192 0 4.913 1.865 4.913 5.036s-1.721 5.036-4.913 5.036z"/><path d="m300.359 314.542c-.497 1.285-1.367 1.948-2.88 1.948-1.679 0-3.088-1.243-3.088-3.213h7.337v-.538c0-2.343-1.451-4.456-4.374-4.456-2.673 0-4.663 2.052-4.663 4.911 0 2.778 1.99 4.643 4.726 4.643 2.113 0 3.564-.912 4.269-2.508zm-5.906-2.384c.207-1.347 1.264-2.528 2.901-2.528 1.72 0 2.632 1.202 2.715 2.528z"/><path d="m305.432 315.765c.808 1.284 2.673 2.072 4.684 2.072 2.3 0 4.02-1.057 4.02-2.756 0-1.451-1.098-2.177-2.487-2.467l-2.528-.559c-.995-.229-1.472-.56-1.472-1.223 0-.746.912-1.202 2.072-1.202 1.285 0 2.405.538 2.923 1.471l1.16-.953c-.746-1.16-2.175-1.865-4.083-1.865-2.093 0-3.71 1.077-3.71 2.673 0 1.534 1.182 2.217 2.736 2.55l2.218.476c.974.207 1.513.539 1.513 1.223 0 .912-.953 1.306-2.383 1.306-1.451 0-2.943-.664-3.607-1.887z"/><path d="m321.924 306.376h2.342v-2.218h-2.342zm6.01 11.212v-1.326h-3.875v-7.73h-5.14v1.347h3.441v6.383h-3.856v1.326z"/><path d="m337.361 311.35c0 1.182-.975 1.948-2.177 1.948-1.201 0-2.176-.766-2.176-1.948 0-1.161.975-1.928 2.176-1.928 1.202 0 2.177.767 2.177 1.928zm3.357 6.818c0-1.45-1.243-2.424-3.316-2.424h-3.69c-.89 0-1.264-.312-1.264-.767 0-.476.332-.746.705-.932.581.248 1.264.372 2.031.372 2.28 0 3.917-1.18 3.917-3.067 0-.56-.145-1.057-.435-1.492.539-.539 1.658-.913 2.508-.747l-.186-1.512c-1.348-.187-2.466.684-2.985 1.533-.704-.538-1.678-.849-2.819-.849-2.3 0-3.937 1.202-3.937 3.067 0 .953.414 1.741 1.139 2.259-.828.332-1.408.912-1.408 1.7 0 .766.497 1.347 1.408 1.595-1.223.125-2.134.912-2.134 1.866 0 1.762 2.321 2.549 4.995 2.549 2.652 0 5.471-.891 5.471-3.151zm-8.808.374c0-.871.974-1.348 1.989-1.348h3.109c1.14 0 2.032.312 2.032 1.182 0 1.243-1.7 1.803-3.793 1.803-1.845 0-3.337-.498-3.337-1.637z"/><path d="m345.748 312.697c0-1.782 1.139-2.963 2.674-2.963 1.491 0 2.279.952 2.279 2.465v5.389h1.721v-5.616c0-2.114-1.017-3.689-3.42-3.689-1.597 0-2.819.954-3.254 2.093v-1.844h-1.721v9.056h1.721z"/><path d="m542.728 310.811c1.512-.228 2.793-1.285 2.793-2.798 0-2.072-1.327-3.481-4.534-3.481h-4.626v13.056h4.85c3.046 0 4.684-1.326 4.684-3.585 0-1.866-1.472-2.943-3.167-3.192zm-4.603-4.787h2.943c1.861 0 2.672.828 2.672 2.093 0 1.264-.811 2.051-2.672 2.051h-2.943zm3.046 5.534c1.948 0 2.965.849 2.965 2.3 0 1.409-1.017 2.217-2.965 2.217h-3.046v-4.517z"/><path d="m556.024 313.443c0 1.762-1.137 2.964-2.655 2.964-1.488 0-2.235-.954-2.235-2.487v-5.388h-1.718v5.636c0 2.094.971 3.669 3.356 3.669 1.592 0 2.839-.954 3.252-2.093v1.844h1.718v-9.056h-1.718z"/><path d="m565.511 306.376h2.339v-2.218h-2.339zm6.011 11.212v-1.326h-3.873v-7.73h-5.143v1.347h3.442v6.383h-3.856v1.326z"/><path d="m584.182 317.588v-1.305h-3.879v-11.751h-5.137v1.305h3.442v10.446h-3.856v1.305z"/><path d="m594.202 313.257c0 1.99-1.304 3.254-2.879 3.254-1.844 0-2.942-1.368-2.942-3.441 0-2.072 1.098-3.44 2.942-3.44 1.575 0 2.879 1.264 2.879 3.233zm-.057 4.331h1.718v-13.057h-1.718v5.97c-.46-1.224-1.558-2.218-3.259-2.218-2.695 0-4.286 2.113-4.286 4.787 0 2.654 1.591 4.767 4.286 4.767 1.701 0 2.799-.974 3.259-2.197z"/></g><path d="m420.801 353.106v-295.1948" stroke="#000" stroke-width="2"/><path d="m415.916 54.4633c0-2.6974 2.187-4.8844 4.884-4.8844 2.698 0 4.885 2.187 4.885 4.8844 0 2.6979-2.187 4.8844-4.885 4.8844-2.697 0-4.884-2.1865-4.884-4.8844z" fill="#000"/><path d="m378.722 27.9722v-5.9895h6.094v5.9895h1.823v-13.0569h-1.823v5.513h-6.094v-5.513h-1.824v13.0569z" fill="#000"/><path d="m391.689 21.7339c.29-.9125 1.223-1.6998 2.653-1.6998 1.306 0 1.762.6637 1.762 1.2849v.7665l-2.777.6431c-2.115.4769-3.544 1.1814-3.544 2.8185 0 1.5964 1.202 2.6118 2.88 2.6118 1.659 0 3.006-.8505 3.462-1.99.083 1.1188 1.036 2.0107 2.238 2.0107.518 0 .995-.1454 1.492-.4977l-.103-1.2849c-.269.2488-.684.4143-1.057.4143-.477 0-.975-.2901-.975-1.0159v-4.4138c0-1.8245-1.285-2.7152-3.336-2.7152-2.134 0-3.606 1.0775-4.228 2.5078zm4.415 2.5904c0 1.3268-1.43 2.529-3.026 2.529-1.036 0-1.574-.6224-1.574-1.4303 0-.9947.87-1.3475 2.238-1.6791l2.362-.5591z" fill="#000"/><path d="m404.763 23.0803c0-1.7819 1.14-2.9628 2.674-2.9628 1.492 0 2.28.9527 2.28 2.4657v5.389h1.72v-5.616c0-2.1146-1.016-3.6897-3.419-3.6897-1.597 0-2.819.9539-3.255 2.0929v-1.8441h-1.72v9.0569h1.72z" fill="#000"/><path d="m422.332 23.6404c0 1.99-1.305 3.2542-2.88 3.2542-1.845 0-2.943-1.3682-2.943-3.4409 0-2.0722 1.098-3.4404 2.943-3.4404 1.575 0 2.88 1.2642 2.88 3.2334zm-.062 4.3316h1.721v-13.0568h-1.721v5.9693c-.455-1.2234-1.553-2.2182-3.253-2.2182-2.695 0-4.29 2.1136-4.29 4.7874 0 2.6536 1.595 4.7671 4.29 4.7671 1.7 0 2.798-.9746 3.253-2.1974z" fill="#000"/><path d="m437.396 23.4537c0-2.8181-2.115-4.7874-4.83-4.7874-2.694 0-4.808 1.9693-4.808 4.7874 0 2.7979 2.114 4.7671 4.808 4.7671 2.715 0 4.83-1.9692 4.83-4.7671zm-7.836 0c0-2.0515 1.162-3.4197 3.006-3.4197 1.866 0 3.026 1.3682 3.026 3.4197 0 2.0313-1.16 3.3995-3.026 3.3995-1.844 0-3.006-1.3682-3.006-3.3995z" fill="#000"/><path d="m443.482 20.6772v7.295h1.719v-7.295h4.729v-1.2849h-4.729v-.3529c0-1.8238.953-3.0673 2.637-3.0673 1.241 0 1.948.6004 2.235 1.4302l1.345-.7045c-.494-1.0981-1.695-2.0313-3.626-2.0313-2.568 0-4.31 1.8446-4.31 4.3523v.3735h-3.128v1.2849z" fill="#000"/><path d="m456.181 20.6772v7.295h1.718v-7.295h4.729v-1.2849h-4.729v-.3529c0-1.8238.954-3.0673 2.637-3.0673 1.242 0 1.948.6004 2.236 1.4302l1.344-.7045c-.494-1.0981-1.695-2.0313-3.626-2.0313-2.568 0-4.309 1.8446-4.309 4.3523v.3735h-3.126v1.2849z" fill="#000"/></svg>