<svg fill="none" height="400" viewBox="0 0 840 400" width="840" xmlns="http://www.w3.org/2000/svg"><g fill="#000"><path d="m266.113 257.723h3.441c4.02 0 6.591-2.446 6.591-6.529s-2.571-6.528-6.591-6.528h-3.441zm1.825-1.493v-10.072h1.408c3.192 0 4.913 1.865 4.913 5.036 0 3.172-1.721 5.036-4.913 5.036z"/><path d="m286.564 254.676c-.497 1.285-1.367 1.948-2.88 1.948-1.679 0-3.088-1.243-3.088-3.212h7.337v-.539c0-2.343-1.451-4.456-4.374-4.456-2.673 0-4.663 2.052-4.663 4.911 0 2.778 1.99 4.643 4.726 4.643 2.113 0 3.564-.912 4.269-2.507zm-5.906-2.384c.207-1.347 1.264-2.528 2.901-2.528 1.721 0 2.632 1.202 2.715 2.528z"/><path d="m291.639 255.899c.808 1.285 2.673 2.072 4.684 2.072 2.3 0 4.02-1.056 4.02-2.756 0-1.451-1.098-2.177-2.487-2.466l-2.528-.56c-.995-.228-1.472-.559-1.472-1.223 0-.746.912-1.202 2.072-1.202 1.285 0 2.405.538 2.923 1.472l1.16-.954c-.746-1.16-2.175-1.865-4.083-1.865-2.092 0-3.71 1.077-3.71 2.673 0 1.534 1.182 2.218 2.736 2.55l2.218.477c.974.206 1.513.538 1.513 1.222 0 .912-.953 1.306-2.383 1.306-1.451 0-2.943-.664-3.607-1.886z"/><path d="m308.131 246.51h2.342v-2.218h-2.342zm6.01 11.213v-1.327h-3.875v-7.73h-5.14v1.347h3.441v6.383h-3.856v1.327z"/><path d="m323.566 251.485c0 1.181-.975 1.948-2.177 1.948-1.201 0-2.175-.767-2.175-1.948 0-1.162.974-1.928 2.175-1.928 1.202 0 2.177.766 2.177 1.928zm3.357 6.818c0-1.45-1.243-2.424-3.316-2.424h-3.69c-.89 0-1.264-.312-1.264-.767 0-.477.332-.746.705-.933.581.249 1.265.372 2.031.372 2.28 0 3.917-1.18 3.917-3.066 0-.56-.145-1.057-.435-1.493.539-.539 1.658-.912 2.508-.746l-.186-1.513c-1.348-.186-2.466.684-2.985 1.533-.704-.538-1.678-.849-2.819-.849-2.3 0-3.937 1.202-3.937 3.068 0 .953.414 1.74 1.139 2.258-.828.332-1.408.912-1.408 1.7 0 .767.497 1.347 1.408 1.595-1.223.126-2.134.913-2.134 1.866 0 1.762 2.321 2.549 4.995 2.549 2.652 0 5.471-.891 5.471-3.15zm-8.808.373c0-.87.974-1.347 1.989-1.347h3.11c1.139 0 2.031.311 2.031 1.181 0 1.244-1.7 1.803-3.793 1.803-1.845 0-3.337-.497-3.337-1.637z"/><path d="m331.953 252.831c0-1.782 1.139-2.963 2.674-2.963 1.491 0 2.279.953 2.279 2.466v5.389h1.721v-5.616c0-2.115-1.017-3.69-3.42-3.69-1.597 0-2.819.954-3.254 2.093v-1.844h-1.721v9.057h1.721z"/><path d="m486.969 256.189h-6.861v-4.456h4.746v-1.554h-4.746v-3.979h6.677v-1.534h-8.459v13.057h8.643z"/><path d="m492.622 252.831c0-1.782 1.138-2.963 2.673-2.963 1.494 0 2.281.953 2.281 2.466v5.389h1.718v-5.616c0-2.115-1.017-3.69-3.419-3.69-1.598 0-2.816.954-3.253 2.093v-1.844h-1.718v9.057h1.718z"/><path d="m509.632 251.484c0 1.182-.971 1.948-2.178 1.948-1.201 0-2.172-.766-2.172-1.948 0-1.161.971-1.928 2.172-1.928 1.207 0 2.178.767 2.178 1.928zm3.356 6.818c0-1.449-1.242-2.423-3.316-2.423h-3.689c-.891 0-1.264-.312-1.264-.768 0-.476.333-.745.706-.932.581.249 1.265.372 2.029.372 2.281 0 3.919-1.18 3.919-3.067 0-.559-.144-1.056-.437-1.492.54-.539 1.661-.912 2.511-.746l-.189-1.513c-1.345-.187-2.466.684-2.983 1.533-.707-.538-1.678-.849-2.821-.849-2.299 0-3.936 1.202-3.936 3.067 0 .954.413 1.741 1.137 2.259-.827.332-1.408.912-1.408 1.7 0 .767.5 1.347 1.408 1.595-1.218.125-2.132.913-2.132 1.866 0 1.762 2.322 2.549 4.994 2.549 2.655 0 5.471-.891 5.471-3.151zm-8.81.374c0-.871.977-1.348 1.994-1.348h3.109c1.138 0 2.029.312 2.029 1.182 0 1.243-1.701 1.803-3.793 1.803-1.845 0-3.339-.498-3.339-1.637z"/><path d="m519.597 246.51h2.339v-2.218h-2.339zm6.011 11.213v-1.327h-3.874v-7.73h-5.143v1.347h3.443v6.383h-3.856v1.327z"/><path d="m530.72 252.831c0-1.782 1.138-2.963 2.672-2.963 1.494 0 2.281.953 2.281 2.466v5.389h1.719v-5.616c0-2.115-1.017-3.69-3.419-3.69-1.598 0-2.816.954-3.253 2.093v-1.844h-1.718v9.057h1.718z"/><path d="m548.828 254.676c-.494 1.285-1.368 1.948-2.879 1.948-1.678 0-3.086-1.243-3.086-3.212h7.332v-.539c0-2.343-1.448-4.456-4.373-4.456-2.672 0-4.66 2.052-4.66 4.911 0 2.778 1.988 4.643 4.724 4.643 2.114 0 3.562-.912 4.269-2.507zm-5.907-2.384c.206-1.347 1.264-2.528 2.901-2.528 1.724 0 2.632 1.202 2.718 2.528z"/><path d="m561.527 254.676c-.494 1.285-1.368 1.948-2.879 1.948-1.678 0-3.086-1.243-3.086-3.212h7.333v-.539c0-2.343-1.448-4.456-4.373-4.456-2.672 0-4.661 2.052-4.661 4.911 0 2.778 1.989 4.643 4.724 4.643 2.115 0 3.563-.912 4.269-2.507zm-5.907-2.384c.207-1.347 1.264-2.528 2.902-2.528 1.724 0 2.631 1.202 2.718 2.528z"/><path d="m572.032 249.909c1.471 0 2.155.87 2.155 2.072 0 .436-.04.685-.103.85l1.597-.455c.064-.166.081-.436.081-.809 0-1.596-1.121-3.15-3.189-3.15-1.994 0-3.195 1.409-3.632 2.86v-2.611h-1.718v9.057h1.718v-3.855c0-2.094 1.39-3.959 3.091-3.959z"/><path d="m583.093 246.51h2.339v-2.218h-2.339zm6.011 11.213v-1.327h-3.873v-7.73h-5.143v1.347h3.442v6.383h-3.856v1.327z"/><path d="m594.218 252.831c0-1.782 1.138-2.963 2.672-2.963 1.494 0 2.281.953 2.281 2.466v5.389h1.719v-5.616c0-2.115-1.017-3.69-3.419-3.69-1.598 0-2.816.954-3.253 2.093v-1.844h-1.718v9.057h1.718z"/><path d="m611.227 251.484c0 1.182-.971 1.948-2.177 1.948-1.201 0-2.173-.766-2.173-1.948 0-1.161.972-1.928 2.173-1.928 1.206 0 2.177.767 2.177 1.928zm3.356 6.818c0-1.449-1.241-2.423-3.315-2.423h-3.69c-.89 0-1.264-.312-1.264-.768 0-.476.334-.745.707-.932.58.249 1.264.372 2.029.372 2.281 0 3.919-1.18 3.919-3.067 0-.559-.144-1.056-.437-1.492.54-.539 1.66-.912 2.511-.746l-.19-1.513c-1.344-.187-2.465.684-2.982 1.533-.707-.538-1.678-.849-2.821-.849-2.299 0-3.937 1.202-3.937 3.067 0 .954.414 1.741 1.138 2.259-.827.332-1.408.912-1.408 1.7 0 .767.5 1.347 1.408 1.595-1.218.125-2.132.913-2.132 1.866 0 1.762 2.322 2.549 4.994 2.549 2.655 0 5.47-.891 5.47-3.151zm-8.809.374c0-.871.977-1.348 1.994-1.348h3.109c1.138 0 2.028.312 2.028 1.182 0 1.243-1.701 1.803-3.792 1.803-1.845 0-3.339-.498-3.339-1.637z"/></g><path d="m439.964 82.6278c11.22 11.2203 11.22 29.4122 0 40.6332-11.22 11.22-29.412 11.22-40.632 0-11.221-11.221-11.221-29.4129 0-40.6332 11.22-11.2204 29.412-11.2204 40.632 0z" fill="#00a2ff"/><path d="m300.341 216.691c-1.732-51.2 20.234-85.943 65.899-104.232l1.081-.396" stroke="#000" stroke-dasharray="8 8" stroke-width="2"/><path d="m367.903 116.99 5.892-7.301-9.215-1.762zm-1.662-4.532 7.554-2.769z" fill="#000"/><path d="m366.241 112.458 7.554-2.769m-5.892 7.301 5.892-7.301-9.215-1.762z" stroke="#000" stroke-linejoin="round" stroke-miterlimit="10" stroke-width="2"/><path d="m539.024 209.533-.035-1.149c-3.08-50.141-29.473-83.177-79.184-99.11" stroke="#000" stroke-dasharray="8 8" stroke-width="2"/><path d="m534.164 208.542 5.086 7.883 4.562-8.199zm4.821-.158.265 8.041z" fill="#000"/><g stroke="#000" stroke-width="2"><path d="m538.985 208.384.265 8.041m-5.086-7.883 5.086 7.883 4.562-8.199z" stroke-linejoin="round" stroke-miterlimit="10"/><path d="m419.65 327.142v-161.824"/></g></svg>