<svg fill="none" height="400" viewBox="0 0 840 400" width="840" xmlns="http://www.w3.org/2000/svg"><path d="m130 257.51h3.44c4.021 0 6.591-2.446 6.591-6.528 0-4.083-2.57-6.529-6.591-6.529h-3.44zm1.824-1.492v-10.073h1.409c3.192 0 4.912 1.865 4.912 5.037 0 3.171-1.72 5.036-4.912 5.036z" fill="#000"/><path d="m150.45 254.463c-.497 1.285-1.367 1.949-2.88 1.949-1.68 0-3.088-1.244-3.088-3.213h7.336v-.538c0-2.343-1.451-4.457-4.373-4.457-2.673 0-4.663 2.052-4.663 4.912 0 2.778 1.99 4.643 4.725 4.643 2.114 0 3.565-.913 4.27-2.508zm-5.907-2.383c.208-1.347 1.265-2.529 2.902-2.529 1.72 0 2.632 1.202 2.715 2.529z" fill="#000"/><path d="m155.523 255.687c.808 1.284 2.674 2.072 4.684 2.072 2.301 0 4.021-1.057 4.021-2.757 0-1.451-1.099-2.176-2.487-2.466l-2.528-.56c-.995-.228-1.472-.559-1.472-1.223 0-.745.911-1.202 2.072-1.202 1.285 0 2.405.539 2.923 1.472l1.16-.953c-.746-1.161-2.176-1.866-4.083-1.866-2.093 0-3.71 1.078-3.71 2.674 0 1.534 1.182 2.217 2.736 2.549l2.218.477c.974.206 1.513.539 1.513 1.222 0 .912-.954 1.307-2.383 1.307-1.451 0-2.944-.664-3.607-1.887z" fill="#000"/><path d="m172.015 246.297h2.342v-2.217h-2.342zm6.01 11.213v-1.326h-3.875v-7.731h-5.14v1.347h3.441v6.384h-3.856v1.326z" fill="#000"/><path d="m187.451 251.272c0 1.181-.975 1.948-2.177 1.948-1.201 0-2.176-.767-2.176-1.948 0-1.162.975-1.928 2.176-1.928 1.202 0 2.177.766 2.177 1.928zm3.357 6.818c0-1.45-1.243-2.424-3.316-2.424h-3.69c-.89 0-1.264-.312-1.264-.767 0-.477.332-.746.705-.933.581.249 1.264.373 2.031.373 2.279 0 3.917-1.181 3.917-3.067 0-.56-.145-1.057-.435-1.493.539-.539 1.658-.912 2.508-.746l-.186-1.513c-1.348-.186-2.467.684-2.985 1.534-.704-.539-1.678-.85-2.819-.85-2.3 0-3.937 1.202-3.937 3.068 0 .953.414 1.74 1.139 2.259-.829.331-1.408.912-1.408 1.699 0 .767.497 1.347 1.408 1.596-1.223.125-2.134.912-2.134 1.865 0 1.762 2.321 2.549 4.995 2.549 2.652 0 5.471-.891 5.471-3.15zm-8.808.373c0-.87.974-1.347 1.989-1.347h3.109c1.14 0 2.032.311 2.032 1.181 0 1.244-1.7 1.803-3.793 1.803-1.845 0-3.337-.497-3.337-1.637z" fill="#000"/><path d="m195.84 252.618c0-1.782 1.139-2.963 2.673-2.963 1.492 0 2.28.953 2.28 2.466v5.389h1.72v-5.616c0-2.115-1.016-3.69-3.419-3.69-1.597 0-2.819.954-3.254 2.093v-1.844h-1.721v9.057h1.721z" fill="#000"/><path d="m283.339 326.929v-161.824" stroke="#000" stroke-width="2"/><g fill="#000"><path d="m350.855 255.976h-6.86v-4.455h4.746v-1.555h-4.746v-3.979h6.673v-1.534h-8.456v13.057h8.643z"/><path d="m356.507 252.618c0-1.782 1.139-2.963 2.673-2.963 1.492 0 2.28.953 2.28 2.466v5.389h1.72v-5.616c0-2.115-1.016-3.69-3.419-3.69-1.597 0-2.819.954-3.254 2.093v-1.844h-1.721v9.057h1.721z"/><path d="m373.517 251.272c0 1.181-.975 1.948-2.177 1.948-1.201 0-2.175-.767-2.175-1.948 0-1.162.974-1.928 2.175-1.928 1.202 0 2.177.766 2.177 1.928zm3.357 6.818c0-1.45-1.243-2.424-3.316-2.424h-3.689c-.891 0-1.265-.312-1.265-.767 0-.477.333-.746.706-.933.581.249 1.264.373 2.03.373 2.28 0 3.918-1.181 3.918-3.067 0-.56-.146-1.057-.435-1.493.538-.539 1.657-.912 2.507-.746l-.186-1.513c-1.347-.186-2.466.684-2.985 1.534-.704-.539-1.678-.85-2.819-.85-2.3 0-3.937 1.202-3.937 3.068 0 .953.414 1.74 1.139 2.259-.828.331-1.408.912-1.408 1.699 0 .767.497 1.347 1.408 1.596-1.222.125-2.134.912-2.134 1.865 0 1.762 2.321 2.549 4.995 2.549 2.652 0 5.471-.891 5.471-3.15zm-8.808.373c0-.87.974-1.347 1.989-1.347h3.11c1.139 0 2.031.311 2.031 1.181 0 1.244-1.7 1.803-3.793 1.803-1.845 0-3.337-.497-3.337-1.637z"/><path d="m383.482 246.297h2.341v-2.217h-2.341zm6.01 11.213v-1.326h-3.875v-7.731h-5.141v1.347h3.441v6.384h-3.855v1.326z"/><path d="m394.605 252.618c0-1.782 1.14-2.963 2.674-2.963 1.492 0 2.28.953 2.28 2.466v5.389h1.72v-5.616c0-2.115-1.017-3.69-3.42-3.69-1.597 0-2.818.954-3.254 2.093v-1.844h-1.72v9.057h1.72z"/><path d="m412.714 254.463c-.498 1.285-1.368 1.949-2.881 1.949-1.679 0-3.087-1.244-3.087-3.213h7.336v-.538c0-2.343-1.451-4.457-4.374-4.457-2.673 0-4.662 2.052-4.662 4.912 0 2.778 1.989 4.643 4.725 4.643 2.114 0 3.565-.913 4.27-2.508zm-5.907-2.383c.208-1.347 1.264-2.529 2.901-2.529 1.721 0 2.633 1.202 2.716 2.529z"/><path d="m425.414 254.463c-.498 1.285-1.368 1.949-2.881 1.949-1.679 0-3.087-1.244-3.087-3.213h7.336v-.538c0-2.343-1.451-4.457-4.373-4.457-2.674 0-4.663 2.052-4.663 4.912 0 2.778 1.989 4.643 4.725 4.643 2.114 0 3.565-.913 4.27-2.508zm-5.907-2.383c.208-1.347 1.265-2.529 2.902-2.529 1.72 0 2.632 1.202 2.715 2.529z"/><path d="m435.917 249.697c1.471 0 2.154.87 2.154 2.072 0 .435-.04.684-.103.849l1.597-.455c.064-.166.081-.436.081-.809 0-1.595-1.121-3.15-3.189-3.15-1.994 0-3.195 1.409-3.632 2.86v-2.611h-1.718v9.057h1.718v-3.855c0-2.094 1.391-3.958 3.092-3.958z"/><path d="m446.979 246.297h2.338v-2.217h-2.338zm6.01 11.213v-1.326h-3.873v-7.731h-5.143v1.347h3.442v6.384h-3.855v1.326z"/><path d="m458.103 252.618c0-1.782 1.138-2.963 2.672-2.963 1.494 0 2.281.953 2.281 2.466v5.389h1.718v-5.616c0-2.115-1.017-3.69-3.419-3.69-1.597 0-2.815.954-3.252 2.093v-1.844h-1.718v9.057h1.718z"/><path d="m475.112 251.272c0 1.181-.971 1.948-2.178 1.948-1.201 0-2.172-.767-2.172-1.948 0-1.162.971-1.928 2.172-1.928 1.207 0 2.178.766 2.178 1.928zm3.356 6.818c0-1.45-1.241-2.424-3.316-2.424h-3.689c-.89 0-1.264-.312-1.264-.767 0-.477.333-.746.707-.933.58.249 1.264.373 2.028.373 2.282 0 3.919-1.181 3.919-3.067 0-.56-.143-1.057-.436-1.493.54-.539 1.66-.912 2.511-.746l-.19-1.513c-1.345-.186-2.465.684-2.982 1.534-.707-.539-1.678-.85-2.822-.85-2.298 0-3.936 1.202-3.936 3.068 0 .953.414 1.74 1.138 2.259-.828.331-1.408.912-1.408 1.699 0 .767.5 1.347 1.408 1.596-1.218.125-2.132.912-2.132 1.865 0 1.762 2.321 2.549 4.993 2.549 2.655 0 5.471-.891 5.471-3.15zm-8.809.373c0-.87.977-1.347 1.994-1.347h3.109c1.137 0 2.028.311 2.028 1.181 0 1.244-1.701 1.803-3.793 1.803-1.844 0-3.338-.497-3.338-1.637z"/></g><path d="m303.654 82.4154c11.22 11.2203 11.22 29.4126 0 40.6326-11.221 11.221-29.412 11.221-40.633 0-11.221-11.22-11.221-29.4123 0-40.6326 11.221-11.2204 29.412-11.2204 40.633 0z" fill="#00a2ff"/><path d="m164.029 216.478c-1.732-51.199 20.234-85.943 65.899-104.232l1.081-.396" stroke="#000" stroke-dasharray="8 8" stroke-width="2"/><path d="m231.591 116.778 5.891-7.302-9.214-1.762zm-1.662-4.532 7.553-2.77z" fill="#000"/><path d="m229.929 112.246 7.553-2.77m-5.891 7.302 5.891-7.302-9.214-1.762z" stroke="#000" stroke-linejoin="round" stroke-miterlimit="10" stroke-width="2"/><path d="m402.713 209.32-.038-1.149c-3.076-50.141-29.47-83.177-79.181-99.11" stroke="#000" stroke-dasharray="8 8" stroke-width="2"/><path d="m397.851 208.329 5.086 7.883 4.562-8.198zm4.824-.158.262 8.041z" fill="#000"/><path d="m402.675 208.171.262 8.041m-5.086-7.883 5.086 7.883 4.562-8.198z" stroke="#000" stroke-linejoin="round" stroke-miterlimit="10" stroke-width="2"/><path d="m542.069 326.929v-161.824" stroke="#000" stroke-width="2"/><g fill="#000"><path d="m607.727 252.93c-.374 2.072-1.431 3.274-3.275 3.274-1.971 0-3.626-2.01-3.626-5.222 0-3.213 1.637-5.223 3.666-5.223 1.66 0 2.695 1.16 3.132 2.881l1.637-.995c-.724-2.114-2.362-3.441-4.706-3.441-3.149 0-5.597 2.757-5.597 6.778 0 4.02 2.448 6.777 5.557 6.777 2.609 0 4.309-1.555 4.93-3.959z"/><path d="m619.306 253.365c0 1.761-1.138 2.964-2.655 2.964-1.489 0-2.236-.954-2.236-2.487v-5.389h-1.718v5.637c0 2.094.971 3.669 3.356 3.669 1.592 0 2.839-.954 3.253-2.093v1.844h1.718v-9.057h-1.718z"/><path d="m625 255.687c.81 1.284 2.672 2.072 4.683 2.072 2.299 0 4.023-1.057 4.023-2.757 0-1.451-1.098-2.176-2.488-2.466l-2.529-.56c-.994-.228-1.471-.559-1.471-1.223 0-.745.914-1.202 2.075-1.202 1.281 0 2.402.539 2.919 1.472l1.16-.953c-.747-1.161-2.177-1.866-4.079-1.866-2.098 0-3.713 1.078-3.713 2.674 0 1.534 1.184 2.217 2.736 2.549l2.218.477c.971.206 1.511.539 1.511 1.222 0 .912-.954 1.307-2.379 1.307-1.454 0-2.948-.664-3.609-1.887z"/><path d="m636.745 248.93v1.285h2.942v3.647c0 2.571 1.828 3.897 4.086 3.897 1.844 0 3.436-1.141 3.959-2.426l-.914-1.305c-.643 1.492-1.614 2.238-2.965 2.238-1.264 0-2.488-.828-2.488-2.549v-3.502h5.08v-1.285h-5.08v-3.503l-1.678.518v2.985z"/><path d="m659.852 252.992c0-2.818-2.114-4.788-4.832-4.788-2.695 0-4.81 1.97-4.81 4.788 0 2.798 2.115 4.767 4.81 4.767 2.718 0 4.832-1.969 4.832-4.767zm-7.838 0c0-2.052 1.161-3.42 3.006-3.42 1.867 0 3.028 1.368 3.028 3.42 0 2.031-1.161 3.399-3.028 3.399-1.845 0-3.006-1.368-3.006-3.399z"/><path d="m664.133 252.453c0-1.637.54-2.84 1.534-2.84 1.017 0 1.265.809 1.265 1.866v6.031h1.574v-5.057c0-1.637.563-2.84 1.534-2.84 1.017 0 1.264.809 1.264 1.866v6.031h1.575v-6.736c0-1.534-.804-2.57-2.069-2.57-1.247 0-2.074.954-2.367 2.073-.144-1.265-.891-2.073-2.006-2.073-1.287 0-2.034.995-2.304 2.135v-1.886h-1.574v9.057h1.574z"/><path d="m683.423 254.463c-.494 1.285-1.367 1.949-2.878 1.949-1.678 0-3.086-1.244-3.086-3.213h7.332v-.538c0-2.343-1.448-4.457-4.373-4.457-2.672 0-4.66 2.052-4.66 4.912 0 2.778 1.988 4.643 4.723 4.643 2.115 0 3.563-.913 4.27-2.508zm-5.907-2.383c.207-1.347 1.264-2.529 2.902-2.529 1.724 0 2.632 1.202 2.718 2.529z"/><path d="m693.927 249.697c1.471 0 2.155.87 2.155 2.072 0 .435-.04.684-.104.849l1.598-.455c.063-.166.08-.436.08-.809 0-1.595-1.12-3.15-3.189-3.15-1.994 0-3.195 1.409-3.632 2.86v-2.611h-1.718v9.057h1.718v-3.855c0-2.094 1.391-3.958 3.092-3.958z"/><path d="m701.196 255.687c.811 1.284 2.672 2.072 4.684 2.072 2.298 0 4.022-1.057 4.022-2.757 0-1.451-1.098-2.176-2.488-2.466l-2.529-.56c-.994-.228-1.471-.559-1.471-1.223 0-.745.914-1.202 2.075-1.202 1.281 0 2.402.539 2.919 1.472l1.161-.953c-.747-1.161-2.178-1.866-4.08-1.866-2.098 0-3.712 1.078-3.712 2.674 0 1.534 1.183 2.217 2.735 2.549l2.218.477c.971.206 1.511.539 1.511 1.222 0 .912-.954 1.307-2.379 1.307-1.453 0-2.948-.664-3.608-1.887z"/></g><path d="m562.267 82.4154c11.217 11.2203 11.217 29.4126 0 40.6326-11.222 11.221-29.415 11.221-40.632 0-11.223-11.22-11.223-29.4123 0-40.6326 11.217-11.2204 29.41-11.2204 40.632 0z" fill="#00a2ff"/><path d="m422.641 216.478c-1.732-51.199 20.234-85.943 65.901-104.232l1.08-.396" stroke="#000" stroke-dasharray="8 8" stroke-width="2"/><path d="m490.202 116.778 5.89-7.302-9.211-1.762zm-1.66-4.532 7.55-2.77z" fill="#000"/><path d="m488.542 112.246 7.55-2.77m-5.89 7.302 5.89-7.302-9.211-1.762z" stroke="#000" stroke-linejoin="round" stroke-miterlimit="10" stroke-width="2"/><path d="m661.323 209.32-.035-1.149c-3.08-50.141-29.473-83.177-79.184-99.11" stroke="#000" stroke-dasharray="8 8" stroke-width="2"/><path d="m656.462 208.329 5.085 7.883 4.563-8.198zm4.827-.158.258 8.041z" fill="#000"/><path d="m661.289 208.171.258 8.041m-5.085-7.883 5.085 7.883 4.563-8.198z" stroke="#000" stroke-linejoin="round" stroke-miterlimit="10" stroke-width="2"/></svg>