<svg fill="none" height="401" viewBox="0 0 841 401" width="841" xmlns="http://www.w3.org/2000/svg"><g fill="#000"><path d="m214.418 252.287c3.234 0 5.078-1.471 5.078-3.917 0-2.445-1.844-3.917-5.078-3.917h-4.477v13.057h1.804v-5.223zm-2.673-1.513v-4.808h2.632c2.238 0 3.336.787 3.336 2.404s-1.098 2.404-3.336 2.404z"/><path d="m227.781 249.697c1.471 0 2.155.87 2.155 2.072 0 .435-.042.684-.104.849l1.596-.455c.063-.166.083-.436.083-.809 0-1.595-1.12-3.15-3.192-3.15-1.989 0-3.191 1.409-3.627 2.86v-2.611h-1.72v9.057h1.72v-3.855c0-2.094 1.389-3.958 3.089-3.958z"/><path d="m244.501 252.992c0-2.818-2.115-4.788-4.83-4.788-2.694 0-4.808 1.97-4.808 4.788 0 2.798 2.114 4.767 4.808 4.767 2.715 0 4.83-1.969 4.83-4.767zm-7.835 0c0-2.052 1.161-3.42 3.005-3.42 1.866 0 3.027 1.368 3.027 3.42 0 2.031-1.161 3.399-3.027 3.399-1.844 0-3.005-1.368-3.005-3.399z"/><path d="m254.837 253.178c0 1.99-1.305 3.255-2.88 3.255-1.845 0-2.943-1.369-2.943-3.441 0-2.073 1.098-3.441 2.943-3.441 1.575 0 2.88 1.264 2.88 3.234zm-.062 4.332h1.721v-13.057h-1.721v5.969c-.455-1.223-1.554-2.218-3.253-2.218-2.695 0-4.291 2.114-4.291 4.788 0 2.653 1.596 4.767 4.291 4.767 1.699 0 2.798-.975 3.253-2.198z"/><path d="m267.453 253.365c0 1.761-1.14 2.964-2.653 2.964-1.492 0-2.238-.954-2.238-2.487v-5.389h-1.719v5.637c0 2.094.973 3.669 3.357 3.669 1.595 0 2.838-.954 3.253-2.093v1.844h1.721v-9.057h-1.721z"/><path d="m280.714 254.339c-.352 1.161-1.223 2.01-2.632 2.01-1.762 0-2.964-1.285-2.964-3.357 0-2.093 1.202-3.379 3.005-3.379 1.306 0 2.114.809 2.487 1.866l1.431-.829c-.602-1.41-1.887-2.446-3.938-2.446-2.84 0-4.788 1.99-4.788 4.788 0 2.818 1.948 4.767 4.726 4.767 2.259 0 3.585-1.223 4.103-2.715z"/><path d="m284.894 248.93v1.285h2.943v3.647c0 2.571 1.824 3.897 4.083 3.897 1.845 0 3.44-1.141 3.958-2.426l-.912-1.305c-.642 1.492-1.616 2.238-2.963 2.238-1.264 0-2.487-.828-2.487-2.549v-3.502h5.077v-1.285h-5.077v-3.503l-1.679.518v2.985z"/><path d="m316.739 257.51v-11.482h4.684v-1.575h-11.11v1.575h4.623v11.482z"/><path d="m331.573 254.463c-.497 1.285-1.367 1.949-2.88 1.949-1.68 0-3.088-1.244-3.088-3.213h7.336v-.538c0-2.343-1.451-4.457-4.373-4.457-2.673 0-4.663 2.052-4.663 4.912 0 2.778 1.99 4.643 4.725 4.643 2.114 0 3.565-.913 4.27-2.508zm-5.906-2.383c.207-1.347 1.264-2.529 2.901-2.529 1.72 0 2.632 1.202 2.715 2.529z"/><path d="m338.49 251.272c.29-.913 1.223-1.7 2.653-1.7 1.306 0 1.762.664 1.762 1.285v.767l-2.777.643c-2.115.476-3.544 1.181-3.544 2.818 0 1.596 1.202 2.612 2.88 2.612 1.658 0 3.005-.851 3.462-1.99.082 1.119 1.036 2.011 2.238 2.011.518 0 .995-.146 1.492-.498l-.103-1.285c-.269.249-.684.414-1.058.414-.477 0-.974-.29-.974-1.016v-4.413c0-1.825-1.285-2.716-3.336-2.716-2.135 0-3.606 1.078-4.229 2.508zm4.415 2.59c0 1.327-1.43 2.529-3.026 2.529-1.036 0-1.575-.622-1.575-1.43 0-.995.87-1.348 2.239-1.679l2.362-.559z"/><path d="m350.382 252.453c0-1.637.538-2.84 1.533-2.84 1.016 0 1.265.809 1.265 1.866v6.031h1.575v-5.057c0-1.637.559-2.84 1.534-2.84 1.015 0 1.264.809 1.264 1.866v6.031h1.575v-6.736c0-1.534-.808-2.57-2.072-2.57-1.244 0-2.073.954-2.364 2.073-.144-1.265-.891-2.073-2.01-2.073-1.285 0-2.031.995-2.3 2.135v-1.886h-1.575v9.057h1.575z"/><path d="m362.044 255.687c.808 1.284 2.674 2.072 4.684 2.072 2.3 0 4.021-1.057 4.021-2.757 0-1.451-1.099-2.176-2.487-2.466l-2.529-.56c-.995-.228-1.472-.559-1.472-1.223 0-.745.912-1.202 2.073-1.202 1.285 0 2.404.539 2.922 1.472l1.16-.953c-.745-1.161-2.175-1.866-4.082-1.866-2.093 0-3.71 1.078-3.71 2.674 0 1.534 1.181 2.217 2.736 2.549l2.217.477c.975.206 1.513.539 1.513 1.222 0 .912-.953 1.307-2.383 1.307-1.451 0-2.943-.664-3.606-1.887z"/></g><path d="m415.271 326.929v-161.824" stroke="#000" stroke-width="2"/><g fill="#000"><path d="m480.96 252.93c-.373 2.072-1.43 3.274-3.275 3.274-1.971 0-3.626-2.01-3.626-5.222 0-3.213 1.638-5.223 3.666-5.223 1.661 0 2.695 1.16 3.132 2.881l1.638-.995c-.724-2.114-2.362-3.441-4.707-3.441-3.149 0-5.597 2.757-5.597 6.778 0 4.02 2.448 6.777 5.557 6.777 2.609 0 4.31-1.555 4.931-3.959z"/><path d="m492.539 253.365c0 1.761-1.138 2.964-2.655 2.964-1.488 0-2.235-.954-2.235-2.487v-5.389h-1.718v5.637c0 2.094.971 3.669 3.356 3.669 1.591 0 2.838-.954 3.252-2.093v1.844h1.718v-9.057h-1.718z"/><path d="m498.233 255.687c.811 1.284 2.672 2.072 4.684 2.072 2.298 0 4.022-1.057 4.022-2.757 0-1.451-1.097-2.176-2.488-2.466l-2.528-.56c-.995-.228-1.471-.559-1.471-1.223 0-.745.913-1.202 2.074-1.202 1.281 0 2.402.539 2.919 1.472l1.161-.953c-.747-1.161-2.178-1.866-4.08-1.866-2.097 0-3.712 1.078-3.712 2.674 0 1.534 1.184 2.217 2.735 2.549l2.218.477c.971.206 1.511.539 1.511 1.222 0 .912-.953 1.307-2.379 1.307-1.453 0-2.947-.664-3.608-1.887z"/><path d="m509.979 248.93v1.285h2.942v3.647c0 2.571 1.827 3.897 4.085 3.897 1.845 0 3.437-1.141 3.96-2.426l-.914-1.305c-.644 1.492-1.615 2.238-2.965 2.238-1.264 0-2.488-.828-2.488-2.549v-3.502h5.079v-1.285h-5.079v-3.503l-1.678.518v2.985z"/><path d="m533.086 252.992c0-2.818-2.115-4.788-4.833-4.788-2.695 0-4.81 1.97-4.81 4.788 0 2.798 2.115 4.767 4.81 4.767 2.718 0 4.833-1.969 4.833-4.767zm-7.838 0c0-2.052 1.16-3.42 3.005-3.42 1.868 0 3.028 1.368 3.028 3.42 0 2.031-1.16 3.399-3.028 3.399-1.845 0-3.005-1.368-3.005-3.399z"/><path d="m537.366 252.453c0-1.637.541-2.84 1.535-2.84 1.017 0 1.264.809 1.264 1.866v6.031h1.574v-5.057c0-1.637.564-2.84 1.535-2.84 1.017 0 1.264.809 1.264 1.866v6.031h1.574v-6.736c0-1.534-.804-2.57-2.068-2.57-1.247 0-2.075.954-2.368 2.073-.143-1.265-.89-2.073-2.005-2.073-1.287 0-2.034.995-2.305 2.135v-1.886h-1.574v9.057h1.574z"/><path d="m556.656 254.463c-.494 1.285-1.368 1.949-2.879 1.949-1.678 0-3.086-1.244-3.086-3.213h7.333v-.538c0-2.343-1.449-4.457-4.373-4.457-2.672 0-4.661 2.052-4.661 4.912 0 2.778 1.988 4.643 4.724 4.643 2.114 0 3.562-.913 4.269-2.508zm-5.907-2.383c.207-1.347 1.264-2.529 2.902-2.529 1.723 0 2.631 1.202 2.718 2.529z"/><path d="m567.161 249.697c1.471 0 2.155.87 2.155 2.072 0 .435-.04.684-.103.849l1.597-.455c.063-.166.081-.436.081-.809 0-1.595-1.121-3.15-3.19-3.15-1.994 0-3.195 1.409-3.631 2.86v-2.611h-1.718v9.057h1.718v-3.855c0-2.094 1.39-3.958 3.091-3.958z"/><path d="m574.43 255.687c.81 1.284 2.672 2.072 4.683 2.072 2.299 0 4.022-1.057 4.022-2.757 0-1.451-1.097-2.176-2.488-2.466l-2.528-.56c-.994-.228-1.471-.559-1.471-1.223 0-.745.913-1.202 2.074-1.202 1.282 0 2.402.539 2.919 1.472l1.161-.953c-.747-1.161-2.178-1.866-4.08-1.866-2.097 0-3.712 1.078-3.712 2.674 0 1.534 1.184 2.217 2.735 2.549l2.218.477c.972.206 1.512.539 1.512 1.222 0 .912-.954 1.307-2.379 1.307-1.454 0-2.948-.664-3.609-1.887z"/></g><path d="m435.469 82.4154c11.22 11.2203 11.22 29.4126 0 40.6326-11.22 11.221-29.412 11.221-40.632 0-11.221-11.22-11.221-29.4123 0-40.6326 11.22-11.2204 29.412-11.2204 40.632 0z" fill="#00a2ff"/><path d="m295.844 216.478c-1.732-51.199 20.234-85.943 65.899-104.232l1.08-.396" stroke="#000" stroke-dasharray="8 8" stroke-width="2"/><path d="m361.744 112.246 7.554-2.77m-5.892 7.302 5.892-7.302-9.215-1.762z" stroke="#000" stroke-linejoin="round" stroke-miterlimit="10" stroke-width="2"/><path d="m534.527 209.32-.035-1.149c-3.08-50.141-29.473-83.177-79.184-99.11" stroke="#000" stroke-dasharray="8 8" stroke-width="2"/><path d="m534.487 208.171.265 8.041m-5.086-7.883 5.086 7.883 4.562-8.198z" stroke="#000" stroke-linejoin="round" stroke-miterlimit="10" stroke-width="2"/></svg>