<svg width="178" height="142" viewBox="0 0 178 142" fill="none" xmlns="http://www.w3.org/2000/svg">
  <style>
    @media (prefers-color-scheme: dark) {
      .text {
        fill: #fff;
    }
  }

.text {
  fill: #000;
}
    </style>
<path opacity="0.5" d="M35 69.5H41L38 73.5L35 69.5Z" fill="#888"/>
<rect x="50.5" y="67" width="9" height="9" stroke="#888888" stroke-dasharray="3 3"/>
<path d="M75.4375 70.5C75.3516 70.237 75.2383 70.0013 75.0977 69.793C74.9596 69.582 74.7943 69.4023 74.6016 69.2539C74.4115 69.1055 74.1953 68.9922 73.9531 68.9141C73.7109 68.8359 73.4453 68.7969 73.1562 68.7969C72.6823 68.7969 72.2513 68.9193 71.8633 69.1641C71.4753 69.4089 71.1667 69.7695 70.9375 70.2461C70.7083 70.7227 70.5938 71.3073 70.5938 72C70.5938 72.6927 70.7096 73.2773 70.9414 73.7539C71.1732 74.2305 71.487 74.5911 71.8828 74.8359C72.2786 75.0807 72.724 75.2031 73.2188 75.2031C73.6771 75.2031 74.0807 75.1055 74.4297 74.9102C74.7813 74.7122 75.0547 74.4336 75.25 74.0742C75.4479 73.7122 75.5469 73.2865 75.5469 72.7969L75.8438 72.8594H73.4375V72H76.4844V72.8594C76.4844 73.5182 76.3438 74.0911 76.0625 74.5781C75.7839 75.0651 75.3984 75.4427 74.9062 75.7109C74.4167 75.9766 73.8542 76.1094 73.2188 76.1094C72.5104 76.1094 71.888 75.9427 71.3516 75.6094C70.8177 75.276 70.401 74.8021 70.1016 74.1875C69.8047 73.5729 69.6563 72.8437 69.6563 72C69.6563 71.3672 69.7409 70.7982 69.9102 70.293C70.082 69.7852 70.3242 69.3529 70.6367 68.9961C70.9492 68.6393 71.319 68.3659 71.7461 68.1758C72.1732 67.9857 72.6432 67.8906 73.1562 67.8906C73.5781 67.8906 73.9714 67.9544 74.3359 68.082C74.7031 68.207 75.0299 68.3854 75.3164 68.6172C75.6055 68.8464 75.8464 69.1211 76.0391 69.4414C76.2318 69.7591 76.3646 70.112 76.4375 70.5H75.4375ZM78.0186 76V70H78.9092V70.9062H78.9717C79.0811 70.6094 79.279 70.3685 79.5654 70.1836C79.8519 69.9987 80.1748 69.9062 80.5342 69.9062C80.6019 69.9062 80.6865 69.9076 80.7881 69.9102C80.8896 69.9128 80.9665 69.9167 81.0186 69.9219V70.8594C80.9873 70.8516 80.9157 70.8398 80.8037 70.8242C80.6943 70.806 80.5785 70.7969 80.4561 70.7969C80.1644 70.7969 79.904 70.8581 79.6748 70.9805C79.4482 71.1003 79.2686 71.2669 79.1357 71.4805C79.0055 71.6914 78.9404 71.9323 78.9404 72.2031V76H78.0186ZM84.3662 76.125C83.8245 76.125 83.3493 75.9961 82.9404 75.7383C82.5342 75.4805 82.2165 75.1198 81.9873 74.6562C81.7607 74.1927 81.6475 73.651 81.6475 73.0312C81.6475 72.4062 81.7607 71.8607 81.9873 71.3945C82.2165 70.9284 82.5342 70.5664 82.9404 70.3086C83.3493 70.0508 83.8245 69.9219 84.3662 69.9219C84.9079 69.9219 85.3818 70.0508 85.7881 70.3086C86.1969 70.5664 86.5146 70.9284 86.7412 71.3945C86.9704 71.8607 87.085 72.4062 87.085 73.0312C87.085 73.651 86.9704 74.1927 86.7412 74.6562C86.5146 75.1198 86.1969 75.4805 85.7881 75.7383C85.3818 75.9961 84.9079 76.125 84.3662 76.125ZM84.3662 75.2969C84.7777 75.2969 85.1162 75.1914 85.3818 74.9805C85.6475 74.7695 85.8441 74.4922 85.9717 74.1484C86.0993 73.8047 86.1631 73.4323 86.1631 73.0312C86.1631 72.6302 86.0993 72.2565 85.9717 71.9102C85.8441 71.5638 85.6475 71.2839 85.3818 71.0703C85.1162 70.8568 84.7777 70.75 84.3662 70.75C83.9548 70.75 83.6162 70.8568 83.3506 71.0703C83.085 71.2839 82.8883 71.5638 82.7607 71.9102C82.6331 72.2565 82.5693 72.6302 82.5693 73.0312C82.5693 73.4323 82.6331 73.8047 82.7607 74.1484C82.8883 74.4922 83.085 74.7695 83.3506 74.9805C83.6162 75.1914 83.9548 75.2969 84.3662 75.2969ZM92.2734 73.5469V70H93.1953V76H92.2734V74.9844H92.2109C92.0703 75.2891 91.8516 75.5482 91.5547 75.7617C91.2578 75.9727 90.8828 76.0781 90.4297 76.0781C90.0547 76.0781 89.7214 75.9961 89.4297 75.832C89.138 75.6654 88.9089 75.4154 88.7422 75.082C88.5755 74.7461 88.4922 74.3229 88.4922 73.8125V70H89.4141V73.75C89.4141 74.1875 89.5365 74.5365 89.7813 74.7969C90.0286 75.0573 90.3438 75.1875 90.7266 75.1875C90.9557 75.1875 91.1888 75.1289 91.4258 75.0117C91.6654 74.8945 91.8659 74.7148 92.0273 74.4727C92.1914 74.2305 92.2734 73.9219 92.2734 73.5469ZM94.8838 78.25V70H95.7744V70.9531H95.8838C95.9515 70.849 96.0452 70.7161 96.165 70.5547C96.2874 70.3906 96.4619 70.2448 96.6885 70.1172C96.9176 69.987 97.2275 69.9219 97.6182 69.9219C98.1234 69.9219 98.5687 70.0482 98.9541 70.3008C99.3395 70.5534 99.6403 70.9115 99.8564 71.375C100.073 71.8385 100.181 72.3854 100.181 73.0156C100.181 73.651 100.073 74.2018 99.8564 74.668C99.6403 75.1315 99.3408 75.4909 98.958 75.7461C98.5752 75.9987 98.1338 76.125 97.6338 76.125C97.2484 76.125 96.9398 76.0612 96.708 75.9336C96.4762 75.8034 96.2979 75.6562 96.1729 75.4922C96.0479 75.3255 95.9515 75.1875 95.8838 75.0781H95.8057V78.25H94.8838ZM95.79 73C95.79 73.4531 95.8564 73.8529 95.9893 74.1992C96.1221 74.543 96.3161 74.8125 96.5713 75.0078C96.8265 75.2005 97.139 75.2969 97.5088 75.2969C97.8942 75.2969 98.2158 75.1953 98.4736 74.9922C98.734 74.7865 98.9294 74.5104 99.0596 74.1641C99.1924 73.8151 99.2588 73.4271 99.2588 73C99.2588 72.5781 99.1937 72.1979 99.0635 71.8594C98.9359 71.5182 98.7419 71.2487 98.4814 71.0508C98.2236 70.8503 97.8994 70.75 97.5088 70.75C97.1338 70.75 96.8187 70.8451 96.5635 71.0352C96.3083 71.2227 96.1156 71.4857 95.9854 71.8242C95.8551 72.1602 95.79 72.5521 95.79 73ZM104.665 76V75.2969L107.306 72.4062C107.616 72.0677 107.871 71.7734 108.071 71.5234C108.272 71.2708 108.42 71.0339 108.517 70.8125C108.616 70.5885 108.665 70.3542 108.665 70.1094C108.665 69.8281 108.597 69.5846 108.462 69.3789C108.329 69.1732 108.147 69.0143 107.915 68.9023C107.683 68.7904 107.423 68.7344 107.134 68.7344C106.826 68.7344 106.558 68.7982 106.329 68.9258C106.103 69.0508 105.927 69.2266 105.802 69.4531C105.679 69.6797 105.618 69.9453 105.618 70.25H104.696C104.696 69.7812 104.804 69.3698 105.021 69.0156C105.237 68.6615 105.531 68.3854 105.903 68.1875C106.278 67.9896 106.699 67.8906 107.165 67.8906C107.634 67.8906 108.049 67.9896 108.411 68.1875C108.773 68.3854 109.057 68.6523 109.263 68.9883C109.468 69.3242 109.571 69.6979 109.571 70.1094C109.571 70.4036 109.518 70.6914 109.411 70.9727C109.307 71.2513 109.125 71.5625 108.864 71.9062C108.606 72.2474 108.248 72.6641 107.79 73.1562L105.993 75.0781V75.1406H109.712V76H104.665Z" class="text"/>
<circle cx="55" cy="48.5" r="4.5" stroke="#888888"/>
<path d="M69.9688 53V45H74.7969V45.8594H70.9375V48.5625H74.5469V49.4219H70.9375V52.1406H74.8594V53H69.9688ZM77.3398 45V53H76.418V45H77.3398ZM79.9502 45V53H79.0283V45H79.9502ZM81.6387 53V47H82.5605V53H81.6387ZM82.1074 46C81.9277 46 81.7728 45.9388 81.6426 45.8164C81.515 45.694 81.4512 45.5469 81.4512 45.375C81.4512 45.2031 81.515 45.056 81.6426 44.9336C81.7728 44.8112 81.9277 44.75 82.1074 44.75C82.2871 44.75 82.4408 44.8112 82.5684 44.9336C82.6986 45.056 82.7637 45.2031 82.7637 45.375C82.7637 45.5469 82.6986 45.694 82.5684 45.8164C82.4408 45.9388 82.2871 46 82.1074 46ZM84.249 55.25V47H85.1396V47.9531H85.249C85.3167 47.849 85.4105 47.7161 85.5303 47.5547C85.6527 47.3906 85.8271 47.2448 86.0537 47.1172C86.2829 46.987 86.5928 46.9219 86.9834 46.9219C87.4886 46.9219 87.9339 47.0482 88.3193 47.3008C88.7048 47.5534 89.0055 47.9115 89.2217 48.375C89.4378 48.8385 89.5459 49.3854 89.5459 50.0156C89.5459 50.651 89.4378 51.2018 89.2217 51.668C89.0055 52.1315 88.7061 52.4909 88.3232 52.7461C87.9404 52.9987 87.499 53.125 86.999 53.125C86.6136 53.125 86.305 53.0612 86.0732 52.9336C85.8415 52.8034 85.6631 52.6562 85.5381 52.4922C85.4131 52.3255 85.3167 52.1875 85.249 52.0781H85.1709V55.25H84.249ZM85.1553 50C85.1553 50.4531 85.2217 50.8529 85.3545 51.1992C85.4873 51.543 85.6813 51.8125 85.9365 52.0078C86.1917 52.2005 86.5042 52.2969 86.874 52.2969C87.2594 52.2969 87.5811 52.1953 87.8389 51.9922C88.0993 51.7865 88.2946 51.5104 88.4248 51.1641C88.5576 50.8151 88.624 50.4271 88.624 50C88.624 49.5781 88.5589 49.1979 88.4287 48.8594C88.3011 48.5182 88.1071 48.2487 87.8467 48.0508C87.5889 47.8503 87.2646 47.75 86.874 47.75C86.499 47.75 86.1839 47.8451 85.9287 48.0352C85.6735 48.2227 85.4808 48.4857 85.3506 48.8242C85.2204 49.1602 85.1553 49.5521 85.1553 50ZM95.2021 48.3437L94.374 48.5781C94.3219 48.4401 94.2451 48.306 94.1436 48.1758C94.0446 48.043 93.9092 47.9336 93.7373 47.8477C93.5654 47.7617 93.3454 47.7187 93.0771 47.7187C92.71 47.7187 92.404 47.8034 92.1592 47.9727C91.917 48.1393 91.7959 48.3516 91.7959 48.6094C91.7959 48.8385 91.8792 49.0195 92.0459 49.1523C92.2126 49.2852 92.473 49.3958 92.8271 49.4844L93.7178 49.7031C94.2542 49.8333 94.654 50.0326 94.917 50.3008C95.18 50.5664 95.3115 50.9089 95.3115 51.3281C95.3115 51.6719 95.2126 51.9792 95.0146 52.25C94.8193 52.5208 94.5459 52.7344 94.1943 52.8906C93.8428 53.0469 93.4339 53.125 92.9678 53.125C92.3558 53.125 91.8493 52.9922 91.4482 52.7266C91.0472 52.4609 90.7933 52.0729 90.6865 51.5625L91.5615 51.3437C91.6449 51.6667 91.8024 51.9089 92.0342 52.0703C92.2686 52.2318 92.5745 52.3125 92.9521 52.3125C93.3818 52.3125 93.723 52.2214 93.9756 52.0391C94.2308 51.8542 94.3584 51.6328 94.3584 51.375C94.3584 51.1667 94.2855 50.9922 94.1396 50.8516C93.9938 50.7083 93.7699 50.6016 93.4678 50.5312L92.4678 50.2969C91.9183 50.1667 91.5146 49.9648 91.2568 49.6914C91.0016 49.4154 90.874 49.0703 90.874 48.6562C90.874 48.3177 90.9691 48.0182 91.1592 47.7578C91.3519 47.4974 91.6136 47.293 91.9443 47.1445C92.2777 46.9961 92.6553 46.9219 93.0771 46.9219C93.6709 46.9219 94.137 47.0521 94.4756 47.3125C94.8167 47.5729 95.0589 47.9167 95.2021 48.3437ZM99.2148 53.125C98.6367 53.125 98.138 52.9974 97.7187 52.7422C97.3021 52.4844 96.9805 52.125 96.7539 51.6641C96.5299 51.2005 96.418 50.6615 96.418 50.0469C96.418 49.4323 96.5299 48.8906 96.7539 48.4219C96.9805 47.9505 97.2956 47.5833 97.6992 47.3203C98.1055 47.0547 98.5794 46.9219 99.1211 46.9219C99.4336 46.9219 99.7422 46.974 100.047 47.0781C100.352 47.1823 100.629 47.3516 100.879 47.5859C101.129 47.8177 101.328 48.125 101.477 48.5078C101.625 48.8906 101.699 49.362 101.699 49.9219V50.3125H97.0742V49.5156H100.762C100.762 49.1771 100.694 48.875 100.559 48.6094C100.426 48.3437 100.236 48.1341 99.9883 47.9805C99.7435 47.8268 99.4544 47.75 99.1211 47.75C98.7539 47.75 98.4362 47.8411 98.168 48.0234C97.9023 48.2031 97.6979 48.4375 97.5547 48.7266C97.4115 49.0156 97.3398 49.3255 97.3398 49.6562V50.1875C97.3398 50.6406 97.418 51.0247 97.5742 51.3398C97.7331 51.6523 97.9531 51.8906 98.2344 52.0547C98.5156 52.2161 98.8424 52.2969 99.2148 52.2969C99.457 52.2969 99.6758 52.263 99.8711 52.1953C100.069 52.125 100.24 52.0208 100.383 51.8828C100.526 51.7422 100.637 51.5677 100.715 51.3594L101.605 51.6094C101.512 51.9115 101.354 52.1771 101.133 52.4062C100.911 52.6328 100.638 52.8099 100.312 52.9375C99.987 53.0625 99.6211 53.125 99.2148 53.125ZM108.992 45V53H108.023V46.0156H107.977L106.023 47.3125V46.3281L108.023 45H108.992Z" class="text"/>
<path opacity="0.5" d="M15 23.5H21L18 27.5L15 23.5Z" fill="#888"/>
<rect x="30.5" y="21" width="9" height="9" stroke="#888888" stroke-dasharray="3 3"/>
<path d="M55.4375 24.5C55.3516 24.237 55.2383 24.0013 55.0977 23.793C54.9596 23.582 54.7943 23.4023 54.6016 23.2539C54.4115 23.1055 54.1953 22.9922 53.9531 22.9141C53.7109 22.8359 53.4453 22.7969 53.1562 22.7969C52.6823 22.7969 52.2513 22.9193 51.8633 23.1641C51.4753 23.4089 51.1667 23.7695 50.9375 24.2461C50.7083 24.7227 50.5938 25.3073 50.5938 26C50.5938 26.6927 50.7096 27.2773 50.9414 27.7539C51.1732 28.2305 51.487 28.5911 51.8828 28.8359C52.2786 29.0807 52.724 29.2031 53.2188 29.2031C53.6771 29.2031 54.0807 29.1055 54.4297 28.9102C54.7813 28.7122 55.0547 28.4336 55.25 28.0742C55.4479 27.7122 55.5469 27.2865 55.5469 26.7969L55.8438 26.8594H53.4375V26H56.4844V26.8594C56.4844 27.5182 56.3438 28.0911 56.0625 28.5781C55.7839 29.0651 55.3984 29.4427 54.9062 29.7109C54.4167 29.9766 53.8542 30.1094 53.2188 30.1094C52.5104 30.1094 51.888 29.9427 51.3516 29.6094C50.8177 29.276 50.401 28.8021 50.1016 28.1875C49.8047 27.5729 49.6563 26.8437 49.6563 26C49.6563 25.3672 49.7409 24.7982 49.9102 24.293C50.082 23.7852 50.3242 23.3529 50.6367 22.9961C50.9492 22.6393 51.319 22.3659 51.7461 22.1758C52.1732 21.9857 52.6432 21.8906 53.1562 21.8906C53.5781 21.8906 53.9714 21.9544 54.3359 22.082C54.7031 22.207 55.0299 22.3854 55.3164 22.6172C55.6055 22.8464 55.8464 23.1211 56.0391 23.4414C56.2318 23.7591 56.3646 24.112 56.4375 24.5H55.4375ZM58.0186 30V24H58.9092V24.9062H58.9717C59.0811 24.6094 59.279 24.3685 59.5654 24.1836C59.8519 23.9987 60.1748 23.9062 60.5342 23.9062C60.6019 23.9062 60.6865 23.9076 60.7881 23.9102C60.8896 23.9128 60.9665 23.9167 61.0186 23.9219V24.8594C60.9873 24.8516 60.9157 24.8398 60.8037 24.8242C60.6943 24.806 60.5785 24.7969 60.4561 24.7969C60.1644 24.7969 59.904 24.8581 59.6748 24.9805C59.4482 25.1003 59.2686 25.2669 59.1357 25.4805C59.0055 25.6914 58.9404 25.9323 58.9404 26.2031V30H58.0186ZM64.3662 30.125C63.8245 30.125 63.3493 29.9961 62.9404 29.7383C62.5342 29.4805 62.2165 29.1198 61.9873 28.6562C61.7607 28.1927 61.6475 27.651 61.6475 27.0312C61.6475 26.4062 61.7607 25.8607 61.9873 25.3945C62.2165 24.9284 62.5342 24.5664 62.9404 24.3086C63.3493 24.0508 63.8245 23.9219 64.3662 23.9219C64.9079 23.9219 65.3818 24.0508 65.7881 24.3086C66.1969 24.5664 66.5146 24.9284 66.7412 25.3945C66.9704 25.8607 67.085 26.4062 67.085 27.0312C67.085 27.651 66.9704 28.1927 66.7412 28.6562C66.5146 29.1198 66.1969 29.4805 65.7881 29.7383C65.3818 29.9961 64.9079 30.125 64.3662 30.125ZM64.3662 29.2969C64.7777 29.2969 65.1162 29.1914 65.3818 28.9805C65.6475 28.7695 65.8441 28.4922 65.9717 28.1484C66.0993 27.8047 66.1631 27.4323 66.1631 27.0312C66.1631 26.6302 66.0993 26.2565 65.9717 25.9102C65.8441 25.5638 65.6475 25.2839 65.3818 25.0703C65.1162 24.8568 64.7777 24.75 64.3662 24.75C63.9548 24.75 63.6162 24.8568 63.3506 25.0703C63.085 25.2839 62.8883 25.5638 62.7607 25.9102C62.6331 26.2565 62.5693 26.6302 62.5693 27.0312C62.5693 27.4323 62.6331 27.8047 62.7607 28.1484C62.8883 28.4922 63.085 28.7695 63.3506 28.9805C63.6162 29.1914 63.9548 29.2969 64.3662 29.2969ZM72.2734 27.5469V24H73.1953V30H72.2734V28.9844H72.2109C72.0703 29.2891 71.8516 29.5482 71.5547 29.7617C71.2578 29.9727 70.8828 30.0781 70.4297 30.0781C70.0547 30.0781 69.7214 29.9961 69.4297 29.832C69.138 29.6654 68.9089 29.4154 68.7422 29.082C68.5755 28.7461 68.4922 28.3229 68.4922 27.8125V24H69.4141V27.75C69.4141 28.1875 69.5365 28.5365 69.7813 28.7969C70.0286 29.0573 70.3438 29.1875 70.7266 29.1875C70.9557 29.1875 71.1888 29.1289 71.4258 29.0117C71.6654 28.8945 71.8659 28.7148 72.0273 28.4727C72.1914 28.2305 72.2734 27.9219 72.2734 27.5469ZM74.8838 32.25V24H75.7744V24.9531H75.8838C75.9515 24.849 76.0452 24.7161 76.165 24.5547C76.2874 24.3906 76.4619 24.2448 76.6885 24.1172C76.9176 23.987 77.2275 23.9219 77.6182 23.9219C78.1234 23.9219 78.5687 24.0482 78.9541 24.3008C79.3395 24.5534 79.6403 24.9115 79.8564 25.375C80.0726 25.8385 80.1807 26.3854 80.1807 27.0156C80.1807 27.651 80.0726 28.2018 79.8564 28.668C79.6403 29.1315 79.3408 29.4909 78.958 29.7461C78.5752 29.9987 78.1338 30.125 77.6338 30.125C77.2484 30.125 76.9398 30.0612 76.708 29.9336C76.4762 29.8034 76.2979 29.6562 76.1729 29.4922C76.0479 29.3255 75.9515 29.1875 75.8838 29.0781H75.8057V32.25H74.8838ZM75.79 27C75.79 27.4531 75.8564 27.8529 75.9893 28.1992C76.1221 28.543 76.3161 28.8125 76.5713 29.0078C76.8265 29.2005 77.139 29.2969 77.5088 29.2969C77.8942 29.2969 78.2158 29.1953 78.4736 28.9922C78.734 28.7865 78.9294 28.5104 79.0596 28.1641C79.1924 27.8151 79.2588 27.4271 79.2588 27C79.2588 26.5781 79.1937 26.1979 79.0635 25.8594C78.9359 25.5182 78.7419 25.2487 78.4814 25.0508C78.2236 24.8503 77.8994 24.75 77.5088 24.75C77.1338 24.75 76.8187 24.8451 76.5635 25.0352C76.3083 25.2227 76.1156 25.4857 75.9854 25.8242C75.8551 26.1602 75.79 26.5521 75.79 27ZM87.4775 22V30H86.5088V23.0156H86.4619L84.5088 24.3125V23.3281L86.5088 22H87.4775Z" class="text"/>
<path d="M71 90.25H75.5M80 90.25H75.5M75.5 90.25V99.25M73.5 99.25H77.5M80 89.75V92.75M71 89.75V92.75" stroke="#808080"/>
<path d="M89.5313 91.8594V91H95.5312V91.8594H93.0156V99H92.0469V91.8594H89.5313ZM98.5469 99.125C97.9688 99.125 97.4701 98.9974 97.0508 98.7422C96.6341 98.4844 96.3125 98.125 96.0859 97.6641C95.862 97.2005 95.75 96.6615 95.75 96.0469C95.75 95.4323 95.862 94.8906 96.0859 94.4219C96.3125 93.9505 96.6276 93.5833 97.0313 93.3203C97.4375 93.0547 97.9115 92.9219 98.4531 92.9219C98.7656 92.9219 99.0742 92.974 99.3789 93.0781C99.6836 93.1823 99.9609 93.3516 100.211 93.5859C100.461 93.8177 100.66 94.125 100.809 94.5078C100.957 94.8906 101.031 95.362 101.031 95.9219V96.3125H96.4063V95.5156H100.094C100.094 95.1771 100.026 94.875 99.8906 94.6094C99.7578 94.3437 99.5677 94.1341 99.3203 93.9805C99.0755 93.8268 98.7865 93.75 98.4531 93.75C98.0859 93.75 97.7682 93.8411 97.5 94.0234C97.2344 94.2031 97.0299 94.4375 96.8867 94.7266C96.7435 95.0156 96.6719 95.3255 96.6719 95.6562V96.1875C96.6719 96.6406 96.75 97.0247 96.9062 97.3398C97.0651 97.6523 97.2852 97.8906 97.5664 98.0547C97.8477 98.2161 98.1745 98.2969 98.5469 98.2969C98.7891 98.2969 99.0078 98.263 99.2031 98.1953C99.401 98.125 99.5716 98.0208 99.7148 97.8828C99.8581 97.7422 99.9688 97.5677 100.047 97.3594L100.938 97.6094C100.844 97.9115 100.686 98.1771 100.465 98.4062C100.243 98.6328 99.9701 98.8099 99.6445 98.9375C99.319 99.0625 98.9531 99.125 98.5469 99.125ZM102.96 93L104.397 95.4531L105.835 93H106.897L104.96 96L106.897 99H105.835L104.397 96.6719L102.96 99H101.897L103.804 96L101.897 93H102.96ZM110.822 93V93.7812H107.713V93H110.822ZM108.619 91.5625H109.541V97.2812C109.541 97.5417 109.579 97.737 109.654 97.8672C109.732 97.9948 109.831 98.0807 109.951 98.125C110.074 98.1667 110.202 98.1875 110.338 98.1875C110.439 98.1875 110.523 98.1823 110.588 98.1719C110.653 98.1589 110.705 98.1484 110.744 98.1406L110.932 98.9687C110.869 98.9922 110.782 99.0156 110.67 99.0391C110.558 99.0651 110.416 99.0781 110.244 99.0781C109.984 99.0781 109.729 99.0221 109.479 98.9102C109.231 98.7982 109.025 98.6276 108.861 98.3984C108.7 98.1693 108.619 97.8802 108.619 97.5312V91.5625ZM115.428 99V91H116.396V98.1406H120.115V99H115.428ZM123.256 99.1406C122.876 99.1406 122.531 99.069 122.221 98.9258C121.911 98.7799 121.665 98.5703 121.482 98.2969C121.3 98.0208 121.209 97.6875 121.209 97.2969C121.209 96.9531 121.277 96.6745 121.412 96.4609C121.548 96.2448 121.729 96.0755 121.955 95.9531C122.182 95.8307 122.432 95.7396 122.705 95.6797C122.981 95.6172 123.258 95.5677 123.537 95.5313C123.902 95.4844 124.197 95.4492 124.424 95.4258C124.653 95.3997 124.82 95.3568 124.924 95.2969C125.031 95.237 125.084 95.1328 125.084 94.9844V94.9531C125.084 94.5677 124.979 94.2682 124.768 94.0547C124.559 93.8411 124.243 93.7344 123.818 93.7344C123.378 93.7344 123.033 93.8307 122.783 94.0234C122.533 94.2161 122.357 94.4219 122.256 94.6406L121.381 94.3281C121.537 93.9635 121.745 93.6797 122.006 93.4766C122.269 93.2708 122.555 93.1276 122.865 93.0469C123.178 92.9635 123.485 92.9219 123.787 92.9219C123.98 92.9219 124.201 92.9453 124.451 92.9922C124.704 93.0365 124.947 93.1289 125.182 93.2695C125.419 93.4102 125.615 93.6224 125.771 93.9062C125.928 94.1901 126.006 94.5703 126.006 95.0469V99H125.084V98.1875H125.037C124.975 98.3177 124.87 98.457 124.725 98.6055C124.579 98.7539 124.385 98.8802 124.143 98.9844C123.9 99.0885 123.605 99.1406 123.256 99.1406ZM123.396 98.3125C123.761 98.3125 124.068 98.2409 124.318 98.0977C124.571 97.9544 124.761 97.7695 124.889 97.543C125.019 97.3164 125.084 97.0781 125.084 96.8281V95.9844C125.045 96.0312 124.959 96.0742 124.826 96.1133C124.696 96.1497 124.545 96.1823 124.373 96.2109C124.204 96.237 124.038 96.2604 123.877 96.2812C123.718 96.2995 123.589 96.3151 123.49 96.3281C123.251 96.3594 123.027 96.4102 122.818 96.4805C122.613 96.5482 122.446 96.651 122.318 96.7891C122.193 96.9245 122.131 97.1094 122.131 97.3437C122.131 97.6641 122.249 97.9062 122.486 98.0703C122.726 98.2318 123.029 98.3125 123.396 98.3125ZM128.067 101.25C127.911 101.25 127.772 101.237 127.649 101.211C127.527 101.188 127.442 101.164 127.396 101.141L127.63 100.328C127.854 100.385 128.052 100.406 128.224 100.391C128.396 100.375 128.548 100.298 128.681 100.16C128.816 100.025 128.94 99.8047 129.052 99.5L129.224 99.0313L127.005 93H128.005L129.661 97.7812H129.724L131.38 93H132.38L129.833 99.875C129.718 100.185 129.576 100.441 129.407 100.645C129.238 100.85 129.041 101.003 128.817 101.102C128.596 101.201 128.346 101.25 128.067 101.25ZM135.897 99.125C135.319 99.125 134.821 98.9974 134.401 98.7422C133.985 98.4844 133.663 98.125 133.437 97.6641C133.213 97.2005 133.101 96.6615 133.101 96.0469C133.101 95.4323 133.213 94.8906 133.437 94.4219C133.663 93.9505 133.978 93.5833 134.382 93.3203C134.788 93.0547 135.262 92.9219 135.804 92.9219C136.116 92.9219 136.425 92.974 136.729 93.0781C137.034 93.1823 137.312 93.3516 137.562 93.5859C137.812 93.8177 138.011 94.125 138.159 94.5078C138.308 94.8906 138.382 95.362 138.382 95.9219V96.3125H133.757V95.5156H137.444C137.444 95.1771 137.377 94.875 137.241 94.6094C137.108 94.3437 136.918 94.1341 136.671 93.9805C136.426 93.8268 136.137 93.75 135.804 93.75C135.437 93.75 135.119 93.8411 134.851 94.0234C134.585 94.2031 134.381 94.4375 134.237 94.7266C134.094 95.0156 134.022 95.3255 134.022 95.6562V96.1875C134.022 96.6406 134.101 97.0247 134.257 97.3398C134.416 97.6523 134.636 97.8906 134.917 98.0547C135.198 98.2161 135.525 98.2969 135.897 98.2969C136.14 98.2969 136.358 98.263 136.554 98.1953C136.752 98.125 136.922 98.0208 137.065 97.8828C137.209 97.7422 137.319 97.5677 137.397 97.3594L138.288 97.6094C138.194 97.9115 138.037 98.1771 137.815 98.4062C137.594 98.6328 137.321 98.8099 136.995 98.9375C136.67 99.0625 136.304 99.125 135.897 99.125ZM139.784 99V93H140.675V93.9062H140.737C140.847 93.6094 141.045 93.3685 141.331 93.1836C141.618 92.9987 141.94 92.9062 142.3 92.9062C142.368 92.9062 142.452 92.9076 142.554 92.9102C142.655 92.9128 142.732 92.9167 142.784 92.9219V93.8594C142.753 93.8516 142.681 93.8398 142.569 93.8242C142.46 93.806 142.344 93.7969 142.222 93.7969C141.93 93.7969 141.67 93.8581 141.44 93.9805C141.214 94.1003 141.034 94.2669 140.901 94.4805C140.771 94.6914 140.706 94.9323 140.706 95.2031V99H139.784ZM149.768 91V99H148.799V92.0156H148.752L146.799 93.3125V92.3281L148.799 91H149.768Z" class="text"/>
<path d="M71 113.25H75.5M80 113.25H75.5M75.5 113.25V122.25M73.5 122.25H77.5M80 112.75V115.75M71 112.75V115.75" stroke="#808080"/>
<path d="M89.5313 114.859V114H95.5312V114.859H93.0156V122H92.0469V114.859H89.5313ZM98.5469 122.125C97.9688 122.125 97.4701 121.997 97.0508 121.742C96.6341 121.484 96.3125 121.125 96.0859 120.664C95.862 120.201 95.75 119.661 95.75 119.047C95.75 118.432 95.862 117.891 96.0859 117.422C96.3125 116.951 96.6276 116.583 97.0313 116.32C97.4375 116.055 97.9115 115.922 98.4531 115.922C98.7656 115.922 99.0742 115.974 99.3789 116.078C99.6836 116.182 99.9609 116.352 100.211 116.586C100.461 116.818 100.66 117.125 100.809 117.508C100.957 117.891 101.031 118.362 101.031 118.922V119.312H96.4063V118.516H100.094C100.094 118.177 100.026 117.875 99.8906 117.609C99.7578 117.344 99.5677 117.134 99.3203 116.98C99.0755 116.827 98.7865 116.75 98.4531 116.75C98.0859 116.75 97.7682 116.841 97.5 117.023C97.2344 117.203 97.0299 117.437 96.8867 117.727C96.7435 118.016 96.6719 118.326 96.6719 118.656V119.188C96.6719 119.641 96.75 120.025 96.9062 120.34C97.0651 120.652 97.2852 120.891 97.5664 121.055C97.8477 121.216 98.1745 121.297 98.5469 121.297C98.7891 121.297 99.0078 121.263 99.2031 121.195C99.401 121.125 99.5716 121.021 99.7148 120.883C99.8581 120.742 99.9688 120.568 100.047 120.359L100.938 120.609C100.844 120.911 100.686 121.177 100.465 121.406C100.243 121.633 99.9701 121.81 99.6445 121.937C99.319 122.063 98.9531 122.125 98.5469 122.125ZM102.96 116L104.397 118.453L105.835 116H106.897L104.96 119L106.897 122H105.835L104.397 119.672L102.96 122H101.897L103.804 119L101.897 116H102.96ZM110.822 116V116.781H107.713V116H110.822ZM108.619 114.562H109.541V120.281C109.541 120.542 109.579 120.737 109.654 120.867C109.732 120.995 109.831 121.081 109.951 121.125C110.074 121.167 110.202 121.187 110.338 121.187C110.439 121.187 110.523 121.182 110.588 121.172C110.653 121.159 110.705 121.148 110.744 121.141L110.932 121.969C110.869 121.992 110.782 122.016 110.67 122.039C110.558 122.065 110.416 122.078 110.244 122.078C109.984 122.078 109.729 122.022 109.479 121.91C109.231 121.798 109.025 121.628 108.861 121.398C108.7 121.169 108.619 120.88 108.619 120.531V114.562ZM115.428 122V114H116.396V121.141H120.115V122H115.428ZM123.256 122.141C122.876 122.141 122.531 122.069 122.221 121.926C121.911 121.78 121.665 121.57 121.482 121.297C121.3 121.021 121.209 120.687 121.209 120.297C121.209 119.953 121.277 119.674 121.412 119.461C121.548 119.245 121.729 119.076 121.955 118.953C122.182 118.831 122.432 118.74 122.705 118.68C122.981 118.617 123.258 118.568 123.537 118.531C123.902 118.484 124.197 118.449 124.424 118.426C124.653 118.4 124.82 118.357 124.924 118.297C125.031 118.237 125.084 118.133 125.084 117.984V117.953C125.084 117.568 124.979 117.268 124.768 117.055C124.559 116.841 124.243 116.734 123.818 116.734C123.378 116.734 123.033 116.831 122.783 117.023C122.533 117.216 122.357 117.422 122.256 117.641L121.381 117.328C121.537 116.964 121.745 116.68 122.006 116.477C122.269 116.271 122.555 116.128 122.865 116.047C123.178 115.964 123.485 115.922 123.787 115.922C123.98 115.922 124.201 115.945 124.451 115.992C124.704 116.036 124.947 116.129 125.182 116.27C125.419 116.41 125.615 116.622 125.771 116.906C125.928 117.19 126.006 117.57 126.006 118.047V122H125.084V121.187H125.037C124.975 121.318 124.87 121.457 124.725 121.605C124.579 121.754 124.385 121.88 124.143 121.984C123.9 122.089 123.605 122.141 123.256 122.141ZM123.396 121.312C123.761 121.312 124.068 121.241 124.318 121.098C124.571 120.954 124.761 120.77 124.889 120.543C125.019 120.316 125.084 120.078 125.084 119.828V118.984C125.045 119.031 124.959 119.074 124.826 119.113C124.696 119.15 124.545 119.182 124.373 119.211C124.204 119.237 124.038 119.26 123.877 119.281C123.718 119.299 123.589 119.315 123.49 119.328C123.251 119.359 123.027 119.41 122.818 119.48C122.613 119.548 122.446 119.651 122.318 119.789C122.193 119.924 122.131 120.109 122.131 120.344C122.131 120.664 122.249 120.906 122.486 121.07C122.726 121.232 123.029 121.312 123.396 121.312ZM128.067 124.25C127.911 124.25 127.772 124.237 127.649 124.211C127.527 124.188 127.442 124.164 127.396 124.141L127.63 123.328C127.854 123.385 128.052 123.406 128.224 123.391C128.396 123.375 128.548 123.298 128.681 123.16C128.816 123.025 128.94 122.805 129.052 122.5L129.224 122.031L127.005 116H128.005L129.661 120.781H129.724L131.38 116H132.38L129.833 122.875C129.718 123.185 129.576 123.441 129.407 123.645C129.238 123.85 129.041 124.003 128.817 124.102C128.596 124.201 128.346 124.25 128.067 124.25ZM135.897 122.125C135.319 122.125 134.821 121.997 134.401 121.742C133.985 121.484 133.663 121.125 133.437 120.664C133.213 120.201 133.101 119.661 133.101 119.047C133.101 118.432 133.213 117.891 133.437 117.422C133.663 116.951 133.978 116.583 134.382 116.32C134.788 116.055 135.262 115.922 135.804 115.922C136.116 115.922 136.425 115.974 136.729 116.078C137.034 116.182 137.312 116.352 137.562 116.586C137.812 116.818 138.011 117.125 138.159 117.508C138.308 117.891 138.382 118.362 138.382 118.922V119.312H133.757V118.516H137.444C137.444 118.177 137.377 117.875 137.241 117.609C137.108 117.344 136.918 117.134 136.671 116.98C136.426 116.827 136.137 116.75 135.804 116.75C135.437 116.75 135.119 116.841 134.851 117.023C134.585 117.203 134.381 117.437 134.237 117.727C134.094 118.016 134.022 118.326 134.022 118.656V119.188C134.022 119.641 134.101 120.025 134.257 120.34C134.416 120.652 134.636 120.891 134.917 121.055C135.198 121.216 135.525 121.297 135.897 121.297C136.14 121.297 136.358 121.263 136.554 121.195C136.752 121.125 136.922 121.021 137.065 120.883C137.209 120.742 137.319 120.568 137.397 120.359L138.288 120.609C138.194 120.911 138.037 121.177 137.815 121.406C137.594 121.633 137.321 121.81 136.995 121.937C136.67 122.063 136.304 122.125 135.897 122.125ZM139.784 122V116H140.675V116.906H140.737C140.847 116.609 141.045 116.368 141.331 116.184C141.618 115.999 141.94 115.906 142.3 115.906C142.368 115.906 142.452 115.908 142.554 115.91C142.655 115.913 142.732 115.917 142.784 115.922V116.859C142.753 116.852 142.681 116.84 142.569 116.824C142.46 116.806 142.344 116.797 142.222 116.797C141.93 116.797 141.67 116.858 141.44 116.98C141.214 117.1 141.034 117.267 140.901 117.48C140.771 117.691 140.706 117.932 140.706 118.203V122H139.784ZM146.955 122V121.297L149.596 118.406C149.906 118.068 150.161 117.773 150.361 117.523C150.562 117.271 150.71 117.034 150.807 116.812C150.906 116.589 150.955 116.354 150.955 116.109C150.955 115.828 150.887 115.585 150.752 115.379C150.619 115.173 150.437 115.014 150.205 114.902C149.973 114.79 149.713 114.734 149.424 114.734C149.117 114.734 148.848 114.798 148.619 114.926C148.393 115.051 148.217 115.227 148.092 115.453C147.969 115.68 147.908 115.945 147.908 116.25H146.986C146.986 115.781 147.094 115.37 147.311 115.016C147.527 114.661 147.821 114.385 148.193 114.187C148.568 113.99 148.989 113.891 149.455 113.891C149.924 113.891 150.339 113.99 150.701 114.187C151.063 114.385 151.347 114.652 151.553 114.988C151.758 115.324 151.861 115.698 151.861 116.109C151.861 116.404 151.808 116.691 151.701 116.973C151.597 117.251 151.415 117.562 151.154 117.906C150.896 118.247 150.538 118.664 150.08 119.156L148.283 121.078V121.141H152.002V122H146.955Z" class="text"/>
</svg>
