<?xml version="1.0" encoding="UTF-8"?>
<svg width="543px" height="317px" viewBox="0 0 543 317" version="1.1" xmlns="http://www.w3.org/2000/svg" xmlns:xlink="http://www.w3.org/1999/xlink">
    <title>ideas-media</title>
    <g id="ideas-media" stroke="none" fill="none" fill-rule="evenodd" stroke-width="1">
        <g id="Group">
            <path d="M93.8689,80.0416 C37.5911,98.0614 59.2763,190.602 80.1331,237.131 C80.9277,238.904 82.6869,240.000003 84.6295,240.000003 L176.107,240.000003 C178.76,240.000003 180.951,237.928 181.099,235.28 L185.311,160.15 C185.422,158.167 186.697,156.437 188.559,155.744 L208.363,148.376 C211.6,147.172 212.683,143.117 210.528,140.418 C187.551,111.65 152.07,61.406 93.8689,80.0416 Z" id="Path" fill="color(display-p3 0.533 0.533 0.533)" fill-rule="nonzero" opacity="0.4"></path>
            <circle id="Oval" fill="color(display-p3 1.000 1.000 1.000)" fill-rule="nonzero" cx="116.5" cy="127.5" r="44.5"></circle>
            <path d="M114.5,98.4434 C116.047,97.5502 117.953,97.5502 119.5,98.4434 L140.481,110.557 C142.028,111.45 142.981,113.1 142.981,114.887 L142.981,139.113 C142.981,140.9 142.028,142.55 140.481,143.443 L119.5,155.557 C117.953,156.45 116.047,156.45 114.5,155.557 L93.5192,143.443 C91.9722,142.55 91.0192,140.9 91.0192,139.113 L91.0192,114.887 C91.0192,113.1 91.9722,111.45 93.5192,110.557 L114.5,98.4434 Z" id="Path" fill="color(display-p3 0.949 0.477 0.000)" fill-rule="nonzero"></path>
            <path d="M454.73,81.8445 C508.444,98.9677 487.823,186.832 467.915,231.135 C467.12,232.904 465.361,234 463.422,234 L376.368,234 C373.716,234 371.525,231.929 371.376,229.281 L367.375,158.209 C367.263,156.223 365.985,154.492 364.119,153.801 L345.666,146.966 C342.42,145.764 341.33,141.701 343.494,139 C365.453,111.591 399.31,64.1774 454.73,81.8445 Z" id="Path" fill="color(display-p3 0.533 0.533 0.533)" fill-rule="nonzero" opacity="0.4"></path>
            <circle id="Oval" fill="color(display-p3 1.000 1.000 1.000)" fill-rule="nonzero" cx="432.5" cy="127.5" r="44.5"></circle>
            <path d="M430.5,98.4434 C432.047,97.5502 433.953,97.5502 435.5,98.4434 L456.481,110.557 C458.028,111.45 458.981,113.1 458.981,114.887 L458.981,139.113 C458.981,140.9 458.028,142.55 456.481,143.443 L435.5,155.557 C433.953,156.45 432.047,156.45 430.5,155.557 L409.519,143.443 C407.972,142.55 407.019,140.9 407.019,139.113 L407.019,114.887 C407.019,113.1 407.972,111.45 409.519,110.557 L430.5,98.4434 Z" id="Path" fill="color(display-p3 0.949 0.477 0.000)" fill-rule="nonzero"></path>
            <rect id="Rectangle" fill-opacity="0.4" fill="color(display-p3 0.533 0.533 0.533)" fill-rule="nonzero" transform="translate(277.2545, 166.3036) rotate(6.3984) translate(-277.2545, -166.3036)" x="227.254512" y="116.303595" width="100" height="100" rx="5"></rect>
            <path d="M233.179,108.029 L233.827,102.247 L237.294,102.636 L237.224,103.257 L234.457,102.946 L234.238,104.9 L236.745,105.181 L236.676,105.802 L234.169,105.521 L233.879,108.107 L233.179,108.029 Z M237.708,108.537 L238.194,104.2 L238.838,104.272 L238.764,104.927 L238.809,104.932 C238.912,104.727 239.075,104.569 239.297,104.458 C239.519,104.348 239.76,104.307 240.02,104.336 C240.069,104.342 240.13,104.35 240.203,104.36 C240.276,104.37 240.331,104.379 240.368,104.387 L240.293,105.064 C240.271,105.056 240.22,105.042 240.14,105.022 C240.063,105 239.979,104.984 239.891,104.974 C239.68,104.95 239.487,104.973 239.312,105.043 C239.138,105.111 238.995,105.217 238.881,105.361 C238.77,105.503 238.704,105.671 238.682,105.867 L238.374,108.611 L237.708,108.537 Z M241.93,109.113 C241.656,109.082 241.412,109.002 241.2,108.874 C240.987,108.743 240.827,108.572 240.717,108.359 C240.608,108.145 240.569,107.897 240.6,107.615 C240.628,107.366 240.7,107.17 240.815,107.027 C240.93,106.882 241.075,106.774 241.249,106.704 C241.422,106.634 241.61,106.588 241.813,106.567 C242.017,106.544 242.222,106.531 242.426,106.527 C242.693,106.523 242.91,106.521 243.076,106.523 C243.243,106.523 243.367,106.505 243.447,106.47 C243.529,106.436 243.576,106.365 243.588,106.257 L243.591,106.235 C243.622,105.956 243.57,105.731 243.435,105.56 C243.302,105.389 243.082,105.286 242.775,105.251 C242.457,105.216 242.2,105.257 242.003,105.376 C241.807,105.495 241.663,105.63 241.572,105.78 L240.965,105.483 C241.108,105.232 241.281,105.044 241.486,104.918 C241.693,104.791 241.911,104.71 242.142,104.677 C242.375,104.642 242.6,104.637 242.818,104.662 C242.958,104.677 243.116,104.712 243.293,104.766 C243.472,104.819 243.64,104.905 243.798,105.026 C243.958,105.147 244.083,105.316 244.173,105.534 C244.263,105.752 244.288,106.033 244.25,106.377 L243.929,109.234 L243.263,109.16 L243.329,108.572 L243.295,108.569 C243.239,108.658 243.153,108.75 243.035,108.845 C242.918,108.941 242.767,109.016 242.584,109.072 C242.4,109.128 242.183,109.141 241.93,109.113 Z M242.099,108.526 C242.363,108.555 242.591,108.529 242.783,108.445 C242.977,108.362 243.129,108.244 243.24,108.091 C243.352,107.937 243.419,107.771 243.439,107.59 L243.507,106.98 C243.475,107.011 243.41,107.035 243.311,107.052 C243.214,107.068 243.102,107.079 242.975,107.086 C242.851,107.091 242.729,107.095 242.611,107.097 C242.495,107.097 242.4,107.098 242.328,107.099 C242.152,107.102 241.986,107.121 241.83,107.155 C241.676,107.187 241.547,107.248 241.443,107.337 C241.342,107.425 241.282,107.554 241.263,107.723 C241.237,107.955 241.303,108.139 241.461,108.277 C241.621,108.413 241.834,108.496 242.099,108.526 Z M245.145,109.371 L245.632,105.034 L246.275,105.106 L246.199,105.784 L246.256,105.79 C246.372,105.569 246.538,105.406 246.754,105.3 C246.97,105.193 247.219,105.155 247.501,105.187 C247.787,105.219 248.018,105.31 248.194,105.462 C248.371,105.611 248.501,105.808 248.582,106.051 L248.627,106.056 C248.764,105.845 248.95,105.686 249.187,105.579 C249.424,105.47 249.698,105.433 250.008,105.468 C250.396,105.511 250.7,105.668 250.919,105.939 C251.138,106.207 251.22,106.597 251.162,107.107 L250.837,110.009 L250.171,109.934 L250.496,107.032 C250.532,106.712 250.47,106.473 250.311,106.316 C250.151,106.159 249.953,106.068 249.715,106.041 C249.41,106.007 249.164,106.073 248.976,106.238 C248.788,106.402 248.678,106.624 248.647,106.905 L248.33,109.728 L247.652,109.652 L247.985,106.682 C248.013,106.435 247.955,106.228 247.812,106.059 C247.669,105.889 247.472,105.789 247.22,105.761 C247.046,105.742 246.879,105.77 246.719,105.845 C246.56,105.921 246.425,106.035 246.314,106.188 C246.206,106.34 246.139,106.522 246.116,106.735 L245.812,109.445 L245.145,109.371 Z M253.863,110.44 C253.445,110.393 253.095,110.26 252.813,110.042 C252.533,109.822 252.329,109.536 252.203,109.184 C252.079,108.831 252.041,108.433 252.091,107.988 C252.141,107.544 252.266,107.162 252.466,106.841 C252.668,106.519 252.925,106.279 253.238,106.122 C253.553,105.963 253.907,105.905 254.298,105.949 C254.524,105.974 254.743,106.037 254.955,106.137 C255.166,106.237 255.353,106.382 255.515,106.571 C255.677,106.759 255.796,106.997 255.872,107.286 C255.948,107.575 255.964,107.921 255.918,108.326 L255.887,108.608 L252.544,108.234 L252.609,107.658 L255.274,107.956 C255.301,107.712 255.277,107.488 255.2,107.285 C255.126,107.082 255.006,106.915 254.839,106.784 C254.675,106.653 254.472,106.574 254.231,106.547 C253.966,106.518 253.729,106.558 253.52,106.668 C253.314,106.776 253.147,106.929 253.02,107.126 C252.893,107.324 252.816,107.542 252.789,107.781 L252.746,108.165 C252.709,108.492 252.735,108.776 252.822,109.017 C252.912,109.255 253.051,109.445 253.241,109.587 C253.432,109.726 253.661,109.811 253.93,109.841 C254.105,109.861 254.266,109.854 254.413,109.821 C254.562,109.786 254.693,109.725 254.808,109.637 C254.923,109.547 255.017,109.429 255.09,109.285 L255.714,109.538 C255.622,109.749 255.486,109.928 255.308,110.076 C255.129,110.222 254.917,110.327 254.672,110.393 C254.426,110.457 254.157,110.473 253.863,110.44 Z M261.588,105.36 L260.94,111.142 L260.24,111.063 L260.806,106.015 L260.772,106.012 L259.255,106.791 L259.335,106.079 L260.888,105.281 L261.588,105.36 Z" id="Shape" fill="color(display-p3 0.533 0.533 0.533)" fill-rule="nonzero"></path>
            <path d="M277.952,137.646 C279.589,136.931 281.483,137.143 282.921,138.203 L302.421,152.579 C303.859,153.639 304.622,155.386 304.423,157.161 L301.723,181.237 C301.524,183.012 300.393,184.546 298.756,185.261 L276.556,194.961 C274.919,195.676 273.025,195.464 271.588,194.404 L252.087,180.028 C250.65,178.968 249.886,177.221 250.085,175.446 L252.785,151.37 C252.984,149.595 254.115,148.061 255.752,147.346 L277.952,137.646 Z" id="Path" fill="color(display-p3 0.949 0.477 0.000)" fill-rule="nonzero"></path>
            <rect id="Rectangle" fill-opacity="0.1" fill="color(display-p3 0.533 0.533 0.533)" fill-rule="nonzero" transform="translate(255.9997, 62) rotate(-6.189) translate(-255.9997, -62)" x="202.999741" y="34.0000473" width="106" height="56" rx="5"></rect>
            <path d="M211.185,52.8582 C210.835,52.8961 210.523,52.8629 210.249,52.7585 C209.98,52.6536 209.761,52.4843 209.59,52.2506 C209.425,52.011 209.323,51.7189 209.286,51.3743 L209.001,48.7497 C208.964,48.3997 209,48.0927 209.111,47.8285 C209.227,47.5638 209.405,47.3513 209.645,47.1912 C209.891,47.0304 210.188,46.9311 210.538,46.8931 C210.888,46.8552 211.198,46.8914 211.467,47.0016 C211.736,47.1066 211.953,47.2762 212.118,47.5104 C212.283,47.7447 212.384,48.0341 212.421,48.3788 L211.706,48.4564 C211.67,48.1277 211.555,47.8853 211.361,47.7293 C211.172,47.5674 210.921,47.5034 210.608,47.5374 C210.295,47.5713 210.058,47.6855 209.897,47.88 C209.741,48.074 209.681,48.3353 209.716,48.6641 L210.002,51.2966 C210.038,51.6254 210.153,51.8704 210.347,52.0317 C210.546,52.1871 210.802,52.2479 211.115,52.214 C211.428,52.18 211.66,52.0664 211.811,51.873 C211.966,51.6738 212.026,51.4098 211.99,51.081 L212.706,51.0034 C212.743,51.3427 212.706,51.6471 212.596,51.9166 C212.485,52.1808 212.31,52.3956 212.07,52.561 C211.83,52.7212 211.535,52.8202 211.185,52.8582 Z M215.541,52.3859 C215.079,52.4359 214.703,52.3586 214.413,52.1541 C214.122,51.9442 213.955,51.6378 213.911,51.2349 C213.867,50.8266 213.964,50.4914 214.204,50.2294 C214.444,49.9673 214.789,49.8119 215.24,49.763 L216.592,49.6164 L216.545,49.1789 C216.515,48.9085 216.411,48.7107 216.231,48.5853 C216.056,48.4541 215.82,48.4046 215.523,48.4368 C215.263,48.465 215.051,48.5442 214.889,48.6745 C214.725,48.7996 214.64,48.9563 214.634,49.1447 L213.918,49.2224 C213.925,48.8407 214.07,48.5219 214.353,48.2658 C214.637,48.0098 215.009,47.8568 215.47,47.8068 C215.974,47.7521 216.386,47.8389 216.706,48.0671 C217.025,48.2953 217.21,48.6321 217.258,49.0775 L217.584,52.0838 L216.884,52.1597 L216.793,51.3246 L216.674,51.3376 L216.78,51.2053 C216.815,51.5235 216.718,51.7888 216.489,52.0014 C216.265,52.2135 215.949,52.3416 215.541,52.3859 Z M215.654,51.8022 C215.994,51.7654 216.263,51.6504 216.462,51.4572 C216.661,51.2639 216.746,51.0347 216.717,50.7696 L216.65,50.1493 L215.314,50.2941 C215.075,50.32 214.894,50.4067 214.771,50.5542 C214.647,50.7017 214.598,50.8895 214.622,51.1175 C214.649,51.3614 214.752,51.546 214.932,51.6713 C215.117,51.7908 215.357,51.8344 215.654,51.8022 Z M219.028,51.9272 L218.554,47.5528 L219.27,47.4752 L219.36,48.3103 L219.511,48.2939 L219.378,48.4773 C219.341,48.1327 219.416,47.8564 219.602,47.6484 C219.788,47.4351 220.064,47.3086 220.43,47.2689 C220.87,47.2212 221.235,47.3184 221.524,47.5607 C221.813,47.8029 221.983,48.1573 222.034,48.6239 L222.353,51.5667 L221.637,51.6443 L221.326,48.7811 C221.293,48.4683 221.182,48.2389 220.994,48.0929 C220.812,47.941 220.577,47.8806 220.291,47.9117 C219.994,47.9439 219.768,48.0596 219.612,48.2589 C219.462,48.4575 219.405,48.7266 219.442,49.0659 L219.744,51.8496 L219.028,51.9272 Z M224.966,51.2833 L223.029,47.0676 L223.76,46.9883 L225.05,49.8258 C225.127,49.9944 225.198,50.1584 225.264,50.3176 C225.329,50.4715 225.377,50.5923 225.408,50.6802 C225.425,50.5871 225.448,50.4585 225.479,50.2943 C225.509,50.1247 225.541,49.9496 225.575,49.7689 L226.202,46.7235 L226.926,46.645 L225.937,51.1781 L224.966,51.2833 Z M229.847,50.8345 C229.386,50.8845 229.01,50.8072 228.72,50.6027 C228.429,50.3928 228.261,50.0864 228.218,49.6834 C228.173,49.2752 228.271,48.94 228.511,48.6779 C228.751,48.4159 229.096,48.2604 229.547,48.2116 L230.899,48.0649 L230.851,47.6275 C230.822,47.3571 230.717,47.1592 230.538,47.0339 C230.362,46.9027 230.126,46.8532 229.829,46.8854 C229.57,46.9135 229.358,46.9928 229.195,47.1231 C229.032,47.2481 228.947,47.4049 228.941,47.5933 L228.225,47.6709 C228.232,47.2893 228.377,46.9705 228.66,46.7144 C228.944,46.4584 229.316,46.3053 229.777,46.2553 C230.281,46.2007 230.693,46.2875 231.012,46.5157 C231.332,46.7438 231.516,47.0806 231.565,47.526 L231.891,50.5324 L231.191,50.6083 L231.1,49.7732 L230.981,49.7861 L231.087,49.6539 C231.122,49.972 231.024,50.2374 230.795,50.45 C230.572,50.662 230.256,50.7902 229.847,50.8345 Z M229.961,50.2508 C230.3,50.214 230.57,50.099 230.768,49.9057 C230.967,49.7125 231.053,49.4833 231.024,49.2182 L230.957,48.5978 L229.62,48.7427 C229.382,48.7686 229.201,48.8553 229.077,49.0028 C228.954,49.1503 228.904,49.338 228.929,49.566 C228.956,49.8099 229.059,49.9946 229.239,50.1199 C229.423,50.2394 229.664,50.283 229.961,50.2508 Z M234.861,50.2747 C234.564,50.3069 234.299,50.29 234.067,50.224 C233.839,50.1521 233.65,50.0385 233.499,49.8832 C233.353,49.7274 233.254,49.5342 233.203,49.3038 L233.918,49.2262 C233.967,49.3765 234.065,49.4892 234.213,49.5644 C234.366,49.639 234.559,49.6637 234.792,49.6384 L235.126,49.6022 C235.407,49.5717 235.61,49.4933 235.736,49.367 C235.861,49.2354 235.914,49.0742 235.893,48.8833 C235.873,48.6977 235.793,48.5588 235.655,48.4666 C235.521,48.3684 235.33,48.314 235.082,48.3034 L234.483,48.2718 C234.045,48.2441 233.71,48.1463 233.477,47.9784 C233.249,47.8047 233.115,47.5322 233.075,47.1611 C233.032,46.7687 233.124,46.453 233.35,46.2139 C233.576,45.9694 233.938,45.8202 234.436,45.7662 L234.739,45.7334 C235.158,45.688 235.505,45.7495 235.781,45.9181 C236.056,46.0867 236.239,46.3351 236.328,46.6634 L235.612,46.7411 C235.566,46.6066 235.474,46.5066 235.338,46.4408 C235.202,46.3698 235.025,46.3461 234.808,46.3697 L234.505,46.4024 C234.235,46.4317 234.042,46.5037 233.925,46.6182 C233.814,46.7322 233.77,46.8899 233.792,47.0914 C233.811,47.2717 233.879,47.3985 233.994,47.4718 C234.109,47.5452 234.283,47.588 234.515,47.6004 L235.114,47.632 C235.594,47.6551 235.95,47.7559 236.184,47.9343 C236.424,48.1123 236.564,48.3921 236.605,48.7739 C236.649,49.1768 236.554,49.5091 236.319,49.7705 C236.089,50.0261 235.715,50.1821 235.195,50.2384 L234.861,50.2747 Z M220.214,62.8631 L219.585,57.0571 L221.454,56.8544 C221.814,56.8153 222.135,56.853 222.415,56.9674 C222.695,57.0765 222.921,57.2506 223.092,57.4896 C223.268,57.728 223.375,58.0221 223.413,58.3721 C223.45,58.7167 223.409,59.027 223.288,59.3029 C223.173,59.573 222.99,59.7939 222.741,59.9658 C222.49,60.1324 222.185,60.2353 221.824,60.2744 L220.671,60.3995 L220.93,62.7855 L220.214,62.8631 Z M220.601,59.7552 L221.755,59.6302 C222.067,59.5963 222.306,59.4738 222.471,59.2628 C222.641,59.0459 222.708,58.7757 222.673,58.4523 C222.637,58.1236 222.514,57.8741 222.302,57.7039 C222.096,57.5332 221.836,57.4647 221.523,57.4987 L220.37,57.6237 L220.601,59.7552 Z M226.644,62.2302 C226.294,62.2681 225.985,62.2346 225.716,62.1297 C225.447,62.0247 225.228,61.8554 225.057,61.6217 C224.892,61.3821 224.791,61.09 224.753,60.7454 L224.627,59.5842 C224.589,59.2343 224.626,58.9272 224.737,58.6631 C224.853,58.3983 225.031,58.1859 225.271,58.0257 C225.511,57.8656 225.806,57.7665 226.156,57.7286 C226.506,57.6906 226.815,57.7241 227.084,57.8291 C227.353,57.934 227.57,58.1036 227.735,58.3379 C227.905,58.5716 228.009,58.8607 228.046,59.2054 L228.173,60.3745 C228.21,60.7192 228.171,61.0265 228.056,61.2966 C227.945,61.5607 227.77,61.7729 227.529,61.933 C227.289,62.0932 226.994,62.1922 226.644,62.2302 Z M226.575,61.5939 C226.888,61.56 227.123,61.446 227.279,61.2521 C227.435,61.0582 227.494,60.7915 227.457,60.4522 L227.331,59.291 C227.295,58.9516 227.179,58.704 226.985,58.548 C226.791,58.392 226.538,58.3309 226.225,58.3648 C225.918,58.3982 225.683,58.5121 225.522,58.7066 C225.366,58.9006 225.306,59.1672 225.343,59.5066 L225.469,60.6678 C225.506,61.0071 225.621,61.2548 225.815,61.4108 C226.014,61.5662 226.268,61.6273 226.575,61.5939 Z M232.003,61.5847 C231.748,61.6123 231.52,61.5861 231.318,61.5061 C231.117,61.426 230.953,61.299 230.826,61.1249 C230.7,60.9508 230.624,60.7391 230.597,60.4899 L230.171,56.5689 L228.7,56.7285 L228.629,56.0763 L230.816,55.8391 L231.312,60.4123 C231.332,60.5926 231.398,60.7303 231.51,60.8254 C231.622,60.9152 231.762,60.9509 231.932,60.9325 L233.324,60.7816 L233.395,61.4338 L232.003,61.5847 Z M235.36,62.6691 L235.82,60.8972 L233.752,56.9692 L234.548,56.883 L235.859,59.4767 C235.906,59.5628 235.952,59.6678 235.998,59.7916 C236.043,59.9101 236.08,60.0106 236.111,60.0931 C236.123,60.006 236.138,59.8997 236.157,59.7743 C236.175,59.6436 236.195,59.5315 236.217,59.4379 L236.878,56.6303 L237.649,56.5466 L236.124,62.5863 L235.36,62.6691 Z M239.994,62.1666 L239.923,61.5144 L241.315,61.3635 C241.538,61.3394 241.694,61.2714 241.784,61.1598 C241.879,61.0475 241.915,60.8854 241.892,60.6733 L241.832,60.1165 L241.761,59.3195 L241.618,59.335 L241.74,59.201 C241.775,59.5192 241.696,59.7825 241.504,59.9911 C241.312,60.1997 241.039,60.3232 240.683,60.3618 C240.233,60.4106 239.862,60.3033 239.57,60.0399 C239.278,59.7711 239.105,59.3876 239.051,58.8892 L238.951,57.9666 C238.897,57.4681 238.984,57.059 239.212,56.7392 C239.44,56.4194 239.78,56.2351 240.23,56.1862 C240.586,56.1477 240.879,56.2097 241.112,56.3723 C241.344,56.5349 241.477,56.7753 241.512,57.0934 L241.364,56.9888 L241.499,56.9741 L241.408,56.139 L242.116,56.0622 L242.608,60.5957 C242.65,60.988 242.562,61.3114 242.343,61.5659 C242.129,61.8197 241.807,61.97 241.378,62.0165 L239.994,62.1666 Z M240.831,59.7181 C241.128,59.6859 241.351,59.5678 241.5,59.3638 C241.65,59.1599 241.707,58.8935 241.671,58.5648 L241.581,57.7297 C241.545,57.4009 241.432,57.153 241.243,56.9858 C241.053,56.8186 240.809,56.7511 240.513,56.7833 C240.21,56.8161 239.984,56.9318 239.834,57.1305 C239.689,57.3286 239.635,57.5973 239.672,57.9367 L239.763,58.7718 C239.799,59.1111 239.91,59.362 240.094,59.5245 C240.283,59.6863 240.529,59.7509 240.831,59.7181 Z M245.72,60.1616 C245.37,60.1995 245.061,60.166 244.792,60.0611 C244.523,59.9561 244.303,59.7868 244.133,59.5531 C243.968,59.3136 243.866,59.0215 243.829,58.6768 L243.703,57.5156 C243.665,57.1657 243.701,56.8586 243.812,56.5945 C243.928,56.3297 244.107,56.1173 244.347,55.9571 C244.587,55.797 244.882,55.6979 245.232,55.66 C245.582,55.622 245.891,55.6555 246.16,55.7605 C246.429,55.8655 246.646,56.0351 246.811,56.2693 C246.981,56.503 247.085,56.7922 247.122,57.1368 L247.249,58.306 C247.286,58.6506 247.247,58.9579 247.132,59.228 C247.021,59.4921 246.845,59.7043 246.605,59.8644 C246.365,60.0246 246.07,60.1237 245.72,60.1616 Z M245.651,59.5253 C245.964,59.4914 246.198,59.3775 246.354,59.1835 C246.51,58.9896 246.57,58.7229 246.533,58.3836 L246.407,57.2224 C246.37,56.883 246.255,56.6354 246.061,56.4794 C245.867,56.3234 245.614,56.2623 245.301,56.2963 C244.993,56.3296 244.759,56.4435 244.598,56.6381 C244.442,56.832 244.382,57.0987 244.419,57.438 L244.545,58.5992 C244.581,58.9385 244.697,59.1862 244.891,59.3422 C245.09,59.4976 245.343,59.5587 245.651,59.5253 Z M248.828,59.7602 L248.353,55.3859 L249.069,55.3082 L249.16,56.1433 L249.311,56.127 L249.178,56.3104 C249.14,55.9657 249.215,55.6894 249.402,55.4814 C249.588,55.2681 249.864,55.1416 250.23,55.1019 C250.67,55.0542 251.034,55.1515 251.323,55.3937 C251.613,55.6359 251.782,55.9904 251.833,56.457 L252.152,59.3997 L251.436,59.4773 L251.126,56.6141 C251.092,56.3013 250.981,56.0719 250.794,55.9259 C250.611,55.7741 250.376,55.7137 250.09,55.7447 C249.793,55.7769 249.567,55.8926 249.412,56.0919 C249.261,56.2906 249.205,56.5596 249.242,56.8989 L249.543,59.6826 L248.828,59.7602 Z" id="Shape" fill="color(display-p3 0.616 0.314 1.000)" fill-rule="nonzero"></path>
            <path d="M245.974,49.8903 C245.661,49.9243 245.385,49.9006 245.146,49.8192 C244.912,49.7426 244.726,49.6099 244.587,49.4211 C244.449,49.2376 244.374,49.0071 244.36,48.7296 L244.298,47.4167 C244.283,47.1339 244.219,46.937 244.105,46.826 C243.99,46.7097 243.761,46.6702 243.416,46.7076 L242.541,46.8024 L242.472,46.1662 L243.347,46.0713 C243.692,46.0339 243.908,45.9488 243.995,45.8159 C244.082,45.6777 244.103,45.469 244.056,45.1897 L243.835,43.894 C243.789,43.6147 243.813,43.3706 243.909,43.1618 C244.004,42.953 244.158,42.7861 244.369,42.6612 C244.586,42.5304 244.851,42.4481 245.163,42.4142 L245.521,42.3754 L245.59,43.0116 L245.232,43.0504 C244.983,43.0775 244.799,43.1565 244.679,43.2875 C244.558,43.4132 244.516,43.5895 244.551,43.8164 L244.772,45.1121 C244.831,45.4544 244.778,45.7391 244.615,45.966 C244.451,46.1876 244.2,46.3168 243.86,46.3536 L243.856,46.3138 C244.19,46.2776 244.461,46.3528 244.669,46.5395 C244.883,46.7256 244.997,46.9921 245.013,47.339 L245.075,48.652 C245.089,48.8812 245.169,49.0442 245.313,49.1412 C245.459,49.2435 245.656,49.2811 245.905,49.2541 L246.263,49.2153 L246.332,49.8515 L245.974,49.8903 Z M256.826,59.8585 C256.053,59.7546 255.427,59.4523 254.949,58.9516 C254.471,58.4509 254.189,57.8055 254.103,57.0155 L253.948,55.5839 C253.892,55.0642 253.936,54.5846 254.082,54.1451 C254.232,53.6996 254.469,53.3118 254.793,52.9817 C255.121,52.6509 255.523,52.3981 255.998,52.2233 L256.071,52.8993 C255.74,53.0157 255.463,53.2013 255.238,53.4564 C255.013,53.7061 254.85,54.0054 254.748,54.3544 C254.647,54.7034 254.619,55.0874 254.664,55.5062 L254.819,56.9378 C254.863,57.3461 254.97,57.7101 255.139,58.0297 C255.313,58.3488 255.537,58.6062 255.81,58.8019 C256.088,58.9917 256.401,59.1079 256.749,59.1507 L256.826,59.8585 Z M283.511,52.6999 C283.315,52.7212 283.15,52.6854 283.016,52.5926 C282.882,52.4945 282.805,52.3553 282.786,52.175 C282.766,51.9947 282.812,51.845 282.922,51.7257 C283.032,51.6011 283.185,51.5282 283.381,51.5069 C283.583,51.4851 283.748,51.5235 283.877,51.6222 C284.01,51.715 284.087,51.8516 284.106,52.0318 C284.126,52.2121 284.081,52.3645 283.971,52.4891 C283.866,52.6078 283.712,52.6781 283.511,52.6999 Z M283.873,56.0404 C283.677,56.0616 283.512,56.0259 283.379,55.933 C283.245,55.8349 283.168,55.6957 283.148,55.5154 C283.129,55.3352 283.174,55.1854 283.285,55.0661 C283.394,54.9415 283.547,54.8686 283.744,54.8473 C283.945,54.8255 284.11,54.8639 284.239,54.9626 C284.372,55.0554 284.449,55.192 284.468,55.3723 C284.488,55.5525 284.443,55.705 284.333,55.8295 C284.228,55.9482 284.074,56.0185 283.873,56.0404 Z M296.803,55.5233 L296.726,54.8155 C297.063,54.6986 297.343,54.5179 297.569,54.2735 C297.794,54.0238 297.955,53.7247 298.051,53.3763 C298.153,53.0273 298.181,52.6487 298.137,52.2404 L297.982,50.8088 C297.936,50.3899 297.827,50.0209 297.653,49.7019 C297.479,49.3828 297.255,49.1254 296.981,48.9297 C296.708,48.7287 296.397,48.6069 296.049,48.5641 L295.975,47.8881 C296.482,47.9566 296.928,48.1174 297.315,48.3705 C297.702,48.6236 298.014,48.9519 298.251,49.3553 C298.492,49.753 298.641,50.2116 298.698,50.7312 L298.853,52.1628 C298.939,52.9528 298.802,53.6436 298.442,54.2352 C298.082,54.8267 297.536,55.2561 296.803,55.5233 Z M232.601,72.6648 C232.399,72.6867 232.231,72.6459 232.097,72.5425 C231.967,72.4385 231.892,72.2884 231.871,72.0922 C231.848,71.8854 231.889,71.7147 231.992,71.5801 C232.101,71.4449 232.256,71.3664 232.458,71.3446 C232.659,71.3227 232.825,71.3664 232.955,71.4757 C233.09,71.5845 233.169,71.7422 233.191,71.949 C233.212,72.1452 233.168,72.3082 233.059,72.4381 C232.955,72.5674 232.802,72.643 232.601,72.6648 Z M258.012,70.7944 C257.239,70.6905 256.613,70.3882 256.135,69.8875 C255.657,69.3868 255.375,68.7414 255.289,67.9513 L255.134,66.5197 C255.078,66.0001 255.122,65.5205 255.268,65.0809 C255.418,64.6355 255.655,64.2477 255.978,63.9175 C256.307,63.5868 256.709,63.334 257.184,63.1592 L257.257,63.8352 C256.926,63.9516 256.649,64.1372 256.424,64.3922 C256.199,64.642 256.036,64.9413 255.934,65.2903 C255.833,65.6393 255.804,66.0232 255.85,66.4421 L256.005,67.8737 C256.049,68.282 256.156,68.646 256.325,68.9656 C256.499,69.2847 256.722,69.5421 256.996,69.7378 C257.274,69.9276 257.587,70.0438 257.935,70.0866 L258.012,70.7944 Z M261.214,69.562 C261.013,69.5838 260.845,69.543 260.71,69.4396 C260.581,69.3356 260.506,69.1855 260.484,68.9893 C260.462,68.7825 260.502,68.6118 260.606,68.4772 C260.715,68.3421 260.87,68.2636 261.071,68.2417 C261.273,68.2199 261.438,68.2636 261.568,68.3729 C261.703,68.4816 261.782,68.6394 261.805,68.8462 C261.826,69.0423 261.782,69.2054 261.673,69.3352 C261.569,69.4645 261.416,69.5401 261.214,69.562 Z M288.451,67.4935 L288.375,66.7857 C288.711,66.6688 288.991,66.4881 289.217,66.2437 C289.442,65.994 289.603,65.6949 289.699,65.3465 C289.801,64.9975 289.829,64.6189 289.785,64.2106 L289.63,62.779 C289.584,62.3601 289.475,61.9911 289.301,61.672 C289.127,61.3529 288.903,61.0956 288.629,60.8999 C288.356,60.6989 288.045,60.5771 287.697,60.5343 L287.623,59.8583 C288.13,59.9268 288.576,60.0876 288.963,60.3407 C289.35,60.5938 289.662,60.922 289.899,61.3255 C290.14,61.7231 290.289,62.1817 290.346,62.7014 L290.501,64.133 C290.587,64.923 290.45,65.6138 290.09,66.2054 C289.73,66.7969 289.184,67.2263 288.451,67.4935 Z M213.087,86.6501 L213.018,86.0138 L213.376,85.975 C213.625,85.948 213.81,85.8689 213.93,85.7379 C214.05,85.6122 214.093,85.4359 214.058,85.2091 L213.837,83.9133 C213.778,83.571 213.83,83.2864 213.993,83.0594 C214.162,82.832 214.413,82.7001 214.747,82.6639 L214.752,82.7036 C214.412,82.7404 214.139,82.6682 213.931,82.4868 C213.723,82.3001 213.611,82.0333 213.595,81.6864 L213.533,80.3734 C213.519,80.1443 213.44,79.9812 213.295,79.8842 C213.15,79.782 212.953,79.7443 212.703,79.7714 L212.346,79.8102 L212.277,79.1739 L212.634,79.1351 C212.947,79.1012 213.221,79.1251 213.455,79.207 C213.694,79.2831 213.882,79.4128 214.02,79.5964 C214.158,79.7799 214.234,80.013 214.249,80.2958 L214.311,81.6088 C214.326,81.8915 214.39,82.091 214.505,82.2074 C214.619,82.3184 214.848,82.3552 215.193,82.3179 L216.067,82.223 L216.136,82.8593 L215.262,82.9541 C214.922,82.9909 214.706,83.0787 214.614,83.2175 C214.527,83.3503 214.506,83.5564 214.552,83.8357 L214.773,85.1314 C214.819,85.4054 214.794,85.6468 214.699,85.8557 C214.604,86.0698 214.448,86.2396 214.231,86.3651 C214.02,86.4953 213.758,86.5773 213.445,86.6113 L213.087,86.6501 Z" id="Shape" fill="color(display-p3 0.271 0.271 0.271)" fill-rule="nonzero"></path>
            <path d="M259.891,58.6248 C259.595,58.657 259.33,58.6401 259.097,58.5741 C258.87,58.5023 258.68,58.3887 258.529,58.2334 C258.384,58.0775 258.285,57.8844 258.233,57.654 L258.949,57.5763 C258.997,57.7266 259.095,57.8394 259.243,57.9146 C259.396,57.9892 259.589,58.0139 259.822,57.9886 L260.157,57.9523 C260.438,57.9219 260.641,57.8435 260.767,57.7172 C260.892,57.5856 260.944,57.4243 260.923,57.2335 C260.903,57.0479 260.824,56.909 260.685,56.8167 C260.551,56.7186 260.36,56.6642 260.112,56.6535 L259.513,56.6219 C259.076,56.5943 258.741,56.4965 258.508,56.3286 C258.28,56.1549 258.146,55.8824 258.105,55.5112 C258.063,55.1189 258.155,54.8031 258.381,54.564 C258.607,54.3196 258.969,54.1704 259.467,54.1163 L259.769,54.0835 C260.188,54.0381 260.535,54.0997 260.811,54.2683 C261.087,54.4369 261.269,54.6853 261.359,55.0136 L260.643,55.0912 C260.596,54.9568 260.505,54.8567 260.369,54.791 C260.232,54.72 260.056,54.6962 259.838,54.7198 L259.536,54.7526 C259.266,54.7819 259.072,54.8538 258.956,54.9684 C258.845,55.0824 258.8,55.2401 258.822,55.4416 C258.842,55.6218 258.909,55.7487 259.024,55.822 C259.14,55.8953 259.313,55.9382 259.545,55.9506 L260.144,55.9822 C260.624,56.0053 260.981,56.106 261.215,56.2845 C261.454,56.4624 261.594,56.7423 261.636,57.124 C261.68,57.527 261.584,57.8592 261.35,58.1207 C261.12,58.3763 260.745,58.5323 260.226,58.5886 L259.891,58.6248 Z M263.079,58.2148 L263.008,57.5627 L264.559,57.3945 L264.226,54.3245 L262.874,54.4711 L262.803,53.8189 L264.871,53.5947 L265.275,57.3168 L266.746,57.1573 L266.817,57.8095 L263.079,58.2148 Z M264.348,52.8547 C264.173,52.8737 264.031,52.8436 263.92,52.7644 C263.81,52.6851 263.746,52.5687 263.729,52.4149 C263.712,52.2558 263.749,52.1258 263.84,52.0247 C263.93,51.9183 264.063,51.8557 264.238,51.8367 C264.413,51.8177 264.556,51.8505 264.667,51.935 C264.777,52.0142 264.841,52.1334 264.859,52.2924 C264.875,52.4462 264.838,52.5736 264.747,52.6747 C264.656,52.7757 264.523,52.8357 264.348,52.8547 Z M269.312,57.6194 C268.877,57.6665 268.509,57.559 268.207,57.2967 C267.91,57.0338 267.734,56.6531 267.68,56.1547 L267.541,54.8742 C267.487,54.3705 267.576,53.9585 267.81,53.6381 C268.043,53.3177 268.38,53.1337 268.82,53.086 C269.181,53.0469 269.48,53.1136 269.719,53.2862 C269.958,53.4588 270.095,53.7095 270.13,54.0383 L269.969,53.8868 L270.128,53.8695 L270.005,52.8771 L269.867,51.6045 L270.582,51.5269 L271.212,57.3329 L270.496,57.4105 L270.406,56.5754 L270.262,56.5909 L270.387,56.4084 C270.424,56.7424 270.344,57.0193 270.148,57.2391 C269.951,57.4535 269.672,57.5803 269.312,57.6194 Z M269.483,56.9731 C269.78,56.9409 270.003,56.8229 270.153,56.6189 C270.302,56.4149 270.359,56.1485 270.324,55.8198 L270.194,54.6268 C270.159,54.2981 270.046,54.0501 269.856,53.8829 C269.666,53.7157 269.423,53.6483 269.126,53.6805 C268.824,53.7132 268.595,53.8292 268.44,54.0285 C268.284,54.2277 268.225,54.497 268.262,54.8364 L268.391,56.0294 C268.428,56.3687 268.543,56.6191 268.738,56.7804 C268.932,56.9417 269.181,57.0059 269.483,56.9731 Z M274.335,57.0746 C273.991,57.112 273.681,57.0759 273.406,56.9662 C273.137,56.8559 272.917,56.6839 272.747,56.4503 C272.581,56.2107 272.48,55.9239 272.444,55.5899 L272.315,54.3969 C272.278,54.0575 272.315,53.7558 272.426,53.4916 C272.542,53.2269 272.72,53.0118 272.959,52.8463 C273.204,52.6803 273.499,52.5786 273.844,52.5412 C274.188,52.5038 274.495,52.5403 274.765,52.6505 C275.039,52.7602 275.259,52.9322 275.424,53.1665 C275.594,53.4001 275.698,53.6867 275.735,54.026 L275.818,54.7975 L273.098,55.0924 L273.144,55.514 C273.181,55.8586 273.298,56.1142 273.493,56.2808 C273.687,56.4421 273.946,56.5053 274.27,56.4702 C274.545,56.4403 274.763,56.3684 274.922,56.2546 C275.081,56.1354 275.168,55.9758 275.184,55.7756 L275.9,55.6979 C275.892,56.069 275.743,56.3801 275.454,56.6314 C275.169,56.8769 274.796,57.0246 274.335,57.0746 Z M275.067,54.3962 L275.035,54.1019 C274.997,53.7572 274.881,53.5016 274.686,53.335 C274.496,53.1678 274.237,53.1021 273.908,53.1377 C273.585,53.1728 273.346,53.2926 273.191,53.4972 C273.036,53.7017 272.977,53.9763 273.015,54.321 L273.04,54.5516 L275.115,54.3265 L275.067,54.3962 Z M278.967,56.5563 C278.67,56.5885 278.406,56.5716 278.173,56.5056 C277.945,56.4337 277.756,56.3201 277.605,56.1648 C277.459,56.0089 277.361,55.8158 277.309,55.5854 L278.025,55.5078 C278.073,55.6581 278.171,55.7708 278.319,55.846 C278.472,55.9206 278.665,55.9453 278.898,55.92 L279.232,55.8838 C279.513,55.8533 279.717,55.7749 279.842,55.6486 C279.968,55.517 280.02,55.3558 279.999,55.1649 C279.979,54.9793 279.9,54.8404 279.761,54.7481 C279.627,54.65 279.436,54.5956 279.188,54.585 L278.589,54.5533 C278.151,54.5257 277.816,54.4279 277.584,54.26 C277.355,54.0863 277.221,53.8138 277.181,53.4427 C277.139,53.0503 277.23,52.7346 277.457,52.4954 C277.682,52.251 278.044,52.1018 278.543,52.0477 L278.845,52.015 C279.264,51.9695 279.611,52.0311 279.887,52.1997 C280.163,52.3683 280.345,52.6167 280.434,52.945 L279.719,53.0226 C279.672,52.8882 279.58,52.7882 279.445,52.7224 C279.308,52.6514 279.131,52.6277 278.914,52.6512 L278.612,52.684 C278.341,52.7133 278.148,52.7853 278.032,52.8998 C277.92,53.0138 277.876,53.1715 277.898,53.373 C277.917,53.5533 277.985,53.6801 278.1,53.7534 C278.215,53.8267 278.389,53.8696 278.621,53.882 L279.22,53.9136 C279.7,53.9367 280.057,54.0375 280.291,54.2159 C280.53,54.3938 280.67,54.6737 280.712,55.0554 C280.755,55.4584 280.66,55.7906 280.425,56.0521 C280.196,56.3077 279.821,56.4637 279.301,56.52 L278.967,56.5563 Z M236.725,72.1371 L236.369,68.8524 L235.096,68.9904 L235.025,68.3382 L236.298,68.2002 L236.216,67.4447 C236.179,67.1 236.258,66.8178 236.454,66.5981 C236.65,66.373 236.938,66.2398 237.32,66.1984 L238.601,66.0595 L238.671,66.7117 L237.391,66.8505 C237.226,66.8684 237.103,66.9219 237.022,67.0112 C236.945,67.0947 236.915,67.2133 236.932,67.367 L237.014,68.1226 L238.803,67.9286 L238.874,68.5807 L237.084,68.7748 L237.441,72.0595 L236.725,72.1371 Z M240.42,71.7364 L240.349,71.0843 L241.9,70.9161 L241.567,67.8461 L240.215,67.9927 L240.145,67.3405 L242.212,67.1163 L242.616,70.8385 L244.087,70.6789 L244.158,71.3311 L240.42,71.7364 Z M241.69,66.3763 C241.515,66.3953 241.372,66.3652 241.261,66.286 C241.151,66.2068 241.087,66.0903 241.071,65.9365 C241.053,65.7774 241.09,65.6474 241.181,65.5463 C241.272,65.4399 241.404,65.3773 241.579,65.3583 C241.754,65.3393 241.897,65.3721 242.008,65.4566 C242.119,65.5358 242.183,65.655 242.2,65.814 C242.217,65.9678 242.179,66.0952 242.088,66.1963 C241.998,66.2973 241.865,66.3574 241.69,66.3763 Z M247.495,70.9692 C247.241,70.9968 247.013,70.9706 246.811,70.8905 C246.609,70.8105 246.445,70.6834 246.319,70.5093 C246.193,70.3352 246.116,70.1236 246.089,69.8744 L245.664,65.9534 L244.193,66.1129 L244.122,65.4608 L246.309,65.2236 L246.805,69.7968 C246.825,69.9771 246.89,70.1148 247.003,70.2099 C247.114,70.2997 247.255,70.3354 247.425,70.317 L248.817,70.1661 L248.887,70.8182 L247.495,70.9692 Z M252.264,70.452 C252.01,70.4796 251.782,70.4534 251.58,70.3734 C251.378,70.2933 251.214,70.1663 251.088,69.9922 C250.962,69.8181 250.885,69.6065 250.858,69.3573 L250.433,65.4362 L248.962,65.5958 L248.891,64.9436 L251.078,64.7064 L251.574,69.2796 C251.593,69.4599 251.659,69.5976 251.772,69.6927 C251.883,69.7825 252.024,69.8183 252.194,69.7999 L253.585,69.6489 L253.656,70.3011 L252.264,70.452 Z M265.024,70.5168 L264.954,69.8646 L266.345,69.7137 C266.568,69.6895 266.724,69.6216 266.814,69.5099 C266.909,69.3977 266.945,69.2355 266.922,69.0234 L266.862,68.4667 L266.792,67.6696 L266.649,67.6852 L266.771,67.5512 C266.805,67.8693 266.727,68.1327 266.535,68.3413 C266.343,68.5499 266.069,68.6734 265.714,68.7119 C265.263,68.7608 264.892,68.6535 264.601,68.3901 C264.309,68.1213 264.136,67.7377 264.081,67.2393 L263.981,66.3167 C263.927,65.8183 264.014,65.4092 264.243,65.0894 C264.471,64.7696 264.81,64.5853 265.261,64.5364 C265.616,64.4979 265.91,64.5599 266.142,64.7225 C266.374,64.8851 266.508,65.1254 266.542,65.4436 L266.394,65.3389 L266.529,65.3243 L266.439,64.4892 L267.147,64.4124 L267.638,68.9458 C267.681,69.3382 267.592,69.6616 267.373,69.916 C267.159,70.1699 266.838,70.3201 266.408,70.3667 L265.024,70.5168 Z M265.861,68.0683 C266.158,68.0361 266.381,67.918 266.531,67.714 C266.68,67.51 266.737,67.2437 266.702,66.9149 L266.611,66.0798 C266.576,65.7511 266.463,65.5031 266.273,65.336 C266.083,65.1688 265.84,65.1013 265.543,65.1335 C265.241,65.1663 265.015,65.282 264.864,65.4807 C264.72,65.6788 264.666,65.9475 264.702,66.2868 L264.793,67.1219 C264.83,67.4613 264.94,67.7122 265.124,67.8746 C265.313,68.0365 265.559,68.1011 265.861,68.0683 Z M269.24,68.6111 L268.766,64.2368 L269.466,64.1609 L269.556,64.996 L269.723,64.9779 L269.549,65.5199 C269.498,65.048 269.56,64.6818 269.736,64.4213 C269.916,64.155 270.208,64 270.61,63.9563 C271.072,63.9063 271.453,64.0124 271.755,64.2747 C272.062,64.5311 272.242,64.9059 272.296,65.399 L272.324,65.6615 L271.609,65.7391 L271.587,65.5403 C271.55,65.1956 271.436,64.9424 271.247,64.7805 C271.063,64.6127 270.817,64.5455 270.509,64.5789 C270.207,64.6116 269.978,64.7303 269.823,64.9349 C269.674,65.1388 269.617,65.4105 269.654,65.7498 L269.956,68.5335 L269.24,68.6111 Z M275.521,68.0105 C275.176,68.0479 274.867,68.0117 274.592,67.9021 C274.322,67.7918 274.103,67.6198 273.932,67.3862 C273.767,67.1466 273.666,66.8598 273.63,66.5258 L273.501,65.3327 C273.464,64.9934 273.501,64.6917 273.612,64.4275 C273.728,64.1628 273.906,63.9477 274.145,63.7822 C274.39,63.6162 274.685,63.5145 275.029,63.4771 C275.374,63.4397 275.681,63.4762 275.951,63.5864 C276.225,63.6961 276.445,63.8681 276.61,64.1023 C276.78,64.336 276.884,64.6225 276.921,64.9619 L277.004,65.7334 L274.284,66.0283 L274.33,66.4499 C274.367,66.7945 274.483,67.0501 274.679,67.2167 C274.873,67.378 275.132,67.4411 275.456,67.4061 C275.731,67.3762 275.949,67.3043 276.108,67.1905 C276.267,67.0713 276.354,66.9116 276.37,66.7114 L277.086,66.6338 C277.078,67.0048 276.929,67.316 276.64,67.5673 C276.355,67.8128 275.982,67.9605 275.521,68.0105 Z M276.253,65.3321 L276.221,65.0378 C276.183,64.6931 276.067,64.4375 275.872,64.2709 C275.682,64.1037 275.423,64.038 275.094,64.0736 C274.771,64.1087 274.532,64.2285 274.377,64.4331 C274.222,64.6376 274.163,64.9122 274.2,65.2568 L274.226,65.4875 L276.301,65.2624 L276.253,65.3321 Z M280.29,67.4934 C279.945,67.5308 279.636,67.4946 279.361,67.3849 C279.091,67.2747 278.872,67.1027 278.701,66.869 C278.536,66.6295 278.435,66.3427 278.399,66.0086 L278.27,64.8156 C278.233,64.4763 278.27,64.1745 278.381,63.9104 C278.497,63.6456 278.675,63.4305 278.914,63.2651 C279.159,63.099 279.454,62.9973 279.798,62.96 C280.143,62.9226 280.45,62.959 280.72,63.0693 C280.994,63.179 281.214,63.3509 281.379,63.5852 C281.549,63.8189 281.653,64.1054 281.689,64.4447 L281.773,65.2162 L279.053,65.5112 L279.099,65.9327 C279.136,66.2774 279.252,66.533 279.447,66.6996 C279.642,66.8609 279.901,66.924 280.224,66.8889 C280.5,66.859 280.718,66.7872 280.877,66.6733 C281.036,66.5542 281.123,66.3945 281.139,66.1943 L281.855,66.1167 C281.847,66.4877 281.698,66.7989 281.409,67.0502 C281.124,67.2956 280.751,67.4434 280.29,67.4934 Z M281.021,64.8149 L280.99,64.5206 C280.952,64.176 280.836,63.9204 280.641,63.7538 C280.451,63.5866 280.192,63.5208 279.863,63.5565 C279.54,63.5915 279.3,63.7114 279.146,63.9159 C278.991,64.1205 278.932,64.3951 278.969,64.7397 L278.994,64.9704 L281.07,64.7452 L281.021,64.8149 Z M283.396,67.0761 L282.922,62.7017 L283.637,62.6241 L283.728,63.4592 L283.879,63.4428 L283.746,63.6262 C283.709,63.2816 283.783,63.0053 283.97,62.7973 C284.156,62.584 284.432,62.4575 284.798,62.4178 C285.238,62.3701 285.603,62.4673 285.892,62.7096 C286.181,62.9518 286.351,63.3062 286.401,63.7728 L286.72,66.7156 L286.005,66.7932 L285.694,63.93 C285.66,63.6172 285.55,63.3878 285.362,63.2418 C285.179,63.0899 284.945,63.0295 284.658,63.0606 C284.361,63.0928 284.135,63.2085 283.98,63.4078 C283.83,63.6064 283.773,63.8755 283.81,64.2148 L284.112,66.9985 L283.396,67.0761 Z" id="Shape" fill="color(display-p3 0.831 0.541 0.933)" fill-rule="nonzero"></path>
            <path d="M293.419,55.0052 C293.048,55.0455 292.713,55.0039 292.416,54.8806 C292.123,54.7515 291.884,54.5547 291.7,54.2904 C291.515,54.026 291.403,53.7083 291.363,53.3371 C291.331,53.0455 291.34,52.7549 291.389,52.4652 C291.443,52.175 291.539,51.8911 291.675,51.6134 L292.876,49.1094 L293.671,49.0231 L292.311,51.8422 L292.346,51.8626 C292.43,51.7032 292.556,51.5742 292.722,51.4757 C292.889,51.3772 293.08,51.3162 293.298,51.2926 C293.616,51.2581 293.9,51.3024 294.149,51.4256 C294.399,51.5488 294.602,51.7387 294.758,51.9953 C294.915,52.2519 295.013,52.5658 295.053,52.9369 C295.094,53.3081 295.052,53.6425 294.929,53.9402 C294.805,54.2379 294.615,54.4812 294.356,54.6702 C294.102,54.8533 293.79,54.965 293.419,55.0052 Z M293.342,54.3698 C293.681,54.333 293.942,54.192 294.125,53.9469 C294.307,53.6965 294.378,53.3857 294.338,53.0146 C294.297,52.6434 294.162,52.3577 293.931,52.1574 C293.699,51.9518 293.414,51.8675 293.074,51.9042 C292.735,51.941 292.474,52.0847 292.292,52.3351 C292.11,52.5802 292.039,52.8883 292.079,53.2595 C292.119,53.6306 292.255,53.919 292.486,54.1246 C292.717,54.3249 293.002,54.4066 293.342,54.3698 Z" id="Shape" fill="color(display-p3 0.278 0.482 1.000)" fill-rule="nonzero"></path>
            <rect id="Rectangle" fill="color(display-p3 0.296 0.296 0.296)" fill-rule="nonzero" transform="translate(256.0476, 241.0951) rotate(11.0996) translate(-256.0476, -241.0951)" x="202.735101" y="232.095108" width="106.625" height="18" rx="8.98001957"></rect>
            <path d="M216.407,231.502 L215.139,231.254 C215.144,231.039 215.113,230.841 215.047,230.662 C214.982,230.48 214.888,230.318 214.766,230.177 C214.643,230.036 214.495,229.919 214.321,229.826 C214.149,229.731 213.957,229.663 213.745,229.621 C213.367,229.547 213.014,229.576 212.685,229.709 C212.357,229.839 212.075,230.07 211.838,230.402 C211.602,230.731 211.433,231.157 211.331,231.679 C211.227,232.21 211.221,232.674 211.315,233.07 C211.411,233.464 211.586,233.782 211.839,234.025 C212.094,234.265 212.41,234.422 212.785,234.495 C212.993,234.536 213.193,234.547 213.384,234.528 C213.578,234.508 213.758,234.457 213.924,234.377 C214.092,234.298 214.242,234.188 214.372,234.05 C214.505,233.912 214.61,233.744 214.689,233.549 L215.955,233.804 C215.843,234.125 215.679,234.414 215.464,234.673 C215.252,234.931 214.997,235.146 214.701,235.318 C214.404,235.488 214.075,235.602 213.711,235.659 C213.348,235.715 212.96,235.702 212.546,235.621 C211.936,235.501 211.419,235.253 210.996,234.877 C210.572,234.5 210.275,234.018 210.103,233.431 C209.932,232.843 209.92,232.177 210.066,231.431 C210.213,230.683 210.478,230.07 210.86,229.594 C211.242,229.115 211.701,228.781 212.235,228.593 C212.77,228.404 213.34,228.369 213.946,228.488 C214.332,228.564 214.681,228.689 214.992,228.862 C215.303,229.036 215.568,229.254 215.786,229.515 C216.005,229.774 216.169,230.071 216.277,230.407 C216.387,230.74 216.431,231.106 216.407,231.502 Z M217.933,236.688 C217.603,236.623 217.317,236.506 217.076,236.337 C216.837,236.166 216.664,235.949 216.556,235.686 C216.45,235.423 216.431,235.121 216.498,234.78 C216.555,234.486 216.657,234.254 216.803,234.083 C216.949,233.912 217.128,233.788 217.338,233.709 C217.548,233.631 217.776,233.585 218.023,233.573 C218.272,233.558 218.526,233.562 218.785,233.585 C219.096,233.613 219.349,233.633 219.544,233.646 C219.739,233.656 219.885,233.642 219.981,233.605 C220.08,233.565 220.141,233.487 220.164,233.37 L220.168,233.349 C220.219,233.094 220.182,232.881 220.058,232.711 C219.934,232.542 219.729,232.429 219.445,232.373 C219.144,232.314 218.893,232.333 218.691,232.429 C218.491,232.526 218.343,232.658 218.247,232.824 L217.133,232.437 C217.286,232.138 217.487,231.903 217.736,231.731 C217.986,231.558 218.272,231.447 218.594,231.4 C218.915,231.35 219.258,231.361 219.622,231.433 C219.873,231.482 220.117,231.56 220.354,231.668 C220.591,231.775 220.799,231.917 220.978,232.093 C221.158,232.267 221.287,232.481 221.366,232.736 C221.447,232.991 221.454,233.292 221.386,233.637 L220.703,237.122 L219.523,236.891 L219.663,236.176 L219.623,236.168 C219.52,236.298 219.388,236.413 219.228,236.513 C219.07,236.611 218.882,236.678 218.663,236.715 C218.447,236.75 218.204,236.741 217.933,236.688 Z M218.428,235.849 C218.675,235.897 218.898,235.891 219.098,235.829 C219.298,235.765 219.463,235.661 219.592,235.517 C219.723,235.374 219.808,235.207 219.845,235.014 L219.966,234.401 C219.921,234.425 219.85,234.441 219.752,234.45 C219.656,234.46 219.55,234.464 219.433,234.462 C219.316,234.46 219.2,234.456 219.086,234.45 C218.973,234.444 218.874,234.439 218.79,234.434 C218.602,234.423 218.431,234.432 218.275,234.46 C218.119,234.488 217.989,234.545 217.886,234.63 C217.783,234.713 217.716,234.834 217.685,234.992 C217.64,235.218 217.689,235.405 217.832,235.552 C217.974,235.7 218.173,235.799 218.428,235.849 Z M223.616,234.525 L223.017,237.576 L221.79,237.336 L222.811,232.129 L223.984,232.359 L223.811,233.244 L223.872,233.255 C224.049,232.987 224.285,232.793 224.581,232.673 C224.879,232.553 225.223,232.531 225.611,232.607 C225.971,232.678 226.269,232.816 226.505,233.022 C226.744,233.229 226.908,233.492 226.998,233.812 C227.09,234.133 227.094,234.501 227.01,234.917 L226.36,238.232 L225.132,237.991 L225.746,234.866 C225.814,234.518 225.777,234.228 225.635,233.996 C225.495,233.764 225.267,233.617 224.95,233.555 C224.735,233.513 224.535,233.523 224.349,233.585 C224.166,233.645 224.01,233.754 223.88,233.912 C223.753,234.07 223.665,234.275 223.616,234.525 Z M230.756,239.095 L230.306,233.599 L231.557,233.844 L231.754,237.685 L231.802,237.695 L233.456,234.217 L234.693,234.46 L234.914,238.284 L234.965,238.294 L236.581,234.83 L237.836,235.076 L235.339,239.994 L234.061,239.743 L233.775,236.033 L233.704,236.019 L232.037,239.346 L230.756,239.095 Z M239.66,240.947 C239.138,240.845 238.708,240.648 238.371,240.356 C238.037,240.063 237.807,239.697 237.682,239.257 C237.558,238.814 237.549,238.321 237.656,237.776 C237.761,237.241 237.955,236.791 238.238,236.426 C238.523,236.059 238.872,235.799 239.285,235.646 C239.698,235.49 240.153,235.46 240.65,235.558 C240.971,235.621 241.264,235.732 241.528,235.892 C241.795,236.05 242.018,236.258 242.195,236.516 C242.374,236.774 242.494,237.081 242.556,237.439 C242.618,237.793 242.604,238.199 242.514,238.656 L242.44,239.032 L238.172,238.194 L238.335,237.367 L241.426,237.974 C241.47,237.738 241.46,237.519 241.397,237.317 C241.334,237.112 241.223,236.939 241.066,236.798 C240.91,236.657 240.715,236.563 240.48,236.517 C240.229,236.468 239.997,236.486 239.783,236.571 C239.57,236.653 239.39,236.782 239.246,236.958 C239.104,237.132 239.009,237.335 238.961,237.568 L238.819,238.29 C238.76,238.593 238.764,238.863 238.832,239.102 C238.901,239.338 239.023,239.534 239.199,239.688 C239.376,239.84 239.598,239.942 239.865,239.995 C240.043,240.03 240.21,240.036 240.364,240.015 C240.519,239.991 240.659,239.94 240.785,239.862 C240.911,239.783 241.015,239.676 241.098,239.539 L242.219,239.893 C242.087,240.182 241.897,240.419 241.649,240.605 C241.404,240.789 241.113,240.913 240.774,240.976 C240.436,241.036 240.065,241.027 239.66,240.947 Z M248.856,240.372 L249.448,237.354 L250.675,237.595 L249.654,242.802 L248.464,242.569 L248.646,241.643 L248.591,241.633 C248.417,241.901 248.177,242.102 247.871,242.234 C247.568,242.367 247.221,242.395 246.83,242.319 C246.489,242.252 246.202,242.117 245.97,241.914 C245.74,241.709 245.58,241.447 245.49,241.126 C245.401,240.804 245.397,240.435 245.479,240.019 L246.129,236.703 L247.357,236.944 L246.743,240.07 C246.679,240.4 246.718,240.679 246.86,240.909 C247.003,241.139 247.221,241.283 247.515,241.341 C247.696,241.376 247.88,241.366 248.066,241.311 C248.253,241.257 248.418,241.153 248.561,241 C248.706,240.845 248.804,240.636 248.856,240.372 Z M255.636044,239.998 L254.493,239.9 C254.484,239.781 254.449,239.664 254.39,239.549 C254.332,239.434 254.244,239.334 254.125,239.247 C254.006,239.16 253.852,239.098 253.662,239.061 C253.406,239.011 253.181,239.024 252.985,239.101 C252.792,239.178 252.679,239.305 252.646,239.482 C252.614,239.632 252.646,239.767 252.74,239.884 C252.837,240.001 253.011,240.116 253.264,240.229 L254.114,240.593 C254.586,240.796 254.919,241.036 255.114,241.314 C255.31,241.592 255.373,241.918 255.302,242.291 C255.236,242.618 255.083,242.889 254.844,243.102 C254.608,243.314 254.308,243.457 253.946,243.532 C253.584,243.606 253.186,243.601 252.753,243.516 C252.115,243.391 251.628,243.157 251.292,242.814 C250.956,242.469 250.798,242.049 250.817,241.555 L252.036,241.675 C252.045,241.921 252.125,242.121 252.278,242.275 C252.431,242.429 252.648,242.534 252.931,242.59 C253.222,242.647 253.468,242.633 253.668,242.548 C253.87,242.463 253.988,242.332 254.023,242.156 C254.052,242.007 254.018,241.872 253.922,241.753 C253.828,241.633 253.667,241.524 253.437,241.425 L252.586,241.064 C252.107,240.862 251.771,240.615 251.58,240.321 C251.389,240.026 251.332,239.688 251.409,239.309 C251.47,238.988 251.611,238.727 251.834,238.526 C252.059,238.324 252.342,238.19 252.684,238.123 C253.028,238.054 253.408,238.061 253.824,238.142 C254.435,238.262 254.889,238.486 255.189,238.815 C255.49,239.144 255.639,239.538 255.636044,239.998 Z M258.147,244.574 C257.625,244.472 257.195,244.275 256.858,243.983 C256.524,243.69 256.294,243.323 256.169,242.883 C256.044,242.441 256.036,241.948 256.142,241.403 C256.248,240.867 256.441,240.417 256.724,240.053 C257.01,239.686 257.359,239.426 257.772,239.272 C258.185,239.116 258.64,239.087 259.137,239.185 C259.458,239.248 259.751,239.359 260.015,239.519 C260.282,239.677 260.504,239.885 260.681,240.143 C260.861,240.401 260.981,240.708 261.042,241.065 C261.104,241.42 261.09,241.826 261.001,242.282 L260.927,242.659 L256.659,241.821 L256.821,240.994 L259.913,241.601 C259.957,241.365 259.947,241.146 259.883,240.944 C259.82,240.739 259.71,240.566 259.552,240.424 C259.397,240.284 259.202,240.19 258.967,240.144 C258.716,240.095 258.483,240.113 258.27,240.197 C258.056,240.28 257.877,240.409 257.732,240.585 C257.59,240.759 257.495,240.962 257.447,241.194 L257.306,241.916 C257.246,242.219 257.251,242.49 257.319,242.729 C257.387,242.965 257.51,243.161 257.686,243.315 C257.863,243.467 258.085,243.569 258.351,243.621 C258.53,243.656 258.696,243.663 258.851,243.642 C259.005,243.618 259.146,243.567 259.271,243.489 C259.397,243.41 259.502,243.303 259.585,243.166 L260.705,243.52 C260.573,243.809 260.384,244.046 260.136,244.232 C259.891,244.416 259.599,244.54 259.261,244.602 C258.923,244.663 258.551,244.653 258.147,244.574 Z M270.494,242.113 L269.226,241.865 C269.231,241.65 269.2,241.452 269.135,241.273 C269.069,241.091 268.975,240.929 268.853,240.788 C268.73,240.647 268.582,240.53 268.408,240.437 C268.236,240.342 268.044,240.274 267.832,240.232 C267.454,240.158 267.101,240.187 266.773,240.32 C266.444,240.45 266.162,240.681 265.925,241.013 C265.69,241.342 265.52,241.768 265.418,242.29 C265.314,242.821 265.308,243.285 265.402,243.681 C265.498,244.075 265.673,244.394 265.926,244.636 C266.182,244.876 266.497,245.033 266.872,245.106 C267.08,245.147 267.28,245.158 267.471,245.139 C267.665,245.119 267.845,245.069 268.011,244.988 C268.179,244.909 268.329,244.8 268.459,244.661 C268.592,244.523 268.698,244.356 268.776,244.16 L270.042,244.415 C269.93,244.736 269.767,245.025 269.552,245.284 C269.339,245.542 269.084,245.758 268.788,245.929 C268.492,246.099 268.162,246.213 267.798,246.27 C267.436,246.326 267.047,246.313 266.634,246.232 C266.023,246.112 265.507,245.864 265.083,245.488 C264.659,245.111 264.362,244.629 264.191,244.042 C264.02,243.454 264.007,242.788 264.153,242.042 C264.3,241.294 264.565,240.681 264.947,240.205 C265.33,239.726 265.788,239.392 266.323,239.204 C266.857,239.015 267.427,238.98 268.033,239.099 C268.419,239.175 268.768,239.3 269.079,239.474 C269.39,239.647 269.655,239.865 269.874,240.126 C270.093,240.385 270.256,240.682 270.364,241.018 C270.474,241.351 270.518,241.717 270.494,242.113 Z M272.02,247.299 C271.69,247.234 271.404,247.117 271.163,246.948 C270.924,246.777 270.751,246.56 270.643,246.297 C270.537,246.034 270.518,245.732 270.585,245.391 C270.642,245.097 270.744,244.865 270.89,244.694 C271.037,244.523 271.215,244.399 271.425,244.32 C271.635,244.242 271.864,244.196 272.11,244.184 C272.359,244.169 272.613,244.173 272.872,244.196 C273.183,244.224 273.436,244.244 273.631,244.257 C273.826,244.267 273.972,244.253 274.068,244.216 C274.167,244.177 274.229,244.098 274.252,243.981 L274.256,243.96 C274.306,243.705 274.269,243.492 274.145,243.323 C274.021,243.153 273.817,243.04 273.532,242.984 C273.231,242.925 272.98,242.944 272.778,243.04 C272.578,243.137 272.43,243.269 272.334,243.436 L271.22,243.048 C271.373,242.749 271.574,242.514 271.824,242.343 C272.074,242.169 272.359,242.058 272.681,242.011 C273.003,241.961 273.345,241.972 273.709,242.044 C273.96,242.093 274.204,242.171 274.441,242.279 C274.678,242.386 274.886,242.528 275.065,242.704 C275.245,242.878 275.374,243.092 275.453,243.347 C275.535,243.602 275.541,243.903 275.474,244.249 L274.79,247.734 L273.61,247.502 L273.75,246.787 L273.71,246.779 C273.607,246.909 273.475,247.024 273.315,247.124 C273.157,247.222 272.969,247.289 272.75,247.326 C272.535,247.361 272.291,247.352 272.02,247.299 Z M272.516,246.46 C272.762,246.508 272.985,246.502 273.185,246.44 C273.385,246.376 273.55,246.272 273.679,246.128 C273.81,245.985 273.895,245.818 273.933,245.626 L274.053,245.012 C274.008,245.036 273.937,245.053 273.839,245.061 C273.743,245.071 273.637,245.075 273.52,245.073 C273.403,245.071 273.288,245.067 273.174,245.061 C273.06,245.055 272.961,245.05 272.878,245.045 C272.69,245.034 272.518,245.043 272.362,245.071 C272.206,245.099 272.077,245.156 271.973,245.241 C271.87,245.324 271.803,245.445 271.772,245.603 C271.727,245.829 271.777,246.016 271.919,246.163 C272.061,246.311 272.26,246.41 272.516,246.46 Z M277.703,245.137 L277.104,248.188 L275.877,247.947 L276.899,242.74 L278.071,242.97 L277.898,243.855 L277.959,243.867 C278.136,243.599 278.372,243.404 278.668,243.284 C278.966,243.164 279.31,243.142 279.698,243.219 C280.058,243.289 280.356,243.427 280.592,243.633 C280.831,243.84 280.995,244.103 281.085,244.424 C281.177,244.744 281.181,245.112 281.097,245.528 L280.447,248.843 L279.22,248.603 L279.833,245.477 C279.901,245.129 279.864,244.839 279.722,244.607 C279.582,244.375 279.354,244.228 279.037,244.166 C278.823,244.124 278.622,244.134 278.436,244.196 C278.253,244.256 278.097,244.365 277.967,244.523 C277.84,244.681 277.752,244.886 277.703,245.137 Z M287.034,244.728 L284.158,249.571 L282.802,249.305 L281.969,243.734 L283.278,243.991 L283.715,248.094 L283.77,248.105 L285.729,244.472 L287.034,244.728 Z M288.043,250.443 C287.713,250.378 287.427,250.261 287.186,250.092 C286.947,249.92 286.774,249.703 286.666,249.44 C286.56,249.178 286.541,248.876 286.608,248.535 C286.666,248.241 286.767,248.009 286.914,247.838 C287.06,247.667 287.238,247.542 287.448,247.464 C287.658,247.385 287.887,247.34 288.133,247.327 C288.383,247.313 288.636,247.317 288.895,247.339 C289.206,247.367 289.459,247.388 289.654,247.4 C289.849,247.41 289.995,247.397 290.091,247.359 C290.191,247.32 290.252,247.242 290.275,247.124 L290.279,247.104 C290.329,246.848 290.292,246.636 290.168,246.466 C290.044,246.296 289.84,246.183 289.555,246.127 C289.254,246.068 289.003,246.087 288.801,246.184 C288.601,246.281 288.454,246.412 288.358,246.579 L287.244,246.192 C287.396,245.893 287.597,245.658 287.847,245.486 C288.097,245.312 288.382,245.202 288.704,245.154 C289.026,245.105 289.369,245.116 289.733,245.187 C289.983,245.236 290.227,245.315 290.464,245.422 C290.701,245.53 290.91,245.671 291.089,245.847 C291.268,246.021 291.397,246.235 291.476,246.49 C291.558,246.746 291.565,247.046 291.497,247.392 L290.813,250.877 L289.633,250.646 L289.774,249.93 L289.733,249.922 C289.63,250.052 289.498,250.167 289.338,250.267 C289.18,250.365 288.992,250.433 288.774,250.47 C288.558,250.505 288.314,250.496 288.043,250.443 Z M288.539,249.603 C288.785,249.652 289.008,249.645 289.208,249.583 C289.408,249.519 289.573,249.416 289.702,249.272 C289.833,249.129 289.918,248.961 289.956,248.769 L290.076,248.155 C290.031,248.18 289.96,248.196 289.862,248.205 C289.766,248.214 289.66,248.218 289.543,248.216 C289.426,248.214 289.311,248.211 289.197,248.205 C289.083,248.199 288.984,248.194 288.901,248.189 C288.713,248.178 288.541,248.186 288.385,248.214 C288.229,248.243 288.1,248.299 287.996,248.385 C287.893,248.468 287.826,248.588 287.795,248.746 C287.751,248.972 287.8,249.159 287.942,249.307 C288.084,249.455 288.283,249.553 288.539,249.603 Z M296.767044,248.067 L295.625,247.97 C295.615,247.85 295.581,247.733 295.521,247.618 C295.464,247.504 295.375,247.403 295.256,247.316 C295.137,247.23 294.983,247.168 294.793,247.13 C294.537,247.08 294.312,247.094 294.116,247.17 C293.923,247.247 293.81,247.374 293.777,247.551 C293.745,247.702 293.777,247.836 293.871,247.953 C293.968,248.07 294.142,248.186 294.395,248.299 L295.246,248.663 C295.718,248.866 296.051,249.106 296.245,249.383 C296.442,249.661 296.504,249.987 296.433,250.36 C296.367,250.687 296.214,250.958 295.975,251.172 C295.739,251.383 295.44,251.526 295.078,251.601 C294.716,251.675 294.318,251.67 293.884,251.585 C293.246,251.46 292.76,251.226 292.423,250.883 C292.087,250.538 291.929,250.118 291.948,249.625 L293.168,249.744 C293.176,249.99 293.256,250.19 293.409,250.344 C293.562,250.499 293.779,250.603 294.062,250.659 C294.353,250.716 294.599,250.702 294.799,250.617 C295.001,250.532 295.119,250.402 295.154,250.225 C295.183,250.076 295.15,249.942 295.053,249.822 C294.959,249.703 294.798,249.593 294.568,249.494 L293.717,249.134 C293.238,248.932 292.903,248.684 292.711,248.391 C292.521,248.095 292.464,247.758 292.54,247.379 C292.601,247.057 292.743,246.796 292.965,246.596 C293.19,246.393 293.473,246.259 293.815,246.192 C294.16,246.124 294.54,246.13 294.955,246.212 C295.566,246.331 296.02,246.556 296.32,246.884 C296.621,247.213 296.77,247.608 296.767044,248.067 Z M298.566,250.279 L298.583,250.191 C298.666,249.782 298.768,249.464 298.89,249.237 C299.014,249.01 299.161,248.837 299.33,248.718 C299.499,248.596 299.697,248.493 299.922,248.408 C300.077,248.349 300.219,248.279 300.347,248.199 C300.478,248.117 300.588,248.018 300.676,247.904 C300.764,247.788 300.824,247.651 300.855,247.492 C300.89,247.314 300.879,247.151 300.821,247.003 C300.763,246.856 300.67,246.732 300.542,246.632 C300.416,246.532 300.266,246.465 300.092,246.431 C299.931,246.399 299.772,246.404 299.614,246.446 C299.458,246.486 299.319,246.567 299.196,246.688 C299.077,246.808 298.99,246.973 298.937,247.183 L297.731,246.946 C297.826,246.519 298.001,246.18 298.254,245.929 C298.51,245.679 298.814,245.514 299.168,245.433 C299.524,245.352 299.9,245.351 300.295,245.429 C300.727,245.513 301.092,245.664 301.39,245.879 C301.69,246.095 301.904,246.362 302.032,246.678 C302.163,246.992 302.191,247.34 302.116,247.722 C302.066,247.98 301.979,248.202 301.855,248.389 C301.734,248.577 301.582,248.735 301.4,248.863 C301.217,248.992 301.01,249.098 300.777,249.181 C300.572,249.258 300.399,249.346 300.257,249.445 C300.118,249.545 300.004,249.671 299.915,249.825 C299.829,249.977 299.761,250.173 299.712,250.412 L299.695,250.5 L298.566,250.279 Z M298.741,252.51 C298.537,252.47 298.376,252.363 298.258,252.19 C298.139,252.016 298.101,251.826 298.141,251.618 C298.181,251.414 298.289,251.255 298.464,251.139 C298.639,251.023 298.829,250.985 299.032,251.025 C299.233,251.064 299.393,251.171 299.512,251.344 C299.632,251.518 299.673,251.707 299.633,251.91 C299.606,252.048 299.546,252.167 299.454,252.266 C299.364,252.366 299.256,252.438 299.13,252.484 C299.006,252.528 298.876,252.536 298.741,252.51 Z" id="Shape" fill="color(display-p3 1.000 1.000 1.000)" fill-rule="nonzero"></path>
            <path d="M205.243,232.198 C204.474,236.569 202.583,239.69 200.649,239.251 C200.649,239.251 206.113,241.21 207.037,237.138 C207.203,236.406 208.967,236.123 208.967,236.123 C208.967,236.123 206.249,232.427 205.243,232.198 Z" id="Path" fill="color(display-p3 0.296 0.296 0.296)"></path>
        </g>
    </g>
</svg>