<?xml version="1.0" encoding="UTF-8"?>
<svg width="543px" height="317px" viewBox="0 0 543 317" version="1.1" xmlns="http://www.w3.org/2000/svg" xmlns:xlink="http://www.w3.org/1999/xlink">
    <title>shapes-parity</title>
    <g id="shapes-parity" stroke="none" fill="none" fill-rule="evenodd" stroke-width="1">
        <g id="Group">
            <rect id="Rectangle" fill-opacity="0.4" fill="color(display-p3 0.533 0.533 0.533)" fill-rule="nonzero" x="227" y="122" width="100" height="100" rx="5"></rect>
            <path d="M226.705,119 L226.705,113.182 L230.193,113.182 L230.193,113.807 L227.409,113.807 L227.409,115.773 L229.932,115.773 L229.932,116.398 L227.409,116.398 L227.409,119 L226.705,119 Z M231.262,119 L231.262,114.636 L231.91,114.636 L231.91,115.295 L231.955,115.295 C232.035,115.08 232.179,114.904 232.387,114.77 C232.595,114.635 232.83,114.568 233.092,114.568 C233.141,114.568 233.202,114.569 233.276,114.571 C233.35,114.573 233.406,114.576 233.444,114.58 L233.444,115.261 C233.421,115.256 233.369,115.247 233.288,115.236 C233.208,115.223 233.124,115.216 233.035,115.216 C232.823,115.216 232.633,115.26 232.467,115.349 C232.302,115.437 232.171,115.558 232.075,115.713 C231.98,115.866 231.933,116.042 231.933,116.239 L231.933,119 L231.262,119 Z M235.523,119.102 C235.246,119.102 234.995,119.05 234.77,118.946 C234.545,118.84 234.366,118.688 234.233,118.489 C234.1,118.288 234.034,118.045 234.034,117.761 C234.034,117.511 234.083,117.309 234.182,117.153 C234.28,116.996 234.412,116.873 234.577,116.784 C234.741,116.695 234.923,116.629 235.122,116.585 C235.323,116.54 235.525,116.504 235.727,116.477 C235.992,116.443 236.207,116.418 236.372,116.401 C236.539,116.382 236.66,116.35 236.736,116.307 C236.813,116.263 236.852,116.187 236.852,116.08 L236.852,116.057 C236.852,115.777 236.776,115.559 236.622,115.403 C236.471,115.248 236.241,115.17 235.932,115.17 C235.612,115.17 235.361,115.241 235.179,115.381 C234.997,115.521 234.869,115.67 234.795,115.83 L234.159,115.602 C234.273,115.337 234.424,115.131 234.614,114.983 C234.805,114.833 235.013,114.729 235.239,114.67 C235.466,114.61 235.689,114.58 235.909,114.58 C236.049,114.58 236.21,114.597 236.392,114.631 C236.576,114.663 236.753,114.73 236.923,114.832 C237.096,114.935 237.239,115.089 237.352,115.295 C237.466,115.502 237.523,115.778 237.523,116.125 L237.523,119 L236.852,119 L236.852,118.409 L236.818,118.409 C236.773,118.504 236.697,118.605 236.591,118.713 C236.485,118.821 236.344,118.913 236.168,118.989 C235.991,119.064 235.777,119.102 235.523,119.102 Z M235.625,118.5 C235.89,118.5 236.114,118.448 236.295,118.344 C236.479,118.24 236.617,118.105 236.71,117.94 C236.805,117.776 236.852,117.602 236.852,117.42 L236.852,116.807 C236.824,116.841 236.761,116.872 236.665,116.901 C236.57,116.927 236.46,116.951 236.335,116.972 C236.212,116.991 236.092,117.008 235.974,117.023 C235.859,117.036 235.765,117.047 235.693,117.057 C235.519,117.08 235.356,117.116 235.205,117.168 C235.055,117.217 234.934,117.292 234.841,117.392 C234.75,117.491 234.705,117.625 234.705,117.795 C234.705,118.028 234.791,118.205 234.963,118.324 C235.137,118.441 235.358,118.5 235.625,118.5 Z M238.746,119 L238.746,114.636 L239.394,114.636 L239.394,115.318 L239.451,115.318 C239.542,115.085 239.689,114.904 239.891,114.776 C240.094,114.645 240.337,114.58 240.621,114.58 C240.909,114.58 241.149,114.645 241.34,114.776 C241.533,114.904 241.684,115.085 241.792,115.318 L241.837,115.318 C241.949,115.093 242.117,114.914 242.34,114.781 C242.564,114.647 242.832,114.58 243.144,114.58 C243.534,114.58 243.853,114.702 244.102,114.946 C244.35,115.188 244.474,115.566 244.474,116.08 L244.474,119 L243.803,119 L243.803,116.08 C243.803,115.758 243.715,115.527 243.539,115.389 C243.363,115.251 243.156,115.182 242.917,115.182 C242.61,115.182 242.372,115.275 242.204,115.46 C242.035,115.644 241.951,115.877 241.951,116.159 L241.951,119 L241.269,119 L241.269,116.011 C241.269,115.763 241.189,115.563 241.028,115.412 C240.867,115.259 240.659,115.182 240.406,115.182 C240.231,115.182 240.068,115.228 239.917,115.321 C239.767,115.414 239.646,115.543 239.553,115.707 C239.462,115.87 239.417,116.059 239.417,116.273 L239.417,119 L238.746,119 Z M247.529,119.091 C247.109,119.091 246.746,118.998 246.441,118.812 C246.138,118.625 245.904,118.364 245.739,118.028 C245.576,117.691 245.495,117.299 245.495,116.852 C245.495,116.405 245.576,116.011 245.739,115.67 C245.904,115.328 246.133,115.061 246.427,114.869 C246.722,114.676 247.067,114.58 247.461,114.58 C247.688,114.58 247.913,114.617 248.134,114.693 C248.356,114.769 248.558,114.892 248.739,115.062 C248.921,115.231 249.066,115.455 249.174,115.733 C249.282,116.011 249.336,116.354 249.336,116.761 L249.336,117.045 L245.972,117.045 L245.972,116.466 L248.654,116.466 C248.654,116.22 248.605,116 248.506,115.807 C248.41,115.614 248.272,115.461 248.092,115.349 C247.914,115.238 247.703,115.182 247.461,115.182 C247.194,115.182 246.963,115.248 246.768,115.381 C246.575,115.511 246.426,115.682 246.322,115.892 C246.218,116.102 246.165,116.328 246.165,116.568 L246.165,116.955 C246.165,117.284 246.222,117.563 246.336,117.793 C246.451,118.02 246.612,118.193 246.816,118.312 C247.021,118.43 247.258,118.489 247.529,118.489 C247.705,118.489 247.864,118.464 248.006,118.415 C248.15,118.364 248.274,118.288 248.379,118.188 C248.483,118.085 248.563,117.958 248.62,117.807 L249.268,117.989 C249.2,118.208 249.085,118.402 248.924,118.568 C248.763,118.733 248.564,118.862 248.327,118.955 C248.091,119.045 247.825,119.091 247.529,119.091 Z M254.64,113.182 L254.64,119 L253.935,119 L253.935,113.92 L253.901,113.92 L252.481,114.864 L252.481,114.148 L253.935,113.182 L254.64,113.182 Z" id="Shape" fill="color(display-p3 0.533 0.533 0.533)" fill-rule="nonzero"></path>
            <path d="M93.8689,80.0416 C37.5911,98.0614 59.2763,190.602 80.1331,237.131 C80.9277,238.904 82.6869,240.000003 84.6295,240.000003 L176.107,240.000003 C178.76,240.000003 180.951,237.928 181.099,235.28 L185.311,160.15 C185.422,158.167 186.697,156.437 188.559,155.744 L208.363,148.376 C211.6,147.172 212.683,143.117 210.528,140.418 C187.551,111.65 152.07,61.406 93.8689,80.0416 Z" id="Path" fill="color(display-p3 0.533 0.533 0.533)" fill-rule="nonzero" opacity="0.4"></path>
            <circle id="Oval" fill="color(display-p3 1.000 1.000 1.000)" fill-rule="nonzero" cx="116.5" cy="127.5" r="44.5"></circle>
            <path d="M114.5,98.4434 C116.047,97.5502 117.953,97.5502 119.5,98.4434 L140.481,110.557 C142.028,111.45 142.981,113.1 142.981,114.887 L142.981,139.113 C142.981,140.9 142.028,142.55 140.481,143.443 L119.5,155.557 C117.953,156.45 116.047,156.45 114.5,155.557 L93.5192,143.443 C91.9722,142.55 91.0192,140.9 91.0192,139.113 L91.0192,114.887 C91.0192,113.1 91.9722,111.45 93.5192,110.557 L114.5,98.4434 Z" id="Path" fill="color(display-p3 0.949 0.477 0.000)" fill-rule="nonzero"></path>
            <path d="M454.73,81.8445 C508.444,98.9677 487.823,186.832 467.915,231.135 C467.12,232.904 465.361,234 463.422,234 L376.368,234 C373.716,234 371.525,231.929 371.376,229.281 L367.375,158.209 C367.263,156.223 365.985,154.492 364.119,153.801 L345.666,146.966 C342.42,145.764 341.33,141.701 343.494,139 C365.453,111.591 399.31,64.1774 454.73,81.8445 Z" id="Path" fill="color(display-p3 0.533 0.533 0.533)" fill-rule="nonzero" opacity="0.4"></path>
            <circle id="Oval" fill="color(display-p3 1.000 1.000 1.000)" fill-rule="nonzero" cx="432.5" cy="127.5" r="44.5"></circle>
            <path d="M430.5,98.4434 C432.047,97.5502 433.953,97.5502 435.5,98.4434 L456.481,110.557 C458.028,111.45 458.981,113.1 458.981,114.887 L458.981,139.113 C458.981,140.9 458.028,142.55 456.481,143.443 L435.5,155.557 C433.953,156.45 432.047,156.45 430.5,155.557 L409.519,143.443 C407.972,142.55 407.019,140.9 407.019,139.113 L407.019,114.887 C407.019,113.1 407.972,111.45 409.519,110.557 L430.5,98.4434 Z" id="Path" fill="color(display-p3 0.949 0.477 0.000)" fill-rule="nonzero"></path>
            <path d="M274.5,143.443 C276.047,142.55 277.953,142.55 279.5,143.443 L300.481,155.557 C302.028,156.45 302.981,158.1 302.981,159.887 L302.981,184.113 C302.981,185.9 302.028,187.55 300.481,188.443 L279.5,200.557 C277.953,201.45 276.047,201.45 274.5,200.557 L253.519,188.443 C251.972,187.55 251.019,185.9 251.019,184.113 L251.019,159.887 C251.019,158.1 251.972,156.45 253.519,155.557 L274.5,143.443 Z" id="Path" fill="color(display-p3 0.949 0.477 0.000)" fill-rule="nonzero"></path>
        </g>
    </g>
</svg>