<?xml version="1.0" encoding="UTF-8"?>
<svg width="543px" height="317px" viewBox="0 0 543 317" version="1.1" xmlns="http://www.w3.org/2000/svg" xmlns:xlink="http://www.w3.org/1999/xlink">
    <title>shapes-computer</title>
    <g id="shapes-computer" stroke="none" fill="none" fill-rule="evenodd" stroke-width="1">
        <g id="Group">
            <rect id="Rectangle" fill-opacity="0.1" fill="color(display-p3 0.533 0.533 0.533)" fill-rule="nonzero" x="227" y="144" width="106" height="56" rx="5"></rect>
            <path d="M236.432,158.08 C236.08,158.08 235.773,158.013 235.512,157.88 C235.256,157.747 235.056,157.555 234.912,157.304 C234.773,157.048 234.704,156.747 234.704,156.4 L234.704,153.76 C234.704,153.408 234.773,153.107 234.912,152.856 C235.056,152.605 235.256,152.413 235.512,152.28 C235.773,152.147 236.08,152.08 236.432,152.08 C236.784,152.08 237.088,152.149 237.344,152.288 C237.6,152.421 237.797,152.613 237.936,152.864 C238.075,153.115 238.144,153.413 238.144,153.76 L237.424,153.76 C237.424,153.429 237.336,153.176 237.16,153 C236.989,152.819 236.747,152.728 236.432,152.728 C236.117,152.728 235.869,152.816 235.688,152.992 C235.512,153.168 235.424,153.421 235.424,153.752 L235.424,156.4 C235.424,156.731 235.512,156.987 235.688,157.168 C235.869,157.344 236.117,157.432 236.432,157.432 C236.747,157.432 236.989,157.344 237.16,157.168 C237.336,156.987 237.424,156.731 237.424,156.4 L238.144,156.4 C238.144,156.741 238.075,157.04 237.936,157.296 C237.797,157.547 237.6,157.741 237.344,157.88 C237.088,158.013 236.784,158.08 236.432,158.08 Z M240.813,158.08 C240.349,158.08 239.984,157.963 239.717,157.728 C239.45,157.488 239.317,157.165 239.317,156.76 C239.317,156.349 239.45,156.027 239.717,155.792 C239.984,155.557 240.344,155.44 240.797,155.44 L242.157,155.44 L242.157,155 C242.157,154.728 242.074,154.52 241.909,154.376 C241.749,154.227 241.52,154.152 241.221,154.152 C240.96,154.152 240.741,154.208 240.565,154.32 C240.389,154.427 240.288,154.573 240.261,154.76 L239.541,154.76 C239.589,154.381 239.768,154.08 240.077,153.856 C240.386,153.632 240.773,153.52 241.237,153.52 C241.744,153.52 242.144,153.651 242.437,153.912 C242.73,154.173 242.877,154.528 242.877,154.976 L242.877,158 L242.173,158 L242.173,157.16 L242.053,157.16 L242.173,157.04 C242.173,157.36 242.048,157.613 241.797,157.8 C241.552,157.987 241.224,158.08 240.813,158.08 Z M240.989,157.512 C241.33,157.512 241.61,157.427 241.829,157.256 C242.048,157.085 242.157,156.867 242.157,156.6 L242.157,155.976 L240.813,155.976 C240.573,155.976 240.384,156.043 240.245,156.176 C240.106,156.309 240.037,156.491 240.037,156.72 C240.037,156.965 240.12,157.16 240.285,157.304 C240.456,157.443 240.69,157.512 240.989,157.512 Z M244.33,158 L244.33,153.6 L245.05,153.6 L245.05,154.44 L245.202,154.44 L245.05,154.608 C245.05,154.261 245.154,153.995 245.362,153.808 C245.57,153.616 245.858,153.52 246.226,153.52 C246.668,153.52 247.02,153.656 247.282,153.928 C247.543,154.2 247.674,154.571 247.674,155.04 L247.674,158 L246.954,158 L246.954,155.12 C246.954,154.805 246.868,154.565 246.698,154.4 C246.532,154.229 246.306,154.144 246.018,154.144 C245.719,154.144 245.482,154.235 245.306,154.416 C245.135,154.597 245.05,154.859 245.05,155.2 L245.05,158 L244.33,158 Z M250.303,158 L248.831,153.6 L249.567,153.6 L250.543,156.56 C250.601,156.736 250.655,156.907 250.703,157.072 C250.751,157.232 250.785,157.357 250.807,157.448 C250.833,157.357 250.871,157.232 250.919,157.072 C250.967,156.907 251.017,156.736 251.071,156.56 L252.023,153.6 L252.751,153.6 L251.279,158 L250.303,158 Z M255.204,158.08 C254.74,158.08 254.374,157.963 254.108,157.728 C253.841,157.488 253.708,157.165 253.708,156.76 C253.708,156.349 253.841,156.027 254.108,155.792 C254.374,155.557 254.734,155.44 255.188,155.44 L256.548,155.44 L256.548,155 C256.548,154.728 256.465,154.52 256.3,154.376 C256.14,154.227 255.91,154.152 255.612,154.152 C255.35,154.152 255.132,154.208 254.956,154.32 C254.78,154.427 254.678,154.573 254.652,154.76 L253.932,154.76 C253.98,154.381 254.158,154.08 254.468,153.856 C254.777,153.632 255.164,153.52 255.628,153.52 C256.134,153.52 256.534,153.651 256.828,153.912 C257.121,154.173 257.268,154.528 257.268,154.976 L257.268,158 L256.564,158 L256.564,157.16 L256.444,157.16 L256.564,157.04 C256.564,157.36 256.438,157.613 256.188,157.8 C255.942,157.987 255.614,158.08 255.204,158.08 Z M255.38,157.512 C255.721,157.512 256.001,157.427 256.22,157.256 C256.438,157.085 256.548,156.867 256.548,156.6 L256.548,155.976 L255.204,155.976 C254.964,155.976 254.774,156.043 254.636,156.176 C254.497,156.309 254.428,156.491 254.428,156.72 C254.428,156.965 254.51,157.16 254.676,157.304 C254.846,157.443 255.081,157.512 255.38,157.512 Z M260.248,158.064 C259.95,158.064 259.688,158.019 259.464,157.928 C259.246,157.832 259.07,157.699 258.936,157.528 C258.808,157.357 258.731,157.155 258.704,156.92 L259.424,156.92 C259.456,157.075 259.542,157.197 259.68,157.288 C259.824,157.379 260.014,157.424 260.248,157.424 L260.584,157.424 C260.867,157.424 261.078,157.368 261.216,157.256 C261.355,157.139 261.424,156.984 261.424,156.792 C261.424,156.605 261.36,156.459 261.232,156.352 C261.11,156.24 260.926,156.165 260.68,156.128 L260.088,156.032 C259.656,155.957 259.334,155.824 259.12,155.632 C258.912,155.435 258.808,155.149 258.808,154.776 C258.808,154.381 258.934,154.077 259.184,153.864 C259.435,153.645 259.811,153.536 260.312,153.536 L260.616,153.536 C261.038,153.536 261.376,153.635 261.632,153.832 C261.888,154.029 262.043,154.296 262.096,154.632 L261.376,154.632 C261.344,154.493 261.264,154.384 261.136,154.304 C261.008,154.219 260.835,154.176 260.616,154.176 L260.312,154.176 C260.04,154.176 259.84,154.227 259.712,154.328 C259.59,154.429 259.528,154.581 259.528,154.784 C259.528,154.965 259.582,155.099 259.688,155.184 C259.795,155.269 259.963,155.331 260.192,155.368 L260.784,155.464 C261.259,155.539 261.603,155.677 261.816,155.88 C262.035,156.083 262.144,156.376 262.144,156.76 C262.144,157.165 262.014,157.485 261.752,157.72 C261.496,157.949 261.107,158.064 260.584,158.064 L260.248,158.064 Z M244.33,169 L244.33,163.16 L246.21,163.16 C246.572,163.16 246.887,163.232 247.154,163.376 C247.42,163.515 247.626,163.712 247.77,163.968 C247.919,164.224 247.994,164.528 247.994,164.88 C247.994,165.227 247.919,165.531 247.77,165.792 C247.626,166.048 247.42,166.248 247.154,166.392 C246.887,166.531 246.572,166.6 246.21,166.6 L245.05,166.6 L245.05,169 L244.33,169 Z M245.05,165.952 L246.21,165.952 C246.524,165.952 246.775,165.856 246.962,165.664 C247.154,165.467 247.25,165.205 247.25,164.88 C247.25,164.549 247.154,164.288 246.962,164.096 C246.775,163.904 246.524,163.808 246.21,163.808 L245.05,163.808 L245.05,165.952 Z M250.791,169.064 C250.439,169.064 250.135,168.997 249.879,168.864 C249.623,168.731 249.423,168.539 249.279,168.288 C249.14,168.032 249.071,167.731 249.071,167.384 L249.071,166.216 C249.071,165.864 249.14,165.563 249.279,165.312 C249.423,165.061 249.623,164.869 249.879,164.736 C250.135,164.603 250.439,164.536 250.791,164.536 C251.143,164.536 251.447,164.603 251.703,164.736 C251.959,164.869 252.156,165.061 252.295,165.312 C252.439,165.563 252.511,165.861 252.511,166.208 L252.511,167.384 C252.511,167.731 252.439,168.032 252.295,168.288 C252.156,168.539 251.959,168.731 251.703,168.864 C251.447,168.997 251.143,169.064 250.791,169.064 Z M250.791,168.424 C251.105,168.424 251.351,168.336 251.527,168.16 C251.703,167.984 251.791,167.725 251.791,167.384 L251.791,166.216 C251.791,165.875 251.703,165.616 251.527,165.44 C251.351,165.264 251.105,165.176 250.791,165.176 C250.481,165.176 250.236,165.264 250.055,165.44 C249.879,165.616 249.791,165.875 249.791,166.216 L249.791,167.384 C249.791,167.725 249.879,167.984 250.055,168.16 C250.236,168.336 250.481,168.424 250.791,168.424 Z M256.188,169 C255.932,169 255.708,168.949 255.516,168.848 C255.324,168.747 255.174,168.603 255.068,168.416 C254.961,168.229 254.908,168.011 254.908,167.76 L254.908,163.816 L253.428,163.816 L253.428,163.16 L255.628,163.16 L255.628,167.76 C255.628,167.941 255.678,168.085 255.78,168.192 C255.881,168.293 256.017,168.344 256.188,168.344 L257.588,168.344 L257.588,169 L256.188,169 Z M259.408,170.44 L260.056,168.728 L258.424,164.6 L259.224,164.6 L260.248,167.32 C260.286,167.411 260.32,167.52 260.352,167.648 C260.384,167.771 260.411,167.875 260.432,167.96 C260.454,167.875 260.48,167.771 260.512,167.648 C260.544,167.52 260.576,167.411 260.608,167.32 L261.568,164.6 L262.344,164.6 L260.176,170.44 L259.408,170.44 Z M264.069,170.44 L264.069,169.784 L265.469,169.784 C265.693,169.784 265.856,169.733 265.957,169.632 C266.064,169.531 266.117,169.373 266.117,169.16 L266.117,168.6 L266.133,167.8 L265.989,167.8 L266.125,167.68 C266.125,168 266.019,168.253 265.805,168.44 C265.592,168.627 265.307,168.72 264.949,168.72 C264.496,168.72 264.139,168.573 263.877,168.28 C263.616,167.981 263.485,167.581 263.485,167.08 L263.485,166.152 C263.485,165.651 263.616,165.253 263.877,164.96 C264.139,164.667 264.496,164.52 264.949,164.52 C265.307,164.52 265.592,164.613 265.805,164.8 C266.019,164.987 266.125,165.24 266.125,165.56 L265.989,165.44 L266.125,165.44 L266.125,164.6 L266.837,164.6 L266.837,169.16 C266.837,169.555 266.715,169.867 266.469,170.096 C266.229,170.325 265.893,170.44 265.461,170.44 L264.069,170.44 Z M265.165,168.096 C265.464,168.096 265.699,168.003 265.869,167.816 C266.04,167.629 266.125,167.371 266.125,167.04 L266.125,166.2 C266.125,165.869 266.04,165.611 265.869,165.424 C265.699,165.237 265.464,165.144 265.165,165.144 C264.861,165.144 264.624,165.235 264.453,165.416 C264.288,165.597 264.205,165.859 264.205,166.2 L264.205,167.04 C264.205,167.381 264.288,167.643 264.453,167.824 C264.624,168.005 264.861,168.096 265.165,168.096 Z M269.978,169.064 C269.626,169.064 269.322,168.997 269.066,168.864 C268.81,168.731 268.61,168.539 268.466,168.288 C268.327,168.032 268.258,167.731 268.258,167.384 L268.258,166.216 C268.258,165.864 268.327,165.563 268.466,165.312 C268.61,165.061 268.81,164.869 269.066,164.736 C269.322,164.603 269.626,164.536 269.978,164.536 C270.33,164.536 270.634,164.603 270.89,164.736 C271.146,164.869 271.343,165.061 271.482,165.312 C271.626,165.563 271.698,165.861 271.698,166.208 L271.698,167.384 C271.698,167.731 271.626,168.032 271.482,168.288 C271.343,168.539 271.146,168.731 270.89,168.864 C270.634,168.997 270.33,169.064 269.978,169.064 Z M269.978,168.424 C270.293,168.424 270.538,168.336 270.714,168.16 C270.89,167.984 270.978,167.725 270.978,167.384 L270.978,166.216 C270.978,165.875 270.89,165.616 270.714,165.44 C270.538,165.264 270.293,165.176 269.978,165.176 C269.669,165.176 269.423,165.264 269.242,165.44 C269.066,165.616 268.978,165.875 268.978,166.216 L268.978,167.384 C268.978,167.725 269.066,167.984 269.242,168.16 C269.423,168.336 269.669,168.424 269.978,168.424 Z M273.111,169 L273.111,164.6 L273.831,164.6 L273.831,165.44 L273.983,165.44 L273.831,165.608 C273.831,165.261 273.935,164.995 274.143,164.808 C274.351,164.616 274.639,164.52 275.007,164.52 C275.45,164.52 275.802,164.656 276.063,164.928 C276.324,165.2 276.455,165.571 276.455,166.04 L276.455,169 L275.735,169 L275.735,166.12 C275.735,165.805 275.65,165.565 275.479,165.4 C275.314,165.229 275.087,165.144 274.799,165.144 C274.5,165.144 274.263,165.235 274.087,165.416 C273.916,165.597 273.831,165.859 273.831,166.2 L273.831,169 L273.111,169 Z" id="Shape" fill="color(display-p3 0.616 0.314 1.000)" fill-rule="nonzero"></path>
            <path d="M271.338,158.88 C271.023,158.88 270.751,158.827 270.522,158.72 C270.298,158.619 270.127,158.467 270.01,158.264 C269.893,158.067 269.842,157.829 269.858,157.552 L269.938,156.24 C269.954,155.957 269.911,155.755 269.81,155.632 C269.709,155.504 269.485,155.44 269.138,155.44 L268.258,155.44 L268.258,154.8 L269.138,154.8 C269.485,154.8 269.709,154.739 269.81,154.616 C269.911,154.488 269.954,154.283 269.938,154 L269.858,152.688 C269.842,152.405 269.893,152.165 270.01,151.968 C270.127,151.771 270.298,151.621 270.522,151.52 C270.751,151.413 271.023,151.36 271.338,151.36 L271.698,151.36 L271.698,152 L271.338,152 C271.087,152 270.895,152.059 270.762,152.176 C270.629,152.288 270.567,152.459 270.578,152.688 L270.658,154 C270.679,154.347 270.597,154.624 270.41,154.832 C270.223,155.035 269.959,155.136 269.618,155.136 L269.618,155.096 C269.954,155.096 270.215,155.2 270.402,155.408 C270.594,155.616 270.679,155.893 270.658,156.24 L270.578,157.552 C270.567,157.781 270.629,157.952 270.762,158.064 C270.895,158.181 271.087,158.24 271.338,158.24 L271.698,158.24 L271.698,158.88 L271.338,158.88 Z M281.052,169.96 C280.295,169.773 279.705,169.405 279.284,168.856 C278.863,168.307 278.652,167.635 278.652,166.84 L278.652,165.4 C278.652,164.877 278.748,164.405 278.94,163.984 C279.137,163.557 279.415,163.197 279.772,162.904 C280.135,162.611 280.561,162.403 281.052,162.28 L281.052,162.96 C280.711,163.04 280.415,163.195 280.164,163.424 C279.913,163.648 279.719,163.928 279.58,164.264 C279.441,164.6 279.372,164.979 279.372,165.4 L279.372,166.84 C279.372,167.251 279.439,167.624 279.572,167.96 C279.711,168.296 279.905,168.576 280.156,168.8 C280.412,169.019 280.711,169.168 281.052,169.248 L281.052,169.96 Z M308.353,165.72 C308.156,165.72 307.996,165.667 307.873,165.56 C307.75,165.448 307.689,165.301 307.689,165.12 C307.689,164.939 307.75,164.795 307.873,164.688 C307.996,164.576 308.156,164.52 308.353,164.52 C308.556,164.52 308.716,164.576 308.833,164.688 C308.956,164.795 309.017,164.939 309.017,165.12 C309.017,165.301 308.956,165.448 308.833,165.56 C308.716,165.667 308.556,165.72 308.353,165.72 Z M308.353,169.08 C308.156,169.08 307.996,169.027 307.873,168.92 C307.75,168.808 307.689,168.661 307.689,168.48 C307.689,168.299 307.75,168.155 307.873,168.048 C307.996,167.936 308.156,167.88 308.353,167.88 C308.556,167.88 308.716,167.936 308.833,168.048 C308.956,168.155 309.017,168.299 309.017,168.48 C309.017,168.661 308.956,168.808 308.833,168.92 C308.716,169.027 308.556,169.08 308.353,169.08 Z M321.264,169.96 L321.264,169.248 C321.61,169.168 321.909,169.019 322.16,168.8 C322.41,168.576 322.602,168.296 322.736,167.96 C322.874,167.624 322.944,167.251 322.944,166.84 L322.944,165.4 C322.944,164.979 322.874,164.6 322.736,164.264 C322.597,163.928 322.402,163.648 322.152,163.424 C321.901,163.195 321.605,163.04 321.264,162.96 L321.264,162.28 C321.76,162.403 322.186,162.611 322.544,162.904 C322.901,163.197 323.176,163.557 323.368,163.984 C323.565,164.405 323.664,164.877 323.664,165.4 L323.664,166.84 C323.664,167.635 323.453,168.307 323.032,168.856 C322.61,169.405 322.021,169.773 321.264,169.96 Z M255.588,180.08 C255.385,180.08 255.222,180.021 255.1,179.904 C254.982,179.787 254.924,179.629 254.924,179.432 C254.924,179.224 254.982,179.059 255.1,178.936 C255.222,178.813 255.385,178.752 255.588,178.752 C255.79,178.752 255.95,178.813 256.068,178.936 C256.19,179.059 256.252,179.224 256.252,179.432 C256.252,179.629 256.19,179.787 256.068,179.904 C255.95,180.021 255.79,180.08 255.588,180.08 Z M281.052,180.96 C280.295,180.773 279.705,180.405 279.284,179.856 C278.863,179.307 278.652,178.635 278.652,177.84 L278.652,176.4 C278.652,175.877 278.748,175.405 278.94,174.984 C279.137,174.557 279.415,174.197 279.772,173.904 C280.135,173.611 280.561,173.403 281.052,173.28 L281.052,173.96 C280.711,174.04 280.415,174.195 280.164,174.424 C279.913,174.648 279.719,174.928 279.58,175.264 C279.441,175.6 279.372,175.979 279.372,176.4 L279.372,177.84 C279.372,178.251 279.439,178.624 279.572,178.96 C279.711,179.296 279.905,179.576 280.156,179.8 C280.412,180.019 280.711,180.168 281.052,180.248 L281.052,180.96 Z M284.369,180.08 C284.166,180.08 284.003,180.021 283.881,179.904 C283.763,179.787 283.705,179.629 283.705,179.432 C283.705,179.224 283.763,179.059 283.881,178.936 C284.003,178.813 284.166,178.752 284.369,178.752 C284.571,178.752 284.731,178.813 284.849,178.936 C284.971,179.059 285.033,179.224 285.033,179.432 C285.033,179.629 284.971,179.787 284.849,179.904 C284.731,180.021 284.571,180.08 284.369,180.08 Z M311.67,180.96 L311.67,180.248 C312.017,180.168 312.315,180.019 312.566,179.8 C312.817,179.576 313.009,179.296 313.142,178.96 C313.281,178.624 313.35,178.251 313.35,177.84 L313.35,176.4 C313.35,175.979 313.281,175.6 313.142,175.264 C313.003,174.928 312.809,174.648 312.558,174.424 C312.307,174.195 312.011,174.04 311.67,173.96 L311.67,173.28 C312.166,173.403 312.593,173.611 312.95,173.904 C313.307,174.197 313.582,174.557 313.774,174.984 C313.971,175.405 314.07,175.877 314.07,176.4 L314.07,177.84 C314.07,178.635 313.859,179.307 313.438,179.856 C313.017,180.405 312.427,180.773 311.67,180.96 Z M234.68,191.88 L234.68,191.24 L235.04,191.24 C235.291,191.24 235.483,191.181 235.616,191.064 C235.749,190.952 235.811,190.781 235.8,190.552 L235.72,189.24 C235.699,188.893 235.781,188.616 235.968,188.408 C236.16,188.2 236.424,188.096 236.76,188.096 L236.76,188.136 C236.419,188.136 236.155,188.035 235.968,187.832 C235.781,187.624 235.699,187.347 235.72,187 L235.8,185.688 C235.811,185.459 235.749,185.288 235.616,185.176 C235.483,185.059 235.291,185 235.04,185 L234.68,185 L234.68,184.36 L235.04,184.36 C235.355,184.36 235.624,184.413 235.848,184.52 C236.077,184.621 236.251,184.771 236.368,184.968 C236.485,185.165 236.536,185.405 236.52,185.688 L236.44,187 C236.424,187.283 236.467,187.488 236.568,187.616 C236.669,187.739 236.893,187.8 237.24,187.8 L238.12,187.8 L238.12,188.44 L237.24,188.44 C236.899,188.44 236.675,188.504 236.568,188.632 C236.467,188.755 236.424,188.957 236.44,189.24 L236.52,190.552 C236.536,190.829 236.485,191.067 236.368,191.264 C236.251,191.467 236.077,191.619 235.848,191.72 C235.624,191.827 235.355,191.88 235.04,191.88 L234.68,191.88 Z" id="Shape" fill="color(display-p3 0.271 0.271 0.271)" fill-rule="nonzero"></path>
            <path d="M284.233,169.064 C283.934,169.064 283.673,169.019 283.449,168.928 C283.23,168.832 283.054,168.699 282.921,168.528 C282.793,168.357 282.715,168.155 282.689,167.92 L283.409,167.92 C283.441,168.075 283.526,168.197 283.665,168.288 C283.809,168.379 283.998,168.424 284.233,168.424 L284.569,168.424 C284.851,168.424 285.062,168.368 285.201,168.256 C285.339,168.139 285.409,167.984 285.409,167.792 C285.409,167.605 285.345,167.459 285.217,167.352 C285.094,167.24 284.91,167.165 284.665,167.128 L284.073,167.032 C283.641,166.957 283.318,166.824 283.105,166.632 C282.897,166.435 282.793,166.149 282.793,165.776 C282.793,165.381 282.918,165.077 283.169,164.864 C283.419,164.645 283.795,164.536 284.297,164.536 L284.601,164.536 C285.022,164.536 285.361,164.635 285.617,164.832 C285.873,165.029 286.027,165.296 286.081,165.632 L285.361,165.632 C285.329,165.493 285.249,165.384 285.121,165.304 C284.993,165.219 284.819,165.176 284.601,165.176 L284.297,165.176 C284.025,165.176 283.825,165.227 283.697,165.328 C283.574,165.429 283.513,165.581 283.513,165.784 C283.513,165.965 283.566,166.099 283.673,166.184 C283.779,166.269 283.947,166.331 284.177,166.368 L284.769,166.464 C285.243,166.539 285.587,166.677 285.801,166.88 C286.019,167.083 286.129,167.376 286.129,167.76 C286.129,168.165 285.998,168.485 285.737,168.72 C285.481,168.949 285.091,169.064 284.569,169.064 L284.233,169.064 Z M287.446,169 L287.446,168.344 L289.006,168.344 L289.006,165.256 L287.646,165.256 L287.646,164.6 L289.726,164.6 L289.726,168.344 L291.206,168.344 L291.206,169 L287.446,169 Z M289.286,163.808 C289.11,163.808 288.971,163.763 288.87,163.672 C288.768,163.581 288.718,163.459 288.718,163.304 C288.718,163.144 288.768,163.019 288.87,162.928 C288.971,162.832 289.11,162.784 289.286,162.784 C289.462,162.784 289.6,162.832 289.702,162.928 C289.803,163.019 289.854,163.144 289.854,163.304 C289.854,163.459 289.803,163.581 289.702,163.672 C289.6,163.763 289.462,163.808 289.286,163.808 Z M293.707,169.08 C293.269,169.08 292.915,168.933 292.643,168.64 C292.376,168.347 292.243,167.949 292.243,167.448 L292.243,166.16 C292.243,165.653 292.376,165.253 292.643,164.96 C292.909,164.667 293.264,164.52 293.707,164.52 C294.069,164.52 294.36,164.619 294.579,164.816 C294.797,165.013 294.907,165.277 294.907,165.608 L294.763,165.44 L294.923,165.44 L294.907,164.44 L294.907,163.16 L295.627,163.16 L295.627,169 L294.907,169 L294.907,168.16 L294.763,168.16 L294.907,167.992 C294.907,168.328 294.797,168.595 294.579,168.792 C294.36,168.984 294.069,169.08 293.707,169.08 Z M293.947,168.456 C294.245,168.456 294.48,168.363 294.651,168.176 C294.821,167.989 294.907,167.731 294.907,167.4 L294.907,166.2 C294.907,165.869 294.821,165.611 294.651,165.424 C294.48,165.237 294.245,165.144 293.947,165.144 C293.643,165.144 293.403,165.235 293.227,165.416 C293.051,165.597 292.963,165.859 292.963,166.2 L292.963,167.4 C292.963,167.741 293.051,168.003 293.227,168.184 C293.403,168.365 293.643,168.456 293.947,168.456 Z M298.759,169.08 C298.413,169.08 298.109,169.011 297.847,168.872 C297.591,168.733 297.391,168.539 297.247,168.288 C297.109,168.032 297.039,167.736 297.039,167.4 L297.039,166.2 C297.039,165.859 297.109,165.563 297.247,165.312 C297.391,165.061 297.591,164.867 297.847,164.728 C298.109,164.589 298.413,164.52 298.759,164.52 C299.106,164.52 299.407,164.589 299.663,164.728 C299.925,164.867 300.125,165.061 300.263,165.312 C300.407,165.563 300.479,165.859 300.479,166.2 L300.479,166.976 L297.743,166.976 L297.743,167.4 C297.743,167.747 297.831,168.013 298.007,168.2 C298.183,168.381 298.434,168.472 298.759,168.472 C299.037,168.472 299.261,168.424 299.431,168.328 C299.602,168.227 299.706,168.077 299.743,167.88 L300.463,167.88 C300.415,168.248 300.234,168.541 299.919,168.76 C299.61,168.973 299.223,169.08 298.759,169.08 Z M299.775,166.496 L299.775,166.2 C299.775,165.853 299.687,165.587 299.511,165.4 C299.341,165.213 299.09,165.12 298.759,165.12 C298.434,165.12 298.183,165.213 298.007,165.4 C297.831,165.587 297.743,165.853 297.743,166.2 L297.743,166.432 L299.831,166.432 L299.775,166.496 Z M303.42,169.064 C303.122,169.064 302.86,169.019 302.636,168.928 C302.418,168.832 302.242,168.699 302.108,168.528 C301.98,168.357 301.903,168.155 301.876,167.92 L302.596,167.92 C302.628,168.075 302.714,168.197 302.852,168.288 C302.996,168.379 303.186,168.424 303.42,168.424 L303.756,168.424 C304.039,168.424 304.25,168.368 304.388,168.256 C304.527,168.139 304.596,167.984 304.596,167.792 C304.596,167.605 304.532,167.459 304.404,167.352 C304.282,167.24 304.098,167.165 303.852,167.128 L303.26,167.032 C302.828,166.957 302.506,166.824 302.292,166.632 C302.084,166.435 301.98,166.149 301.98,165.776 C301.98,165.381 302.106,165.077 302.356,164.864 C302.607,164.645 302.983,164.536 303.484,164.536 L303.788,164.536 C304.21,164.536 304.548,164.635 304.804,164.832 C305.06,165.029 305.215,165.296 305.268,165.632 L304.548,165.632 C304.516,165.493 304.436,165.384 304.308,165.304 C304.18,165.219 304.007,165.176 303.788,165.176 L303.484,165.176 C303.212,165.176 303.012,165.227 302.884,165.328 C302.762,165.429 302.7,165.581 302.7,165.784 C302.7,165.965 302.754,166.099 302.86,166.184 C302.967,166.269 303.135,166.331 303.364,166.368 L303.956,166.464 C304.431,166.539 304.775,166.677 304.988,166.88 C305.207,167.083 305.316,167.376 305.316,167.76 C305.316,168.165 305.186,168.485 304.924,168.72 C304.668,168.949 304.279,169.064 303.756,169.064 L303.42,169.064 Z M259.744,180 L259.744,176.696 L258.464,176.696 L258.464,176.04 L259.744,176.04 L259.744,175.28 C259.744,174.933 259.854,174.661 260.072,174.464 C260.291,174.261 260.592,174.16 260.976,174.16 L262.264,174.16 L262.264,174.816 L260.976,174.816 C260.811,174.816 260.683,174.856 260.592,174.936 C260.507,175.011 260.464,175.125 260.464,175.28 L260.464,176.04 L262.264,176.04 L262.264,176.696 L260.464,176.696 L260.464,180 L259.744,180 Z M263.461,180 L263.461,179.344 L265.021,179.344 L265.021,176.256 L263.661,176.256 L263.661,175.6 L265.741,175.6 L265.741,179.344 L267.221,179.344 L267.221,180 L263.461,180 Z M265.301,174.808 C265.125,174.808 264.987,174.763 264.885,174.672 C264.784,174.581 264.733,174.459 264.733,174.304 C264.733,174.144 264.784,174.019 264.885,173.928 C264.987,173.832 265.125,173.784 265.301,173.784 C265.477,173.784 265.616,173.832 265.717,173.928 C265.819,174.019 265.869,174.144 265.869,174.304 C265.869,174.459 265.819,174.581 265.717,174.672 C265.616,174.763 265.477,174.808 265.301,174.808 Z M270.578,180 C270.322,180 270.098,179.949 269.906,179.848 C269.714,179.747 269.565,179.603 269.458,179.416 C269.351,179.229 269.298,179.011 269.298,178.76 L269.298,174.816 L267.818,174.816 L267.818,174.16 L270.018,174.16 L270.018,178.76 C270.018,178.941 270.069,179.085 270.17,179.192 C270.271,179.293 270.407,179.344 270.578,179.344 L271.978,179.344 L271.978,180 L270.578,180 Z M275.375,180 C275.119,180 274.895,179.949 274.703,179.848 C274.511,179.747 274.362,179.603 274.255,179.416 C274.148,179.229 274.095,179.011 274.095,178.76 L274.095,174.816 L272.615,174.816 L272.615,174.16 L274.815,174.16 L274.815,178.76 C274.815,178.941 274.866,179.085 274.967,179.192 C275.068,179.293 275.204,179.344 275.375,179.344 L276.775,179.344 L276.775,180 L275.375,180 Z M288.054,181.44 L288.054,180.784 L289.454,180.784 C289.678,180.784 289.84,180.733 289.942,180.632 C290.048,180.531 290.102,180.373 290.102,180.16 L290.102,179.6 L290.118,178.8 L289.974,178.8 L290.11,178.68 C290.11,179 290.003,179.253 289.79,179.44 C289.576,179.627 289.291,179.72 288.934,179.72 C288.48,179.72 288.123,179.573 287.862,179.28 C287.6,178.981 287.47,178.581 287.47,178.08 L287.47,177.152 C287.47,176.651 287.6,176.253 287.862,175.96 C288.123,175.667 288.48,175.52 288.934,175.52 C289.291,175.52 289.576,175.613 289.79,175.8 C290.003,175.987 290.11,176.24 290.11,176.56 L289.974,176.44 L290.11,176.44 L290.11,175.6 L290.822,175.6 L290.822,180.16 C290.822,180.555 290.699,180.867 290.454,181.096 C290.214,181.325 289.878,181.44 289.446,181.44 L288.054,181.44 Z M289.15,179.096 C289.448,179.096 289.683,179.003 289.854,178.816 C290.024,178.629 290.11,178.371 290.11,178.04 L290.11,177.2 C290.11,176.869 290.024,176.611 289.854,176.424 C289.683,176.237 289.448,176.144 289.15,176.144 C288.846,176.144 288.608,176.235 288.438,176.416 C288.272,176.597 288.19,176.859 288.19,177.2 L288.19,178.04 C288.19,178.381 288.272,178.643 288.438,178.824 C288.608,179.005 288.846,179.096 289.15,179.096 Z M292.451,180 L292.451,175.6 L293.155,175.6 L293.155,176.44 L293.323,176.44 L293.091,176.96 C293.091,176.485 293.192,176.128 293.395,175.888 C293.603,175.643 293.909,175.52 294.315,175.52 C294.779,175.52 295.147,175.667 295.419,175.96 C295.696,176.248 295.835,176.64 295.835,177.136 L295.835,177.4 L295.115,177.4 L295.115,177.2 C295.115,176.853 295.029,176.589 294.859,176.408 C294.693,176.221 294.456,176.128 294.147,176.128 C293.843,176.128 293.603,176.221 293.427,176.408 C293.256,176.595 293.171,176.859 293.171,177.2 L293.171,180 L292.451,180 Z M298.759,180.08 C298.413,180.08 298.109,180.011 297.847,179.872 C297.591,179.733 297.391,179.539 297.247,179.288 C297.109,179.032 297.039,178.736 297.039,178.4 L297.039,177.2 C297.039,176.859 297.109,176.563 297.247,176.312 C297.391,176.061 297.591,175.867 297.847,175.728 C298.109,175.589 298.413,175.52 298.759,175.52 C299.106,175.52 299.407,175.589 299.663,175.728 C299.925,175.867 300.125,176.061 300.263,176.312 C300.407,176.563 300.479,176.859 300.479,177.2 L300.479,177.976 L297.743,177.976 L297.743,178.4 C297.743,178.747 297.831,179.013 298.007,179.2 C298.183,179.381 298.434,179.472 298.759,179.472 C299.037,179.472 299.261,179.424 299.431,179.328 C299.602,179.227 299.706,179.077 299.743,178.88 L300.463,178.88 C300.415,179.248 300.234,179.541 299.919,179.76 C299.61,179.973 299.223,180.08 298.759,180.08 Z M299.775,177.496 L299.775,177.2 C299.775,176.853 299.687,176.587 299.511,176.4 C299.341,176.213 299.09,176.12 298.759,176.12 C298.434,176.12 298.183,176.213 298.007,176.4 C297.831,176.587 297.743,176.853 297.743,177.2 L297.743,177.432 L299.831,177.432 L299.775,177.496 Z M303.556,180.08 C303.21,180.08 302.906,180.011 302.644,179.872 C302.388,179.733 302.188,179.539 302.044,179.288 C301.906,179.032 301.836,178.736 301.836,178.4 L301.836,177.2 C301.836,176.859 301.906,176.563 302.044,176.312 C302.188,176.061 302.388,175.867 302.644,175.728 C302.906,175.589 303.21,175.52 303.556,175.52 C303.903,175.52 304.204,175.589 304.46,175.728 C304.722,175.867 304.922,176.061 305.06,176.312 C305.204,176.563 305.276,176.859 305.276,177.2 L305.276,177.976 L302.54,177.976 L302.54,178.4 C302.54,178.747 302.628,179.013 302.804,179.2 C302.98,179.381 303.231,179.472 303.556,179.472 C303.834,179.472 304.058,179.424 304.228,179.328 C304.399,179.227 304.503,179.077 304.54,178.88 L305.26,178.88 C305.212,179.248 305.031,179.541 304.716,179.76 C304.407,179.973 304.02,180.08 303.556,180.08 Z M304.572,177.496 L304.572,177.2 C304.572,176.853 304.484,176.587 304.308,176.4 C304.138,176.213 303.887,176.12 303.556,176.12 C303.231,176.12 302.98,176.213 302.804,176.4 C302.628,176.587 302.54,176.853 302.54,177.2 L302.54,177.432 L304.628,177.432 L304.572,177.496 Z M306.689,180 L306.689,175.6 L307.409,175.6 L307.409,176.44 L307.561,176.44 L307.409,176.608 C307.409,176.261 307.513,175.995 307.721,175.808 C307.929,175.616 308.217,175.52 308.585,175.52 C309.028,175.52 309.38,175.656 309.641,175.928 C309.902,176.2 310.033,176.571 310.033,177.04 L310.033,180 L309.313,180 L309.313,177.12 C309.313,176.805 309.228,176.565 309.057,176.4 C308.892,176.229 308.665,176.144 308.377,176.144 C308.078,176.144 307.841,176.235 307.665,176.416 C307.494,176.597 307.409,176.859 307.409,177.2 L307.409,180 L306.689,180 Z" id="Shape" fill="color(display-p3 0.831 0.541 0.933)" fill-rule="nonzero"></path>
            <path d="M317.955,169.08 C317.582,169.08 317.254,169.003 316.971,168.848 C316.694,168.688 316.478,168.467 316.323,168.184 C316.168,167.901 316.091,167.573 316.091,167.2 C316.091,166.907 316.131,166.619 316.211,166.336 C316.296,166.053 316.422,165.781 316.587,165.52 L318.051,163.16 L318.851,163.16 L317.195,165.816 L317.227,165.84 C317.328,165.691 317.467,165.576 317.643,165.496 C317.819,165.416 318.016,165.376 318.235,165.376 C318.555,165.376 318.832,165.451 319.067,165.6 C319.302,165.749 319.483,165.96 319.611,166.232 C319.739,166.504 319.803,166.827 319.803,167.2 C319.803,167.573 319.726,167.901 319.571,168.184 C319.416,168.467 319.2,168.688 318.923,168.848 C318.651,169.003 318.328,169.08 317.955,169.08 Z M317.947,168.44 C318.288,168.44 318.563,168.328 318.771,168.104 C318.979,167.875 319.083,167.573 319.083,167.2 C319.083,166.827 318.979,166.528 318.771,166.304 C318.563,166.075 318.288,165.96 317.947,165.96 C317.606,165.96 317.331,166.075 317.123,166.304 C316.915,166.528 316.811,166.827 316.811,167.2 C316.811,167.573 316.915,167.875 317.123,168.104 C317.331,168.328 317.606,168.44 317.947,168.44 Z" id="Shape" fill="color(display-p3 0.278 0.482 1.000)" fill-rule="nonzero"></path>
            <path d="M93.8689,80.0416 C37.5911,98.0614 59.2763,190.602 80.1331,237.131 C80.9277,238.904 82.6869,240.000003 84.6295,240.000003 L176.107,240.000003 C178.76,240.000003 180.951,237.928 181.099,235.28 L185.311,160.15 C185.422,158.167 186.697,156.437 188.559,155.744 L208.363,148.376 C211.6,147.172 212.683,143.117 210.528,140.418 C187.551,111.65 152.07,61.406 93.8689,80.0416 Z" id="Path" fill="color(display-p3 0.533 0.533 0.533)" fill-rule="nonzero" opacity="0.4"></path>
            <circle id="Oval" fill="color(display-p3 1.000 1.000 1.000)" fill-rule="nonzero" cx="116.5" cy="127.5" r="44.5"></circle>
            <path d="M114.5,98.4434 C116.047,97.5502 117.953,97.5502 119.5,98.4434 L140.481,110.557 C142.028,111.45 142.981,113.1 142.981,114.887 L142.981,139.113 C142.981,140.9 142.028,142.55 140.481,143.443 L119.5,155.557 C117.953,156.45 116.047,156.45 114.5,155.557 L93.5192,143.443 C91.9722,142.55 91.0192,140.9 91.0192,139.113 L91.0192,114.887 C91.0192,113.1 91.9722,111.45 93.5192,110.557 L114.5,98.4434 Z" id="Path" fill="color(display-p3 0.949 0.477 0.000)" fill-rule="nonzero"></path>
            <path d="M367,94 C364.239,94 362,96.2386 362,99 L362,235 C362,237.761 364.239,240 367,240 L503,240 C505.761,240 508,237.761 508,235 L508,99 C508,96.2386 505.761,94 503,94 L367,94 Z M435.866,220.5 C435.481,219.833 434.519,219.833 434.134,220.5 L428.938,229.5 C428.553,230.167 429.034,231 429.804,231 L440.196,231 C440.966,231 441.447,230.167 441.062,229.5 L435.866,220.5 Z" id="Shape" fill="color(display-p3 0.533 0.533 0.533)" opacity="0.4"></path>
            <rect id="Rectangle" fill="color(display-p3 1.000 1.000 1.000)" fill-rule="nonzero" x="372" y="104" width="126" height="106" rx="5"></rect>
            <path d="M432.5,126.443 C434.047,125.55 435.953,125.55 437.5,126.443 L458.481,138.557 C460.028,139.45 460.981,141.1 460.981,142.887 L460.981,167.113 C460.981,168.9 460.028,170.55 458.481,171.443 L437.5,183.557 C435.953,184.45 434.047,184.45 432.5,183.557 L411.519,171.443 C409.972,170.55 409.019,168.9 409.019,167.113 L409.019,142.887 C409.019,141.1 409.972,139.45 411.519,138.557 L432.5,126.443 Z" id="Path" fill="color(display-p3 0.949 0.477 0.000)" fill-rule="nonzero"></path>
        </g>
    </g>
</svg>