<svg xmlns="http://www.w3.org/2000/svg" width="680" height="300" fill="none" viewBox="0 0 680 300"><rect width="208" height="208" x="178.107" y="47.935" fill="#000" fill-opacity=".1" transform="rotate(1.14922 178.107 47.9351)"/><g filter="url(#filter0_d)"><path fill="#fff" d="M364 108H522C526.418 108 530 111.582 530 116V185C530 189.418 526.418 193 522 193H364V108Z"/><path stroke="#000" stroke-opacity=".1" stroke-width="2" d="M364 107H363V108V193V194H364H522C526.971 194 531 189.971 531 185V116C531 111.029 526.97 107 522 107H364Z"/></g><path fill="#000" fill-opacity=".2" d="M172.107 106L379 106L377 195L167.935 195L172.107 106Z"/><path fill="url(#paint0_linear)" fill-opacity=".2" d="M172.107 106L379 106L377 195L167.935 195L172.107 106Z"/><mask id="mask0" width="223" height="223" x="151" y="39" mask-type="alpha" maskUnits="userSpaceOnUse"><path fill="#4169E1" d="M151 39H374V262H151V39Z"/></mask><g mask="url(#mask0)"><rect width="223" height="223" x="151" y="39" fill="#4169E1"/><g opacity=".25"><rect width="11" height="11" x="163.5" y="51.5" stroke="#fff"/><rect width="11" height="11" x="163.5" y="62.5" stroke="#fff"/><rect width="11" height="11" x="163.5" y="73.5" stroke="#fff"/><rect width="11" height="11" x="163.5" y="84.5" stroke="#fff"/><rect width="11" height="11" x="163.5" y="95.5" stroke="#fff"/><rect width="11" height="11" x="163.5" y="106.5" stroke="#fff"/><rect width="11" height="11" x="163.5" y="117.5" stroke="#fff"/><rect width="11" height="11" x="163.5" y="128.5" stroke="#fff"/><rect width="11" height="11" x="163.5" y="139.5" stroke="#fff"/><rect width="11" height="11" x="163.5" y="150.5" stroke="#fff"/><rect width="11" height="11" x="163.5" y="161.5" stroke="#fff"/><rect width="11" height="11" x="163.5" y="172.5" stroke="#fff"/><rect width="11" height="11" x="163.5" y="183.5" stroke="#fff"/><rect width="11" height="11" x="163.5" y="194.5" stroke="#fff"/><rect width="11" height="11" x="163.5" y="205.5" stroke="#fff"/><rect width="11" height="11" x="163.5" y="216.5" stroke="#fff"/><rect width="11" height="11" x="163.5" y="227.5" stroke="#fff"/><rect width="11" height="11" x="163.5" y="238.5" stroke="#fff"/><rect width="11" height="11" x="174.5" y="51.5" stroke="#fff"/><rect width="11" height="11" x="174.5" y="62.5" stroke="#fff"/><rect width="11" height="11" x="174.5" y="73.5" stroke="#fff"/><rect width="11" height="11" x="174.5" y="84.5" stroke="#fff"/><rect width="11" height="11" x="174.5" y="95.5" stroke="#fff"/><rect width="11" height="11" x="174.5" y="106.5" stroke="#fff"/><rect width="11" height="11" x="174.5" y="117.5" stroke="#fff"/><rect width="11" height="11" x="174.5" y="128.5" stroke="#fff"/><rect width="11" height="11" x="174.5" y="139.5" stroke="#fff"/><rect width="11" height="11" x="174.5" y="150.5" stroke="#fff"/><rect width="11" height="11" x="174.5" y="161.5" stroke="#fff"/><rect width="11" height="11" x="174.5" y="172.5" stroke="#fff"/><rect width="11" height="11" x="174.5" y="183.5" stroke="#fff"/><rect width="11" height="11" x="174.5" y="194.5" stroke="#fff"/><rect width="11" height="11" x="174.5" y="205.5" stroke="#fff"/><rect width="11" height="11" x="174.5" y="216.5" stroke="#fff"/><rect width="11" height="11" x="174.5" y="227.5" stroke="#fff"/><rect width="11" height="11" x="174.5" y="238.5" stroke="#fff"/><rect width="11" height="11" x="185.5" y="51.5" stroke="#fff"/><rect width="11" height="11" x="185.5" y="62.5" stroke="#fff"/><rect width="11" height="11" x="185.5" y="73.5" stroke="#fff"/><rect width="11" height="11" x="185.5" y="84.5" stroke="#fff"/><rect width="11" height="11" x="185.5" y="95.5" stroke="#fff"/><rect width="11" height="11" x="185.5" y="106.5" stroke="#fff"/><rect width="11" height="11" x="185.5" y="117.5" stroke="#fff"/><rect width="11" height="11" x="185.5" y="128.5" stroke="#fff"/><rect width="11" height="11" x="185.5" y="139.5" stroke="#fff"/><rect width="11" height="11" x="185.5" y="150.5" stroke="#fff"/><rect width="11" height="11" x="185.5" y="161.5" stroke="#fff"/><rect width="11" height="11" x="185.5" y="172.5" stroke="#fff"/><rect width="11" height="11" x="185.5" y="183.5" stroke="#fff"/><rect width="11" height="11" x="185.5" y="194.5" stroke="#fff"/><rect width="11" height="11" x="185.5" y="205.5" stroke="#fff"/><rect width="11" height="11" x="185.5" y="216.5" stroke="#fff"/><rect width="11" height="11" x="185.5" y="227.5" stroke="#fff"/><rect width="11" height="11" x="185.5" y="238.5" stroke="#fff"/><rect width="11" height="11" x="196.5" y="51.5" stroke="#fff"/><rect width="11" height="11" x="196.5" y="62.5" stroke="#fff"/><rect width="11" height="11" x="196.5" y="73.5" stroke="#fff"/><rect width="11" height="11" x="196.5" y="84.5" stroke="#fff"/><rect width="11" height="11" x="196.5" y="95.5" stroke="#fff"/><rect width="11" height="11" x="196.5" y="106.5" stroke="#fff"/><rect width="11" height="11" x="196.5" y="117.5" stroke="#fff"/><rect width="11" height="11" x="196.5" y="128.5" stroke="#fff"/><rect width="11" height="11" x="196.5" y="139.5" stroke="#fff"/><rect width="11" height="11" x="196.5" y="150.5" stroke="#fff"/><rect width="11" height="11" x="196.5" y="161.5" stroke="#fff"/><rect width="11" height="11" x="196.5" y="172.5" stroke="#fff"/><rect width="11" height="11" x="196.5" y="183.5" stroke="#fff"/><rect width="11" height="11" x="196.5" y="194.5" stroke="#fff"/><rect width="11" height="11" x="196.5" y="205.5" stroke="#fff"/><rect width="11" height="11" x="196.5" y="216.5" stroke="#fff"/><rect width="11" height="11" x="196.5" y="227.5" stroke="#fff"/><rect width="11" height="11" x="196.5" y="238.5" stroke="#fff"/><rect width="11" height="11" x="207.5" y="51.5" stroke="#fff"/><rect width="11" height="11" x="207.5" y="62.5" stroke="#fff"/><rect width="11" height="11" x="207.5" y="73.5" stroke="#fff"/><rect width="11" height="11" x="207.5" y="84.5" stroke="#fff"/><rect width="11" height="11" x="207.5" y="95.5" stroke="#fff"/><rect width="11" height="11" x="207.5" y="106.5" stroke="#fff"/><rect width="11" height="11" x="207.5" y="117.5" stroke="#fff"/><rect width="11" height="11" x="207.5" y="128.5" stroke="#fff"/><rect width="11" height="11" x="207.5" y="139.5" stroke="#fff"/><rect width="11" height="11" x="207.5" y="150.5" stroke="#fff"/><rect width="11" height="11" x="207.5" y="161.5" stroke="#fff"/><rect width="11" height="11" x="207.5" y="172.5" stroke="#fff"/><rect width="11" height="11" x="207.5" y="183.5" stroke="#fff"/><rect width="11" height="11" x="207.5" y="194.5" stroke="#fff"/><rect width="11" height="11" x="207.5" y="205.5" stroke="#fff"/><rect width="11" height="11" x="207.5" y="216.5" stroke="#fff"/><rect width="11" height="11" x="207.5" y="227.5" stroke="#fff"/><rect width="11" height="11" x="207.5" y="238.5" stroke="#fff"/><rect width="11" height="11" x="218.5" y="51.5" stroke="#fff"/><rect width="11" height="11" x="218.5" y="62.5" stroke="#fff"/><rect width="11" height="11" x="218.5" y="73.5" stroke="#fff"/><rect width="11" height="11" x="218.5" y="84.5" stroke="#fff"/><rect width="11" height="11" x="218.5" y="95.5" stroke="#fff"/><rect width="11" height="11" x="218.5" y="106.5" stroke="#fff"/><rect width="11" height="11" x="218.5" y="117.5" stroke="#fff"/><rect width="11" height="11" x="218.5" y="128.5" stroke="#fff"/><rect width="11" height="11" x="218.5" y="139.5" stroke="#fff"/><rect width="11" height="11" x="218.5" y="150.5" stroke="#fff"/><rect width="11" height="11" x="218.5" y="161.5" stroke="#fff"/><rect width="11" height="11" x="218.5" y="172.5" stroke="#fff"/><rect width="11" height="11" x="218.5" y="183.5" stroke="#fff"/><rect width="11" height="11" x="218.5" y="194.5" stroke="#fff"/><rect width="11" height="11" x="218.5" y="205.5" stroke="#fff"/><rect width="11" height="11" x="218.5" y="216.5" stroke="#fff"/><rect width="11" height="11" x="218.5" y="227.5" stroke="#fff"/><rect width="11" height="11" x="218.5" y="238.5" stroke="#fff"/><rect width="11" height="11" x="229.5" y="51.5" stroke="#fff"/><rect width="11" height="11" x="229.5" y="62.5" stroke="#fff"/><rect width="11" height="11" x="229.5" y="73.5" stroke="#fff"/><rect width="11" height="11" x="229.5" y="84.5" stroke="#fff"/><rect width="11" height="11" x="229.5" y="95.5" stroke="#fff"/><rect width="11" height="11" x="229.5" y="106.5" stroke="#fff"/><rect width="11" height="11" x="229.5" y="117.5" stroke="#fff"/><rect width="11" height="11" x="229.5" y="128.5" stroke="#fff"/><rect width="11" height="11" x="229.5" y="139.5" stroke="#fff"/><rect width="11" height="11" x="229.5" y="150.5" stroke="#fff"/><rect width="11" height="11" x="229.5" y="161.5" stroke="#fff"/><rect width="11" height="11" x="229.5" y="172.5" stroke="#fff"/><rect width="11" height="11" x="229.5" y="183.5" stroke="#fff"/><rect width="11" height="11" x="229.5" y="194.5" stroke="#fff"/><rect width="11" height="11" x="229.5" y="205.5" stroke="#fff"/><rect width="11" height="11" x="229.5" y="216.5" stroke="#fff"/><rect width="11" height="11" x="229.5" y="227.5" stroke="#fff"/><rect width="11" height="11" x="229.5" y="238.5" stroke="#fff"/><rect width="11" height="11" x="240.5" y="51.5" stroke="#fff"/><rect width="11" height="11" x="240.5" y="62.5" stroke="#fff"/><rect width="11" height="11" x="240.5" y="73.5" stroke="#fff"/><rect width="11" height="11" x="240.5" y="84.5" stroke="#fff"/><rect width="11" height="11" x="240.5" y="95.5" stroke="#fff"/><rect width="11" height="11" x="240.5" y="106.5" stroke="#fff"/><rect width="11" height="11" x="240.5" y="117.5" stroke="#fff"/><rect width="11" height="11" x="240.5" y="128.5" stroke="#fff"/><rect width="11" height="11" x="240.5" y="139.5" stroke="#fff"/><rect width="11" height="11" x="240.5" y="150.5" stroke="#fff"/><rect width="11" height="11" x="240.5" y="161.5" stroke="#fff"/><rect width="11" height="11" x="240.5" y="172.5" stroke="#fff"/><rect width="11" height="11" x="240.5" y="183.5" stroke="#fff"/><rect width="11" height="11" x="240.5" y="194.5" stroke="#fff"/><rect width="11" height="11" x="240.5" y="205.5" stroke="#fff"/><rect width="11" height="11" x="240.5" y="216.5" stroke="#fff"/><rect width="11" height="11" x="240.5" y="227.5" stroke="#fff"/><rect width="11" height="11" x="240.5" y="238.5" stroke="#fff"/><rect width="11" height="11" x="251.5" y="51.5" stroke="#fff"/><rect width="11" height="11" x="251.5" y="62.5" stroke="#fff"/><rect width="11" height="11" x="251.5" y="73.5" stroke="#fff"/><rect width="11" height="11" x="251.5" y="84.5" stroke="#fff"/><rect width="11" height="11" x="251.5" y="95.5" stroke="#fff"/><rect width="11" height="11" x="251.5" y="106.5" stroke="#fff"/><rect width="11" height="11" x="251.5" y="117.5" stroke="#fff"/><rect width="11" height="11" x="251.5" y="128.5" stroke="#fff"/><rect width="11" height="11" x="251.5" y="139.5" stroke="#fff"/><rect width="11" height="11" x="251.5" y="150.5" stroke="#fff"/><rect width="11" height="11" x="251.5" y="161.5" stroke="#fff"/><rect width="11" height="11" x="251.5" y="172.5" stroke="#fff"/><rect width="11" height="11" x="251.5" y="183.5" stroke="#fff"/><rect width="11" height="11" x="251.5" y="194.5" stroke="#fff"/><rect width="11" height="11" x="251.5" y="205.5" stroke="#fff"/><rect width="11" height="11" x="251.5" y="216.5" stroke="#fff"/><rect width="11" height="11" x="251.5" y="227.5" stroke="#fff"/><rect width="11" height="11" x="251.5" y="238.5" stroke="#fff"/><rect width="11" height="11" x="262.5" y="51.5" stroke="#fff"/><rect width="11" height="11" x="262.5" y="62.5" stroke="#fff"/><rect width="11" height="11" x="262.5" y="73.5" stroke="#fff"/><rect width="11" height="11" x="262.5" y="84.5" stroke="#fff"/><rect width="11" height="11" x="262.5" y="95.5" stroke="#fff"/><rect width="11" height="11" x="262.5" y="106.5" stroke="#fff"/><rect width="11" height="11" x="262.5" y="117.5" stroke="#fff"/><rect width="11" height="11" x="262.5" y="128.5" stroke="#fff"/><rect width="11" height="11" x="262.5" y="139.5" stroke="#fff"/><rect width="11" height="11" x="262.5" y="150.5" stroke="#fff"/><rect width="11" height="11" x="262.5" y="161.5" stroke="#fff"/><rect width="11" height="11" x="262.5" y="172.5" stroke="#fff"/><rect width="11" height="11" x="262.5" y="183.5" stroke="#fff"/><rect width="11" height="11" x="262.5" y="194.5" stroke="#fff"/><rect width="11" height="11" x="262.5" y="205.5" stroke="#fff"/><rect width="11" height="11" x="262.5" y="216.5" stroke="#fff"/><rect width="11" height="11" x="262.5" y="227.5" stroke="#fff"/><rect width="11" height="11" x="262.5" y="238.5" stroke="#fff"/><rect width="11" height="11" x="273.5" y="51.5" stroke="#fff"/><rect width="11" height="11" x="273.5" y="62.5" stroke="#fff"/><rect width="11" height="11" x="273.5" y="73.5" stroke="#fff"/><rect width="11" height="11" x="273.5" y="84.5" stroke="#fff"/><rect width="11" height="11" x="273.5" y="95.5" stroke="#fff"/><rect width="11" height="11" x="273.5" y="106.5" stroke="#fff"/><rect width="11" height="11" x="273.5" y="117.5" stroke="#fff"/><rect width="11" height="11" x="273.5" y="128.5" stroke="#fff"/><rect width="11" height="11" x="273.5" y="139.5" stroke="#fff"/><rect width="11" height="11" x="273.5" y="150.5" stroke="#fff"/><rect width="11" height="11" x="273.5" y="161.5" stroke="#fff"/><rect width="11" height="11" x="273.5" y="172.5" stroke="#fff"/><rect width="11" height="11" x="273.5" y="183.5" stroke="#fff"/><rect width="11" height="11" x="273.5" y="194.5" stroke="#fff"/><rect width="11" height="11" x="273.5" y="205.5" stroke="#fff"/><rect width="11" height="11" x="273.5" y="216.5" stroke="#fff"/><rect width="11" height="11" x="273.5" y="227.5" stroke="#fff"/><rect width="11" height="11" x="273.5" y="238.5" stroke="#fff"/><rect width="11" height="11" x="284.5" y="51.5" stroke="#fff"/><rect width="11" height="11" x="284.5" y="62.5" stroke="#fff"/><rect width="11" height="11" x="284.5" y="73.5" stroke="#fff"/><rect width="11" height="11" x="284.5" y="84.5" stroke="#fff"/><rect width="11" height="11" x="284.5" y="95.5" stroke="#fff"/><rect width="11" height="11" x="284.5" y="106.5" stroke="#fff"/><rect width="11" height="11" x="284.5" y="117.5" stroke="#fff"/><rect width="11" height="11" x="284.5" y="128.5" stroke="#fff"/><rect width="11" height="11" x="284.5" y="139.5" stroke="#fff"/><rect width="11" height="11" x="284.5" y="150.5" stroke="#fff"/><rect width="11" height="11" x="284.5" y="161.5" stroke="#fff"/><rect width="11" height="11" x="284.5" y="172.5" stroke="#fff"/><rect width="11" height="11" x="284.5" y="183.5" stroke="#fff"/><rect width="11" height="11" x="284.5" y="194.5" stroke="#fff"/><rect width="11" height="11" x="284.5" y="205.5" stroke="#fff"/><rect width="11" height="11" x="284.5" y="216.5" stroke="#fff"/><rect width="11" height="11" x="284.5" y="227.5" stroke="#fff"/><rect width="11" height="11" x="284.5" y="238.5" stroke="#fff"/><rect width="11" height="11" x="295.5" y="51.5" stroke="#fff"/><rect width="11" height="11" x="295.5" y="62.5" stroke="#fff"/><rect width="11" height="11" x="295.5" y="73.5" stroke="#fff"/><rect width="11" height="11" x="295.5" y="84.5" stroke="#fff"/><rect width="11" height="11" x="295.5" y="95.5" stroke="#fff"/><rect width="11" height="11" x="295.5" y="106.5" stroke="#fff"/><rect width="11" height="11" x="295.5" y="117.5" stroke="#fff"/><rect width="11" height="11" x="295.5" y="128.5" stroke="#fff"/><rect width="11" height="11" x="295.5" y="139.5" stroke="#fff"/><rect width="11" height="11" x="295.5" y="150.5" stroke="#fff"/><rect width="11" height="11" x="295.5" y="161.5" stroke="#fff"/><rect width="11" height="11" x="295.5" y="172.5" stroke="#fff"/><rect width="11" height="11" x="295.5" y="183.5" stroke="#fff"/><rect width="11" height="11" x="295.5" y="194.5" stroke="#fff"/><rect width="11" height="11" x="295.5" y="205.5" stroke="#fff"/><rect width="11" height="11" x="295.5" y="216.5" stroke="#fff"/><rect width="11" height="11" x="295.5" y="227.5" stroke="#fff"/><rect width="11" height="11" x="295.5" y="238.5" stroke="#fff"/><rect width="11" height="11" x="306.5" y="51.5" stroke="#fff"/><rect width="11" height="11" x="306.5" y="62.5" stroke="#fff"/><rect width="11" height="11" x="306.5" y="73.5" stroke="#fff"/><rect width="11" height="11" x="306.5" y="84.5" stroke="#fff"/><rect width="11" height="11" x="306.5" y="95.5" stroke="#fff"/><rect width="11" height="11" x="306.5" y="106.5" stroke="#fff"/><rect width="11" height="11" x="306.5" y="117.5" stroke="#fff"/><rect width="11" height="11" x="306.5" y="128.5" stroke="#fff"/><rect width="11" height="11" x="306.5" y="139.5" stroke="#fff"/><rect width="11" height="11" x="306.5" y="150.5" stroke="#fff"/><rect width="11" height="11" x="306.5" y="161.5" stroke="#fff"/><rect width="11" height="11" x="306.5" y="172.5" stroke="#fff"/><rect width="11" height="11" x="306.5" y="183.5" stroke="#fff"/><rect width="11" height="11" x="306.5" y="194.5" stroke="#fff"/><rect width="11" height="11" x="306.5" y="205.5" stroke="#fff"/><rect width="11" height="11" x="306.5" y="216.5" stroke="#fff"/><rect width="11" height="11" x="306.5" y="227.5" stroke="#fff"/><rect width="11" height="11" x="306.5" y="238.5" stroke="#fff"/><rect width="11" height="11" x="317.5" y="51.5" stroke="#fff"/><rect width="11" height="11" x="317.5" y="62.5" stroke="#fff"/><rect width="11" height="11" x="317.5" y="73.5" stroke="#fff"/><rect width="11" height="11" x="317.5" y="84.5" stroke="#fff"/><rect width="11" height="11" x="317.5" y="95.5" stroke="#fff"/><rect width="11" height="11" x="317.5" y="106.5" stroke="#fff"/><rect width="11" height="11" x="317.5" y="117.5" stroke="#fff"/><rect width="11" height="11" x="317.5" y="128.5" stroke="#fff"/><rect width="11" height="11" x="317.5" y="139.5" stroke="#fff"/><rect width="11" height="11" x="317.5" y="150.5" stroke="#fff"/><rect width="11" height="11" x="317.5" y="161.5" stroke="#fff"/><rect width="11" height="11" x="317.5" y="172.5" stroke="#fff"/><rect width="11" height="11" x="317.5" y="183.5" stroke="#fff"/><rect width="11" height="11" x="317.5" y="194.5" stroke="#fff"/><rect width="11" height="11" x="317.5" y="205.5" stroke="#fff"/><rect width="11" height="11" x="317.5" y="216.5" stroke="#fff"/><rect width="11" height="11" x="317.5" y="227.5" stroke="#fff"/><rect width="11" height="11" x="317.5" y="238.5" stroke="#fff"/><rect width="11" height="11" x="328.5" y="51.5" stroke="#fff"/><rect width="11" height="11" x="328.5" y="62.5" stroke="#fff"/><rect width="11" height="11" x="328.5" y="73.5" stroke="#fff"/><rect width="11" height="11" x="328.5" y="84.5" stroke="#fff"/><rect width="11" height="11" x="328.5" y="95.5" stroke="#fff"/><rect width="11" height="11" x="328.5" y="106.5" stroke="#fff"/><rect width="11" height="11" x="328.5" y="117.5" stroke="#fff"/><rect width="11" height="11" x="328.5" y="128.5" stroke="#fff"/><rect width="11" height="11" x="328.5" y="139.5" stroke="#fff"/><rect width="11" height="11" x="328.5" y="150.5" stroke="#fff"/><rect width="11" height="11" x="328.5" y="161.5" stroke="#fff"/><rect width="11" height="11" x="328.5" y="172.5" stroke="#fff"/><rect width="11" height="11" x="328.5" y="183.5" stroke="#fff"/><rect width="11" height="11" x="328.5" y="194.5" stroke="#fff"/><rect width="11" height="11" x="328.5" y="205.5" stroke="#fff"/><rect width="11" height="11" x="328.5" y="216.5" stroke="#fff"/><rect width="11" height="11" x="328.5" y="227.5" stroke="#fff"/><rect width="11" height="11" x="328.5" y="238.5" stroke="#fff"/><rect width="11" height="11" x="339.5" y="51.5" stroke="#fff"/><rect width="11" height="11" x="339.5" y="62.5" stroke="#fff"/><rect width="11" height="11" x="339.5" y="73.5" stroke="#fff"/><rect width="11" height="11" x="339.5" y="84.5" stroke="#fff"/><rect width="11" height="11" x="339.5" y="95.5" stroke="#fff"/><rect width="11" height="11" x="339.5" y="106.5" stroke="#fff"/><rect width="11" height="11" x="339.5" y="117.5" stroke="#fff"/><rect width="11" height="11" x="339.5" y="128.5" stroke="#fff"/><rect width="11" height="11" x="339.5" y="139.5" stroke="#fff"/><rect width="11" height="11" x="339.5" y="150.5" stroke="#fff"/><rect width="11" height="11" x="339.5" y="161.5" stroke="#fff"/><rect width="11" height="11" x="339.5" y="172.5" stroke="#fff"/><rect width="11" height="11" x="339.5" y="183.5" stroke="#fff"/><rect width="11" height="11" x="339.5" y="194.5" stroke="#fff"/><rect width="11" height="11" x="339.5" y="205.5" stroke="#fff"/><rect width="11" height="11" x="339.5" y="216.5" stroke="#fff"/><rect width="11" height="11" x="339.5" y="227.5" stroke="#fff"/><rect width="11" height="11" x="339.5" y="238.5" stroke="#fff"/><rect width="11" height="11" x="350.5" y="51.5" stroke="#fff"/><rect width="11" height="11" x="350.5" y="62.5" stroke="#fff"/><rect width="11" height="11" x="350.5" y="73.5" stroke="#fff"/><rect width="11" height="11" x="350.5" y="84.5" stroke="#fff"/><rect width="11" height="11" x="350.5" y="95.5" stroke="#fff"/><rect width="11" height="11" x="350.5" y="106.5" stroke="#fff"/><rect width="11" height="11" x="350.5" y="117.5" stroke="#fff"/><rect width="11" height="11" x="350.5" y="128.5" stroke="#fff"/><rect width="11" height="11" x="350.5" y="139.5" stroke="#fff"/><rect width="11" height="11" x="350.5" y="150.5" stroke="#fff"/><rect width="11" height="11" x="350.5" y="161.5" stroke="#fff"/><rect width="11" height="11" x="350.5" y="172.5" stroke="#fff"/><rect width="11" height="11" x="350.5" y="183.5" stroke="#fff"/><rect width="11" height="11" x="350.5" y="194.5" stroke="#fff"/><rect width="11" height="11" x="350.5" y="205.5" stroke="#fff"/><rect width="11" height="11" x="350.5" y="216.5" stroke="#fff"/><rect width="11" height="11" x="350.5" y="227.5" stroke="#fff"/><rect width="11" height="11" x="350.5" y="238.5" stroke="#fff"/></g><g opacity=".25"><rect width="33" height="33" x="163.5" y="216.5" stroke="#fff"/><rect width="33" height="33" x="163.5" y="183.5" stroke="#fff"/><rect width="33" height="33" x="163.5" y="150.5" stroke="#fff"/><rect width="33" height="33" x="163.5" y="117.5" stroke="#fff"/><rect width="33" height="33" x="163.5" y="84.5" stroke="#fff"/><rect width="33" height="33" x="163.5" y="51.5" stroke="#fff"/><rect width="33" height="33" x="196.5" y="216.5" stroke="#fff"/><rect width="33" height="33" x="196.5" y="183.5" stroke="#fff"/><rect width="33" height="33" x="196.5" y="150.5" stroke="#fff"/><rect width="33" height="33" x="196.5" y="117.5" stroke="#fff"/><rect width="33" height="33" x="196.5" y="84.5" stroke="#fff"/><rect width="33" height="33" x="196.5" y="51.5" stroke="#fff"/><rect width="33" height="33" x="229.5" y="216.5" stroke="#fff"/><rect width="33" height="33" x="229.5" y="183.5" stroke="#fff"/><rect width="33" height="33" x="229.5" y="150.5" stroke="#fff"/><rect width="33" height="33" x="229.5" y="117.5" stroke="#fff"/><rect width="33" height="33" x="229.5" y="84.5" stroke="#fff"/><rect width="33" height="33" x="229.5" y="51.5" stroke="#fff"/><rect width="33" height="33" x="262.5" y="216.5" stroke="#fff"/><rect width="33" height="33" x="262.5" y="183.5" stroke="#fff"/><rect width="33" height="33" x="262.5" y="150.5" stroke="#fff"/><rect width="33" height="33" x="262.5" y="117.5" stroke="#fff"/><rect width="33" height="33" x="262.5" y="84.5" stroke="#fff"/><rect width="33" height="33" x="262.5" y="51.5" stroke="#fff"/><rect width="33" height="33" x="295.5" y="216.5" stroke="#fff"/><rect width="33" height="33" x="295.5" y="183.5" stroke="#fff"/><rect width="33" height="33" x="295.5" y="150.5" stroke="#fff"/><rect width="33" height="33" x="295.5" y="117.5" stroke="#fff"/><rect width="33" height="33" x="295.5" y="84.5" stroke="#fff"/><rect width="33" height="33" x="295.5" y="51.5" stroke="#fff"/><rect width="33" height="33" x="328.5" y="216.5" stroke="#fff"/><rect width="33" height="33" x="328.5" y="183.5" stroke="#fff"/><rect width="33" height="33" x="328.5" y="150.5" stroke="#fff"/><rect width="33" height="33" x="328.5" y="117.5" stroke="#fff"/><rect width="33" height="33" x="328.5" y="84.5" stroke="#fff"/><rect width="33" height="33" x="328.5" y="51.5" stroke="#fff"/></g><path fill="#fff" fill-opacity=".1" d="M226 107H375V194H226C222.134 194 219 190.866 219 187V114C219 110.134 222.134 107 226 107Z"/><path fill="url(#paint1_linear)" fill-opacity=".2" d="M226 107H375V194H226C222.134 194 219 190.866 219 187V114C219 110.134 222.134 107 226 107Z"/><path stroke="#fff" stroke-width="2" d="M226 107H375V194H226C222.134 194 219 190.866 219 187V114C219 110.134 222.134 107 226 107Z"/><circle cx="262.5" cy="150.5" r="32.5" fill="#fff" fill-opacity=".1" stroke="#fff" stroke-width="2"/></g><path fill="#fff" d="M317 130C317 128.895 317.895 128 319 128H374V140H319C317.895 140 317 139.105 317 138V130Z"/><path fill="#000" fill-opacity=".2" d="M374 128H439C440.105 128 441 128.895 441 130V138C441 139.105 440.105 140 439 140H374V128Z"/><path fill="#fff" d="M317 152C317 150.895 317.895 150 319 150H374V162H319C317.895 162 317 161.105 317 160V152Z"/><path fill="#000" fill-opacity=".2" d="M374 150H479C480.105 150 481 150.895 481 152V160C481 161.105 480.105 162 479 162H374V150Z"/><path fill="#fff" d="M317 167C317 165.895 317.895 165 319 165H374V177H319C317.895 177 317 176.105 317 175V167Z"/><path fill="#000" fill-opacity=".2" d="M374 165H449C450.105 165 451 165.895 451 167V175C451 176.105 450.105 177 449 177H374V165Z"/><defs><filter id="filter0_d" width="178" height="97" x="358" y="104" color-interpolation-filters="sRGB" filterUnits="userSpaceOnUse"><feFlood flood-opacity="0" result="BackgroundImageFix"/><feColorMatrix in="SourceAlpha" type="matrix" values="0 0 0 0 0 0 0 0 0 0 0 0 0 0 0 0 0 0 127 0"/><feOffset dy="2"/><feGaussianBlur stdDeviation="2"/><feColorMatrix type="matrix" values="0 0 0 0 0 0 0 0 0 0 0 0 0 0 0 0 0 0 0.15 0"/><feBlend in2="BackgroundImageFix" mode="normal" result="effect1_dropShadow"/><feBlend in="SourceGraphic" in2="effect1_dropShadow" mode="normal" result="shape"/></filter><linearGradient id="paint0_linear" x1="349" x2="392.5" y1="174.5" y2="177" gradientUnits="userSpaceOnUse"><stop/><stop offset="1" stop-color="#fff" stop-opacity="0"/></linearGradient><linearGradient id="paint1_linear" x1="297" x2="297" y1="106" y2="195" gradientUnits="userSpaceOnUse"><stop stop-color="#fff"/><stop offset=".85" stop-color="#fff" stop-opacity=".234"/><stop offset="1" stop-color="#fff" stop-opacity=".5"/></linearGradient></defs></svg>