<svg width="680" height="300" viewBox="0 0 680 300" fill="none" xmlns="http://www.w3.org/2000/svg">
<rect x="178.107" y="47.9351" width="208" height="208" transform="rotate(1.14922 178.107 47.9351)" fill="black" fill-opacity="0.1"/>
<g filter="url(#filter0_d)">
<path d="M364 108H522C526.418 108 530 111.582 530 116V185C530 189.418 526.418 193 522 193H364V108Z" fill="white"/>
<path d="M364 107H363V108V193V194H364H522C526.971 194 531 189.971 531 185V116C531 111.029 526.97 107 522 107H364Z" stroke="black" stroke-opacity="0.1" stroke-width="2"/>
</g>
<path d="M172.107 106L379 106L377 195L167.935 195L172.107 106Z" fill="black" fill-opacity="0.2"/>
<path d="M172.107 106L379 106L377 195L167.935 195L172.107 106Z" fill="url(#paint0_linear)" fill-opacity="0.2"/>
<mask id="mask0" mask-type="alpha" maskUnits="userSpaceOnUse" x="151" y="39" width="223" height="223">
<path d="M151 39H374V262H151V39Z" fill="#4169E1"/>
</mask>
<g mask="url(#mask0)">
<rect x="151" y="39" width="223" height="223" fill="#4169E1"/>
<g opacity="0.25">
<rect x="163.5" y="51.5" width="11" height="11" stroke="white"/>
<rect x="163.5" y="62.5" width="11" height="11" stroke="white"/>
<rect x="163.5" y="73.5" width="11" height="11" stroke="white"/>
<rect x="163.5" y="84.5" width="11" height="11" stroke="white"/>
<rect x="163.5" y="95.5" width="11" height="11" stroke="white"/>
<rect x="163.5" y="106.5" width="11" height="11" stroke="white"/>
<rect x="163.5" y="117.5" width="11" height="11" stroke="white"/>
<rect x="163.5" y="128.5" width="11" height="11" stroke="white"/>
<rect x="163.5" y="139.5" width="11" height="11" stroke="white"/>
<rect x="163.5" y="150.5" width="11" height="11" stroke="white"/>
<rect x="163.5" y="161.5" width="11" height="11" stroke="white"/>
<rect x="163.5" y="172.5" width="11" height="11" stroke="white"/>
<rect x="163.5" y="183.5" width="11" height="11" stroke="white"/>
<rect x="163.5" y="194.5" width="11" height="11" stroke="white"/>
<rect x="163.5" y="205.5" width="11" height="11" stroke="white"/>
<rect x="163.5" y="216.5" width="11" height="11" stroke="white"/>
<rect x="163.5" y="227.5" width="11" height="11" stroke="white"/>
<rect x="163.5" y="238.5" width="11" height="11" stroke="white"/>
<rect x="174.5" y="51.5" width="11" height="11" stroke="white"/>
<rect x="174.5" y="62.5" width="11" height="11" stroke="white"/>
<rect x="174.5" y="73.5" width="11" height="11" stroke="white"/>
<rect x="174.5" y="84.5" width="11" height="11" stroke="white"/>
<rect x="174.5" y="95.5" width="11" height="11" stroke="white"/>
<rect x="174.5" y="106.5" width="11" height="11" stroke="white"/>
<rect x="174.5" y="117.5" width="11" height="11" stroke="white"/>
<rect x="174.5" y="128.5" width="11" height="11" stroke="white"/>
<rect x="174.5" y="139.5" width="11" height="11" stroke="white"/>
<rect x="174.5" y="150.5" width="11" height="11" stroke="white"/>
<rect x="174.5" y="161.5" width="11" height="11" stroke="white"/>
<rect x="174.5" y="172.5" width="11" height="11" stroke="white"/>
<rect x="174.5" y="183.5" width="11" height="11" stroke="white"/>
<rect x="174.5" y="194.5" width="11" height="11" stroke="white"/>
<rect x="174.5" y="205.5" width="11" height="11" stroke="white"/>
<rect x="174.5" y="216.5" width="11" height="11" stroke="white"/>
<rect x="174.5" y="227.5" width="11" height="11" stroke="white"/>
<rect x="174.5" y="238.5" width="11" height="11" stroke="white"/>
<rect x="185.5" y="51.5" width="11" height="11" stroke="white"/>
<rect x="185.5" y="62.5" width="11" height="11" stroke="white"/>
<rect x="185.5" y="73.5" width="11" height="11" stroke="white"/>
<rect x="185.5" y="84.5" width="11" height="11" stroke="white"/>
<rect x="185.5" y="95.5" width="11" height="11" stroke="white"/>
<rect x="185.5" y="106.5" width="11" height="11" stroke="white"/>
<rect x="185.5" y="117.5" width="11" height="11" stroke="white"/>
<rect x="185.5" y="128.5" width="11" height="11" stroke="white"/>
<rect x="185.5" y="139.5" width="11" height="11" stroke="white"/>
<rect x="185.5" y="150.5" width="11" height="11" stroke="white"/>
<rect x="185.5" y="161.5" width="11" height="11" stroke="white"/>
<rect x="185.5" y="172.5" width="11" height="11" stroke="white"/>
<rect x="185.5" y="183.5" width="11" height="11" stroke="white"/>
<rect x="185.5" y="194.5" width="11" height="11" stroke="white"/>
<rect x="185.5" y="205.5" width="11" height="11" stroke="white"/>
<rect x="185.5" y="216.5" width="11" height="11" stroke="white"/>
<rect x="185.5" y="227.5" width="11" height="11" stroke="white"/>
<rect x="185.5" y="238.5" width="11" height="11" stroke="white"/>
<rect x="196.5" y="51.5" width="11" height="11" stroke="white"/>
<rect x="196.5" y="62.5" width="11" height="11" stroke="white"/>
<rect x="196.5" y="73.5" width="11" height="11" stroke="white"/>
<rect x="196.5" y="84.5" width="11" height="11" stroke="white"/>
<rect x="196.5" y="95.5" width="11" height="11" stroke="white"/>
<rect x="196.5" y="106.5" width="11" height="11" stroke="white"/>
<rect x="196.5" y="117.5" width="11" height="11" stroke="white"/>
<rect x="196.5" y="128.5" width="11" height="11" stroke="white"/>
<rect x="196.5" y="139.5" width="11" height="11" stroke="white"/>
<rect x="196.5" y="150.5" width="11" height="11" stroke="white"/>
<rect x="196.5" y="161.5" width="11" height="11" stroke="white"/>
<rect x="196.5" y="172.5" width="11" height="11" stroke="white"/>
<rect x="196.5" y="183.5" width="11" height="11" stroke="white"/>
<rect x="196.5" y="194.5" width="11" height="11" stroke="white"/>
<rect x="196.5" y="205.5" width="11" height="11" stroke="white"/>
<rect x="196.5" y="216.5" width="11" height="11" stroke="white"/>
<rect x="196.5" y="227.5" width="11" height="11" stroke="white"/>
<rect x="196.5" y="238.5" width="11" height="11" stroke="white"/>
<rect x="207.5" y="51.5" width="11" height="11" stroke="white"/>
<rect x="207.5" y="62.5" width="11" height="11" stroke="white"/>
<rect x="207.5" y="73.5" width="11" height="11" stroke="white"/>
<rect x="207.5" y="84.5" width="11" height="11" stroke="white"/>
<rect x="207.5" y="95.5" width="11" height="11" stroke="white"/>
<rect x="207.5" y="106.5" width="11" height="11" stroke="white"/>
<rect x="207.5" y="117.5" width="11" height="11" stroke="white"/>
<rect x="207.5" y="128.5" width="11" height="11" stroke="white"/>
<rect x="207.5" y="139.5" width="11" height="11" stroke="white"/>
<rect x="207.5" y="150.5" width="11" height="11" stroke="white"/>
<rect x="207.5" y="161.5" width="11" height="11" stroke="white"/>
<rect x="207.5" y="172.5" width="11" height="11" stroke="white"/>
<rect x="207.5" y="183.5" width="11" height="11" stroke="white"/>
<rect x="207.5" y="194.5" width="11" height="11" stroke="white"/>
<rect x="207.5" y="205.5" width="11" height="11" stroke="white"/>
<rect x="207.5" y="216.5" width="11" height="11" stroke="white"/>
<rect x="207.5" y="227.5" width="11" height="11" stroke="white"/>
<rect x="207.5" y="238.5" width="11" height="11" stroke="white"/>
<rect x="218.5" y="51.5" width="11" height="11" stroke="white"/>
<rect x="218.5" y="62.5" width="11" height="11" stroke="white"/>
<rect x="218.5" y="73.5" width="11" height="11" stroke="white"/>
<rect x="218.5" y="84.5" width="11" height="11" stroke="white"/>
<rect x="218.5" y="95.5" width="11" height="11" stroke="white"/>
<rect x="218.5" y="106.5" width="11" height="11" stroke="white"/>
<rect x="218.5" y="117.5" width="11" height="11" stroke="white"/>
<rect x="218.5" y="128.5" width="11" height="11" stroke="white"/>
<rect x="218.5" y="139.5" width="11" height="11" stroke="white"/>
<rect x="218.5" y="150.5" width="11" height="11" stroke="white"/>
<rect x="218.5" y="161.5" width="11" height="11" stroke="white"/>
<rect x="218.5" y="172.5" width="11" height="11" stroke="white"/>
<rect x="218.5" y="183.5" width="11" height="11" stroke="white"/>
<rect x="218.5" y="194.5" width="11" height="11" stroke="white"/>
<rect x="218.5" y="205.5" width="11" height="11" stroke="white"/>
<rect x="218.5" y="216.5" width="11" height="11" stroke="white"/>
<rect x="218.5" y="227.5" width="11" height="11" stroke="white"/>
<rect x="218.5" y="238.5" width="11" height="11" stroke="white"/>
<rect x="229.5" y="51.5" width="11" height="11" stroke="white"/>
<rect x="229.5" y="62.5" width="11" height="11" stroke="white"/>
<rect x="229.5" y="73.5" width="11" height="11" stroke="white"/>
<rect x="229.5" y="84.5" width="11" height="11" stroke="white"/>
<rect x="229.5" y="95.5" width="11" height="11" stroke="white"/>
<rect x="229.5" y="106.5" width="11" height="11" stroke="white"/>
<rect x="229.5" y="117.5" width="11" height="11" stroke="white"/>
<rect x="229.5" y="128.5" width="11" height="11" stroke="white"/>
<rect x="229.5" y="139.5" width="11" height="11" stroke="white"/>
<rect x="229.5" y="150.5" width="11" height="11" stroke="white"/>
<rect x="229.5" y="161.5" width="11" height="11" stroke="white"/>
<rect x="229.5" y="172.5" width="11" height="11" stroke="white"/>
<rect x="229.5" y="183.5" width="11" height="11" stroke="white"/>
<rect x="229.5" y="194.5" width="11" height="11" stroke="white"/>
<rect x="229.5" y="205.5" width="11" height="11" stroke="white"/>
<rect x="229.5" y="216.5" width="11" height="11" stroke="white"/>
<rect x="229.5" y="227.5" width="11" height="11" stroke="white"/>
<rect x="229.5" y="238.5" width="11" height="11" stroke="white"/>
<rect x="240.5" y="51.5" width="11" height="11" stroke="white"/>
<rect x="240.5" y="62.5" width="11" height="11" stroke="white"/>
<rect x="240.5" y="73.5" width="11" height="11" stroke="white"/>
<rect x="240.5" y="84.5" width="11" height="11" stroke="white"/>
<rect x="240.5" y="95.5" width="11" height="11" stroke="white"/>
<rect x="240.5" y="106.5" width="11" height="11" stroke="white"/>
<rect x="240.5" y="117.5" width="11" height="11" stroke="white"/>
<rect x="240.5" y="128.5" width="11" height="11" stroke="white"/>
<rect x="240.5" y="139.5" width="11" height="11" stroke="white"/>
<rect x="240.5" y="150.5" width="11" height="11" stroke="white"/>
<rect x="240.5" y="161.5" width="11" height="11" stroke="white"/>
<rect x="240.5" y="172.5" width="11" height="11" stroke="white"/>
<rect x="240.5" y="183.5" width="11" height="11" stroke="white"/>
<rect x="240.5" y="194.5" width="11" height="11" stroke="white"/>
<rect x="240.5" y="205.5" width="11" height="11" stroke="white"/>
<rect x="240.5" y="216.5" width="11" height="11" stroke="white"/>
<rect x="240.5" y="227.5" width="11" height="11" stroke="white"/>
<rect x="240.5" y="238.5" width="11" height="11" stroke="white"/>
<rect x="251.5" y="51.5" width="11" height="11" stroke="white"/>
<rect x="251.5" y="62.5" width="11" height="11" stroke="white"/>
<rect x="251.5" y="73.5" width="11" height="11" stroke="white"/>
<rect x="251.5" y="84.5" width="11" height="11" stroke="white"/>
<rect x="251.5" y="95.5" width="11" height="11" stroke="white"/>
<rect x="251.5" y="106.5" width="11" height="11" stroke="white"/>
<rect x="251.5" y="117.5" width="11" height="11" stroke="white"/>
<rect x="251.5" y="128.5" width="11" height="11" stroke="white"/>
<rect x="251.5" y="139.5" width="11" height="11" stroke="white"/>
<rect x="251.5" y="150.5" width="11" height="11" stroke="white"/>
<rect x="251.5" y="161.5" width="11" height="11" stroke="white"/>
<rect x="251.5" y="172.5" width="11" height="11" stroke="white"/>
<rect x="251.5" y="183.5" width="11" height="11" stroke="white"/>
<rect x="251.5" y="194.5" width="11" height="11" stroke="white"/>
<rect x="251.5" y="205.5" width="11" height="11" stroke="white"/>
<rect x="251.5" y="216.5" width="11" height="11" stroke="white"/>
<rect x="251.5" y="227.5" width="11" height="11" stroke="white"/>
<rect x="251.5" y="238.5" width="11" height="11" stroke="white"/>
<rect x="262.5" y="51.5" width="11" height="11" stroke="white"/>
<rect x="262.5" y="62.5" width="11" height="11" stroke="white"/>
<rect x="262.5" y="73.5" width="11" height="11" stroke="white"/>
<rect x="262.5" y="84.5" width="11" height="11" stroke="white"/>
<rect x="262.5" y="95.5" width="11" height="11" stroke="white"/>
<rect x="262.5" y="106.5" width="11" height="11" stroke="white"/>
<rect x="262.5" y="117.5" width="11" height="11" stroke="white"/>
<rect x="262.5" y="128.5" width="11" height="11" stroke="white"/>
<rect x="262.5" y="139.5" width="11" height="11" stroke="white"/>
<rect x="262.5" y="150.5" width="11" height="11" stroke="white"/>
<rect x="262.5" y="161.5" width="11" height="11" stroke="white"/>
<rect x="262.5" y="172.5" width="11" height="11" stroke="white"/>
<rect x="262.5" y="183.5" width="11" height="11" stroke="white"/>
<rect x="262.5" y="194.5" width="11" height="11" stroke="white"/>
<rect x="262.5" y="205.5" width="11" height="11" stroke="white"/>
<rect x="262.5" y="216.5" width="11" height="11" stroke="white"/>
<rect x="262.5" y="227.5" width="11" height="11" stroke="white"/>
<rect x="262.5" y="238.5" width="11" height="11" stroke="white"/>
<rect x="273.5" y="51.5" width="11" height="11" stroke="white"/>
<rect x="273.5" y="62.5" width="11" height="11" stroke="white"/>
<rect x="273.5" y="73.5" width="11" height="11" stroke="white"/>
<rect x="273.5" y="84.5" width="11" height="11" stroke="white"/>
<rect x="273.5" y="95.5" width="11" height="11" stroke="white"/>
<rect x="273.5" y="106.5" width="11" height="11" stroke="white"/>
<rect x="273.5" y="117.5" width="11" height="11" stroke="white"/>
<rect x="273.5" y="128.5" width="11" height="11" stroke="white"/>
<rect x="273.5" y="139.5" width="11" height="11" stroke="white"/>
<rect x="273.5" y="150.5" width="11" height="11" stroke="white"/>
<rect x="273.5" y="161.5" width="11" height="11" stroke="white"/>
<rect x="273.5" y="172.5" width="11" height="11" stroke="white"/>
<rect x="273.5" y="183.5" width="11" height="11" stroke="white"/>
<rect x="273.5" y="194.5" width="11" height="11" stroke="white"/>
<rect x="273.5" y="205.5" width="11" height="11" stroke="white"/>
<rect x="273.5" y="216.5" width="11" height="11" stroke="white"/>
<rect x="273.5" y="227.5" width="11" height="11" stroke="white"/>
<rect x="273.5" y="238.5" width="11" height="11" stroke="white"/>
<rect x="284.5" y="51.5" width="11" height="11" stroke="white"/>
<rect x="284.5" y="62.5" width="11" height="11" stroke="white"/>
<rect x="284.5" y="73.5" width="11" height="11" stroke="white"/>
<rect x="284.5" y="84.5" width="11" height="11" stroke="white"/>
<rect x="284.5" y="95.5" width="11" height="11" stroke="white"/>
<rect x="284.5" y="106.5" width="11" height="11" stroke="white"/>
<rect x="284.5" y="117.5" width="11" height="11" stroke="white"/>
<rect x="284.5" y="128.5" width="11" height="11" stroke="white"/>
<rect x="284.5" y="139.5" width="11" height="11" stroke="white"/>
<rect x="284.5" y="150.5" width="11" height="11" stroke="white"/>
<rect x="284.5" y="161.5" width="11" height="11" stroke="white"/>
<rect x="284.5" y="172.5" width="11" height="11" stroke="white"/>
<rect x="284.5" y="183.5" width="11" height="11" stroke="white"/>
<rect x="284.5" y="194.5" width="11" height="11" stroke="white"/>
<rect x="284.5" y="205.5" width="11" height="11" stroke="white"/>
<rect x="284.5" y="216.5" width="11" height="11" stroke="white"/>
<rect x="284.5" y="227.5" width="11" height="11" stroke="white"/>
<rect x="284.5" y="238.5" width="11" height="11" stroke="white"/>
<rect x="295.5" y="51.5" width="11" height="11" stroke="white"/>
<rect x="295.5" y="62.5" width="11" height="11" stroke="white"/>
<rect x="295.5" y="73.5" width="11" height="11" stroke="white"/>
<rect x="295.5" y="84.5" width="11" height="11" stroke="white"/>
<rect x="295.5" y="95.5" width="11" height="11" stroke="white"/>
<rect x="295.5" y="106.5" width="11" height="11" stroke="white"/>
<rect x="295.5" y="117.5" width="11" height="11" stroke="white"/>
<rect x="295.5" y="128.5" width="11" height="11" stroke="white"/>
<rect x="295.5" y="139.5" width="11" height="11" stroke="white"/>
<rect x="295.5" y="150.5" width="11" height="11" stroke="white"/>
<rect x="295.5" y="161.5" width="11" height="11" stroke="white"/>
<rect x="295.5" y="172.5" width="11" height="11" stroke="white"/>
<rect x="295.5" y="183.5" width="11" height="11" stroke="white"/>
<rect x="295.5" y="194.5" width="11" height="11" stroke="white"/>
<rect x="295.5" y="205.5" width="11" height="11" stroke="white"/>
<rect x="295.5" y="216.5" width="11" height="11" stroke="white"/>
<rect x="295.5" y="227.5" width="11" height="11" stroke="white"/>
<rect x="295.5" y="238.5" width="11" height="11" stroke="white"/>
<rect x="306.5" y="51.5" width="11" height="11" stroke="white"/>
<rect x="306.5" y="62.5" width="11" height="11" stroke="white"/>
<rect x="306.5" y="73.5" width="11" height="11" stroke="white"/>
<rect x="306.5" y="84.5" width="11" height="11" stroke="white"/>
<rect x="306.5" y="95.5" width="11" height="11" stroke="white"/>
<rect x="306.5" y="106.5" width="11" height="11" stroke="white"/>
<rect x="306.5" y="117.5" width="11" height="11" stroke="white"/>
<rect x="306.5" y="128.5" width="11" height="11" stroke="white"/>
<rect x="306.5" y="139.5" width="11" height="11" stroke="white"/>
<rect x="306.5" y="150.5" width="11" height="11" stroke="white"/>
<rect x="306.5" y="161.5" width="11" height="11" stroke="white"/>
<rect x="306.5" y="172.5" width="11" height="11" stroke="white"/>
<rect x="306.5" y="183.5" width="11" height="11" stroke="white"/>
<rect x="306.5" y="194.5" width="11" height="11" stroke="white"/>
<rect x="306.5" y="205.5" width="11" height="11" stroke="white"/>
<rect x="306.5" y="216.5" width="11" height="11" stroke="white"/>
<rect x="306.5" y="227.5" width="11" height="11" stroke="white"/>
<rect x="306.5" y="238.5" width="11" height="11" stroke="white"/>
<rect x="317.5" y="51.5" width="11" height="11" stroke="white"/>
<rect x="317.5" y="62.5" width="11" height="11" stroke="white"/>
<rect x="317.5" y="73.5" width="11" height="11" stroke="white"/>
<rect x="317.5" y="84.5" width="11" height="11" stroke="white"/>
<rect x="317.5" y="95.5" width="11" height="11" stroke="white"/>
<rect x="317.5" y="106.5" width="11" height="11" stroke="white"/>
<rect x="317.5" y="117.5" width="11" height="11" stroke="white"/>
<rect x="317.5" y="128.5" width="11" height="11" stroke="white"/>
<rect x="317.5" y="139.5" width="11" height="11" stroke="white"/>
<rect x="317.5" y="150.5" width="11" height="11" stroke="white"/>
<rect x="317.5" y="161.5" width="11" height="11" stroke="white"/>
<rect x="317.5" y="172.5" width="11" height="11" stroke="white"/>
<rect x="317.5" y="183.5" width="11" height="11" stroke="white"/>
<rect x="317.5" y="194.5" width="11" height="11" stroke="white"/>
<rect x="317.5" y="205.5" width="11" height="11" stroke="white"/>
<rect x="317.5" y="216.5" width="11" height="11" stroke="white"/>
<rect x="317.5" y="227.5" width="11" height="11" stroke="white"/>
<rect x="317.5" y="238.5" width="11" height="11" stroke="white"/>
<rect x="328.5" y="51.5" width="11" height="11" stroke="white"/>
<rect x="328.5" y="62.5" width="11" height="11" stroke="white"/>
<rect x="328.5" y="73.5" width="11" height="11" stroke="white"/>
<rect x="328.5" y="84.5" width="11" height="11" stroke="white"/>
<rect x="328.5" y="95.5" width="11" height="11" stroke="white"/>
<rect x="328.5" y="106.5" width="11" height="11" stroke="white"/>
<rect x="328.5" y="117.5" width="11" height="11" stroke="white"/>
<rect x="328.5" y="128.5" width="11" height="11" stroke="white"/>
<rect x="328.5" y="139.5" width="11" height="11" stroke="white"/>
<rect x="328.5" y="150.5" width="11" height="11" stroke="white"/>
<rect x="328.5" y="161.5" width="11" height="11" stroke="white"/>
<rect x="328.5" y="172.5" width="11" height="11" stroke="white"/>
<rect x="328.5" y="183.5" width="11" height="11" stroke="white"/>
<rect x="328.5" y="194.5" width="11" height="11" stroke="white"/>
<rect x="328.5" y="205.5" width="11" height="11" stroke="white"/>
<rect x="328.5" y="216.5" width="11" height="11" stroke="white"/>
<rect x="328.5" y="227.5" width="11" height="11" stroke="white"/>
<rect x="328.5" y="238.5" width="11" height="11" stroke="white"/>
<rect x="339.5" y="51.5" width="11" height="11" stroke="white"/>
<rect x="339.5" y="62.5" width="11" height="11" stroke="white"/>
<rect x="339.5" y="73.5" width="11" height="11" stroke="white"/>
<rect x="339.5" y="84.5" width="11" height="11" stroke="white"/>
<rect x="339.5" y="95.5" width="11" height="11" stroke="white"/>
<rect x="339.5" y="106.5" width="11" height="11" stroke="white"/>
<rect x="339.5" y="117.5" width="11" height="11" stroke="white"/>
<rect x="339.5" y="128.5" width="11" height="11" stroke="white"/>
<rect x="339.5" y="139.5" width="11" height="11" stroke="white"/>
<rect x="339.5" y="150.5" width="11" height="11" stroke="white"/>
<rect x="339.5" y="161.5" width="11" height="11" stroke="white"/>
<rect x="339.5" y="172.5" width="11" height="11" stroke="white"/>
<rect x="339.5" y="183.5" width="11" height="11" stroke="white"/>
<rect x="339.5" y="194.5" width="11" height="11" stroke="white"/>
<rect x="339.5" y="205.5" width="11" height="11" stroke="white"/>
<rect x="339.5" y="216.5" width="11" height="11" stroke="white"/>
<rect x="339.5" y="227.5" width="11" height="11" stroke="white"/>
<rect x="339.5" y="238.5" width="11" height="11" stroke="white"/>
<rect x="350.5" y="51.5" width="11" height="11" stroke="white"/>
<rect x="350.5" y="62.5" width="11" height="11" stroke="white"/>
<rect x="350.5" y="73.5" width="11" height="11" stroke="white"/>
<rect x="350.5" y="84.5" width="11" height="11" stroke="white"/>
<rect x="350.5" y="95.5" width="11" height="11" stroke="white"/>
<rect x="350.5" y="106.5" width="11" height="11" stroke="white"/>
<rect x="350.5" y="117.5" width="11" height="11" stroke="white"/>
<rect x="350.5" y="128.5" width="11" height="11" stroke="white"/>
<rect x="350.5" y="139.5" width="11" height="11" stroke="white"/>
<rect x="350.5" y="150.5" width="11" height="11" stroke="white"/>
<rect x="350.5" y="161.5" width="11" height="11" stroke="white"/>
<rect x="350.5" y="172.5" width="11" height="11" stroke="white"/>
<rect x="350.5" y="183.5" width="11" height="11" stroke="white"/>
<rect x="350.5" y="194.5" width="11" height="11" stroke="white"/>
<rect x="350.5" y="205.5" width="11" height="11" stroke="white"/>
<rect x="350.5" y="216.5" width="11" height="11" stroke="white"/>
<rect x="350.5" y="227.5" width="11" height="11" stroke="white"/>
<rect x="350.5" y="238.5" width="11" height="11" stroke="white"/>
</g>
<g opacity="0.25">
<rect x="163.5" y="216.5" width="33" height="33" stroke="white"/>
<rect x="163.5" y="183.5" width="33" height="33" stroke="white"/>
<rect x="163.5" y="150.5" width="33" height="33" stroke="white"/>
<rect x="163.5" y="117.5" width="33" height="33" stroke="white"/>
<rect x="163.5" y="84.5" width="33" height="33" stroke="white"/>
<rect x="163.5" y="51.5" width="33" height="33" stroke="white"/>
<rect x="196.5" y="216.5" width="33" height="33" stroke="white"/>
<rect x="196.5" y="183.5" width="33" height="33" stroke="white"/>
<rect x="196.5" y="150.5" width="33" height="33" stroke="white"/>
<rect x="196.5" y="117.5" width="33" height="33" stroke="white"/>
<rect x="196.5" y="84.5" width="33" height="33" stroke="white"/>
<rect x="196.5" y="51.5" width="33" height="33" stroke="white"/>
<rect x="229.5" y="216.5" width="33" height="33" stroke="white"/>
<rect x="229.5" y="183.5" width="33" height="33" stroke="white"/>
<rect x="229.5" y="150.5" width="33" height="33" stroke="white"/>
<rect x="229.5" y="117.5" width="33" height="33" stroke="white"/>
<rect x="229.5" y="84.5" width="33" height="33" stroke="white"/>
<rect x="229.5" y="51.5" width="33" height="33" stroke="white"/>
<rect x="262.5" y="216.5" width="33" height="33" stroke="white"/>
<rect x="262.5" y="183.5" width="33" height="33" stroke="white"/>
<rect x="262.5" y="150.5" width="33" height="33" stroke="white"/>
<rect x="262.5" y="117.5" width="33" height="33" stroke="white"/>
<rect x="262.5" y="84.5" width="33" height="33" stroke="white"/>
<rect x="262.5" y="51.5" width="33" height="33" stroke="white"/>
<rect x="295.5" y="216.5" width="33" height="33" stroke="white"/>
<rect x="295.5" y="183.5" width="33" height="33" stroke="white"/>
<rect x="295.5" y="150.5" width="33" height="33" stroke="white"/>
<rect x="295.5" y="117.5" width="33" height="33" stroke="white"/>
<rect x="295.5" y="84.5" width="33" height="33" stroke="white"/>
<rect x="295.5" y="51.5" width="33" height="33" stroke="white"/>
<rect x="328.5" y="216.5" width="33" height="33" stroke="white"/>
<rect x="328.5" y="183.5" width="33" height="33" stroke="white"/>
<rect x="328.5" y="150.5" width="33" height="33" stroke="white"/>
<rect x="328.5" y="117.5" width="33" height="33" stroke="white"/>
<rect x="328.5" y="84.5" width="33" height="33" stroke="white"/>
<rect x="328.5" y="51.5" width="33" height="33" stroke="white"/>
</g>
<path d="M226 107H375V194H226C222.134 194 219 190.866 219 187V114C219 110.134 222.134 107 226 107Z" fill="white" fill-opacity="0.1"/>
<path d="M226 107H375V194H226C222.134 194 219 190.866 219 187V114C219 110.134 222.134 107 226 107Z" fill="url(#paint1_linear)" fill-opacity="0.2"/>
<path d="M226 107H375V194H226C222.134 194 219 190.866 219 187V114C219 110.134 222.134 107 226 107Z" stroke="white" stroke-width="2"/>
<circle cx="262.5" cy="150.5" r="32.5" fill="white" fill-opacity="0.1" stroke="white" stroke-width="2"/>
</g>
<path d="M317 130C317 128.895 317.895 128 319 128H374V140H319C317.895 140 317 139.105 317 138V130Z" fill="white"/>
<path d="M374 128H439C440.105 128 441 128.895 441 130V138C441 139.105 440.105 140 439 140H374V128Z" fill="black" fill-opacity="0.2"/>
<path d="M317 152C317 150.895 317.895 150 319 150H374V162H319C317.895 162 317 161.105 317 160V152Z" fill="white"/>
<path d="M374 150H479C480.105 150 481 150.895 481 152V160C481 161.105 480.105 162 479 162H374V150Z" fill="black" fill-opacity="0.2"/>
<path d="M317 167C317 165.895 317.895 165 319 165H374V177H319C317.895 177 317 176.105 317 175V167Z" fill="white"/>
<path d="M374 165H449C450.105 165 451 165.895 451 167V175C451 176.105 450.105 177 449 177H374V165Z" fill="black" fill-opacity="0.2"/>
<defs>
<filter id="filter0_d" x="358" y="104" width="178" height="97" filterUnits="userSpaceOnUse" color-interpolation-filters="sRGB">
<feFlood flood-opacity="0" result="BackgroundImageFix"/>
<feColorMatrix in="SourceAlpha" type="matrix" values="0 0 0 0 0 0 0 0 0 0 0 0 0 0 0 0 0 0 127 0"/>
<feOffset dy="2"/>
<feGaussianBlur stdDeviation="2"/>
<feColorMatrix type="matrix" values="0 0 0 0 0 0 0 0 0 0 0 0 0 0 0 0 0 0 0.15 0"/>
<feBlend mode="normal" in2="BackgroundImageFix" result="effect1_dropShadow"/>
<feBlend mode="normal" in="SourceGraphic" in2="effect1_dropShadow" result="shape"/>
</filter>
<linearGradient id="paint0_linear" x1="349" y1="174.5" x2="392.5" y2="177" gradientUnits="userSpaceOnUse">
<stop/>
<stop offset="1" stop-color="white" stop-opacity="0"/>
</linearGradient>
<linearGradient id="paint1_linear" x1="297" y1="106" x2="297" y2="195" gradientUnits="userSpaceOnUse">
<stop stop-color="white"/>
<stop offset="0.849823" stop-color="white" stop-opacity="0.234375"/>
<stop offset="1" stop-color="white" stop-opacity="0.5"/>
</linearGradient>
</defs>
</svg>
