<?xml version="1.0" encoding="utf-8"?>
<svg xmlns="http://www.w3.org/2000/svg" width="1788.97" height="3100" viewBox="0 0 1788.97 3100">
  <defs>
    <style>
      .cls-1 {
        fill-rule: evenodd;
        fill: #00C266;
      }
    </style>
  </defs>
  <path id="Color_Fill_1" data-name="Color Fill 1" class="cls-1" d="M1435.16,121h15c14.08,27.029,37.94,44.831,61.02,63,72.67,57.217,163.43,101.3,241.06,153,43.49,28.964,89.14,56.894,110.04,108,27.33,66.826-32.9,119.792-67.02,147-29.17,23.258-58.27,48.12-89.03,70-64.29,45.73-163.99,110.624-179.05,202-9.88,59.968,48.03,109.017,75.02,136,57.71,57.68,119.55,113.33,185.05,163,36.2,27.45,83.49,63.1,93.03,116,11.56,64.08-38.27,112.38-64.02,142q-80.505,80.49-161.04,161c-19.39,20.78-51.71,46.05-60.02,76,12.28-3.33,71.83-7.49,83.02-3-11.81,22.02-15.43,47.41-8,75l-207.06,15c-33.56-67.5,16.23-118.22,53.02-155q54.51-54.99,109.03-110c30.9-30.89,62.36-59.73,88.02-96,16.81-23.76,42.93-58.97,35.01-105-9.83-57.15-62.71-93.17-101.02-123q-55.515-45.99-111.04-92-27.5-26.49-55.01-53c-33.8-27.289-73.36-65.635-85.02-114-11.76-48.726,18.71-85.4,38.01-111,43.94-58.307,104.98-97.723,164.04-141,23.85-17.475,44.84-39.3,68.02-57,26.21-20.016,78.52-69.521,70.02-121-10.28-62.245-63.94-96.677-108.03-126-37.88-25.19-77.69-49.975-117.03-74-67.98-41.513-151.9-71.511-191.06-141v-1Zm-138.04,5c11.62,3.325,29.08,34.214,40.01,43q32.5,24.5,65.02,49l35.01,22c-14.02-.189-67.15,5.069-75.02,11h2q30.495,16.5,61.01,33c36.71,21.364,71.5,44.229,105.03,68,65.88,46.7,131.89,105.226,64.02,198-32.18,43.983-96.96,87.841-142.04,120-16.03,11.435-36.77,21.827-49.01,37,11.13-.006,65.04,4.388,68.02,9-33.36,15.912-95.24,91.9-107.03,131-5.66,18.757-2.21,39.173,0,58-0.34.333-.67,0.667-1,1q-36.51,6-73.02,12c25.76,52.9,73.09,95.77,117.03,131,42.59,34.15,82.98,73.19,126.03,107,39.99,31.41,93.32,63.08,103.03,124,9.76,61.17-41.53,111.62-66.02,142q-73.5,74.985-147.04,150c-31.91,27.55-62.32,59.33-81.02,100q50.01-1.995,100.03-4c-13.29,27.01-4.46,54.94,5,78q-79.02,6.495-158.04,13c-15.67,2.52-47.51,9.17-60.02,2-9.58-21.13-29.8-42.88-20.01-78,12.32-44.18,49.21-76.19,78.02-105q36.51-37.5,73.03-75a591.253,591.253,0,0,0,93.02-95c24.05-31.03,65.48-75.76,53.02-137-10.31-50.67-59.14-79.87-94.03-107-42.67-33.17-82.12-71.39-124.03-105-23.53-18.86-48.14-39.52-67.02-63-25.9-32.2-58.81-54.4-68.02-104-8.66-46.583,20.79-80.263,39.01-105,44.81-60.843,111.24-105.175,173.05-149,22.64-16.054,42.7-35.792,64.01-53,31.87-25.724,85.17-81.924,60.02-143-17.22-41.83-55.17-65.48-90.02-90-67.32-47.366-144.31-87.443-215.06-132-26.37-16.6-89.83-54.573-99.03-84Zm-237.07,11h8c20.76,36.067,62.91,61.018,98.03,83,69.17,43.289,144.41,81.737,210.06,128,40.33,28.42,90.41,56.642,101.03,114,10.34,55.849-43.89,106.394-71.02,128-73.84,58.8-175.97,121.991-231.07,197-20.48,27.88-50.79,67.97-37.01,117,12.33,43.851,45.22,65.223,70.02,96,17.54,21.76,40.2,40.5,62.02,58,38.92,31.2,75.4,67.12,115.03,98,38.05,29.65,92.87,61.66,104.03,117,11.28,55.92-25.21,98.2-47.01,127-56.18,74.2-134.97,127.86-193.06,200-23.48,29.16-75.56,69.93-55.01,128,5.15,14.56,14.82,25.69,22.01,38q-62.025,6.495-124.04,13c-15.47-21.76-44.02-46.18-35.01-88,10.43-48.42,50.9-81.89,81.02-112,57.06-57.03,124.45-115.71,172.05-181,20.86-28.62,55.04-70.33,45.01-124-10.29-55.09-63.58-87.84-101.02-117q-55.515-46.5-111.04-93c-28.64-22.76-58.09-46.55-81.02-75-20.95-26-48.56-47.543-58.01-85-12.308-48.765,14.75-84.974,34.01-112,39.78-55.829,100.37-96.978,156.04-137,27.14-19.514,52.14-43.24,78.02-64,27.12-21.747,81.21-73.2,71.02-129-10.41-57.035-59.08-85.756-99.03-114q-37.995-25.5-76.02-51c-75.63-44.622-176.814-82.425-227.062-151v-1ZM913.01,147h12c22.066,36.981,70.094,61.5,107.026,84,68.71,41.86,142.92,80.227,207.06,126,38.03,27.136,77.62,54.45,87.03,110,8.22,48.541-41.85,99.576-66.02,119q-36.51,30.5-73.02,61c-58.81,43.192-123.01,85.075-166.05,144-17.81,24.384-47.314,59.84-36.009,108,10.812,46.065,42.559,65.75,67.019,97,20.7,26.44,47.74,48.13,74.02,69q59.01,48.99,118.03,98c34.8,27.34,82.03,57.86,93.03,108,12.51,56.99-24.57,99.84-46.01,129-46.87,63.72-109.8,116.09-164.05,173-28.59,29.99-65.08,57.98-82.02,99-19.3,46.71,10.37,81.11,31.01,108v1q-56.01,6-112.035,12c-22.7-26.34-51.34-41.66-64.018-79-17.041-50.18,41.662-105.61,65.018-129q42.507-45.99,85.025-92c33.58-33.58,67.18-65.53,94.03-106,14.73-22.22,39.72-57.19,34-97-8.75-61.01-47.26-86.61-86.02-117C1021.19,1117.43,945.826,1062.03,882,999c-28.871-28.513-88.077-78.15-74.021-143,8.755-40.393,35.758-69.323,58.016-97l32.009-32c-21.915,16.468-43.758,39.873-60.017,62-11.559,15.731-23.523,33.842-31.008,53C779.928,911.237,834.375,963.393,866,995c63.186,63.15,133.358,120.47,204.053,176,34.67,27.23,77.79,54.81,87.03,107,8.17,46.18-19.62,81.61-36.01,106-25.77,38.35-58.06,68.04-90.03,100q-54,54.495-108.027,109c-24.719,24.71-86.636,82.63-64.018,138,12.2,29.85,35.182,45.72,53.015,69h-2Q863,1806.5,815.983,1813c-12.126-7-23.2-19.46-32.009-30-50.843-60.83-50.547-95.83-1-159q23-23.505,46.013-47c52.3-64.69,120.618-113.94,171.043-181,21.61-28.72,58.35-74.48,44.02-130-11.48-44.44-57.045-72.92-89.028-98L834.989,1068c-33.044-26.27-65.021-53.68-91.026-87-19.107-24.485-43.147-43.872-51.014-80-10.812-49.655,18.23-86.334,38.011-113,56.625-76.338,153.506-136.332,228.063-196,27.306-21.853,83.587-73.78,74.017-129-9.15-52.8-52.367-80.036-89.021-106-63.705-45.126-137.1-83-204.057-126-27.012-17.347-60.8-32.865-81.023-57v-1l120.034-12C800.9,188.961,839.992,207.117,871,226c46.911,28.569,99.733,50.445,148.041,79l74.02,49c41.69,27.732,90.36,55.883,101.03,114,9.5,51.745-28.47,88.347-51.02,111-68.63,68.963-170.109,120.962-229.059,196C887.8,808.36,854.6,857.7,878,914c3.9,9.389,6.929,18.887,14,25C859.45,875.271,879.4,833.3,914.011,787c60.221-80.551,168.559-139.091,244.069-208,23-20.994,67.01-63.8,59.02-113-8.79-54.127-46.01-79.006-83.03-105q-42.51-29.5-85.02-59c-41.96-26.289-89.041-46.294-130.038-72-21.371-13.4-88.934-53.059-96.027-75ZM588.92,182c14.213,2.187,27.382,18.5,38.01,26l61.018,37c87.4,51.135,182.409,87.751,251.07,157,34.154,34.447,52.687,82.774,21.006,135-17.286,28.5-43.444,50.621-69.02,71l-58.016,49c-46.191,34.831-96.13,67.99-132.037,113-22.5,28.205-64.752,66.694-53.015,123,11.359,54.487,52.116,92.341,89.025,122l34.01,33,144.04,115c37.525,29.46,87.769,60.16,98.029,116,8.11,44.15-16.039,78.51-31.01,102-25.606,40.17-61.218,66.36-90.025,102Q843,1535.5,793.977,1588c-26.055,26.12-85.585,82.28-63.017,138,16.694,41.22,51.988,57.32,78.021,88-21.613.48-102.052,18.88-113.031,12-24.388-11.34-65.062-52.24-79.022-75q-8-18.495-16-37-20.5,2.505-41.011,5v3c10.348,35.21,28.631,62.08,53.015,83q16,15,32.009,30l-99.028,12q-14.5-13.5-29.008-27c-34.478-27.86-90.951-87.33-56.016-149,17.929-31.65,43.261-53.09,65.018-80,57.088-70.61,134.067-123,186.052-199,19.722-28.83,58.13-67.88,48.014-123-9.294-50.63-54.977-78.29-89.025-105q-47.509-40.5-95.027-81c-32.276-25.72-66.135-52.92-92.026-85-24.169-29.951-55.046-53.587-63.017-100-9.3-54.156,25.369-90.137,46.013-117,45.677-59.439,111.041-101.816,171.048-147,22.32-16.807,41.993-37.116,63.017-55,24.682-21,76.336-69.468,68.019-120-9.037-54.91-47.391-80.529-85.024-107L590.92,288c-47.031-28.417-106.948-48.528-143.04-88v-1ZM320.845,217c20.022,4.9,39.015,5.343,57.016,11C486.788,262.232,574.5,312.873,656.939,372c41.3,29.624,91.913,83.565,53.015,150C647.373,628.884,516.513,672.833,440.878,767c-21.887,27.251-68.96,73.18-58.016,130,8.88,46.1,37.83,67.921,62.018,98,20.819,25.89,47.92,47.37,74.02,68q66.012,54,132.037,108c29.412,22.92,66.477,47.79,81.023,85,22.971,58.76-24.366,115.73-48.014,147-45.464,60.12-102.061,113.04-155.043,166-31.027,31.02-68.746,63.01-87.024,106-20.129,47.35,11.688,89.42,33.009,117,6.806,8.8,28.914,34.14,16,51-11.072,14.46-35.865,12.19-58.016,16q-75.513,7.995-151.042,16c-39.962-46.85-105.688-71.6-130.036-134-23.8-60.99,30.219-104.08,56.015-136,61.046-75.53,138.055-134.5,195.055-215,17.968-25.38,50.58-64.69,43.012-112-9.135-57.1-56.327-85.09-94.026-114-41.759-32.03-81.941-67.48-123.035-100-25.813-20.43-52.375-41.42-73.02-67-23.19-28.731-52.791-53.362-61.017-97-9.723-51.577,22.257-86.948,43.012-113,46.172-57.955,106.735-101.156,166.046-146l64.018-57c26.2-21.355,76.646-75.732,64.018-130-17.294-74.32-152.888-141.306-216.06-178C194.173,263.429,165,255.283,147.8,238ZM421.873,319l31.009,21c35.877,25.233,79.481,51.757,100.028,92,32.583,63.819-23.144,121.072-56.016,152C421.54,654.9,323.366,707.617,261.828,792c-19.1,26.189-49.061,61.687-38.01,113,8.313,38.6,34.235,59.214,55.015,85,22.732,28.21,51.554,51.5,80.023,74q60.51,49.5,121.033,99c38.127,29.69,86.223,58.41,96.027,116,7.4,43.45-28.633,89.94-45.012,113-61.147,86.09-147.182,148.35-212.06,230-27.47,34.57-62.178,78.86-30.008,132,6.309,10.42,11.5,20.9,21.006,28l14-3c3.366-14.74-12.478-29.52-17-42-9.8-27.02-.83-57.59,11-77,52.03-85.34,147.313-151.68,210.059-230,31.73-39.61,70.371-76.77,75.021-143,3.975-56.63-64.111-99.17-96.027-124q-56.01-45.99-112.031-92c-30.258-23.77-61.919-48.11-86.024-78-23.21-28.783-51.057-50.318-59.017-95-10.457-58.7,37.149-102.6,60.017-131,73-90.668,204.574-139.446,264.074-241,49.509-84.5-26.03-136.846-76.022-172C476.564,339,457.836,318.753,421.873,319ZM867,486c-27.779,80.751-94.263,122.482-156.044,169-33.365,25.123-64.864,53.117-97.027,79-39.164,31.516-82.22,77.385-92.026,137-10.8,65.67,42.239,97.089,68.019,129,38.867,48.11,92.4,87.62,142.04,125q26.5,23.505,53.015,47c51.467,40.74,97.669,70.82,73.02,159L887,1334c3.276-19.45,11.261-44.33,5-68-12.718-48.09-63.107-78.84-98.028-106q-54.51-44.49-109.03-89c-33.618-26.19-68.349-52.89-95.027-86C564.037,952.876,540.6,934.7,532.9,882c-5.807-39.773,25.242-72.592,41.012-94,35.854-48.674,84.81-83.673,133.037-120,28.858-21.738,56-46.662,84.023-69C812.138,582.129,874.938,522.92,867,486Zm69.019,210-2,1v1Zm-4,3-2,1v1Zm-5,4-4,4Zm-7,5-21,20C903.661,725.239,921.671,708.459,920.012,708ZM892.005,940l2,2Zm566.155,826c12.13,3.81,18.83,18.63,28.01,26,31.56,25.33,58.81,55.88,90.03,81,28.44,22.89,54.98,53.83,76.02,84,25.93,37.19,54.19,78.98,59.01,136,4.87,57.55-56.21,141.32-81.02,175-57.36,77.88-127.65,143.68-187.05,220-41.46,53.26-84.46,107.96-104.03,183-17.66,67.72,4.82,162.37,30.01,208q29.5,40.995,59.01,82,17.01,34.995,34.01,70c20.84,35.64,43.17,71.63,65.02,106-23.9.87-99.16,18.37-116.03,11l-25.01-29q-15.5-22.005-31.01-44c-30.78-43.76-55.39-94.03-88.02-136l-52.02-60c-35.65-55.39-62.95-153.81-37.01-237,14.52-46.54,37.1-88.35,61.02-126-16.65,8.98-26.27,38.58-36.01,55-31.81,53.62-67.41,133.03-45.01,222,7.21,28.64,15.53,63.89,30.01,88,16.45,27.41,40.72,51.74,57.01,80q16.005,33.99,32.01,68a1415.268,1415.268,0,0,0,82.03,127v1q-50.52,5.505-101.03,11c-30.93-42.7-61.44-86.81-89.03-134q-14.5-30.495-29.01-61-33-48-66.01-96c-36.91-88.46-45.72-197.53,3-281,76.55-131.16,185.87-226.17,272.07-347,21.8-30.55,79.81-108.33,70.02-165-15.56-90.1-104.09-187.94-164.04-236q-31-27-62.02-54v-1q59.01-6.495,118.03-13,18.51,14.505,37.01,29c33.51,24.69,65.07,50.48,97.03,76,28.57,22.83,54.7,48.95,76.02,79,15.95,22.48,32.33,45.69,43.01,73,33.47,85.54-27.41,165.5-64.02,217-55.44,78.02-118.63,147.47-174.04,226-34.3,48.6-71.47,101.63-88.03,167h1c8.82-33.25,27.87-61.57,44.01-88,69.56-113.82,168.49-197.16,246.07-303,40.44-55.16,95.44-133.68,59.02-223-27.34-67.04-94.99-144.13-149.04-186-27.28-21.13-60.18-43.58-81.03-71v-1Zm-451.12,958c-17.75-.36-71.662,5.57-79.025,13-5.055,12.89,5.659,57.41,9,69q12.5,37.995,25.007,76c15.659,29.91,42.986,56.32,61.016,86l35.01,69q45.015-6.495,90.03-13c25.76,53.03,61,100.19,95.02,145v1q-106.02,9.495-212.06,19-33-42-66.015-84c-33.912-55.19-59.775-119.2-96.027-173q-18.5-24.99-37.01-50c-16.069-28.62-41.78-119.54-34.01-169,21.938-139.66,100.967-210.28,172.048-299,38.414-47.94,80.484-92.06,118.034-141,42.12-54.9,116.78-137.73,78.02-234-21.85-54.29-89.06-134.38-132.04-169q-29.5-24.99-59.012-50l201.052-24c26.9,34.84,72.31,54.62,99.03,90v1q-40.5,5.505-81.02,11c34.02,44.56,77.89,82.28,100.03,139,26.38,67.61.08,121.79-29.01,170-40.84,67.67-93.92,121.88-142.04,182q-34,39-68.02,78,36.51,3.495,73.02,7l-3,3q-20.5,25.995-41.01,52C1048.63,2578.87,1007.51,2642.53,1007.04,2724ZM880,1832c129.289-2.15,188.949,86.57,242.069,162,23.68,33.63,51.4,90.68,30.01,145-84.55,214.61-323.869,317.26-370.106,562-10.006,52.96,14.035,150.05,33.009,182q27.506,39,55.015,78,21,42,42.012,84c12.284,20.55,62.609,96.83,50.014,131-12.38,33.59-132.878,23.42-177.049,31-13.073,2.24-38.719,4.35-48.014,0q-38.507-48.99-77.021-98c-36.376-55.33-62.19-120.62-99.028-176q-18-24.495-36.01-49c-16.663-27.93-41.107-121.42-33.009-172,21.974-137.24,99.96-210.14,170.047-298q59.011-72.99,118.033-146c41.7-55.11,114.217-133.83,77.022-229-30.61-78.32-98.125-127.39-151.042-184v-1Q792.968,1843.005,880,1832Zm-194.054,24c31.167,17.15,71.252,63.14,92.026,92q-43.008,4.005-86.024,8l3,3q15,19.995,30.009,40c15.573,22.38,24.331,50.66,31.009,82,8.984,42.17-18.106,82.01-33.01,107-31.354,52.58-68.469,96.03-105.029,143q-26.5,31.995-53.015,64v1q32.506,7.005,65.018,14-24.5,28.995-49.013,58c-41.105,53.49-78.057,104.14-105.03,173-11.883,30.34-24.59,76.17-17,121,4.775,28.22,11.549,52.56,16,77h-2l-71.019,15v1c19.033,43,43.3,73.11,66.018,111,27.44,45.77,48.153,93.45,76.021,137,12.9-1.8,86.8-11.45,92.026-7q16.5,23.505,33.009,47c17.151,22.67,39.912,41.43,54.015,67q-110.52,5.505-221.061,11c-11.224-32.32-58.322-74.82-79.023-104-40.051-56.46-66.331-124.81-105.029-183q-17-24-34.009-48c-15.232-25.34-39.849-116.89-33.01-162,20.591-135.82,86.311-205.86,154.043-292q59.511-73.995,119.034-148c42.928-55.94,125.877-137.44,95.026-236-16.521-52.78-57.654-96.64-93.026-132q-19.5-19.005-39.011-38Q586.41,1867.005,685.947,1856Zm226.063,65c-2.334.67-4.668,1.33-7,2,27.843,33.98,60.644,68.2,79.022,111,43.54,101.39-38.724,188.29-84.023,246-81.663,104.03-171.278,194.61-240.067,312-30.122,51.4-52.269,134.65-32.009,213q14,40.5,28.008,81,22.5,30.99,45.012,62c22.369,36.3,40.179,78.54,62.017,115q8,13.5,16,27l16-3,1-3c3.292-11.65-36.228-72.54-43.012-88-13.675-31.17-29.546-56.8-48.014-83q-13-17.505-26.007-35c-15.534-35.24-22.072-69.32-29.008-113-2.7-16.98-4.289-43.65-1-62,22.732-126.83,96-198.35,162.045-281q58.011-70.5,116.032-141c29.575-38.48,63.21-75.74,83.026-124,34.1-83.07-1.85-133.26-41.014-188C955.727,1950.41,942.888,1921.47,912.01,1921Zm328.09,592c-0.66.33-1.33,0.67-2,1v1C1238.77,2514.33,1239.44,2513.67,1240.1,2513Z" transform="translate(-93 -121)"/>
</svg>
