<?xml version="1.0" encoding="utf-8"?>
<!-- Generator: Adobe Illustrator 17.0.0, SVG Export Plug-In . SVG Version: 6.00 Build 0)  -->
<!DOCTYPE svg PUBLIC "-//W3C//DTD SVG 1.1//EN" "http://www.w3.org/Graphics/SVG/1.1/DTD/svg11.dtd">
<svg version="1.1" id="Layer_1" xmlns="http://www.w3.org/2000/svg" xmlns:xlink="http://www.w3.org/1999/xlink" x="0px" y="0px"
	 width="42px" height="42px" viewBox="0 0 42 42" enable-background="new 0 0 42 42" xml:space="preserve">
<path id="jerry_can" fill="#EED115" d="M18.697,20.437h-6.691c-0.592,0-1.074,0.479-1.074,1.071v2.9
	c0,0.592,0.482,1.072,1.074,1.072h6.691c0.592,0,1.071-0.481,1.071-1.072v-2.9C19.769,20.917,19.289,20.437,18.697,20.437z
	 M29.63,5.445c-0.2-0.403-1.494-2.968-1.494-2.968s0.491-0.291,0.716-0.401c0.222-0.112,0.391-0.253,0.087-0.826
	c-0.327-0.618-0.648-0.439-0.648-0.439s-0.433,0.24-0.913,0.483C26.575,0.111,25.458-0.003,25.124,0c-0.223,0.001-1.317,0-1.65,0
	c-0.336,0-0.648,0.044-0.783,0.224c-0.132,0.178-0.445,0.334-0.823,0.334c-0.38,0-11.312,0-11.312,0
	c-0.112,0.01-0.135-0.068-0.202-0.112c-0.759-0.424-1.595-0.01-1.773,0.19c-0.179,0.2-0.893,1.071-1.315,1.549
	c-0.426,0.481-0.794,0.57-1.084,0.66C6.36,2.611,6.226,2.387,6.226,2.387L6.058,2.053l0.235-0.636l0.211-0.112L6.38,1.014
	c0,0-0.133,0.057-0.38,0.179C5.757,1.316,5.757,1.428,5.757,1.428C5.646,1.829,5.356,1.852,5.356,1.852S4.708,0.625,4.619,0.469
	c-0.09-0.157-0.267-0.647-2.433,0.513C0.023,2.143,0.535,2.588,0.535,2.588l0.738,1.427L1.049,4.194l0.537,1.071
	c0,0-0.136,0.067-0.604,0.38C0.514,5.957,0,6.27,0,7.116v31.148c0,2.344,0.67,3.414,3.281,3.414H27.11
	c1.539,0,3.013-0.804,3.013-3.479V7.407C30.123,5.869,29.83,5.846,29.63,5.445z M12.519,2.856h7.94c0.679,0,1.229,0.55,1.229,1.228
	c0,0.678-0.55,1.226-1.229,1.226h-7.94c-0.678,0-1.228-0.548-1.228-1.226C11.29,3.405,11.84,2.856,12.519,2.856z M22.58,27.366
	c0,0,2.658,4.639,3.213,5.703c0.737,1.408-0.267,2.012-0.267,2.012s-1.34,0.673-2.01-0.535c-0.568-1.027-2.419-4.294-3.078-5.302
	c-0.848-1.296-1.205-1.745-2.342-1.745c-1.541,0-0.56,0-2.701,0h-0.18c-2.156,0-1.167,0-2.72,0c-1.146,0-1.507,0.45-2.361,1.745
	c-0.664,1.008-2.531,4.275-3.104,5.302c-0.676,1.208-2.023,0.535-2.023,0.535s-1.013-0.604-0.269-2.012
	c0.56-1.064,3.237-5.703,3.237-5.703s0.674-1.029,0.674-1.878v-2.374c0-0.27,0-0.446,0-0.446v-2.365
	c0-0.848-0.674-1.874-0.674-1.874s-2.677-4.628-3.237-5.689c-0.743-1.406,0.269-2.008,0.269-2.008s1.347-0.67,2.023,0.535
	c0.574,1.024,2.44,4.284,3.104,5.288c0.854,1.295,1.215,1.739,2.361,1.739c1.553,0,0.564,0,2.72,0h0.18c2.141,0,1.16,0,2.701,0
	c1.138,0,1.494-0.444,2.342-1.739c0.659-1.004,2.51-4.264,3.078-5.288c0.67-1.205,2.01-0.535,2.01-0.535s1.004,0.602,0.267,2.008
	c-0.555,1.061-3.213,5.689-3.213,5.689s-0.67,1.027-0.67,1.874v2.365c0,0.273,0,0.446,0,0.446v2.374
	C21.91,26.338,22.58,27.366,22.58,27.366z"/>
</svg>
