<?xml version="1.0" encoding="utf-8"?>
<!-- Generator: Adobe Illustrator 17.0.0, SVG Export Plug-In . SVG Version: 6.00 Build 0)  -->
<!DOCTYPE svg PUBLIC "-//W3C//DTD SVG 1.1//EN" "http://www.w3.org/Graphics/SVG/1.1/DTD/svg11.dtd">
<svg version="1.1" id="Layer_1" xmlns="http://www.w3.org/2000/svg" xmlns:xlink="http://www.w3.org/1999/xlink" x="0px" y="0px"
	 width="44px" height="44px" viewBox="0 0 44 44" enable-background="new 0 0 44 44" xml:space="preserve">
<g>
	<path fill="#4FB5C6" d="M0,21.131c2.215-1.644,4.159-5.099,8.889-6.607c-2.851-0.537-4.26-2.65-4.26-4.763
		c0-2.28,1.712-4.025,4.091-4.025c1.947,0,3.154,1.409,4.094,3.019c-0.502-0.168-1.008-0.269-1.442-0.269
		c-1.243,0-2.215,0.672-2.215,1.913c0,1.643,1.275,2.112,3.154,2.112c2.179,0,5.466-0.67,9.994-0.67
		c6.607,0,13.515,4.763,13.515,12.308c0.437,0.134,1.04,0.235,1.678,0.235c3.621,0,4.83-1.408,4.83-3.321
		c0-1.475-1.208-2.615-4.361-2.918c-0.268-0.033-0.401-0.502-0.401-1.14c0-1.274,0.569-3.22,1.341-3.22c0.101,0,0.168,0,0.235,0.034
		c1.979,0.905,4.729,3.22,4.729,6.775c0,3.487-2.347,4.862-6.371,4.862c-0.672,0-1.241-0.033-1.745-0.134
		c-0.47,4.259-3.287,6.942-8.116,6.942c-4.259,0-6.909-2.716-6.909-5.332c0-3.119,2.213-4.763,5.903-4.763
		c3.756,0,5.501,0.939,7.144,1.442c-0.403-3.722-3.487-6.64-9.358-6.64c-6.808,0-10.664,3.857-10.664,6.373
		c0,1.341,0.737,1.979,1.843,1.979c1.107,0,1.879-0.739,2.448-1.509c0.067,0.401,0.101,0.804,0.101,1.173
		c0,2.65-2.013,4.394-4.125,4.394c-2.28,0-4.192-1.811-4.192-4.192c0-1.577,0.571-2.683,1.24-3.355
		c-1.24,0.336-2.212,0.47-3.487,0.47C4.528,22.304,2.048,21.23,0,21.131z M21.936,26.933c0,1.912,2.045,4.259,5.701,4.259
		c4.293,0,6.105-2.481,6.172-6.405c-1.845-0.47-3.823-1.543-7.178-1.543C23.344,23.243,21.936,24.819,21.936,26.933z"/>
</g>
</svg>
