<?xml version="1.0" encoding="utf-8"?>
<!-- Generator: Adobe Illustrator 17.0.0, SVG Export Plug-In . SVG Version: 6.00 Build 0)  -->
<!DOCTYPE svg PUBLIC "-//W3C//DTD SVG 1.1//EN" "http://www.w3.org/Graphics/SVG/1.1/DTD/svg11.dtd">
<svg version="1.1" id="Layer_1" xmlns="http://www.w3.org/2000/svg" xmlns:xlink="http://www.w3.org/1999/xlink" x="0px" y="0px"
	 width="44px" height="44px" viewBox="0 0 44 44" enable-background="new 0 0 44 44" xml:space="preserve">
<g>
	<path fill="#4FB5C6" d="M36.289,22.304c-1.275,0-2.248-0.134-3.487-0.47c0.669,0.672,1.24,1.778,1.24,3.355
		c0,2.381-1.912,4.192-4.192,4.192c-2.112,0-4.125-1.744-4.125-4.394c0-0.369,0.034-0.771,0.101-1.173
		c0.569,0.77,1.341,1.509,2.448,1.509c1.106,0,1.843-0.638,1.843-1.979c0-2.515-3.856-6.373-10.664-6.373
		c-5.87,0-8.955,2.918-9.358,6.64c1.643-0.502,3.388-1.442,7.144-1.442c3.689,0,5.903,1.644,5.903,4.763
		c0,2.616-2.65,5.332-6.909,5.332c-4.83,0-7.647-2.683-8.116-6.942c-0.504,0.101-1.073,0.134-1.745,0.134
		C2.347,25.457,0,24.082,0,20.594c0-3.556,2.75-5.87,4.729-6.775c0.067-0.034,0.134-0.034,0.235-0.034
		c0.771,0,1.341,1.946,1.341,3.22c0,0.638-0.134,1.107-0.401,1.14c-3.153,0.303-4.361,1.443-4.361,2.918
		c0,1.913,1.208,3.321,4.83,3.321c0.638,0,1.241-0.101,1.678-0.235c0-7.546,6.908-12.308,13.515-12.308
		c4.528,0,7.815,0.67,9.994,0.67c1.879,0,3.154-0.47,3.154-2.112c0-1.241-0.972-1.913-2.215-1.913c-0.434,0-0.939,0.101-1.442,0.269
		c0.939-1.61,2.147-3.019,4.094-3.019c2.379,0,4.091,1.745,4.091,4.025c0,2.112-1.409,4.226-4.26,4.763
		c4.73,1.509,6.674,4.963,8.889,6.607C41.821,21.23,39.342,22.304,36.289,22.304z M17.239,23.243c-3.355,0-5.333,1.073-7.178,1.543
		c0.067,3.924,1.879,6.405,6.172,6.405c3.655,0,5.701-2.347,5.701-4.259C21.933,24.819,20.526,23.243,17.239,23.243z"/>
</g>
</svg>
