<?xml version="1.0" encoding="UTF-8" standalone="no"?>
<svg width="98px" height="90px" viewBox="0 0 98 90" version="1.1" xmlns="http://www.w3.org/2000/svg" xmlns:xlink="http://www.w3.org/1999/xlink" xmlns:sketch="http://www.bohemiancoding.com/sketch/ns">
    <!-- Generator: Sketch 3.0.1 (7597) - http://www.bohemiancoding.com/sketch -->
    <title>Logo</title>
    <description>Created with Sketch.</description>
    <defs></defs>
    <g id="Page-1" stroke="none" stroke-width="1" fill="none" fill-rule="evenodd" sketch:type="MSPage">
        <path d="M52.5698179,42.0173753 L71.0783738,23.2612782 L60.097653,12.0112782 L71.9165968,0 L82.8973177,11.25 L85.4958089,8.54323308 L93.6265717,16.8327068 L90.9442582,19.4548872 C93.7383487,23.966188 95.8059447,34.1728528 97.1471081,50.075188 L79.2091366,31.4661654 L61.6655084,49.4697912 L61.6655084,49.4697912 L49.0265503,62.1087494 L49.0693981,62.1515972 L40.6508801,70.7142857 L24.5569992,90 L13.5762783,78.8345865 L32.4362951,62.5093985 L39.6338337,55.2462432 L39.7171509,55.3267016 L52.5698179,42.0173753 Z M47.7287479,39.8326673 L31.4304275,23.1766917 L42.3273261,12.0112782 L30.5922045,0 L19.6114837,11.1654135 L17.0129925,8.54323308 L8.79840738,16.8327068 L11.5645432,19.4548872 L0.5,30.7048872 L12.2351215,42.6315789 L23.2996647,31.4661654 L39.695618,48.1512169 L47.7287479,39.8326673 Z M62.9034949,55.3028726 L69.988684,62.5093985 L89.0163453,78.8345865 L78.0356245,90 L61.9417435,70.7142857 L54.7213634,63.4850041 L62.9034949,55.3028726 L62.9034949,55.3028726 Z" id="⚒-2" fill="#FFFFFF" sketch:type="MSShapeGroup"></path>
    </g>
</svg>
