<?xml version="1.0" encoding="utf-8"?>
<!-- Generator: Adobe Illustrator 17.0.0, SVG Export Plug-In . SVG Version: 6.00 Build 0)  -->
<!DOCTYPE svg PUBLIC "-//W3C//DTD SVG 1.1//EN" "http://www.w3.org/Graphics/SVG/1.1/DTD/svg11.dtd">
<svg version="1.1" id="Layer_1" xmlns="http://www.w3.org/2000/svg" xmlns:xlink="http://www.w3.org/1999/xlink" x="0px" y="0px"
	 width="305.257px" height="200px" viewBox="-52.453 0 305.257 200" enable-background="new -52.453 0 305.257 200"
	 xml:space="preserve">
<path fill="#4FB5C6" d="M125.455,58.056c1.726,6.212,2.761,13.805,2.761,22.605c0,27.092-5.349,44.175-18.809,54.529V55.812
	C114.929,55.985,120.451,56.503,125.455,58.056z M-52.453,144.162v13.632l30.888,30.888c23.813,0,60.741-0.863,81.793-0.863
	c21.052,0,57.98,0.863,79.032,0.863c60.051,0.345,113.544-22.605,113.544-77.134c0-22.95-10.526-45.728-31.233-65.917
	C198.275,23.026,163.246,12.845,102.16,12.5c-20.189,0-55.391,0.863-75.581,0.863S-28.812,12.5-52.453,12.5v13.632l30.888,30.888
	c4.314,0,7.938,0.173,11.389,0.69c1.208,6.385,1.726,13.977,1.726,22.95C-8.45,126.389-19.322,144.162-52.453,144.162z"/>
<path fill="#FFFFFF" d="M130.46,80.661c0,46.591-17.083,66.953-53.493,66.953V23.371C105.439,23.371,130.46,35.623,130.46,80.661z
	 M219.155,81.351c0-50.732-41.414-65.055-116.995-65.4c-20.189,0-55.391,0.863-75.581,0.863s-55.391-0.863-75.581-0.863v7.42
	c32.269,0,44.003,15.358,44.003,57.29c0,48.489-12.252,66.953-44.003,66.953v7.42c21.052,0,57.98-0.863,79.032-0.863
	c21.052,0,57.98,0.863,79.032,0.863C167.042,155.379,219.155,133.981,219.155,81.351z"/>
<path opacity="0.4" fill="#4FB5C6" d="M115.965,142.264v0.863l8.455,3.796l6.385-2.071l8.628-0.518l8.283,0.863l13.632-2.416v-1.208
	l-13.632-1.898l-8.283,0.863l-8.628-0.518l-6.385-2.071L115.965,142.264z M-16.733,142.092v0.863l7.938,2.416l5.694,1.898
	l10.181-2.071l10.181-0.345l9.318-0.69l7.593,1.208l7.247-1.726l7.765,0.173l10.871,0.863l10.526-2.071v-0.345l-10.526-2.071
	l-10.871,0.863l-7.765,0.173l-7.247-1.726l-7.593,1.208l-9.318-0.69L7.08,139.676l-10.181-2.071l-5.694,1.898L-16.733,142.092z
	 M125.11,131.738v1.035l5.867,2.416l7.075-0.518l11.389-0.518l6.385-0.69l11.044,1.898l6.385-2.243l10.871-0.863v-0.863
	l-10.871-0.345l-6.385-2.243l-11.044,1.898l-6.385-0.69l-11.389-0.518l-7.075-0.518L125.11,131.738z M-7.76,131.911v0.69
	l7.938,2.416l9.491,0.173l7.247,1.035l9.318-2.243l6.385,0.518l8.455-0.518l11.561,2.588l8.11-3.451l9.836-0.69v-0.69l-9.836-0.69
	l-8.11-3.451l-11.561,2.588l-8.455-0.518l-6.385,0.518l-9.318-2.243l-7.247,1.035l-9.491,0.173L-7.76,131.911z M130.287,121.385
	v1.035l4.314,2.243h8.628h10.354l9.836,0.863l7.247-2.071l5.867-0.518h11.044l9.318-1.035v-1.035l-9.318-0.345h-11.044l-5.867-0.518
	l-7.247-2.071l-9.836,0.863h-10.354h-8.628L130.287,121.385z M-3.446,121.557v0.69l4.314,1.38l9.836,1.553l8.283-0.69l9.663-1.035
	l8.11,0.173l6.385-1.208l7.593,0.173l10.354,1.035l9.491-1.726v-0.345l-9.491-1.726l-10.354,1.035l-7.593,0.173l-6.385-1.208
	l-8.11,0.173l-9.663-1.035l-8.283-0.69l-9.836,1.553L-3.446,121.557z M133.566,111.204v0.863l4.487,1.553l10.871,2.071l8.801-0.518
	l10.871-1.553l8.973-0.173l9.146-0.345l5.177,1.553l13.287-3.106v-1.035l-13.287-2.416l-5.177,1.553l-9.146-0.345l-8.973-0.173
	l-10.871-1.553l-8.801-0.518l-10.871,2.071L133.566,111.204z M-1.375,111.204v0.345l7.42,3.624L15.19,115h7.42l9.491-1.035
	l7.075,1.381l12.942-3.106l7.765,0.863l10.699-1.381v-0.69l-10.699-1.38l-7.765,0.863l-12.942-3.106l-7.075,1.381l-9.491-1.035
	h-7.42l-9.146-0.173L-1.375,111.204z M135.464,100.85v0.345l5.522,3.969h10.526l5.522-1.553l8.11,1.208l10.008-1.035l7.42,1.38
	l10.699-2.071l7.592,0.518l8.973-2.416v-0.69l-8.973-2.071l-7.592,0.518l-10.699-2.071l-7.42,1.38l-10.008-1.035l-8.11,1.208
	l-5.522-1.553h-10.526L135.464,100.85z M-0.168,100.85v0.863l5.867,2.934l8.973-1.035l7.42,1.208l9.318-2.071l9.663,1.38
	l10.699-1.726l6.73,1.208l12.079-2.243v-0.69l-12.079-2.243l-6.73,1.208l-10.699-1.726l-9.663,1.38l-9.318-2.071l-7.42,1.208
	l-8.973-1.035L-0.168,100.85z M136.499,90.324v0.69l5.694,1.553l10.871,1.726l6.212,0.69l10.699-1.898l5.522-0.863l7.42-0.518
	l10.354,0.173l10.353,0.173l8.801-1.208v-0.69l-8.801-0.863l-10.353,0.173l-10.354,0.173l-7.42-0.518l-5.522-0.863l-10.699-1.898
	l-6.212,0.69l-10.871,1.725L136.499,90.324z M0.35,90.324v0.69l7.592,3.279l6.73-1.208l9.491-0.863l9.146,0.863l6.73-0.863
	l12.769,3.451l7.42-1.208l10.354-3.624v-0.345l-10.354-3.624l-7.42-1.208l-12.769,3.451l-6.73-0.863l-9.146,0.863l-9.491-0.863
	l-6.73-1.208L0.35,90.324z M136.844,79.971v0.69l8.283,2.934l6.385,0.345l8.11,0.173l9.491-1.38l9.491-0.69h6.212l7.593-0.863
	l10.871,1.38l10.354-1.726v-0.69l-10.354-2.071l-10.871,1.38l-7.593-0.863h-6.212l-9.491-0.69l-9.491-1.38l-8.11,0.173l-6.385,0.345
	L136.844,79.971z M0.523,79.971v0.69l8.628,1.898l4.659,2.588l10.353-2.933l10.354-0.345l8.455,0.345l6.04-0.69l9.836,0.173
	l11.734-1.035v-0.69l-11.734-1.035l-9.836,0.173l-6.04-0.69l-8.455,0.345l-10.354-0.345L13.81,75.484l-4.659,2.588L0.523,79.971z
	 M136.499,69.444v0.69l4.487,2.416l11.389,0.173l7.42,0.173l8.973-1.035l6.73,0.69l10.354-1.208h6.04l10.353,0.173l10.008-0.863
	v-1.381l-10.008-0.863l-10.353,0.173h-6.04l-10.354-1.208l-6.73,0.69l-8.973-1.035l-7.42,0.173l-11.389,0.173L136.499,69.444z
	 M0.35,69.79v0.345l6.04,2.416l11.044,1.035l7.075-1.381h8.11l10.699,0.345l9.146-1.726l5.522,1.38l12.597-1.898v-0.69
	l-12.597-1.898l-5.522,1.38l-9.146-1.726l-10.699,0.345h-8.11l-7.075-1.381L6.39,67.374L0.35,69.79z M134.774,58.918v1.035
	l5.177,1.726l9.146,1.553l8.973-0.518l7.075-0.863l9.491,2.071l5.694-2.071l8.628,1.38l7.765-1.898l12.252-0.863v-1.035
	l-12.252-1.553l-7.765-1.898l-8.628,1.38l-5.694-2.071l-9.491,2.071l-7.075-0.863l-8.973-0.518l-9.146,1.553L134.774,58.918z
	 M-0.34,59.264v0.69l7.938,3.279l6.73,0.173l9.836-0.173l7.938-1.553l10.181-0.69l7.075-0.345l11.044,0.345l10.181-1.035v-0.69
	l-10.181-1.035l-11.044,0.345l-7.075-0.345l-10.181-0.69l-7.938-1.553l-9.836-0.173l-6.73,0.173L-0.34,59.264z M131.668,48.565V49.6
	l6.902,3.969l10.526-2.071l6.212,1.035l8.8-0.863l8.801,1.035l9.146-1.898h10.008l10.526-1.035V48.91l-10.526-1.208h-10.008
	l-9.146-1.898l-8.801,1.035l-8.8-0.863l-6.212,1.035l-10.526-2.071L131.668,48.565z M-1.893,48.565V49.6l8.628,3.969l8.628,0.173
	l7.247-1.208l8.11-1.381l11.906-0.69l7.938,2.934l8.801-2.588L70.582,49.6v-0.69l-11.216-1.208l-8.801-2.588l-7.938,2.934
	l-11.906-0.69l-8.11-1.381l-7.247-1.208l-8.628,0.173L-1.893,48.565z M126.491,38.384v0.863l8.455,2.243l8.801-0.518l8.283,0.518
	l11.044-0.345l5.695-1.208l11.561,0.69l10.354-0.863v-1.035l-10.354-1.553l-11.561,0.69l-5.695-1.208l-11.044-0.345l-8.283,0.518
	l-8.801-0.518L126.491,38.384z M-5.517,38.211v0.863l7.593,2.761l5.177-0.518l10.181,0.518l6.73-0.173l11.389-1.208l6.385,0.345
	l8.283-0.69l9.491,0.69l10.871-1.726v-0.345L59.71,37.003l-9.491,0.69l-8.283-0.69l-6.385,0.345l-11.389-1.208l-6.73-0.173
	L7.253,36.486l-5.177-0.518L-5.517,38.211z M117.345,27.858v0.863l8.283,2.071l6.73,2.071l13.632-2.243l7.593,0.69l11.734-1.898
	v-1.208h-11.734l-7.593-1.726l-13.632-2.243l-6.73,2.071L117.345,27.858z M-13.627,28.03v0.69l7.247,2.761l6.04,0.518l11.216-0.863
	l9.146-0.173l8.11-0.69h4.487l11.734-0.69l7.075,0.345l9.663,2.761l9.491-3.796v-0.69l-9.491-3.796l-9.663,2.761l-7.075,0.345
	l-11.734-0.69h-4.487l-8.11-0.69l-9.146-0.173L-0.34,25.097l-6.04,0.518L-13.627,28.03z"/>
</svg>
