<?xml version="1.0" encoding="utf-8"?>
<!-- Generator: Adobe Illustrator 17.0.0, SVG Export Plug-In . SVG Version: 6.00 Build 0)  -->
<!DOCTYPE svg PUBLIC "-//W3C//DTD SVG 1.1//EN" "http://www.w3.org/Graphics/SVG/1.1/DTD/svg11.dtd">
<svg version="1.1" id="Layer_1" xmlns="http://www.w3.org/2000/svg" xmlns:xlink="http://www.w3.org/1999/xlink" x="0px" y="0px"
	 width="200px" height="200px" viewBox="0 0 200 200" enable-background="new 0 0 200 200" xml:space="preserve">
<circle fill="#4fb5c6" cx="100.529" cy="99.539" r="96.3"/>
<path fill="#FFFFFF" d="M94.558,55.005c0,0-0.003,0.13-0.008,0.386c-0.001,0.236-0.004,0.589-0.006,1.055
	c-0.004,0.956,0.016,2.41,0.062,4.333c0.041,1.923,0.119,4.314,0.21,7.136c0.087,2.83,0.188,6.083,0.3,9.726
	c0.095,3.651,0.201,7.699,0.268,12.114c0.056,4.415,0.092,9.195,0.052,14.312c-0.026,2.558-0.07,5.201-0.141,7.923
	c-0.077,2.723-0.179,5.526-0.321,8.406c-0.298,5.76-0.739,11.828-1.564,18.178c-0.407,3.176-0.943,6.422-1.733,9.715
	c-0.795,3.293-1.808,6.64-3.298,9.985c-0.751,1.671-1.618,3.344-2.739,4.975c-0.562,0.814-1.193,1.615-1.922,2.38
	c-0.728,0.762-1.572,1.486-2.548,2.095c-0.489,0.302-1.011,0.573-1.563,0.798c-0.272,0.118-0.558,0.212-0.842,0.305
	c-0.142,0.047-0.29,0.081-0.435,0.12l-0.218,0.056c-0.142,0.036-0.132,0.029-0.205,0.045c-0.988,0.207-2.016,0.336-3.025,0.389
	c-2.027,0.103-4.052-0.084-6.044-0.553c-1.988-0.472-3.951-1.247-5.758-2.426c-1.802-1.172-3.451-2.788-4.589-4.813
	c-0.568-1.008-1-2.107-1.275-3.238c-0.272-1.133-0.389-2.293-0.371-3.431c-0.004-0.008,0.006-0.232,0.009-0.27l0.008-0.174
	l0.016-0.349c0.026-0.296,0.06-0.641,0.102-0.945c0.094-0.589,0.206-1.185,0.395-1.782c0.351-1.193,0.952-2.372,1.748-3.398
	c0.801-1.02,1.78-1.879,2.813-2.532c1.034-0.666,2.114-1.146,3.186-1.528c1.075-0.382,2.148-0.644,3.212-0.845
	c1.064-0.199,2.121-0.334,3.167-0.419c4.186-0.339,8.25-0.049,12.263,0.382c2.004,0.219,3.997,0.501,5.952,0.772
	c0.975,0.135,1.936,0.273,2.841,0.371l0.737,0.084l0.368,0.042l0.352,0.036c0.471,0.046,0.936,0.098,1.417,0.138
	c3.819,0.348,7.652,0.519,11.43,0.378c3.776-0.134,7.501-0.576,11.033-1.446c3.53-0.876,6.861-2.176,9.829-4.002
	c2.981-1.805,5.593-4.137,7.85-6.878c2.259-2.739,4.154-5.895,5.746-9.294c1.597-3.399,2.885-7.042,3.972-10.797l0.191-0.655
	l0.206-0.753l0.051-0.188l0.041-0.164l0.08-0.32c0.053-0.217,0.109-0.416,0.16-0.65c0.216-0.908,0.409-1.824,0.58-2.745
	c0.334-1.845,0.585-3.711,0.736-5.595c0.618-7.536-0.217-15.309-2.288-22.804c-2.068-7.497-5.39-14.73-9.832-21.173
	c-4.447-6.429-10.05-12.071-16.55-16.18c-3.244-2.054-6.706-3.717-10.293-4.9c-3.582-1.196-7.303-1.864-10.999-1.974
	c-1.848-0.058-3.689,0.032-5.503,0.245c-1.813,0.223-3.6,0.568-5.344,1.034c-1.744,0.468-3.443,1.055-5.094,1.731
	c-1.648,0.686-3.246,1.461-4.791,2.313c-3.09,1.707-5.968,3.713-8.662,5.886l-0.505,0.408l-0.252,0.204l-0.228,0.193l-0.525,0.442
	c-0.174,0.147-0.357,0.298-0.503,0.431c-0.311,0.276-0.622,0.552-0.933,0.827c-0.313,0.288-0.631,0.57-0.938,0.861
	c-1.238,1.153-2.411,2.343-3.517,3.563c-1.104,1.221-2.14,2.474-3.095,3.759c-0.96,1.282-1.832,2.602-2.598,3.958
	c-1.556,2.698-2.716,5.525-3.453,8.398c-0.734,2.872-1.045,5.792-0.927,8.661c0.107,2.87,0.641,5.685,1.509,8.354
	c1.752,5.344,4.887,10.05,8.672,13.703c3.791,3.667,8.229,6.283,12.694,7.841c4.474,1.555,8.964,2.094,13.052,1.818
	c2.045-0.161,3.982-0.559,5.77-1.121c0.448-0.138,0.886-0.287,1.314-0.447c0.432-0.147,0.847-0.329,1.261-0.492
	c0.819-0.353,1.609-0.705,2.36-1.09c3.007-1.527,5.488-3.197,7.624-4.68c1.064-0.75,2.032-1.47,2.92-2.135
	c0.442-0.336,0.876-0.641,1.286-0.94c0.416-0.29,0.812-0.567,1.192-0.825c1.524-1.025,2.79-1.757,3.694-2.22
	c0.451-0.232,0.802-0.405,1.053-0.507c0.244-0.109,0.378-0.155,0.378-0.155l0.108-0.037c1.319-0.458,2.76,0.239,3.219,1.559
	c0.188,0.541,0.181,1.103,0.017,1.609c0,0-0.046,0.141-0.156,0.403c-0.105,0.267-0.277,0.652-0.532,1.142
	c-0.518,0.968-1.373,2.353-2.784,3.905c-0.703,0.777-1.553,1.586-2.555,2.4c-1.013,0.8-2.159,1.629-3.456,2.444
	c-2.592,1.623-5.819,3.169-9.628,4.246c-0.946,0.282-1.933,0.518-2.943,0.745c-1.017,0.209-2.056,0.413-3.126,0.575
	c-2.14,0.329-4.385,0.549-6.727,0.647c-2.341,0.086-4.788,0.067-7.301-0.251c-2.511-0.309-5.091-0.845-7.673-1.672
	c-5.164-1.637-10.373-4.383-15.03-8.375c-1.167-0.993-2.291-2.071-3.371-3.221c-1.079-1.151-2.115-2.375-3.081-3.683
	c-0.965-1.307-1.872-2.688-2.696-4.144c-0.819-1.459-1.566-2.987-2.21-4.584c-1.288-3.192-2.181-6.661-2.512-10.28
	c-0.345-3.615-0.116-7.372,0.696-11.057c0.409-1.841,0.962-3.663,1.647-5.444c0.69-1.779,1.514-3.513,2.449-5.191
	c1.883-3.35,4.215-6.464,6.89-9.257c1.335-1.399,2.756-2.718,4.238-3.964c0.37-0.313,0.75-0.612,1.126-0.918
	c0.377-0.306,0.783-0.61,1.177-0.911c0.204-0.158,0.384-0.286,0.569-0.421l0.556-0.403l0.314-0.228l0.298-0.208l0.597-0.417
	c3.211-2.193,6.677-4.134,10.37-5.674c1.844-0.774,3.739-1.454,5.675-2.028c1.939-0.569,3.918-1.026,5.922-1.38
	c4.013-0.684,8.13-0.914,12.235-0.632c4.106,0.27,8.197,1.036,12.171,2.256c3.973,1.225,7.823,2.913,11.474,4.989
	c3.652,2.076,7.112,4.528,10.354,7.27c1.611,1.382,3.183,2.822,4.684,4.341c1.504,1.517,2.947,3.102,4.333,4.745
	c5.527,6.581,10.078,14.146,13.222,22.409c0.793,2.063,1.47,4.177,2.076,6.319c0.595,2.146,1.085,4.328,1.475,6.537
	c0.777,4.418,1.108,8.954,0.922,13.505c-0.084,2.275-0.317,4.552-0.666,6.816c-0.184,1.13-0.387,2.26-0.636,3.381
	c-0.056,0.275-0.133,0.58-0.2,0.869l-0.104,0.439l-0.052,0.215l-0.049,0.189l-0.194,0.756l-0.121,0.449l-0.111,0.399
	c-1.19,4.248-2.688,8.471-4.663,12.567c-1.979,4.085-4.438,8.061-7.554,11.601c-0.77,0.889-1.593,1.74-2.444,2.563
	c-0.846,0.828-1.746,1.606-2.667,2.354c-0.924,0.746-1.888,1.443-2.87,2.107c-0.988,0.657-2.004,1.266-3.037,1.838
	c-4.158,2.252-8.63,3.689-13.052,4.464c-1.106,0.203-2.211,0.351-3.312,0.483c-1.101,0.117-2.199,0.212-3.29,0.268
	c-2.183,0.124-4.341,0.121-6.472,0.036c-4.263-0.17-8.407-0.689-12.451-1.38c-0.503-0.083-1.018-0.18-1.527-0.272l-0.382-0.069
	l-0.365-0.071l-0.728-0.142c-1.049-0.199-2.027-0.42-2.99-0.63c-1.92-0.426-3.79-0.825-5.65-1.172
	c-1.858-0.347-3.701-0.64-5.522-0.836c-1.82-0.196-3.619-0.315-5.357-0.277c-1.732,0.04-3.414,0.224-4.882,0.641
	c-1.477,0.411-2.662,1.083-3.425,1.95c-0.379,0.442-0.683,0.938-0.892,1.53c-0.114,0.289-0.189,0.61-0.257,0.938l-0.072,0.441
	l-0.05,0.6c-0.082,1.441,0.181,2.797,0.802,4.008c0.613,1.215,1.608,2.269,2.813,3.113c1.213,0.837,2.634,1.456,4.119,1.837
	c1.487,0.377,3.044,0.504,4.54,0.371c0.752-0.068,1.471-0.191,2.186-0.396c0.033-0.01,0.151-0.038,0.114-0.034l0.097-0.034
	c0.064-0.024,0.131-0.04,0.194-0.068c0.127-0.055,0.255-0.103,0.378-0.171c0.251-0.118,0.489-0.281,0.725-0.457
	c0.471-0.358,0.921-0.807,1.327-1.346c0.411-0.531,0.784-1.133,1.122-1.775c0.677-1.286,1.208-2.727,1.653-4.202
	c0.88-2.966,1.434-6.079,1.903-9.159c0.459-3.087,0.826-6.161,1.146-9.19c0.309-3.032,0.524-6.025,0.693-8.96
	c0.17-2.935,0.283-5.813,0.362-8.624c0.083-2.811,0.129-5.555,0.151-8.226c0.026-2.671,0.03-5.268,0.016-7.787
	c-0.016-5.038-0.09-9.76-0.189-14.131c-0.089-4.371-0.189-8.392-0.292-12.028c-0.092-3.644-0.175-6.898-0.246-9.728
	c-0.064-2.839-0.099-5.264-0.117-7.246c-0.012-1.982,0.005-3.522,0.03-4.584c0.008-0.267,0.015-0.502,0.021-0.704
	c0.008-0.21,0.015-0.386,0.021-0.528c0.012-0.256,0.019-0.386,0.019-0.386c0.115-2.4,2.154-4.253,4.555-4.138
	c2.357,0.113,4.186,2.081,4.142,4.425L94.558,55.005z"/>
</svg>
