<?xml version="1.0" encoding="utf-8"?>
<!-- Generator: Adobe Illustrator 17.0.0, SVG Export Plug-In . SVG Version: 6.00 Build 0)  -->
<!DOCTYPE svg PUBLIC "-//W3C//DTD SVG 1.1//EN" "http://www.w3.org/Graphics/SVG/1.1/DTD/svg11.dtd">
<svg version="1.1" id="Layer_1" xmlns="http://www.w3.org/2000/svg" xmlns:xlink="http://www.w3.org/1999/xlink" x="0px" y="0px"
	 width="255.338px" height="154.413px" viewBox="0 0 255.338 154.413" enable-background="new 0 0 255.338 154.413"
	 xml:space="preserve">
<g>
	<path fill="#4FB5C6" d="M211.22,96.436c-7.418,0-13.079-0.781-20.301-2.734c3.905,3.905,7.222,10.346,7.222,19.521
		c0,13.86-11.127,24.402-24.402,24.402c-12.298,0-24.01-10.152-24.01-25.574c0-2.147,0.196-4.489,0.585-6.832
		c3.32,4.49,7.81,8.784,14.252,8.784c6.441,0,10.736-3.709,10.736-11.518c0-14.641-22.448-37.09-62.076-37.09
		c-34.163,0-52.122,16.984-54.465,38.652c9.565-2.928,19.716-8.394,41.579-8.394c21.474,0,34.357,9.565,34.357,27.721
		c0,15.226-15.422,31.038-40.213,31.038c-28.111,0-44.507-15.616-47.242-40.409c-2.928,0.585-6.245,0.781-10.151,0.781
		C13.665,114.786,0,106.782,0,86.48c0-20.693,16.008-34.162,27.525-39.433c0.392-0.195,0.781-0.195,1.366-0.195
		c4.49,0,7.81,11.322,7.81,18.74c0,3.709-0.781,6.441-2.343,6.637c-18.35,1.757-25.376,8.394-25.376,16.984
		c0,11.126,7.026,19.326,28.109,19.326c3.709,0,7.222-0.585,9.761-1.366c0-43.924,40.213-71.643,78.671-71.643
		c26.353,0,45.484,3.904,58.174,3.904c10.932,0,18.35-2.734,18.35-12.299c0-7.222-5.66-11.126-12.885-11.126
		c-2.536,0-5.464,0.585-8.393,1.562C186.233,8.199,193.262,0,204.582,0c13.86,0,23.817,10.152,23.817,23.427
		c0,12.298-8.199,24.597-24.791,27.719c27.524,8.784,38.847,28.892,51.73,38.456C243.429,90.189,228.985,96.436,211.22,96.436z
		 M100.339,101.901c-19.52,0-31.039,6.247-41.775,8.98c0.392,22.839,10.932,37.285,35.919,37.285
		c21.278,0,33.187-13.665,33.187-24.791C127.67,111.076,119.47,101.901,100.339,101.901z"/>
</g>
</svg>
