<?xml version="1.0" encoding="utf-8"?>
<!-- Generator: Adobe Illustrator 17.0.0, SVG Export Plug-In . SVG Version: 6.00 Build 0)  -->
<!DOCTYPE svg PUBLIC "-//W3C//DTD SVG 1.1//EN" "http://www.w3.org/Graphics/SVG/1.1/DTD/svg11.dtd">
<svg version="1.1" id="Layer_1" xmlns="http://www.w3.org/2000/svg" xmlns:xlink="http://www.w3.org/1999/xlink" x="0px" y="0px"
	 width="219.499px" height="56px" viewBox="-53.75 0 219.499 56" enable-background="new -53.75 0 219.499 56" xml:space="preserve"
	>
<g>
	<path fill="#C4C9CB" d="M-7.711,30.511l3.865,9.783l-2.549,1.641l-7.972-6.574l-8.057,6.574l-2.465-1.641l3.863-9.783l-8.795-5.671
		l0.904-2.878l10.522,0.575l2.384-10.027h3.204l2.466,10.027l10.521-0.575l0.903,2.878L-7.711,30.511z"/>
	<path fill="#C4C9CB" d="M62.659,30.511l3.862,9.783l-2.547,1.641L56,35.362l-8.055,6.574l-2.466-1.641l3.865-9.783l-8.795-5.671
		l0.903-2.878l10.521,0.575l2.384-10.027h3.207l2.464,10.027l10.521-0.575l0.905,2.878L62.659,30.511z"/>
	<path fill="#C4C9CB" d="M133.026,30.511l3.862,9.783l-2.547,1.641l-7.974-6.574l-8.055,6.574l-2.466-1.641l3.865-9.783
		l-8.795-5.671l0.903-2.878l10.521,0.575l2.384-10.027h3.207l2.464,10.027l10.521-0.575l0.905,2.878L133.026,30.511z"/>
</g>
</svg>
