<?xml version="1.0" encoding="utf-8"?>
<!-- Generator: Adobe Illustrator 17.0.0, SVG Export Plug-In . SVG Version: 6.00 Build 0)  -->
<!DOCTYPE svg PUBLIC "-//W3C//DTD SVG 1.1//EN" "http://www.w3.org/Graphics/SVG/1.1/DTD/svg11.dtd">
<svg version="1.1" id="Layer_1" xmlns="http://www.w3.org/2000/svg" xmlns:xlink="http://www.w3.org/1999/xlink" x="0px" y="0px"
	 width="1190.55px" height="675.766px" viewBox="0 0 1190.55 675.766" enable-background="new 0 0 1190.55 675.766"
	 xml:space="preserve">
<g opacity="0.15" enable-background="new    ">
	<path fill="#C4C9CC" d="M373.608,675.766"/>
</g>
<g opacity="0.15" enable-background="new    ">
	<path fill="#C4C9CC" d="M383.61,675.766"/>
</g>
<g opacity="0.15" enable-background="new    ">
	<path fill="#C4C9CC" d="M513.539,675.765"/>
</g>
<g opacity="0.15" enable-background="new    ">
	<path fill="#C4C9CC" d="M523.542,675.766"/>
</g>
<g opacity="0.15" enable-background="new    ">
	<path fill="#C4C9CC" d="M576.122,675.766"/>
</g>
<g opacity="0.15" enable-background="new    ">
	<path fill="#C4C9CC" d="M586.168,675.765"/>
</g>
<g>
	<g>
		<g>
			<g>
				<path fill="none" stroke="#4FB5C6" stroke-width="4" stroke-miterlimit="10" d="M768.619,120.997
					c1.803,0.863,3.598,1.741,5.387,2.636l-0.986,5.918"/>
				<polyline fill="none" stroke="#4FB5C6" stroke-width="4" stroke-miterlimit="10" stroke-dasharray="11.7375,11.7375" points="
					771.09,141.129 724.443,421.01 719.893,553.871 				"/>
				<polyline fill="none" stroke="#4FB5C6" stroke-width="4" stroke-miterlimit="10" points="719.692,559.737 719.487,565.733 
					713.487,565.733 				"/>
				
					<line fill="none" stroke="#4FB5C6" stroke-width="4" stroke-miterlimit="10" stroke-dasharray="9.2168,9.2168" x1="704.27" y1="565.733" x2="690.445" y2="565.733"/>
				<polyline fill="none" stroke="#4FB5C6" stroke-width="4" stroke-miterlimit="10" points="685.836,565.733 679.836,565.733 
					679.836,559.733 				"/>
				
					<line fill="none" stroke="#4FB5C6" stroke-width="4" stroke-miterlimit="10" stroke-dasharray="11.0023,11.0023" x1="679.836" y1="548.731" x2="679.836" y2="466.214"/>
				<path fill="none" stroke="#4FB5C6" stroke-width="4" stroke-miterlimit="10" d="M679.836,460.713v-6
					c-1.366,1.48-2.725,2.947-4.077,4.403"/>
				<path fill="none" stroke="#4FB5C6" stroke-width="4" stroke-miterlimit="10" stroke-dasharray="11.9473,11.9473" d="
					M667.598,467.841c-65.122,69.109-113.728,107.805-163.214,107.805c-71.37,0-113.994-57.493-113.994-154.636
					c0-182.392,115.977-328.107,259.709-328.107c41.276,0,78.49,9.747,113.114,25.564"/>
			</g>
			<g>
				<path fill="none" stroke="#4FB5C6" stroke-width="4" stroke-miterlimit="10" d="M724.441,155.323l0.994-5.917
					c-1.873-0.792-3.72-1.553-5.548-2.283"/>
				<path fill="none" stroke="#4FB5C6" stroke-width="4" stroke-miterlimit="10" stroke-dasharray="12.0462,12.0462" d="
					M708.588,142.945c-19.031-6.421-37.761-9.4-65.428-9.4c-108.047,0-206.182,114.985-206.182,284.489
					c0,78.31,28.747,117.96,71.371,117.96c40.642,0,82.275-35.685,174.462-132.828l40.632-241.901"/>
			</g>
		</g>
	</g>
</g>
<g>
	<g>
		<g>
			<g>
				<path fill="none" stroke="#4FB5C6" stroke-width="4" stroke-miterlimit="10" d="M823.923,103.642
					c1.873,0.707,3.74,1.423,5.599,2.147l-0.953,5.924"/>
				<polyline fill="none" stroke="#4FB5C6" stroke-width="4" stroke-miterlimit="10" stroke-dasharray="12.2243,12.2243" points="
					826.628,123.783 775.004,444.799 775.004,553.621 				"/>
				<polyline fill="none" stroke="#4FB5C6" stroke-width="4" stroke-miterlimit="10" points="775.004,559.733 775.004,565.733 
					769.004,565.733 				"/>
				
					<line fill="none" stroke="#4FB5C6" stroke-width="4" stroke-miterlimit="10" stroke-dasharray="11.5821,11.5821" x1="757.422" y1="565.733" x2="624.227" y2="565.733"/>
				<polyline fill="none" stroke="#4FB5C6" stroke-width="4" stroke-miterlimit="10" points="618.436,565.733 612.436,565.733 
					612.031,559.747 				"/>
				
					<line fill="none" stroke="#4FB5C6" stroke-width="4" stroke-miterlimit="10" stroke-dasharray="12.3042,12.3042" x1="611.202" y1="547.471" x2="608.299" y2="504.504"/>
				<path fill="none" stroke="#4FB5C6" stroke-width="4" stroke-miterlimit="10" d="M607.884,498.366l-0.404-5.986
					c-1.284,1.541-2.575,3.07-3.872,4.586"/>
				<path fill="none" stroke="#4FB5C6" stroke-width="4" stroke-miterlimit="10" stroke-dasharray="11.9988,11.9988" d="
					M595.679,505.972c-36.831,40.626-78.583,69.675-125.984,69.675c-78.309,0-126.881-65.423-126.881-170.497
					c0-229.971,144.724-336.036,298.369-336.036c60.342,0,121.554,12.172,177.12,32.444"/>
			</g>
			<g>
				<path fill="none" stroke="#4FB5C6" stroke-width="4" stroke-miterlimit="10" d="M643.197,211.83l0.96-5.923
					c-2.059-0.686-3.96-1.267-5.738-1.754"/>
				<path fill="none" stroke="#4FB5C6" stroke-width="4" stroke-miterlimit="10" stroke-dasharray="11.9195,11.9195" d="
					M626.7,202.053c-1.133-0.076-2.246-0.111-3.36-0.111c-55.51,0-107.055,64.43-107.055,166.53
					c0,35.685,14.869,55.512,37.668,55.512c19.825,0,34.695-8.922,60.467-34.695l27.824-171.579"/>
			</g>
		</g>
	</g>
</g>
</svg>
