<?xml version="1.0" encoding="utf-8"?>
<!-- Generator: Adobe Illustrator 17.0.0, SVG Export Plug-In . SVG Version: 6.00 Build 0)  -->
<!DOCTYPE svg PUBLIC "-//W3C//DTD SVG 1.1//EN" "http://www.w3.org/Graphics/SVG/1.1/DTD/svg11.dtd">
<svg version="1.1" id="Layer_1" xmlns="http://www.w3.org/2000/svg" xmlns:xlink="http://www.w3.org/1999/xlink" x="0px" y="0px"
	 width="997.13px" height="336.287px" viewBox="0 0 997.13 336.287" enable-background="new 0 0 997.13 336.287"
	 xml:space="preserve">
<g opacity="0.9" enable-background="new    ">
	<g>
		<polyline fill="none" stroke="#C4C9CA" stroke-width="4" stroke-linejoin="round" points="394.205,35.537 394.227,29.537 
			400.227,29.56 		"/>
		
			<line fill="none" stroke="#C4C9CA" stroke-width="4" stroke-linejoin="round" stroke-dasharray="12.851,12.851" x1="413.078" y1="29.608" x2="458.056" y2="29.776"/>
		<polyline fill="none" stroke="#C4C9CA" stroke-width="4" stroke-linejoin="round" points="464.482,29.801 470.482,29.823 
			470.459,35.823 		"/>
		
			<line fill="none" stroke="#C4C9CA" stroke-width="4" stroke-linejoin="round" stroke-dasharray="12.2049,12.2049" x1="470.414" y1="48.028" x2="469.521" y2="286.023"/>
		<polyline fill="none" stroke="#C4C9CA" stroke-width="4" stroke-linejoin="round" points="469.498,292.125 469.475,298.125 
			463.475,298.103 		"/>
		
			<line fill="none" stroke="#C4C9CA" stroke-width="4" stroke-linejoin="round" stroke-dasharray="12.851,12.851" x1="450.624" y1="298.054" x2="405.646" y2="297.886"/>
		<polyline fill="none" stroke="#C4C9CA" stroke-width="4" stroke-linejoin="round" points="399.221,297.862 393.221,297.839 
			393.243,291.839 		"/>
		
			<line fill="none" stroke="#C4C9CA" stroke-width="4" stroke-linejoin="round" stroke-dasharray="12.2049,12.2049" x1="393.289" y1="279.634" x2="394.182" y2="41.639"/>
	</g>
</g>
<rect x="339.755" y="28.626" transform="matrix(0.9999 -0.013 0.013 0.9999 -2.0867 4.535)" opacity="0.9" fill="#2D2F30" enable-background="new    " width="16.054" height="268.299"/>
<rect x="703.22" y="28.788" transform="matrix(-0.9998 0.0208 -0.0208 -0.9998 1425.7297 311.0584)" opacity="0.9" fill="#2D2F30" enable-background="new    " width="16.054" height="268.311"/>
<rect x="501.971" y="29.718" transform="matrix(1 -0.0028 0.0028 1 -0.4567 1.5129)" opacity="0.9" fill="#2D2F30" enable-background="new    " width="76.259" height="268.319"/>
<rect x="806.456" y="29.712" transform="matrix(1 -0.0028 0.0028 1 -0.4555 2.3655)" opacity="0.9" fill="#C4C9CA" enable-background="new    " width="76.259" height="268.319"/>
<rect x="110.493" y="29.726" transform="matrix(1 -0.0028 0.0028 1 -0.4583 0.4168)" opacity="0.9" fill="#C4C9CA" enable-background="new    " width="76.259" height="268.319"/>
<rect x="741.79" y="30.125" transform="matrix(0.9994 -0.0346 0.0346 0.9994 -5.2276 26.471)" opacity="0.9" fill="#C4C9CA" enable-background="new    " width="40.851" height="268.303"/>
<rect x="600.672" y="30.568" transform="matrix(0.9996 -0.0283 0.0283 0.9996 -4.4058 18.144)" opacity="0.9" fill="#E75A33" enable-background="new    " width="76.257" height="268.31"/>
<rect x="212.309" y="28.398" transform="matrix(0.9998 -0.0181 0.0181 0.9998 -2.8996 4.7255)" opacity="0.9" fill="#E75A33" enable-background="new    " width="94.581" height="268.284"/>
</svg>
