<svg xmlns="http://www.w3.org/2000/svg" width="997.13" height="336.287" viewBox="0 0 997.13 336.287"><g stroke="#C4C9CA" stroke-width="4" stroke-linejoin="round" fill="none" opacity=".9" enable-background="new"><polyline points="394.205,35.537 394.227,29.537 400.227,29.56"/><line stroke-dasharray="12.851,12.851" x1="413.078" y1="29.608" x2="458.056" y2="29.776"/><polyline points="464.482,29.801 470.482,29.823 470.459,35.823"/><line stroke-dasharray="12.2049,12.2049" x1="470.414" y1="48.028" x2="469.521" y2="286.023"/><polyline points="469.498,292.125 469.475,298.125 463.475,298.103"/><line stroke-dasharray="12.851,12.851" x1="450.624" y1="298.054" x2="405.646" y2="297.886"/><polyline points="399.221,297.862 393.221,297.839 393.243,291.839"/><line stroke-dasharray="12.2049,12.2049" x1="393.289" y1="279.634" x2="394.182" y2="41.639"/></g><rect x="339.755" y="28.626" transform="matrix(1 -.013 .013 1 -2.087 4.535)" opacity=".9" fill="#2D2F30" enable-background="new" width="16.054" height="268.299"/><rect x="703.22" y="28.788" transform="matrix(-1 .021 -.021 -1 1425.73 311.058)" opacity=".9" fill="#2D2F30" enable-background="new" width="16.054" height="268.311"/><rect x="501.971" y="29.718" transform="matrix(1 -.003 .003 1 -.457 1.513)" opacity=".9" fill="#2D2F30" enable-background="new" width="76.259" height="268.319"/><rect x="806.456" y="29.712" transform="matrix(1 -.003 .003 1 -.456 2.365)" opacity=".9" fill="#C4C9CA" enable-background="new" width="76.259" height="268.319"/><rect x="110.493" y="29.726" transform="matrix(1 -.003 .003 1 -.458 .417)" opacity=".9" fill="#C4C9CA" enable-background="new" width="76.259" height="268.319"/><rect x="741.79" y="30.125" transform="matrix(.999 -.035 .035 .999 -5.228 26.471)" opacity=".9" fill="#C4C9CA" enable-background="new" width="40.851" height="268.303"/><rect x="600.672" y="30.568" transform="matrix(1 -.028 .028 1 -4.406 18.144)" opacity=".9" fill="#4fb5c6" enable-background="new" width="76.257" height="268.31"/><rect x="212.309" y="28.398" transform="matrix(1 -.018 .018 1 -2.9 4.726)" opacity=".9" fill="#4fb5c6" enable-background="new" width="94.581" height="268.284"/></svg>