<svg xmlns="http://www.w3.org/2000/svg" width="997.13" height="336.287" viewBox="0 0 997.13 336.287"><g stroke="#C4C9CA" stroke-width="4" stroke-linejoin="round" fill="none" opacity=".9" enable-background="new"><polyline points="386.351,25.394 386.374,18.917 392.851,18.942"/><line stroke-dasharray="12.851,12.851" x1="406.723" y1="18.994" x2="455.272" y2="19.175"/><polyline points="462.209,19.202 468.685,19.226 468.66,25.702"/><line stroke-dasharray="12.2049,12.2049" x1="468.612" y1="38.877" x2="467.648" y2="295.772"/><polyline points="467.623,302.359 467.598,308.835 461.122,308.811"/><line stroke-dasharray="12.851,12.851" x1="447.25" y1="308.759" x2="398.7" y2="308.577"/><polyline points="391.765,308.551 385.289,308.527 385.312,302.05"/><line stroke-dasharray="12.2049,12.2049" x1="385.362" y1="288.876" x2="386.326" y2="31.98"/></g><rect x="329.73" y="21.172" transform="matrix(-1 .013 -.013 -1 678.917 327.532)" opacity=".9" fill="#2D2F30" enable-background="new" width="17.329" height="289.602"/><rect x="719.894" y="18.104" transform="matrix(1 -.021 .021 1 -3.231 15.189)" opacity=".9" fill="#2D2F30" enable-background="new" width="17.329" height="289.624"/><rect x="502.677" y="19.113" transform="matrix(-1 .003 -.003 -1 1088.127 326.331)" opacity=".9" fill="#2D2F30" enable-background="new" width="82.315" height="289.629"/><rect x="831.344" y="19.106" transform="matrix(-1 .003 -.003 -1 1745.459 325.398)" opacity=".9" fill="#C4C9CA" enable-background="new" width="82.315" height="289.629"/><rect x="72.552" y="13.724" transform="matrix(-1 .003 -.003 -1 227.863 316.758)" opacity=".9" fill="#C4C9CA" enable-background="new" width="82.315" height="289.629"/><rect x="761.538" y="19.552" transform="matrix(-.999 .035 -.035 -.999 1572.389 301.503)" opacity=".9" fill="#C4C9CA" enable-background="new" width="44.095" height="289.61"/><rect x="611.374" y="22.189" transform="matrix(-1 .028 -.028 -1 1309.525 315.462)" opacity=".9" fill="#4FB5C6" enable-background="new" width="82.313" height="289.618"/><rect x="192.16" y="19.846" transform="matrix(-1 .018 -.018 -1 489.348 324.841)" opacity=".9" fill="#4FB5C6" enable-background="new" width="102.089" height="289.579"/></svg>