<?xml version="1.0" encoding="utf-8"?>
<!-- Generator: Adobe Illustrator 16.0.0, SVG Export Plug-In . SVG Version: 6.00 Build 0)  -->
<!DOCTYPE svg PUBLIC "-//W3C//DTD SVG 1.1//EN" "http://www.w3.org/Graphics/SVG/1.1/DTD/svg11.dtd">
<svg version="1.1" id="Layer_1" xmlns="http://www.w3.org/2000/svg" xmlns:xlink="http://www.w3.org/1999/xlink" x="0px" y="0px"
	 width="600px" height="600px" viewBox="0 0 600 600" enable-background="new 0 0 600 600" xml:space="preserve">
<path fill-rule="evenodd" clip-rule="evenodd" fill="#d7d6d5" d="M553.986,328.769L452.091,226.938
	c0,0-49.165,50.785-107.697,112.038c27.404,25.988,54.924,51.912,79.395,74.651c46.945,43.625,84.911,73.544,84.911,73.544
	L446.432,549.4c0,0-27.75-35.587-73.593-84.857c-22.425-24.104-47.955-51.175-73.589-78.179
	c-25.635,27.003-51.163,54.071-73.591,78.179c-43.524,46.778-73.591,84.857-73.591,84.857l-62.269-62.229
	c0,0,38.319-30.247,84.912-73.544c24.469-22.737,51.988-48.661,79.395-74.651c-58.529-61.251-107.699-112.038-107.699-112.038
	l-67.93,67.887l-67.93-67.887l67.93-67.888l-11.322-11.314l39.625-39.602l11.322,11.315l67.93-67.888l67.93,67.888l-67.93,67.887
	c0,0,51.433,49.731,113.218,108.688c61.782-58.956,113.217-108.688,113.217-108.688l-67.932-67.887l67.932-67.888l67.929,67.888
	l11.321-11.315l39.627,39.602l-11.322,11.314c0,0,20.596,35.032,28.304,73.544C557.477,278.319,553.986,328.769,553.986,328.769z"/>
</svg>
