<?xml version="1.0" encoding="utf-8"?>
<!-- Generator: Adobe Illustrator 17.0.0, SVG Export Plug-In . SVG Version: 6.00 Build 0)  -->
<!DOCTYPE svg PUBLIC "-//W3C//DTD SVG 1.1//EN" "http://www.w3.org/Graphics/SVG/1.1/DTD/svg11.dtd">
<svg version="1.1" id="Layer_1" xmlns="http://www.w3.org/2000/svg" xmlns:xlink="http://www.w3.org/1999/xlink" x="0px" y="0px"
	 width="112px" height="56px" viewBox="0 0 112 56" enable-background="new 0 0 112 56" xml:space="preserve">
<path fill="#C4C9CB" d="M30.22,26.542c-3.025,0-6.123,2.177-6.123,4.85c0,1.015,0.347,2.103,1.314,2.772
	c0.471,0.371,0.471,0.914-0.075,1.509c-0.644,0.693-1.586,1.237-2.529,1.237c-1.141,0-2.653-1.063-2.653-3.117
	c0-1.138,0.744-3.588,3.719-5.815c3.123-2.375,5.801-3.167,8.876-3.364c6.495-5.173,11.75-6.112,15.568-6.112
	c4.166,0,7.883,1.336,9.768,2.078c1.687,0.643,8.231,3.366,12.868,5.394c4.858,2.004,9.048,3.218,11.924,3.218
	c2.307,0,5.629-0.818,5.629-3.638c0-1.039-0.422-1.758-0.993-2.177c-0.321-0.272-0.57-0.669-0.57-1.015
	c0-1.039,0.943-2.622,2.579-2.622c1.834,0,2.826,1.831,2.826,3.216c0,3.76-4.114,6.31-6.892,7.448
	C80.347,35.821,75.191,38,70.183,38c-3.669,0-7.189-0.991-11.85-2.673c-3.522-1.287-14.578-5.79-19.016-7.201
	c-4.09-1.262-6.421-1.584-9.049-1.584L30.22,26.542L30.22,26.542z M44.474,20.555c-3.396,0-6.619,1.707-8.206,4.232
	c1.934,0.024,4.86,0.446,9.693,2.201c4.834,1.634,13.76,5.444,16.882,6.508c3.472,1.138,6.794,2.078,10.09,2.078
	c3.694,0,6.991-1.212,8.726-4.33c-3.446,0.444-6.693-0.1-11.478-1.956c-3.669-1.41-13.784-6.037-17.206-7.2
	c-2.875-0.965-5.651-1.534-8.453-1.534C44.524,20.555,44.474,20.555,44.474,20.555z"/>
</svg>
