<?xml version="1.0" encoding="utf-8"?>
<!-- Generator: Adobe Illustrator 17.0.0, SVG Export Plug-In . SVG Version: 6.00 Build 0)  -->
<!DOCTYPE svg PUBLIC "-//W3C//DTD SVG 1.1//EN" "http://www.w3.org/Graphics/SVG/1.1/DTD/svg11.dtd">
<svg version="1.1" id="Layer_1" xmlns="http://www.w3.org/2000/svg" xmlns:xlink="http://www.w3.org/1999/xlink" x="0px" y="0px"
	 width="112px" height="56px" viewBox="0 0 112 56" enable-background="new 0 0 112 56" xml:space="preserve">
<g>
	<path fill="#C4C9CB" d="M38.876,45.669h-0.208c-7.693,0-13.965-1.629-18.886-4.228c-3.951,2.425-8.94,4.228-15.732,4.228H3.842
		c-0.139,0-0.277-0.208-0.277-0.485s0.139-0.485,0.277-0.485H4.05c4.332,0,7.589-2.911,10.95-6.411
		c-5.475-4.504-8.212-10.396-8.212-15.836c0-7,4.054-11.92,10.083-11.92c6.03,0,8.836,3.327,8.836,7.797s-3.673,7.936-8.663,7.936
		c-1.594,0-2.356-0.832-2.668-1.49c-0.035-0.139,0.104-0.347,0.346-0.45c0.243-0.104,0.485-0.069,0.555,0.069
		c0.208,0.416,0.728,0.763,1.767,0.763c1.525,0,2.183-2.01,2.738-5.025c0.312-1.732,1.524-2.529,2.737-2.529
		c0.832,0,1.456,0.242,2.044,0.728c0-3.916-2.356-6.688-7.693-6.688c-5.44,0-8.975,4.47-8.975,10.812
		c0,5.094,2.599,10.708,7.832,15.039c4.713-4.989,9.703-10.812,18.02-10.812c2.391,0,3.153,0.208,4.921,0.659l0.208,0.035
		c0.173,0,0.277,0.208,0.277,0.485c0,0.277-0.104,0.485-0.277,0.485h-0.208c-6.376,0-10.188,7.346-17.881,12.44
		c4.678,2.392,10.638,3.916,17.881,3.916h0.208c0.173,0,0.277,0.208,0.277,0.485S39.049,45.669,38.876,45.669z"/>
	<path fill="#C4C9CB" d="M73.534,45.669h-0.208c-8.871,0-16.217-1.04-21.831-2.98c-3.638,1.906-8.108,2.98-12.613,2.98h-0.208
		c-0.173,0-0.277-0.208-0.277-0.485s0.104-0.485,0.277-0.485h0.208c3.985,0,8.005-0.901,11.332-2.495
		c-7.485-2.979-11.54-7.831-11.54-14.312c0-11.02,7.346-17.361,17.604-17.361c10.292,0,17.049,7.035,17.049,16.079
		c0,5.545-4.989,12.44-10.915,13.861c-0.174,0.034-0.347-0.069-0.485-0.312c-0.104-0.243-0.104-0.485,0.035-0.555
		c3.43-1.906,4.92-5.232,4.92-10.257c0-7.728-3.708-13.758-13.688-13.758c-8.663,0-13.411,5.406-13.411,12.302
		c0,6.237,4.054,10.881,11.609,13.688c4.262-2.392,7.208-5.995,7.208-10.431c-1.698,1.316-4.297,0.901-4.783-1.802
		c-0.554-3.015-1.213-5.025-2.737-5.025c-1.04,0-1.56,0.346-1.768,0.762c-0.069,0.139-0.312,0.173-0.554,0.069
		s-0.416-0.312-0.347-0.451c0.312-0.693,1.04-1.49,2.668-1.49c4.99,0,8.628,3.465,8.628,7.936c0,4.539-2.842,8.316-7.035,10.881
		c5.372,1.732,12.302,2.668,20.653,2.668h0.208c0.139,0,0.277,0.208,0.277,0.485S73.673,45.669,73.534,45.669z"/>
	<path fill="#C4C9CB" d="M108.158,45.669h-0.208c-6.792,0-11.782-1.803-15.732-4.228c-4.921,2.599-11.192,4.228-18.886,4.228h-0.208
		c-0.173,0-0.277-0.208-0.277-0.485s0.104-0.485,0.277-0.485h0.208c7.242,0,13.203-1.524,17.881-3.916
		c-7.693-5.094-11.505-12.44-17.881-12.44h-0.208c-0.173,0-0.277-0.208-0.277-0.485c0-0.277,0.104-0.485,0.277-0.485l0.208-0.035
		c1.768-0.451,2.529-0.659,4.921-0.659c8.316,0,13.307,5.822,18.02,10.812c5.232-4.331,7.831-9.945,7.831-15.039
		c0-6.341-3.534-10.812-8.975-10.812c-5.337,0-7.693,2.772-7.693,6.688c0.589-0.485,1.213-0.728,2.045-0.728
		c1.213,0,2.426,0.797,2.737,2.529c0.555,3.015,1.213,5.025,2.737,5.025c1.04,0,1.56-0.347,1.768-0.763
		c0.069-0.138,0.312-0.173,0.555-0.069c0.242,0.104,0.381,0.312,0.347,0.45c-0.312,0.659-1.074,1.49-2.669,1.49
		c-4.99,0-8.663-3.465-8.663-7.936s2.807-7.797,8.837-7.797c6.029,0,10.084,4.921,10.084,11.92c0,5.44-2.738,11.332-8.213,15.836
		c3.361,3.5,6.618,6.411,10.95,6.411h0.208c0.139,0,0.277,0.208,0.277,0.485S108.297,45.669,108.158,45.669z"/>
</g>
</svg>
