<svg xmlns="http://www.w3.org/2000/svg" width="112" height="56" viewBox="0 0 112 56"><path fill="#C4C9CB" d="M73.511 19.517c1.718-.581 3.238-.872 4.559-.872 1.532 0 2.907.344 4.123 1.031 1.216.688 2.161 1.625 2.835 2.815.674 1.189 1.011 2.577 1.011 4.163 0 1.771-.436 3.403-1.309 4.896-.872 1.493-2.055 2.69-3.548 3.588-1.493.899-3.126 1.348-4.896 1.348-1.454 0-2.67-.449-3.647-1.348-.978-.898-1.467-1.943-1.467-3.132 0-.687.184-1.249.555-1.684.369-.436.858-.654 1.467-.654.476 0 .865.126 1.17.376.303.251.456.562.456.932 0 .396-.238.78-.713 1.15-.609.449-.912.793-.912 1.031 0 .608.33 1.11.991 1.507.661.397 1.441.595 2.34.595 1.507 0 2.9-.383 4.183-1.15 1.282-.766 2.299-1.797 3.053-3.092.754-1.295 1.13-2.721 1.13-4.282 0-1.163-.232-2.233-.694-3.211-.463-.977-1.104-1.737-1.923-2.28-.82-.541-1.705-.813-2.656-.813-1.665 0-3.238.41-4.718 1.229-1.48.82-3.727 2.511-6.74 5.075-2.854 2.378-6.079 4.876-9.673 7.493-2.564 1.824-4.824 3.132-6.779 3.925-1.956.793-3.964 1.189-6.026 1.189-4.044 0-7.163-1.652-9.356-4.955-1.084.265-2.048.397-2.895.397-1.586 0-3.066-.369-4.44-1.11-1.375-.74-2.471-1.738-3.29-2.993-.82-1.255-1.229-2.623-1.229-4.103 0-2.537 1.024-4.737 3.072-6.601 2.048-1.863 4.46-2.795 7.236-2.795 1.4 0 2.576.39 3.528 1.17.952.78 1.427 1.712 1.427 2.795 0 .767-.199 1.361-.595 1.784-.397.423-.952.634-1.665.634-1.084 0-1.625-.502-1.625-1.507 0-.449.211-.779.634-.991.608-.369.912-.754.912-1.15 0-.476-.258-.892-.773-1.249-.515-.357-1.236-.536-2.161-.536-1.401 0-2.788.39-4.162 1.17-1.375.78-2.498 1.811-3.37 3.092-.872 1.282-1.309 2.597-1.309 3.945 0 1.823.654 3.377 1.962 4.658 1.309 1.282 2.9 1.923 4.778 1.923 1.611 0 3.105-.323 4.48-.971 1.374-.647 3.29-1.949 5.749-3.905 2.035-1.559 4.354-3.271 6.958-5.135 2.603-1.863 4.671-3.284 6.204-4.262 3.463-2.22 6.595-3.33 9.396-3.33 1.559 0 2.986.324 4.282.971 1.291.645 2.653 1.722 4.08 3.229zm-1.308.634c-1.56-1.718-3.397-2.577-5.511-2.577-.872 0-1.823.205-2.854.615-1.031.41-2.438 1.196-4.223 2.359-1.784 1.164-4.593 3.172-8.424 6.026-2.802 2.114-5.194 3.727-7.176 4.837-1.982 1.11-4.162 2.048-6.541 2.815 1.611 1.771 3.7 2.656 6.264 2.656 1.057 0 2.246-.258 3.568-.773 1.321-.515 2.927-1.368 4.817-2.557 1.889-1.189 4.579-3.105 8.068-5.748 5.47-3.939 9.475-6.49 12.012-7.653z"/></svg>