<svg xmlns="http://www.w3.org/2000/svg" width="112" height="56" viewBox="0 0 112 56"><path fill="#C4C9CB" d="M78.774 17.265c2.213-.749 4.171-1.124 5.874-1.124 1.974 0 3.745.443 5.312 1.328 1.566.886 2.784 2.094 3.652 3.626.868 1.532 1.303 3.32 1.303 5.363 0 2.281-.562 4.384-1.686 6.308-1.124 1.924-2.648 3.465-4.571 4.622-1.924 1.158-4.027 1.737-6.308 1.737-1.873 0-3.44-.579-4.699-1.737-1.26-1.157-1.89-2.503-1.89-4.035 0-.885.237-1.609.715-2.17.476-.562 1.106-.843 1.89-.843.613 0 1.115.162 1.507.485.391.324.587.724.587 1.201 0 .51-.306 1.005-.919 1.481-.784.579-1.175 1.021-1.175 1.328 0 .783.425 1.43 1.277 1.941.851.511 1.856.766 3.014.766 1.941 0 3.736-.493 5.389-1.481 1.651-.987 2.962-2.315 3.933-3.984.971-1.668 1.456-3.506 1.456-5.516 0-1.498-.299-2.877-.894-4.137-.596-1.259-1.422-2.238-2.477-2.937-1.056-.697-2.196-1.047-3.422-1.047-2.145 0-4.172.528-6.078 1.583-1.907 1.056-4.801 3.235-8.683 6.538-3.677 3.064-7.832 6.282-12.462 9.653-3.303 2.35-6.215 4.035-8.734 5.057-2.52 1.021-5.107 1.532-7.763 1.532-5.21 0-9.228-2.128-12.053-6.384-1.397.341-2.639.511-3.729.511-2.043 0-3.95-.476-5.72-1.43-1.771-.953-3.184-2.239-4.239-3.856-1.056-1.617-1.583-3.379-1.583-5.286 0-3.269 1.319-6.103 3.958-8.504 2.638-2.4 5.746-3.601 9.322-3.601 1.804 0 3.319.503 4.545 1.507 1.226 1.005 1.839 2.205 1.839 3.601 0 .988-.256 1.754-.766 2.298-.511.545-1.226.817-2.145.817-1.396 0-2.094-.647-2.094-1.941 0-.578.272-1.004.817-1.277.783-.476 1.175-.971 1.175-1.481 0-.613-.332-1.149-.996-1.609-.664-.46-1.592-.69-2.784-.69-1.805 0-3.592.503-5.362 1.507-1.771 1.005-3.218 2.333-4.342 3.984-1.124 1.652-1.686 3.346-1.686 5.082 0 2.349.843 4.35 2.528 6.001 1.686 1.652 3.736 2.477 6.155 2.477 2.076 0 4-.416 5.772-1.251 1.77-.834 4.239-2.511 7.406-5.031 2.622-2.009 5.609-4.214 8.964-6.615 3.353-2.4 6.018-4.231 7.993-5.491 4.461-2.86 8.496-4.29 12.105-4.29 2.009 0 3.847.417 5.516 1.251 1.663.835 3.417 2.222 5.256 4.163zm-1.685.817c-2.01-2.213-4.376-3.32-7.1-3.32-1.124 0-2.349.264-3.677.792-1.328.528-3.141 1.541-5.44 3.039-2.298 1.499-5.917 4.086-10.853 7.763-3.61 2.724-6.691 4.801-9.245 6.231-2.553 1.43-5.362 2.639-8.427 3.626 2.076 2.282 4.767 3.422 8.07 3.422 1.362 0 2.894-.332 4.597-.996 1.702-.664 3.771-1.762 6.206-3.294 2.434-1.532 5.899-4 10.394-7.405 7.047-5.073 12.206-8.359 15.475-9.858z"/></svg>