<?xml version="1.0" encoding="utf-8"?>
<!-- Generator: Adobe Illustrator 17.0.0, SVG Export Plug-In . SVG Version: 6.00 Build 0)  -->
<!DOCTYPE svg PUBLIC "-//W3C//DTD SVG 1.1//EN" "http://www.w3.org/Graphics/SVG/1.1/DTD/svg11.dtd">
<svg version="1.1" id="Layer_1" xmlns="http://www.w3.org/2000/svg" xmlns:xlink="http://www.w3.org/1999/xlink" x="0px" y="0px"
	 width="112px" height="56px" viewBox="0 0 112 56" enable-background="new 0 0 112 56" xml:space="preserve">
<path fill-rule="evenodd" clip-rule="evenodd" fill="#C4C9CB" d="M16.87,25.666c-4.576,0-9.264,3.294-9.264,7.338
	c0,1.535,0.525,3.182,1.988,4.194c0.712,0.561,0.712,1.383-0.114,2.283c-0.975,1.048-2.399,1.871-3.826,1.871
	c-1.726,0-4.013-1.608-4.013-4.716c0-1.722,1.125-5.428,5.626-8.798c4.725-3.593,8.776-4.791,13.428-5.089
	c9.826-7.826,17.776-9.247,23.553-9.247c6.302,0,11.926,2.021,14.777,3.144c2.552,0.973,12.453,5.092,19.467,8.16
	c7.35,3.032,13.688,4.868,18.039,4.868c3.49,0,8.516-1.237,8.516-5.504c0-1.572-0.639-2.659-1.502-3.294
	c-0.486-0.412-0.863-1.012-0.863-1.536c0-1.572,1.426-3.966,3.901-3.966c2.775,0,4.275,2.77,4.275,4.866
	c0,5.689-6.224,9.546-10.426,11.268C92.706,39.704,84.905,43,77.329,43c-5.551,0-10.876-1.499-17.927-4.044
	c-5.328-1.947-22.054-8.759-28.769-10.894c-6.188-1.909-9.714-2.397-13.69-2.397H16.87z M38.435,16.608
	c-5.138,0-10.013,2.583-12.414,6.402c2.926,0.037,7.352,0.674,14.665,3.33c7.313,2.472,20.817,8.236,25.541,9.846
	c5.252,1.722,10.278,3.144,15.265,3.144c5.588,0,10.577-1.834,13.202-6.55c-5.213,0.672-10.125-0.151-17.365-2.959
	c-5.551-2.133-20.853-9.133-26.03-10.892c-4.35-1.46-8.55-2.321-12.789-2.321H38.435z"/>
</svg>
