<?xml version="1.0" encoding="utf-8"?>
<!-- Generator: Adobe Illustrator 17.0.0, SVG Export Plug-In . SVG Version: 6.00 Build 0)  -->
<!DOCTYPE svg PUBLIC "-//W3C//DTD SVG 1.1//EN" "http://www.w3.org/Graphics/SVG/1.1/DTD/svg11.dtd">
<svg version="1.1" id="Layer_1" xmlns="http://www.w3.org/2000/svg" xmlns:xlink="http://www.w3.org/1999/xlink" x="0px" y="0px"
	 width="1190.55px" height="841.89px" viewBox="0 0 1190.55 841.89" enable-background="new 0 0 1190.55 841.89"
	 xml:space="preserve">
<g>
	<path d="M706.981,700.759c-9.525-20.406-19.017-40.741-28.508-61.075c-0.306,0.054-0.611,0.109-0.917,0.163
		c-1.662,21.637-3.324,43.274-5.014,65.282c-1.546,0.253-3.071,0.635-4.615,0.734c-16.453,1.055-32.914,1.991-49.359,3.151
		c-3.207,0.226-4.792-0.873-6.214-3.694c-14.403-28.569-28.946-57.068-43.458-85.582c-0.484-0.951-1.044-1.863-2.28-2.748
		c-4.405,30.437-8.811,60.875-13.264,91.641c-1.85-0.092-3.4-0.197-4.952-0.241c-21.91-0.631-43.728-2.522-65.538-4.601
		c-2.438-0.232-3.001-1.614-3.665-3.386c-8.375-22.348-16.766-44.689-25.161-67.03c-0.985-2.622-2.012-5.227-3.709-7.814
		c-3.888,24.029-7.776,48.059-11.711,72.384c-32.048-4.86-63.33-11.202-94.53-19.214c-0.966-9.448-1.92-18.776-2.874-28.105
		c-0.26-0.012-0.519-0.025-0.779-0.037c-3.161,8.093-6.322,16.186-9.609,24.604c-19.435-5.192-38.419-11.049-57.482-17.648
		c-1.027-24.273-2.051-48.446-3.111-73.494c-9.843,8.704-18.682,17.328-27.749,25.696c-9.038,8.342-17.968,16.799-27.127,25.376
		c-6.692-3.047-13.32-5.967-19.865-9.063c-29.029-13.728-56.596-29.875-81.814-49.855c-23.629-18.721-44.312-40.151-60.299-65.88
		c-14.089-22.676-23.203-47.17-27.014-73.611c-0.24-1.668-0.312-3.361,0.089-5.308c0.567,0.721,1.143,1.435,1.699,2.164
		c13.899,18.204,30.88,33.068,49.755,45.874c25.726,17.455,53.657,30.478,82.753,41.159c1.385,0.508,2.766,1.029,4.141,1.565
		c0.214,0.084,0.383,0.285,0.773,0.587c1.807,17.065,3.631,34.3,5.478,51.74c1.617-0.193,2.251-1.44,3.092-2.356
		c10.402-11.341,20.836-22.653,31.142-34.081c1.633-1.81,3.048-2.3,5.422-1.645c26.471,7.297,53.342,12.767,80.401,17.352
		c2.863,0.485,2.861,0.492,3.298,3.359c1.962,12.885,3.924,25.769,6.021,39.541c4.894-6.487,8.889-12.706,13.107-18.76
		c4.293-6.16,8.507-12.375,12.874-18.739c18.154,1.973,36.336,3.95,54.907,5.968c3.239,22.281,6.488,44.631,9.737,66.982
		c0.261,0.049,0.522,0.099,0.783,0.148c8.454-21.393,16.908-42.786,25.438-64.372c24.6,0.983,49.136,1.964,73.934,2.955
		c4.733,15.524,9.455,31.013,14.178,46.502c0.255,0.02,0.511,0.04,0.766,0.06c2.059-7.563,3.467-15.294,5.254-22.924
		c1.818-7.761,3.494-15.556,5.234-23.347c27.262-0.326,54.187-0.648,81.474-0.974c9.937,31.812,19.891,63.679,29.846,95.546
		c0.243,0.038,0.487,0.076,0.73,0.115c4.805-10.823,9.156-21.845,13.749-32.76c4.677-11.112,9.275-22.258,13.902-33.391
		c4.578-11.015,9.148-22.032,13.837-33.325c16.973-1.455,33.972-2.911,51.269-4.394c11.114,32.383,22.189,64.651,33.264,96.919
		c0.273-0.032,0.546-0.064,0.819-0.096c4.52-33.927,9.039-67.853,13.601-102.094c11.682-1.505,23.232-2.993,35.204-4.535
		c4.763,16.699,9.47,33.201,14.176,49.703c1.919-5.562,1.992-11.341,2.717-17.012c0.749-5.857,1.163-11.755,1.776-17.63
		c0.612-5.86,1.291-11.713,1.974-17.876c4.483-0.713,8.826-1.387,13.164-2.096c18.939-3.095,37.888-6.127,56.8-9.378
		c3.026-0.52,4.877-0.054,6.858,2.468c16.353,20.823,32.866,41.521,49.338,62.25c0.897,1.129,1.865,2.202,3.555,3.144
		c1.509-26.71,3.018-53.419,4.547-80.482c1.136-0.331,2.26-0.718,3.412-0.985c26.136-6.061,52.07-12.867,77.55-21.305
		c26.347-8.725,51.914-19.24,75.787-33.555c18.396-11.03,35.132-24.066,48.845-40.72c0.31-0.376,0.545-0.813,1.093-1.644
		c1.012,2.093,0.548,3.649,0.346,5.105c-1.726,12.471-4.675,24.639-9.131,36.433c-8.476,22.434-21.471,42.008-37.674,59.541
		c-18.603,20.129-40.147,36.659-63.159,51.372c-4.663,2.982-9.4,5.849-14.296,8.889c-12.965-8.341-25.872-16.644-39.299-25.283
		c-0.383,3.294-0.756,6.129-1.036,8.973c-1.241,12.612-2.521,25.222-3.613,37.847c-0.175,2.025-1.243,2.734-2.728,3.443
		c-19.104,9.122-38.483,17.614-58.181,25.375c-2.633,1.037-5.332,1.926-7.895,3.112c-1.87,0.866-3.111,0.543-4.538-0.915
		c-4.65-4.752-9.451-9.357-14.171-14.04c-9.268-9.195-18.521-18.404-27.78-27.607c-8.997-8.942-17.994-17.885-26.996-26.823
		c-0.601-0.597-1.24-1.154-2.487-1.425c10.192,28.843,20.384,57.686,30.675,86.807c-1.151,0.47-2.115,0.955-3.132,1.267
		c-16.58,5.08-33.182,10.091-49.736,15.257c-2.274,0.71-3.542,0.218-4.968-1.571c-9.208-11.558-18.515-23.038-27.798-34.536
		c-0.749-0.928-1.563-1.805-2.859-3.296c-2.012,17.053-3.938,33.373-5.847,49.556C784.802,687.401,716.294,700.603,706.981,700.759z
		"/>
	<path d="M381.324,355.071c-30.94-0.331-60.906-6.027-90.124-15.926c-23.392-7.925-45.742-18.167-66.738-31.18
		c-19.751-12.242-36.331-28.181-51.489-45.648c-22.548-25.983-41.104-54.662-57.074-85.06
		c-10.37-19.739-19.421-40.065-26.626-61.183c-4.335-12.707-8.003-25.599-9.577-38.978c-0.633-5.377-0.893-10.802,0.322-16.165
		c0.217-0.956,0.477-1.913,0.839-2.822c1.98-4.97,5.684-6.881,10.906-5.68c5.043,1.16,9.192,4.027,13.35,6.91
		c7.282,5.049,14.496,10.209,21.936,15.017c28.633,18.502,59.157,33.273,90.875,45.646c35.242,13.748,71.454,24.377,108.194,33.214
		c29.648,7.131,59.41,13.785,89.094,20.764c20.717,4.871,41.333,10.138,61.229,17.834c9.546,3.692,18.784,8.023,27.241,13.866
		c4.885,3.375,9.345,7.219,13.106,11.849c8.169,10.058,10.838,21.607,9.266,34.272c-1.603,12.908-6.746,24.58-12.652,35.999
		c-14.247,27.546-36.85,45.316-65.461,56.031c-16.365,6.129-33.353,9.389-50.771,10.463
		C391.893,354.622,386.607,354.816,381.324,355.071z"/>
	<path d="M934.283,325.701c-10.493-12.737-20.8-25.25-31.731-38.518c-1.165,9.436-1.298,18.076-1.995,26.66
		c-0.696,8.568-1.119,17.158-1.685,26.1c-6.954,2.009-13.742,4.131-20.615,5.926c-19.466,5.083-39.255,8.209-59.372,8.884
		c-27.716,0.93-54.79-2.405-80.59-13.195c-19.677-8.229-36.701-20.155-49.429-37.463c-10.665-14.503-18.724-30.375-22.276-48.206
		c-3.731-18.727,1.817-34.246,16.623-46.372c9.74-7.977,20.951-13.292,32.586-17.796c16.893-6.54,34.316-11.365,51.914-15.524
		c27.644-6.534,55.361-12.758,83.01-19.269c43.735-10.299,86.953-22.326,128.74-39.063c38.437-15.396,74.832-34.521,108.258-59.095
		c3.583-2.634,7.356-4.946,11.706-6.138c5.962-1.633,10.297,0.548,12.029,6.458c0.784,2.675,1.07,5.559,1.165,8.363
		c0.411,12.092-2.429,23.7-5.736,35.185c-8.176,28.39-20.242,55.16-34.265,81.08c-15.04,27.799-32.361,54.072-53.097,77.993
		c-15.716,18.129-32.944,34.593-53.509,47.229C955.95,315.122,945.465,320.536,934.283,325.701z"/>
</g>
</svg>
