<?xml version="1.0" encoding="utf-8"?>
<!-- Generator: Adobe Illustrator 17.0.0, SVG Export Plug-In . SVG Version: 6.00 Build 0)  -->
<!DOCTYPE svg PUBLIC "-//W3C//DTD SVG 1.1//EN" "http://www.w3.org/Graphics/SVG/1.1/DTD/svg11.dtd">
<svg version="1.1" id="Layer_1" xmlns="http://www.w3.org/2000/svg" xmlns:xlink="http://www.w3.org/1999/xlink" x="0px" y="0px"
	 width="997.13px" height="635.443px" viewBox="0 0 997.13 635.443" enable-background="new 0 0 997.13 635.443"
	 xml:space="preserve">
<rect x="484.726" y="20.664" transform="matrix(0.9611 0.2762 -0.2762 0.9611 63.0942 -138.382)" opacity="0.9" fill="#2c3032" width="76.255" height="268.304"/>
<rect x="385.745" y="237.8" transform="matrix(0.9554 -0.2953 0.2953 0.9554 -92.2689 132.8519)" opacity="0.9" fill="#2c3032" width="16.054" height="268.304"/>
<rect x="635.692" y="323.94" transform="matrix(0.9763 0.2163 -0.2163 0.9763 114.3341 -128.401)" opacity="0.9" fill="#2c3032" width="16.054" height="268.304"/>
<rect x="384.465" y="150.877" opacity="0.9" fill="#C4C9CA" width="76.255" height="268.304"/>
<rect x="726.298" y="128.737" transform="matrix(0.9803 -0.1975 0.1975 0.9803 -37.217 152.6898)" opacity="0.9" fill="#C4C9CA" width="40.851" height="268.304"/>
<rect x="549.684" y="196.065" transform="matrix(0.9836 0.1805 -0.1805 0.9836 69.2656 -100.6841)" opacity="0.9" fill="#E75A33" width="76.255" height="268.304"/>
<rect x="227.315" y="218.551" transform="matrix(0.8928 -0.4504 0.4504 0.8928 -129.4266 161.4835)" opacity="0.9" fill="#E75A33" width="94.587" height="268.304"/>
</svg>
