<svg xmlns="http://www.w3.org/2000/svg" viewBox="0 0 1000 635" enable-background="new 0 0 997.13 635.443"><rect x="227.315" y="230" transform="matrix(.893 -.45 .45 .893 -129.427 161.483)" opacity=".9" fill="#4fb5c6" width="94.587" height="268.304"><animate values="230;240;230" fill="freeze" dur="8s" calcMode="spline" keySplines="0.25 0.1 0.25 1;0.25 0.1 0.25 1" repeatCount="indefinite"/></rect><rect x="385.745" y="237" transform="matrix(.955 -.295 .295 .955 -92.269 132.852)" opacity=".9" fill="#2c3032" width="16.054" height="268.304"><animate values="237;240;237" fill="freeze" dur="8.2s" calcMode="spline" keySplines="0.25 0.1 0.25 1;0.25 0.1 0.25 1" repeatCount="indefinite"/></rect><rect x="384.465" y="150" opacity=".9" fill="#C4C9CA" width="76.255" height="268.304"><animate values="150;160;150" fill="freeze" dur="7.5s" calcMode="spline" keySplines="0.25 0.1 0.25 1;0.25 0.1 0.25 1" repeatCount="indefinite"/></rect><rect x="484.726" y="10" transform="matrix(.961 .276 -.276 .961 63.094 -138.382)" opacity=".9" fill="#2c3032" width="76.255" height="268.304"><animate values="10;20;10" fill="freeze" dur="8.1s" calcMode="spline" keySplines="0.25 0.1 0.25 1;0.25 0.1 0.25 1" repeatCount="indefinite"/></rect><rect x="549.684" y="190" transform="matrix(.984 .18 -.18 .984 69.266 -100.684)" opacity=".9" fill="#4fb5c6" width="76.255" height="268.304"><animate values="190;196;190" fill="freeze" dur="6.6s" calcMode="spline" keySplines="0.25 0.1 0.25 1;0.25 0.1 0.25 1" repeatCount="indefinite"/></rect><rect x="635.692" y="315" transform="matrix(.976 .216 -.216 .976 114.334 -128.401)" opacity=".9" fill="#2c3032" width="16.054" height="268.304"><animate values="315;323;315" fill="freeze" dur="8.8s" calcMode="spline" keySplines="0.25 0.1 0.25 1;0.25 0.1 0.25 1" repeatCount="indefinite"/></rect><rect x="726.298" y="128" transform="matrix(.98 -.198 .198 .98 -37.217 152.69)" opacity=".9" fill="#C4C9CA" width="40.851" height="268.304"><animate values="128;132;128" fill="freeze" dur="8.4s" calcMode="spline" keySplines="0.25 0.1 0.25 1;0.25 0.1 0.25 1" repeatCount="indefinite"/></rect></svg>