<?xml version="1.0" encoding="utf-8"?>
<!-- Generator: Adobe Illustrator 17.0.0, SVG Export Plug-In . SVG Version: 6.00 Build 0)  -->
<!DOCTYPE svg PUBLIC "-//W3C//DTD SVG 1.1//EN" "http://www.w3.org/Graphics/SVG/1.1/DTD/svg11.dtd">
<svg version="1.1" id="Layer_1" xmlns="http://www.w3.org/2000/svg" xmlns:xlink="http://www.w3.org/1999/xlink" x="0px" y="0px"
	 width="1190.55px" height="149.604px" viewBox="0 0 1190.55 149.604" enable-background="new 0 0 1190.55 149.604"
	 xml:space="preserve">
<g>
	<path fill="#F4F4F4" d="M4.659,141.227c13.747-0.589,16.692-4.713,16.692-12.765V22.024c0-7.855-2.946-11.979-16.692-12.568V6.902
		H58.86c43.793,0,65.198,27.69,65.198,66.573c0,36.919-18.067,70.304-62.842,70.304H4.659V141.227z M56.307,140.048
		c28.083,0,38.491-14.139,38.491-65.395c0-51.648-13.354-64.02-39.08-64.02h-7.462v129.415H56.307z"/>
	<path fill="#F4F4F4" d="M189.65,94.685h-37.508l-4.91,14.729c-6.874,23.173-4.713,28.475,10.997,31.814v2.553h-39.865v-2.553
		c11.586-3.339,17.085-10.016,23.958-31.618L175.511,4.35h15.907l34.367,118.221c3.731,13.55,6.284,16.496,19.245,18.656v2.553
		h-61.467v-2.553c15.907-0.982,18.067-4.713,15.121-15.907L189.65,94.685z M188.668,90.561l-16.299-60.092h-0.786L153.32,90.561
		H188.668z"/>
	<path fill="#F4F4F4" d="M272.522,32.825h-0.393v76.981c0,20.031,3.928,28.475,20.62,31.421v2.553h-45.167v-2.553
		c15.907-2.946,19.638-11.39,19.638-31.421V33.217c0-14.925-5.302-22.78-19.638-23.762V6.902h40.455l62.449,95.638h0.393V40.876
		c0-20.031-4.91-28.672-21.798-31.421V6.902h45.364v2.553c-15.514,3.142-18.853,11.39-18.853,31.421v104.278h-9.623L272.522,32.825z
		"/>
	<path fill="#F4F4F4" d="M378.96,141.227c14.14-0.589,17.085-4.713,17.085-12.765V22.024c0-7.855-2.946-11.979-17.085-12.568V6.902
		h60.682v2.553c-14.139,0.589-16.889,4.713-16.889,12.568v106.438c0,8.052,2.75,12.176,16.889,12.765v2.553H378.96V141.227z"/>
	<path fill="#F4F4F4" d="M447.497,141.227c13.747-0.589,16.692-4.713,16.692-12.765V22.024c0-7.855-2.946-11.979-16.692-12.568
		V6.902h100.939l0.786,45.757l-3.142,0.196c-12.176-30.046-18.656-42.222-39.669-42.222h-15.317v60.878h5.695
		c12.765,0,19.834-5.892,24.94-26.904h2.946v57.736h-2.946c-5.106-21.209-12.176-27.1-24.94-27.1h-5.695v64.805h14.335
		c24.94,0,32.992-12.961,44.775-45.364l3.338,0.393l-0.982,48.703H447.497V141.227z"/>
	<path fill="#F4F4F4" d="M563.95,141.227c13.747-0.589,16.692-4.713,16.692-12.765V22.024c0-7.855-2.946-11.979-16.692-12.568V6.902
		h59.896v2.553c-14.336,0.589-16.496,4.517-16.496,12.568v118.024h7.659c24.548,0,31.421-9.623,46.542-45.756l3.339,0.196
		l-1.768,49.292H563.95V141.227z"/>
	<path fill="#F4F4F4" d="M700.823,141.227c13.747-0.589,16.692-4.713,16.692-12.765V22.024c0-7.855-2.945-11.979-16.692-12.568
		V6.902h100.939l0.786,45.757l-3.143,0.196C787.23,22.81,780.75,10.634,759.737,10.634H744.42v60.878h5.695
		c12.765,0,19.834-5.892,24.939-26.904h2.946v57.736h-2.946c-5.105-21.209-12.175-27.1-24.939-27.1h-5.695v64.805h14.336
		c24.94,0,32.991-12.961,44.774-45.364l3.339,0.393l-0.982,48.703H700.823V141.227z"/>
	<path fill="#F4F4F4" d="M817.865,141.227c13.747-0.589,16.692-4.713,16.692-12.765V22.024c0-7.855-2.945-11.979-16.692-12.568
		V6.902h54.201c43.793,0,65.198,27.69,65.198,66.573c0,36.919-18.067,70.304-62.842,70.304h-56.558V141.227z M869.514,140.048
		c28.082,0,38.49-14.139,38.49-65.395c0-51.648-13.354-64.02-39.08-64.02h-7.462v129.415H869.514z"/>
	<path fill="#F4F4F4" d="M946.102,141.227c13.747-0.589,16.692-4.713,16.692-12.765V22.024c0-7.855-2.945-11.979-16.692-12.568
		V6.902h100.939l0.786,45.757l-3.143,0.196c-12.176-30.046-18.656-42.222-39.669-42.222h-15.317v60.878h5.694
		c12.766,0,19.835-5.892,24.94-26.904h2.946v57.736h-2.946c-5.105-21.209-12.175-27.1-24.94-27.1h-5.694v64.805h14.336
		c24.94,0,32.991-12.961,44.774-45.364l3.339,0.393l-0.982,48.703H946.102V141.227z"/>
	<path fill="#F4F4F4" d="M1087.102,32.825h-0.393v76.981c0,20.031,3.928,28.475,20.62,31.421v2.553h-45.167v-2.553
		c15.906-2.946,19.638-11.39,19.638-31.421V33.217c0-14.925-5.303-22.78-19.638-23.762V6.902h40.454l62.449,95.638h0.393V40.876
		c0-20.031-4.91-28.672-21.799-31.421V6.902h45.364v2.553c-15.514,3.142-18.853,11.39-18.853,31.421v104.278h-9.623L1087.102,32.825
		z"/>
</g>
</svg>
