<svg xmlns="http://www.w3.org/2000/svg" width="219.499" height="56" viewBox="-53.75 0 219.499 56" enable-background="new -53.75 0 219.499 56"><g fill="#C4C9CB"><path d="M-7.711 30.511l3.865 9.783-2.549 1.641-7.972-6.574-8.057 6.574-2.465-1.641 3.863-9.783-8.795-5.671.904-2.878 10.522.575 2.384-10.027h3.204l2.466 10.027 10.521-.575.903 2.878-8.794 5.671zM62.659 30.511l3.862 9.783-2.547 1.641-7.974-6.573-8.055 6.574-2.466-1.641 3.865-9.783-8.795-5.671.903-2.878 10.521.575 2.384-10.027h3.207l2.464 10.027 10.521-.575.905 2.878-8.795 5.67zM133.026 30.511l3.862 9.783-2.547 1.641-7.974-6.574-8.055 6.574-2.466-1.641 3.865-9.783-8.795-5.671.903-2.878 10.521.575 2.384-10.027h3.207l2.464 10.027 10.521-.575.905 2.878-8.795 5.671z"/></g></svg>