<svg fill="none" height="462" width="512" xmlns="http://www.w3.org/2000/svg"><g fill="#000"><path d="m38.273 66v-1.145h2.545v-5.346h-2.545v-1.145h3.818v6.49h2.545v1.146zm3.182-9.036c-.323 0-.586-.051-.79-.153-.195-.102-.292-.293-.292-.573v-.089c0-.288.097-.484.292-.585.204-.11.467-.166.79-.166.322 0 .58.055.776.166.204.101.305.297.305.585v.09c0 .28-.101.47-.305.572s-.463.153-.776.153zm5.732 9.036v-7.636h1.273v1.272h.381c.187-.432.48-.772.879-1.018a2.476 2.476 0 0 1 1.361-.382c.764 0 1.366.234 1.808.7.44.467.661 1.103.661 1.91v5.154h-1.272v-4.9c0-.535-.132-.942-.395-1.222-.254-.288-.624-.433-1.107-.433-.382 0-.772.115-1.171.344-.39.23-.772.56-1.145.993v5.218zm11.981-.993c.713 0 1.226-.144 1.54-.432.323-.289.484-.751.484-1.388v-2.062c0-.585-.123-1.01-.37-1.272-.237-.272-.623-.408-1.158-.408-.424 0-.818.107-1.183.319s-.734.551-1.107 1.018v3.742c.263.16.534.284.814.369.289.076.615.114.98.114zm.013 1.12a4.46 4.46 0 0 1 -.916-.101 4.92 4.92 0 0 1 -.891-.255v2.775h-1.274v-10.182h1.273v1.272h.381c.213-.432.518-.772.917-1.018a2.43 2.43 0 0 1 1.31-.382c.764 0 1.367.263 1.808.79.45.517.675 1.221.675 2.112v2.075c0 .9-.298 1.612-.891 2.138-.586.518-1.383.776-2.393.776zm8.303 0c-.738 0-1.336-.237-1.794-.712-.45-.484-.675-1.116-.675-1.897v-5.154h1.273v4.9c0 .56.123.975.369 1.247.246.271.623.407 1.133.407.398 0 .784-.106 1.158-.318.382-.22.768-.56 1.158-1.018v-5.218h1.273v7.636h-1.273v-1.273h-.382a2.236 2.236 0 0 1 -.89 1.018 2.495 2.495 0 0 1 -1.35.382zm10.887-.012c-.84 0-1.493-.208-1.96-.624s-.7-1.052-.7-1.91v-4.071h-2.164v-1.145h2.164v-2.546h1.272v2.546h3.31v1.145h-3.31v3.958c0 .492.124.857.37 1.095.246.237.61.356 1.094.356.323 0 .624-.021.904-.063.28-.051.547-.115.802-.191l.254 1.158a7.15 7.15 0 0 1 -.929.203c-.322.06-.691.09-1.107.09zm80.902-.115v-1.145h2.545v-7.891h-2.545v-1.146h3.818v9.037h2.545v1.145zm11.18-.967c.44 0 .848-.077 1.221-.23.373-.16.696-.436.967-.827v-1.221h-2.29c-.365 0-.67.084-.917.254-.237.161-.356.45-.356.866 0 .364.101.649.305.852.212.204.569.306 1.07.306zm-.166 1.094a3.05 3.05 0 0 1 -1.731-.509c-.5-.348-.751-.903-.751-1.667 0-.67.216-1.196.65-1.578a2.281 2.281 0 0 1 1.54-.573h2.646v-1.095c0-.407-.135-.73-.407-.967s-.683-.356-1.235-.356c-.56 0-.98.085-1.26.254-.271.162-.487.526-.649 1.095l-1.12-.306c.145-.72.467-1.264.968-1.629.509-.373 1.188-.56 2.036-.56.84 0 1.54.191 2.1.573.56.373.84.955.84 1.744v3.41c0 .459.127.747.382.866.254.11.636.123 1.145.038v1.171a3.355 3.355 0 0 1 -1.489-.102c-.458-.152-.708-.555-.75-1.209h-.255c-.238.39-.594.721-1.07.993a3.15 3.15 0 0 1 -1.59.407zm9.894 0a5.82 5.82 0 0 1 -1.578-.229 5.695 5.695 0 0 1 -1.502-.662v-9.418h1.273v3.818h.381a2.52 2.52 0 0 1 .917-1.03c.39-.247.827-.37 1.31-.37.79 0 1.4.255 1.833.764.433.51.65 1.222.65 2.138v2.075c0 .925-.289 1.642-.866 2.15-.577.51-1.383.764-2.418.764zm-.013-1.12c.687 0 1.197-.148 1.527-.445.331-.306.497-.764.497-1.375v-2.036c0-.577-.128-1.006-.382-1.286-.255-.28-.636-.42-1.146-.42-.415 0-.81.11-1.183.331s-.743.556-1.107 1.006v3.742c.271.16.551.284.84.369.296.076.615.114.954.114zm12.236-.687c-.23.636-.577 1.099-1.044 1.387-.466.28-1.183.42-2.15.42-1.01 0-1.795-.242-2.355-.725-.56-.492-.84-1.218-.84-2.177v-2.049c0-.984.293-1.718.878-2.201.594-.493 1.366-.739 2.317-.739.958 0 1.726.25 2.303.751.577.492.866 1.252.866 2.278v1.171h-5.091v.802c0 .637.157 1.099.47 1.387.323.28.802.42 1.439.42.61 0 1.056-.084 1.336-.254s.492-.446.637-.827zm-5.116-3.144v.306h3.818v-.191c0-.687-.161-1.188-.484-1.502-.314-.314-.789-.47-1.425-.47-.637 0-1.116.152-1.438.457-.314.297-.471.764-.471 1.4zm7.641 4.824v-1.145h2.545v-7.891h-2.545v-1.146h3.818v9.037h2.546v1.145zm-32.576 233.127a5.82 5.82 0 0 1 -1.578-.229 5.697 5.697 0 0 1 -1.502-.662v-9.418h1.272v3.818h.382a2.52 2.52 0 0 1 .917-1.03c.39-.247.827-.37 1.31-.37.79 0 1.4.255 1.833.764.433.51.65 1.222.65 2.138v2.075c0 .925-.29 1.642-.866 2.15-.577.51-1.383.764-2.418.764zm-.013-1.12c.687 0 1.196-.148 1.527-.445.331-.306.497-.764.497-1.375v-2.036c0-.577-.128-1.006-.382-1.286-.255-.28-.637-.42-1.146-.42-.415 0-.81.11-1.183.331-.374.221-.743.556-1.108 1.006v3.742c.272.16.552.284.84.369.297.076.616.114.955.114zm8.316 1.12c-.738 0-1.337-.237-1.795-.713-.45-.483-.674-1.115-.674-1.896v-5.154h1.272v4.9c0 .56.123.975.37 1.247.246.271.623.407 1.132.407.4 0 .785-.106 1.158-.318.382-.22.768-.56 1.159-1.018v-5.218h1.272v7.636h-1.272v-1.273h-.382a2.236 2.236 0 0 1 -.891 1.018 2.495 2.495 0 0 1 -1.35.382zm10.887-.013c-.84 0-1.494-.207-1.96-.623-.467-.416-.7-1.052-.7-1.91v-4.072h-2.164v-1.145h2.164v-2.546h1.272v2.546h3.31v1.145h-3.31v3.958c0 .492.123.857.37 1.095.245.237.61.356 1.094.356.323 0 .624-.021.904-.063.28-.051.547-.115.801-.191l.255 1.158a7.146 7.146 0 0 1 -.93.204c-.321.059-.69.089-1.106.089zm8.914 0c-.84 0-1.494-.207-1.96-.623-.467-.416-.7-1.052-.7-1.91v-4.072h-2.164v-1.145h2.164v-2.546h1.272v2.546h3.31v1.145h-3.31v3.958c0 .492.123.857.37 1.095.246.237.61.356 1.094.356.323 0 .624-.021.904-.063.28-.051.547-.115.802-.191l.254 1.158a7.15 7.15 0 0 1 -.929.204c-.322.059-.691.089-1.107.089zm7.654.013c-1.027 0-1.816-.246-2.368-.738-.543-.5-.814-1.217-.814-2.15v-2.063c0-.941.276-1.667.827-2.176.552-.51 1.34-.764 2.367-.764 1.019 0 1.8.255 2.342.764.552.51.828 1.235.828 2.176v2.062c0 .934-.276 1.65-.828 2.151-.543.492-1.328.738-2.354.738zm0-1.145c.645 0 1.124-.144 1.438-.433.314-.288.47-.725.47-1.31v-2.063c0-.61-.156-1.06-.47-1.349-.314-.297-.793-.445-1.438-.445s-1.124.148-1.438.445c-.314.289-.471.738-.471 1.35v2.061c0 .586.157 1.023.47 1.311.315.289.794.433 1.439.433zm5.732 1.018v-7.636h1.273v1.272h.382c.186-.432.479-.772.878-1.018a2.476 2.476 0 0 1 1.362-.382c.763 0 1.366.234 1.807.7.441.467.662 1.103.662 1.91v5.154h-1.273v-4.9c0-.535-.132-.942-.395-1.222-.254-.288-.623-.433-1.107-.433-.382 0-.772.115-1.17.344-.391.23-.773.56-1.146.993v5.218zm85.872-232.886c-.84 0-1.494-.207-1.96-.623-.467-.416-.7-1.052-.7-1.91v-4.071h-2.164v-1.145h2.164v-2.546h1.272v2.546h3.31v1.145h-3.31v3.958c0 .492.123.857.37 1.095.245.237.61.356 1.094.356.322 0 .624-.021.904-.063.28-.051.547-.115.801-.191l.255 1.158a7.15 7.15 0 0 1 -.93.203c-.322.06-.69.09-1.106.09zm7.654.013c-1.027 0-1.816-.246-2.368-.738-.543-.5-.814-1.217-.814-2.15v-2.063c0-.941.275-1.667.827-2.176.552-.51 1.34-.764 2.367-.764 1.018 0 1.8.255 2.342.764.552.51.827 1.235.827 2.176v2.062c0 .934-.275 1.65-.827 2.151-.543.492-1.328.738-2.354.738zm0-1.145c.644 0 1.124-.144 1.438-.433.314-.288.47-.725.47-1.31v-2.063c0-.61-.156-1.06-.47-1.349-.314-.297-.794-.445-1.438-.445-.645 0-1.125.148-1.439.445-.314.289-.47.738-.47 1.35v2.061c0 .586.156 1.023.47 1.311.314.289.794.433 1.439.433zm8.914 1.145c-1.027 0-1.816-.246-2.368-.738-.543-.5-.814-1.217-.814-2.15v-2.063c0-.941.276-1.667.827-2.176.552-.51 1.34-.764 2.367-.764 1.019 0 1.8.255 2.342.764.552.51.827 1.235.827 2.176v2.062c0 .934-.275 1.65-.827 2.151-.543.492-1.328.738-2.354.738zm0-1.145c.644 0 1.124-.144 1.438-.433.314-.288.47-.725.47-1.31v-2.063c0-.61-.156-1.06-.47-1.349-.314-.297-.794-.445-1.438-.445-.645 0-1.125.148-1.439.445-.314.289-.47.738-.47 1.35v2.061c0 .586.156 1.023.47 1.311.314.289.794.433 1.439.433zm5.732 1.018v-1.145h2.545v-7.891h-2.545v-1.146h3.818v9.037h2.546v1.145zm13.356.114c-.84 0-1.494-.207-1.96-.623-.467-.416-.7-1.052-.7-1.91v-4.071h-2.164v-1.145h2.164v-2.546h1.272v2.546h3.31v1.145h-3.31v3.958c0 .492.124.857.37 1.095.246.237.61.356 1.094.356.323 0 .624-.021.904-.063.28-.051.547-.115.802-.191l.254 1.158a7.15 7.15 0 0 1 -.929.203c-.322.06-.691.09-1.107.09zm4.472-.114v-1.145h2.545v-5.346h-2.545v-1.145h3.818v6.49h2.546v1.146zm3.182-9.036c-.323 0-.586-.051-.79-.153-.194-.102-.292-.293-.292-.573v-.089c0-.288.098-.484.293-.585.203-.11.466-.166.789-.166.322 0 .581.055.776.166.204.101.306.297.306.585v.09c0 .28-.102.47-.306.572-.203.102-.462.153-.776.153zm8.8 8.043c.712 0 1.225-.144 1.54-.432.322-.289.483-.751.483-1.388v-2.062c0-.585-.123-1.01-.37-1.272-.237-.272-.623-.408-1.157-.408-.425 0-.819.107-1.184.319s-.734.551-1.107 1.018v3.742c.263.16.534.284.814.369.289.076.615.114.98.114zm.012 1.12a4.46 4.46 0 0 1 -.916-.101 4.922 4.922 0 0 1 -.891-.255v2.775h-1.273v-10.182h1.273v1.272h.382c.212-.432.517-.772.916-1.018a2.43 2.43 0 0 1 1.31-.382c.765 0 1.367.263 1.808.79.45.517.675 1.221.675 2.112v2.075c0 .9-.297 1.612-.891 2.138-.586.518-1.383.776-2.393.776zm-52.122 104.987c-.84 0-1.494-.207-1.96-.623-.467-.416-.7-1.052-.7-1.91v-4.072h-2.164v-1.145h2.164v-2.546h1.272v2.546h3.31v1.145h-3.31v3.958c0 .492.123.857.37 1.095.245.237.61.356 1.094.356.322 0 .624-.021.904-.063.28-.051.547-.115.801-.191l.255 1.158a7.15 7.15 0 0 1 -.93.203c-.322.06-.69.09-1.106.09zm10.86-1.794c-.228.636-.576 1.099-1.043 1.387-.466.28-1.183.42-2.15.42-1.01 0-1.795-.242-2.355-.725-.56-.492-.84-1.218-.84-2.177v-2.049c0-.984.293-1.718.878-2.201.594-.493 1.366-.739 2.316-.739.96 0 1.727.25 2.304.751.577.492.865 1.252.865 2.278v1.171h-5.09v.802c0 .637.157 1.099.47 1.387.323.28.802.42 1.439.42.61 0 1.056-.084 1.336-.254s.492-.446.636-.827l1.235.356zm-5.115-3.144v.306h3.818v-.191c0-.687-.162-1.188-.484-1.502-.314-.314-.789-.47-1.425-.47-.637 0-1.116.152-1.439.457-.314.297-.47.764-.47 1.4zm12.718 4.824-1.973-2.915-1.883 2.915h-1.413l2.673-3.83-2.584-3.806h1.425l1.897 2.8 1.922-2.8h1.412l-2.698 3.741 2.648 3.895zm8.278.114c-.84 0-1.494-.207-1.96-.623-.467-.416-.7-1.052-.7-1.91v-4.072h-2.164v-1.145h2.164v-2.546h1.272v2.546h3.31v1.145h-3.31v3.958c0 .492.123.857.37 1.095.246.237.61.356 1.094.356.322 0 .624-.021.904-.063.28-.051.547-.115.802-.191l.254 1.158a7.15 7.15 0 0 1 -.929.203c-.322.06-.692.09-1.107.09zm-31.183 127.886v-1.145h2.545v-5.346h-2.545v-1.145h3.818v6.49h2.545v1.146zm3.182-9.036c-.323 0-.586-.051-.79-.153-.195-.102-.292-.293-.292-.573v-.089c0-.288.097-.484.292-.585.204-.11.467-.166.79-.166.322 0 .58.055.776.166.204.101.305.297.305.585v.09c0 .28-.101.47-.305.572s-.463.153-.776.153zm9.092 9.163c-1.112 0-1.952-.242-2.52-.725-.56-.492-.84-1.214-.84-2.164v-2.062c0-.967.28-1.697.84-2.189.568-.5 1.404-.75 2.507-.75.984 0 1.74.224 2.266.674.534.441.831 1.09.89 1.947l-1.247.077c-.034-.527-.208-.917-.522-1.171-.314-.255-.78-.382-1.4-.382-.695 0-1.213.148-1.552.445-.34.289-.51.738-.51 1.35v2.061c0 .586.17 1.023.51 1.311.347.289.873.433 1.578.433.61 0 1.073-.106 1.387-.318.314-.221.484-.548.51-.98l1.246.076c-.059.78-.352 1.37-.878 1.77-.526.398-1.281.597-2.265.597zm8.736 0c-1.027 0-1.816-.246-2.368-.738-.543-.5-.814-1.217-.814-2.15v-2.063c0-.941.276-1.667.827-2.176.552-.51 1.34-.764 2.367-.764 1.019 0 1.8.255 2.342.764.552.51.828 1.235.828 2.176v2.062c0 .934-.276 1.65-.828 2.151-.543.492-1.328.738-2.354.738zm0-1.145c.645 0 1.124-.144 1.438-.433.314-.288.47-.725.47-1.31v-2.063c0-.61-.156-1.06-.47-1.349-.314-.297-.793-.445-1.438-.445s-1.125.148-1.438.445c-.314.289-.471.738-.471 1.35v2.061c0 .586.156 1.023.47 1.311.314.289.794.433 1.439.433zm5.732 1.018v-7.636h1.273v1.272h.381c.187-.432.48-.772.879-1.018a2.477 2.477 0 0 1 1.361-.382c.764 0 1.366.234 1.808.7.44.467.662 1.103.662 1.91v5.154h-1.273v-4.9c0-.535-.132-.942-.395-1.222-.254-.288-.623-.433-1.107-.433-.382 0-.772.115-1.17.344-.391.23-.773.56-1.146.993v5.218zm-22.3 104.115c-.84 0-1.494-.208-1.96-.624-.467-.416-.7-1.052-.7-1.91v-4.072h-2.164v-1.145h2.164v-2.546h1.272v2.546h3.31v1.145h-3.31v3.958c0 .492.123.857.37 1.095.245.237.61.356 1.094.356.322 0 .624-.021.904-.063.28-.051.547-.115.801-.191l.255 1.158a7.15 7.15 0 0 1 -.93.204c-.322.059-.69.089-1.106.089zm10.86-1.795c-.228.636-.576 1.099-1.043 1.387-.466.28-1.183.42-2.15.42-1.01 0-1.795-.241-2.355-.725-.56-.492-.84-1.218-.84-2.177v-2.049c0-.984.293-1.718.878-2.201.594-.493 1.366-.739 2.316-.739.96 0 1.727.25 2.304.751.577.492.865 1.252.865 2.278v1.171h-5.09v.802c0 .637.157 1.099.47 1.387.323.28.802.42 1.439.42.61 0 1.056-.084 1.336-.254s.492-.446.636-.827l1.235.356zm-5.115-3.144v.306h3.818v-.191c0-.687-.162-1.188-.484-1.502-.314-.314-.789-.47-1.425-.47-.637 0-1.116.152-1.439.457-.314.297-.47.764-.47 1.4zm12.718 4.824-1.973-2.915-1.883 2.915h-1.413l2.673-3.83-2.584-3.806h1.425l1.897 2.8 1.922-2.8h1.412l-2.698 3.741 2.648 3.895zm8.278.115c-.84 0-1.494-.208-1.96-.624-.467-.416-.7-1.052-.7-1.91v-4.072h-2.164v-1.145h2.164v-2.546h1.272v2.546h3.31v1.145h-3.31v3.958c0 .492.123.857.37 1.095.246.237.61.356 1.094.356.322 0 .624-.021.904-.063.28-.051.547-.115.802-.191l.254 1.158a7.15 7.15 0 0 1 -.929.204c-.322.059-.692.089-1.107.089zm120.817-310.115v-1.145h2.545v-5.346h-2.545v-1.145h3.818v6.49h2.545v1.146zm3.182-9.036c-.323 0-.586-.051-.79-.153-.195-.102-.292-.293-.292-.573v-.089c0-.288.097-.484.292-.585.204-.11.467-.166.79-.166.322 0 .58.055.776.166.204.101.305.297.305.585v.09c0 .28-.101.47-.305.572s-.463.153-.776.153zm9.092 9.163c-1.112 0-1.952-.242-2.52-.725-.56-.492-.84-1.214-.84-2.164v-2.062c0-.967.28-1.697.84-2.189.568-.5 1.404-.75 2.507-.75.984 0 1.74.224 2.266.674.534.441.831 1.09.89 1.947l-1.247.077c-.034-.527-.208-.917-.522-1.171-.314-.255-.78-.382-1.4-.382-.695 0-1.213.148-1.552.445-.34.289-.51.738-.51 1.35v2.061c0 .586.17 1.023.51 1.311.347.289.873.433 1.578.433.61 0 1.073-.106 1.387-.318.314-.221.484-.548.51-.98l1.246.076c-.059.78-.352 1.37-.878 1.77-.526.398-1.281.597-2.265.597zm8.736 0c-1.027 0-1.816-.246-2.368-.738-.543-.5-.814-1.217-.814-2.15v-2.063c0-.941.276-1.667.827-2.176.552-.51 1.34-.764 2.367-.764 1.019 0 1.8.255 2.342.764.552.51.828 1.235.828 2.176v2.062c0 .934-.276 1.65-.828 2.151-.543.492-1.328.738-2.354.738zm0-1.145c.645 0 1.124-.144 1.438-.433.314-.288.47-.725.47-1.31v-2.063c0-.61-.156-1.06-.47-1.349-.314-.297-.793-.445-1.438-.445s-1.125.148-1.438.445c-.314.289-.471.738-.471 1.35v2.061c0 .586.156 1.023.47 1.311.314.289.794.433 1.439.433zm5.732 1.018v-7.636h1.273v1.272h.381c.187-.432.48-.772.879-1.018a2.477 2.477 0 0 1 1.361-.382c.764 0 1.366.234 1.808.7.44.467.662 1.103.662 1.91v5.154h-1.273v-4.9c0-.535-.132-.942-.395-1.222-.254-.288-.623-.433-1.107-.433-.382 0-.772.115-1.17.344-.391.23-.773.56-1.146.993v5.218zm-22.3-25.886c-.84 0-1.494-.207-1.96-.623-.467-.416-.7-1.052-.7-1.91v-4.071h-2.164v-1.145h2.164v-2.546h1.272v2.546h3.31v1.145h-3.31v3.958c0 .492.123.857.37 1.095.245.237.61.356 1.094.356.322 0 .624-.021.904-.063.28-.051.547-.115.801-.191l.255 1.158a7.15 7.15 0 0 1 -.93.203c-.322.06-.69.09-1.106.09zm10.86-1.794c-.228.636-.576 1.099-1.043 1.387-.466.28-1.183.42-2.15.42-1.01 0-1.795-.242-2.355-.725-.56-.492-.84-1.218-.84-2.177v-2.049c0-.984.293-1.718.878-2.201.594-.493 1.366-.739 2.316-.739.96 0 1.727.25 2.304.751.577.492.865 1.252.865 2.278v1.171h-5.09v.802c0 .637.157 1.099.47 1.387.323.28.802.42 1.439.42.61 0 1.056-.084 1.336-.254s.492-.446.636-.827l1.235.356zm-5.115-3.144v.306h3.818v-.191c0-.687-.162-1.188-.484-1.502-.314-.314-.789-.47-1.425-.47-.637 0-1.116.152-1.439.457-.314.297-.47.764-.47 1.4zm12.718 4.824-1.973-2.915-1.882 2.915h-1.413l2.673-3.83-2.584-3.806h1.425l1.897 2.8 1.922-2.8h1.412l-2.698 3.741 2.648 3.895h-1.426zm8.278.114c-.84 0-1.494-.207-1.96-.623-.467-.416-.7-1.052-.7-1.91v-4.071h-2.164v-1.145h2.164v-2.546h1.272v2.546h3.31v1.145h-3.31v3.958c0 .492.123.857.37 1.095.246.237.61.356 1.094.356.322 0 .624-.021.904-.063.28-.051.547-.115.802-.191l.254 1.158a7.15 7.15 0 0 1 -.929.203c-.322.06-.692.09-1.107.09zm-321.749-4.407a1 1 0 0 0 0-1.414l-6.364-6.364a1 1 0 1 0 -1.414 1.414l5.657 5.657-5.657 5.657a1 1 0 0 0 1.414 1.414zm-58.707.293h58v-2h-58z"/><path d="m146.207 296.207a1 1 0 0 0 0-1.414l-6.364-6.364a1 1 0 1 0 -1.414 1.414l5.657 5.657-5.657 5.657a1 1 0 1 0 1.414 1.414zm-58.207-233.207c3.643 0 6.772-.023 9.505.163 2.729.185 4.983.575 6.877 1.362 3.673 1.527 6.252 4.664 8.024 11.658 1.782 7.036 2.688 17.762 3.141 34.15.453 16.364.453 38.285.453 67.667h2c0-29.369 0-51.323-.453-67.723-.453-16.378-1.36-27.309-3.203-34.585-1.853-7.319-4.711-11.15-9.194-13.014-2.185-.908-4.689-1.319-7.51-1.51-2.818-.193-6.033-.168-9.64-.168zm28 115c0 29.37 0 51.416.446 67.957.445 16.52 1.336 27.633 3.145 35.091 1.816 7.49 4.613 11.508 9.016 13.525 2.153.986 4.62 1.46 7.402 1.694 2.778.234 5.941.233 9.491.233v-2c-3.575 0-6.646 0-9.323-.226-2.674-.225-4.882-.669-6.737-1.519-3.612-1.655-6.16-4.979-7.906-12.178-1.753-7.229-2.644-18.147-3.09-34.674-.444-16.507-.444-38.522-.444-67.903zm159.707-115.293a1 1 0 0 0 0-1.414l-6.364-6.364a1 1 0 1 0 -1.414 1.414l5.657 5.657-5.657 5.657a1 1 0 0 0 1.414 1.414zm-66.707.293h66v-2h-66z"/><path d="m276.207 168.207a1 1 0 0 0 0-1.414l-6.364-6.364a1 1 0 0 0 -1.414 1.414l5.657 5.657-5.657 5.657a1 1 0 1 0 1.414 1.414zm-58.207-105.207c7.299 0 12.618-.038 16.581.706 3.88.729 6.294 2.177 7.922 5.08 1.69 3.016 2.593 7.703 3.046 15.1.45 7.364.451 17.239.451 30.525h2c0-13.259 0-23.207-.455-30.647-.454-7.408-1.364-12.506-3.298-15.956-1.997-3.564-5.02-5.264-9.297-6.068-4.193-.787-9.749-.74-16.95-.74zm28 51.41c0 13.26 0 23.25.447 30.753.446 7.471 1.34 12.646 3.234 16.174 1.955 3.641 4.918 5.44 9.14 6.313 4.132.855 9.598.85 16.679.85v-2c-7.17 0-12.39-.005-16.274-.809-3.794-.785-6.174-2.305-7.782-5.3-1.669-3.108-2.556-7.888-3-15.347-.444-7.43-.444-17.348-.444-30.633h-2zm29.707 181.298a1 1 0 0 0 0-1.414l-6.364-6.364a1 1 0 1 0 -1.414 1.414l5.657 5.657-5.657 5.657a1 1 0 0 0 1.414 1.414zm-53.707.293h53v-2h-53z"/><path d="m276.207 399.208a1 1 0 0 0 0-1.414l-6.364-6.364a1 1 0 0 0 -1.414 1.414l5.657 5.657-5.657 5.657a1 1 0 1 0 1.414 1.414zm-58.207-103.208c7.298 0 12.62-.037 16.584.694 3.886.716 6.299 2.139 7.923 4.98 1.687 2.954 2.59 7.545 3.042 14.8.45 7.223.451 16.91.451 29.944h2c0-13.006 0-22.768-.455-30.068-.454-7.268-1.364-12.277-3.302-15.668-2-3.502-5.025-5.168-9.296-5.955-4.192-.772-9.745-.727-16.947-.727zm28 50.418c0 13.007 0 22.81.447 30.171.446 7.331 1.34 12.414 3.238 15.882 1.958 3.578 4.924 5.34 9.14 6.196 4.13.839 9.594.834 16.675.834v-2c-7.169 0-12.392-.005-16.278-.794-3.8-.771-6.178-2.264-7.782-5.196-1.665-3.043-2.552-7.726-2.997-15.043-.443-7.287-.443-17.016-.443-30.05zm181.628-283.209a1 1 0 0 0 0-1.414l-6.364-6.364a1 1 0 1 0 -1.414 1.414l5.657 5.657-5.657 5.657a1 1 0 0 0 1.414 1.414zm-73.628.293h72.921v-2h-72.921z"/><path d="m428.207 87.71a1 1 0 0 0 0-1.415l-6.364-6.364a1 1 0 0 0 -1.414 1.414l5.657 5.657-5.657 5.657a1 1 0 0 0 1.414 1.414l6.364-6.364zm-67.262-24.21c9.59 0 16.694-.03 21.98 1.427 2.61.719 4.726 1.79 6.451 3.378 1.726 1.588 3.116 3.742 4.196 6.709l1.88-.684c-1.165-3.198-2.71-5.647-4.722-7.497-2.011-1.85-4.434-3.052-7.273-3.835-5.612-1.546-13.048-1.498-22.512-1.498zm32.627 11.514c1.151 3.162 2.523 5.61 4.313 7.478 1.8 1.877 3.973 3.113 6.638 3.925 5.239 1.595 12.55 1.584 22.977 1.584v-2c-10.572 0-17.512-.01-22.395-1.498-2.395-.73-4.252-1.805-5.776-3.395-1.535-1.601-2.784-3.775-3.877-6.778z"/></g></svg>