<svg fill="none" height="512" width="512" xmlns="http://www.w3.org/2000/svg"><g fill="#000"><path d="m59.715 91.114c-.84 0-1.494-.207-1.96-.623-.467-.416-.7-1.052-.7-1.91v-4.071h-2.165v-1.145h2.164v-2.546h1.272v2.546h3.31v1.145h-3.31v3.958c0 .492.123.857.37 1.095.245.237.61.356 1.094.356.322 0 .624-.021.904-.063.28-.051.547-.115.801-.191l.255 1.158a7.15 7.15 0 0 1 -.93.203c-.322.06-.69.09-1.106.09zm4.472-.114v-10.182h1.273v3.818h.381c.187-.432.48-.772.879-1.018a2.476 2.476 0 0 1 1.361-.382c.764 0 1.366.234 1.808.7.44.467.661 1.1.661 1.897v5.167h-1.272v-4.9c0-.535-.132-.942-.395-1.222-.254-.288-.623-.433-1.107-.433-.382 0-.772.115-1.171.344-.39.23-.772.56-1.145.993v5.218zm15.303-1.68c-.23.636-.577 1.099-1.044 1.387-.466.28-1.183.42-2.15.42-1.01 0-1.795-.242-2.355-.725-.56-.492-.84-1.218-.84-2.177v-2.049c0-.984.293-1.718.878-2.201.594-.493 1.366-.739 2.316-.739.96 0 1.727.25 2.304.751.577.492.866 1.252.866 2.278v1.171h-5.091v.802c0 .637.157 1.099.47 1.387.323.28.802.42 1.439.42.61 0 1.056-.084 1.336-.254s.492-.446.636-.827zm-5.116-3.144v.306h3.818v-.191c0-.687-.161-1.188-.484-1.502-.314-.314-.789-.47-1.425-.47-.637 0-1.116.152-1.438.457-.314.297-.471.764-.471 1.4zm90.259 4.951c-1.112 0-1.952-.241-2.52-.725-.56-.492-.84-1.214-.84-2.164v-2.062c0-.967.28-1.697.84-2.189.568-.5 1.404-.75 2.507-.75.984 0 1.74.224 2.265.674.535.441.832 1.09.891 1.947l-1.247.077c-.034-.527-.208-.917-.522-1.171-.314-.255-.78-.382-1.4-.382-.695 0-1.213.148-1.552.445-.34.289-.51.738-.51 1.35v2.061c0 .586.17 1.023.51 1.311.347.289.873.433 1.578.433.61 0 1.073-.106 1.387-.318.314-.221.484-.548.51-.98l1.246.076c-.059.78-.352 1.37-.878 1.77-.526.398-1.281.597-2.265.597zm7.82-1.094c.44 0 .848-.077 1.221-.23.373-.16.696-.436.967-.827v-1.221h-2.29c-.365 0-.67.084-.917.254-.237.161-.356.45-.356.866 0 .364.101.649.305.852.212.204.569.306 1.07.306zm-.166 1.094a3.05 3.05 0 0 1 -1.731-.509c-.5-.348-.751-.903-.751-1.667 0-.67.216-1.196.65-1.578a2.281 2.281 0 0 1 1.54-.573h2.646v-1.095c0-.407-.135-.73-.407-.967s-.683-.356-1.235-.356c-.56 0-.98.085-1.26.254-.271.162-.487.526-.649 1.095l-1.12-.306c.145-.72.467-1.264.968-1.629.509-.373 1.188-.56 2.036-.56.84 0 1.54.191 2.1.573.56.373.84.955.84 1.744v3.41c0 .459.127.747.382.866.254.11.636.123 1.145.038v1.171a3.355 3.355 0 0 1 -1.489-.102c-.458-.152-.708-.555-.75-1.209h-.255c-.238.39-.594.722-1.07.993a3.15 3.15 0 0 1 -1.59.407zm11.256-.012c-.84 0-1.494-.208-1.96-.624-.467-.416-.7-1.052-.7-1.91v-4.071h-2.164v-1.145h2.164v-2.546h1.272v2.546h3.31v1.145h-3.31v3.958c0 .492.123.857.37 1.095.245.237.61.356 1.094.356.323 0 .624-.021.904-.063.28-.051.547-.115.801-.191l.255 1.158a7.146 7.146 0 0 1 -.93.203c-.321.06-.69.09-1.106.09zm-19.47 231.803c.415 0 .81-.11 1.183-.33.374-.221.743-.556 1.108-1.006v-3.742a3.055 3.055 0 0 0 -.84-.356 3.46 3.46 0 0 0 -.955-.128c-.687 0-1.196.153-1.527.459-.331.297-.497.75-.497 1.361v2.05c0 .568.128.992.382 1.272.255.28.637.42 1.146.42zm1.909-.19a2.52 2.52 0 0 1 -.917 1.03c-.39.246-.827.37-1.31.37-.79 0-1.4-.255-1.833-.764-.433-.51-.65-1.222-.65-2.139v-2.074c0-.925.29-1.642.866-2.151.577-.51 1.383-.764 2.418-.764.297 0 .603.034.917.102.314.06.61.144.89.255v-2.775h1.273v10.182h-1.272v-1.273h-.382zm6.47.305c.442 0 .849-.077 1.222-.23.373-.16.696-.436.967-.827v-1.221h-2.29c-.365 0-.67.084-.917.254-.237.161-.356.45-.356.866 0 .364.101.649.305.852.212.204.569.306 1.07.306zm-.165 1.094a3.05 3.05 0 0 1 -1.731-.509c-.5-.348-.751-.903-.751-1.667 0-.67.216-1.196.65-1.578a2.281 2.281 0 0 1 1.54-.573h2.646v-1.095c0-.407-.135-.73-.407-.967s-.683-.356-1.235-.356c-.56 0-.98.085-1.26.254-.271.162-.487.526-.649 1.095l-1.12-.306c.145-.72.467-1.264.968-1.629.509-.373 1.188-.56 2.036-.56.84 0 1.54.191 2.1.573.56.373.84.955.84 1.744v3.41c0 .459.127.747.382.866.254.11.636.123 1.145.038v1.171a3.355 3.355 0 0 1 -1.489-.102c-.458-.152-.708-.555-.75-1.209h-.255c-.238.39-.594.722-1.07.993a3.15 3.15 0 0 1 -1.59.407zm7.73 2.495c-.203 0-.403-.013-.598-.038a8.004 8.004 0 0 1 -.598-.102l.216-1.133c.22.051.425.09.611.115.195.025.374.038.535.038.39 0 .734-.11 1.03-.331.306-.22.54-.573.7-1.056l.039-.115h-.471l-2.711-7.636h1.387l2.151 6.567 2.138-6.567h1.337l-2.8 7.89c-.289.824-.683 1.422-1.184 1.795-.492.382-1.086.573-1.782.573zm90.256-235.622v-1.145h2.545v-5.346h-2.545v-1.145h3.818v6.49h2.545v1.146zm3.182-9.036c-.323 0-.586-.051-.79-.153-.195-.102-.292-.293-.292-.573v-.089c0-.288.097-.484.292-.585.204-.11.467-.166.79-.166.322 0 .58.055.776.166.204.101.305.297.305.585v.09c0 .28-.101.47-.305.572s-.463.153-.776.153zm9.015 9.163a6.287 6.287 0 0 1 -1.87-.28 5.37 5.37 0 0 1 -1.668-.89l.573-1.006c.416.34.878.598 1.387.776.518.17 1.044.255 1.578.255.442 0 .862-.068 1.26-.204.408-.136.611-.424.611-.865 0-.365-.165-.624-.496-.777-.33-.152-.938-.284-1.82-.394-.933-.11-1.642-.327-2.125-.65-.476-.33-.713-.848-.713-1.552 0-.764.288-1.336.865-1.718.577-.39 1.248-.586 2.011-.586.603 0 1.18.102 1.731.306.56.203 1.078.492 1.553.865l-.573 1.006a5.078 5.078 0 0 0 -1.273-.751 3.775 3.775 0 0 0 -1.438-.28c-.407 0-.78.076-1.12.229-.33.153-.496.433-.496.84 0 .348.153.602.458.764.314.152.912.284 1.795.394.967.11 1.692.348 2.176.713.484.356.725.857.725 1.502 0 .797-.322 1.383-.967 1.756-.645.365-1.366.547-2.164.547zm-15.197 104.873v-10.182h1.272v3.818h.382c.187-.432.48-.772.878-1.018a2.476 2.476 0 0 1 1.362-.382c.764 0 1.366.234 1.808.7.44.467.661 1.1.661 1.897v5.167h-1.272v-4.9c0-.535-.132-.942-.395-1.222-.254-.288-.624-.433-1.107-.433-.382 0-.772.115-1.171.344-.39.23-.772.56-1.146.993v5.218zm11.18-.967c.44 0 .848-.077 1.221-.23.373-.16.696-.436.967-.827v-1.221h-2.29c-.365 0-.67.084-.917.254-.238.161-.356.45-.356.866 0 .364.102.649.305.852.212.204.569.306 1.07.306zm-.166 1.094a3.05 3.05 0 0 1 -1.731-.509c-.5-.348-.751-.903-.751-1.667 0-.67.216-1.196.65-1.578a2.281 2.281 0 0 1 1.54-.573h2.646v-1.095c0-.407-.135-.73-.407-.967-.271-.237-.683-.356-1.234-.356-.56 0-.98.085-1.26.254-.272.162-.488.526-.65 1.095l-1.12-.306c.145-.72.467-1.264.968-1.629.509-.373 1.188-.56 2.036-.56.84 0 1.54.191 2.1.573.56.373.84.955.84 1.744v3.41c0 .459.127.747.382.866.254.11.636.123 1.145.038v1.171a3.355 3.355 0 0 1 -1.489-.102c-.458-.152-.708-.555-.75-1.209h-.255c-.238.39-.594.721-1.07.993a3.15 3.15 0 0 1 -1.59.407zm10.098 0a6.286 6.286 0 0 1 -1.871-.28 5.37 5.37 0 0 1 -1.668-.89l.573-1.006c.416.34.878.598 1.387.776.518.17 1.044.255 1.578.255.442 0 .862-.068 1.26-.204.408-.136.611-.424.611-.865 0-.365-.165-.624-.496-.777-.33-.152-.938-.284-1.82-.394-.933-.11-1.642-.327-2.125-.65-.476-.33-.713-.848-.713-1.552 0-.764.288-1.336.865-1.718.577-.39 1.248-.586 2.011-.586.603 0 1.18.102 1.731.306.56.203 1.078.492 1.553.865l-.573 1.006a5.077 5.077 0 0 0 -1.273-.751 3.776 3.776 0 0 0 -1.438-.28c-.407 0-.78.076-1.12.229-.33.153-.496.433-.496.84 0 .348.153.602.458.764.314.152.912.284 1.795.394.967.11 1.692.348 2.176.713.484.356.725.857.725 1.502 0 .797-.322 1.383-.967 1.756-.645.365-1.366.547-2.164.547zm-18.112 127.873v-1.145h2.545v-5.346h-2.545v-1.145h3.818v6.49h2.545v1.146zm3.182-9.036c-.323 0-.586-.051-.79-.153-.195-.102-.292-.293-.292-.573v-.089c0-.288.097-.484.292-.585.204-.11.467-.166.79-.166.322 0 .58.055.776.166.204.101.305.297.305.585v.09c0 .28-.101.47-.305.572s-.463.153-.776.153zm9.015 9.163a6.287 6.287 0 0 1 -1.87-.28 5.37 5.37 0 0 1 -1.668-.89l.573-1.006c.416.34.878.598 1.387.776.518.17 1.044.255 1.578.255.442 0 .862-.068 1.26-.204.408-.136.611-.424.611-.865 0-.365-.165-.624-.496-.777-.33-.152-.938-.284-1.82-.394-.933-.11-1.642-.327-2.125-.65-.476-.33-.713-.848-.713-1.552 0-.764.288-1.336.865-1.718.577-.39 1.248-.586 2.011-.586.603 0 1.18.102 1.731.306.56.203 1.078.492 1.553.865l-.573 1.006a5.078 5.078 0 0 0 -1.273-.751 3.775 3.775 0 0 0 -1.438-.28c-.407 0-.78.076-1.12.229-.33.153-.496.433-.496.84 0 .348.153.602.458.764.314.152.912.284 1.795.394.967.11 1.692.348 2.176.713.484.356.725.857.725 1.502 0 .797-.322 1.383-.967 1.756-.645.365-1.366.547-2.164.547zm-15.197 103.873v-10.182h1.272v3.818h.382c.187-.432.48-.772.878-1.018a2.476 2.476 0 0 1 1.362-.382c.764 0 1.366.234 1.808.7.44.467.661 1.1.661 1.897v5.167h-1.272v-4.9c0-.535-.132-.942-.395-1.222-.254-.288-.624-.433-1.107-.433-.382 0-.772.115-1.171.344-.39.23-.772.56-1.146.993v5.218zm11.18-.967c.44 0 .848-.077 1.221-.23.373-.16.696-.436.967-.827v-1.221h-2.29c-.365 0-.67.084-.917.254-.238.161-.356.45-.356.866 0 .364.102.649.305.852.212.204.569.306 1.07.306zm-.166 1.094a3.05 3.05 0 0 1 -1.731-.509c-.5-.348-.751-.903-.751-1.667 0-.67.216-1.196.65-1.578a2.281 2.281 0 0 1 1.54-.573h2.646v-1.095c0-.407-.135-.73-.407-.967-.271-.237-.683-.356-1.234-.356-.56 0-.98.085-1.26.254-.272.162-.488.526-.65 1.095l-1.12-.306c.145-.72.467-1.264.968-1.629.509-.373 1.188-.56 2.036-.56.84 0 1.54.191 2.1.573.56.373.84.955.84 1.744v3.41c0 .459.127.747.382.866.254.11.636.123 1.145.038v1.171a3.355 3.355 0 0 1 -1.489-.102c-.458-.152-.708-.555-.75-1.209h-.255c-.238.39-.594.722-1.07.993a3.15 3.15 0 0 1 -1.59.407zm10.098 0a6.286 6.286 0 0 1 -1.871-.28 5.37 5.37 0 0 1 -1.668-.89l.573-1.006c.416.34.878.598 1.387.776.518.17 1.044.255 1.578.255.442 0 .862-.068 1.26-.204.408-.136.611-.424.611-.865 0-.365-.165-.624-.496-.777-.33-.152-.938-.284-1.82-.394-.933-.11-1.642-.327-2.125-.65-.476-.33-.713-.848-.713-1.552 0-.764.288-1.336.865-1.718.577-.39 1.248-.586 2.011-.586.603 0 1.18.102 1.731.306.56.203 1.078.492 1.553.865l-.573 1.006a5.077 5.077 0 0 0 -1.273-.751 3.776 3.776 0 0 0 -1.438-.28c-.407 0-.78.076-1.12.229-.33.153-.496.433-.496.84 0 .348.153.602.458.764.314.152.912.284 1.795.394.967.11 1.692.348 2.176.713.484.356.725.857.725 1.502 0 .797-.322 1.383-.967 1.756-.645.365-1.366.547-2.164.547zm92.968-310a5.82 5.82 0 0 1 -1.578-.229 5.697 5.697 0 0 1 -1.502-.662v-9.418h1.272v3.818h.382a2.52 2.52 0 0 1 .917-1.03c.39-.247.827-.37 1.31-.37.79 0 1.4.255 1.833.764.433.51.65 1.222.65 2.138v2.075c0 .925-.29 1.642-.866 2.15-.577.51-1.383.764-2.418.764zm-.013-1.12c.687 0 1.196-.148 1.527-.445.331-.306.497-.764.497-1.375v-2.036c0-.577-.128-1.006-.382-1.286-.255-.28-.637-.42-1.146-.42-.415 0-.81.11-1.183.331-.374.221-.743.556-1.108 1.006v3.742c.272.16.552.284.84.369.297.076.616.114.955.114zm5.847.993v-1.145h2.545v-7.891h-2.545v-1.146h3.818v9.037h2.545v1.145zm11.18-.967c.44 0 .848-.077 1.221-.23.374-.16.696-.436.967-.827v-1.221h-2.29c-.365 0-.67.084-.917.254-.237.161-.356.45-.356.866 0 .364.102.649.305.852.212.204.569.306 1.07.306zm-.166 1.094a3.05 3.05 0 0 1 -1.731-.509c-.5-.348-.751-.903-.751-1.667 0-.67.216-1.196.65-1.578a2.281 2.281 0 0 1 1.54-.573h2.646v-1.095c0-.407-.135-.73-.407-.967-.271-.237-.683-.356-1.234-.356-.56 0-.98.085-1.26.254-.272.162-.488.526-.65 1.095l-1.12-.306c.145-.72.467-1.264.968-1.629.509-.373 1.188-.56 2.036-.56.84 0 1.54.191 2.1.573.56.373.84.955.84 1.744v3.41c0 .459.127.747.382.866.255.11.636.123 1.145.038v1.171a3.355 3.355 0 0 1 -1.489-.102c-.458-.152-.708-.555-.75-1.209h-.255c-.238.39-.594.722-1.07.993a3.15 3.15 0 0 1 -1.59.407zm10.174 0c-1.112 0-1.952-.241-2.52-.725-.56-.492-.84-1.214-.84-2.164v-2.062c0-.967.28-1.697.84-2.189.568-.5 1.404-.75 2.507-.75.984 0 1.74.224 2.266.674.534.441.831 1.09.89 1.947l-1.247.077c-.034-.527-.208-.917-.521-1.171-.314-.255-.781-.382-1.4-.382-.696 0-1.214.148-1.553.445-.34.289-.51.738-.51 1.35v2.061c0 .586.17 1.023.51 1.311.348.289.874.433 1.578.433.61 0 1.073-.106 1.387-.318.314-.221.484-.548.51-.98l1.247.076c-.06.78-.353 1.37-.879 1.77-.526.398-1.28.597-2.265.597zm7.463-3.602v3.475h-1.273v-10.182h1.273v5.638h.65l2.443-3.092h1.553l-2.991 3.55 2.952 4.086h-1.45l-2.508-3.475zm-36.648-19.903c-.205 0-.404-.013-.6-.038a8.004 8.004 0 0 1 -.597-.102l.216-1.133c.22.051.424.09.611.115.195.025.373.038.535.038.39 0 .733-.11 1.03-.331.306-.22.54-.573.7-1.056l.039-.115h-.471l-2.711-7.636h1.387l2.151 6.567 2.138-6.567h1.337l-2.8 7.89c-.289.824-.683 1.422-1.184 1.795-.492.382-1.086.573-1.782.573zm11.179-2.495c-1.027 0-1.816-.246-2.368-.738-.543-.5-.814-1.217-.814-2.15v-2.063c0-.941.275-1.667.827-2.176.552-.51 1.34-.764 2.367-.764 1.019 0 1.8.255 2.342.764.552.51.827 1.235.827 2.176v2.062c0 .934-.275 1.65-.827 2.151-.543.492-1.328.738-2.354.738zm0-1.145c.644 0 1.124-.144 1.438-.433.314-.288.47-.725.47-1.31v-2.063c0-.61-.156-1.06-.47-1.349-.314-.297-.794-.445-1.438-.445-.645 0-1.125.148-1.439.445-.313.289-.47.738-.47 1.35v2.061c0 .586.157 1.023.47 1.311.314.289.794.433 1.439.433zm8.2 1.145c-.737 0-1.335-.237-1.794-.713-.45-.483-.674-1.115-.674-1.896v-5.154h1.273v4.9c0 .56.123.975.369 1.247.246.271.623.407 1.132.407.4 0 .785-.106 1.159-.318.381-.22.767-.56 1.158-1.018v-5.218h1.272v7.636h-1.272v-1.273h-.382a2.235 2.235 0 0 1 -.891 1.018 2.495 2.495 0 0 1 -1.35.382zm6.446-.127v-7.636h1.273v1.272h.381c.187-.432.48-.772.879-1.018a2.477 2.477 0 0 1 1.361-.382c.764 0 1.366.234 1.808.7.44.467.662 1.103.662 1.91v5.154h-1.273v-4.9c0-.535-.132-.942-.395-1.222-.254-.288-.623-.433-1.107-.433-.382 0-.772.115-1.17.344-.391.23-.773.56-1.146.993v5.218zm15.914.61c0 .688-.255 1.201-.764 1.54-.5.349-1.115.523-1.845.523h-2.393c-.763 0-1.396-.153-1.896-.459-.492-.305-.738-.776-.738-1.412 0-.408.106-.73.318-.968.22-.246.539-.386.954-.42v-.267a1.333 1.333 0 0 1 -.738-.369c-.187-.195-.28-.496-.28-.903 0-.365.115-.692.344-.98.229-.297.615-.467 1.158-.51v-.241c-.416-.136-.696-.34-.84-.611a1.752 1.752 0 0 1 -.216-.802v-.344c0-.585.25-1.069.75-1.45.501-.382 1.205-.573 2.113-.573h3.755v1.145l-1.973-.293v.23c.34.093.594.271.764.534.178.263.267.526.267.79v.33a1.75 1.75 0 0 1 -.675 1.425c-.45.357-1.179.535-2.189.535h-1.54c-.229 0-.403.06-.522.178-.118.11-.178.301-.178.573 0 .263.08.462.242.598.17.127.42.191.751.191h2.89c.712 0 1.302.157 1.768.47.475.315.713.828.713 1.54zm-4.073-4.517c.518 0 .912-.094 1.184-.28.271-.187.407-.48.407-.878v-.408c0-.399-.136-.687-.407-.865-.272-.187-.666-.28-1.184-.28-.517 0-.912.093-1.183.28-.272.178-.408.466-.408.865v.408c0 .398.136.691.408.878.271.186.666.28 1.183.28zm-.954 5.561h2.583c.382 0 .692-.072.93-.216.237-.144.356-.394.356-.75 0-.34-.11-.582-.331-.726-.212-.144-.488-.217-.827-.217h-4.048v.866c0 .348.115.607.344.776.23.178.56.267.993.267zm-36.712-25.032c-.205 0-.404-.013-.6-.038a8.004 8.004 0 0 1 -.597-.102l.216-1.133c.22.051.424.09.611.115.195.025.373.038.535.038.39 0 .733-.11 1.03-.331.306-.22.54-.573.7-1.056l.039-.115h-.471l-2.711-7.636h1.387l2.151 6.567 2.138-6.567h1.337l-2.8 7.89c-.289.824-.683 1.422-1.184 1.795-.492.382-1.086.573-1.782.573zm10.262-3.59c.442 0 .849-.076 1.222-.228.373-.162.696-.437.967-.828v-1.221h-2.29c-.365 0-.67.084-.917.254-.238.161-.356.45-.356.866 0 .364.102.649.305.852.212.204.569.306 1.07.306zm-.165 1.095a3.05 3.05 0 0 1 -1.731-.509c-.5-.348-.751-.903-.751-1.667 0-.67.216-1.196.65-1.578a2.281 2.281 0 0 1 1.54-.573h2.646v-1.095c0-.407-.135-.73-.407-.967-.271-.237-.683-.356-1.234-.356-.56 0-.98.085-1.26.254-.272.162-.488.526-.65 1.095l-1.12-.306c.145-.72.467-1.264.968-1.629.509-.373 1.188-.56 2.036-.56.84 0 1.54.191 2.1.573.56.373.84.955.84 1.744v3.41c0 .459.127.747.382.866.254.11.636.123 1.145.038v1.171a3.355 3.355 0 0 1 -1.489-.102c-.458-.152-.708-.555-.75-1.209h-.255c-.238.39-.594.721-1.07.993a3.15 3.15 0 0 1 -1.59.407zm11.116-.127-1.12-4.976-1.07 4.976h-1.45l-1.438-7.636h1.221l.968 6.707.992-5.435h1.502l1.082 5.231.929-6.503h1.222l-1.438 7.636zm4.612 0v-7.636h1.273v1.272h.381c.187-.432.48-.772.879-1.018a2.477 2.477 0 0 1 1.361-.382c.764 0 1.366.234 1.808.7.44.467.662 1.103.662 1.91v5.154h-1.273v-4.9c0-.535-.132-.942-.395-1.222-.254-.288-.623-.433-1.107-.433-.382 0-.772.115-1.17.344-.391.23-.773.56-1.146.993v5.218zm8.914 0v-1.145h2.545v-5.346h-2.545v-1.145h3.818v6.49h2.546v1.146zm3.182-9.036c-.323 0-.586-.051-.79-.153-.194-.102-.292-.293-.292-.573v-.089c0-.288.098-.484.293-.585.203-.11.466-.166.789-.166.322 0 .581.055.776.166.204.101.306.297.306.585v.09c0 .28-.102.47-.306.572-.203.102-.462.153-.776.153zm5.732 9.036v-7.636h1.273v1.272h.382c.186-.432.479-.772.878-1.018a2.476 2.476 0 0 1 1.362-.382c.763 0 1.366.234 1.807.7.441.467.662 1.103.662 1.91v5.154h-1.273v-4.9c0-.535-.132-.942-.395-1.222-.254-.288-.623-.433-1.107-.433-.382 0-.772.115-1.17.344-.391.23-.773.56-1.146.993v5.218zm15.914.61c0 .688-.254 1.202-.763 1.54-.501.349-1.116.523-1.846.523h-2.393c-.763 0-1.395-.153-1.896-.458-.492-.306-.738-.777-.738-1.413 0-.408.106-.73.318-.968.22-.245.539-.385.955-.42v-.267a1.333 1.333 0 0 1 -.739-.369c-.186-.195-.28-.496-.28-.903 0-.365.115-.692.344-.98.229-.297.615-.467 1.158-.51v-.241c-.416-.136-.696-.34-.84-.611a1.754 1.754 0 0 1 -.216-.802v-.344c0-.585.25-1.069.75-1.45.501-.382 1.206-.573 2.113-.573h3.755v1.145l-1.973-.293v.23c.34.093.594.271.764.534.178.263.267.526.267.79v.33c0 .585-.225 1.06-.674 1.425-.45.357-1.18.535-2.19.535h-1.54c-.229 0-.403.06-.521.178-.12.11-.178.301-.178.573 0 .263.08.462.241.598.17.127.42.191.751.191h2.89c.712 0 1.302.157 1.768.47.476.315.713.828.713 1.54zm-4.073-4.517c.518 0 .913-.094 1.184-.28.272-.187.407-.48.407-.878v-.408c0-.399-.135-.687-.407-.865-.271-.187-.666-.28-1.184-.28-.517 0-.912.093-1.183.28-.272.178-.407.466-.407.865v.408c0 .398.135.691.407.878.271.186.666.28 1.183.28zm-.954 5.561h2.584c.381 0 .691-.072.929-.216.237-.144.356-.394.356-.75 0-.34-.11-.582-.331-.726-.212-.144-.488-.217-.827-.217h-4.047v.866c0 .348.114.607.343.776.23.178.56.267.993.267zm-49.068 100.666c-.23.636-.577 1.099-1.044 1.387-.466.28-1.183.42-2.15.42-1.01 0-1.795-.242-2.355-.725-.56-.492-.84-1.218-.84-2.177v-2.049c0-.984.292-1.718.878-2.201.594-.493 1.366-.739 2.316-.739.96 0 1.727.25 2.304.751.577.492.865 1.252.865 2.278v1.171h-5.09v.802c0 .637.156 1.099.47 1.387.323.28.802.42 1.439.42.61 0 1.056-.084 1.336-.254s.492-.446.636-.827zm-5.117-3.144v.306h3.819v-.191c0-.687-.162-1.188-.484-1.502-.314-.314-.79-.47-1.425-.47-.637 0-1.116.152-1.439.457-.314.297-.47.764-.47 1.4zm9.907 3.857c.441 0 .849-.077 1.222-.23.373-.16.696-.436.967-.827v-1.221h-2.29c-.365 0-.67.084-.917.254-.238.161-.356.45-.356.866 0 .364.101.649.305.852.212.204.569.306 1.07.306zm-.165 1.094a3.05 3.05 0 0 1 -1.731-.509c-.5-.348-.751-.903-.751-1.667 0-.67.216-1.196.65-1.578a2.281 2.281 0 0 1 1.54-.573h2.646v-1.095c0-.407-.135-.73-.407-.967-.271-.237-.683-.356-1.234-.356-.56 0-.98.085-1.26.254-.272.162-.488.526-.65 1.095l-1.12-.306c.145-.72.467-1.264.968-1.629.509-.373 1.188-.56 2.036-.56.84 0 1.54.191 2.1.573.56.373.84.955.84 1.744v3.41c0 .459.127.747.382.866.254.11.636.123 1.145.038v1.171a3.355 3.355 0 0 1 -1.489-.102c-.458-.152-.708-.555-.75-1.209h-.255c-.238.39-.594.721-1.07.993a3.15 3.15 0 0 1 -1.59.407zm7.45-.127v-7.636h1.273v1.272h.382c.178-.483.45-.835.814-1.056.365-.23.806-.344 1.324-.344.568 0 1.044.191 1.425.573.382.373.573.904.573 1.591v1.145h-1.209v-.687c0-.483-.11-.84-.33-1.069-.213-.229-.54-.344-.98-.344-.4 0-.765.098-1.095.293-.323.195-.624.5-.904.917v5.345zm11.562.127a6.288 6.288 0 0 1 -1.871-.28 5.37 5.37 0 0 1 -1.668-.89l.573-1.006c.416.34.878.598 1.387.776.518.17 1.044.255 1.579.255.44 0 .86-.068 1.26-.204.407-.136.61-.424.61-.865 0-.365-.165-.624-.496-.777-.33-.152-.938-.284-1.82-.394-.933-.11-1.642-.327-2.125-.65-.476-.33-.713-.848-.713-1.552 0-.764.288-1.336.865-1.718.577-.39 1.248-.586 2.011-.586.603 0 1.18.102 1.731.306.56.203 1.078.492 1.553.865l-.573 1.006a5.079 5.079 0 0 0 -1.272-.751 3.776 3.776 0 0 0 -1.439-.28c-.407 0-.78.076-1.12.229-.33.153-.496.433-.496.84 0 .348.153.602.458.764.314.152.912.284 1.795.394.967.11 1.692.348 2.176.713.484.356.725.857.725 1.502 0 .797-.322 1.383-.967 1.756-.645.365-1.366.547-2.163.547zm-26.959 24.88c.713 0 1.226-.144 1.54-.432.322-.289.484-.751.484-1.388v-2.062c0-.585-.123-1.01-.37-1.272-.237-.272-.623-.408-1.158-.408-.424 0-.818.107-1.183.319s-.734.551-1.108 1.018v3.742c.263.16.535.284.815.369.288.076.615.114.98.114zm.013 1.12a4.46 4.46 0 0 1 -.917-.102 4.921 4.921 0 0 1 -.89-.254v2.774h-1.273v-10.181h1.272v1.272h.382c.212-.432.518-.772.917-1.018a2.43 2.43 0 0 1 1.31-.382c.764 0 1.367.263 1.808.79.45.517.674 1.221.674 2.112v2.075c0 .9-.297 1.612-.89 2.138-.586.517-1.384.776-2.393.776zm8.1-1.094c.44 0 .848-.077 1.221-.23.373-.16.696-.436.967-.827v-1.221h-2.29c-.365 0-.67.084-.917.254-.238.161-.356.45-.356.866 0 .364.101.649.305.852.212.204.569.306 1.07.306zm-.166 1.094a3.05 3.05 0 0 1 -1.731-.509c-.5-.348-.751-.903-.751-1.667 0-.67.216-1.196.65-1.578a2.281 2.281 0 0 1 1.54-.573h2.646v-1.095c0-.407-.135-.73-.407-.967-.271-.237-.683-.356-1.234-.356-.56 0-.98.085-1.26.254-.272.162-.488.526-.65 1.095l-1.12-.306c.145-.72.467-1.264.968-1.629.509-.373 1.188-.56 2.036-.56.84 0 1.54.191 2.1.573.56.373.84.955.84 1.744v3.41c0 .459.127.747.382.866.254.11.636.123 1.145.038v1.171a3.355 3.355 0 0 1 -1.489-.102c-.458-.152-.708-.555-.75-1.209h-.255c-.238.39-.594.721-1.07.993a3.15 3.15 0 0 1 -1.59.407zm11.116-.127-1.12-4.976-1.07 4.976h-1.45l-1.438-7.636h1.221l.968 6.707.992-5.435h1.502l1.082 5.231.929-6.503h1.222l-1.438 7.636zm7.896.127a6.288 6.288 0 0 1 -1.871-.28 5.37 5.37 0 0 1 -1.668-.89l.573-1.006c.416.34.878.598 1.387.776.518.17 1.044.255 1.579.255.44 0 .86-.068 1.26-.204.407-.136.61-.424.61-.865 0-.365-.165-.624-.496-.777-.33-.152-.938-.284-1.82-.394-.933-.11-1.642-.327-2.125-.65-.476-.33-.713-.848-.713-1.552 0-.764.288-1.336.865-1.718.577-.39 1.248-.586 2.011-.586.603 0 1.18.102 1.731.306.56.203 1.078.492 1.553.865l-.573 1.006a5.079 5.079 0 0 0 -1.272-.751 3.776 3.776 0 0 0 -1.439-.28c-.407 0-.78.076-1.12.229-.33.153-.496.433-.496.84 0 .348.153.602.458.764.314.152.912.284 1.795.394.967.11 1.692.348 2.176.713.484.356.725.857.725 1.502 0 .797-.322 1.383-.967 1.756-.645.365-1.366.547-2.163.547zm-28.015 28.52c-.323 0-.645-.02-.968-.063a5.602 5.602 0 0 1 -1.03-.217l.254-1.221c.314.11.607.182.878.216.28.042.556.063.827.063.552 0 .997-.118 1.337-.356.34-.229.509-.615.509-1.158v-6.402h-3.564v-1.145h4.837v7.712c0 .874-.297 1.52-.891 1.935-.586.424-1.315.636-2.19.636zm2.405-11.683c-.322 0-.585-.051-.789-.153-.195-.102-.293-.293-.293-.573v-.089c0-.288.098-.484.293-.585.204-.11.467-.166.79-.166.322 0 .58.055.775.166.204.101.306.297.306.585v.09c0 .28-.102.47-.306.572-.203.102-.462.153-.776.153zm6.967 9.163c-.738 0-1.337-.237-1.795-.713-.45-.483-.674-1.115-.674-1.896v-5.154h1.272v4.9c0 .56.123.975.37 1.247.246.271.623.407 1.132.407.4 0 .785-.106 1.158-.318.382-.22.768-.56 1.159-1.018v-5.218h1.272v7.636h-1.272v-1.273h-.382a2.236 2.236 0 0 1 -.891 1.019 2.495 2.495 0 0 1 -1.35.381zm7.107-5.6v5.473h-1.171v-7.636h1.17v1.018h.255c.161-.357.374-.637.637-.84.263-.204.538-.306.827-.306.33 0 .606.102.827.306.23.195.386.475.471.84h.28a2.11 2.11 0 0 1 .65-.84 1.49 1.49 0 0 1 .89-.306c.424 0 .76.174 1.005.522.246.34.37.802.37 1.387v5.855h-1.171v-5.65c0-.383-.051-.671-.153-.866-.102-.196-.25-.293-.446-.293-.16 0-.364.119-.61.356-.238.238-.48.565-.726.98v5.473h-1.17v-5.65c0-.383-.056-.671-.166-.866-.102-.196-.25-.293-.446-.293-.17 0-.369.114-.598.344-.22.229-.462.56-.725.992zm11.32 4.48c.712 0 1.225-.144 1.54-.432.322-.289.483-.751.483-1.388v-2.062c0-.585-.123-1.01-.37-1.272-.237-.272-.623-.408-1.157-.408-.425 0-.82.107-1.184.319-.365.212-.734.551-1.107 1.018v3.742c.263.16.534.284.814.369.289.076.615.114.98.114zm.012 1.12c-.289 0-.594-.034-.916-.102a4.92 4.92 0 0 1 -.891-.254v2.774h-1.273v-10.181h1.273v1.272h.381c.213-.432.518-.772.917-1.018a2.43 2.43 0 0 1 1.31-.382c.764 0 1.367.263 1.808.79.45.517.675 1.221.675 2.112v2.075c0 .9-.297 1.612-.891 2.138-.586.517-1.383.776-2.393.776zm12.223-1.807c-.229.636-.577 1.099-1.044 1.387-.466.28-1.183.42-2.15.42-1.01 0-1.795-.242-2.355-.725-.56-.492-.84-1.218-.84-2.177v-2.049c0-.984.293-1.718.878-2.201.594-.493 1.366-.739 2.317-.739.958 0 1.726.25 2.303.751.577.492.866 1.252.866 2.278v1.171h-5.091v.802c0 .637.157 1.099.47 1.387.323.28.802.42 1.439.42.61 0 1.056-.084 1.336-.254s.492-.446.637-.827zm-5.116-3.144v.306h3.818v-.191c0-.687-.161-1.188-.484-1.502-.314-.314-.789-.47-1.425-.47-.637 0-1.116.152-1.438.457-.314.297-.471.764-.471 1.4zm10.441 3.742c.416 0 .81-.11 1.184-.33.373-.221.742-.556 1.107-1.006v-3.742a3.054 3.054 0 0 0 -.84-.356 3.46 3.46 0 0 0 -.955-.128c-.687 0-1.196.153-1.527.459-.33.297-.496.75-.496 1.361v2.05c0 .568.127.992.382 1.272.254.28.636.42 1.145.42zm1.91-.19a2.52 2.52 0 0 1 -.917 1.03c-.39.246-.827.37-1.311.37-.79 0-1.4-.255-1.833-.764-.433-.51-.649-1.222-.649-2.139v-2.074c0-.925.289-1.642.866-2.151.577-.51 1.383-.764 2.418-.764.297 0 .602.034.916.102.314.06.61.144.89.255v-2.775h1.274v10.182h-1.273v-1.273h-.382zm-46.2 129.399a5.82 5.82 0 0 1 -1.578-.229 5.697 5.697 0 0 1 -1.502-.662v-9.418h1.272v3.818h.382a2.52 2.52 0 0 1 .917-1.03c.39-.247.827-.37 1.31-.37.79 0 1.4.255 1.833.764.433.51.65 1.222.65 2.138v2.075c0 .925-.29 1.642-.866 2.15-.577.51-1.383.764-2.418.764zm-.013-1.12c.687 0 1.196-.148 1.527-.445.331-.306.497-.764.497-1.375v-2.036c0-.577-.128-1.006-.382-1.286-.255-.28-.637-.42-1.146-.42-.415 0-.81.11-1.183.331-.374.221-.743.556-1.108 1.006v3.742c.272.16.552.284.84.369.297.076.616.114.955.114zm12.236-.687c-.23.636-.577 1.099-1.044 1.387-.466.28-1.183.42-2.15.42-1.01 0-1.795-.242-2.355-.725-.56-.492-.84-1.218-.84-2.177v-2.049c0-.984.293-1.718.878-2.201.594-.493 1.366-.739 2.316-.739.96 0 1.727.25 2.304.751.577.492.865 1.252.865 2.278v1.171h-5.09v.802c0 .637.157 1.099.47 1.387.323.28.802.42 1.439.42.61 0 1.056-.084 1.336-.254s.492-.446.636-.827zm-5.116-3.144v.306h3.818v-.191c0-.687-.161-1.188-.484-1.502-.314-.314-.789-.47-1.425-.47-.637 0-1.116.152-1.439.457-.313.297-.47.764-.47 1.4zm14.64 5.435c0 .687-.254 1.2-.763 1.54-.5.348-1.115.522-1.845.522h-2.393c-.764 0-1.396-.153-1.896-.458-.492-.306-.738-.777-.738-1.413 0-.407.106-.73.318-.967.22-.246.539-.386.954-.42v-.268a1.333 1.333 0 0 1 -.738-.369c-.187-.195-.28-.496-.28-.903 0-.365.115-.692.344-.98.229-.297.615-.467 1.158-.51v-.241c-.416-.136-.696-.34-.84-.611a1.752 1.752 0 0 1 -.216-.802v-.344c0-.585.25-1.069.75-1.45.501-.382 1.205-.573 2.113-.573h3.755v1.145l-1.973-.293v.23c.34.093.594.271.764.534.178.263.267.526.267.79v.33a1.75 1.75 0 0 1 -.675 1.425c-.45.357-1.18.535-2.189.535h-1.54c-.229 0-.403.06-.522.178-.118.11-.178.301-.178.573 0 .263.08.462.242.598.17.127.42.191.75.191h2.89c.713 0 1.303.157 1.77.47.474.315.712.828.712 1.54zm-4.072-4.518c.518 0 .912-.094 1.184-.28.271-.187.407-.48.407-.878v-.408c0-.399-.136-.687-.407-.865-.272-.187-.666-.28-1.184-.28s-.912.093-1.184.28c-.271.178-.407.466-.407.865v.408c0 .398.136.691.407.878.272.186.666.28 1.184.28zm-.954 5.561h2.583c.382 0 .692-.072.93-.216.237-.144.356-.394.356-.75 0-.34-.11-.582-.331-.726-.212-.144-.488-.216-.828-.216h-4.047v.865c0 .348.115.607.344.776.229.179.56.268.993.268zm6.94-1.654v-1.145h2.546v-5.346h-2.545v-1.145h3.818v6.49h2.546v1.146h-6.364zm3.183-9.036c-.323 0-.586-.051-.79-.153-.194-.102-.292-.293-.292-.573v-.089c0-.288.097-.484.293-.585.203-.11.466-.166.789-.166.322 0 .58.055.776.166.204.101.306.297.306.585v.09c0 .28-.102.47-.306.572-.203.102-.462.153-.776.153zm5.732 9.036v-7.636h1.273v1.272h.382c.186-.432.479-.772.878-1.018a2.476 2.476 0 0 1 1.362-.382c.763 0 1.366.234 1.807.7.441.467.662 1.103.662 1.91v5.154h-1.273v-4.9c0-.535-.132-.942-.395-1.222-.254-.288-.623-.433-1.107-.433-.382 0-.772.115-1.17.344-.391.23-.773.56-1.146.993v5.218zm8.914 0v-7.636h1.273v1.272h.382c.186-.432.479-.772.878-1.018a2.476 2.476 0 0 1 1.362-.382c.763 0 1.366.234 1.807.7.441.467.662 1.103.662 1.91v5.154h-1.273v-4.9c0-.535-.132-.942-.395-1.222-.254-.288-.623-.433-1.107-.433-.382 0-.772.115-1.17.344-.391.23-.773.56-1.146.993v5.218zm8.914 0v-1.145h2.546v-5.346h-2.546v-1.145h3.818v6.49h2.546v1.146zm3.182-9.036c-.322 0-.585-.051-.79-.153-.194-.102-.292-.293-.292-.573v-.089c0-.288.098-.484.293-.585.204-.11.467-.166.789-.166s.581.055.776.166c.204.101.306.297.306.585v.09c0 .28-.102.47-.306.572-.203.102-.462.153-.776.153zm5.731 9.036v-7.636h1.273v1.272h.382c.186-.432.48-.772.878-1.018a2.476 2.476 0 0 1 1.362-.382c.763 0 1.366.234 1.807.7.441.467.662 1.103.662 1.91v5.154h-1.273v-4.9c0-.535-.131-.942-.394-1.222-.255-.288-.624-.433-1.108-.433-.382 0-.772.115-1.17.344-.391.23-.773.56-1.146.993v5.218zm15.914.61c0 .688-.254 1.202-.763 1.54-.501.349-1.116.523-1.846.523h-2.393c-.763 0-1.395-.153-1.896-.458-.492-.306-.738-.777-.738-1.413 0-.407.106-.73.318-.967.22-.246.539-.386.955-.42v-.268a1.333 1.333 0 0 1 -.739-.369c-.186-.195-.28-.496-.28-.903 0-.365.115-.692.344-.98.23-.297.615-.467 1.158-.51v-.241c-.415-.136-.695-.34-.84-.611a1.753 1.753 0 0 1 -.216-.802v-.344c0-.585.25-1.069.75-1.45.501-.382 1.206-.573 2.113-.573h3.755v1.145l-1.973-.293v.23c.34.093.594.271.764.534.178.263.267.526.267.79v.33c0 .585-.225 1.06-.674 1.425-.45.357-1.18.535-2.19.535h-1.54c-.228 0-.402.06-.521.178-.119.11-.178.301-.178.573 0 .263.08.462.241.598.17.127.42.191.751.191h2.89c.712 0 1.302.157 1.769.47.475.315.712.828.712 1.54zm-4.072-4.517c.517 0 .912-.094 1.183-.28.272-.187.407-.48.407-.878v-.408c0-.399-.135-.687-.407-.865-.271-.187-.666-.28-1.183-.28-.518 0-.913.093-1.184.28-.272.178-.407.466-.407.865v.408c0 .398.135.691.407.878.271.186.666.28 1.184.28zm-.955 5.562h2.584c.381 0 .691-.073.929-.217.237-.144.356-.394.356-.75 0-.34-.11-.582-.33-.726-.213-.144-.489-.216-.828-.216h-4.047v.865c0 .348.114.607.343.776.23.179.56.268.993.268zm-70.102-27.528c-1.027 0-1.816-.246-2.368-.738-.543-.5-.814-1.217-.814-2.15v-2.063c0-.941.275-1.667.827-2.176.552-.51 1.34-.764 2.367-.764 1.018 0 1.8.255 2.342.764.552.51.827 1.235.827 2.176v2.062c0 .934-.275 1.65-.827 2.151-.543.492-1.328.738-2.354.738zm0-1.145c.644 0 1.124-.144 1.438-.433.314-.288.47-.725.47-1.31v-2.063c0-.61-.156-1.06-.47-1.349-.314-.297-.794-.445-1.438-.445-.645 0-1.125.148-1.439.445-.314.289-.47.738-.47 1.35v2.061c0 .586.156 1.023.47 1.311.314.289.794.433 1.439.433zm9.703 1.018h-1.591l-2.711-7.636h1.387l2.138 6.605 2.139-6.605h1.349zm11.332-1.68c-.23.636-.577 1.099-1.044 1.387-.466.28-1.183.42-2.15.42-1.01 0-1.795-.242-2.355-.725-.56-.492-.84-1.218-.84-2.177v-2.049c0-.984.293-1.718.878-2.201.594-.493 1.366-.739 2.316-.739.96 0 1.727.25 2.304.751.577.492.866 1.252.866 2.278v1.171h-5.091v.802c0 .637.156 1.099.47 1.387.323.28.802.42 1.439.42.61 0 1.056-.084 1.336-.254s.492-.446.636-.827zm-5.116-3.144v.306h3.818v-.191c0-.687-.162-1.188-.484-1.502-.314-.314-.789-.47-1.425-.47-.637 0-1.116.152-1.439.457-.314.297-.47.764-.47 1.4zm8.276 4.824v-7.636h1.273v1.272h.382c.178-.483.45-.835.814-1.056.365-.23.806-.344 1.324-.344.568 0 1.044.191 1.425.573.382.373.573.904.573 1.591v1.145h-1.209v-.687c0-.483-.11-.84-.33-1.069-.213-.229-.54-.344-.98-.344-.4 0-.764.098-1.095.293-.323.195-.624.5-.904.917v5.345zm-27.377-26v-1.145h2.545v-7.891h-2.545v-1.146h3.818v9.037h2.545v1.145zm12.096.127c-1.027 0-1.816-.246-2.368-.738-.543-.5-.814-1.217-.814-2.15v-2.063c0-.941.275-1.667.827-2.176.552-.51 1.34-.764 2.367-.764 1.019 0 1.8.255 2.342.764.552.51.827 1.235.827 2.176v2.062c0 .934-.275 1.65-.827 2.151-.543.492-1.328.738-2.354.738zm0-1.145c.644 0 1.124-.144 1.438-.433.314-.288.47-.725.47-1.31v-2.063c0-.61-.156-1.06-.47-1.349-.314-.297-.794-.445-1.438-.445-.645 0-1.125.148-1.439.445-.313.289-.47.738-.47 1.35v2.061c0 .586.157 1.023.47 1.311.314.289.794.433 1.439.433zm5.731 1.018v-7.636h1.273v1.272h.381c.187-.432.48-.772.879-1.018a2.476 2.476 0 0 1 1.361-.382c.764 0 1.367.234 1.808.7.44.467.662 1.103.662 1.91v5.154h-1.273v-4.9c0-.535-.132-.942-.395-1.222-.254-.288-.623-.433-1.107-.433-.382 0-.772.115-1.171.344-.39.23-.772.56-1.145.993v5.218zm15.914.61c0 .688-.255 1.201-.764 1.54-.5.349-1.115.523-1.845.523h-2.393c-.763 0-1.396-.153-1.896-.459-.492-.305-.738-.776-.738-1.412 0-.408.106-.73.318-.968.22-.246.539-.386.954-.42v-.267a1.333 1.333 0 0 1 -.738-.369c-.187-.195-.28-.496-.28-.903 0-.365.115-.692.344-.98.229-.297.615-.467 1.158-.51v-.241c-.416-.136-.696-.34-.84-.611a1.753 1.753 0 0 1 -.216-.802v-.344c0-.585.25-1.069.75-1.45.501-.382 1.205-.573 2.113-.573h3.755v1.145l-1.973-.293v.23c.34.093.594.271.764.534.178.263.267.526.267.79v.33c0 .585-.225 1.06-.675 1.425-.45.357-1.179.535-2.189.535h-1.54c-.229 0-.403.06-.522.178-.118.11-.178.301-.178.573 0 .263.08.462.242.598.17.127.42.191.751.191h2.89c.712 0 1.302.157 1.768.47.475.315.713.828.713 1.54zm-4.073-4.517c.518 0 .912-.094 1.184-.28.271-.187.407-.48.407-.878v-.408c0-.399-.136-.687-.407-.865-.272-.187-.666-.28-1.184-.28-.517 0-.912.093-1.183.28-.272.178-.408.466-.408.865v.408c0 .398.136.691.408.878.271.186.666.28 1.183.28zm-.954 5.561h2.583c.382 0 .692-.072.93-.216.237-.144.356-.394.356-.75 0-.34-.11-.582-.331-.726-.212-.144-.488-.217-.827-.217h-4.048v.866c0 .348.115.607.344.776.229.179.56.268.993.268zm-26.703 104.993c-.323 0-.645-.02-.968-.063a5.602 5.602 0 0 1 -1.03-.217l.254-1.222c.314.11.607.183.878.217.28.042.556.063.827.063.552 0 .997-.118 1.337-.356.34-.229.509-.615.509-1.158v-6.402h-3.564v-1.145h4.837v7.712c0 .874-.297 1.52-.891 1.935-.586.424-1.315.636-2.19.636zm2.405-11.683c-.322 0-.585-.051-.789-.153-.195-.102-.293-.293-.293-.573v-.089c0-.288.098-.484.293-.585.204-.11.467-.166.79-.166.322 0 .58.055.775.166.204.101.306.297.306.585v.09c0 .28-.102.47-.306.572-.203.102-.462.153-.776.153zm6.967 9.163c-.738 0-1.337-.237-1.795-.713-.45-.483-.674-1.115-.674-1.896v-5.154h1.272v4.9c0 .56.123.975.37 1.247.246.271.623.407 1.132.407.4 0 .785-.106 1.158-.318.382-.22.768-.56 1.159-1.018v-5.218h1.272v7.636h-1.272v-1.273h-.382a2.236 2.236 0 0 1 -.891 1.018 2.495 2.495 0 0 1 -1.35.382zm9.728 0a6.286 6.286 0 0 1 -1.87-.28 5.37 5.37 0 0 1 -1.668-.89l.573-1.006c.416.34.878.598 1.387.776.518.17 1.044.255 1.578.255.442 0 .862-.068 1.26-.204.408-.136.611-.424.611-.865 0-.365-.165-.624-.496-.777-.33-.152-.938-.284-1.82-.394-.933-.11-1.642-.327-2.125-.65-.476-.33-.713-.848-.713-1.552 0-.764.288-1.336.865-1.718.577-.39 1.248-.586 2.011-.586.603 0 1.18.102 1.731.306.56.203 1.078.492 1.553.865l-.573 1.006a5.077 5.077 0 0 0 -1.273-.751 3.776 3.776 0 0 0 -1.438-.28c-.407 0-.78.076-1.12.229-.33.153-.496.433-.496.84 0 .348.153.602.458.764.314.152.912.284 1.795.394.967.11 1.692.348 2.176.713.484.356.725.857.725 1.502 0 .797-.322 1.383-.967 1.756-.645.365-1.366.547-2.164.547zm10.073-.013c-.84 0-1.494-.207-1.96-.623-.467-.416-.7-1.052-.7-1.91v-4.072h-2.164v-1.145h2.164v-2.546h1.272v2.546h3.31v1.145h-3.31v3.958c0 .492.123.857.37 1.095.246.237.61.356 1.094.356.322 0 .624-.021.904-.063.28-.051.547-.115.802-.191l.254 1.158a7.15 7.15 0 0 1 -.929.204c-.322.059-.692.089-1.107.089zm-28.117 24.893c.713 0 1.226-.144 1.54-.432.322-.289.484-.751.484-1.388v-2.062c0-.585-.123-1.01-.37-1.272-.237-.272-.623-.408-1.158-.408-.424 0-.818.107-1.183.319s-.734.551-1.108 1.018v3.742c.263.16.535.284.815.369.288.076.615.114.98.114zm.013 1.12a4.46 4.46 0 0 1 -.917-.102 4.921 4.921 0 0 1 -.89-.254v2.774h-1.273v-10.181h1.272v1.272h.382c.212-.432.518-.772.917-1.018a2.43 2.43 0 0 1 1.31-.382c.764 0 1.367.263 1.808.79.45.517.674 1.221.674 2.112v2.075c0 .9-.297 1.612-.89 2.138-.586.518-1.384.776-2.393.776zm8.1-1.094c.44 0 .848-.077 1.221-.23.373-.16.696-.436.967-.827v-1.221h-2.29c-.365 0-.67.084-.917.254-.238.161-.356.45-.356.866 0 .364.101.649.305.852.212.204.569.306 1.07.306zm-.166 1.094a3.05 3.05 0 0 1 -1.731-.509c-.5-.348-.751-.903-.751-1.667 0-.67.216-1.196.65-1.578a2.281 2.281 0 0 1 1.54-.573h2.646v-1.095c0-.407-.135-.73-.407-.967-.271-.237-.683-.356-1.234-.356-.56 0-.98.085-1.26.254-.272.162-.488.526-.65 1.095l-1.12-.306c.145-.72.467-1.264.968-1.629.509-.373 1.188-.56 2.036-.56.84 0 1.54.191 2.1.573.56.373.84.955.84 1.744v3.41c0 .459.127.747.382.866.254.11.636.123 1.145.038v1.171a3.355 3.355 0 0 1 -1.489-.102c-.458-.152-.708-.555-.75-1.209h-.255c-.238.39-.594.722-1.07.993a3.15 3.15 0 0 1 -1.59.407zm10.097 0a6.286 6.286 0 0 1 -1.87-.28 5.37 5.37 0 0 1 -1.668-.89l.573-1.006c.416.34.878.598 1.387.776.518.17 1.044.255 1.578.255.442 0 .862-.068 1.26-.204.408-.136.611-.424.611-.865 0-.365-.165-.624-.496-.777-.33-.152-.938-.284-1.82-.394-.933-.11-1.642-.327-2.125-.65-.476-.33-.713-.848-.713-1.552 0-.764.288-1.336.865-1.718.577-.39 1.248-.586 2.011-.586.603 0 1.18.102 1.731.306.56.203 1.078.492 1.553.865l-.573 1.006a5.077 5.077 0 0 0 -1.273-.751 3.776 3.776 0 0 0 -1.438-.28c-.407 0-.78.076-1.12.229-.33.153-.496.433-.496.84 0 .348.153.602.458.764.314.152.912.284 1.795.394.967.11 1.692.348 2.176.713.484.356.725.857.725 1.502 0 .797-.322 1.383-.967 1.756-.645.365-1.366.547-2.164.547zm8.915 0a6.288 6.288 0 0 1 -1.871-.28 5.37 5.37 0 0 1 -1.668-.89l.573-1.006c.416.34.878.598 1.387.776.518.17 1.044.255 1.579.255.44 0 .86-.068 1.26-.204.407-.136.61-.424.61-.865 0-.365-.165-.624-.496-.777-.33-.152-.938-.284-1.82-.394-.933-.11-1.642-.327-2.125-.65-.476-.33-.713-.848-.713-1.552 0-.764.288-1.336.865-1.718.577-.39 1.248-.586 2.011-.586.603 0 1.18.102 1.731.306.56.203 1.078.492 1.553.865l-.573 1.006a5.079 5.079 0 0 0 -1.272-.751 3.776 3.776 0 0 0 -1.439-.28c-.407 0-.78.076-1.12.229-.33.153-.496.433-.496.84 0 .348.153.602.458.764.314.152.912.284 1.795.394.967.11 1.692.348 2.176.713.484.356.725.857.725 1.502 0 .797-.322 1.383-.967 1.756-.645.365-1.366.547-2.163.547zm12.02-1.807c-.23.636-.578 1.099-1.045 1.387-.466.28-1.183.42-2.15.42-1.01 0-1.795-.242-2.355-.725-.56-.492-.84-1.218-.84-2.177v-2.049c0-.984.293-1.718.878-2.201.594-.493 1.366-.739 2.317-.739.958 0 1.726.25 2.303.751.577.492.866 1.252.866 2.278v1.171h-5.091v.802c0 .637.157 1.099.47 1.387.323.28.802.42 1.439.42.61 0 1.056-.084 1.336-.254s.492-.446.637-.827l1.234.356zm-5.117-3.144v.306h3.818v-.191c0-.687-.161-1.188-.484-1.502-.314-.314-.789-.47-1.425-.47-.637 0-1.116.152-1.438.457-.314.297-.471.764-.471 1.4zm10.441 3.742c.416 0 .81-.11 1.184-.33.373-.221.742-.556 1.107-1.006v-3.742a3.054 3.054 0 0 0 -.84-.356 3.46 3.46 0 0 0 -.955-.128c-.687 0-1.196.153-1.527.459-.33.297-.496.75-.496 1.361v2.05c0 .568.127.992.382 1.272.254.28.636.42 1.145.42zm1.91-.19a2.52 2.52 0 0 1 -.917 1.03c-.39.246-.828.37-1.311.37-.79 0-1.4-.255-1.833-.764-.433-.51-.649-1.222-.649-2.139v-2.074c0-.925.288-1.642.865-2.151.577-.51 1.383-.764 2.419-.764.297 0 .602.034.916.102.314.06.61.144.89.255v-2.775h1.274v10.182h-1.273v-1.273h-.382zm-46.2 27.399a5.82 5.82 0 0 1 -1.578-.229 5.697 5.697 0 0 1 -1.502-.662v-9.418h1.272v3.818h.382a2.52 2.52 0 0 1 .917-1.03c.39-.247.827-.37 1.31-.37.79 0 1.4.255 1.833.764.433.51.65 1.222.65 2.138v2.075c0 .925-.29 1.642-.866 2.15-.577.51-1.383.764-2.418.764zm-.013-1.12c.687 0 1.196-.148 1.527-.445.331-.306.497-.764.497-1.375v-2.036c0-.577-.128-1.006-.382-1.286-.255-.28-.637-.42-1.146-.42-.415 0-.81.11-1.183.331-.374.221-.743.556-1.108 1.006v3.742c.272.16.552.284.84.369.297.076.616.114.955.114zm12.236-.687c-.23.636-.577 1.099-1.044 1.387-.466.28-1.183.42-2.15.42-1.01 0-1.795-.242-2.355-.725-.56-.492-.84-1.218-.84-2.177v-2.049c0-.984.293-1.718.878-2.201.594-.493 1.366-.739 2.316-.739.96 0 1.727.25 2.304.751.577.492.865 1.252.865 2.278v1.171h-5.09v.802c0 .637.157 1.099.47 1.387.323.28.802.42 1.439.42.61 0 1.056-.084 1.336-.254s.492-.446.636-.827zm-5.116-3.144v.306h3.818v-.191c0-.687-.161-1.188-.484-1.502-.314-.314-.789-.47-1.425-.47-.637 0-1.116.152-1.439.457-.313.297-.47.764-.47 1.4zm14.64 5.435c0 .687-.254 1.2-.763 1.54-.5.348-1.115.522-1.845.522h-2.393c-.764 0-1.396-.153-1.896-.458-.492-.306-.738-.777-.738-1.413 0-.407.106-.73.318-.967.22-.246.539-.386.954-.42v-.268a1.333 1.333 0 0 1 -.738-.369c-.187-.195-.28-.496-.28-.903 0-.365.115-.692.344-.98.229-.297.615-.467 1.158-.51v-.241c-.416-.136-.696-.34-.84-.611a1.752 1.752 0 0 1 -.216-.802v-.344c0-.585.25-1.069.75-1.45.501-.382 1.205-.573 2.113-.573h3.755v1.145l-1.973-.293v.23c.34.093.594.271.764.534.178.263.267.526.267.79v.33a1.75 1.75 0 0 1 -.675 1.425c-.45.357-1.18.535-2.189.535h-1.54c-.229 0-.403.06-.522.178-.118.11-.178.301-.178.573 0 .263.08.462.242.598.17.127.42.191.75.191h2.89c.713 0 1.303.157 1.77.47.474.315.712.828.712 1.54zm-4.072-4.518c.518 0 .912-.094 1.184-.28.271-.187.407-.48.407-.878v-.408c0-.399-.136-.687-.407-.865-.272-.187-.666-.28-1.184-.28s-.912.093-1.184.28c-.271.178-.407.466-.407.865v.408c0 .398.136.691.407.878.272.186.666.28 1.184.28zm-.954 5.561h2.583c.382 0 .692-.072.93-.216.237-.144.356-.394.356-.75 0-.34-.11-.582-.331-.726-.212-.144-.488-.216-.828-.216h-4.047v.865c0 .348.115.607.344.776.229.179.56.268.993.268zm9.41-1.527c-.738 0-1.336-.237-1.795-.712-.45-.484-.674-1.116-.674-1.897v-5.154h1.273v4.9c0 .56.123.975.369 1.247.246.271.623.407 1.132.407.4 0 .785-.106 1.159-.318.381-.22.767-.56 1.158-1.018v-5.218h1.273v7.636h-1.273v-1.273h-.382a2.236 2.236 0 0 1 -.89 1.019 2.495 2.495 0 0 1 -1.35.381zm6.445-.127v-7.636h1.273v1.272h.381c.187-.432.48-.772.879-1.018a2.476 2.476 0 0 1 1.361-.382c.764 0 1.367.234 1.808.7.441.467.662 1.103.662 1.91v5.154h-1.273v-4.9c0-.535-.132-.942-.395-1.222-.254-.288-.623-.433-1.107-.433-.382 0-.772.115-1.17.344-.391.23-.773.56-1.146.993v5.218zm-265.222-366.293a1 1 0 0 0 0-1.414l-6.364-6.364a1 1 0 1 0 -1.414 1.414l5.657 5.657-5.657 5.657a1 1 0 0 0 1.414 1.414zm-58.707.293h58v-2h-58z"/><path d="m148.207 321.207a1 1 0 0 0 0-1.414l-6.364-6.364a1 1 0 1 0 -1.414 1.414l5.657 5.657-5.657 5.657a1 1 0 1 0 1.414 1.414zm-58.207-233.207c3.643 0 6.772-.023 9.505.163 2.729.185 4.983.575 6.877 1.362 3.673 1.527 6.252 4.664 8.024 11.658 1.782 7.036 2.688 17.762 3.141 34.15.453 16.364.453 38.285.453 67.667h2c0-29.369 0-51.323-.453-67.723-.453-16.378-1.36-27.309-3.203-34.585-1.853-7.319-4.711-11.15-9.194-13.014-2.185-.908-4.689-1.319-7.51-1.51-2.818-.193-6.033-.168-9.64-.168zm28 115c0 29.37 0 51.416.446 67.957.445 16.52 1.336 27.633 3.145 35.091 1.816 7.49 4.613 11.508 9.016 13.525 2.153.986 4.62 1.46 7.402 1.694 2.778.234 5.941.233 9.491.233v-2c-3.575 0-6.646 0-9.323-.226-2.674-.225-4.882-.669-6.737-1.519-3.612-1.655-6.16-4.979-7.906-12.178-1.753-7.229-2.644-18.147-3.09-34.674-.444-16.507-.444-38.522-.444-67.903zm139.707-115.293a1 1 0 0 0 0-1.414l-6.364-6.364a1 1 0 1 0 -1.414 1.414l5.657 5.657-5.657 5.657a1 1 0 0 0 1.414 1.414zm-63.707.293h63v-2h-63z"/><path d="m258.207 193.207a1 1 0 0 0 0-1.414l-6.364-6.364a1 1 0 0 0 -1.414 1.414l5.657 5.657-5.657 5.657a1 1 0 1 0 1.414 1.414zm-58.207-105.207c7.299 0 12.618-.038 16.581.706 3.88.729 6.294 2.177 7.922 5.08 1.69 3.016 2.593 7.703 3.046 15.1.45 7.364.451 17.239.451 30.525h2c0-13.259 0-23.207-.455-30.647-.454-7.408-1.364-12.506-3.298-15.956-1.997-3.564-5.02-5.264-9.297-6.068-4.193-.787-9.749-.74-16.95-.74zm28 51.41c0 13.26 0 23.25.447 30.753.446 7.471 1.34 12.646 3.234 16.174 1.955 3.641 4.918 5.44 9.14 6.313 4.132.855 9.598.85 16.679.85v-2c-7.17 0-12.39-.005-16.274-.809-3.794-.785-6.174-2.305-7.782-5.3-1.669-3.108-2.556-7.888-3-15.347-.444-7.43-.444-17.348-.444-30.633h-2zm29.707 181.298a1 1 0 0 0 0-1.414l-6.364-6.364a1 1 0 1 0 -1.414 1.414l5.657 5.657-5.657 5.657a1 1 0 0 0 1.414 1.414zm-63.707.293h63v-2h-63z"/><path d="m258.207 424.208a1 1 0 0 0 0-1.414l-6.364-6.364a1 1 0 0 0 -1.414 1.414l5.657 5.657-5.657 5.657a1 1 0 1 0 1.414 1.414zm-58.207-103.208c7.298 0 12.62-.037 16.584.694 3.886.716 6.299 2.139 7.923 4.98 1.687 2.954 2.59 7.545 3.042 14.8.45 7.223.451 16.91.451 29.944h2c0-13.006 0-22.768-.455-30.068-.454-7.268-1.364-12.277-3.302-15.668-2-3.502-5.025-5.168-9.296-5.955-4.192-.772-9.745-.727-16.947-.727zm28 50.418c0 13.007 0 22.81.447 30.171.446 7.331 1.34 12.414 3.238 15.882 1.958 3.578 4.924 5.34 9.14 6.196 4.13.839 9.594.834 16.675.834v-2c-7.169 0-12.392-.005-16.278-.794-3.8-.771-6.178-2.264-7.782-5.196-1.665-3.043-2.552-7.726-2.997-15.043-.443-7.287-.443-17.016-.443-30.05zm138.628-50.71a1 1 0 0 0 0-1.414l-6.364-6.364a1 1 0 1 0 -1.414 1.414l5.657 5.657-5.657 5.657a1 1 0 0 0 1.414 1.414zm-73.628.293h72.921v-2h-72.921z"/><path d="m367.207 345.208a1 1 0 0 0 0-1.414l-6.364-6.364a1 1 0 0 0 -1.414 1.414l5.657 5.657-5.657 5.657a1 1 0 0 0 1.414 1.414zm-67.262-24.208c9.59 0 16.694-.03 21.98 1.427 2.61.719 4.726 1.79 6.451 3.378 1.726 1.588 3.116 3.742 4.196 6.709l1.88-.684c-1.165-3.198-2.71-5.647-4.722-7.497-2.011-1.85-4.434-3.052-7.273-3.835-5.612-1.546-13.048-1.498-22.512-1.498zm32.627 11.514c1.151 3.162 2.523 5.61 4.313 7.478 1.8 1.877 3.973 3.113 6.638 3.924 5.239 1.596 12.55 1.585 22.977 1.585v-2c-10.572 0-17.512-.01-22.395-1.498-2.395-.73-4.252-1.805-5.776-3.395-1.535-1.601-2.784-3.775-3.877-6.778z"/><path d="m367.262 294.792a1 1 0 0 1 0 1.414l-6.364 6.364a1 1 0 0 1 -1.414-1.414l5.657-5.657-5.657-5.657a1 1 0 0 1 1.414-1.414zm-67.262 24.208c9.59 0 16.694.03 21.98-1.427 2.61-.719 4.726-1.79 6.451-3.378 1.726-1.588 3.116-3.742 4.196-6.709l1.88.684c-1.165 3.198-2.71 5.647-4.722 7.497-2.011 1.85-4.434 3.052-7.273 3.835-5.612 1.546-13.048 1.498-22.512 1.498zm32.627-11.514c1.151-3.162 2.523-5.61 4.313-7.478 1.8-1.877 3.972-3.113 6.638-3.924 5.239-1.596 12.55-1.585 22.977-1.585v2c-10.572 0-17.512.01-22.395 1.498-2.395.73-4.252 1.805-5.777 3.395-1.534 1.601-2.783 3.775-3.876 6.778zm38.001-114.276a1 1 0 0 0 0-1.415l-6.364-6.364a1 1 0 1 0 -1.414 1.414l5.657 5.657-5.657 5.657a1 1 0 0 0 1.414 1.414l6.364-6.364zm-73.628.292h72.921v-2h-72.921z"/><path d="m371.207 217.71a1 1 0 0 0 0-1.415l-6.364-6.364a1 1 0 0 0 -1.414 1.414l5.657 5.657-5.657 5.657a1 1 0 0 0 1.414 1.414l6.364-6.364zm-67.262-24.21c9.59 0 16.694-.03 21.98 1.427 2.61.719 4.726 1.79 6.451 3.378 1.726 1.588 3.116 3.742 4.196 6.709l1.88-.684c-1.165-3.198-2.71-5.647-4.722-7.497-2.011-1.85-4.434-3.052-7.273-3.835-5.612-1.546-13.048-1.498-22.512-1.498zm32.627 11.514c1.151 3.162 2.523 5.61 4.313 7.478 1.8 1.877 3.973 3.113 6.638 3.925 5.239 1.595 12.55 1.584 22.977 1.584v-2c-10.572 0-17.512-.01-22.395-1.498-2.395-.73-4.252-1.805-5.776-3.395-1.535-1.601-2.784-3.775-3.877-6.778z"/><path d="m371.262 167.293a1 1 0 0 1 0 1.414l-6.364 6.364a1 1 0 0 1 -1.414-1.414l5.657-5.657-5.657-5.657a1 1 0 0 1 1.414-1.414zm-67.262 24.207c9.59 0 16.694.03 21.98-1.427 2.61-.719 4.726-1.79 6.451-3.378 1.726-1.588 3.116-3.742 4.196-6.709l1.88.684c-1.165 3.198-2.71 5.647-4.722 7.497-2.011 1.85-4.434 3.052-7.273 3.835-5.612 1.546-13.048 1.498-22.512 1.498zm32.627-11.514c1.151-3.162 2.523-5.61 4.313-7.478 1.8-1.877 3.972-3.113 6.638-3.924 5.239-1.596 12.55-1.585 22.977-1.585v2c-10.572 0-17.512.01-22.395 1.498-2.395.73-4.252 1.805-5.777 3.396-1.534 1.6-2.783 3.774-3.876 6.777zm32.001-91.777a1 1 0 0 0 0-1.414l-6.364-6.364a1 1 0 1 0 -1.414 1.414l5.657 5.657-5.657 5.657a1 1 0 0 0 1.414 1.414zm-73.628.293h72.921v-2h-72.921z"/><path d="m369.207 112.71a1 1 0 0 0 0-1.415l-6.364-6.364a1 1 0 0 0 -1.414 1.414l5.657 5.657-5.657 5.657a1 1 0 0 0 1.414 1.414l6.364-6.364zm-67.262-24.21c9.59 0 16.694-.03 21.98 1.427 2.61.719 4.726 1.79 6.451 3.378 1.726 1.588 3.116 3.742 4.196 6.709l1.88-.684c-1.165-3.198-2.71-5.647-4.722-7.497-2.011-1.85-4.434-3.052-7.273-3.835-5.612-1.546-13.048-1.498-22.512-1.498zm32.627 11.514c1.151 3.162 2.523 5.61 4.313 7.478 1.8 1.877 3.973 3.113 6.638 3.925 5.239 1.595 12.55 1.584 22.977 1.584v-2c-10.572 0-17.512-.01-22.395-1.498-2.395-.73-4.252-1.805-5.776-3.395-1.535-1.601-2.784-3.775-3.877-6.778z"/><path d="m369.262 62.293a1 1 0 0 1 0 1.414l-6.364 6.364a1 1 0 0 1 -1.414-1.414l5.657-5.657-5.657-5.657a1 1 0 0 1 1.414-1.414zm-67.262 24.207c9.59 0 16.694.03 21.98-1.427 2.61-.719 4.726-1.79 6.451-3.378 1.726-1.588 3.116-3.742 4.196-6.709l1.88.684c-1.165 3.198-2.71 5.647-4.722 7.497-2.011 1.85-4.434 3.052-7.273 3.835-5.612 1.547-13.048 1.498-22.512 1.498zm32.627-11.514c1.151-3.162 2.523-5.61 4.313-7.478 1.8-1.877 3.972-3.113 6.638-3.925 5.239-1.593 12.55-1.583 22.977-1.583v2c-10.572 0-17.512.01-22.395 1.498-2.395.73-4.252 1.805-5.777 3.395-1.534 1.601-2.783 3.775-3.876 6.778l-1.88-.684zm32.001 349.224a1 1 0 0 0 0-1.415l-6.364-6.364a1 1 0 1 0 -1.414 1.414l5.657 5.657-5.657 5.657a1 1 0 0 0 1.414 1.414l6.364-6.364zm-63.628.292h62.921v-2h-62.921z"/><path d="m367.207 448.71a1 1 0 0 0 0-1.415l-6.364-6.364a1 1 0 0 0 -1.414 1.414l5.657 5.657-5.657 5.657a1 1 0 0 0 1.414 1.414l6.364-6.364zm-67.262-24.21c9.59 0 16.694-.03 21.98 1.427 2.61.719 4.726 1.79 6.451 3.378 1.726 1.588 3.116 3.742 4.196 6.709l1.88-.684c-1.165-3.198-2.71-5.647-4.722-7.497-2.011-1.85-4.434-3.052-7.273-3.835-5.612-1.546-13.048-1.498-22.512-1.498zm32.627 11.514c1.151 3.162 2.523 5.61 4.313 7.478 1.8 1.877 3.973 3.113 6.638 3.924 5.239 1.596 12.55 1.585 22.977 1.585v-2c-10.572 0-17.512-.01-22.395-1.498-2.395-.73-4.252-1.805-5.776-3.396-1.535-1.6-2.784-3.774-3.877-6.777z"/><path d="m367.262 398.293a1 1 0 0 1 0 1.414l-6.364 6.364a1 1 0 0 1 -1.414-1.414l5.657-5.657-5.657-5.657a1 1 0 0 1 1.414-1.414zm-67.262 24.207c9.59 0 16.694.03 21.98-1.427 2.61-.719 4.726-1.79 6.451-3.378 1.726-1.588 3.116-3.742 4.196-6.709l1.88.684c-1.165 3.198-2.71 5.647-4.722 7.497-2.011 1.85-4.434 3.052-7.273 3.835-5.612 1.546-13.048 1.498-22.512 1.498zm32.627-11.514c1.151-3.162 2.523-5.61 4.313-7.478 1.8-1.877 3.972-3.113 6.638-3.925 5.239-1.595 12.55-1.584 22.977-1.584v2c-10.572 0-17.512.01-22.395 1.498-2.395.73-4.252 1.805-5.777 3.395-1.534 1.601-2.783 3.775-3.876 6.778z"/></g></svg>