<?xml version="1.0" encoding="utf-8"?>
<!-- Generator: Adobe Illustrator 17.0.0, SVG Export Plug-In . SVG Version: 6.00 Build 0)  -->
<!DOCTYPE svg PUBLIC "-//W3C//DTD SVG 1.1//EN" "http://www.w3.org/Graphics/SVG/1.1/DTD/svg11.dtd">
<svg version="1.1" id="Layer_1" xmlns="http://www.w3.org/2000/svg" xmlns:xlink="http://www.w3.org/1999/xlink" x="0px" y="0px"
	 width="997.13px" height="336.287px" viewBox="0 0 997.13 336.287" enable-background="new 0 0 997.13 336.287"
	 xml:space="preserve">
<g opacity="0.9" enable-background="new    ">
	<g>
		<polyline fill="none" stroke="#C4C9CA" stroke-width="4" stroke-linejoin="round" points="386.351,25.394 386.374,18.917 
			392.851,18.942 		"/>
		
			<line fill="none" stroke="#C4C9CA" stroke-width="4" stroke-linejoin="round" stroke-dasharray="12.851,12.851" x1="406.723" y1="18.994" x2="455.272" y2="19.175"/>
		<polyline fill="none" stroke="#C4C9CA" stroke-width="4" stroke-linejoin="round" points="462.209,19.202 468.685,19.226 
			468.66,25.702 		"/>
		
			<line fill="none" stroke="#C4C9CA" stroke-width="4" stroke-linejoin="round" stroke-dasharray="12.2049,12.2049" x1="468.612" y1="38.877" x2="467.648" y2="295.772"/>
		<polyline fill="none" stroke="#C4C9CA" stroke-width="4" stroke-linejoin="round" points="467.623,302.359 467.598,308.835 
			461.122,308.811 		"/>
		
			<line fill="none" stroke="#C4C9CA" stroke-width="4" stroke-linejoin="round" stroke-dasharray="12.851,12.851" x1="447.25" y1="308.759" x2="398.7" y2="308.577"/>
		<polyline fill="none" stroke="#C4C9CA" stroke-width="4" stroke-linejoin="round" points="391.765,308.551 385.289,308.527 
			385.312,302.05 		"/>
		
			<line fill="none" stroke="#C4C9CA" stroke-width="4" stroke-linejoin="round" stroke-dasharray="12.2049,12.2049" x1="385.362" y1="288.876" x2="386.326" y2="31.98"/>
	</g>
</g>
<rect x="329.73" y="21.172" transform="matrix(-0.9999 0.013 -0.013 -0.9999 678.9172 327.5318)" opacity="0.9" fill="#2D2F30" enable-background="new    " width="17.329" height="289.602"/>
<rect x="719.894" y="18.104" transform="matrix(0.9998 -0.0208 0.0208 0.9998 -3.231 15.189)" opacity="0.9" fill="#2D2F30" enable-background="new    " width="17.329" height="289.624"/>
<rect x="502.677" y="19.113" transform="matrix(-1 0.0028 -0.0028 -1 1088.1267 326.3308)" opacity="0.9" fill="#2D2F30" enable-background="new    " width="82.315" height="289.629"/>
<rect x="831.344" y="19.106" transform="matrix(-1 0.0028 -0.0028 -1 1745.4595 325.3977)" opacity="0.9" fill="#C4C9CA" enable-background="new    " width="82.315" height="289.629"/>
<rect x="72.552" y="13.724" transform="matrix(-1 0.0028 -0.0028 -1 227.8633 316.7584)" opacity="0.9" fill="#C4C9CA" enable-background="new    " width="82.315" height="289.629"/>
<rect x="761.538" y="19.552" transform="matrix(-0.9994 0.0346 -0.0346 -0.9994 1572.3894 301.5033)" opacity="0.9" fill="#C4C9CA" enable-background="new    " width="44.095" height="289.61"/>
<rect x="611.374" y="22.189" transform="matrix(-0.9996 0.0283 -0.0283 -0.9996 1309.5249 315.4624)" opacity="0.9" fill="#4FB5C6" enable-background="new    " width="82.313" height="289.618"/>
<rect x="192.16" y="19.846" transform="matrix(-0.9998 0.0181 -0.0181 -0.9998 489.3482 324.8415)" opacity="0.9" fill="#4FB5C6" enable-background="new    " width="102.089" height="289.579"/>
</svg>
