<?xml version="1.0" encoding="utf-8"?>
<!-- Generator: Adobe Illustrator 17.0.0, SVG Export Plug-In . SVG Version: 6.00 Build 0)  -->
<!DOCTYPE svg PUBLIC "-//W3C//DTD SVG 1.1//EN" "http://www.w3.org/Graphics/SVG/1.1/DTD/svg11.dtd">
<svg version="1.1" id="Layer_1" xmlns="http://www.w3.org/2000/svg" xmlns:xlink="http://www.w3.org/1999/xlink" x="0px" y="0px"
	 width="112px" height="56px" viewBox="0 0 112 56" enable-background="new 0 0 112 56" xml:space="preserve">
<g>
	<path fill="#C4C9CB" d="M73.511,19.517c1.718-0.581,3.238-0.872,4.559-0.872c1.532,0,2.907,0.344,4.123,1.031
		c1.216,0.688,2.161,1.625,2.835,2.815c0.674,1.189,1.011,2.577,1.011,4.163c0,1.771-0.436,3.403-1.309,4.896
		c-0.872,1.493-2.055,2.69-3.548,3.588c-1.493,0.899-3.126,1.348-4.896,1.348c-1.454,0-2.67-0.449-3.647-1.348
		c-0.978-0.898-1.467-1.943-1.467-3.132c0-0.687,0.184-1.249,0.555-1.684c0.369-0.436,0.858-0.654,1.467-0.654
		c0.476,0,0.865,0.126,1.17,0.376c0.303,0.251,0.456,0.562,0.456,0.932c0,0.396-0.238,0.78-0.713,1.15
		c-0.609,0.449-0.912,0.793-0.912,1.031c0,0.608,0.33,1.11,0.991,1.507c0.661,0.397,1.441,0.595,2.34,0.595
		c1.507,0,2.9-0.383,4.183-1.15c1.282-0.766,2.299-1.797,3.053-3.092c0.754-1.295,1.13-2.721,1.13-4.282
		c0-1.163-0.232-2.233-0.694-3.211c-0.463-0.977-1.104-1.737-1.923-2.28c-0.82-0.541-1.705-0.813-2.656-0.813
		c-1.665,0-3.238,0.41-4.718,1.229c-1.48,0.82-3.727,2.511-6.74,5.075c-2.854,2.378-6.079,4.876-9.673,7.493
		c-2.564,1.824-4.824,3.132-6.779,3.925c-1.956,0.793-3.964,1.189-6.026,1.189c-4.044,0-7.163-1.652-9.356-4.955
		c-1.084,0.265-2.048,0.397-2.895,0.397c-1.586,0-3.066-0.369-4.44-1.11c-1.375-0.74-2.471-1.738-3.29-2.993
		c-0.82-1.255-1.229-2.623-1.229-4.103c0-2.537,1.024-4.737,3.072-6.601c2.048-1.863,4.46-2.795,7.236-2.795
		c1.4,0,2.576,0.39,3.528,1.17c0.952,0.78,1.427,1.712,1.427,2.795c0,0.767-0.199,1.361-0.595,1.784
		c-0.397,0.423-0.952,0.634-1.665,0.634c-1.084,0-1.625-0.502-1.625-1.507c0-0.449,0.211-0.779,0.634-0.991
		c0.608-0.369,0.912-0.754,0.912-1.15c0-0.476-0.258-0.892-0.773-1.249c-0.515-0.357-1.236-0.536-2.161-0.536
		c-1.401,0-2.788,0.39-4.162,1.17c-1.375,0.78-2.498,1.811-3.37,3.092c-0.872,1.282-1.309,2.597-1.309,3.945
		c0,1.823,0.654,3.377,1.962,4.658c1.309,1.282,2.9,1.923,4.778,1.923c1.611,0,3.105-0.323,4.48-0.971
		c1.374-0.647,3.29-1.949,5.749-3.905c2.035-1.559,4.354-3.271,6.958-5.135c2.603-1.863,4.671-3.284,6.204-4.262
		c3.463-2.22,6.595-3.33,9.396-3.33c1.559,0,2.986,0.324,4.282,0.971C70.722,16.933,72.084,18.01,73.511,19.517z M72.203,20.151
		c-1.56-1.718-3.397-2.577-5.511-2.577c-0.872,0-1.823,0.205-2.854,0.615c-1.031,0.41-2.438,1.196-4.223,2.359
		c-1.784,1.164-4.593,3.172-8.424,6.026c-2.802,2.114-5.194,3.727-7.176,4.837c-1.982,1.11-4.162,2.048-6.541,2.815
		c1.611,1.771,3.7,2.656,6.264,2.656c1.057,0,2.246-0.258,3.568-0.773c1.321-0.515,2.927-1.368,4.817-2.557
		c1.889-1.189,4.579-3.105,8.068-5.748C65.661,23.865,69.666,21.314,72.203,20.151z"/>
</g>
</svg>
