<?xml version="1.0" encoding="utf-8"?>
<!-- Generator: Adobe Illustrator 17.0.0, SVG Export Plug-In . SVG Version: 6.00 Build 0)  -->
<!DOCTYPE svg PUBLIC "-//W3C//DTD SVG 1.1//EN" "http://www.w3.org/Graphics/SVG/1.1/DTD/svg11.dtd">
<svg version="1.1" id="Layer_1" xmlns="http://www.w3.org/2000/svg" xmlns:xlink="http://www.w3.org/1999/xlink" x="0px" y="0px"
	 width="112px" height="56px" viewBox="0 0 112 56" enable-background="new 0 0 112 56" xml:space="preserve">
<g>
	<path fill="#C4C9CB" d="M78.774,17.265c2.213-0.749,4.171-1.124,5.874-1.124c1.974,0,3.745,0.443,5.312,1.328
		c1.566,0.886,2.784,2.094,3.652,3.626c0.868,1.532,1.303,3.32,1.303,5.363c0,2.281-0.562,4.384-1.686,6.308
		c-1.124,1.924-2.648,3.465-4.571,4.622c-1.924,1.158-4.027,1.737-6.308,1.737c-1.873,0-3.44-0.579-4.699-1.737
		c-1.26-1.157-1.89-2.503-1.89-4.035c0-0.885,0.237-1.609,0.715-2.17c0.476-0.562,1.106-0.843,1.89-0.843
		c0.613,0,1.115,0.162,1.507,0.485c0.391,0.324,0.587,0.724,0.587,1.201c0,0.51-0.306,1.005-0.919,1.481
		c-0.784,0.579-1.175,1.021-1.175,1.328c0,0.783,0.425,1.43,1.277,1.941c0.851,0.511,1.856,0.766,3.014,0.766
		c1.941,0,3.736-0.493,5.389-1.481c1.651-0.987,2.962-2.315,3.933-3.984c0.971-1.668,1.456-3.506,1.456-5.516
		c0-1.498-0.299-2.877-0.894-4.137c-0.596-1.259-1.422-2.238-2.477-2.937c-1.056-0.697-2.196-1.047-3.422-1.047
		c-2.145,0-4.172,0.528-6.078,1.583c-1.907,1.056-4.801,3.235-8.683,6.538c-3.677,3.064-7.832,6.282-12.462,9.653
		c-3.303,2.35-6.215,4.035-8.734,5.057c-2.52,1.021-5.107,1.532-7.763,1.532c-5.21,0-9.228-2.128-12.053-6.384
		c-1.397,0.341-2.639,0.511-3.729,0.511c-2.043,0-3.95-0.476-5.72-1.43c-1.771-0.953-3.184-2.239-4.239-3.856
		c-1.056-1.617-1.583-3.379-1.583-5.286c0-3.269,1.319-6.103,3.958-8.504c2.638-2.4,5.746-3.601,9.322-3.601
		c1.804,0,3.319,0.503,4.545,1.507c1.226,1.005,1.839,2.205,1.839,3.601c0,0.988-0.256,1.754-0.766,2.298
		c-0.511,0.545-1.226,0.817-2.145,0.817c-1.396,0-2.094-0.647-2.094-1.941c0-0.578,0.272-1.004,0.817-1.277
		c0.783-0.476,1.175-0.971,1.175-1.481c0-0.613-0.332-1.149-0.996-1.609c-0.664-0.46-1.592-0.69-2.784-0.69
		c-1.805,0-3.592,0.503-5.362,1.507c-1.771,1.005-3.218,2.333-4.342,3.984c-1.124,1.652-1.686,3.346-1.686,5.082
		c0,2.349,0.843,4.35,2.528,6.001c1.686,1.652,3.736,2.477,6.155,2.477c2.076,0,4-0.416,5.772-1.251
		c1.77-0.834,4.239-2.511,7.406-5.031c2.622-2.009,5.609-4.214,8.964-6.615c3.353-2.4,6.018-4.231,7.993-5.491
		c4.461-2.86,8.496-4.29,12.105-4.29c2.009,0,3.847,0.417,5.516,1.251C75.181,13.937,76.935,15.324,78.774,17.265z M77.089,18.082
		c-2.01-2.213-4.376-3.32-7.1-3.32c-1.124,0-2.349,0.264-3.677,0.792c-1.328,0.528-3.141,1.541-5.44,3.039
		c-2.298,1.499-5.917,4.086-10.853,7.763c-3.61,2.724-6.691,4.801-9.245,6.231c-2.553,1.43-5.362,2.639-8.427,3.626
		c2.076,2.282,4.767,3.422,8.07,3.422c1.362,0,2.894-0.332,4.597-0.996c1.702-0.664,3.771-1.762,6.206-3.294
		c2.434-1.532,5.899-4,10.394-7.405C68.661,22.867,73.82,19.581,77.089,18.082z"/>
</g>
</svg>
