<?xml version="1.0" encoding="utf-8"?>
<!-- Generator: Adobe Illustrator 17.0.0, SVG Export Plug-In . SVG Version: 6.00 Build 0)  -->
<!DOCTYPE svg PUBLIC "-//W3C//DTD SVG 1.1//EN" "http://www.w3.org/Graphics/SVG/1.1/DTD/svg11.dtd">
<svg version="1.1" id="Layer_1" xmlns="http://www.w3.org/2000/svg" xmlns:xlink="http://www.w3.org/1999/xlink" x="0px" y="0px"
	 width="1190.55px" height="841.89px" viewBox="0 0 1190.55 841.89" enable-background="new 0 0 1190.55 841.89"
	 xml:space="preserve">
<g>
	<g>
		<path fill="#C85C4A" d="M431.35,320.246v69.108h-10.246v-69.108h-18.103v-9.449h45.995l1.594,9.449H431.35z"/>
		<path fill="#C85C4A" d="M432.85,390.854h-13.246v-69.108h-18.103v-12.449h48.763l2.1,12.449H432.85V390.854z M422.604,387.854
			h7.246v-69.108h18.965l-1.087-6.449h-43.227v6.449h18.103V387.854z"/>
	</g>
	<g>
		<path fill="#C85C4A" d="M480.3,390.833c-15.825,0-22.543-9.335-22.543-24.934v-55.103h10.361v54.078
			c0,9.677,2.846,16.623,12.182,16.623c9.108,0,12.524-6.262,12.524-16.395v-54.306h10.132v54.648
			C502.956,381.27,494.873,390.833,480.3,390.833z"/>
		<path fill="#C85C4A" d="M480.3,392.333c-15.729,0-24.043-9.141-24.043-26.434v-56.603h13.361v55.578
			c0,10.458,3.294,15.123,10.682,15.123c4.732,0,11.024-1.544,11.024-14.895v-55.806h13.132v56.148
			C504.456,382.281,495.426,392.333,480.3,392.333z M459.257,312.296v53.603c0,15.769,6.883,23.434,21.043,23.434
			c13.445,0,21.156-8.707,21.156-23.889v-53.148h-7.132v52.806c0,11.874-4.718,17.895-14.024,17.895
			c-9.079,0-13.682-6.097-13.682-18.123v-52.578H459.257z"/>
	</g>
	<g>
		<path fill="#C85C4A" d="M531.071,355.084h-4.668v34.269h-10.246v-78.557h16.167c14.801,0,24.591,8.539,24.591,21.859
			c0,11.271-5.806,18.785-15.597,21.404l19.696,33.813l-9.677,2.277L531.071,355.084z M531.298,347.001
			c10.247,0,15.484-5.351,15.484-13.89c0-8.083-4.781-13.206-14.914-13.206h-5.465v27.097h4.895V347.001z"/>
		<path fill="#C85C4A" d="M550.596,391.864l-20.391-35.28h-2.302v34.269h-13.246v-81.557h17.667
			c15.606,0,26.091,9.387,26.091,23.359c0,10.983-5.382,19.002-14.849,22.284l19.764,33.929L550.596,391.864z M524.903,353.584
			h7.034l20.142,34.85l6.62-1.558l-19.665-33.758l1.897-0.508c9.341-2.499,14.485-9.585,14.485-19.955
			c0-12.368-9.064-20.359-23.091-20.359h-14.667v75.557h7.246V353.584z M524.903,348.503v-30.098h6.965
			c10.431,0,16.414,5.36,16.414,14.706c0,9.637-6.349,15.39-16.984,15.39L524.903,348.503z M527.903,345.502h3.395
			c9.018-0.001,13.984-4.401,13.984-12.391c0-7.658-4.639-11.706-13.414-11.706h-3.965V345.502z"/>
	</g>
	<g>
		<path fill="#C85C4A" d="M606.663,389.353l-28.462-56.469v56.469h-9.336v-78.557h9.336l26.414,54.762v-54.762h9.335v78.557H606.663
			z"/>
		<path fill="#C85C4A" d="M615.45,390.853h-9.711l-26.038-51.661v51.661h-12.336v-81.557h11.778l23.972,49.699v-49.699h12.335
			V390.853z M607.587,387.853h4.863v-75.557h-6.335v59.824l-28.856-59.824h-6.894v75.557h6.336v-61.278L607.587,387.853z"/>
	</g>
	<g>
		<path fill="#C85C4A" d="M673.257,390.833c-18.558,0-27.097-17.647-27.097-40.644c0-23.112,8.767-40.873,27.211-40.873
			s27.097,17.647,27.097,40.645C700.468,373.073,691.587,390.833,673.257,390.833z M673.371,318.652
			c-12.183,0-16.85,13.434-16.85,31.422s4.782,31.423,16.85,31.423c11.84,0,16.849-13.435,16.849-31.423
			S685.097,318.652,673.371,318.652z"/>
		<path fill="#C85C4A" d="M673.257,392.333c-17.907,0-28.598-15.755-28.598-42.144c0-26.137,11.001-42.373,28.711-42.373
			c17.907,0,28.598,15.755,28.598,42.145C701.968,376.097,690.967,392.333,673.257,392.333z M673.371,310.816
			c-16.1,0-25.711,14.719-25.711,39.373c0,24.511,9.569,39.144,25.598,39.144c16.1,0,25.711-14.719,25.711-39.372
			C698.968,325.45,689.399,310.816,673.371,310.816z M673.371,382.997c-11.833,0-18.35-11.692-18.35-32.923
			c0-21.23,6.517-32.922,18.35-32.922c11.661,0,18.35,12,18.35,32.922C691.72,370.997,685.032,382.997,673.371,382.997z
			 M673.371,320.152c-7.002,0-15.35,5.191-15.35,29.922c0,11.175,1.994,29.923,15.35,29.923c13.854,0,15.35-20.926,15.35-29.923
			C688.72,341.077,687.224,320.152,673.371,320.152z"/>
	</g>
	<g>
		<path fill="#C85C4A" d="M721.18,320.246v24.592h17.192l1.593,9.335H721.18v35.18h-10.246v-78.557h33.131v9.449H721.18V320.246z"/>
		<path fill="#C85C4A" d="M722.68,390.853h-13.246v-81.557h36.131v12.449H722.68v21.593h16.957l2.105,12.335H722.68V390.853z
			 M712.434,387.853h7.246v-35.18h18.508l-1.082-6.335H719.68v-27.592l22.885-0.001v-6.449h-30.131V387.853z"/>
	</g>
	<g>
		<path fill="#C85C4A" d="M763.756,320.246v24.592h17.192l1.593,9.335h-18.785v35.18H753.51v-78.557h33.131v9.449h-22.885V320.246z"
			/>
		<path fill="#C85C4A" d="M765.256,390.853H752.01v-81.557h36.131v12.449h-22.886v21.593h16.958l2.104,12.335h-19.062V390.853z
			 M755.01,387.853h7.246v-35.18h18.507l-1.081-6.335h-17.427v-27.592l22.886-0.001v-6.449H755.01V387.853z"/>
	</g>
	<g>
		<path fill="#C85C4A" d="M198.665,525.964v-78.557h34.611v9.45h-24.365v23.34h18.672l1.594,9.335h-20.266v26.982h25.503v9.45
			H198.665z"/>
		<path fill="#C85C4A" d="M235.914,527.464h-38.749v-81.557h37.611v12.45h-24.365v20.34h18.438l2.106,12.335h-20.544v23.982h25.503
			V527.464z M200.165,524.464h32.749v-6.449h-25.503v-29.982h19.988l-1.082-6.335h-18.907v-26.34h24.365v-6.45h-31.611V524.464z"/>
	</g>
	<g>
		<path fill="#C85C4A" d="M244.201,525.964v-78.557h10.246v69.108h21.632l1.48,9.45h-33.358V525.964z"/>
		<path fill="#C85C4A" d="M279.313,527.465h-36.612v-81.558h13.246v69.108h21.416L279.313,527.465z M245.701,524.464l30.105,0.001
			l-1.01-6.449h-21.849v-69.108h-7.246V524.464z"/>
	</g>
	<g>
		<path fill="#C85C4A" d="M284.727,525.964v-78.557h34.611v9.45h-24.365v23.34h18.672l1.594,9.335h-20.266v26.982h25.503v9.45
			H284.727z"/>
		<path fill="#C85C4A" d="M321.976,527.464h-38.749v-81.557h37.611v12.45h-24.365v20.34h18.438l2.106,12.335h-20.544v23.982h25.503
			V527.464z M286.227,524.464h32.749v-6.449h-25.503v-29.982h19.988l-1.082-6.335h-18.907v-26.34h24.365v-6.45h-31.611V524.464z"/>
	</g>
	<g>
		<path fill="#C85C4A" d="M353.143,527.444c-18.558,0-27.097-17.647-27.097-40.646c0-23.112,8.766-40.873,27.21-40.873
			c7.173,0,12.41,1.936,16.964,5.466l-1.594,10.132c-5.237-4.326-9.108-6.261-15.37-6.261c-11.841,0-16.85,13.433-16.85,31.422
			c0,18.103,5.579,31.423,17.419,31.423c6.034,0,10.588-2.505,16.167-7.172l1.48,10.019
			C366.577,524.826,360.543,527.444,353.143,527.444z"/>
		<path fill="#C85C4A" d="M353.143,528.944c-17.907,0-28.597-15.756-28.597-42.146c0-26.136,11.001-42.372,28.71-42.372
			c7.114,0,12.796,1.837,17.883,5.78l0.701,0.543l-2.141,13.606l-2.028-1.676c-5.423-4.479-8.926-5.917-14.415-5.917
			c-13.854,0-15.35,20.925-15.35,29.922c0,18.736,5.951,29.923,15.919,29.923c5.139,0,9.26-1.849,15.205-6.822l2.055-1.719
			l1.998,13.526l-0.68,0.538C366.687,526.651,360.207,528.944,353.143,528.944z M353.256,447.425
			c-16.099,0-25.71,14.719-25.71,39.372c0,24.513,9.569,39.146,25.597,39.146c6.093,0,11.712-1.897,16.716-5.642l-0.969-6.555
			c-4.641,3.575-9.179,5.859-15.066,5.859c-11.847,0-18.919-12.308-18.919-32.923c0-20.922,6.688-32.922,18.35-32.922
			c6.017,0,10.04,1.806,14.287,4.992l1.055-6.705C364.199,448.857,359.427,447.425,353.256,447.425z"/>
	</g>
	<g>
		<path fill="#C85C4A" d="M404.028,456.856v69.108h-10.246v-69.108h-18.103v-9.45h45.995l1.594,9.45H404.028z"/>
		<path fill="#C85C4A" d="M405.528,527.464h-13.246v-69.107h-18.103v-12.45h48.763l2.101,12.45h-19.515V527.464z M395.282,524.464
			h7.246v-69.107h18.966l-1.088-6.45h-43.227v6.45h18.103V524.464z"/>
	</g>
	<g>
		<path fill="#C85C4A" d="M446.033,491.695h-4.668v34.269h-10.246v-78.557h16.167c14.801,0,24.592,8.539,24.592,21.859
			c0,11.272-5.806,18.785-15.597,21.404l19.696,33.813l-9.677,2.277L446.033,491.695z M446.26,483.611
			c10.247,0,15.484-5.352,15.484-13.89c0-8.083-4.781-13.206-14.914-13.206h-5.465v27.097h4.895V483.611z"/>
		<path fill="#C85C4A" d="M465.559,528.474l-20.392-35.279h-2.302v34.269h-13.246v-81.557h17.667
			c15.606,0,26.092,9.388,26.092,23.359c0,10.983-5.382,19.002-14.849,22.283l19.764,33.93L465.559,528.474z M439.865,490.195h7.034
			l20.143,34.85l6.62-1.558l-19.665-33.759l1.897-0.508c9.341-2.498,14.485-9.584,14.485-19.954
			c0-12.368-9.064-20.359-23.092-20.359h-14.667v75.557h7.246V490.195z M439.865,485.112v-30.097h6.965
			c10.431,0,16.414,5.36,16.414,14.706c0,9.637-6.349,15.39-16.984,15.39L439.865,485.112z M442.865,482.112h3.395
			c9.018-0.001,13.984-4.401,13.984-12.391c0-7.658-4.638-11.706-13.414-11.706h-3.965V482.112z"/>
	</g>
	<g>
		<path fill="#C85C4A" d="M484.282,525.964v-78.557h10.246v78.557H484.282z"/>
		<path fill="#C85C4A" d="M496.028,527.464h-13.246v-81.557h13.246V527.464z M485.782,524.464h7.246v-75.557h-7.246V524.464z"/>
	</g>
	<g>
		<path fill="#C85C4A" d="M532.666,527.444c-18.558,0-27.097-17.647-27.097-40.646c0-23.112,8.766-40.873,27.21-40.873
			c7.173,0,12.41,1.936,16.964,5.466l-1.594,10.132c-5.237-4.326-9.108-6.261-15.37-6.261c-11.841,0-16.85,13.433-16.85,31.422
			c0,18.103,5.579,31.423,17.419,31.423c6.034,0,10.588-2.505,16.167-7.172l1.48,10.019
			C546.1,524.826,540.066,527.444,532.666,527.444z"/>
		<path fill="#C85C4A" d="M532.666,528.944c-17.907,0-28.597-15.756-28.597-42.146c0-26.136,11.001-42.372,28.71-42.372
			c7.114,0,12.796,1.837,17.883,5.78l0.701,0.543l-2.141,13.606l-2.028-1.676c-5.422-4.479-8.925-5.917-14.415-5.917
			c-13.854,0-15.35,20.925-15.35,29.922c0,18.736,5.951,29.923,15.919,29.923c5.138,0,9.259-1.849,15.205-6.822l2.055-1.719
			l1.999,13.526l-0.68,0.538C546.21,526.652,539.73,528.944,532.666,528.944z M532.779,447.425c-16.099,0-25.71,14.719-25.71,39.372
			c0,24.513,9.569,39.146,25.597,39.146c6.093,0,11.712-1.897,16.717-5.642l-0.969-6.555c-4.642,3.575-9.179,5.859-15.066,5.859
			c-11.847,0-18.919-12.308-18.919-32.923c0-20.922,6.688-32.922,18.35-32.922c6.017,0,10.041,1.806,14.287,4.992l1.055-6.705
			C543.722,448.857,538.95,447.425,532.779,447.425z"/>
	</g>
	<g>
		<path fill="#C85C4A" d="M599.604,526.76l-6.49-24.591h-22.201l-6.034,23.794h-10.133l22.315-78.898h10.588l21.745,77.532
			L599.604,526.76z M581.957,460.157l-8.652,33.018h17.419L581.957,460.157z"/>
		<path fill="#C85C4A" d="M598.521,528.536l-6.562-24.867H572.08l-6.034,23.794h-13.283l23.163-81.897h12.86l22.481,80.154
			L598.521,528.536z M569.746,500.669h24.523l6.418,24.316l6.834-1.51l-21.009-74.91h-8.316l-21.467,75.897h6.983L569.746,500.669z
			 M592.674,494.675h-21.313l10.587-40.399L592.674,494.675z M575.249,491.675h13.525l-6.807-25.638L575.249,491.675z"/>
	</g>
	<g>
		<path fill="#C85C4A" d="M617.016,525.964v-78.557h10.246v69.108h21.632l1.479,9.45h-33.357V525.964z"/>
		<path fill="#C85C4A" d="M652.126,527.465h-36.609v-81.558h13.246v69.108h21.415L652.126,527.465z M618.516,524.464l30.104,0.001
			l-1.009-6.449h-21.849v-69.108h-7.246V524.464z"/>
	</g>
	<g>
		<path fill="#C85C4A" d="M692.947,525.964h-13.776v-78.557h13.776c23.339,0,33.131,15.711,33.131,39.165
			C726.078,509.91,716.058,525.964,692.947,525.964z M693.744,456.515h-4.439v60.34h4.098c14.117,0,22.315-10.132,22.315-30.171
			C715.717,466.988,707.405,456.515,693.744,456.515z"/>
		<path fill="#C85C4A" d="M692.947,527.464h-15.276v-81.557h15.276c22.332,0,34.631,14.441,34.631,40.665
			C727.578,512.941,715.279,527.464,692.947,527.464z M680.671,524.464h12.276c14.43,0,31.631-6.574,31.631-37.892
			c0-17.183-5.487-37.665-31.631-37.665h-12.276V524.464z M693.403,518.355h-5.598v-63.34h5.938
			c14.917,0,23.474,11.543,23.475,31.669C717.218,507.107,708.76,518.355,693.403,518.355z M690.805,515.355h2.598
			c17.204,0,20.815-15.592,20.815-28.671c-0.001-18.487-7.272-28.669-20.475-28.669h-2.938V515.355z"/>
	</g>
	<g>
		<path fill="#C85C4A" d="M736.545,525.964v-78.557h34.61v9.45h-24.364v23.34h18.672l1.594,9.335h-20.266v26.982h25.503v9.45
			H736.545z"/>
		<path fill="#C85C4A" d="M773.794,527.464h-38.749v-81.557h37.61v12.45h-24.364v20.34h18.438l2.107,12.335h-20.545v23.982h25.503
			V527.464z M738.045,524.464h32.749v-6.449h-25.503v-29.982h19.988l-1.082-6.335h-18.906v-26.34h24.364v-6.45h-31.61V524.464z"/>
	</g>
	<g>
		<path fill="#C85C4A" d="M807.925,526.305h-10.361l-21.063-77.418l9.564-2.163l16.736,66.26l16.393-65.578h10.248L807.925,526.305z
			"/>
		<path fill="#C85C4A" d="M809.071,527.805h-12.653l-21.775-80.035l12.519-2.832l15.633,61.891l15.229-60.923h13.383
			L809.071,527.805z M798.711,524.805h8.069l20.698-75.899h-7.113l-17.556,70.233l-17.84-70.629l-6.61,1.494L798.711,524.805z"/>
	</g>
	<g>
		<path fill="#C85C4A" d="M838.546,525.964v-78.557h10.246v78.557H838.546z"/>
		<path fill="#C85C4A" d="M850.292,527.464h-13.246v-81.557h13.246V527.464z M840.046,524.464h7.246v-75.557h-7.246V524.464z"/>
	</g>
	<g>
		<path fill="#C85C4A" d="M886.929,527.444c-18.557,0-27.097-17.647-27.097-40.646c0-23.112,8.767-40.873,27.211-40.873
			c7.172,0,12.41,1.936,16.963,5.466l-1.593,10.132c-5.237-4.326-9.108-6.261-15.37-6.261c-11.84,0-16.85,13.433-16.85,31.422
			c0,18.103,5.579,31.423,17.42,31.423c6.034,0,10.588-2.505,16.166-7.172l1.481,10.019
			C900.364,524.826,894.33,527.444,886.929,527.444z"/>
		<path fill="#C85C4A" d="M886.929,528.944c-17.907,0-28.598-15.756-28.598-42.146c0-26.136,11.001-42.372,28.711-42.372
			c7.113,0,12.796,1.837,17.883,5.78l0.7,0.543l-2.14,13.606l-2.028-1.676c-5.422-4.479-8.925-5.917-14.415-5.917
			c-13.854,0-15.35,20.925-15.35,29.922c0,18.736,5.951,29.923,15.92,29.923c5.139,0,9.259-1.849,15.203-6.822l2.055-1.719l2,13.526
			l-0.68,0.538C900.473,526.652,893.993,528.944,886.929,528.944z M887.043,447.425c-16.1,0-25.711,14.719-25.711,39.372
			c0,24.513,9.569,39.146,25.598,39.146c6.093,0,11.714-1.897,16.719-5.642l-0.97-6.555c-4.641,3.575-9.178,5.859-15.065,5.859
			c-11.847,0-18.92-12.308-18.92-32.923c0-20.922,6.688-32.922,18.35-32.922c6.018,0,10.041,1.806,14.287,4.992l1.055-6.705
			C897.986,448.857,893.214,447.425,887.043,447.425z"/>
	</g>
	<g>
		<path fill="#C85C4A" d="M914.588,525.964v-78.557h34.61v9.45h-24.364v23.34h18.672l1.593,9.335h-20.266v26.982h25.503v9.45
			H914.588z"/>
		<path fill="#C85C4A" d="M951.836,527.464h-38.748v-81.557h37.61v12.45h-24.364v20.34h18.438l2.105,12.335h-20.544v23.982h25.503
			V527.464z M916.088,524.464h32.748v-6.449h-25.503v-29.982h19.989l-1.082-6.335h-18.906v-26.34h24.364v-6.45h-31.61V524.464z"/>
	</g>
	<g>
		<path fill="#C85C4A" d="M974.47,526.875c-6.377,0-12.183-1.366-17.192-4.212l1.593-9.791c4.668,3.073,9.335,5.009,15.825,5.009
			s10.816-3.757,10.816-10.246c0-6.604-3.301-11.043-11.613-17.534c-9.223-7.172-15.825-12.522-15.825-24.364
			c0-10.702,7.286-19.241,19.355-19.241c6.944,0,10.246,1.252,13.889,3.415l-1.594,10.019c-3.985-3.074-7.172-4.441-12.068-4.441
			c-6.945,0-9.564,4.782-9.564,9.564c0,6.602,4.214,10.588,11.613,16.166c10.361,7.856,15.825,13.89,15.825,25.845
			C995.531,518.791,987.221,526.875,974.47,526.875z"/>
		<path fill="#C85C4A" d="M974.47,528.375c-6.754,0-12.787-1.483-17.934-4.408l-0.907-0.515l2.133-13.106l1.934,1.273
			c5.137,3.382,9.482,4.762,15,4.762c5.834,0,9.316-3.27,9.316-8.745c0-5.854-2.682-9.828-11.036-16.352
			c-8.801-6.844-16.402-12.755-16.402-25.547c0-12.212,8.576-20.741,20.855-20.741c7.149,0,10.787,1.329,14.654,3.625l0.876,0.521
			l-2.151,13.52l-2-1.543c-3.952-3.049-6.871-4.129-11.152-4.129c-7.482,0-8.064,6.173-8.064,8.064c0,5.7,3.398,9.225,11.017,14.969
			c10.893,8.258,16.422,14.707,16.422,27.042c0.001,6.206-2.148,11.528-6.215,15.391
			C986.737,526.328,981.086,528.375,974.47,528.375z M958.929,521.854c4.489,2.337,9.712,3.521,15.541,3.521
			c5.832,0,10.77-1.762,14.278-5.096c3.456-3.281,5.281-7.852,5.281-13.215c0-11.142-4.911-16.825-15.231-24.649
			c-7.146-5.388-12.207-9.789-12.207-17.361c0-5.104,2.897-11.064,11.064-11.064c4.207,0,7.374,0.922,10.969,3.304l1.05-6.598
			c-3.225-1.791-6.255-2.699-12.245-2.699c-10.68,0-17.855,7.13-17.855,17.741c0,10.799,5.509,15.608,15.246,23.18
			c7.908,6.176,12.192,10.987,12.192,18.719c0,7.135-4.835,11.745-12.316,11.745c-5.363,0-9.873-1.226-14.706-4.047L958.929,521.854
			z"/>
	</g>
</g>
<path d="M1070.211,606.073H120.338c-28.912,0-52.434-23.521-52.434-52.434V288.251c0-28.912,23.522-52.434,52.434-52.434h949.873
	c28.912,0,52.435,23.522,52.435,52.434v265.388C1122.645,582.551,1099.123,606.073,1070.211,606.073z M120.338,245.817
	c-23.398,0-42.434,19.036-42.434,42.434v265.388c0,23.398,19.036,42.434,42.434,42.434h949.873
	c23.398,0,42.435-19.035,42.435-42.434V288.251c0-23.398-19.036-42.434-42.435-42.434H120.338z"/>
<g>
	<path fill="#C85C4A" d="M824.486,198.719l58.443-101.498c1.526-2.649,0.615-6.032-2.035-7.557
		c-2.645-1.524-6.033-0.615-7.557,2.034l-61.623,107.021H824.486z"/>
</g>
<g>
	<path fill="#C85C4A" d="M744.092,198.719L794.406,50.71c0.984-2.894-0.564-6.037-3.457-7.021c-2.904-0.986-6.039,0.566-7.021,3.459
		l-51.525,151.571H744.092z"/>
</g>
<g>
	<path fill="#C85C4A" d="M674.14,198.719l21.712-116.105c0.562-3.005-1.419-5.895-4.422-6.457c-3.003-0.563-5.895,1.417-6.457,4.422
		l-22.093,118.14H674.14z"/>
</g>
<g>
	<path fill="#C85C4A" d="M600.81,198.719V75.713c0-3.056-2.478-5.534-5.535-5.534s-5.534,2.477-5.534,5.534v123.005h11.069V198.719z
		"/>
</g>
<g>
	<path fill="#C85C4A" d="M516.411,198.719h11.26l-22.093-118.14c-0.562-3.004-3.457-4.983-6.457-4.422
		c-3.004,0.562-4.984,3.453-4.422,6.457L516.411,198.719z"/>
</g>
<g>
	<path fill="#C85C4A" d="M447.059,198.719h11.731L405.963,48.417c-1.013-2.882-4.171-4.401-7.056-3.385
		c-2.884,1.013-4.399,4.172-3.385,7.056L447.059,198.719z"/>
</g>
<g>
	<path fill="#C85C4A" d="M366.065,198.719h12.772L317.214,91.697c-1.526-2.648-4.907-3.561-7.557-2.034
		c-2.648,1.526-3.559,4.909-2.034,7.557L366.065,198.719z"/>
</g>
<g>
	<path fill="#C85C4A" d="M366.065,643.172l-58.443,101.499c-1.525,2.648-0.614,6.031,2.034,7.557c0.87,0.5,1.82,0.74,2.756,0.74
		c1.915,0,3.777-0.996,4.801-2.775l61.622-107.021H366.065z"/>
</g>
<g>
	<path fill="#C85C4A" d="M446.458,643.172L396.144,791.18c-0.984,2.895,0.565,6.037,3.459,7.021
		c0.591,0.201,1.191,0.297,1.782,0.297c2.305,0,4.455-1.451,5.239-3.754l51.525-151.572L446.458,643.172L446.458,643.172z"/>
</g>
<g>
	<path fill="#C85C4A" d="M516.411,643.172l-21.712,116.105c-0.562,3.005,1.418,5.895,4.422,6.457
		c0.344,0.065,0.686,0.096,1.024,0.096c2.612,0,4.936-1.857,5.434-4.518l22.093-118.14L516.411,643.172L516.411,643.172z"/>
</g>
<g>
	<path fill="#C85C4A" d="M589.741,643.172v123.005c0,3.056,2.477,5.534,5.534,5.534s5.535-2.478,5.535-5.534V643.172H589.741z"/>
</g>
<g>
	<path fill="#C85C4A" d="M674.14,643.172h-11.26l22.093,118.14c0.497,2.66,2.821,4.518,5.434,4.518c0.337,0,0.679-0.031,1.024-0.096
		c3.003-0.562,4.984-3.453,4.422-6.457L674.14,643.172z"/>
</g>
<g>
	<path fill="#C85C4A" d="M743.492,643.172h-11.731l52.827,150.301c0.8,2.278,2.937,3.701,5.221,3.701
		c0.608,0,1.227-0.102,1.834-0.315c2.884-1.013,4.401-4.172,3.386-7.055L743.492,643.172z"/>
</g>
<g>
	<path fill="#C85C4A" d="M824.485,643.172h-12.771l61.622,107.021c1.024,1.779,2.886,2.775,4.801,2.775
		c0.937,0,1.887-0.239,2.756-0.74c2.65-1.526,3.561-4.909,2.035-7.557L824.485,643.172z"/>
</g>
</svg>
