<?xml version="1.0" encoding="utf-8"?>
<!-- Generator: Adobe Illustrator 17.0.0, SVG Export Plug-In . SVG Version: 6.00 Build 0)  -->
<!DOCTYPE svg PUBLIC "-//W3C//DTD SVG 1.1//EN" "http://www.w3.org/Graphics/SVG/1.1/DTD/svg11.dtd">
<svg version="1.1" id="Layer_1" xmlns="http://www.w3.org/2000/svg" xmlns:xlink="http://www.w3.org/1999/xlink" x="0px" y="0px"
	 width="1258.437px" height="785.961px" viewBox="0 0 1258.437 785.961" enable-background="new 0 0 1258.437 785.961"
	 xml:space="preserve">
<rect x="47.023" y="48.915" fill="#CACECF" stroke="#FFFFFF" stroke-miterlimit="10" width="200.912" height="200.912"/>
<rect x="281.395" y="51.882" transform="matrix(0.9996 -0.0284 0.0284 0.9996 -4.1738 10.91)" fill="#CACECF" stroke="#FFFFFF" stroke-miterlimit="10" width="200.912" height="200.912"/>
<rect x="523.184" y="48.915" transform="matrix(0.9996 0.0287 -0.0287 0.9996 4.5386 -17.8176)" fill="#CACECF" stroke="#FFFFFF" stroke-miterlimit="10" width="200.912" height="200.912"/>
<rect x="759.04" y="51.882" transform="matrix(0.9972 0.0744 -0.0744 0.9972 13.7134 -63.5138)" fill="#CACECF" stroke="#FFFFFF" stroke-miterlimit="10" width="200.912" height="200.912"/>
<rect x="999.345" y="48.915" fill="#CACECF" stroke="#FFFFFF" stroke-miterlimit="10" width="200.912" height="200.912"/>
<rect x="999.345" y="292.187" fill="#CACECF" stroke="#FFFFFF" stroke-miterlimit="10" width="200.912" height="200.912"/>
<rect x="762.006" y="292.187" fill="#CACECF" stroke="#FFFFFF" stroke-miterlimit="10" width="200.912" height="200.912"/>
<rect x="520.217" y="296.638" transform="matrix(0.9999 -0.0134 0.0134 0.9999 -5.2756 8.3692)" fill="#CACECF" stroke="#FFFFFF" stroke-miterlimit="10" width="200.912" height="200.912"/>
<rect x="284.362" y="292.187" transform="matrix(0.9996 0.0271 -0.0271 0.9996 10.7795 -10.2821)" fill="#CACECF" stroke="#FFFFFF" stroke-miterlimit="10" width="200.912" height="200.912"/>
<rect x="49.99" y="292.187" transform="matrix(0.9999 -0.0166 0.0166 0.9999 -6.5055 2.5549)" fill="#CACECF" stroke="#FFFFFF" stroke-miterlimit="10" width="200.912" height="200.912"/>
<rect x="45.54" y="533.976" transform="matrix(0.9995 0.0324 -0.0324 0.9995 20.615 -4.3938)" fill="#CACECF" stroke="#FFFFFF" stroke-miterlimit="10" width="200.912" height="200.912"/>
<rect x="284.362" y="533.976" fill="#CACECF" stroke="#FFFFFF" stroke-miterlimit="10" width="200.912" height="200.912"/>
<rect x="524.668" y="533.976" fill="#CACECF" stroke="#FFFFFF" stroke-miterlimit="10" width="200.912" height="200.912"/>
<rect x="766.457" y="529.526" fill="#CACECF" stroke="#FFFFFF" stroke-miterlimit="10" width="200.912" height="200.912"/>
<circle fill="#434445" stroke="#FFFFFF" stroke-miterlimit="10" cx="1099.801" cy="634.432" r="111.722"/>
</svg>
