<svg width="840" height="460" viewBox="0 0 840 460" fill="none" xmlns="http://www.w3.org/2000/svg">
<g id="ds-02">
<g id="g10">
<g id="g12">
<path id="path62" d="M259.029 409.936H340.411V381.778H259.029V409.936Z" fill="#FF644E"/>
<g id="g64">
<g id="g66">
<path id="path72" d="M268.196 398.486L270.746 390.838H270.87V402.341H272.59V389.284H269.937L267.844 395.999H267.74L265.481 389.284H262.808V402.341H264.487V390.838H264.61L267.243 398.486H268.196" fill="white"/>
<path id="path74" d="M285.228 397.822C285.228 395.004 283.113 393.035 280.398 393.035C277.704 393.035 275.59 395.004 275.59 397.822C275.59 400.62 277.704 402.589 280.398 402.589C283.113 402.589 285.228 400.62 285.228 397.822ZM277.392 397.822C277.392 395.771 278.554 394.403 280.398 394.403C282.264 394.403 283.424 395.771 283.424 397.822C283.424 399.854 282.264 401.222 280.398 401.222C278.554 401.222 277.392 399.854 277.392 397.822Z" fill="white"/>
<path id="path76" d="M290.652 400.413C291.107 401.656 292.248 402.589 293.927 402.589C296.642 402.589 298.237 400.476 298.237 397.822C298.237 395.149 296.642 393.035 293.947 393.035C292.247 393.035 291.149 394.03 290.693 395.253V389.284H288.973V402.341H290.237L290.652 400.413ZM290.631 397.615C290.631 395.646 291.937 394.382 293.512 394.382C295.356 394.382 296.455 395.75 296.455 397.822C296.455 399.895 295.356 401.263 293.512 401.263C291.937 401.263 290.631 399.999 290.631 398.009V397.615Z" fill="white"/>
<path id="path78" d="M304.968 391.128H307.31V388.91H304.968V391.128ZM310.978 402.341V401.014H307.103V393.284H301.963V394.631H305.404V401.014H301.548V402.341H310.978" fill="white"/>
<path id="path80" d="M323.636 402.341V401.035H319.761V389.284H314.621V390.589H318.062V401.035H314.206V402.341H323.636Z" fill="white"/>
<path id="path82" d="M334.201 399.294C333.704 400.579 332.834 401.243 331.32 401.243C329.641 401.243 328.233 399.999 328.233 398.03H335.569V397.491C335.569 395.149 334.118 393.035 331.196 393.035C328.523 393.035 326.533 395.087 326.533 397.946C326.533 400.724 328.523 402.589 331.258 402.589C333.372 402.589 334.823 401.677 335.528 400.082L334.201 399.294ZM328.294 396.91C328.502 395.563 329.559 394.382 331.196 394.382C332.916 394.382 333.828 395.584 333.911 396.91H328.294Z" fill="white"/>
</g>
</g>
<path id="path102" d="M697.244 166.303C698.112 168.169 700.29 169.287 702.674 169.287C705.364 169.287 707.438 167.878 707.438 165.495C707.438 163.256 705.967 162.365 704.059 161.909L701.761 161.37C700.41 161.059 699.543 160.644 699.543 159.423C699.543 158.013 700.6 157.225 702.198 157.225C703.939 157.225 705.243 158.199 705.841 159.567L707.001 158.303C706.197 156.831 704.536 155.733 702.198 155.733C699.623 155.733 697.842 157.287 697.842 159.505C697.842 161.557 699.25 162.531 700.974 162.925L703.565 163.546C704.95 163.878 705.76 164.354 705.76 165.536C705.76 167.049 704.433 167.795 702.674 167.795C700.887 167.795 699.146 166.821 698.342 164.935L697.244 166.303" fill="black"/>
<path id="path136" d="M788.029 409.935H831.306V381.778H788.029V409.935Z" fill="#FF644E"/>
<g id="g138">
<g id="g140">
<path id="path146" d="M797.746 391.335H796.149L794.241 399.978H794.138L792.937 389.284H791.155L792.833 402.341H794.971L796.873 393.656H796.999L798.867 402.341H800.999L802.7 389.284H801.022L799.821 400.02H799.694L797.746 391.335" fill="white"/>
<path id="path148" d="M812.641 399.294C812.147 400.579 811.274 401.243 809.762 401.243C808.084 401.243 806.677 399.999 806.677 398.03H814.009V397.491C814.009 395.149 812.561 393.035 809.636 393.035C806.964 393.035 804.976 395.087 804.976 397.946C804.976 400.724 806.964 402.589 809.699 402.589C811.814 402.589 813.262 401.677 813.969 400.082L812.641 399.294ZM806.734 396.91C806.941 395.563 807.998 394.382 809.636 394.382C811.36 394.382 812.268 395.584 812.354 396.91H806.734Z" fill="white"/>
<path id="path150" d="M819.893 400.413C820.347 401.656 821.484 402.589 823.168 402.589C825.88 402.589 827.478 400.476 827.478 397.822C827.478 395.149 825.88 393.035 823.185 393.035C821.485 393.035 820.387 394.03 819.933 395.253V389.284H818.215V402.341H819.479L819.893 400.413ZM819.87 397.615C819.87 395.646 821.174 394.382 822.749 394.382C824.593 394.382 825.697 395.75 825.697 397.822C825.697 399.895 824.593 401.263 822.749 401.263C821.174 401.263 819.87 399.999 819.87 398.009V397.615Z" fill="white"/>
</g>
</g>
<g class="word">
<path id="path16" d="M101.48 169.039H104.921C108.942 169.039 111.512 166.593 111.512 162.51C111.512 158.427 108.942 155.982 104.921 155.982H101.48V169.039ZM103.305 167.546V157.474H104.713C107.905 157.474 109.626 159.339 109.626 162.51C109.626 165.682 107.905 167.546 104.713 167.546H103.305" fill="black"/>
<path id="path18" d="M121.932 165.992C121.434 167.277 120.564 167.941 119.051 167.941C117.372 167.941 115.963 166.697 115.963 164.728H123.3V164.189C123.3 161.847 121.849 159.733 118.926 159.733C116.253 159.733 114.264 161.785 114.264 164.644C114.264 167.422 116.253 169.287 118.989 169.287C121.102 169.287 122.553 168.375 123.258 166.78L121.932 165.992ZM116.025 163.608C116.232 162.261 117.289 161.08 118.926 161.08C120.647 161.08 121.559 162.282 121.641 163.608H116.025Z" fill="black"/>
<path id="path20" d="M127.004 167.215C127.812 168.5 129.678 169.287 131.688 169.287C133.988 169.287 135.708 168.231 135.708 166.531C135.708 165.08 134.61 164.354 133.221 164.065L130.693 163.505C129.698 163.277 129.221 162.946 129.221 162.282C129.221 161.536 130.133 161.08 131.294 161.08C132.578 161.08 133.698 161.618 134.216 162.552L135.376 161.598C134.63 160.438 133.201 159.733 131.294 159.733C129.201 159.733 127.584 160.81 127.584 162.406C127.584 163.94 128.765 164.624 130.32 164.956L132.537 165.433C133.512 165.639 134.05 165.971 134.05 166.655C134.05 167.567 133.097 167.961 131.667 167.961C130.216 167.961 128.724 167.298 128.061 166.075L127.004 167.215" fill="black"/>
<path id="path22" d="M143.495 157.826H145.837V155.608H143.495V157.826ZM149.506 169.039V167.712H145.63V159.982H140.49V161.329H143.931V167.712H140.075V169.039H149.506" fill="black"/>
<path id="path24" d="M158.931 162.8C158.931 163.982 157.956 164.748 156.754 164.748C155.553 164.748 154.579 163.982 154.579 162.8C154.579 161.639 155.553 160.873 156.754 160.873C157.956 160.873 158.931 161.639 158.931 162.8ZM162.288 169.618C162.288 168.169 161.045 167.195 158.972 167.195H155.283C154.392 167.195 154.019 166.883 154.019 166.427C154.019 165.951 154.351 165.682 154.724 165.495C155.305 165.744 155.988 165.867 156.754 165.867C159.034 165.867 160.672 164.687 160.672 162.8C160.672 162.241 160.526 161.744 160.237 161.308C160.775 160.769 161.894 160.396 162.744 160.562L162.558 159.049C161.211 158.862 160.092 159.733 159.574 160.582C158.869 160.044 157.895 159.733 156.754 159.733C154.454 159.733 152.818 160.935 152.818 162.8C152.818 163.754 153.231 164.541 153.956 165.059C153.128 165.391 152.548 165.971 152.548 166.759C152.548 167.526 153.045 168.106 153.956 168.354C152.734 168.48 151.822 169.267 151.822 170.22C151.822 171.982 154.143 172.769 156.818 172.769C159.469 172.769 162.288 171.878 162.288 169.618V169.618ZM153.48 169.992C153.48 169.121 154.454 168.644 155.469 168.644H158.579C159.718 168.644 160.61 168.956 160.61 169.826C160.61 171.069 158.91 171.629 156.818 171.629C154.972 171.629 153.48 171.131 153.48 169.992" fill="black"/>
<path id="path26" d="M167.32 164.147C167.32 162.365 168.46 161.184 169.994 161.184C171.486 161.184 172.273 162.137 172.273 163.65V169.039H173.994V163.423C173.994 161.308 172.977 159.733 170.574 159.733C168.977 159.733 167.756 160.687 167.32 161.826V159.982H165.6V169.039H167.32V164.147" fill="black"/>
<path id="path28" d="M189.838 166.303C190.709 168.169 192.885 169.287 195.268 169.287C197.963 169.287 200.035 167.878 200.035 165.495C200.035 163.256 198.563 162.365 196.657 161.909L194.356 161.37C193.009 161.059 192.139 160.644 192.139 159.423C192.139 158.013 193.196 157.225 194.791 157.225C196.532 157.225 197.838 158.199 198.44 159.567L199.6 158.303C198.791 156.831 197.133 155.733 194.791 155.733C192.221 155.733 190.44 157.287 190.44 159.505C190.44 161.557 191.848 162.531 193.568 162.925L196.16 163.546C197.548 163.878 198.356 164.354 198.356 165.536C198.356 167.049 197.03 167.795 195.268 167.795C193.486 167.795 191.745 166.821 190.937 164.935L189.838 166.303" fill="black"/>
<path id="path30" d="M206.89 169.847C206.455 170.862 205.916 171.38 205.211 171.38C204.445 171.38 204.071 170.8 204.071 169.888L202.662 170.655C202.828 171.837 203.698 172.769 205.149 172.769C206.911 172.769 207.885 171.38 208.631 169.639L212.693 159.982H211.014L208.134 167.029H208.05L204.839 159.982H202.932L207.243 169.018L206.89 169.847" fill="black"/>
<path id="path32" d="M215.9 167.215C216.708 168.5 218.574 169.287 220.584 169.287C222.885 169.287 224.605 168.231 224.605 166.531C224.605 165.08 223.506 164.354 222.118 164.065L219.59 163.505C218.595 163.277 218.118 162.946 218.118 162.282C218.118 161.536 219.029 161.08 220.19 161.08C221.475 161.08 222.595 161.618 223.113 162.552L224.273 161.598C223.527 160.438 222.097 159.733 220.19 159.733C218.097 159.733 216.48 160.81 216.48 162.406C216.48 163.94 217.662 164.624 219.216 164.956L221.434 165.433C222.408 165.639 222.947 165.971 222.947 166.655C222.947 167.567 221.993 167.961 220.564 167.961C219.113 167.961 217.62 167.298 216.957 166.075L215.9 167.215" fill="black"/>
<path id="path34" d="M227.646 160.459V161.744H230.589V165.391C230.589 167.961 232.413 169.287 234.672 169.287C236.517 169.287 238.112 168.147 238.63 166.862L237.718 165.557C237.076 167.049 236.102 167.795 234.755 167.795C233.491 167.795 232.268 166.967 232.268 165.246V161.744H237.345V160.459H232.268V156.956L230.589 157.474V160.459H227.646" fill="black"/>
<path id="path36" d="M248.926 165.992C248.428 167.277 247.558 167.941 246.045 167.941C244.366 167.941 242.958 166.697 242.958 164.728H250.294V164.189C250.294 161.847 248.843 159.733 245.92 159.733C243.247 159.733 241.258 161.785 241.258 164.644C241.258 167.422 243.247 169.287 245.983 169.287C248.097 169.287 249.547 168.375 250.253 166.78L248.926 165.992ZM243.019 163.608C243.227 162.261 244.283 161.08 245.92 161.08C247.641 161.08 248.553 162.282 248.636 163.608H243.019Z" fill="black"/>
<path id="path38" d="M255.034 163.982C255.034 162.344 255.572 161.142 256.568 161.142C257.583 161.142 257.832 161.951 257.832 163.008V169.039H259.408V163.982C259.408 162.344 259.967 161.142 260.941 161.142C261.957 161.142 262.206 161.951 262.206 163.008V169.039H263.78V162.303C263.78 160.769 262.972 159.733 261.708 159.733C260.464 159.733 259.636 160.687 259.344 161.805C259.2 160.541 258.454 159.733 257.334 159.733C256.049 159.733 255.304 160.728 255.034 161.867V159.982H253.459V169.039H255.034V163.982" fill="black"/>
<path id="path40" d="M9 399.605C9.87115 401.471 12.0467 402.589 14.4303 402.589C17.1248 402.589 19.1969 401.18 19.1969 398.797C19.1969 396.558 17.7253 395.667 15.8192 395.211L13.5184 394.672C12.1714 394.361 11.3014 393.946 11.3014 392.725C11.3014 391.315 12.3582 390.527 13.9534 390.527C15.6945 390.527 17.0001 391.501 17.6017 392.869L18.7619 391.605C17.9534 390.133 16.295 389.035 13.9534 389.035C11.3836 389.035 9.60164 390.589 9.60164 392.807C9.60164 394.859 11.0101 395.833 12.7305 396.227L15.3221 396.848C16.7099 397.18 17.5178 397.656 17.5178 398.838C17.5178 400.351 16.1921 401.097 14.4303 401.097C12.6478 401.097 10.9072 400.123 10.0993 398.237L9 399.605" fill="black"/>
<path id="path42" d="M24.5808 399.335L26.4248 397.843L30.3427 402.341H32.4355L27.689 396.869L32.2281 393.284H29.9899L24.5808 397.677V389.284H22.8604V402.341H24.5808V399.335Z" fill="black"/>
<path id="path44" d="M42.6884 399.294C42.1908 400.579 41.3208 401.243 39.8078 401.243C38.1287 401.243 36.7203 399.999 36.7203 398.03H44.0566V397.491C44.0566 395.149 42.6057 393.035 39.6831 393.035C37.0099 393.035 35.0205 395.087 35.0205 397.946C35.0205 400.724 37.0099 402.589 39.7457 402.589C41.8592 402.589 43.3102 401.677 44.0153 400.082L42.6884 399.294ZM36.7818 396.91C36.9892 395.563 38.046 394.382 39.6831 394.382C41.4036 394.382 42.3155 395.584 42.3982 396.91H36.7818Z" fill="black"/>
<path id="path46" d="M46.8076 393.761V395.046H49.7509V398.693C49.7509 401.263 51.5748 402.589 53.8337 402.589C55.6788 402.589 57.274 401.449 57.7924 400.164L56.8798 398.859C56.238 400.351 55.2639 401.097 53.917 401.097C52.6528 401.097 51.43 400.269 51.43 398.548V395.046H56.5075V393.761H51.43V390.258L49.7509 390.776V393.761H46.8076" fill="black"/>
<path id="path48" d="M68.0254 399.169C67.6731 400.331 66.8026 401.18 65.3936 401.18C63.6317 401.18 62.4296 399.895 62.4296 397.822C62.4296 395.729 63.6317 394.444 65.4349 394.444C66.7405 394.444 67.5484 395.253 67.9219 396.31L69.3522 395.481C68.7506 394.071 67.4657 393.035 65.4142 393.035C62.5744 393.035 60.627 395.025 60.627 397.822C60.627 400.641 62.5744 402.589 65.3522 402.589C67.6111 402.589 68.9373 401.367 69.4557 399.874L68.0254 399.169Z" fill="black"/>
<path id="path50" d="M75.3982 397.449C75.3982 395.667 76.517 394.486 78.0513 394.486C79.543 394.486 80.3309 395.439 80.3309 396.952V402.341H82.0513V396.725C82.0513 394.61 81.0348 393.035 78.6523 393.035C77.0566 393.035 75.8131 393.989 75.3982 395.128V389.284H73.6777V402.341H75.3982V397.449Z" fill="black"/>
<path id="path52" d="M155.172 402.341V396.433H160.395V394.88H155.172V390.817H162.114V389.284H153.368V402.341H155.172" fill="black"/>
<path id="path54" d="M169.24 391.128H171.581V388.91H169.24V391.128ZM175.25 402.341V401.014H171.374V393.284H166.234V394.631H169.675V401.014H165.819V402.341H175.25" fill="black"/>
<path id="path56" d="M184.675 396.102C184.675 397.284 183.701 398.05 182.498 398.05C181.297 398.05 180.323 397.284 180.323 396.102C180.323 394.941 181.297 394.174 182.498 394.174C183.701 394.174 184.675 394.941 184.675 396.102ZM188.032 402.92C188.032 401.471 186.789 400.497 184.717 400.497H181.027C180.136 400.497 179.763 400.185 179.763 399.729C179.763 399.253 180.095 398.984 180.468 398.797C181.049 399.046 181.732 399.169 182.498 399.169C184.778 399.169 186.416 397.989 186.416 396.102C186.416 395.543 186.27 395.046 185.981 394.61C186.519 394.071 187.639 393.698 188.488 393.864L188.302 392.351C186.955 392.164 185.836 393.035 185.318 393.884C184.613 393.346 183.639 393.035 182.498 393.035C180.198 393.035 178.562 394.237 178.562 396.102C178.562 397.056 178.975 397.843 179.701 398.361C178.872 398.693 178.292 399.273 178.292 400.061C178.292 400.828 178.789 401.408 179.701 401.656C178.478 401.782 177.566 402.569 177.566 403.522C177.566 405.284 179.887 406.071 182.562 406.071C185.214 406.071 188.032 405.18 188.032 402.92V402.92ZM179.224 403.294C179.224 402.423 180.198 401.946 181.214 401.946H184.323C185.462 401.946 186.354 402.258 186.354 403.128C186.354 404.371 184.655 404.931 182.562 404.931C180.717 404.931 179.224 404.433 179.224 403.294" fill="black"/>
<path id="path58" d="M191.882 397.284C191.882 395.646 192.42 394.444 193.415 394.444C194.431 394.444 194.68 395.253 194.68 396.31V402.341H196.255V397.284C196.255 395.646 196.814 394.444 197.789 394.444C198.804 394.444 199.053 395.253 199.053 396.31V402.341H200.628V395.605C200.628 394.071 199.82 393.035 198.556 393.035C197.312 393.035 196.483 393.989 196.192 395.107C196.048 393.843 195.301 393.035 194.182 393.035C192.897 393.035 192.151 394.03 191.882 395.169V393.284H190.307V402.341H191.882V397.284" fill="black"/>
<path id="path60" d="M205.389 396.102C205.68 395.19 206.612 394.403 208.043 394.403C209.348 394.403 209.804 395.066 209.804 395.688V396.454L207.027 397.097C204.913 397.574 203.483 398.279 203.483 399.916C203.483 401.512 204.686 402.527 206.363 402.527C208.022 402.527 209.369 401.677 209.825 400.537C209.908 401.656 210.861 402.548 212.063 402.548C212.582 402.548 213.058 402.403 213.556 402.05L213.452 400.766C213.183 401.014 212.768 401.18 212.395 401.18C211.918 401.18 211.42 400.89 211.42 400.164V395.75C211.42 393.926 210.135 393.035 208.084 393.035C205.95 393.035 204.478 394.112 203.856 395.543L205.389 396.102ZM209.804 398.693C209.804 400.02 208.374 401.222 206.778 401.222C205.742 401.222 205.204 400.599 205.204 399.792C205.204 398.797 206.074 398.444 207.442 398.112L209.804 397.553V398.693" fill="black"/>
<path id="path90" d="M608.882 169.039H612.324C616.346 169.039 618.915 166.593 618.915 162.51C618.915 158.427 616.346 155.982 612.324 155.982H608.882V169.039ZM610.709 167.546V157.474H612.117C615.306 157.474 617.03 159.339 617.03 162.51C617.03 165.682 615.306 167.546 612.117 167.546H610.709" fill="black"/>
<path id="path92" d="M629.333 165.992C628.838 167.277 627.965 167.941 626.454 167.941C624.776 167.941 623.368 166.697 623.368 164.728H630.7V164.189C630.7 161.847 629.252 159.733 626.327 159.733C623.655 159.733 621.667 161.785 621.667 164.644C621.667 167.422 623.655 169.287 626.391 169.287C628.505 169.287 629.953 168.375 630.66 166.78L629.333 165.992ZM623.425 163.608C623.632 162.261 624.69 161.08 626.327 161.08C628.051 161.08 628.959 162.282 629.045 163.608H623.425Z" fill="black"/>
<path id="path94" d="M634.407 167.215C635.217 168.5 637.079 169.287 639.091 169.287C641.389 169.287 643.113 168.231 643.113 166.531C643.113 165.08 642.015 164.354 640.625 164.065L638.096 163.505C637.102 163.277 636.625 162.946 636.625 162.282C636.625 161.536 637.539 161.08 638.7 161.08C639.981 161.08 641.102 161.618 641.619 162.552L642.78 161.598C642.033 160.438 640.602 159.733 638.7 159.733C636.602 159.733 634.988 160.81 634.988 162.406C634.988 163.94 636.171 164.624 637.723 164.956L639.941 165.433C640.912 165.639 641.452 165.971 641.452 166.655C641.452 167.567 640.498 167.961 639.073 167.961C637.619 167.961 636.125 167.298 635.465 166.075L634.407 167.215" fill="black"/>
<path id="path96" d="M650.899 157.826H653.237V155.608H650.899V157.826ZM656.909 169.039V167.712H653.036V159.982H647.893V161.329H651.335V167.712H647.479V169.039H656.909Z" fill="black"/>
<path id="path98" d="M666.334 162.801C666.334 163.982 665.363 164.749 664.156 164.749C662.955 164.749 661.984 163.982 661.984 162.801C661.984 161.639 662.955 160.873 664.156 160.873C665.363 160.873 666.334 161.639 666.334 162.801ZM669.69 169.619C669.69 168.169 668.448 167.195 666.374 167.195H662.685C661.794 167.195 661.421 166.883 661.421 166.428C661.421 165.951 661.754 165.682 662.127 165.495C662.708 165.744 663.392 165.867 664.156 165.867C666.437 165.867 668.075 164.687 668.075 162.801C668.075 162.241 667.931 161.744 667.638 161.308C668.178 160.769 669.299 160.396 670.149 160.562L669.96 159.049C668.615 158.863 667.495 159.733 666.977 160.582C666.271 160.044 665.299 159.733 664.156 159.733C661.857 159.733 660.22 160.935 660.22 162.801C660.22 163.754 660.633 164.541 661.357 165.059C660.53 165.391 659.95 165.971 659.95 166.759C659.95 167.526 660.45 168.106 661.357 168.354C660.139 168.48 659.226 169.267 659.226 170.22C659.226 171.982 661.547 172.769 664.219 172.769C666.874 172.769 669.69 171.878 669.69 169.619V169.619ZM660.881 169.992C660.881 169.121 661.857 168.645 662.875 168.645H665.983C667.121 168.645 668.012 168.956 668.012 169.826C668.012 171.07 666.311 171.629 664.219 171.629C662.375 171.629 660.881 171.132 660.881 169.992" fill="black"/>
<path id="path100" d="M674.724 164.147C674.724 162.365 675.862 161.184 677.396 161.184C678.89 161.184 679.677 162.137 679.677 163.65V169.039H681.396V163.423C681.396 161.308 680.378 159.733 677.976 159.733C676.379 159.733 675.161 160.687 674.724 161.826V159.982H673.006V169.039H674.724V164.147Z" fill="black"/>
<path id="path104" d="M714.294 169.847C713.857 170.862 713.317 171.38 712.616 171.38C711.846 171.38 711.472 170.801 711.472 169.888L710.064 170.655C710.231 171.837 711.105 172.769 712.553 172.769C714.317 172.769 715.288 171.38 716.035 169.639L720.098 159.982H718.42L715.535 167.029H715.455L712.242 159.982H710.334L714.644 169.018L714.294 169.847" fill="black"/>
<path id="path106" d="M723.303 167.215C724.113 168.5 725.975 169.287 727.986 169.287C730.285 169.287 732.008 168.231 732.008 166.531C732.008 165.08 730.911 164.354 729.52 164.065L726.992 163.505C725.998 163.277 725.521 162.946 725.521 162.282C725.521 161.536 726.435 161.08 727.595 161.08C728.877 161.08 729.997 161.618 730.514 162.552L731.675 161.598C730.928 160.438 729.497 159.733 727.595 159.733C725.498 159.733 723.883 160.81 723.883 162.406C723.883 163.94 725.067 164.624 726.618 164.956L728.836 165.433C729.808 165.639 730.348 165.971 730.348 166.655C730.348 167.567 729.394 167.961 727.969 167.961C726.515 167.961 725.021 167.298 724.36 166.075L723.303 167.215" fill="black"/>
<path id="path108" d="M735.049 160.459V161.744H737.991V165.391C737.991 167.961 739.818 169.287 742.077 169.287C743.921 169.287 745.513 168.147 746.036 166.862L745.122 165.557C744.479 167.049 743.507 167.795 742.157 167.795C740.893 167.795 739.669 166.967 739.669 165.246V161.744H744.749V160.459H739.669V156.956L737.991 157.474V160.459H735.049" fill="black"/>
<path id="path110" d="M756.327 165.992C755.833 167.277 754.959 167.941 753.448 167.941C751.77 167.941 750.362 166.697 750.362 164.728H757.694V164.189C757.694 161.847 756.246 159.733 753.321 159.733C750.649 159.733 748.661 161.785 748.661 164.644C748.661 167.422 750.649 169.287 753.385 169.287C755.499 169.287 756.947 168.375 757.654 166.78L756.327 165.992ZM750.42 163.608C750.626 162.261 751.684 161.08 753.321 161.08C755.045 161.08 755.953 162.282 756.039 163.608H750.42Z" fill="black"/>
<path id="path112" d="M762.437 163.982C762.437 162.344 762.977 161.142 763.971 161.142C764.988 161.142 765.235 161.951 765.235 163.008V169.039H766.81V163.982C766.81 162.344 767.373 161.142 768.344 161.142C769.361 161.142 769.608 161.951 769.608 163.008V169.039H771.183V162.303C771.183 160.769 770.378 159.733 769.114 159.733C767.867 159.733 767.04 160.687 766.747 161.805C766.603 160.541 765.856 159.733 764.741 159.733C763.454 159.733 762.707 160.728 762.437 161.867V159.982H760.862V169.039H762.437V163.982Z" fill="black"/>
<path id="path114" d="M533.07 399.605C533.938 401.471 536.116 402.589 538.501 402.589C541.19 402.589 543.264 401.18 543.264 398.797C543.264 396.558 541.793 395.667 539.886 395.21L537.587 394.672C536.237 394.361 535.369 393.946 535.369 392.725C535.369 391.314 536.426 390.527 538.024 390.527C539.765 390.527 541.069 391.501 541.667 392.869L542.828 391.605C542.023 390.133 540.362 389.035 538.024 389.035C535.449 389.035 533.668 390.589 533.668 392.807C533.668 394.859 535.076 395.833 536.8 396.227L539.391 396.848C540.776 397.18 541.586 397.656 541.586 398.838C541.586 400.351 540.259 401.097 538.501 401.097C536.714 401.097 534.972 400.123 534.168 398.237L533.07 399.605" fill="black"/>
<path id="path116" d="M548.649 399.335L550.493 397.843L554.412 402.34H556.504L551.758 396.869L556.297 393.284H554.056L548.649 397.677V389.284H546.931V402.34H548.649V399.335Z" fill="black"/>
<path id="path118" d="M566.755 399.294C566.26 400.579 565.387 401.242 563.876 401.242C562.198 401.242 560.79 399.999 560.79 398.03H568.122V397.491C568.122 395.148 566.674 393.035 563.749 393.035C561.077 393.035 559.089 395.087 559.089 397.946C559.089 400.724 561.077 402.589 563.812 402.589C565.927 402.589 567.375 401.677 568.082 400.082L566.755 399.294ZM560.847 396.91C561.054 395.563 562.111 394.382 563.749 394.382C565.473 394.382 566.381 395.584 566.467 396.91H560.847Z" fill="black"/>
<path id="path120" d="M570.875 393.761V395.046H573.817V398.693C573.817 401.263 575.644 402.589 577.903 402.589C579.747 402.589 581.339 401.449 581.862 400.164L580.948 398.859C580.305 400.351 579.334 401.097 577.983 401.097C576.719 401.097 575.495 400.268 575.495 398.548V395.046H580.575V393.761H575.495V390.258L573.817 390.776V393.761H570.875" fill="black"/>
<path id="path122" d="M592.091 399.169C591.74 400.33 590.873 401.18 589.459 401.18C587.701 401.18 586.5 399.895 586.5 397.822C586.5 395.729 587.701 394.444 589.505 394.444C590.809 394.444 591.614 395.253 591.987 396.31L593.418 395.481C592.821 394.071 591.533 393.035 589.482 393.035C586.643 393.035 584.695 395.025 584.695 397.822C584.695 400.641 586.643 402.589 589.419 402.589C591.677 402.589 593.005 401.367 593.522 399.874L592.091 399.169" fill="black"/>
<path id="path124" d="M599.469 397.449C599.469 395.667 600.584 394.486 602.118 394.486C603.612 394.486 604.399 395.439 604.399 396.952V402.34H606.118V396.725C606.118 394.61 605.1 393.035 602.721 393.035C601.124 393.035 599.883 393.989 599.469 395.128V389.284H597.745V402.34H599.469V397.449Z" fill="black"/>
<path id="path126" d="M662.576 402.34V396.433H667.799V394.879H662.576V390.817H669.517V389.284H660.771V402.34H662.576" fill="black"/>
<path id="path128" d="M676.643 391.128H678.981V388.91H676.643V391.128ZM682.653 402.34V401.014H678.78V393.284H673.637V394.631H677.079V401.014H673.224V402.34H682.653Z" fill="black"/>
<path id="path130" d="M692.077 396.102C692.077 397.284 691.106 398.05 689.899 398.05C688.698 398.05 687.727 397.284 687.727 396.102C687.727 394.941 688.698 394.174 689.899 394.174C691.106 394.174 692.077 394.941 692.077 396.102ZM695.433 402.92C695.433 401.471 694.192 400.497 692.117 400.497H688.428C687.537 400.497 687.164 400.184 687.164 399.729C687.164 399.253 687.497 398.984 687.871 398.797C688.451 399.046 689.135 399.169 689.899 399.169C692.18 399.169 693.818 397.989 693.818 396.102C693.818 395.543 693.674 395.046 693.381 394.61C693.922 394.071 695.042 393.697 695.893 393.863L695.703 392.351C694.358 392.164 693.238 393.035 692.721 393.884C692.014 393.346 691.043 393.035 689.899 393.035C687.601 393.035 685.963 394.237 685.963 396.102C685.963 397.056 686.377 397.843 687.101 398.361C686.273 398.693 685.693 399.273 685.693 400.061C685.693 400.828 686.193 401.408 687.101 401.656C685.882 401.781 684.969 402.569 684.969 403.522C684.969 405.284 687.29 406.071 689.962 406.071C692.617 406.071 695.433 405.18 695.433 402.92V402.92ZM686.624 403.294C686.624 402.423 687.601 401.946 688.618 401.946H691.726C692.864 401.946 693.755 402.258 693.755 403.128C693.755 404.371 692.054 404.931 689.962 404.931C688.118 404.931 686.624 404.433 686.624 403.294" fill="black"/>
<path id="path132" d="M699.283 397.284C699.283 395.646 699.824 394.444 700.818 394.444C701.835 394.444 702.082 395.253 702.082 396.31V402.34H703.656V397.284C703.656 395.646 704.22 394.444 705.191 394.444C706.208 394.444 706.455 395.253 706.455 396.31V402.34H708.029V395.605C708.029 394.071 707.225 393.035 705.961 393.035C704.714 393.035 703.886 393.989 703.593 395.107C703.45 393.843 702.703 393.035 701.588 393.035C700.301 393.035 699.554 394.029 699.283 395.169V393.284H697.709V402.34H699.283V397.284Z" fill="black"/>
<path id="path134" d="M712.793 396.102C713.08 395.19 714.016 394.403 715.447 394.403C716.752 394.403 717.206 395.066 717.206 395.687V396.454L714.43 397.097C712.316 397.574 710.885 398.278 710.885 399.916C710.885 401.512 712.086 402.527 713.764 402.527C715.424 402.527 716.769 401.677 717.229 400.537C717.309 401.656 718.263 402.548 719.464 402.548C719.981 402.548 720.458 402.403 720.958 402.05L720.855 400.765C720.585 401.014 720.171 401.18 719.797 401.18C719.32 401.18 718.82 400.89 718.82 400.164V395.75C718.82 393.926 717.539 393.035 715.488 393.035C713.35 393.035 711.879 394.112 711.258 395.543L712.793 396.102ZM717.206 398.693C717.206 400.02 715.775 401.222 714.183 401.222C713.143 401.222 712.609 400.599 712.609 399.791C712.609 398.797 713.476 398.444 714.844 398.112L717.206 397.553V398.693" fill="black"/>
<path id="path158" d="M359.7 56.5285C361.213 56.3004 362.498 55.2437 362.498 53.7306C362.498 51.6579 361.17 50.2489 357.959 50.2489H353.337V63.3058H358.187C361.234 63.3058 362.87 61.9795 362.87 59.7207C362.87 57.8548 361.399 56.7773 359.7 56.5285V56.5285ZM355.098 51.7412H358.041C359.906 51.7412 360.715 52.5699 360.715 53.8341C360.715 55.0983 359.906 55.8855 358.041 55.8855H355.098V51.7412ZM358.145 57.275C360.093 57.275 361.109 58.1243 361.109 59.5753C361.109 60.9848 360.093 61.7928 358.145 61.7928H355.098V57.275H358.145Z" fill="black"/>
<path id="path160" d="M371.424 55.4925C372.896 55.4925 373.579 56.3625 373.579 57.5646C373.579 58.0002 373.538 58.249 373.476 58.4139L375.072 57.9588C375.134 57.7927 375.155 57.5232 375.155 57.1497C375.155 55.5545 374.035 54.0001 371.963 54.0001C369.973 54.0001 368.771 55.4092 368.336 56.8601V54.2489H366.615V63.3058H368.336V59.4511C368.336 57.3572 369.725 55.4925 371.424 55.4925" fill="black"/>
<path id="path162" d="M380.538 57.0675C380.828 56.155 381.761 55.3677 383.191 55.3677C384.497 55.3677 384.953 56.0314 384.953 56.6526V57.4191L382.176 58.0622C380.061 58.5391 378.632 59.2436 378.632 60.8807C378.632 62.4771 379.834 63.4925 381.512 63.4925C383.17 63.4925 384.517 62.642 384.974 61.5025C385.056 62.6213 386.01 63.5132 387.212 63.5132C387.73 63.5132 388.206 63.3678 388.704 63.0155L388.601 61.7306C388.332 61.9795 387.917 62.1449 387.543 62.1449C387.066 62.1449 386.569 61.8548 386.569 61.129V56.7152C386.569 54.8907 385.284 54 383.232 54C381.098 54 379.627 55.0775 379.004 56.5078L380.538 57.0675ZM384.953 59.6579C384.953 60.9847 383.523 62.1869 381.927 62.1869C380.891 62.1869 380.352 61.5646 380.352 60.7566C380.352 59.7619 381.222 59.4091 382.591 59.0775L384.953 58.5185V59.6579" fill="black"/>
<path id="path164" d="M393.611 58.4139C393.611 56.632 394.751 55.4511 396.285 55.4511C397.777 55.4511 398.564 56.4038 398.564 57.9168V63.3058H400.285V57.6898C400.285 55.5752 399.268 54.0001 396.865 54.0001C395.268 54.0001 394.047 54.9541 393.611 56.093V54.2489H391.891V63.3058H393.611V58.4139" fill="black"/>
<path id="path166" d="M411.18 58.9741C411.18 60.9641 409.874 62.2283 408.3 62.2283C406.455 62.2283 405.357 60.8601 405.357 58.7874C405.357 56.7153 406.455 55.347 408.3 55.347C409.874 55.347 411.18 56.6112 411.18 58.5805V58.9741ZM411.118 63.3057H412.838V50.2489H411.118V56.2182C410.662 54.9948 409.564 54.0001 407.864 54.0001C405.17 54.0001 403.574 56.1136 403.574 58.7874C403.574 61.4411 405.17 63.5546 407.864 63.5546C409.564 63.5546 410.662 62.58 411.118 61.3571V63.3057Z" fill="black"/>
<path id="path168" d="M428.828 60.5699C429.699 62.4357 431.875 63.5546 434.258 63.5546C436.953 63.5546 439.025 62.145 439.025 59.762C439.025 57.5232 437.553 56.6319 435.647 56.1757L433.346 55.6372C432 55.3263 431.13 54.9115 431.13 53.6898C431.13 52.2796 432.186 51.4924 433.781 51.4924C435.523 51.4924 436.828 52.4664 437.43 53.834L438.59 52.5698C437.782 51.0982 436.123 50.0001 433.781 50.0001C431.212 50.0001 429.43 51.5544 429.43 53.772C429.43 55.824 430.838 56.798 432.559 57.1922L435.15 57.8134C436.538 58.1449 437.346 58.6213 437.346 59.8033C437.346 61.3158 436.02 62.0623 434.258 62.0623C432.476 62.0623 430.735 61.0882 429.927 59.2023L428.828 60.5699" fill="black"/>
<path id="path170" d="M445.881 64.1138C445.446 65.1291 444.908 65.6475 444.202 65.6475C443.436 65.6475 443.062 65.0677 443.062 64.1552L441.653 64.9217C441.819 66.1038 442.689 67.0364 444.14 67.0364C445.902 67.0364 446.876 65.6475 447.623 63.9064L451.685 54.249H450.006L447.125 61.2957H447.042L443.83 54.249H441.923L446.234 63.2851L445.881 64.1138" fill="black"/>
<path id="path172" d="M454.892 61.4824C455.702 62.7667 457.564 63.5546 459.575 63.5546C461.873 63.5546 463.597 62.4978 463.597 60.7981C463.597 59.3471 462.5 58.6213 461.109 58.3317L458.581 57.772C457.587 57.5439 457.11 57.2129 457.11 56.5492C457.11 55.8033 458.023 55.347 459.184 55.347C460.466 55.347 461.586 55.8855 462.103 56.8187L463.264 55.8653C462.517 54.7051 461.086 54.0001 459.184 54.0001C457.087 54.0001 455.472 55.0775 455.472 56.6733C455.472 58.2076 456.656 58.8908 458.207 59.223L460.425 59.6999C461.396 59.9062 461.937 60.2383 461.937 60.9221C461.937 61.8341 460.983 62.2283 459.558 62.2283C458.104 62.2283 456.61 61.5646 455.949 60.3418L454.892 61.4824" fill="black"/>
<path id="path174" d="M466.637 54.7259V56.0107H469.579V59.6579C469.579 62.2283 471.406 63.5546 473.664 63.5546C475.509 63.5546 477.101 62.4139 477.624 61.129L476.71 59.824C476.066 61.3158 475.095 62.0623 473.745 62.0623C472.481 62.0623 471.257 61.2336 471.257 59.5132V56.0107H476.337V54.7259H471.257V51.2229L469.579 51.7412V54.7259H466.637" fill="black"/>
<path id="path176" d="M487.916 60.2591C487.421 61.5439 486.548 62.2076 485.037 62.2076C483.359 62.2076 481.951 60.9641 481.951 58.9949H489.283V58.4564C489.283 56.1136 487.835 54.0001 484.91 54.0001C482.238 54.0001 480.25 56.0521 480.25 58.9115C480.25 61.6893 482.238 63.5546 484.974 63.5546C487.088 63.5546 488.536 62.6421 489.243 61.0469L487.916 60.2591ZM482.008 57.8754C482.215 56.5285 483.273 55.347 484.91 55.347C486.634 55.347 487.542 56.5492 487.628 57.8754H482.008Z" fill="black"/>
<path id="path178" d="M494.024 58.249C494.024 56.6113 494.564 55.4092 495.558 55.4092C496.575 55.4092 496.822 56.2182 496.822 57.275V63.3058H498.397V58.249C498.397 56.6113 498.96 55.4092 499.931 55.4092C500.948 55.4092 501.195 56.2182 501.195 57.275V63.3058H502.77V56.5699C502.77 55.0362 501.965 54.0001 500.701 54.0001C499.454 54.0001 498.627 54.954 498.333 56.0723C498.19 54.8081 497.443 54.0001 496.328 54.0001C495.041 54.0001 494.294 54.9948 494.024 56.1343V54.2489H492.449V63.3058H494.024V58.249Z" fill="black"/>
</g>
<g class="strokes">
<path id="path84" d="M65.2246 381.78C129.725 330.399 168.224 262.038 180.723 176.696" stroke="black" stroke-width="2"/>
<path id="path86" d="M182.533 381.778V176.696" stroke="black" stroke-width="2"/>
<path id="path88" d="M284.725 381.78C231.185 328.452 197.797 260.091 184.558 176.696" stroke="black" stroke-width="2"/>
<path id="path152" d="M583.885 381.779C633.051 328.042 667.379 259.682 686.865 176.696" stroke="black" stroke-width="2"/>
<path id="path154" d="M689.997 381.778V176.696" stroke="black" stroke-width="2"/>
<path id="path156" d="M796.684 381.778C746.495 324.972 711.977 256.611 693.129 176.696" stroke="black" stroke-width="2"/>
<path id="path180" d="M676.827 148.539C637.982 110.616 581.294 83.8635 506.775 68.2805" stroke="black" stroke-width="2" stroke-dasharray="12 12"/>
<path id="path182" d="M192.813 148.539C223.978 110.635 276.101 83.894 349.184 68.3167" stroke="black" stroke-width="2" stroke-dasharray="12 12"/>
</g>
</g>
</g>
</g>
</svg>
