<svg width="840" height="352" viewBox="0 0 840 352" fill="none" xmlns="http://www.w3.org/2000/svg">
<g id="ds-01">
<g id="g10">
<g id="g12">
<path id="path80" d="M272.248 276.94C344.192 228.044 392.216 159.683 416.322 71.8575" stroke="black" stroke-width="2"/>
<path id="path82" d="M374.437 276.94C397.222 208.579 411.967 140.218 418.673 71.8569" stroke="black" stroke-width="2"/>
<path id="path118" d="M250.809 288.79V290.075H253.752V293.722C253.752 296.293 255.576 297.619 257.835 297.619C259.68 297.619 261.275 296.478 261.793 295.193L260.881 293.888C260.239 295.38 259.265 296.127 257.918 296.127C256.654 296.127 255.431 295.298 255.431 293.578V290.075H260.508V288.79H255.431V285.287L253.752 285.806V288.79H250.809Z" fill="black"/>
<g class="word">
<path id="path16" d="M338.81 64.6429H342.25C346.271 64.6429 348.841 62.1973 348.841 58.1145C348.841 54.0317 346.271 51.5861 342.25 51.5861H338.81V64.6429ZM340.634 63.1506V53.0784H342.042C345.235 53.0784 346.955 54.9431 346.955 58.1145C346.955 61.2859 345.235 63.1506 342.042 63.1506H340.634Z" fill="black"/>
<path id="path18" d="M359.261 61.5962C358.763 62.8811 357.893 63.5448 356.38 63.5448C354.701 63.5448 353.293 62.3013 353.293 60.332H360.629V59.7935C360.629 57.4508 359.178 55.3373 356.255 55.3373C353.582 55.3373 351.593 57.3893 351.593 60.2487C351.593 63.0264 353.582 64.8917 356.318 64.8917C358.431 64.8917 359.882 63.9792 360.588 62.384L359.261 61.5962ZM353.354 59.2126C353.561 57.8657 354.618 56.6842 356.255 56.6842C357.976 56.6842 358.888 57.8863 358.97 59.2126H353.354Z" fill="black"/>
<path id="path20" d="M364.333 62.8196C365.141 64.1039 367.007 64.8917 369.017 64.8917C371.317 64.8917 373.038 63.835 373.038 62.1352C373.038 60.6842 371.939 59.9585 370.551 59.6689L368.022 59.1092C367.027 58.881 366.551 58.55 366.551 57.8863C366.551 57.1405 367.462 56.6842 368.623 56.6842C369.908 56.6842 371.027 57.2226 371.545 58.1558L372.705 57.2025C371.96 56.0423 370.53 55.3373 368.623 55.3373C366.53 55.3373 364.913 56.4147 364.913 58.0105C364.913 59.5447 366.094 60.228 367.649 60.5601L369.866 61.0371C370.841 61.2434 371.379 61.5755 371.379 62.2593C371.379 63.1713 370.426 63.5655 368.996 63.5655C367.545 63.5655 366.053 62.9018 365.39 61.6789L364.333 62.8196Z" fill="black"/>
<path id="path22" d="M380.824 53.4301H383.166V51.2126H380.824V53.4301ZM386.835 64.6429V63.3167H382.959V55.5861H377.819V56.9331H381.26V63.3167H377.404V64.6429H386.835Z" fill="black"/>
<path id="path24" d="M396.26 58.4046C396.26 59.5861 395.286 60.3526 394.083 60.3526C392.882 60.3526 391.908 59.5861 391.908 58.4046C391.908 57.2433 392.882 56.4767 394.083 56.4767C395.286 56.4767 396.26 57.2433 396.26 58.4046ZM399.617 65.2227C399.617 63.7729 398.374 62.7989 396.302 62.7989H392.612C391.721 62.7989 391.348 62.4869 391.348 62.0317C391.348 61.5554 391.68 61.2859 392.053 61.0991C392.634 61.3479 393.317 61.4715 394.083 61.4715C396.363 61.4715 398.001 60.2912 398.001 58.4046C398.001 57.8449 397.855 57.3479 397.566 56.9123C398.104 56.3733 399.224 55.9998 400.073 56.1659L399.887 54.6534C398.54 54.4667 397.421 55.3372 396.903 56.1865C396.198 55.6481 395.224 55.3372 394.083 55.3372C391.783 55.3372 390.147 56.5394 390.147 58.4046C390.147 59.358 390.56 60.1452 391.286 60.6635C390.457 60.9951 389.877 61.5755 389.877 62.3633C389.877 63.1299 390.374 63.7102 391.286 63.9585C390.063 64.0838 389.151 64.871 389.151 65.8243C389.151 67.5862 391.472 68.3734 394.147 68.3734C396.799 68.3734 399.617 67.4821 399.617 65.2227ZM390.809 65.5962C390.809 64.7256 391.783 64.2487 392.799 64.2487H395.908C397.047 64.2487 397.939 64.5601 397.939 65.4301C397.939 66.6737 396.239 67.2333 394.147 67.2333C392.302 67.2333 390.809 66.7357 390.809 65.5962Z" fill="black"/>
<path id="path26" d="M404.649 59.7511C404.649 57.9691 405.789 56.7883 407.323 56.7883C408.815 56.7883 409.603 57.741 409.603 59.254V64.6429H411.323V59.027C411.323 56.9124 410.306 55.3373 407.903 55.3373C406.306 55.3373 405.085 56.2912 404.649 57.4301V55.5861H402.929V64.6429H404.649V59.7511Z" fill="black"/>
<path id="path28" d="M427.166 61.9071C428.037 63.7729 430.213 64.8917 432.596 64.8917C435.291 64.8917 437.363 63.4821 437.363 61.0991C437.363 58.8604 435.891 57.9691 433.985 57.5128L431.684 56.9744C430.337 56.6635 429.467 56.2486 429.467 55.027C429.467 53.6168 430.524 52.8295 432.119 52.8295C433.861 52.8295 435.166 53.8036 435.768 55.1712L436.928 53.907C436.119 52.4353 434.461 51.3372 432.119 51.3372C429.55 51.3372 427.768 52.8916 427.768 55.1091C427.768 57.1611 429.176 58.1351 430.897 58.5293L433.488 59.1505C434.876 59.4821 435.684 59.9585 435.684 61.1405C435.684 62.6529 434.358 63.3994 432.596 63.3994C430.814 63.3994 429.073 62.4254 428.265 60.5394L427.166 61.9071Z" fill="black"/>
<path id="path30" d="M444.218 65.4508C443.782 66.4662 443.242 66.9845 442.539 66.9845C441.773 66.9845 441.399 66.4047 441.399 65.4922L439.99 66.2588C440.156 67.4408 441.026 68.3734 442.477 68.3734C444.241 68.3734 445.213 66.9845 445.96 65.2434L450.022 55.5861H448.344L445.46 62.6328H445.379L442.167 55.5861H440.26L444.569 64.6222L444.218 65.4508Z" fill="black"/>
<path id="path32" d="M453.229 62.8196C454.04 64.1039 455.902 64.8917 457.913 64.8917C460.211 64.8917 461.935 63.835 461.935 62.1352C461.935 60.6842 460.838 59.9585 459.447 59.6689L456.919 59.1092C455.925 58.881 455.448 58.55 455.448 57.8863C455.448 57.1405 456.361 56.6842 457.522 56.6842C458.803 56.6842 459.924 57.2226 460.441 58.1558L461.602 57.2025C460.855 56.0423 459.424 55.3373 457.522 55.3373C455.425 55.3373 453.81 56.4147 453.81 58.0105C453.81 59.5447 454.994 60.228 456.545 60.5601L458.763 61.0371C459.734 61.2434 460.275 61.5755 460.275 62.2593C460.275 63.1713 459.321 63.5655 457.896 63.5655C456.442 63.5655 454.948 62.9018 454.287 61.6789L453.229 62.8196Z" fill="black"/>
<path id="path34" d="M464.975 56.063V57.3479H467.917V60.9951C467.917 63.5655 469.744 64.8917 472.002 64.8917C473.847 64.8917 475.439 63.7511 475.962 62.4662L475.048 61.1612C474.404 62.6529 473.433 63.3994 472.083 63.3994C470.819 63.3994 469.595 62.5708 469.595 60.8503V57.3479H474.674V56.063H469.595V52.56L467.917 53.0784V56.063H464.975Z" fill="black"/>
<path id="path36" d="M486.254 61.5962C485.759 62.8811 484.886 63.5448 483.375 63.5448C481.697 63.5448 480.289 62.3013 480.289 60.332H487.621V59.7935C487.621 57.4508 486.173 55.3373 483.248 55.3373C480.576 55.3373 478.588 57.3893 478.588 60.2487C478.588 63.0264 480.576 64.8917 483.311 64.8917C485.426 64.8917 486.874 63.9792 487.581 62.384L486.254 61.5962ZM480.346 59.2126C480.553 57.8657 481.611 56.6842 483.248 56.6842C484.972 56.6842 485.88 57.8863 485.966 59.2126H480.346Z" fill="black"/>
<path id="path38" d="M492.363 59.5862C492.363 57.9484 492.903 56.7463 493.897 56.7463C494.914 56.7463 495.161 57.5554 495.161 58.6121V64.6429H496.736V59.5862C496.736 57.9484 497.299 56.7463 498.27 56.7463C499.287 56.7463 499.534 57.5554 499.534 58.6121V64.6429H501.109V57.9071C501.109 56.3734 500.304 55.3373 499.04 55.3373C497.793 55.3373 496.965 56.2912 496.672 57.4094C496.529 56.1452 495.782 55.3373 494.667 55.3373C493.38 55.3373 492.633 56.332 492.363 57.4715V55.5861H490.788V64.6429H492.363V59.5862Z" fill="black"/>
<path id="path40" d="M213 294.634C213.871 296.5 216.047 297.619 218.43 297.619C221.125 297.619 223.197 296.209 223.197 293.826C223.197 291.588 221.725 290.696 219.819 290.24L217.518 289.702C216.171 289.391 215.301 288.976 215.301 287.754C215.301 286.344 216.358 285.557 217.953 285.557C219.695 285.557 221 286.531 221.602 287.898L222.762 286.634C221.953 285.163 220.295 284.065 217.953 284.065C215.384 284.065 213.602 285.619 213.602 287.836C213.602 289.888 215.01 290.862 216.731 291.257L219.322 291.878C220.71 292.209 221.518 292.686 221.518 293.868C221.518 295.38 220.192 296.127 218.43 296.127C216.648 296.127 214.907 295.153 214.099 293.267L213 294.634Z" fill="black"/>
<path id="path42" d="M228.581 294.365L230.425 292.873L234.343 297.37H236.435L231.689 291.899L236.228 288.313H233.99L228.581 292.707V284.313H226.86V297.37H228.581V294.365Z" fill="black"/>
<path id="path44" d="M246.689 294.323C246.192 295.608 245.322 296.272 243.809 296.272C242.13 296.272 240.721 295.029 240.721 293.059H248.058V292.521C248.058 290.178 246.607 288.065 243.684 288.065C241.011 288.065 239.021 290.117 239.021 292.976C239.021 295.754 241.011 297.619 243.747 297.619C245.86 297.619 247.311 296.706 248.016 295.111L246.689 294.323ZM240.783 291.94C240.99 290.593 242.047 289.411 243.684 289.411C245.405 289.411 246.316 290.614 246.399 291.94H240.783Z" fill="black"/>
<path id="path46" d="M250.809 288.79V290.075H253.752V293.722C253.752 296.293 255.576 297.619 257.835 297.619C259.68 297.619 261.275 296.478 261.793 295.193L260.881 293.888C260.239 295.38 259.265 296.127 257.918 296.127C256.654 296.127 255.431 295.298 255.431 293.578V290.075H260.508V288.79H255.431V285.287L253.752 285.806V288.79H250.809Z" fill="black"/>
<path id="path48" d="M272.026 294.199C271.674 295.36 270.804 296.209 269.395 296.209C267.633 296.209 266.431 294.925 266.431 292.852C266.431 290.759 267.633 289.474 269.436 289.474C270.741 289.474 271.549 290.283 271.923 291.339L273.353 290.51C272.752 289.101 271.467 288.065 269.415 288.065C266.575 288.065 264.628 290.055 264.628 292.852C264.628 295.67 266.575 297.619 269.353 297.619C271.612 297.619 272.938 296.396 273.457 294.904L272.026 294.199Z" fill="black"/>
<path id="path50" d="M279.399 292.478C279.399 290.696 280.518 289.516 282.052 289.516C283.544 289.516 284.332 290.468 284.332 291.981V297.37H286.052V291.754C286.052 289.64 285.036 288.065 282.653 288.065C281.058 288.065 279.814 289.018 279.399 290.157V284.313H277.679V297.37H279.399V292.478Z" fill="black"/>
<path id="path52" d="M341.934 297.37V291.463H347.156V289.909H341.934V285.847H348.876V284.313H340.13V297.37H341.934Z" fill="black"/>
<path id="path54" d="M356.001 286.157H358.343V283.94H356.001V286.157ZM362.011 297.37V296.044H358.136V288.313H352.996V289.66H356.437V296.044H352.581V297.37H362.011Z" fill="black"/>
<path id="path56" d="M371.436 291.132C371.436 292.313 370.461 293.08 369.259 293.08C368.058 293.08 367.084 292.313 367.084 291.132C367.084 289.971 368.058 289.204 369.259 289.204C370.461 289.204 371.436 289.971 371.436 291.132ZM374.793 297.95C374.793 296.5 373.55 295.526 371.477 295.526H367.788C366.897 295.526 366.523 295.214 366.523 294.759C366.523 294.283 366.856 294.013 367.228 293.826C367.809 294.075 368.493 294.199 369.259 294.199C371.539 294.199 373.177 293.018 373.177 291.132C373.177 290.572 373.031 290.075 372.742 289.64C373.28 289.101 374.399 288.727 375.249 288.893L375.063 287.381C373.716 287.194 372.597 288.065 372.078 288.914C371.374 288.375 370.4 288.065 369.259 288.065C366.959 288.065 365.322 289.267 365.322 291.132C365.322 292.085 365.736 292.873 366.461 293.391C365.633 293.722 365.053 294.303 365.053 295.091C365.053 295.857 365.55 296.438 366.461 296.686C365.238 296.811 364.327 297.598 364.327 298.552C364.327 300.313 366.648 301.101 369.322 301.101C371.974 301.101 374.793 300.209 374.793 297.95ZM365.985 298.324C365.985 297.453 366.959 296.976 367.974 296.976H371.084C372.223 296.976 373.115 297.287 373.115 298.157C373.115 299.401 371.415 299.961 369.322 299.961C367.477 299.961 365.985 299.463 365.985 298.324Z" fill="black"/>
<path id="path58" d="M378.643 292.313C378.643 290.676 379.182 289.474 380.177 289.474C381.192 289.474 381.441 290.283 381.441 291.339V297.37H383.017V292.313C383.017 290.676 383.576 289.474 384.551 289.474C385.566 289.474 385.815 290.283 385.815 291.339V297.37H387.389V290.634C387.389 289.101 386.581 288.065 385.317 288.065C384.074 288.065 383.245 289.018 382.954 290.137C382.81 288.873 382.063 288.065 380.944 288.065C379.659 288.065 378.913 289.059 378.643 290.199V288.313H377.068V297.37H378.643V292.313Z" fill="black"/>
<path id="path60" d="M392.151 291.132C392.441 290.219 393.374 289.432 394.804 289.432C396.11 289.432 396.566 290.096 396.566 290.717V291.484L393.789 292.127C391.674 292.604 390.245 293.308 390.245 294.945C390.245 296.542 391.447 297.557 393.125 297.557C394.784 297.557 396.131 296.706 396.587 295.567C396.67 296.686 397.623 297.578 398.825 297.578C399.343 297.578 399.82 297.432 400.317 297.08L400.214 295.795C399.945 296.044 399.53 296.209 399.157 296.209C398.68 296.209 398.182 295.919 398.182 295.193V290.78C398.182 288.955 396.897 288.065 394.846 288.065C392.711 288.065 391.24 289.142 390.618 290.572L392.151 291.132ZM396.566 293.722C396.566 295.049 395.136 296.251 393.54 296.251C392.504 296.251 391.966 295.629 391.966 294.821C391.966 293.826 392.836 293.474 394.204 293.142L396.566 292.583V293.722Z" fill="black"/>
<path id="path62" d="M457.833 293.516L460.384 285.868H460.505V297.37H462.223V284.313H459.574L457.482 291.029H457.379L455.114 284.313H452.442V297.37H454.12V285.868H454.247L456.879 293.516H457.833Z" fill="black"/>
<path id="path64" d="M474.864 292.852C474.864 290.034 472.749 288.065 470.031 288.065C467.336 288.065 465.222 290.034 465.222 292.852C465.222 295.65 467.336 297.619 470.031 297.619C472.749 297.619 474.864 295.65 474.864 292.852ZM467.026 292.852C467.026 290.8 468.187 289.432 470.031 289.432C471.899 289.432 473.06 290.8 473.06 292.852C473.06 294.883 471.899 296.251 470.031 296.251C468.187 296.251 467.026 294.883 467.026 292.852Z" fill="black"/>
<path id="path66" d="M480.288 295.442C480.742 296.686 481.88 297.619 483.564 297.619C486.276 297.619 487.873 295.506 487.873 292.852C487.873 290.178 486.276 288.065 483.581 288.065C481.88 288.065 480.782 289.059 480.329 290.283V284.313H478.61V297.37H479.875L480.288 295.442ZM480.265 292.645C480.265 290.676 481.57 289.411 483.144 289.411C484.989 289.411 486.092 290.78 486.092 292.852C486.092 294.925 484.989 296.293 483.144 296.293C481.57 296.293 480.265 295.029 480.265 293.039V292.645Z" fill="black"/>
<path id="path68" d="M494.603 286.157H496.941V283.94H494.603V286.157ZM500.613 297.37V296.044H496.74V288.313H491.597V289.66H495.039V296.044H491.184V297.37H500.613Z" fill="black"/>
<path id="path70" d="M513.273 297.37V296.065H509.394V284.313H504.257V285.619H507.699V296.065H503.843V297.37H513.273Z" fill="black"/>
<path id="path72" d="M523.835 294.323C523.34 295.608 522.467 296.272 520.956 296.272C519.278 296.272 517.87 295.029 517.87 293.059H525.202V292.521C525.202 290.178 523.754 288.065 520.829 288.065C518.157 288.065 516.169 290.117 516.169 292.976C516.169 295.754 518.157 297.619 520.892 297.619C523.007 297.619 524.455 296.706 525.162 295.111L523.835 294.323ZM517.927 291.94C518.134 290.593 519.192 289.411 520.829 289.411C522.553 289.411 523.461 290.614 523.547 291.94H517.927Z" fill="black"/>
<path id="path74" d="M597.204 286.365H595.607L593.699 295.008H593.596L592.395 284.313H590.613L592.291 297.37H594.429L596.331 288.686H596.457L598.325 297.37H600.457L602.158 284.313H600.48L599.279 295.049H599.152L597.204 286.365Z" fill="black"/>
<path id="path76" d="M612.099 294.323C611.605 295.608 610.732 296.272 609.22 296.272C607.542 296.272 606.135 295.029 606.135 293.059H613.467V292.521C613.467 290.178 612.019 288.065 609.094 288.065C606.422 288.065 604.434 290.117 604.434 292.976C604.434 295.754 606.422 297.619 609.157 297.619C611.272 297.619 612.72 296.706 613.427 295.111L612.099 294.323ZM606.192 291.94C606.399 290.593 607.456 289.411 609.094 289.411C610.818 289.411 611.726 290.614 611.812 291.94H606.192Z" fill="black"/>
<path id="path78" d="M619.351 295.442C619.805 296.686 620.943 297.619 622.626 297.619C625.338 297.619 626.936 295.506 626.936 292.852C626.936 290.178 625.338 288.065 622.643 288.065C620.943 288.065 619.845 289.059 619.391 290.283V284.313H617.673V297.37H618.937L619.351 295.442ZM619.328 292.645C619.328 290.676 620.632 289.411 622.207 289.411C624.051 289.411 625.155 290.78 625.155 292.852C625.155 294.925 624.051 296.293 622.207 296.293C620.632 296.293 619.328 295.029 619.328 293.039V292.645Z" fill="black"/>
<path id="path88" d="M338.81 64.6429H342.25C346.271 64.6429 348.841 62.1973 348.841 58.1145C348.841 54.0317 346.271 51.5861 342.25 51.5861H338.81V64.6429ZM340.634 63.1506V53.0784H342.042C345.235 53.0784 346.955 54.9431 346.955 58.1145C346.955 61.2859 345.235 63.1506 342.042 63.1506H340.634Z" fill="black"/>
<path id="path90" d="M359.261 61.5962C358.763 62.8811 357.893 63.5448 356.38 63.5448C354.701 63.5448 353.293 62.3013 353.293 60.332H360.629V59.7935C360.629 57.4508 359.178 55.3373 356.255 55.3373C353.582 55.3373 351.593 57.3893 351.593 60.2487C351.593 63.0264 353.582 64.8917 356.318 64.8917C358.431 64.8917 359.882 63.9792 360.588 62.384L359.261 61.5962ZM353.354 59.2126C353.561 57.8657 354.618 56.6842 356.255 56.6842C357.976 56.6842 358.888 57.8863 358.97 59.2126H353.354Z" fill="black"/>
<path id="path92" d="M364.333 62.8196C365.141 64.1039 367.007 64.8917 369.017 64.8917C371.317 64.8917 373.038 63.835 373.038 62.1352C373.038 60.6842 371.939 59.9585 370.551 59.6689L368.022 59.1092C367.027 58.881 366.551 58.55 366.551 57.8863C366.551 57.1405 367.462 56.6842 368.623 56.6842C369.908 56.6842 371.027 57.2226 371.545 58.1558L372.705 57.2025C371.96 56.0423 370.53 55.3373 368.623 55.3373C366.53 55.3373 364.913 56.4147 364.913 58.0105C364.913 59.5447 366.094 60.228 367.649 60.5601L369.866 61.0371C370.841 61.2434 371.379 61.5755 371.379 62.2593C371.379 63.1713 370.426 63.5655 368.996 63.5655C367.545 63.5655 366.053 62.9018 365.39 61.6789L364.333 62.8196Z" fill="black"/>
<path id="path94" d="M380.824 53.4301H383.166V51.2126H380.824V53.4301ZM386.835 64.6429V63.3167H382.959V55.5861H377.819V56.9331H381.26V63.3167H377.404V64.6429H386.835Z" fill="black"/>
<path id="path96" d="M396.26 58.4046C396.26 59.5861 395.286 60.3526 394.083 60.3526C392.882 60.3526 391.908 59.5861 391.908 58.4046C391.908 57.2433 392.882 56.4767 394.083 56.4767C395.286 56.4767 396.26 57.2433 396.26 58.4046ZM399.617 65.2227C399.617 63.7729 398.374 62.7989 396.302 62.7989H392.612C391.721 62.7989 391.348 62.4869 391.348 62.0317C391.348 61.5554 391.68 61.2859 392.053 61.0991C392.634 61.3479 393.317 61.4715 394.083 61.4715C396.363 61.4715 398.001 60.2912 398.001 58.4046C398.001 57.8449 397.855 57.3479 397.566 56.9123C398.104 56.3733 399.224 55.9998 400.073 56.1659L399.887 54.6534C398.54 54.4667 397.421 55.3372 396.903 56.1865C396.198 55.6481 395.224 55.3372 394.083 55.3372C391.783 55.3372 390.147 56.5394 390.147 58.4046C390.147 59.358 390.56 60.1452 391.286 60.6635C390.457 60.9951 389.877 61.5755 389.877 62.3633C389.877 63.1299 390.374 63.7102 391.286 63.9585C390.063 64.0838 389.151 64.871 389.151 65.8243C389.151 67.5862 391.472 68.3734 394.147 68.3734C396.799 68.3734 399.617 67.4821 399.617 65.2227ZM390.809 65.5962C390.809 64.7256 391.783 64.2487 392.799 64.2487H395.908C397.047 64.2487 397.939 64.5601 397.939 65.4301C397.939 66.6737 396.239 67.2333 394.147 67.2333C392.302 67.2333 390.809 66.7357 390.809 65.5962Z" fill="black"/>
<path id="path98" d="M404.649 59.7511C404.649 57.9691 405.789 56.7883 407.323 56.7883C408.815 56.7883 409.603 57.741 409.603 59.254V64.6429H411.323V59.027C411.323 56.9124 410.306 55.3373 407.903 55.3373C406.306 55.3373 405.085 56.2912 404.649 57.4301V55.5861H402.929V64.6429H404.649V59.7511Z" fill="black"/>
<path id="path100" d="M427.166 61.9071C428.037 63.7729 430.213 64.8917 432.596 64.8917C435.291 64.8917 437.363 63.4821 437.363 61.0991C437.363 58.8604 435.891 57.9691 433.985 57.5128L431.684 56.9744C430.337 56.6635 429.467 56.2486 429.467 55.027C429.467 53.6168 430.524 52.8295 432.119 52.8295C433.861 52.8295 435.166 53.8036 435.768 55.1712L436.928 53.907C436.119 52.4353 434.461 51.3372 432.119 51.3372C429.55 51.3372 427.768 52.8916 427.768 55.1091C427.768 57.1611 429.176 58.1351 430.897 58.5293L433.488 59.1505C434.876 59.4821 435.684 59.9585 435.684 61.1405C435.684 62.6529 434.358 63.3994 432.596 63.3994C430.814 63.3994 429.073 62.4254 428.265 60.5394L427.166 61.9071Z" fill="black"/>
<path id="path102" d="M444.218 65.4508C443.782 66.4662 443.242 66.9845 442.539 66.9845C441.773 66.9845 441.399 66.4047 441.399 65.4922L439.99 66.2588C440.156 67.4408 441.026 68.3734 442.477 68.3734C444.241 68.3734 445.213 66.9845 445.96 65.2434L450.022 55.5861H448.344L445.46 62.6328H445.379L442.167 55.5861H440.26L444.569 64.6222L444.218 65.4508Z" fill="black"/>
<path id="path104" d="M453.229 62.8196C454.04 64.1039 455.902 64.8917 457.913 64.8917C460.211 64.8917 461.935 63.835 461.935 62.1352C461.935 60.6842 460.838 59.9585 459.447 59.6689L456.919 59.1092C455.925 58.881 455.448 58.55 455.448 57.8863C455.448 57.1405 456.361 56.6842 457.522 56.6842C458.803 56.6842 459.924 57.2226 460.441 58.1558L461.602 57.2025C460.855 56.0423 459.424 55.3373 457.522 55.3373C455.425 55.3373 453.81 56.4147 453.81 58.0105C453.81 59.5447 454.994 60.228 456.545 60.5601L458.763 61.0371C459.734 61.2434 460.275 61.5755 460.275 62.2593C460.275 63.1713 459.321 63.5655 457.896 63.5655C456.442 63.5655 454.948 62.9018 454.287 61.6789L453.229 62.8196Z" fill="black"/>
<path id="path106" d="M464.975 56.063V57.3479H467.917V60.9951C467.917 63.5655 469.744 64.8917 472.002 64.8917C473.847 64.8917 475.439 63.7511 475.962 62.4662L475.048 61.1612C474.404 62.6529 473.433 63.3994 472.083 63.3994C470.819 63.3994 469.595 62.5708 469.595 60.8503V57.3479H474.674V56.063H469.595V52.56L467.917 53.0784V56.063H464.975Z" fill="black"/>
<path id="path108" d="M486.254 61.5962C485.759 62.8811 484.886 63.5448 483.375 63.5448C481.697 63.5448 480.289 62.3013 480.289 60.332H487.621V59.7935C487.621 57.4508 486.173 55.3373 483.248 55.3373C480.576 55.3373 478.588 57.3893 478.588 60.2487C478.588 63.0264 480.576 64.8917 483.311 64.8917C485.426 64.8917 486.874 63.9792 487.581 62.384L486.254 61.5962ZM480.346 59.2126C480.553 57.8657 481.611 56.6842 483.248 56.6842C484.972 56.6842 485.88 57.8863 485.966 59.2126H480.346Z" fill="black"/>
<path id="path110" d="M492.363 59.5862C492.363 57.9484 492.903 56.7463 493.897 56.7463C494.914 56.7463 495.161 57.5554 495.161 58.6121V64.6429H496.736V59.5862C496.736 57.9484 497.299 56.7463 498.27 56.7463C499.287 56.7463 499.534 57.5554 499.534 58.6121V64.6429H501.109V57.9071C501.109 56.3734 500.304 55.3373 499.04 55.3373C497.793 55.3373 496.965 56.2912 496.672 57.4094C496.529 56.1452 495.782 55.3373 494.667 55.3373C493.38 55.3373 492.633 56.332 492.363 57.4715V55.5861H490.788V64.6429H492.363V59.5862Z" fill="black"/>
<path id="path112" d="M213 294.634C213.871 296.5 216.047 297.619 218.43 297.619C221.125 297.619 223.197 296.209 223.197 293.826C223.197 291.588 221.725 290.696 219.819 290.24L217.518 289.702C216.171 289.391 215.301 288.976 215.301 287.754C215.301 286.344 216.358 285.557 217.953 285.557C219.695 285.557 221 286.531 221.602 287.898L222.762 286.634C221.953 285.163 220.295 284.065 217.953 284.065C215.384 284.065 213.602 285.619 213.602 287.836C213.602 289.888 215.01 290.862 216.731 291.257L219.322 291.878C220.71 292.209 221.518 292.686 221.518 293.868C221.518 295.38 220.192 296.127 218.43 296.127C216.648 296.127 214.907 295.153 214.099 293.267L213 294.634Z" fill="black"/>
<path id="path114" d="M228.581 294.365L230.425 292.873L234.343 297.37H236.435L231.689 291.899L236.228 288.313H233.99L228.581 292.707V284.313H226.86V297.37H228.581V294.365Z" fill="black"/>
<path id="path116" d="M246.689 294.323C246.192 295.608 245.322 296.272 243.809 296.272C242.13 296.272 240.721 295.029 240.721 293.059H248.058V292.521C248.058 290.178 246.607 288.065 243.684 288.065C241.011 288.065 239.021 290.117 239.021 292.976C239.021 295.754 241.011 297.619 243.747 297.619C245.86 297.619 247.311 296.706 248.016 295.111L246.689 294.323ZM240.783 291.94C240.99 290.593 242.047 289.411 243.684 289.411C245.405 289.411 246.316 290.614 246.399 291.94H240.783Z" fill="black"/>
<path id="path120" d="M272.026 294.199C271.674 295.36 270.804 296.209 269.395 296.209C267.633 296.209 266.431 294.925 266.431 292.852C266.431 290.759 267.633 289.474 269.436 289.474C270.741 289.474 271.549 290.283 271.923 291.339L273.353 290.51C272.752 289.101 271.467 288.065 269.415 288.065C266.575 288.065 264.628 290.055 264.628 292.852C264.628 295.67 266.575 297.619 269.353 297.619C271.612 297.619 272.938 296.396 273.457 294.904L272.026 294.199Z" fill="black"/>
<path id="path122" d="M279.399 292.478C279.399 290.696 280.518 289.516 282.052 289.516C283.544 289.516 284.332 290.468 284.332 291.981V297.37H286.052V291.754C286.052 289.64 285.036 288.065 282.653 288.065C281.058 288.065 279.814 289.018 279.399 290.157V284.313H277.679V297.37H279.399V292.478Z" fill="black"/>
<path id="path124" d="M341.934 297.37V291.463H347.156V289.909H341.934V285.847H348.876V284.313H340.13V297.37H341.934Z" fill="black"/>
<path id="path126" d="M356.001 286.157H358.343V283.94H356.001V286.157ZM362.011 297.37V296.044H358.136V288.313H352.996V289.66H356.437V296.044H352.581V297.37H362.011Z" fill="black"/>
<path id="path128" d="M371.436 291.132C371.436 292.313 370.461 293.08 369.259 293.08C368.058 293.08 367.084 292.313 367.084 291.132C367.084 289.971 368.058 289.204 369.259 289.204C370.461 289.204 371.436 289.971 371.436 291.132ZM374.793 297.95C374.793 296.5 373.55 295.526 371.477 295.526H367.788C366.897 295.526 366.523 295.214 366.523 294.759C366.523 294.283 366.856 294.013 367.228 293.826C367.809 294.075 368.493 294.199 369.259 294.199C371.539 294.199 373.177 293.018 373.177 291.132C373.177 290.572 373.031 290.075 372.742 289.64C373.28 289.101 374.399 288.727 375.249 288.893L375.063 287.381C373.716 287.194 372.597 288.065 372.078 288.914C371.374 288.375 370.4 288.065 369.259 288.065C366.959 288.065 365.322 289.267 365.322 291.132C365.322 292.085 365.736 292.873 366.461 293.391C365.633 293.722 365.053 294.303 365.053 295.091C365.053 295.857 365.55 296.438 366.461 296.686C365.238 296.811 364.327 297.598 364.327 298.552C364.327 300.313 366.648 301.101 369.322 301.101C371.974 301.101 374.793 300.209 374.793 297.95ZM365.985 298.324C365.985 297.453 366.959 296.976 367.974 296.976H371.084C372.223 296.976 373.115 297.287 373.115 298.157C373.115 299.401 371.415 299.961 369.322 299.961C367.477 299.961 365.985 299.463 365.985 298.324Z" fill="black"/>
<path id="path130" d="M378.643 292.313C378.643 290.676 379.182 289.474 380.177 289.474C381.192 289.474 381.441 290.283 381.441 291.339V297.37H383.017V292.313C383.017 290.676 383.576 289.474 384.551 289.474C385.566 289.474 385.815 290.283 385.815 291.339V297.37H387.389V290.634C387.389 289.101 386.581 288.065 385.317 288.065C384.074 288.065 383.245 289.018 382.954 290.137C382.81 288.873 382.063 288.065 380.944 288.065C379.659 288.065 378.913 289.059 378.643 290.199V288.313H377.068V297.37H378.643V292.313Z" fill="black"/>
<path id="path132" d="M392.151 291.132C392.441 290.219 393.374 289.432 394.804 289.432C396.11 289.432 396.566 290.096 396.566 290.717V291.484L393.789 292.127C391.674 292.604 390.245 293.308 390.245 294.945C390.245 296.542 391.447 297.557 393.125 297.557C394.784 297.557 396.131 296.706 396.587 295.567C396.67 296.686 397.623 297.578 398.825 297.578C399.343 297.578 399.82 297.432 400.317 297.08L400.214 295.795C399.945 296.044 399.53 296.209 399.157 296.209C398.68 296.209 398.182 295.919 398.182 295.193V290.78C398.182 288.955 396.897 288.065 394.846 288.065C392.711 288.065 391.24 289.142 390.618 290.572L392.151 291.132ZM396.566 293.722C396.566 295.049 395.136 296.251 393.54 296.251C392.504 296.251 391.966 295.629 391.966 294.821C391.966 293.826 392.836 293.474 394.204 293.142L396.566 292.583V293.722Z" fill="black"/>
</g>
<g class="strokes">
<path id="path84" d="M481.364 276.94C449.236 217.532 429.198 149.171 421.247 71.8569" stroke="black" stroke-width="2"/>
<path id="path86" d="M587.332 279.898C502.659 233.238 448.029 163.892 423.429 71.8574" stroke="black" stroke-width="2"/>
<path id="path134" d="M272.248 276.94C344.192 228.044 392.216 159.683 416.322 71.8575" stroke="black" stroke-width="2"/>
<path id="path136" d="M374.437 276.94C397.222 208.579 411.967 140.218 418.673 71.8569" stroke="black" stroke-width="2"/>
</g>
</g>
</g>
</g>
</svg>
