<svg fill="none" height="352" viewBox="0 0 840 352" width="840" xmlns="http://www.w3.org/2000/svg"><path d="m272.248 276.94c71.944-48.896 119.968-117.257 144.074-205.0825" stroke="#000" stroke-width="2"/><path d="m374.437 276.94c22.785-68.361 37.53-136.722 44.236-205.0831" stroke="#000" stroke-width="2"/><g fill="#000"><path d="m250.809 288.79v1.285h2.943v3.647c0 2.571 1.824 3.897 4.083 3.897 1.845 0 3.44-1.141 3.958-2.426l-.912-1.305c-.642 1.492-1.616 2.239-2.963 2.239-1.264 0-2.487-.829-2.487-2.549v-3.503h5.077v-1.285h-5.077v-3.503l-1.679.519v2.984z"/><path d="m338.81 64.6429h3.44c4.021 0 6.591-2.4456 6.591-6.5284s-2.57-6.5284-6.591-6.5284h-3.44zm1.824-1.4923v-10.0722h1.408c3.193 0 4.913 1.8647 4.913 5.0361s-1.72 5.0361-4.913 5.0361z"/><path d="m359.261 61.5962c-.498 1.2849-1.368 1.9486-2.881 1.9486-1.679 0-3.087-1.2435-3.087-3.2128h7.336v-.5385c0-2.3427-1.451-4.4562-4.374-4.4562-2.673 0-4.662 2.052-4.662 4.9114 0 2.7777 1.989 4.643 4.725 4.643 2.113 0 3.564-.9125 4.27-2.5077zm-5.907-2.3836c.207-1.3469 1.264-2.5284 2.901-2.5284 1.721 0 2.633 1.2021 2.715 2.5284z"/><path d="m364.333 62.8196c.808 1.2843 2.674 2.0721 4.684 2.0721 2.3 0 4.021-1.0567 4.021-2.7565 0-1.451-1.099-2.1767-2.487-2.4663l-2.529-.5597c-.995-.2282-1.471-.5592-1.471-1.2229 0-.7458.911-1.2021 2.072-1.2021 1.285 0 2.404.5384 2.922 1.4716l1.16-.9533c-.745-1.1602-2.175-1.8652-4.082-1.8652-2.093 0-3.71 1.0774-3.71 2.6732 0 1.5342 1.181 2.2175 2.736 2.5496l2.217.477c.975.2063 1.513.5384 1.513 1.2222 0 .912-.953 1.3062-2.383 1.3062-1.451 0-2.943-.6637-3.606-1.8866z"/><path d="m380.824 53.4301h2.342v-2.2175h-2.342zm6.011 11.2128v-1.3262h-3.876v-7.7306h-5.14v1.347h3.441v6.3836h-3.856v1.3262z"/><path d="m396.26 58.4046c0 1.1815-.974 1.948-2.177 1.948-1.201 0-2.175-.7665-2.175-1.948 0-1.1613.974-1.9279 2.175-1.9279 1.203 0 2.177.7666 2.177 1.9279zm3.357 6.8181c0-1.4498-1.243-2.4238-3.315-2.4238h-3.69c-.891 0-1.264-.312-1.264-.7672 0-.4763.332-.7458.705-.9326.581.2488 1.264.3724 2.03.3724 2.28 0 3.918-1.1803 3.918-3.0669 0-.5597-.146-1.0567-.435-1.4923.538-.539 1.658-.9125 2.507-.7464l-.186-1.5125c-1.347-.1867-2.466.6838-2.984 1.5331-.705-.5384-1.679-.8493-2.82-.8493-2.3 0-3.936 1.2022-3.936 3.0674 0 .9534.413 1.7406 1.139 2.2589-.829.3316-1.409.912-1.409 1.6998 0 .7666.497 1.3469 1.409 1.5952-1.223.1253-2.135.9125-2.135 1.8658 0 1.7619 2.321 2.5491 4.996 2.5491 2.652 0 5.47-.8913 5.47-3.1507zm-8.808.3735c0-.8706.974-1.3475 1.99-1.3475h3.109c1.139 0 2.031.3114 2.031 1.1814 0 1.2436-1.7 1.8032-3.792 1.8032-1.845 0-3.338-.4976-3.338-1.6371z"/><path d="m404.649 59.7511c0-1.782 1.14-2.9628 2.674-2.9628 1.492 0 2.28.9527 2.28 2.4657v5.3889h1.72v-5.6159c0-2.1146-1.017-3.6897-3.42-3.6897-1.597 0-2.818.9539-3.254 2.0928v-1.844h-1.72v9.0568h1.72z"/><path d="m427.166 61.9071c.871 1.8658 3.047 2.9846 5.43 2.9846 2.695 0 4.767-1.4096 4.767-3.7926 0-2.2387-1.472-3.13-3.378-3.5863l-2.301-.5384c-1.347-.3109-2.217-.7258-2.217-1.9474 0-1.4102 1.057-2.1975 2.652-2.1975 1.742 0 3.047.9741 3.649 2.3417l1.16-1.2642c-.809-1.4717-2.467-2.5698-4.809-2.5698-2.569 0-4.351 1.5544-4.351 3.7719 0 2.052 1.408 3.026 3.129 3.4202l2.591.6212c1.388.3316 2.196.808 2.196 1.99 0 1.5124-1.326 2.2589-3.088 2.2589-1.782 0-3.523-.974-4.331-2.86z"/><path d="m444.218 65.4508c-.436 1.0154-.976 1.5337-1.679 1.5337-.766 0-1.14-.5798-1.14-1.4923l-1.409.7666c.166 1.182 1.036 2.1146 2.487 2.1146 1.764 0 2.736-1.3889 3.483-3.13l4.062-9.6573h-1.678l-2.884 7.0467h-.081l-3.212-7.0467h-1.907l4.309 9.0361z"/><path d="m453.229 62.8196c.811 1.2843 2.673 2.0721 4.684 2.0721 2.298 0 4.022-1.0567 4.022-2.7565 0-1.451-1.097-2.1767-2.488-2.4663l-2.528-.5597c-.994-.2282-1.471-.5592-1.471-1.2229 0-.7458.913-1.2021 2.074-1.2021 1.281 0 2.402.5384 2.919 1.4716l1.161-.9533c-.747-1.1602-2.178-1.8652-4.08-1.8652-2.097 0-3.712 1.0774-3.712 2.6732 0 1.5342 1.184 2.2175 2.735 2.5496l2.218.477c.971.2063 1.512.5384 1.512 1.2222 0 .912-.954 1.3062-2.379 1.3062-1.454 0-2.948-.6637-3.609-1.8866z"/><path d="m464.975 56.063v1.2849h2.942v3.6472c0 2.5704 1.827 3.8966 4.085 3.8966 1.845 0 3.437-1.1406 3.96-2.4255l-.914-1.305c-.644 1.4917-1.615 2.2382-2.965 2.2382-1.264 0-2.488-.8286-2.488-2.5491v-3.5024h5.079v-1.2849h-5.079v-3.503l-1.678.5184v2.9846z"/><path d="m486.254 61.5962c-.495 1.2849-1.368 1.9486-2.879 1.9486-1.678 0-3.086-1.2435-3.086-3.2128h7.332v-.5385c0-2.3427-1.448-4.4562-4.373-4.4562-2.672 0-4.66 2.052-4.66 4.9114 0 2.7777 1.988 4.643 4.723 4.643 2.115 0 3.563-.9125 4.27-2.5077zm-5.908-2.3836c.207-1.3469 1.265-2.5284 2.902-2.5284 1.724 0 2.632 1.2021 2.718 2.5284z"/><path d="m492.363 59.5862c0-1.6378.54-2.8399 1.534-2.8399 1.017 0 1.264.8091 1.264 1.8658v6.0308h1.575v-5.0567c0-1.6378.563-2.8399 1.534-2.8399 1.017 0 1.264.8091 1.264 1.8658v6.0308h1.575v-6.7358c0-1.5337-.805-2.5698-2.069-2.5698-1.247 0-2.075.9539-2.368 2.0721-.143-1.2642-.89-2.0721-2.005-2.0721-1.287 0-2.034.9947-2.304 2.1342v-1.8854h-1.575v9.0568h1.575z"/><path d="m213 294.634c.871 1.866 3.047 2.985 5.43 2.985 2.695 0 4.767-1.41 4.767-3.793 0-2.238-1.472-3.13-3.378-3.586l-2.301-.538c-1.347-.311-2.217-.726-2.217-1.948 0-1.41 1.057-2.197 2.652-2.197 1.742 0 3.047.974 3.649 2.341l1.16-1.264c-.809-1.471-2.467-2.569-4.809-2.569-2.569 0-4.351 1.554-4.351 3.771 0 2.052 1.408 3.026 3.129 3.421l2.591.621c1.388.331 2.196.808 2.196 1.99 0 1.512-1.326 2.259-3.088 2.259-1.782 0-3.523-.974-4.331-2.86z"/><path d="m228.581 294.365 1.844-1.492 3.918 4.497h2.092l-4.746-5.471 4.539-3.586h-2.238l-5.409 4.394v-8.394h-1.721v13.057h1.721z"/><path d="m246.689 294.323c-.497 1.285-1.367 1.949-2.88 1.949-1.679 0-3.088-1.243-3.088-3.213h7.337v-.538c0-2.343-1.451-4.456-4.374-4.456-2.673 0-4.663 2.052-4.663 4.911 0 2.778 1.99 4.643 4.726 4.643 2.113 0 3.564-.913 4.269-2.508zm-5.906-2.383c.207-1.347 1.264-2.529 2.901-2.529 1.721 0 2.632 1.203 2.715 2.529z"/><path d="m250.809 288.79v1.285h2.943v3.647c0 2.571 1.824 3.897 4.083 3.897 1.845 0 3.44-1.141 3.958-2.426l-.912-1.305c-.642 1.492-1.616 2.239-2.963 2.239-1.264 0-2.487-.829-2.487-2.549v-3.503h5.077v-1.285h-5.077v-3.503l-1.679.519v2.984z"/><path d="m272.026 294.199c-.352 1.161-1.222 2.01-2.631 2.01-1.762 0-2.964-1.284-2.964-3.357 0-2.093 1.202-3.378 3.005-3.378 1.305 0 2.113.809 2.487 1.865l1.43-.829c-.601-1.409-1.886-2.445-3.938-2.445-2.84 0-4.787 1.99-4.787 4.787 0 2.818 1.947 4.767 4.725 4.767 2.259 0 3.585-1.223 4.104-2.715z"/><path d="m279.399 292.478c0-1.782 1.119-2.962 2.653-2.962 1.492 0 2.28.952 2.28 2.465v5.389h1.72v-5.616c0-2.114-1.016-3.689-3.399-3.689-1.595 0-2.839.953-3.254 2.092v-5.844h-1.72v13.057h1.72z"/><path d="m341.934 297.37v-5.907h5.222v-1.554h-5.222v-4.062h6.942v-1.534h-8.746v13.057z"/><path d="m356.001 286.157h2.342v-2.217h-2.342zm6.01 11.213v-1.326h-3.875v-7.731h-5.14v1.347h3.441v6.384h-3.856v1.326z"/><path d="m371.436 291.132c0 1.181-.975 1.948-2.177 1.948-1.201 0-2.175-.767-2.175-1.948 0-1.161.974-1.928 2.175-1.928 1.202 0 2.177.767 2.177 1.928zm3.357 6.818c0-1.45-1.243-2.424-3.316-2.424h-3.689c-.891 0-1.265-.312-1.265-.767 0-.476.333-.746.705-.933.581.249 1.265.373 2.031.373 2.28 0 3.918-1.181 3.918-3.067 0-.56-.146-1.057-.435-1.492.538-.539 1.657-.913 2.507-.747l-.186-1.512c-1.347-.187-2.466.684-2.985 1.533-.704-.539-1.678-.849-2.819-.849-2.3 0-3.937 1.202-3.937 3.067 0 .953.414 1.741 1.139 2.259-.828.331-1.408.912-1.408 1.7 0 .766.497 1.347 1.408 1.595-1.223.125-2.134.912-2.134 1.866 0 1.761 2.321 2.549 4.995 2.549 2.652 0 5.471-.892 5.471-3.151zm-8.808.374c0-.871.974-1.348 1.989-1.348h3.11c1.139 0 2.031.311 2.031 1.181 0 1.244-1.7 1.804-3.793 1.804-1.845 0-3.337-.498-3.337-1.637z"/><path d="m378.643 292.313c0-1.637.539-2.839 1.534-2.839 1.015 0 1.264.809 1.264 1.865v6.031h1.576v-5.057c0-1.637.559-2.839 1.534-2.839 1.015 0 1.264.809 1.264 1.865v6.031h1.574v-6.736c0-1.533-.808-2.569-2.072-2.569-1.243 0-2.072.953-2.363 2.072-.144-1.264-.891-2.072-2.01-2.072-1.285 0-2.031.994-2.301 2.134v-1.886h-1.575v9.057h1.575z"/><path d="m392.151 291.132c.29-.913 1.223-1.7 2.653-1.7 1.306 0 1.762.664 1.762 1.285v.767l-2.777.643c-2.115.477-3.544 1.181-3.544 2.818 0 1.597 1.202 2.612 2.88 2.612 1.659 0 3.006-.851 3.462-1.99.083 1.119 1.036 2.011 2.238 2.011.518 0 .995-.146 1.492-.498l-.103-1.285c-.269.249-.684.414-1.057.414-.477 0-.975-.29-.975-1.016v-4.413c0-1.825-1.285-2.715-3.336-2.715-2.135 0-3.606 1.077-4.228 2.507zm4.415 2.59c0 1.327-1.43 2.529-3.026 2.529-1.036 0-1.574-.622-1.574-1.43 0-.995.87-1.347 2.238-1.679l2.362-.559z"/><path d="m457.833 293.516 2.551-7.648h.121v11.502h1.718v-13.057h-2.649l-2.092 6.716h-.103l-2.265-6.716h-2.672v13.057h1.678v-11.502h.127l2.632 7.648z"/><path d="m474.864 292.852c0-2.818-2.115-4.787-4.833-4.787-2.695 0-4.809 1.969-4.809 4.787 0 2.798 2.114 4.767 4.809 4.767 2.718 0 4.833-1.969 4.833-4.767zm-7.838 0c0-2.052 1.161-3.42 3.005-3.42 1.868 0 3.029 1.368 3.029 3.42 0 2.031-1.161 3.399-3.029 3.399-1.844 0-3.005-1.368-3.005-3.399z"/><path d="m480.288 295.442c.454 1.244 1.592 2.177 3.276 2.177 2.712 0 4.309-2.113 4.309-4.767 0-2.674-1.597-4.787-4.292-4.787-1.701 0-2.799.994-3.252 2.218v-5.97h-1.719v13.057h1.265zm-.023-2.797c0-1.969 1.305-3.234 2.879-3.234 1.845 0 2.948 1.369 2.948 3.441 0 2.073-1.103 3.441-2.948 3.441-1.574 0-2.879-1.264-2.879-3.254z"/><path d="m494.603 286.157h2.338v-2.217h-2.338zm6.01 11.213v-1.326h-3.873v-7.731h-5.143v1.347h3.442v6.384h-3.855v1.326z"/><path d="m513.273 297.37v-1.305h-3.879v-11.752h-5.137v1.306h3.442v10.446h-3.856v1.305z"/><path d="m523.835 294.323c-.495 1.285-1.368 1.949-2.879 1.949-1.678 0-3.086-1.243-3.086-3.213h7.332v-.538c0-2.343-1.448-4.456-4.373-4.456-2.672 0-4.66 2.052-4.66 4.911 0 2.778 1.988 4.643 4.723 4.643 2.115 0 3.563-.913 4.27-2.508zm-5.908-2.383c.207-1.347 1.265-2.529 2.902-2.529 1.724 0 2.632 1.203 2.718 2.529z"/><path d="m597.204 286.365h-1.597l-1.908 8.643h-.103l-1.201-10.695h-1.782l1.678 13.057h2.138l1.902-8.684h.126l1.868 8.684h2.132l1.701-13.057h-1.678l-1.201 10.736h-.127z"/><path d="m612.099 294.323c-.494 1.285-1.367 1.949-2.879 1.949-1.678 0-3.085-1.243-3.085-3.213h7.332v-.538c0-2.343-1.448-4.456-4.373-4.456-2.672 0-4.66 2.052-4.66 4.911 0 2.778 1.988 4.643 4.723 4.643 2.115 0 3.563-.913 4.27-2.508zm-5.907-2.383c.207-1.347 1.264-2.529 2.902-2.529 1.724 0 2.632 1.203 2.718 2.529z"/><path d="m619.351 295.442c.454 1.244 1.592 2.177 3.275 2.177 2.712 0 4.31-2.113 4.31-4.767 0-2.674-1.598-4.787-4.293-4.787-1.7 0-2.798.994-3.252 2.218v-5.97h-1.718v13.057h1.264zm-.023-2.797c0-1.969 1.304-3.234 2.879-3.234 1.844 0 2.948 1.369 2.948 3.441 0 2.073-1.104 3.441-2.948 3.441-1.575 0-2.879-1.264-2.879-3.254z"/><path d="m338.81 64.6429h3.44c4.021 0 6.591-2.4456 6.591-6.5284s-2.57-6.5284-6.591-6.5284h-3.44zm1.824-1.4923v-10.0722h1.408c3.193 0 4.913 1.8647 4.913 5.0361s-1.72 5.0361-4.913 5.0361z"/><path d="m359.261 61.5962c-.498 1.2849-1.368 1.9486-2.881 1.9486-1.679 0-3.087-1.2435-3.087-3.2128h7.336v-.5385c0-2.3427-1.451-4.4562-4.374-4.4562-2.673 0-4.662 2.052-4.662 4.9114 0 2.7777 1.989 4.643 4.725 4.643 2.113 0 3.564-.9125 4.27-2.5077zm-5.907-2.3836c.207-1.3469 1.264-2.5284 2.901-2.5284 1.721 0 2.633 1.2021 2.715 2.5284z"/><path d="m364.333 62.8196c.808 1.2843 2.674 2.0721 4.684 2.0721 2.3 0 4.021-1.0567 4.021-2.7565 0-1.451-1.099-2.1767-2.487-2.4663l-2.529-.5597c-.995-.2282-1.471-.5592-1.471-1.2229 0-.7458.911-1.2021 2.072-1.2021 1.285 0 2.404.5384 2.922 1.4716l1.16-.9533c-.745-1.1602-2.175-1.8652-4.082-1.8652-2.093 0-3.71 1.0774-3.71 2.6732 0 1.5342 1.181 2.2175 2.736 2.5496l2.217.477c.975.2063 1.513.5384 1.513 1.2222 0 .912-.953 1.3062-2.383 1.3062-1.451 0-2.943-.6637-3.606-1.8866z"/><path d="m380.824 53.4301h2.342v-2.2175h-2.342zm6.011 11.2128v-1.3262h-3.876v-7.7306h-5.14v1.347h3.441v6.3836h-3.856v1.3262z"/><path d="m396.26 58.4046c0 1.1815-.974 1.948-2.177 1.948-1.201 0-2.175-.7665-2.175-1.948 0-1.1613.974-1.9279 2.175-1.9279 1.203 0 2.177.7666 2.177 1.9279zm3.357 6.8181c0-1.4498-1.243-2.4238-3.315-2.4238h-3.69c-.891 0-1.264-.312-1.264-.7672 0-.4763.332-.7458.705-.9326.581.2488 1.264.3724 2.03.3724 2.28 0 3.918-1.1803 3.918-3.0669 0-.5597-.146-1.0567-.435-1.4923.538-.539 1.658-.9125 2.507-.7464l-.186-1.5125c-1.347-.1867-2.466.6838-2.984 1.5331-.705-.5384-1.679-.8493-2.82-.8493-2.3 0-3.936 1.2022-3.936 3.0674 0 .9534.413 1.7406 1.139 2.2589-.829.3316-1.409.912-1.409 1.6998 0 .7666.497 1.3469 1.409 1.5952-1.223.1253-2.135.9125-2.135 1.8658 0 1.7619 2.321 2.5491 4.996 2.5491 2.652 0 5.47-.8913 5.47-3.1507zm-8.808.3735c0-.8706.974-1.3475 1.99-1.3475h3.109c1.139 0 2.031.3114 2.031 1.1814 0 1.2436-1.7 1.8032-3.792 1.8032-1.845 0-3.338-.4976-3.338-1.6371z"/><path d="m404.649 59.7511c0-1.782 1.14-2.9628 2.674-2.9628 1.492 0 2.28.9527 2.28 2.4657v5.3889h1.72v-5.6159c0-2.1146-1.017-3.6897-3.42-3.6897-1.597 0-2.818.9539-3.254 2.0928v-1.844h-1.72v9.0568h1.72z"/><path d="m427.166 61.9071c.871 1.8658 3.047 2.9846 5.43 2.9846 2.695 0 4.767-1.4096 4.767-3.7926 0-2.2387-1.472-3.13-3.378-3.5863l-2.301-.5384c-1.347-.3109-2.217-.7258-2.217-1.9474 0-1.4102 1.057-2.1975 2.652-2.1975 1.742 0 3.047.9741 3.649 2.3417l1.16-1.2642c-.809-1.4717-2.467-2.5698-4.809-2.5698-2.569 0-4.351 1.5544-4.351 3.7719 0 2.052 1.408 3.026 3.129 3.4202l2.591.6212c1.388.3316 2.196.808 2.196 1.99 0 1.5124-1.326 2.2589-3.088 2.2589-1.782 0-3.523-.974-4.331-2.86z"/><path d="m444.218 65.4508c-.436 1.0154-.976 1.5337-1.679 1.5337-.766 0-1.14-.5798-1.14-1.4923l-1.409.7666c.166 1.182 1.036 2.1146 2.487 2.1146 1.764 0 2.736-1.3889 3.483-3.13l4.062-9.6573h-1.678l-2.884 7.0467h-.081l-3.212-7.0467h-1.907l4.309 9.0361z"/><path d="m453.229 62.8196c.811 1.2843 2.673 2.0721 4.684 2.0721 2.298 0 4.022-1.0567 4.022-2.7565 0-1.451-1.097-2.1767-2.488-2.4663l-2.528-.5597c-.994-.2282-1.471-.5592-1.471-1.2229 0-.7458.913-1.2021 2.074-1.2021 1.281 0 2.402.5384 2.919 1.4716l1.161-.9533c-.747-1.1602-2.178-1.8652-4.08-1.8652-2.097 0-3.712 1.0774-3.712 2.6732 0 1.5342 1.184 2.2175 2.735 2.5496l2.218.477c.971.2063 1.512.5384 1.512 1.2222 0 .912-.954 1.3062-2.379 1.3062-1.454 0-2.948-.6637-3.609-1.8866z"/><path d="m464.975 56.063v1.2849h2.942v3.6472c0 2.5704 1.827 3.8966 4.085 3.8966 1.845 0 3.437-1.1406 3.96-2.4255l-.914-1.305c-.644 1.4917-1.615 2.2382-2.965 2.2382-1.264 0-2.488-.8286-2.488-2.5491v-3.5024h5.079v-1.2849h-5.079v-3.503l-1.678.5184v2.9846z"/><path d="m486.254 61.5962c-.495 1.2849-1.368 1.9486-2.879 1.9486-1.678 0-3.086-1.2435-3.086-3.2128h7.332v-.5385c0-2.3427-1.448-4.4562-4.373-4.4562-2.672 0-4.66 2.052-4.66 4.9114 0 2.7777 1.988 4.643 4.723 4.643 2.115 0 3.563-.9125 4.27-2.5077zm-5.908-2.3836c.207-1.3469 1.265-2.5284 2.902-2.5284 1.724 0 2.632 1.2021 2.718 2.5284z"/><path d="m492.363 59.5862c0-1.6378.54-2.8399 1.534-2.8399 1.017 0 1.264.8091 1.264 1.8658v6.0308h1.575v-5.0567c0-1.6378.563-2.8399 1.534-2.8399 1.017 0 1.264.8091 1.264 1.8658v6.0308h1.575v-6.7358c0-1.5337-.805-2.5698-2.069-2.5698-1.247 0-2.075.9539-2.368 2.0721-.143-1.2642-.89-2.0721-2.005-2.0721-1.287 0-2.034.9947-2.304 2.1342v-1.8854h-1.575v9.0568h1.575z"/><path d="m213 294.634c.871 1.866 3.047 2.985 5.43 2.985 2.695 0 4.767-1.41 4.767-3.793 0-2.238-1.472-3.13-3.378-3.586l-2.301-.538c-1.347-.311-2.217-.726-2.217-1.948 0-1.41 1.057-2.197 2.652-2.197 1.742 0 3.047.974 3.649 2.341l1.16-1.264c-.809-1.471-2.467-2.569-4.809-2.569-2.569 0-4.351 1.554-4.351 3.771 0 2.052 1.408 3.026 3.129 3.421l2.591.621c1.388.331 2.196.808 2.196 1.99 0 1.512-1.326 2.259-3.088 2.259-1.782 0-3.523-.974-4.331-2.86z"/><path d="m228.581 294.365 1.844-1.492 3.918 4.497h2.092l-4.746-5.471 4.539-3.586h-2.238l-5.409 4.394v-8.394h-1.721v13.057h1.721z"/><path d="m246.689 294.323c-.497 1.285-1.367 1.949-2.88 1.949-1.679 0-3.088-1.243-3.088-3.213h7.337v-.538c0-2.343-1.451-4.456-4.374-4.456-2.673 0-4.663 2.052-4.663 4.911 0 2.778 1.99 4.643 4.726 4.643 2.113 0 3.564-.913 4.269-2.508zm-5.906-2.383c.207-1.347 1.264-2.529 2.901-2.529 1.721 0 2.632 1.203 2.715 2.529z"/><path d="m272.026 294.199c-.352 1.161-1.222 2.01-2.631 2.01-1.762 0-2.964-1.284-2.964-3.357 0-2.093 1.202-3.378 3.005-3.378 1.305 0 2.113.809 2.487 1.865l1.43-.829c-.601-1.409-1.886-2.445-3.938-2.445-2.84 0-4.787 1.99-4.787 4.787 0 2.818 1.947 4.767 4.725 4.767 2.259 0 3.585-1.223 4.104-2.715z"/><path d="m279.399 292.478c0-1.782 1.119-2.962 2.653-2.962 1.492 0 2.28.952 2.28 2.465v5.389h1.72v-5.616c0-2.114-1.016-3.689-3.399-3.689-1.595 0-2.839.953-3.254 2.092v-5.844h-1.72v13.057h1.72z"/><path d="m341.934 297.37v-5.907h5.222v-1.554h-5.222v-4.062h6.942v-1.534h-8.746v13.057z"/><path d="m356.001 286.157h2.342v-2.217h-2.342zm6.01 11.213v-1.326h-3.875v-7.731h-5.14v1.347h3.441v6.384h-3.856v1.326z"/><path d="m371.436 291.132c0 1.181-.975 1.948-2.177 1.948-1.201 0-2.175-.767-2.175-1.948 0-1.161.974-1.928 2.175-1.928 1.202 0 2.177.767 2.177 1.928zm3.357 6.818c0-1.45-1.243-2.424-3.316-2.424h-3.689c-.891 0-1.265-.312-1.265-.767 0-.476.333-.746.705-.933.581.249 1.265.373 2.031.373 2.28 0 3.918-1.181 3.918-3.067 0-.56-.146-1.057-.435-1.492.538-.539 1.657-.913 2.507-.747l-.186-1.512c-1.347-.187-2.466.684-2.985 1.533-.704-.539-1.678-.849-2.819-.849-2.3 0-3.937 1.202-3.937 3.067 0 .953.414 1.741 1.139 2.259-.828.331-1.408.912-1.408 1.7 0 .766.497 1.347 1.408 1.595-1.223.125-2.134.912-2.134 1.866 0 1.761 2.321 2.549 4.995 2.549 2.652 0 5.471-.892 5.471-3.151zm-8.808.374c0-.871.974-1.348 1.989-1.348h3.11c1.139 0 2.031.311 2.031 1.181 0 1.244-1.7 1.804-3.793 1.804-1.845 0-3.337-.498-3.337-1.637z"/><path d="m378.643 292.313c0-1.637.539-2.839 1.534-2.839 1.015 0 1.264.809 1.264 1.865v6.031h1.576v-5.057c0-1.637.559-2.839 1.534-2.839 1.015 0 1.264.809 1.264 1.865v6.031h1.574v-6.736c0-1.533-.808-2.569-2.072-2.569-1.243 0-2.072.953-2.363 2.072-.144-1.264-.891-2.072-2.01-2.072-1.285 0-2.031.994-2.301 2.134v-1.886h-1.575v9.057h1.575z"/><path d="m392.151 291.132c.29-.913 1.223-1.7 2.653-1.7 1.306 0 1.762.664 1.762 1.285v.767l-2.777.643c-2.115.477-3.544 1.181-3.544 2.818 0 1.597 1.202 2.612 2.88 2.612 1.659 0 3.006-.851 3.462-1.99.083 1.119 1.036 2.011 2.238 2.011.518 0 .995-.146 1.492-.498l-.103-1.285c-.269.249-.684.414-1.057.414-.477 0-.975-.29-.975-1.016v-4.413c0-1.825-1.285-2.715-3.336-2.715-2.135 0-3.606 1.077-4.228 2.507zm4.415 2.59c0 1.327-1.43 2.529-3.026 2.529-1.036 0-1.574-.622-1.574-1.43 0-.995.87-1.347 2.238-1.679l2.362-.559z"/></g><g stroke="#000" stroke-width="2"><path d="m481.364 276.94c-32.128-59.408-52.166-127.769-60.117-205.0831"/><path d="m587.332 279.898c-84.673-46.66-139.303-116.006-163.903-208.0406"/><path d="m272.248 276.94c71.944-48.896 119.968-117.257 144.074-205.0825"/><path d="m374.437 276.94c22.785-68.361 37.53-136.722 44.236-205.0831"/></g></svg>