<svg width="840" height="316" viewBox="0 0 840 316" fill="none" xmlns="http://www.w3.org/2000/svg">
<g id="ds-05">
<g id="g10">
<g id="g12">
<path id="path16" d="M334.793 128.968H505.087V100.811H334.793V128.968Z" fill="#00A2FF"/>
<g id="g18">
<g id="g20">
<path id="path26" d="M338.807 121.773H342.247C346.268 121.773 348.838 119.327 348.838 115.244C348.838 111.161 346.268 108.716 342.247 108.716H338.807V121.773ZM340.631 120.28V110.208H342.04C345.232 110.208 346.952 112.073 346.952 115.244C346.952 118.416 345.232 120.28 342.04 120.28H340.631Z" fill="white"/>
<path id="path28" d="M359.258 118.726C358.76 120.011 357.89 120.675 356.377 120.675C354.698 120.675 353.29 119.431 353.29 117.462H360.626V116.923C360.626 114.581 359.175 112.467 356.252 112.467C353.579 112.467 351.59 114.519 351.59 117.378C351.59 120.156 353.579 122.021 356.315 122.021C358.429 122.021 359.88 121.109 360.585 119.514L359.258 118.726ZM353.351 116.342C353.559 114.995 354.615 113.814 356.252 113.814C357.973 113.814 358.885 115.016 358.968 116.342H353.351Z" fill="white"/>
<path id="path30" d="M364.33 119.949C365.138 121.234 367.004 122.021 369.014 122.021C371.314 122.021 373.035 120.965 373.035 119.265C373.035 117.814 371.936 117.088 370.548 116.799L368.019 116.239C367.025 116.011 366.548 115.68 366.548 115.016C366.548 114.27 367.459 113.814 368.62 113.814C369.905 113.814 371.025 114.352 371.542 115.286L372.703 114.332C371.957 113.172 370.527 112.467 368.62 112.467C366.527 112.467 364.91 113.544 364.91 115.14C364.91 116.675 366.091 117.358 367.646 117.69L369.863 118.167C370.838 118.373 371.376 118.705 371.376 119.389C371.376 120.301 370.423 120.695 368.993 120.695C367.542 120.695 366.05 120.032 365.387 118.809L364.33 119.949Z" fill="white"/>
<path id="path32" d="M380.823 110.56H383.164V108.342H380.823V110.56ZM386.833 121.773V120.446H382.957V112.716H377.817V114.063H381.258V120.446H377.402V121.773H386.833Z" fill="white"/>
<path id="path34" d="M396.257 115.534C396.257 116.716 395.283 117.482 394.081 117.482C392.88 117.482 391.905 116.716 391.905 115.534C391.905 114.373 392.88 113.607 394.081 113.607C395.283 113.607 396.257 114.373 396.257 115.534ZM399.614 122.352C399.614 120.903 398.371 119.929 396.299 119.929H392.609C391.718 119.929 391.345 119.617 391.345 119.162C391.345 118.685 391.677 118.416 392.05 118.229C392.631 118.478 393.314 118.601 394.081 118.601C396.36 118.601 397.998 117.421 397.998 115.534C397.998 114.975 397.852 114.478 397.563 114.042C398.101 113.503 399.221 113.13 400.07 113.296L399.884 111.783C398.537 111.596 397.418 112.467 396.9 113.316C396.195 112.778 395.221 112.467 394.081 112.467C391.78 112.467 390.144 113.669 390.144 115.534C390.144 116.488 390.557 117.275 391.283 117.793C390.454 118.125 389.874 118.705 389.874 119.493C389.874 120.26 390.371 120.84 391.283 121.088C390.06 121.214 389.148 122.001 389.148 122.954C389.148 124.716 391.469 125.503 394.144 125.503C396.796 125.503 399.614 124.612 399.614 122.352ZM390.806 122.726C390.806 121.855 391.78 121.378 392.796 121.378H395.905C397.045 121.378 397.936 121.69 397.936 122.56C397.936 123.803 396.237 124.363 394.144 124.363C392.299 124.363 390.806 123.865 390.806 122.726Z" fill="white"/>
<path id="path36" d="M404.644 116.881C404.644 115.099 405.784 113.918 407.318 113.918C408.81 113.918 409.598 114.871 409.598 116.384V121.773H411.318V116.157C411.318 114.042 410.302 112.467 407.898 112.467C406.301 112.467 405.08 113.421 404.644 114.56V112.716H402.924V121.773H404.644V116.881Z" fill="white"/>
<path id="path38" d="M427.164 119.037C428.035 120.903 430.211 122.021 432.594 122.021C435.289 122.021 437.361 120.612 437.361 118.229C437.361 115.99 435.889 115.099 433.983 114.643L431.682 114.104C430.335 113.793 429.465 113.378 429.465 112.157C429.465 110.747 430.522 109.959 432.117 109.959C433.859 109.959 435.164 110.933 435.766 112.301L436.926 111.037C436.117 109.565 434.459 108.467 432.117 108.467C429.548 108.467 427.766 110.021 427.766 112.239C427.766 114.291 429.174 115.265 430.895 115.659L433.486 116.28C434.874 116.612 435.682 117.088 435.682 118.27C435.682 119.783 434.356 120.529 432.594 120.529C430.812 120.529 429.071 119.555 428.263 117.669L427.164 119.037Z" fill="white"/>
<path id="path40" d="M444.216 122.581C443.78 123.596 443.24 124.114 442.537 124.114C441.771 124.114 441.397 123.534 441.397 122.622L439.988 123.389C440.154 124.571 441.024 125.503 442.475 125.503C444.239 125.503 445.211 124.114 445.958 122.373L450.02 112.716H448.342L445.458 119.763H445.377L442.165 112.716H440.258L444.567 121.752L444.216 122.581Z" fill="white"/>
<path id="path42" d="M453.227 119.949C454.037 121.234 455.899 122.021 457.91 122.021C460.208 122.021 461.932 120.965 461.932 119.265C461.932 117.814 460.835 117.088 459.444 116.799L456.916 116.239C455.922 116.011 455.445 115.68 455.445 115.016C455.445 114.27 456.358 113.814 457.519 113.814C458.801 113.814 459.921 114.352 460.438 115.286L461.599 114.332C460.852 113.172 459.421 112.467 457.519 112.467C455.422 112.467 453.807 113.544 453.807 115.14C453.807 116.675 454.991 117.358 456.542 117.69L458.76 118.167C459.731 118.373 460.272 118.705 460.272 119.389C460.272 120.301 459.318 120.695 457.893 120.695C456.439 120.695 454.945 120.032 454.284 118.809L453.227 119.949Z" fill="white"/>
<path id="path44" d="M464.973 113.193V114.478H467.915V118.125C467.915 120.695 469.742 122.021 472 122.021C473.845 122.021 475.437 120.881 475.96 119.596L475.046 118.291C474.402 119.783 473.431 120.529 472.081 120.529C470.817 120.529 469.593 119.701 469.593 117.98V114.478H474.672V113.193H469.593V109.69L467.915 110.208V113.193H464.973Z" fill="white"/>
<path id="path46" d="M486.25 118.726C485.755 120.011 484.882 120.675 483.371 120.675C481.693 120.675 480.285 119.431 480.285 117.462H487.617V116.923C487.617 114.581 486.169 112.467 483.244 112.467C480.572 112.467 478.584 114.519 478.584 117.378C478.584 120.156 480.572 122.021 483.307 122.021C485.422 122.021 486.87 121.109 487.577 119.514L486.25 118.726ZM480.342 116.342C480.549 114.995 481.607 113.814 483.244 113.814C484.968 113.814 485.876 115.016 485.962 116.342H480.342Z" fill="white"/>
<path id="path48" d="M492.36 116.716C492.36 115.078 492.9 113.876 493.894 113.876C494.911 113.876 495.158 114.685 495.158 115.742V121.773H496.733V116.716C496.733 115.078 497.296 113.876 498.267 113.876C499.284 113.876 499.531 114.685 499.531 115.742V121.773H501.106V115.037C501.106 113.503 500.301 112.467 499.037 112.467C497.79 112.467 496.962 113.421 496.669 114.539C496.526 113.275 495.779 112.467 494.664 112.467C493.377 112.467 492.63 113.462 492.36 114.601V112.716H490.785V121.773H492.36V116.716Z" fill="white"/>
</g>
</g>
<g class="word">
<path id="path50" d="M213 279.935C213.871 281.8 216.047 282.919 218.43 282.919C221.125 282.919 223.197 281.51 223.197 279.127C223.197 276.888 221.725 275.997 219.819 275.54L217.518 275.002C216.171 274.691 215.301 274.276 215.301 273.055C215.301 271.644 216.358 270.857 217.953 270.857C219.695 270.857 221 271.831 221.602 273.199L222.762 271.935C221.953 270.463 220.295 269.365 217.953 269.365C215.384 269.365 213.602 270.919 213.602 273.137C213.602 275.189 215.01 276.163 216.731 276.557L219.322 277.178C220.71 277.51 221.518 277.986 221.518 279.168C221.518 280.681 220.192 281.427 218.43 281.427C216.648 281.427 214.907 280.453 214.099 278.567L213 279.935Z" fill="black"/>
<path id="path52" d="M228.58 279.665L230.424 278.173L234.342 282.671H236.435L231.688 277.199L236.227 273.614H233.989L228.58 278.007V269.614H226.859V282.671H228.58V279.665Z" fill="black"/>
<path id="path54" d="M246.687 279.624C246.19 280.909 245.32 281.572 243.807 281.572C242.128 281.572 240.719 280.329 240.719 278.36H248.056V277.821C248.056 275.478 246.605 273.365 243.682 273.365C241.009 273.365 239.02 275.417 239.02 278.276C239.02 281.054 241.009 282.919 243.745 282.919C245.858 282.919 247.309 282.007 248.014 280.412L246.687 279.624ZM240.781 277.24C240.988 275.893 242.045 274.712 243.682 274.712C245.403 274.712 246.315 275.914 246.397 277.24H240.781Z" fill="black"/>
<path id="path56" d="M250.807 274.091V275.375H253.75V279.023C253.75 281.593 255.574 282.919 257.833 282.919C259.678 282.919 261.273 281.779 261.791 280.494L260.879 279.189C260.237 280.681 259.263 281.427 257.916 281.427C256.652 281.427 255.429 280.598 255.429 278.878V275.375H260.506V274.091H255.429V270.588L253.75 271.106V274.091H250.807Z" fill="black"/>
<path id="path58" d="M272.025 279.499C271.673 280.66 270.803 281.51 269.394 281.51C267.632 281.51 266.43 280.225 266.43 278.152C266.43 276.059 267.632 274.774 269.435 274.774C270.74 274.774 271.548 275.583 271.922 276.64L273.352 275.81C272.751 274.401 271.466 273.365 269.414 273.365C266.574 273.365 264.627 275.355 264.627 278.152C264.627 280.971 266.574 282.919 269.352 282.919C271.611 282.919 272.937 281.696 273.456 280.204L272.025 279.499Z" fill="black"/>
<path id="path60" d="M279.398 277.779C279.398 275.997 280.517 274.816 282.051 274.816C283.543 274.816 284.331 275.769 284.331 277.282V282.671H286.051V277.055C286.051 274.94 285.035 273.365 282.652 273.365C281.057 273.365 279.813 274.319 279.398 275.458V269.614H277.678V282.671H279.398V277.779Z" fill="black"/>
<path id="path62" d="M341.933 282.671V276.763H347.156V275.209H341.933V271.147H348.875V269.614H340.129V282.671H341.933Z" fill="black"/>
<path id="path64" d="M356 271.458H358.342V269.24H356V271.458ZM362.01 282.671V281.344H358.135V273.614H352.995V274.961H356.436V281.344H352.58V282.671H362.01Z" fill="black"/>
<path id="path66" d="M371.437 276.432C371.437 277.614 370.462 278.38 369.26 278.38C368.059 278.38 367.085 277.614 367.085 276.432C367.085 275.271 368.059 274.504 369.26 274.504C370.462 274.504 371.437 275.271 371.437 276.432ZM374.794 283.25C374.794 281.8 373.551 280.826 371.478 280.826H367.789C366.898 280.826 366.524 280.514 366.524 280.059C366.524 279.583 366.857 279.313 367.229 279.127C367.81 279.376 368.494 279.499 369.26 279.499C371.54 279.499 373.178 278.319 373.178 276.432C373.178 275.873 373.032 275.375 372.742 274.94C373.281 274.401 374.4 274.027 375.25 274.193L375.064 272.681C373.717 272.494 372.598 273.365 372.079 274.214C371.375 273.676 370.401 273.365 369.26 273.365C366.96 273.365 365.323 274.567 365.323 276.432C365.323 277.386 365.737 278.173 366.462 278.691C365.634 279.023 365.054 279.603 365.054 280.391C365.054 281.157 365.551 281.738 366.462 281.986C365.239 282.111 364.328 282.899 364.328 283.852C364.328 285.614 366.649 286.401 369.323 286.401C371.975 286.401 374.794 285.51 374.794 283.25ZM365.986 283.624C365.986 282.753 366.96 282.276 367.975 282.276H371.085C372.224 282.276 373.116 282.588 373.116 283.458C373.116 284.701 371.416 285.261 369.323 285.261C367.478 285.261 365.986 284.763 365.986 283.624Z" fill="black"/>
<path id="path68" d="M378.641 277.614C378.641 275.976 379.18 274.774 380.175 274.774C381.191 274.774 381.439 275.583 381.439 276.64V282.671H383.015V277.614C383.015 275.976 383.574 274.774 384.549 274.774C385.564 274.774 385.813 275.583 385.813 276.64V282.671H387.387V275.935C387.387 274.401 386.579 273.365 385.315 273.365C384.072 273.365 383.243 274.319 382.952 275.437C382.808 274.173 382.061 273.365 380.942 273.365C379.657 273.365 378.911 274.36 378.641 275.499V273.614H377.066V282.671H378.641V277.614Z" fill="black"/>
<path id="path70" d="M392.148 276.432C392.438 275.52 393.371 274.732 394.801 274.732C396.107 274.732 396.563 275.396 396.563 276.017V276.784L393.786 277.427C391.671 277.904 390.242 278.608 390.242 280.246C390.242 281.842 391.444 282.857 393.122 282.857C394.781 282.857 396.128 282.007 396.584 280.867C396.667 281.986 397.62 282.878 398.822 282.878C399.34 282.878 399.817 282.733 400.314 282.38L400.211 281.095C399.942 281.344 399.527 281.51 399.154 281.51C398.677 281.51 398.179 281.22 398.179 280.494V276.08C398.179 274.256 396.894 273.365 394.843 273.365C392.709 273.365 391.237 274.442 390.615 275.873L392.148 276.432ZM396.563 279.023C396.563 280.35 395.133 281.552 393.537 281.552C392.501 281.552 391.963 280.929 391.963 280.121C391.963 279.127 392.833 278.774 394.201 278.442L396.563 277.883V279.023Z" fill="black"/>
<path id="path72" d="M457.832 278.816L460.383 271.168H460.504V282.671H462.222V269.614H459.573L457.481 276.329H457.378L455.113 269.614H452.441V282.671H454.119V271.168H454.246L456.878 278.816H457.832Z" fill="black"/>
<path id="path74" d="M474.863 278.152C474.863 275.334 472.748 273.365 470.03 273.365C467.335 273.365 465.221 275.334 465.221 278.152C465.221 280.95 467.335 282.919 470.03 282.919C472.748 282.919 474.863 280.95 474.863 278.152ZM467.025 278.152C467.025 276.101 468.186 274.732 470.03 274.732C471.898 274.732 473.059 276.101 473.059 278.152C473.059 280.183 471.898 281.552 470.03 281.552C468.186 281.552 467.025 280.183 467.025 278.152Z" fill="black"/>
<path id="path76" d="M480.287 280.743C480.741 281.986 481.879 282.919 483.563 282.919C486.275 282.919 487.873 280.806 487.873 278.152C487.873 275.478 486.275 273.365 483.58 273.365C481.879 273.365 480.782 274.36 480.328 275.583V269.614H478.609V282.67H479.874L480.287 280.743ZM480.264 277.945C480.264 275.976 481.569 274.712 483.143 274.712C484.988 274.712 486.091 276.08 486.091 278.152C486.091 280.225 484.988 281.593 483.143 281.593C481.569 281.593 480.264 280.329 480.264 278.339V277.945Z" fill="black"/>
<path id="path78" d="M494.601 271.458H496.939V269.24H494.601V271.458ZM500.611 282.671V281.344H496.738V273.614H491.595V274.961H495.037V281.344H491.182V282.671H500.611Z" fill="black"/>
<path id="path80" d="M513.272 282.671V281.365H509.393V269.614H504.256V270.919H507.698V281.365H503.842V282.671H513.272Z" fill="black"/>
<path id="path82" d="M523.834 279.624C523.339 280.909 522.466 281.572 520.955 281.572C519.277 281.572 517.869 280.329 517.869 278.36H525.201V277.821C525.201 275.478 523.753 273.365 520.828 273.365C518.156 273.365 516.168 275.417 516.168 278.276C516.168 281.054 518.156 282.919 520.891 282.919C523.006 282.919 524.454 282.007 525.161 280.412L523.834 279.624ZM517.926 277.24C518.133 275.893 519.191 274.712 520.828 274.712C522.552 274.712 523.46 275.914 523.546 277.24H517.926Z" fill="black"/>
<path id="path84" d="M597.204 271.665H595.607L593.699 280.308H593.596L592.395 269.614H590.613L592.291 282.671H594.429L596.331 273.986H596.457L598.325 282.671H600.457L602.158 269.614H600.48L599.279 280.35H599.152L597.204 271.665Z" fill="black"/>
<path id="path86" d="M612.097 279.624C611.603 280.909 610.73 281.572 609.218 281.572C607.54 281.572 606.133 280.329 606.133 278.36H613.465V277.821C613.465 275.478 612.017 273.365 609.092 273.365C606.42 273.365 604.432 275.417 604.432 278.276C604.432 281.054 606.42 282.919 609.155 282.919C611.27 282.919 612.718 282.007 613.425 280.412L612.097 279.624ZM606.19 277.24C606.397 275.893 607.454 274.712 609.092 274.712C610.816 274.712 611.724 275.914 611.81 277.24H606.19Z" fill="black"/>
<path id="path88" d="M619.35 280.743C619.804 281.986 620.942 282.919 622.625 282.919C625.338 282.919 626.935 280.806 626.935 278.152C626.935 275.478 625.338 273.365 622.642 273.365C620.942 273.365 619.844 274.36 619.39 275.583V269.614H617.672V282.67H618.936L619.35 280.743ZM619.327 277.945C619.327 275.976 620.631 274.712 622.206 274.712C624.05 274.712 625.154 276.08 625.154 278.152C625.154 280.225 624.05 281.593 622.206 281.593C620.631 281.593 619.327 280.329 619.327 278.339V277.945Z" fill="black"/>
</g>
<path id="path98" d="M366.547 57.1571H473.333V29H366.547V57.1571Z" fill="#99195E"/>
<g id="g100">
<g id="g102">
<path id="path108" d="M375.877 44.7202C379.111 44.7202 380.955 43.2486 380.955 40.803C380.955 38.3579 379.111 36.8862 375.877 36.8862H371.4V49.9431H373.204V44.7202H375.877ZM373.204 43.2072V38.3993H375.836C378.074 38.3993 379.172 39.1865 379.172 40.803C379.172 42.42 378.074 43.2072 375.836 43.2072H373.204Z" fill="white"/>
<path id="path110" d="M385.656 43.705C385.946 42.7924 386.879 42.0052 388.309 42.0052C389.615 42.0052 390.071 42.6689 390.071 43.2901V44.0566L387.294 44.6997C385.179 45.1766 383.75 45.8811 383.75 47.5182C383.75 49.1146 384.952 50.13 386.63 50.13C388.288 50.13 389.635 49.2795 390.092 48.14C390.174 49.2588 391.128 50.1506 392.33 50.1506C392.848 50.1506 393.325 50.0053 393.822 49.653L393.719 48.3681C393.45 48.6169 393.035 48.7824 392.661 48.7824C392.185 48.7824 391.687 48.4923 391.687 47.7665V43.3527C391.687 41.5282 390.402 40.6376 388.351 40.6376C386.216 40.6376 384.745 41.715 384.122 43.1453L385.656 43.705ZM390.071 46.2954C390.071 47.6222 388.641 48.8244 387.045 48.8244C386.009 48.8244 385.47 48.2021 385.47 47.3941C385.47 46.3994 386.34 46.0466 387.709 45.715L390.071 45.1559V46.2954Z" fill="white"/>
<path id="path112" d="M401.94 42.1298C403.412 42.1298 404.095 42.9998 404.095 44.2019C404.095 44.6375 404.053 44.8863 403.991 45.0513L405.587 44.5961C405.65 44.4301 405.67 44.1606 405.67 43.7871C405.67 42.1919 404.551 40.6375 402.478 40.6375C400.489 40.6375 399.287 42.0465 398.851 43.4974V40.8863H397.131V49.9431H398.851V46.0885C398.851 43.9945 400.24 42.1298 401.94 42.1298Z" fill="white"/>
<path id="path114" d="M408.254 41.3632V42.6481H411.197V46.2953C411.197 48.8656 413.021 50.1919 415.28 50.1919C417.125 50.1919 418.72 49.0512 419.239 47.7664L418.326 46.4614C417.684 47.9531 416.71 48.6996 415.363 48.6996C414.099 48.6996 412.876 47.8709 412.876 46.1505V42.6481H417.954V41.3632H412.876V37.8602L411.197 38.3785V41.3632H408.254Z" fill="white"/>
<path id="path116" d="M424.127 45.0513C424.127 43.2693 425.266 42.0884 426.8 42.0884C428.292 42.0884 429.08 43.0412 429.08 44.5542V49.9431H430.801V44.3272C430.801 42.2125 429.784 40.6375 427.381 40.6375C425.784 40.6375 424.562 41.5914 424.127 42.7303V40.8863H422.406V49.9431H424.127V45.0513Z" fill="white"/>
<path id="path118" d="M442.236 46.8964C441.739 48.1812 440.869 48.845 439.356 48.845C437.677 48.845 436.268 47.6014 436.268 45.6322H443.603V45.0937C443.603 42.7509 442.154 40.6374 439.231 40.6374C436.558 40.6374 434.568 42.6894 434.568 45.5488C434.568 48.3266 436.558 50.1919 439.294 50.1919C441.407 50.1919 442.858 49.2794 443.563 47.6842L442.236 46.8964ZM436.33 44.5128C436.537 43.1658 437.594 41.9844 439.231 41.9844C440.951 41.9844 441.863 43.1865 441.946 44.5128H436.33Z" fill="white"/>
<path id="path120" d="M452.737 42.1298C454.209 42.1298 454.892 42.9998 454.892 44.2019C454.892 44.6375 454.852 44.8863 454.789 45.0513L456.386 44.5961C456.45 44.4301 456.467 44.1606 456.467 43.7871C456.467 42.1919 455.346 40.6375 453.278 40.6375C451.284 40.6375 450.083 42.0465 449.646 43.4974V40.8863H447.928V49.9431H449.646V46.0885C449.646 43.9945 451.037 42.1298 452.737 42.1298Z" fill="white"/>
<path id="path122" d="M460.008 48.1198C460.818 49.4041 462.68 50.1919 464.691 50.1919C466.99 50.1919 468.714 49.1351 468.714 47.4354C468.714 45.9844 467.616 45.2586 466.225 44.969L463.697 44.4093C462.703 44.1812 462.226 43.8502 462.226 43.1865C462.226 42.4406 463.14 41.9844 464.3 41.9844C465.582 41.9844 466.702 42.5228 467.219 43.456L468.38 42.5027C467.633 41.3425 466.202 40.6374 464.3 40.6374C462.203 40.6374 460.588 41.7149 460.588 43.3106C460.588 44.8449 461.772 45.5282 463.323 45.8603L465.542 46.3372C466.513 46.5435 467.053 46.8757 467.053 47.5595C467.053 48.4714 466.099 48.8656 464.674 48.8656C463.22 48.8656 461.726 48.2019 461.065 46.9791L460.008 48.1198Z" fill="white"/>
</g>
</g>
<g class="strokes">
<path id="path90" d="M289.598 262.24C347.482 236.434 389.16 192.011 414.63 128.969" stroke="black" stroke-width="2"/>
<path id="path92" d="M376.623 262.24C397.356 218.866 411.161 174.442 418.038 128.968" stroke="black" stroke-width="2"/>
<path id="path94" d="M477.466 262.241C448.901 225.66 430.394 181.236 421.947 128.968" stroke="black" stroke-width="2"/>
<path id="path96" d="M587.331 271.485C508.801 251.039 454.734 203.534 425.129 128.969" stroke="black" stroke-width="2"/>
<path id="path124" d="M419.939 100.81V57.1571" stroke="black" stroke-width="2"/>
</g>
</g>
</g>
</g>
</svg>
