<svg width="840" height="354" viewBox="0 0 840 354" fill="none" xmlns="http://www.w3.org/2000/svg">
<g id="ds-06">
<g id="g10">
<g id="g12">
<path id="path16" d="M372.898 192.708H466.982V164.551H372.898V192.708Z" fill="#FF644E"/>
<g id="g18">
<g id="g20">
<path id="path26" d="M382.204 179.954C385.437 179.954 387.281 178.482 387.281 176.036C387.281 173.591 385.437 172.12 382.204 172.12H377.727V185.177H379.53V179.954H382.204ZM379.53 178.441V173.633H382.162C384.4 173.633 385.499 174.42 385.499 176.036C385.499 177.654 384.4 178.441 382.162 178.441H379.53Z" fill="white"/>
<path id="path28" d="M395.567 177.363C397.039 177.363 397.722 178.233 397.722 179.435C397.722 179.871 397.68 180.12 397.618 180.285L399.214 179.83C399.277 179.664 399.297 179.394 399.297 179.021C399.297 177.425 398.177 175.871 396.105 175.871C394.116 175.871 392.914 177.28 392.478 178.731V176.12H390.758V185.177H392.478V181.322C392.478 179.228 393.867 177.363 395.567 177.363Z" fill="white"/>
<path id="path30" d="M412.286 180.658C412.286 177.84 410.172 175.871 407.456 175.871C404.763 175.871 402.648 177.84 402.648 180.658C402.648 183.456 404.763 185.425 407.456 185.425C410.172 185.425 412.286 183.456 412.286 180.658ZM404.451 180.658C404.451 178.607 405.612 177.239 407.456 177.239C409.322 177.239 410.483 178.607 410.483 180.658C410.483 182.69 409.322 184.058 407.456 184.058C405.612 184.058 404.451 182.69 404.451 180.658Z" fill="white"/>
<path id="path32" d="M422.621 180.845C422.621 182.835 421.316 184.099 419.741 184.099C417.896 184.099 416.798 182.731 416.798 180.658C416.798 178.586 417.896 177.218 419.741 177.218C421.316 177.218 422.621 178.482 422.621 180.451V180.845ZM422.559 185.177H424.28V172.12H422.559V178.089C422.104 176.866 421.006 175.871 419.306 175.871C416.611 175.871 415.016 177.984 415.016 180.658C415.016 183.312 416.611 185.425 419.306 185.425C421.006 185.425 422.104 184.451 422.559 183.228V185.177Z" fill="white"/>
<path id="path34" d="M435.24 181.031C435.24 182.793 434.099 183.995 432.586 183.995C431.094 183.995 430.348 183.041 430.348 181.508V176.12H428.629V181.756C428.629 183.85 429.602 185.425 431.986 185.425C433.581 185.425 434.825 184.472 435.24 183.333V185.177H436.96V176.12H435.24V181.031Z" fill="white"/>
<path id="path36" d="M448.496 182.005C448.145 183.167 447.277 184.016 445.864 184.016C444.105 184.016 442.902 182.731 442.902 180.658C442.902 178.565 444.106 177.28 445.91 177.28C447.214 177.28 448.019 178.089 448.392 179.146L449.823 178.317C449.226 176.907 447.938 175.871 445.887 175.871C443.048 175.871 441.1 177.861 441.1 180.658C441.1 183.477 443.048 185.425 445.824 185.425C448.082 185.425 449.409 184.203 449.927 182.71L448.496 182.005Z" fill="white"/>
<path id="path38" d="M452.68 176.597V177.882H455.622V181.529C455.622 184.099 457.449 185.425 459.707 185.425C461.552 185.425 463.144 184.285 463.667 183L462.753 181.695C462.109 183.187 461.138 183.933 459.788 183.933C458.524 183.933 457.3 183.104 457.3 181.384V177.882H462.38V176.597H457.3V173.094L455.622 173.612V176.597H452.68Z" fill="white"/>
</g>
</g>
<g class="word">
<path id="path40" d="M213 327.249C213.871 329.115 216.047 330.234 218.43 330.234C221.125 330.234 223.197 328.824 223.197 326.441C223.197 324.202 221.725 323.311 219.819 322.855L217.518 322.316C216.171 322.005 215.301 321.59 215.301 320.369C215.301 318.959 216.358 318.171 217.953 318.171C219.695 318.171 221 319.145 221.602 320.513L222.762 319.249C221.953 317.777 220.295 316.679 217.953 316.679C215.384 316.679 213.602 318.233 213.602 320.451C213.602 322.503 215.01 323.477 216.731 323.871L219.322 324.492C220.71 324.824 221.518 325.3 221.518 326.482C221.518 327.995 220.192 328.741 218.43 328.741C216.648 328.741 214.907 327.767 214.099 325.881L213 327.249Z" fill="black"/>
<path id="path42" d="M228.58 326.979L230.424 325.487L234.342 329.985H236.435L231.688 324.513L236.227 320.928H233.989L228.58 325.321V316.928H226.859V329.985H228.58V326.979Z" fill="black"/>
<path id="path44" d="M246.687 326.938C246.19 328.223 245.32 328.887 243.807 328.887C242.128 328.887 240.719 327.643 240.719 325.674H248.056V325.135C248.056 322.793 246.605 320.679 243.682 320.679C241.009 320.679 239.02 322.731 239.02 325.59C239.02 328.368 241.009 330.234 243.745 330.234C245.858 330.234 247.309 329.321 248.014 327.726L246.687 326.938ZM240.781 324.554C240.988 323.207 242.045 322.026 243.682 322.026C245.403 322.026 246.315 323.228 246.397 324.554H240.781Z" fill="black"/>
<path id="path46" d="M250.807 321.405V322.69H253.75V326.337C253.75 328.907 255.574 330.234 257.833 330.234C259.678 330.234 261.273 329.093 261.791 327.808L260.879 326.503C260.237 327.995 259.263 328.741 257.916 328.741C256.652 328.741 255.429 327.913 255.429 326.192V322.69H260.506V321.405H255.429V317.902L253.75 318.42V321.405H250.807Z" fill="black"/>
<path id="path48" d="M272.025 326.813C271.673 327.975 270.803 328.824 269.394 328.824C267.632 328.824 266.43 327.539 266.43 325.466C266.43 323.374 267.632 322.088 269.435 322.088C270.74 322.088 271.548 322.897 271.922 323.954L273.352 323.125C272.751 321.715 271.466 320.679 269.414 320.679C266.574 320.679 264.627 322.669 264.627 325.466C264.627 328.285 266.574 330.234 269.352 330.234C271.611 330.234 272.937 329.011 273.456 327.518L272.025 326.813Z" fill="black"/>
<path id="path50" d="M279.398 325.093C279.398 323.311 280.517 322.13 282.051 322.13C283.543 322.13 284.331 323.083 284.331 324.596V329.985H286.051V324.369C286.051 322.254 285.035 320.679 282.652 320.679C281.057 320.679 279.813 321.633 279.398 322.772V316.928H277.678V329.985H279.398V325.093Z" fill="black"/>
<path id="path52" d="M341.933 329.985V324.077H347.156V322.524H341.933V318.462H348.875V316.928H340.129V329.985H341.933Z" fill="black"/>
<path id="path54" d="M356 318.772H358.342V316.554H356V318.772ZM362.01 329.985V328.658H358.135V320.928H352.995V322.275H356.436V328.658H352.58V329.985H362.01Z" fill="black"/>
<path id="path56" d="M371.435 323.746C371.435 324.928 370.46 325.694 369.258 325.694C368.057 325.694 367.083 324.928 367.083 323.746C367.083 322.585 368.057 321.819 369.258 321.819C370.46 321.819 371.435 322.585 371.435 323.746ZM374.792 330.564C374.792 329.115 373.549 328.141 371.476 328.141H367.787C366.896 328.141 366.522 327.829 366.522 327.374C366.522 326.897 366.855 326.628 367.228 326.441C367.808 326.69 368.492 326.813 369.258 326.813C371.538 326.813 373.176 325.633 373.176 323.746C373.176 323.187 373.03 322.69 372.741 322.254C373.279 321.715 374.398 321.342 375.248 321.508L375.062 319.995C373.715 319.808 372.596 320.679 372.077 321.528C371.373 320.99 370.399 320.679 369.258 320.679C366.958 320.679 365.321 321.881 365.321 323.746C365.321 324.7 365.735 325.487 366.46 326.005C365.632 326.337 365.052 326.917 365.052 327.705C365.052 328.472 365.549 329.052 366.46 329.3C365.238 329.426 364.326 330.213 364.326 331.166C364.326 332.928 366.647 333.715 369.321 333.715C371.973 333.715 374.792 332.824 374.792 330.564ZM365.984 330.938C365.984 330.067 366.958 329.59 367.973 329.59H371.083C372.222 329.59 373.114 329.902 373.114 330.772C373.114 332.015 371.414 332.575 369.321 332.575C367.476 332.575 365.984 332.078 365.984 330.938Z" fill="black"/>
<path id="path58" d="M378.643 324.928C378.643 323.29 379.182 322.088 380.177 322.088C381.192 322.088 381.441 322.897 381.441 323.954V329.985H383.017V324.928C383.017 323.29 383.576 322.088 384.551 322.088C385.566 322.088 385.815 322.897 385.815 323.954V329.985H387.389V323.249C387.389 321.715 386.581 320.679 385.317 320.679C384.074 320.679 383.245 321.633 382.954 322.751C382.81 321.487 382.063 320.679 380.944 320.679C379.659 320.679 378.913 321.674 378.643 322.813V320.928H377.068V329.985H378.643V324.928Z" fill="black"/>
<path id="path60" d="M392.148 323.746C392.438 322.834 393.371 322.047 394.801 322.047C396.107 322.047 396.563 322.71 396.563 323.332V324.098L393.786 324.741C391.671 325.218 390.242 325.923 390.242 327.56C390.242 329.156 391.444 330.171 393.122 330.171C394.781 330.171 396.128 329.321 396.584 328.181C396.667 329.3 397.62 330.192 398.822 330.192C399.34 330.192 399.817 330.047 400.314 329.694L400.211 328.41C399.942 328.658 399.527 328.824 399.154 328.824C398.677 328.824 398.179 328.534 398.179 327.808V323.394C398.179 321.57 396.894 320.679 394.843 320.679C392.709 320.679 391.237 321.756 390.615 323.187L392.148 323.746ZM396.563 326.337C396.563 327.664 395.133 328.866 393.537 328.866C392.501 328.866 391.963 328.244 391.963 327.436C391.963 326.441 392.833 326.088 394.201 325.757L396.563 325.197V326.337Z" fill="black"/>
<path id="path62" d="M457.832 326.13L460.383 318.482H460.504V329.985H462.222V316.928H459.573L457.481 323.643H457.378L455.113 316.928H452.441V329.985H454.119V318.482H454.246L456.878 326.13H457.832Z" fill="black"/>
<path id="path64" d="M474.863 325.466C474.863 322.648 472.748 320.679 470.03 320.679C467.335 320.679 465.221 322.648 465.221 325.466C465.221 328.264 467.335 330.234 470.03 330.234C472.748 330.234 474.863 328.264 474.863 325.466ZM467.025 325.466C467.025 323.415 468.186 322.047 470.03 322.047C471.898 322.047 473.059 323.415 473.059 325.466C473.059 327.498 471.898 328.866 470.03 328.866C468.186 328.866 467.025 327.498 467.025 325.466Z" fill="black"/>
<path id="path66" d="M480.287 328.057C480.741 329.3 481.879 330.234 483.563 330.234C486.275 330.234 487.873 328.12 487.873 325.466C487.873 322.793 486.275 320.679 483.58 320.679C481.879 320.679 480.782 321.674 480.328 322.897V316.928H478.609V329.985H479.874L480.287 328.057ZM480.264 325.259C480.264 323.29 481.569 322.026 483.143 322.026C484.988 322.026 486.091 323.394 486.091 325.466C486.091 327.539 484.988 328.907 483.143 328.907C481.569 328.907 480.264 327.643 480.264 325.653V325.259Z" fill="black"/>
<path id="path68" d="M494.601 318.772H496.939V316.554H494.601V318.772ZM500.611 329.985V328.658H496.738V320.928H491.595V322.275H495.037V328.658H491.182V329.985H500.611Z" fill="black"/>
<path id="path70" d="M513.272 329.985V328.679H509.393V316.928H504.256V318.233H507.698V328.679H503.842V329.985H513.272Z" fill="black"/>
<path id="path72" d="M523.834 326.938C523.339 328.223 522.466 328.887 520.955 328.887C519.277 328.887 517.869 327.643 517.869 325.674H525.201V325.135C525.201 322.793 523.753 320.679 520.828 320.679C518.156 320.679 516.168 322.731 516.168 325.59C516.168 328.368 518.156 330.234 520.891 330.234C523.006 330.234 524.454 329.321 525.161 327.726L523.834 326.938ZM517.926 324.554C518.133 323.207 519.191 322.026 520.828 322.026C522.552 322.026 523.46 323.228 523.546 324.554H517.926Z" fill="black"/>
<path id="path74" d="M597.204 318.979H595.607L593.699 327.622H593.596L592.395 316.928H590.613L592.291 329.985H594.429L596.331 321.3H596.457L598.325 329.985H600.457L602.158 316.928H600.48L599.279 327.664H599.152L597.204 318.979Z" fill="black"/>
<path id="path76" d="M612.097 326.938C611.603 328.223 610.73 328.887 609.218 328.887C607.54 328.887 606.133 327.643 606.133 325.674H613.465V325.135C613.465 322.793 612.017 320.679 609.092 320.679C606.42 320.679 604.432 322.731 604.432 325.59C604.432 328.368 606.42 330.234 609.155 330.234C611.27 330.234 612.718 329.321 613.425 327.726L612.097 326.938ZM606.19 324.554C606.397 323.207 607.454 322.026 609.092 322.026C610.816 322.026 611.724 323.228 611.81 324.554H606.19Z" fill="black"/>
<path id="path78" d="M619.35 328.057C619.804 329.3 620.942 330.234 622.625 330.234C625.338 330.234 626.935 328.12 626.935 325.466C626.935 322.793 625.338 320.679 622.642 320.679C620.942 320.679 619.844 321.674 619.39 322.897V316.928H617.672V329.985H618.936L619.35 328.057ZM619.327 325.259C619.327 323.29 620.631 322.026 622.206 322.026C624.05 322.026 625.154 323.394 625.154 325.466C625.154 327.539 624.05 328.907 622.206 328.907C620.631 328.907 619.327 327.643 619.327 325.653V325.259Z" fill="black"/>
</g>
<path id="path88" d="M366.547 48.1571H473.333V20H366.547V48.1571Z" fill="#99195E"/>
<g id="g90">
<g id="g92">
<path id="path98" d="M375.883 35.7201C379.117 35.7201 380.961 34.2485 380.961 31.8028C380.961 29.3578 379.117 27.8861 375.883 27.8861H371.406V40.943H373.209V35.7201H375.883ZM373.209 34.2071V29.3991H375.842C378.08 29.3991 379.178 30.1864 379.178 31.8028C379.178 33.4199 378.08 34.2071 375.842 34.2071H373.209Z" fill="white"/>
<path id="path100" d="M385.662 34.7047C385.952 33.7922 386.885 33.0049 388.315 33.0049C389.621 33.0049 390.077 33.6687 390.077 34.2898V35.0564L387.3 35.6994C385.185 36.1764 383.756 36.8808 383.756 38.518C383.756 40.1143 384.958 41.1297 386.636 41.1297C388.294 41.1297 389.641 40.2793 390.098 39.1398C390.18 40.2586 391.134 41.1504 392.336 41.1504C392.854 41.1504 393.33 41.005 393.828 40.6528L393.725 39.3679C393.456 39.6167 393.041 39.7822 392.667 39.7822C392.19 39.7822 391.693 39.492 391.693 38.7662V34.3525C391.693 32.528 390.408 31.6373 388.356 31.6373C386.222 31.6373 384.751 32.7148 384.128 34.145L385.662 34.7047ZM390.077 37.2952C390.077 38.622 388.647 39.8241 387.051 39.8241C386.015 39.8241 385.476 39.2018 385.476 38.3939C385.476 37.3992 386.346 37.0463 387.715 36.7148L390.077 36.1557V37.2952Z" fill="white"/>
<path id="path102" d="M401.946 33.1297C403.417 33.1297 404.101 33.9997 404.101 35.2018C404.101 35.6374 404.059 35.8862 403.997 36.0511L405.593 35.596C405.656 35.43 405.676 35.1604 405.676 34.7869C405.676 33.1917 404.556 31.6374 402.484 31.6374C400.495 31.6374 399.293 33.0464 398.857 34.4973V31.8862H397.137V40.943H398.857V37.0883C398.857 34.9944 400.246 33.1297 401.946 33.1297Z" fill="white"/>
<path id="path104" d="M408.262 32.3631V33.6479H411.205V37.2952C411.205 39.8655 413.029 41.1918 415.288 41.1918C417.133 41.1918 418.728 40.0511 419.246 38.7662L418.334 37.4612C417.692 38.953 416.718 39.6994 415.371 39.6994C414.107 39.6994 412.884 38.8708 412.884 37.1504V33.6479H417.962V32.3631H412.884V28.8601L411.205 29.3784V32.3631H408.262Z" fill="white"/>
<path id="path106" d="M424.133 36.0511C424.133 34.2692 425.272 33.0883 426.806 33.0883C428.298 33.0883 429.086 34.0411 429.086 35.5541V40.943H430.806V35.3271C430.806 33.2124 429.79 31.6374 427.387 31.6374C425.79 31.6374 424.568 32.5912 424.133 33.7302V31.8862H422.412V40.943H424.133V36.0511Z" fill="white"/>
<path id="path108" d="M442.24 37.8962C441.743 39.1811 440.873 39.8448 439.36 39.8448C437.68 39.8448 436.272 38.6013 436.272 36.632H443.607V36.0936C443.607 33.7508 442.157 31.6373 439.235 31.6373C436.562 31.6373 434.572 33.6893 434.572 36.5487C434.572 39.3265 436.562 41.1918 439.297 41.1918C441.411 41.1918 442.862 40.2792 443.566 38.6841L442.24 37.8962ZM436.334 35.5126C436.541 34.1657 437.598 32.9843 439.235 32.9843C440.955 32.9843 441.867 34.1864 441.95 35.5126H436.334Z" fill="white"/>
<path id="path110" d="M452.743 33.1297C454.214 33.1297 454.898 33.9997 454.898 35.2018C454.898 35.6374 454.858 35.8862 454.795 36.0511L456.392 35.596C456.455 35.43 456.473 35.1604 456.473 34.7869C456.473 33.1917 455.352 31.6374 453.283 31.6374C451.289 31.6374 450.088 33.0464 449.652 34.4973V31.8862H447.934V40.943H449.652V37.0883C449.652 34.9944 451.042 33.1297 452.743 33.1297Z" fill="white"/>
<path id="path112" d="M460.014 39.1196C460.824 40.4039 462.686 41.1918 464.697 41.1918C466.995 41.1918 468.719 40.135 468.719 38.4352C468.719 36.9843 467.622 36.2585 466.231 35.9689L463.703 35.4092C462.709 35.1811 462.232 34.8501 462.232 34.1864C462.232 33.4405 463.145 32.9843 464.306 32.9843C465.588 32.9843 466.708 33.5227 467.225 34.4559L468.386 33.5026C467.639 32.3424 466.208 31.6373 464.306 31.6373C462.209 31.6373 460.594 32.7148 460.594 34.3105C460.594 35.8448 461.778 36.528 463.329 36.8602L465.547 37.3371C466.519 37.5434 467.059 37.8755 467.059 38.5594C467.059 39.4713 466.105 39.8655 464.68 39.8655C463.226 39.8655 461.732 39.2018 461.071 37.979L460.014 39.1196Z" fill="white"/>
</g>
</g>
<path id="path114" d="M334.793 120.432H505.087V92.2752H334.793V120.432Z" fill="#00A2FF"/>
<g id="g116">
<g id="g118">
<path id="path124" d="M338.807 112.773H342.247C346.268 112.773 348.838 110.327 348.838 106.244C348.838 102.161 346.268 99.7158 342.247 99.7158H338.807V112.773ZM340.631 111.28V101.208H342.04C345.232 101.208 346.952 103.073 346.952 106.244C346.952 109.416 345.232 111.28 342.04 111.28H340.631Z" fill="white"/>
<path id="path126" d="M359.258 109.726C358.76 111.011 357.89 111.675 356.377 111.675C354.698 111.675 353.29 110.431 353.29 108.462H360.626V107.923C360.626 105.581 359.175 103.467 356.252 103.467C353.579 103.467 351.59 105.519 351.59 108.378C351.59 111.156 353.579 113.021 356.315 113.021C358.429 113.021 359.88 112.109 360.585 110.514L359.258 109.726ZM353.351 107.342C353.559 105.995 354.615 104.814 356.252 104.814C357.973 104.814 358.885 106.016 358.968 107.342H353.351Z" fill="white"/>
<path id="path128" d="M364.33 110.949C365.138 112.234 367.004 113.021 369.014 113.021C371.314 113.021 373.035 111.965 373.035 110.265C373.035 108.814 371.936 108.088 370.548 107.799L368.019 107.239C367.025 107.011 366.548 106.68 366.548 106.016C366.548 105.27 367.459 104.814 368.62 104.814C369.905 104.814 371.025 105.352 371.542 106.286L372.703 105.332C371.957 104.172 370.527 103.467 368.62 103.467C366.527 103.467 364.91 104.544 364.91 106.14C364.91 107.675 366.091 108.358 367.646 108.69L369.863 109.167C370.838 109.373 371.376 109.705 371.376 110.389C371.376 111.301 370.423 111.695 368.993 111.695C367.542 111.695 366.05 111.032 365.387 109.809L364.33 110.949Z" fill="white"/>
<path id="path130" d="M380.823 101.56H383.164V99.3423H380.823V101.56ZM386.833 112.773V111.446H382.957V103.716H377.817V105.063H381.258V111.446H377.402V112.773H386.833Z" fill="white"/>
<path id="path132" d="M396.257 106.534C396.257 107.716 395.283 108.482 394.081 108.482C392.88 108.482 391.905 107.716 391.905 106.534C391.905 105.373 392.88 104.607 394.081 104.607C395.283 104.607 396.257 105.373 396.257 106.534ZM399.614 113.352C399.614 111.903 398.371 110.929 396.299 110.929H392.609C391.718 110.929 391.345 110.617 391.345 110.162C391.345 109.685 391.677 109.416 392.05 109.229C392.631 109.478 393.314 109.601 394.081 109.601C396.36 109.601 397.998 108.421 397.998 106.534C397.998 105.975 397.852 105.478 397.563 105.042C398.101 104.503 399.221 104.13 400.07 104.296L399.884 102.783C398.537 102.596 397.418 103.467 396.9 104.316C396.195 103.778 395.221 103.467 394.081 103.467C391.78 103.467 390.144 104.669 390.144 106.534C390.144 107.488 390.557 108.275 391.283 108.793C390.454 109.125 389.874 109.705 389.874 110.493C389.874 111.26 390.371 111.84 391.283 112.088C390.06 112.214 389.148 113.001 389.148 113.954C389.148 115.716 391.469 116.503 394.144 116.503C396.796 116.503 399.614 115.612 399.614 113.352ZM390.806 113.726C390.806 112.855 391.78 112.378 392.796 112.378H395.905C397.045 112.378 397.936 112.69 397.936 113.56C397.936 114.803 396.237 115.363 394.144 115.363C392.299 115.363 390.806 114.865 390.806 113.726Z" fill="white"/>
<path id="path134" d="M404.644 107.881C404.644 106.099 405.784 104.918 407.318 104.918C408.81 104.918 409.598 105.871 409.598 107.384V112.773H411.318V107.157C411.318 105.042 410.302 103.467 407.898 103.467C406.301 103.467 405.08 104.421 404.644 105.56V103.716H402.924V112.773H404.644V107.881Z" fill="white"/>
<path id="path136" d="M427.164 110.037C428.035 111.903 430.211 113.021 432.594 113.021C435.289 113.021 437.361 111.612 437.361 109.229C437.361 106.99 435.889 106.099 433.983 105.643L431.682 105.104C430.335 104.793 429.465 104.378 429.465 103.157C429.465 101.747 430.522 100.959 432.117 100.959C433.859 100.959 435.164 101.933 435.766 103.301L436.926 102.037C436.117 100.565 434.459 99.467 432.117 99.467C429.548 99.467 427.766 101.021 427.766 103.239C427.766 105.291 429.174 106.265 430.895 106.659L433.486 107.28C434.874 107.612 435.682 108.088 435.682 109.27C435.682 110.783 434.356 111.529 432.594 111.529C430.812 111.529 429.071 110.555 428.263 108.669L427.164 110.037Z" fill="white"/>
<path id="path138" d="M444.216 113.581C443.78 114.596 443.24 115.114 442.537 115.114C441.771 115.114 441.397 114.534 441.397 113.622L439.988 114.389C440.154 115.571 441.024 116.503 442.475 116.503C444.239 116.503 445.211 115.114 445.958 113.373L450.02 103.716H448.342L445.458 110.763H445.377L442.165 103.716H440.258L444.567 112.752L444.216 113.581Z" fill="white"/>
<path id="path140" d="M453.227 110.949C454.037 112.234 455.899 113.021 457.91 113.021C460.208 113.021 461.932 111.965 461.932 110.265C461.932 108.814 460.835 108.088 459.444 107.799L456.916 107.239C455.922 107.011 455.445 106.68 455.445 106.016C455.445 105.27 456.358 104.814 457.519 104.814C458.801 104.814 459.921 105.352 460.438 106.286L461.599 105.332C460.852 104.172 459.421 103.467 457.519 103.467C455.422 103.467 453.807 104.544 453.807 106.14C453.807 107.675 454.991 108.358 456.542 108.69L458.76 109.167C459.731 109.373 460.272 109.705 460.272 110.389C460.272 111.301 459.318 111.695 457.893 111.695C456.439 111.695 454.945 111.032 454.284 109.809L453.227 110.949Z" fill="white"/>
<path id="path142" d="M464.973 104.193V105.478H467.915V109.125C467.915 111.695 469.742 113.021 472 113.021C473.845 113.021 475.437 111.881 475.96 110.596L475.046 109.291C474.402 110.783 473.431 111.529 472.081 111.529C470.817 111.529 469.593 110.701 469.593 108.98V105.478H474.672V104.193H469.593V100.69L467.915 101.208V104.193H464.973Z" fill="white"/>
<path id="path144" d="M486.252 109.726C485.757 111.011 484.884 111.675 483.373 111.675C481.695 111.675 480.287 110.431 480.287 108.462H487.619V107.923C487.619 105.581 486.171 103.467 483.246 103.467C480.574 103.467 478.586 105.519 478.586 108.378C478.586 111.156 480.574 113.021 483.309 113.021C485.424 113.021 486.872 112.109 487.579 110.514L486.252 109.726ZM480.344 107.342C480.551 105.995 481.609 104.814 483.246 104.814C484.97 104.814 485.878 106.016 485.964 107.342H480.344Z" fill="white"/>
<path id="path146" d="M492.36 107.716C492.36 106.078 492.9 104.876 493.894 104.876C494.911 104.876 495.158 105.685 495.158 106.742V112.773H496.733V107.716C496.733 106.078 497.296 104.876 498.267 104.876C499.284 104.876 499.531 105.685 499.531 106.742V112.773H501.106V106.037C501.106 104.503 500.301 103.467 499.037 103.467C497.79 103.467 496.962 104.421 496.669 105.539C496.526 104.275 495.779 103.467 494.664 103.467C493.377 103.467 492.63 104.462 492.36 105.601V103.716H490.785V112.773H492.36V107.716Z" fill="white"/>
</g>
</g>
<g class="strokes">
<path id="path80" d="M290.648 311.853C346.544 291.03 387.672 251.316 414.032 192.711" stroke="black" stroke-width="2"/>
<path id="path82" d="M377.467 309.101C397.427 271.608 410.867 232.81 417.786 192.708" stroke="black" stroke-width="2"/>
<path id="path84" d="M475.893 309.104C448.701 277.864 430.812 239.066 422.229 192.708" stroke="black" stroke-width="2"/>
<path id="path86" d="M587.33 319.948C510.749 305.625 456.877 263.213 425.719 192.711" stroke="black" stroke-width="2"/>
<path id="path148" d="M419.939 92.2753V48.1571" stroke="black" stroke-width="2"/>
<path id="path150" d="M419.939 164.551V120.432" stroke="black" stroke-width="2"/>
</g>
</g>
</g>
</g>
</svg>
