<svg width="840" height="460" viewBox="0 0 840 460" fill="none" xmlns="http://www.w3.org/2000/svg">
<g id="ds-03">
<g id="g10">
<g id="g12">
<path id="path16" d="M3.62109 255.576H834.343V186.761H3.62109V255.576Z" fill="#00A2FF"/>
<path id="path18" d="M394.609 227.651V216.17H399.293V214.594H388.184V216.17H392.806V227.651H394.609Z" fill="white"/>
<path id="path20" d="M411.267 223.133C411.267 220.315 409.152 218.346 406.437 218.346C403.743 218.346 401.629 220.315 401.629 223.133C401.629 225.931 403.743 227.9 406.437 227.9C409.152 227.9 411.267 225.931 411.267 223.133ZM403.432 223.133C403.432 221.082 404.593 219.713 406.437 219.713C408.303 219.713 409.463 221.082 409.463 223.133C409.463 225.164 408.303 226.532 406.437 226.532C404.593 226.532 403.432 225.164 403.432 223.133Z" fill="white"/>
<path id="path22" d="M423.968 223.133C423.968 220.315 421.853 218.346 419.138 218.346C416.444 218.346 414.33 220.315 414.33 223.133C414.33 225.931 416.444 227.9 419.138 227.9C421.853 227.9 423.968 225.931 423.968 223.133ZM416.133 223.133C416.133 221.082 417.294 219.713 419.138 219.713C421.004 219.713 422.165 221.082 422.165 223.133C422.165 225.164 421.004 226.532 419.138 226.532C417.294 226.532 416.133 225.164 416.133 223.133Z" fill="white"/>
<path id="path24" d="M436.975 227.651V226.346H433.1V214.594H427.96V215.9H431.401V226.346H427.545V227.651H436.975Z" fill="white"/>
<path id="path26" d="M439.914 225.828C440.722 227.112 442.586 227.9 444.597 227.9C446.896 227.9 448.62 226.843 448.62 225.144C448.62 223.693 447.522 222.967 446.132 222.677L443.603 222.118C442.609 221.889 442.132 221.558 442.132 220.895C442.132 220.149 443.046 219.693 444.207 219.693C445.488 219.693 446.609 220.231 447.126 221.164L448.287 220.211C447.539 219.051 446.109 218.346 444.207 218.346C442.109 218.346 440.494 219.423 440.494 221.019C440.494 222.553 441.675 223.236 443.23 223.569L445.448 224.045C446.419 224.252 446.959 224.584 446.959 225.268C446.959 226.18 446.005 226.574 444.58 226.574C443.126 226.574 441.634 225.91 440.971 224.687L439.914 225.828Z" fill="white"/>
<g class="word">
<path id="path28" d="M92.4805 169.039H95.9208C99.9415 169.039 102.512 166.593 102.512 162.51C102.512 158.427 99.9415 155.982 95.9208 155.982H92.4805V169.039ZM94.3049 167.546V157.474H95.7134C98.9055 157.474 100.626 159.339 100.626 162.51C100.626 165.682 98.9055 167.546 95.7134 167.546H94.3049Z" fill="black"/>
<path id="path30" d="M112.93 165.992C112.432 167.277 111.562 167.94 110.049 167.94C108.37 167.94 106.961 166.697 106.961 164.728H114.298V164.189C114.298 161.846 112.847 159.733 109.924 159.733C107.251 159.733 105.262 161.785 105.262 164.644C105.262 167.422 107.251 169.287 109.987 169.287C112.1 169.287 113.551 168.375 114.256 166.78L112.93 165.992ZM107.023 163.608C107.23 162.261 108.287 161.08 109.924 161.08C111.645 161.08 112.557 162.282 112.639 163.608H107.023Z" fill="black"/>
<path id="path32" d="M118.004 167.215C118.812 168.5 120.678 169.287 122.688 169.287C124.988 169.287 126.708 168.231 126.708 166.531C126.708 165.08 125.61 164.354 124.221 164.064L121.693 163.505C120.698 163.277 120.221 162.946 120.221 162.282C120.221 161.536 121.133 161.08 122.294 161.08C123.578 161.08 124.698 161.618 125.216 162.551L126.376 161.598C125.63 160.438 124.201 159.733 122.294 159.733C120.201 159.733 118.584 160.81 118.584 162.406C118.584 163.94 119.765 164.624 121.32 164.956L123.537 165.433C124.512 165.639 125.05 165.971 125.05 166.655C125.05 167.567 124.097 167.961 122.667 167.961C121.216 167.961 119.724 167.297 119.061 166.075L118.004 167.215Z" fill="black"/>
<path id="path34" d="M134.496 157.826H136.838V155.608H134.496V157.826ZM140.507 169.039V167.712H136.631V159.982H131.491V161.329H134.932V167.712H131.076V169.039H140.507Z" fill="black"/>
<path id="path36" d="M149.931 162.8C149.931 163.982 148.956 164.748 147.754 164.748C146.553 164.748 145.579 163.982 145.579 162.8C145.579 161.639 146.553 160.873 147.754 160.873C148.956 160.873 149.931 161.639 149.931 162.8ZM153.288 169.618C153.288 168.169 152.045 167.195 149.972 167.195H146.283C145.392 167.195 145.019 166.883 145.019 166.427C145.019 165.951 145.351 165.682 145.724 165.495C146.305 165.744 146.988 165.867 147.754 165.867C150.034 165.867 151.672 164.687 151.672 162.8C151.672 162.241 151.526 161.744 151.237 161.308C151.775 160.769 152.894 160.396 153.744 160.562L153.558 159.049C152.211 158.862 151.092 159.733 150.574 160.582C149.869 160.044 148.895 159.733 147.754 159.733C145.454 159.733 143.818 160.935 143.818 162.8C143.818 163.754 144.231 164.541 144.956 165.059C144.128 165.391 143.548 165.971 143.548 166.759C143.548 167.526 144.045 168.106 144.956 168.354C143.734 168.48 142.822 169.267 142.822 170.22C142.822 171.982 145.143 172.769 147.818 172.769C150.469 172.769 153.288 171.878 153.288 169.618ZM144.48 169.992C144.48 169.121 145.454 168.644 146.469 168.644H149.579C150.718 168.644 151.61 168.956 151.61 169.826C151.61 171.069 149.91 171.629 147.818 171.629C145.972 171.629 144.48 171.131 144.48 169.992Z" fill="black"/>
<path id="path38" d="M158.32 164.147C158.32 162.365 159.46 161.184 160.994 161.184C162.486 161.184 163.273 162.137 163.273 163.65V169.039H164.994V163.423C164.994 161.308 163.977 159.733 161.574 159.733C159.977 159.733 158.756 160.687 158.32 161.826V159.982H156.6V169.039H158.32V164.147Z" fill="black"/>
<path id="path40" d="M180.836 166.303C181.707 168.169 183.883 169.287 186.266 169.287C188.961 169.287 191.033 167.878 191.033 165.495C191.033 163.256 189.561 162.365 187.655 161.908L185.354 161.37C184.007 161.059 183.137 160.644 183.137 159.423C183.137 158.012 184.194 157.225 185.789 157.225C187.53 157.225 188.836 158.199 189.438 159.567L190.598 158.303C189.789 156.831 188.131 155.733 185.789 155.733C183.22 155.733 181.438 157.287 181.438 159.505C181.438 161.557 182.846 162.531 184.566 162.925L187.158 163.546C188.546 163.878 189.354 164.354 189.354 165.536C189.354 167.049 188.028 167.795 186.266 167.795C184.484 167.795 182.743 166.821 181.935 164.935L180.836 166.303Z" fill="black"/>
<path id="path42" d="M197.89 169.847C197.455 170.862 196.916 171.38 196.211 171.38C195.445 171.38 195.071 170.8 195.071 169.888L193.662 170.655C193.828 171.837 194.698 172.769 196.149 172.769C197.911 172.769 198.885 171.38 199.631 169.639L203.693 159.982H202.014L199.134 167.029H199.05L195.839 159.982H193.932L198.243 169.018L197.89 169.847Z" fill="black"/>
<path id="path44" d="M206.9 167.215C207.708 168.5 209.574 169.287 211.584 169.287C213.885 169.287 215.605 168.231 215.605 166.531C215.605 165.08 214.506 164.354 213.118 164.064L210.59 163.505C209.595 163.277 209.118 162.946 209.118 162.282C209.118 161.536 210.029 161.08 211.19 161.08C212.475 161.08 213.595 161.618 214.113 162.551L215.273 161.598C214.527 160.438 213.097 159.733 211.19 159.733C209.097 159.733 207.48 160.81 207.48 162.406C207.48 163.94 208.662 164.624 210.216 164.956L212.434 165.433C213.408 165.639 213.947 165.971 213.947 166.655C213.947 167.567 212.993 167.961 211.564 167.961C210.113 167.961 208.62 167.297 207.957 166.075L206.9 167.215Z" fill="black"/>
<path id="path46" d="M218.645 160.459V161.744H221.588V165.391C221.588 167.961 223.412 169.287 225.671 169.287C227.516 169.287 229.111 168.147 229.629 166.862L228.717 165.557C228.075 167.049 227.101 167.795 225.754 167.795C224.49 167.795 223.267 166.966 223.267 165.246V161.744H228.344V160.459H223.267V156.956L221.588 157.474V160.459H218.645Z" fill="black"/>
<path id="path48" d="M239.926 165.992C239.428 167.277 238.558 167.94 237.045 167.94C235.366 167.94 233.958 166.697 233.958 164.728H241.294V164.189C241.294 161.846 239.843 159.733 236.92 159.733C234.247 159.733 232.258 161.785 232.258 164.644C232.258 167.422 234.247 169.287 236.983 169.287C239.097 169.287 240.547 168.375 241.253 166.78L239.926 165.992ZM234.019 163.608C234.227 162.261 235.283 161.08 236.92 161.08C238.641 161.08 239.553 162.282 239.636 163.608H234.019Z" fill="black"/>
<path id="path50" d="M246.034 163.982C246.034 162.344 246.572 161.142 247.568 161.142C248.583 161.142 248.832 161.951 248.832 163.008V169.039H250.408V163.982C250.408 162.344 250.967 161.142 251.941 161.142C252.957 161.142 253.206 161.951 253.206 163.008V169.039H254.78V162.303C254.78 160.769 253.972 159.733 252.708 159.733C251.464 159.733 250.636 160.687 250.344 161.805C250.2 160.541 249.454 159.733 248.334 159.733C247.049 159.733 246.304 160.728 246.034 161.867V159.982H244.459V169.039H246.034V163.982Z" fill="black"/>
</g>
<g id="word_2">
<path id="path52" d="M0 399.605C0.871147 401.471 3.04672 402.589 5.4303 402.589C8.12477 402.589 10.1969 401.18 10.1969 398.797C10.1969 396.558 8.72526 395.667 6.81919 395.211L4.51835 394.672C3.17141 394.361 2.30142 393.946 2.30142 392.725C2.30142 391.315 3.35817 390.527 4.95335 390.527C6.6945 390.527 8.00007 391.501 8.60171 392.869L9.7619 391.605C8.95339 390.133 7.29499 389.035 4.95335 389.035C2.38358 389.035 0.601641 390.589 0.601641 392.807C0.601641 394.859 2.01007 395.833 3.73053 396.227L6.32214 396.848C7.70988 397.18 8.51782 397.656 8.51782 398.838C8.51782 400.351 7.19214 401.097 5.4303 401.097C3.64778 401.097 1.90721 400.123 1.09927 398.237L0 399.605Z" fill="black"/>
<path id="path54" d="M15.5798 399.335L17.4238 397.843L21.3417 402.341H23.4345L18.688 396.869L23.2271 393.284H20.9889L15.5798 397.677V389.284H13.8594V402.341H15.5798V399.335Z" fill="black"/>
<path id="path56" d="M33.6894 399.294C33.1918 400.579 32.3218 401.243 30.8088 401.243C29.1297 401.243 27.7212 399.999 27.7212 398.03H35.0576V397.491C35.0576 395.149 33.6067 393.035 30.6841 393.035C28.0109 393.035 26.0215 395.087 26.0215 397.946C26.0215 400.724 28.0109 402.589 30.7467 402.589C32.8602 402.589 34.3112 401.677 35.0163 400.082L33.6894 399.294ZM27.7827 396.91C27.9902 395.563 29.0469 394.382 30.6841 394.382C32.4045 394.382 33.3165 395.584 33.3992 396.91H27.7827Z" fill="black"/>
<path id="path58" d="M37.8086 393.761V395.046H40.7519V398.693C40.7519 401.263 42.5758 402.589 44.8347 402.589C46.6798 402.589 48.275 401.449 48.7933 400.164L47.8808 398.859C47.2389 400.351 46.2649 401.097 44.918 401.097C43.6538 401.097 42.431 400.269 42.431 398.548V395.046H47.5084V393.761H42.431V390.258L40.7519 390.776V393.761H37.8086Z" fill="black"/>
<path id="path60" d="M59.0254 399.169C58.6731 400.331 57.8026 401.18 56.3936 401.18C54.6317 401.18 53.4296 399.895 53.4296 397.822C53.4296 395.729 54.6317 394.444 56.4349 394.444C57.7405 394.444 58.5484 395.253 58.9219 396.31L60.3522 395.481C59.7506 394.071 58.4657 393.035 56.4142 393.035C53.5744 393.035 51.627 395.025 51.627 397.822C51.627 400.641 53.5744 402.589 56.3522 402.589C58.6111 402.589 59.9373 401.367 60.4557 399.874L59.0254 399.169Z" fill="black"/>
<path id="path62" d="M66.4001 397.449C66.4001 395.667 67.519 394.486 69.0532 394.486C70.545 394.486 71.3328 395.439 71.3328 396.952V402.341H73.0533V396.725C73.0533 394.61 72.0367 393.035 69.6543 393.035C68.0585 393.035 66.815 393.989 66.4001 395.128V389.284H64.6797V402.341H66.4001V397.449Z" fill="black"/>
<path id="path64" d="M146.173 402.341V396.433H151.396V394.88H146.173V390.817H153.115V389.284H144.369V402.341H146.173Z" fill="black"/>
<path id="path66" d="M160.239 391.128H162.58V388.91H160.239V391.128ZM166.249 402.341V401.014H162.373V393.284H157.233V394.631H160.674V401.014H156.818V402.341H166.249Z" fill="black"/>
<path id="path68" d="M175.675 396.102C175.675 397.284 174.701 398.05 173.498 398.05C172.297 398.05 171.323 397.284 171.323 396.102C171.323 394.941 172.297 394.174 173.498 394.174C174.701 394.174 175.675 394.941 175.675 396.102ZM179.032 402.92C179.032 401.471 177.789 400.497 175.717 400.497H172.027C171.136 400.497 170.763 400.184 170.763 399.729C170.763 399.253 171.095 398.984 171.468 398.797C172.049 399.046 172.732 399.169 173.498 399.169C175.778 399.169 177.416 397.989 177.416 396.102C177.416 395.543 177.27 395.046 176.981 394.61C177.519 394.071 178.639 393.697 179.488 393.863L179.302 392.351C177.955 392.164 176.836 393.035 176.318 393.884C175.613 393.346 174.639 393.035 173.498 393.035C171.198 393.035 169.562 394.237 169.562 396.102C169.562 397.056 169.975 397.843 170.701 398.361C169.872 398.693 169.292 399.273 169.292 400.061C169.292 400.828 169.789 401.408 170.701 401.656C169.478 401.781 168.566 402.569 168.566 403.522C168.566 405.284 170.887 406.071 173.562 406.071C176.214 406.071 179.032 405.18 179.032 402.92ZM170.224 403.294C170.224 402.423 171.198 401.946 172.214 401.946H175.323C176.462 401.946 177.354 402.258 177.354 403.128C177.354 404.371 175.655 404.931 173.562 404.931C171.717 404.931 170.224 404.433 170.224 403.294Z" fill="black"/>
<path id="path70" d="M182.882 397.284C182.882 395.646 183.42 394.444 184.415 394.444C185.431 394.444 185.68 395.253 185.68 396.31V402.341H187.255V397.284C187.255 395.646 187.814 394.444 188.789 394.444C189.804 394.444 190.053 395.253 190.053 396.31V402.341H191.628V395.605C191.628 394.071 190.82 393.035 189.556 393.035C188.312 393.035 187.483 393.989 187.192 395.107C187.048 393.843 186.301 393.035 185.182 393.035C183.897 393.035 183.151 394.03 182.882 395.169V393.284H181.307V402.341H182.882V397.284Z" fill="black"/>
<path id="path72" d="M196.39 396.102C196.681 395.19 197.613 394.403 199.044 394.403C200.349 394.403 200.805 395.066 200.805 395.687V396.454L198.028 397.097C195.913 397.574 194.484 398.278 194.484 399.916C194.484 401.512 195.686 402.527 197.364 402.527C199.023 402.527 200.37 401.677 200.826 400.537C200.909 401.656 201.862 402.548 203.064 402.548C203.583 402.548 204.059 402.403 204.557 402.05L204.453 400.765C204.184 401.014 203.769 401.18 203.396 401.18C202.919 401.18 202.421 400.89 202.421 400.164V395.75C202.421 393.926 201.136 393.035 199.085 393.035C196.951 393.035 195.479 394.112 194.857 395.543L196.39 396.102ZM200.805 398.693C200.805 400.02 199.375 401.222 197.779 401.222C196.743 401.222 196.205 400.599 196.205 399.791C196.205 398.797 197.075 398.444 198.443 398.112L200.805 397.553V398.693Z" fill="black"/>
</g>
<path id="path74" d="M250.029 409.936H331.411V381.778H250.029V409.936Z" fill="#FF644E"/>
<g id="g76">
<g id="g78">
<path id="path84" d="M259.195 398.486L261.745 390.838H261.869V402.341H263.589V389.284H260.936L258.843 395.999H258.739L256.48 389.284H253.807V402.341H255.486V390.838H255.609L258.242 398.486H259.195Z" fill="white"/>
<path id="path86" d="M276.226 397.822C276.226 395.004 274.111 393.035 271.396 393.035C268.702 393.035 266.588 395.004 266.588 397.822C266.588 400.62 268.702 402.589 271.396 402.589C274.111 402.589 276.226 400.62 276.226 397.822ZM268.391 397.822C268.391 395.771 269.552 394.403 271.396 394.403C273.262 394.403 274.422 395.771 274.422 397.822C274.422 399.854 273.262 401.222 271.396 401.222C269.552 401.222 268.391 399.854 268.391 397.822Z" fill="white"/>
<path id="path88" d="M281.652 400.413C282.107 401.656 283.248 402.589 284.927 402.589C287.642 402.589 289.237 400.476 289.237 397.822C289.237 395.149 287.642 393.035 284.947 393.035C283.247 393.035 282.149 394.03 281.693 395.253V389.284H279.973V402.341H281.237L281.652 400.413ZM281.631 397.615C281.631 395.646 282.937 394.382 284.512 394.382C286.356 394.382 287.455 395.75 287.455 397.822C287.455 399.895 286.356 401.263 284.512 401.263C282.937 401.263 281.631 399.999 281.631 398.009V397.615Z" fill="white"/>
<path id="path90" d="M295.967 391.128H298.309V388.91H295.967V391.128ZM301.977 402.341V401.014H298.102V393.284H292.962V394.631H296.403V401.014H292.547V402.341H301.977Z" fill="white"/>
<path id="path92" d="M314.635 402.341V401.035H310.76V389.284H305.62V390.589H309.061V401.035H305.205V402.341H314.635Z" fill="white"/>
<path id="path94" d="M325.201 399.294C324.703 400.579 323.834 401.243 322.32 401.243C320.641 401.243 319.233 399.999 319.233 398.03H326.569V397.491C326.569 395.149 325.118 393.035 322.196 393.035C319.523 393.035 317.533 395.087 317.533 397.946C317.533 400.724 319.523 402.589 322.258 402.589C324.372 402.589 325.823 401.677 326.528 400.082L325.201 399.294ZM319.294 396.91C319.502 395.563 320.559 394.382 322.196 394.382C323.916 394.382 324.828 395.584 324.911 396.91H319.294Z" fill="white"/>
</g>
</g>
<g id="word_3">
<path id="path102" d="M599.881 169.039H603.323C607.345 169.039 609.914 166.593 609.914 162.51C609.914 158.427 607.345 155.982 603.323 155.982H599.881V169.039ZM601.708 167.546V157.474H603.116C606.305 157.474 608.029 159.339 608.029 162.51C608.029 165.682 606.305 167.546 603.116 167.546H601.708Z" fill="black"/>
<path id="path104" d="M620.334 165.992C619.839 167.277 618.966 167.94 617.455 167.94C615.777 167.94 614.369 166.697 614.369 164.728H621.701V164.189C621.701 161.846 620.253 159.733 617.328 159.733C614.656 159.733 612.668 161.785 612.668 164.644C612.668 167.422 614.656 169.287 617.391 169.287C619.506 169.287 620.954 168.375 621.661 166.78L620.334 165.992ZM614.426 163.608C614.633 162.261 615.691 161.08 617.328 161.08C619.052 161.08 619.96 162.282 620.046 163.608H614.426Z" fill="black"/>
<path id="path106" d="M625.406 167.215C626.216 168.5 628.078 169.287 630.09 169.287C632.388 169.287 634.112 168.231 634.112 166.531C634.112 165.08 633.014 164.354 631.624 164.064L629.095 163.505C628.101 163.277 627.624 162.946 627.624 162.282C627.624 161.536 628.538 161.08 629.699 161.08C630.98 161.08 632.101 161.618 632.618 162.551L633.779 161.598C633.032 160.438 631.601 159.733 629.699 159.733C627.601 159.733 625.987 160.81 625.987 162.406C625.987 163.94 627.17 164.624 628.722 164.956L630.94 165.433C631.911 165.639 632.451 165.971 632.451 166.655C632.451 167.567 631.497 167.961 630.072 167.961C628.618 167.961 627.124 167.297 626.464 166.075L625.406 167.215Z" fill="black"/>
<path id="path108" d="M641.9 157.826H644.238V155.608H641.9V157.826ZM647.91 169.039V167.712H644.037V159.982H638.894V161.329H642.336V167.712H638.48V169.039H647.91Z" fill="black"/>
<path id="path110" d="M657.335 162.8C657.335 163.982 656.364 164.748 655.157 164.748C653.956 164.748 652.985 163.982 652.985 162.8C652.985 161.639 653.956 160.873 655.157 160.873C656.364 160.873 657.335 161.639 657.335 162.8ZM660.691 169.618C660.691 168.169 659.449 167.195 657.375 167.195H653.686C652.795 167.195 652.422 166.883 652.422 166.427C652.422 165.951 652.755 165.682 653.128 165.495C653.709 165.744 654.393 165.867 655.157 165.867C657.438 165.867 659.076 164.687 659.076 162.8C659.076 162.241 658.932 161.744 658.639 161.308C659.179 160.769 660.3 160.396 661.15 160.562L660.961 159.049C659.616 158.862 658.496 159.733 657.978 160.582C657.272 160.044 656.3 159.733 655.157 159.733C652.858 159.733 651.221 160.935 651.221 162.8C651.221 163.754 651.634 164.541 652.358 165.059C651.531 165.391 650.951 165.971 650.951 166.759C650.951 167.526 651.451 168.106 652.358 168.354C651.14 168.48 650.227 169.267 650.227 170.22C650.227 171.982 652.548 172.769 655.22 172.769C657.875 172.769 660.691 171.878 660.691 169.618ZM651.882 169.992C651.882 169.121 652.858 168.644 653.875 168.644H656.984C658.122 168.644 659.013 168.956 659.013 169.826C659.013 171.069 657.312 171.629 655.22 171.629C653.376 171.629 651.882 171.131 651.882 169.992Z" fill="black"/>
<path id="path112" d="M665.724 164.147C665.724 162.365 666.862 161.184 668.396 161.184C669.89 161.184 670.677 162.137 670.677 163.65V169.039H672.396V163.423C672.396 161.308 671.378 159.733 668.976 159.733C667.379 159.733 666.161 160.687 665.724 161.826V159.982H664.006V169.039H665.724V164.147Z" fill="black"/>
<path id="path114" d="M688.242 166.303C689.11 168.169 691.288 169.287 693.672 169.287C696.362 169.287 698.436 167.878 698.436 165.495C698.436 163.256 696.965 162.365 695.057 161.908L692.759 161.37C691.408 161.059 690.541 160.644 690.541 159.423C690.541 158.012 691.598 157.225 693.196 157.225C694.937 157.225 696.241 158.199 696.839 159.567L697.999 158.303C697.195 156.831 695.534 155.733 693.196 155.733C690.621 155.733 688.84 157.287 688.84 159.505C688.84 161.557 690.248 162.531 691.972 162.925L694.563 163.546C695.948 163.878 696.758 164.354 696.758 165.536C696.758 167.049 695.431 167.795 693.672 167.795C691.885 167.795 690.144 166.821 689.34 164.935L688.242 166.303Z" fill="black"/>
<path id="path116" d="M705.292 169.847C704.855 170.862 704.315 171.38 703.614 171.38C702.844 171.38 702.47 170.8 702.47 169.888L701.062 170.655C701.229 171.837 702.103 172.769 703.551 172.769C705.315 172.769 706.286 171.38 707.033 169.639L711.096 159.982H709.418L706.533 167.029H706.453L703.24 159.982H701.333L705.642 169.018L705.292 169.847Z" fill="black"/>
<path id="path118" d="M714.303 167.215C715.113 168.5 716.975 169.287 718.986 169.287C721.285 169.287 723.008 168.231 723.008 166.531C723.008 165.08 721.911 164.354 720.52 164.064L717.992 163.505C716.998 163.277 716.521 162.946 716.521 162.282C716.521 161.536 717.435 161.08 718.595 161.08C719.877 161.08 720.997 161.618 721.514 162.551L722.675 161.598C721.928 160.438 720.497 159.733 718.595 159.733C716.498 159.733 714.883 160.81 714.883 162.406C714.883 163.94 716.067 164.624 717.618 164.956L719.836 165.433C720.808 165.639 721.348 165.971 721.348 166.655C721.348 167.567 720.394 167.961 718.969 167.961C717.515 167.961 716.021 167.297 715.36 166.075L714.303 167.215Z" fill="black"/>
<path id="path120" d="M726.049 160.459V161.744H728.991V165.391C728.991 167.961 730.818 169.287 733.077 169.287C734.921 169.287 736.513 168.147 737.036 166.862L736.122 165.557C735.479 167.049 734.507 167.795 733.157 167.795C731.893 167.795 730.669 166.966 730.669 165.246V161.744H735.749V160.459H730.669V156.956L728.991 157.474V160.459H726.049Z" fill="black"/>
<path id="path122" d="M747.328 165.992C746.834 167.277 745.96 167.94 744.449 167.94C742.771 167.94 741.363 166.697 741.363 164.728H748.695V164.189C748.695 161.846 747.247 159.733 744.322 159.733C741.65 159.733 739.662 161.785 739.662 164.644C739.662 167.422 741.65 169.287 744.386 169.287C746.5 169.287 747.948 168.375 748.655 166.78L747.328 165.992ZM741.421 163.608C741.627 162.261 742.685 161.08 744.322 161.08C746.046 161.08 746.954 162.282 747.04 163.608H741.421Z" fill="black"/>
<path id="path124" d="M753.436 163.982C753.436 162.344 753.976 161.142 754.97 161.142C755.987 161.142 756.234 161.951 756.234 163.008V169.039H757.809V163.982C757.809 162.344 758.372 161.142 759.343 161.142C760.36 161.142 760.607 161.951 760.607 163.008V169.039H762.182V162.303C762.182 160.769 761.377 159.733 760.113 159.733C758.866 159.733 758.039 160.687 757.746 161.805C757.602 160.541 756.855 159.733 755.74 159.733C754.453 159.733 753.706 160.728 753.436 161.867V159.982H751.861V169.039H753.436V163.982Z" fill="black"/>
</g>
<g id="word_4">
<path id="path126" d="M524.068 399.605C524.936 401.471 527.114 402.589 529.499 402.589C532.188 402.589 534.262 401.18 534.262 398.797C534.262 396.558 532.791 395.667 530.884 395.21L528.585 394.672C527.235 394.361 526.367 393.946 526.367 392.725C526.367 391.314 527.424 390.527 529.022 390.527C530.763 390.527 532.067 391.501 532.665 392.869L533.826 391.605C533.021 390.133 531.36 389.035 529.022 389.035C526.447 389.035 524.666 390.589 524.666 392.807C524.666 394.859 526.074 395.833 527.798 396.227L530.389 396.848C531.774 397.18 532.584 397.656 532.584 398.838C532.584 400.351 531.257 401.097 529.499 401.097C527.712 401.097 525.97 400.123 525.166 398.237L524.068 399.605Z" fill="black"/>
<path id="path128" d="M539.648 399.335L541.492 397.843L545.411 402.341H547.503L542.757 396.869L547.296 393.284H545.055L539.648 397.677V389.284H537.93V402.341H539.648V399.335Z" fill="black"/>
<path id="path130" d="M557.756 399.294C557.261 400.579 556.388 401.242 554.877 401.242C553.199 401.242 551.791 399.999 551.791 398.03H559.123V397.491C559.123 395.148 557.675 393.035 554.75 393.035C552.078 393.035 550.09 395.087 550.09 397.946C550.09 400.724 552.078 402.589 554.813 402.589C556.928 402.589 558.376 401.677 559.083 400.082L557.756 399.294ZM551.848 396.91C552.055 395.563 553.112 394.382 554.75 394.382C556.474 394.382 557.382 395.584 557.468 396.91H551.848Z" fill="black"/>
<path id="path132" d="M561.875 393.761V395.046H564.817V398.693C564.817 401.263 566.644 402.589 568.903 402.589C570.747 402.589 572.339 401.449 572.862 400.164L571.948 398.859C571.305 400.351 570.334 401.097 568.983 401.097C567.719 401.097 566.495 400.268 566.495 398.548V395.046H571.575V393.761H566.495V390.258L564.817 390.776V393.761H561.875Z" fill="black"/>
<path id="path134" d="M583.091 399.169C582.74 400.33 581.873 401.18 580.459 401.18C578.701 401.18 577.5 399.895 577.5 397.822C577.5 395.729 578.701 394.444 580.505 394.444C581.809 394.444 582.614 395.253 582.987 396.31L584.418 395.481C583.821 394.071 582.533 393.035 580.482 393.035C577.643 393.035 575.695 395.025 575.695 397.822C575.695 400.641 577.643 402.589 580.419 402.589C582.677 402.589 584.005 401.367 584.522 399.874L583.091 399.169Z" fill="black"/>
<path id="path136" d="M590.468 397.449C590.468 395.667 591.583 394.486 593.117 394.486C594.611 394.486 595.398 395.439 595.398 396.952V402.341H597.117V396.725C597.117 394.61 596.1 393.035 593.721 393.035C592.123 393.035 590.882 393.989 590.468 395.128V389.284H588.744V402.341H590.468V397.449Z" fill="black"/>
</g>
<g id="word_5">
<path id="path138" d="M653.576 402.341V396.433H658.799V394.88H653.576V390.817H660.517V389.284H651.771V402.341H653.576Z" fill="black"/>
<path id="path140" d="M667.644 391.128H669.982V388.91H667.644V391.128ZM673.654 402.341V401.014H669.781V393.284H664.638V394.631H668.08V401.014H664.225V402.341H673.654Z" fill="black"/>
<path id="path142" d="M683.077 396.102C683.077 397.284 682.106 398.05 680.899 398.05C679.698 398.05 678.727 397.284 678.727 396.102C678.727 394.941 679.698 394.174 680.899 394.174C682.106 394.174 683.077 394.941 683.077 396.102ZM686.433 402.92C686.433 401.471 685.192 400.497 683.117 400.497H679.428C678.537 400.497 678.164 400.184 678.164 399.729C678.164 399.253 678.497 398.984 678.871 398.797C679.451 399.046 680.135 399.169 680.899 399.169C683.18 399.169 684.818 397.989 684.818 396.102C684.818 395.543 684.674 395.046 684.381 394.61C684.922 394.071 686.042 393.697 686.893 393.863L686.703 392.351C685.358 392.164 684.238 393.035 683.721 393.884C683.014 393.346 682.043 393.035 680.899 393.035C678.601 393.035 676.963 394.237 676.963 396.102C676.963 397.056 677.377 397.843 678.101 398.361C677.273 398.693 676.693 399.273 676.693 400.061C676.693 400.828 677.193 401.408 678.101 401.656C676.882 401.781 675.969 402.569 675.969 403.522C675.969 405.284 678.29 406.071 680.962 406.071C683.617 406.071 686.433 405.18 686.433 402.92ZM677.624 403.294C677.624 402.423 678.601 401.946 679.618 401.946H682.726C683.864 401.946 684.755 402.258 684.755 403.128C684.755 404.371 683.054 404.931 680.962 404.931C679.118 404.931 677.624 404.433 677.624 403.294Z" fill="black"/>
<path id="path144" d="M690.283 397.284C690.283 395.646 690.824 394.444 691.818 394.444C692.835 394.444 693.082 395.253 693.082 396.31V402.341H694.656V397.284C694.656 395.646 695.22 394.444 696.191 394.444C697.208 394.444 697.455 395.253 697.455 396.31V402.341H699.029V395.605C699.029 394.071 698.225 393.035 696.961 393.035C695.714 393.035 694.886 393.989 694.593 395.107C694.45 393.843 693.703 393.035 692.588 393.035C691.301 393.035 690.554 394.03 690.283 395.169V393.284H688.709V402.341H690.283V397.284Z" fill="black"/>
<path id="path146" d="M703.793 396.102C704.08 395.19 705.016 394.403 706.447 394.403C707.752 394.403 708.206 395.066 708.206 395.687V396.454L705.43 397.097C703.316 397.574 701.885 398.278 701.885 399.916C701.885 401.512 703.086 402.527 704.764 402.527C706.424 402.527 707.769 401.677 708.229 400.537C708.309 401.656 709.263 402.548 710.464 402.548C710.981 402.548 711.458 402.403 711.958 402.05L711.855 400.765C711.585 401.014 711.171 401.18 710.797 401.18C710.32 401.18 709.82 400.89 709.82 400.164V395.75C709.82 393.926 708.539 393.035 706.488 393.035C704.35 393.035 702.879 394.112 702.258 395.543L703.793 396.102ZM708.206 398.693C708.206 400.02 706.775 401.222 705.183 401.222C704.143 401.222 703.609 400.599 703.609 399.791C703.609 398.797 704.476 398.444 705.844 398.112L708.206 397.553V398.693Z" fill="black"/>
</g>
<path id="path148" d="M779.031 409.936H822.308V381.778H779.031V409.936Z" fill="#FF644E"/>
<g id="g150">
<g id="g152">
<path id="path158" d="M788.747 391.335H787.15L785.242 399.978H785.139L783.938 389.284H782.156L783.834 402.341H785.972L787.874 393.656H788L789.868 402.341H792L793.701 389.284H792.023L790.822 400.02H790.695L788.747 391.335Z" fill="white"/>
<path id="path160" d="M803.642 399.294C803.148 400.579 802.275 401.243 800.763 401.243C799.085 401.243 797.678 399.999 797.678 398.03H805.01V397.491C805.01 395.149 803.562 393.035 800.637 393.035C797.965 393.035 795.977 395.087 795.977 397.946C795.977 400.724 797.965 402.589 800.7 402.589C802.815 402.589 804.263 401.677 804.97 400.082L803.642 399.294ZM797.735 396.91C797.942 395.563 798.999 394.382 800.637 394.382C802.361 394.382 803.269 395.584 803.355 396.91H797.735Z" fill="white"/>
<path id="path162" d="M810.893 400.413C811.347 401.656 812.484 402.589 814.168 402.589C816.88 402.589 818.478 400.476 818.478 397.822C818.478 395.149 816.88 393.035 814.185 393.035C812.485 393.035 811.387 394.03 810.933 395.253V389.284H809.215V402.341H810.479L810.893 400.413ZM810.87 397.615C810.87 395.646 812.174 394.382 813.749 394.382C815.593 394.382 816.697 395.75 816.697 397.822C816.697 399.895 815.593 401.263 813.749 401.263C812.174 401.263 810.87 399.999 810.87 398.009V397.615Z" fill="white"/>
</g>
</g>
<g id="word_6">
<path id="path170" d="M350.699 56.5284C352.212 56.3003 353.497 55.2435 353.497 53.7305C353.497 51.6578 352.169 50.2488 348.958 50.2488H344.336V63.3057H349.186C352.233 63.3057 353.869 61.9794 353.869 59.7205C353.869 57.8547 352.398 56.7772 350.699 56.5284ZM346.097 51.7411H349.04C350.905 51.7411 351.714 52.5697 351.714 53.8339C351.714 55.0981 350.905 55.8854 349.04 55.8854H346.097V51.7411ZM349.144 57.2749C351.092 57.2749 352.108 58.1242 352.108 59.5751C352.108 60.9847 351.092 61.7926 349.144 61.7926H346.097V57.2749H349.144Z" fill="black"/>
<path id="path172" d="M362.426 55.4924C363.898 55.4924 364.581 56.3623 364.581 57.5645C364.581 58 364.54 58.2489 364.478 58.4138L366.073 57.9587C366.136 57.7926 366.157 57.5231 366.157 57.1496C366.157 55.5544 365.037 54 362.965 54C360.975 54 359.773 55.409 359.338 56.86V54.2488H357.617V63.3057H359.338V59.451C359.338 57.357 360.727 55.4924 362.426 55.4924Z" fill="black"/>
<path id="path174" d="M371.539 57.0674C371.829 56.1549 372.762 55.3676 374.192 55.3676C375.498 55.3676 375.954 56.0313 375.954 56.6525V57.419L373.177 58.062C371.062 58.539 369.633 59.2435 369.633 60.8806C369.633 62.477 370.835 63.4924 372.513 63.4924C374.171 63.4924 375.518 62.6419 375.975 61.5024C376.057 62.6212 377.011 63.5131 378.213 63.5131C378.731 63.5131 379.207 63.3677 379.705 63.0154L379.602 61.7305C379.333 61.9793 378.918 62.1448 378.544 62.1448C378.067 62.1448 377.57 61.8547 377.57 61.1289V56.7151C377.57 54.8906 376.285 53.9999 374.233 53.9999C372.099 53.9999 370.628 55.0774 370.005 56.5077L371.539 57.0674ZM375.954 59.6578C375.954 60.9846 374.524 62.1868 372.928 62.1868C371.892 62.1868 371.353 61.5644 371.353 60.7565C371.353 59.7618 372.223 59.409 373.592 59.0774L375.954 58.5183V59.6578Z" fill="black"/>
<path id="path176" d="M384.611 58.4138C384.611 56.6319 385.751 55.4509 387.285 55.4509C388.777 55.4509 389.564 56.4037 389.564 57.9167V63.3057H391.285V57.6897C391.285 55.5751 390.268 54 387.865 54C386.268 54 385.047 54.9539 384.611 56.0929V54.2488H382.891V63.3057H384.611V58.4138Z" fill="black"/>
<path id="path178" d="M402.18 58.974C402.18 60.964 400.874 62.2282 399.3 62.2282C397.455 62.2282 396.357 60.86 396.357 58.7873C396.357 56.7151 397.455 55.3469 399.3 55.3469C400.874 55.3469 402.18 56.6111 402.18 58.5804V58.974ZM402.118 63.3056H403.838V50.2488H402.118V56.2181C401.662 54.9947 400.564 54 398.864 54C396.17 54 394.574 56.1135 394.574 58.7873C394.574 61.4409 396.17 63.5544 398.864 63.5544C400.564 63.5544 401.662 62.5798 402.118 61.357V63.3056Z" fill="black"/>
<path id="path180" d="M419.828 60.5698C420.699 62.4356 422.875 63.5544 425.258 63.5544C427.953 63.5544 430.025 62.1449 430.025 59.7618C430.025 57.5231 428.553 56.6318 426.647 56.1755L424.346 55.6371C423 55.3262 422.13 54.9114 422.13 53.6897C422.13 52.2795 423.186 51.4923 424.781 51.4923C426.523 51.4923 427.828 52.4663 428.43 53.8339L429.59 52.5697C428.782 51.0981 427.123 50 424.781 50C422.212 50 420.43 51.5543 420.43 53.7718C420.43 55.8239 421.838 56.7979 423.559 57.1921L426.15 57.8133C427.538 58.1448 428.346 58.6212 428.346 59.8032C428.346 61.3156 427.02 62.0621 425.258 62.0621C423.476 62.0621 421.735 61.0881 420.927 59.2021L419.828 60.5698Z" fill="black"/>
<path id="path182" d="M436.881 64.1135C436.445 65.1289 435.907 65.6472 435.201 65.6472C434.435 65.6472 434.061 65.0675 434.061 64.1549L432.652 64.9215C432.818 66.1035 433.688 67.0361 435.139 67.0361C436.901 67.0361 437.875 65.6473 438.622 63.9061L442.684 54.2488H441.005L438.124 61.2955H438.041L434.829 54.2488H432.922L437.233 63.2849L436.881 64.1135Z" fill="black"/>
<path id="path184" d="M445.891 61.4823C446.701 62.7666 448.563 63.5544 450.574 63.5544C452.872 63.5544 454.596 62.4977 454.596 60.7979C454.596 59.347 453.499 58.6212 452.108 58.3316L449.58 57.7719C448.586 57.5438 448.109 57.2128 448.109 56.5491C448.109 55.8032 449.022 55.3469 450.183 55.3469C451.465 55.3469 452.585 55.8854 453.102 56.8186L454.263 55.8652C453.516 54.705 452.085 54 450.183 54C448.086 54 446.471 55.0774 446.471 56.6732C446.471 58.2075 447.655 58.8907 449.206 59.2228L451.424 59.6998C452.395 59.9061 452.936 60.2382 452.936 60.922C452.936 61.834 451.982 62.2282 450.557 62.2282C449.103 62.2282 447.609 61.5645 446.948 60.3416L445.891 61.4823Z" fill="black"/>
<path id="path186" d="M457.637 54.7258V56.0106H460.579V59.6578C460.579 62.2282 462.406 63.5544 464.664 63.5544C466.509 63.5544 468.101 62.4138 468.624 61.1289L467.71 59.8239C467.066 61.3157 466.095 62.0621 464.745 62.0621C463.481 62.0621 462.257 61.2335 462.257 59.513V56.0106H467.337V54.7258H462.257V51.2228L460.579 51.7411V54.7258H457.637Z" fill="black"/>
<path id="path188" d="M478.916 60.2589C478.421 61.5438 477.548 62.2075 476.037 62.2075C474.359 62.2075 472.951 60.964 472.951 58.9947H480.283V58.4563C480.283 56.1135 478.835 54 475.91 54C473.238 54 471.25 56.052 471.25 58.9114C471.25 61.6892 473.238 63.5544 475.974 63.5544C478.088 63.5544 479.536 62.6419 480.243 61.0468L478.916 60.2589ZM473.008 57.8753C473.215 56.5284 474.273 55.3469 475.91 55.3469C477.634 55.3469 478.542 56.5491 478.628 57.8753H473.008Z" fill="black"/>
<path id="path190" d="M485.024 58.2489C485.024 56.6112 485.564 55.409 486.558 55.409C487.575 55.409 487.822 56.2181 487.822 57.2749V63.3057H489.397V58.2489C489.397 56.6112 489.96 55.409 490.931 55.409C491.948 55.409 492.195 56.2181 492.195 57.2749V63.3057H493.77V56.5698C493.77 55.0361 492.965 54 491.701 54C490.454 54 489.627 54.9539 489.333 56.0722C489.19 54.808 488.443 54 487.328 54C486.041 54 485.294 54.9947 485.024 56.1342V54.2488H483.449V63.3057H485.024V58.2489Z" fill="black"/>
</g>
<g class="strokes">
<path id="path96" d="M56.2246 381.78C120.725 330.399 159.224 262.038 171.723 176.696" stroke="black" stroke-width="2"/>
<path id="path98" d="M173.531 381.778V176.696" stroke="black" stroke-width="2"/>
<path id="path100" d="M275.726 381.779C222.186 328.452 188.798 260.091 175.559 176.695" stroke="black" stroke-width="2"/>
<path id="path164" d="M574.885 381.779C624.051 328.042 658.379 259.682 677.865 176.696" stroke="black" stroke-width="2"/>
<path id="path166" d="M680.996 381.778V176.696" stroke="black" stroke-width="2"/>
<path id="path168" d="M787.684 381.778C737.495 324.972 702.977 256.611 684.129 176.696" stroke="black" stroke-width="2"/>
<path id="path192" d="M667.827 148.538C628.982 110.615 572.294 83.8633 497.775 68.2803" stroke="black" stroke-width="2" stroke-dasharray="12 12"/>
<path id="path194" d="M183.814 148.538C214.979 110.634 267.102 83.8937 340.185 68.3165" stroke="black" stroke-width="2" stroke-dasharray="12 12"/>
</g>
</g>
</g>
</g>
</svg>
