<svg width="178" height="142" viewBox="0 0 178 142" fill="none" xmlns="http://www.w3.org/2000/svg">
  <style>
    @media (prefers-color-scheme: dark) {
      .text {
        fill: #fff;
    }
  }

.text {
  fill: #000;
}
    </style>
<path opacity="0.5" d="M35 69.5H41L38 73.5L35 69.5Z" fill="#888"/>
<rect x="50" y="66.5" width="8" height="2" fill="#888888"/>
<rect x="50" y="70.5" width="10" height="2" fill="#888888"/>
<rect x="50" y="74.5" width="6" height="2" fill="#888888"/>
<path d="M70.9375 68V76H69.9688V68H70.9375ZM73.6768 72.3906V76H72.7549V70H73.6455V70.9375H73.7236C73.8643 70.6328 74.0778 70.388 74.3643 70.2031C74.6507 70.0156 75.0205 69.9219 75.4736 69.9219C75.8799 69.9219 76.2354 70.0052 76.54 70.1719C76.8447 70.3359 77.0817 70.5859 77.251 70.9219C77.4202 71.2552 77.5049 71.6771 77.5049 72.1875V76H76.583V72.25C76.583 71.7786 76.4606 71.4115 76.2158 71.1484C75.971 70.8828 75.6351 70.75 75.208 70.75C74.9137 70.75 74.6507 70.8138 74.4189 70.9414C74.1898 71.069 74.0088 71.2552 73.876 71.5C73.7432 71.7448 73.6768 72.0417 73.6768 72.3906ZM81.8613 70V70.7812H78.627V70H81.8613ZM79.5957 76V69.1719C79.5957 68.8281 79.6764 68.5417 79.8379 68.3125C79.9993 68.0833 80.209 67.9115 80.4668 67.7969C80.7246 67.6823 80.9967 67.625 81.2832 67.625C81.5098 67.625 81.6947 67.6432 81.8379 67.6797C81.9811 67.7161 82.0879 67.75 82.1582 67.7812L81.8926 68.5781C81.8457 68.5625 81.7806 68.543 81.6973 68.5195C81.6165 68.4961 81.5098 68.4844 81.377 68.4844C81.0723 68.4844 80.8522 68.5612 80.7168 68.7148C80.584 68.8685 80.5176 69.0937 80.5176 69.3906V76H79.5957ZM85.3438 76.125C84.8021 76.125 84.3268 75.9961 83.918 75.7383C83.5117 75.4805 83.194 75.1198 82.9648 74.6562C82.7383 74.1927 82.625 73.651 82.625 73.0312C82.625 72.4062 82.7383 71.8607 82.9648 71.3945C83.194 70.9284 83.5117 70.5664 83.918 70.3086C84.3268 70.0508 84.8021 69.9219 85.3438 69.9219C85.8854 69.9219 86.3594 70.0508 86.7656 70.3086C87.1745 70.5664 87.4922 70.9284 87.7188 71.3945C87.9479 71.8607 88.0625 72.4062 88.0625 73.0312C88.0625 73.651 87.9479 74.1927 87.7188 74.6562C87.4922 75.1198 87.1745 75.4805 86.7656 75.7383C86.3594 75.9961 85.8854 76.125 85.3438 76.125ZM85.3438 75.2969C85.7552 75.2969 86.0937 75.1914 86.3594 74.9805C86.625 74.7695 86.8216 74.4922 86.9492 74.1484C87.0768 73.8047 87.1406 73.4323 87.1406 73.0312C87.1406 72.6302 87.0768 72.2565 86.9492 71.9102C86.8216 71.5638 86.625 71.2839 86.3594 71.0703C86.0937 70.8568 85.7552 70.75 85.3438 70.75C84.9323 70.75 84.5938 70.8568 84.3281 71.0703C84.0625 71.2839 83.8659 71.5638 83.7383 71.9102C83.6107 72.2565 83.5469 72.6302 83.5469 73.0312C83.5469 73.4323 83.6107 73.8047 83.7383 74.1484C83.8659 74.4922 84.0625 74.7695 84.3281 74.9805C84.5938 75.1914 84.9323 75.2969 85.3438 75.2969ZM89.4697 76V70H90.3604V70.9062H90.4229C90.5322 70.6094 90.7301 70.3685 91.0166 70.1836C91.3031 69.9987 91.626 69.9062 91.9854 69.9062C92.0531 69.9062 92.1377 69.9076 92.2393 69.9102C92.3408 69.9128 92.4176 69.9167 92.4697 69.9219V70.8594C92.4385 70.8516 92.3669 70.8398 92.2549 70.8242C92.1455 70.806 92.0296 70.7969 91.9072 70.7969C91.6156 70.7969 91.3551 70.8581 91.126 70.9805C90.8994 71.1003 90.7197 71.2669 90.5869 71.4805C90.4567 71.6914 90.3916 71.9323 90.3916 72.2031V76H89.4697ZM93.5625 76V70H94.4531V70.9375H94.5313C94.6563 70.6172 94.8581 70.3685 95.1367 70.1914C95.4154 70.0117 95.75 69.9219 96.1406 69.9219C96.5365 69.9219 96.8659 70.0117 97.1289 70.1914C97.3945 70.3685 97.6016 70.6172 97.75 70.9375H97.8125C97.9661 70.6276 98.1966 70.3815 98.5039 70.1992C98.8112 70.0143 99.1797 69.9219 99.6094 69.9219C100.146 69.9219 100.585 70.0898 100.926 70.4258C101.267 70.7591 101.438 71.2786 101.438 71.9844V76H100.516V71.9844C100.516 71.5417 100.395 71.2253 100.152 71.0352C99.9102 70.8451 99.625 70.75 99.2969 70.75C98.875 70.75 98.5482 70.8776 98.3164 71.1328C98.0846 71.3854 97.9688 71.7057 97.9688 72.0937V76H97.0313V71.8906C97.0313 71.5495 96.9206 71.2747 96.6992 71.0664C96.4779 70.8555 96.1927 70.75 95.8437 70.75C95.6042 70.75 95.3802 70.8138 95.1719 70.9414C94.9661 71.069 94.7995 71.2461 94.6719 71.4727C94.5469 71.6966 94.4844 71.9557 94.4844 72.25V76H93.5625ZM104.889 76.1406C104.508 76.1406 104.163 76.069 103.854 75.9258C103.544 75.7799 103.298 75.5703 103.115 75.2969C102.933 75.0208 102.842 74.6875 102.842 74.2969C102.842 73.9531 102.91 73.6745 103.045 73.4609C103.18 73.2448 103.361 73.0755 103.588 72.9531C103.814 72.8307 104.064 72.7396 104.338 72.6797C104.614 72.6172 104.891 72.5677 105.17 72.5313C105.535 72.4844 105.83 72.4492 106.057 72.4258C106.286 72.3997 106.452 72.3568 106.557 72.2969C106.663 72.237 106.717 72.1328 106.717 71.9844V71.9531C106.717 71.5677 106.611 71.2682 106.4 71.0547C106.192 70.8411 105.876 70.7344 105.451 70.7344C105.011 70.7344 104.666 70.8307 104.416 71.0234C104.166 71.2161 103.99 71.4219 103.889 71.6406L103.014 71.3281C103.17 70.9635 103.378 70.6797 103.639 70.4766C103.902 70.2708 104.188 70.1276 104.498 70.0469C104.811 69.9635 105.118 69.9219 105.42 69.9219C105.613 69.9219 105.834 69.9453 106.084 69.9922C106.337 70.0365 106.58 70.1289 106.814 70.2695C107.051 70.4102 107.248 70.6224 107.404 70.9062C107.561 71.1901 107.639 71.5703 107.639 72.0469V76H106.717V75.1875H106.67C106.607 75.3177 106.503 75.457 106.357 75.6055C106.212 75.7539 106.018 75.8802 105.775 75.9844C105.533 76.0885 105.238 76.1406 104.889 76.1406ZM105.029 75.3125C105.394 75.3125 105.701 75.2409 105.951 75.0977C106.204 74.9544 106.394 74.7695 106.521 74.543C106.652 74.3164 106.717 74.0781 106.717 73.8281V72.9844C106.678 73.0312 106.592 73.0742 106.459 73.1133C106.329 73.1497 106.178 73.1823 106.006 73.2109C105.837 73.237 105.671 73.2604 105.51 73.2812C105.351 73.2995 105.222 73.3151 105.123 73.3281C104.883 73.3594 104.66 73.4102 104.451 73.4805C104.245 73.5482 104.079 73.651 103.951 73.7891C103.826 73.9245 103.764 74.1094 103.764 74.3437C103.764 74.6641 103.882 74.9062 104.119 75.0703C104.359 75.2318 104.662 75.3125 105.029 75.3125ZM111.931 70V70.7812H108.821V70H111.931ZM109.728 68.5625H110.649V74.2812C110.649 74.5417 110.687 74.737 110.763 74.8672C110.841 74.9948 110.94 75.0807 111.06 75.125C111.182 75.1667 111.311 75.1875 111.446 75.1875C111.548 75.1875 111.631 75.1823 111.696 75.1719C111.761 75.1589 111.813 75.1484 111.853 75.1406L112.04 75.9687C111.978 75.9922 111.89 76.0156 111.778 76.0391C111.666 76.0651 111.524 76.0781 111.353 76.0781C111.092 76.0781 110.837 76.0221 110.587 75.9102C110.34 75.7982 110.134 75.6276 109.97 75.3984C109.808 75.1693 109.728 74.8802 109.728 74.5312V68.5625ZM113.317 76V70H114.239V76H113.317ZM113.786 69C113.606 69 113.451 68.9388 113.321 68.8164C113.194 68.694 113.13 68.5469 113.13 68.375C113.13 68.2031 113.194 68.056 113.321 67.9336C113.451 67.8112 113.606 67.75 113.786 67.75C113.966 67.75 114.119 67.8112 114.247 67.9336C114.377 68.056 114.442 68.2031 114.442 68.375C114.442 68.5469 114.377 68.694 114.247 68.8164C114.119 68.9388 113.966 69 113.786 69ZM118.365 76.125C117.824 76.125 117.348 75.9961 116.939 75.7383C116.533 75.4805 116.215 75.1198 115.986 74.6562C115.76 74.1927 115.646 73.651 115.646 73.0312C115.646 72.4062 115.76 71.8607 115.986 71.3945C116.215 70.9284 116.533 70.5664 116.939 70.3086C117.348 70.0508 117.824 69.9219 118.365 69.9219C118.907 69.9219 119.381 70.0508 119.787 70.3086C120.196 70.5664 120.514 70.9284 120.74 71.3945C120.969 71.8607 121.084 72.4062 121.084 73.0312C121.084 73.651 120.969 74.1927 120.74 74.6562C120.514 75.1198 120.196 75.4805 119.787 75.7383C119.381 75.9961 118.907 76.125 118.365 76.125ZM118.365 75.2969C118.777 75.2969 119.115 75.1914 119.381 74.9805C119.646 74.7695 119.843 74.4922 119.971 74.1484C120.098 73.8047 120.162 73.4323 120.162 73.0312C120.162 72.6302 120.098 72.2565 119.971 71.9102C119.843 71.5638 119.646 71.2839 119.381 71.0703C119.115 70.8568 118.777 70.75 118.365 70.75C117.954 70.75 117.615 70.8568 117.35 71.0703C117.084 71.2839 116.887 71.5638 116.76 71.9102C116.632 72.2565 116.568 72.6302 116.568 73.0312C116.568 73.4323 116.632 73.8047 116.76 74.1484C116.887 74.4922 117.084 74.7695 117.35 74.9805C117.615 75.1914 117.954 75.2969 118.365 75.2969ZM123.413 72.3906V76H122.491V70H123.382V70.9375H123.46C123.601 70.6328 123.814 70.388 124.101 70.2031C124.387 70.0156 124.757 69.9219 125.21 69.9219C125.616 69.9219 125.972 70.0052 126.276 70.1719C126.581 70.3359 126.818 70.5859 126.987 70.9219C127.157 71.2552 127.241 71.6771 127.241 72.1875V76H126.319V72.25C126.319 71.7786 126.197 71.4115 125.952 71.1484C125.707 70.8828 125.371 70.75 124.944 70.75C124.65 70.75 124.387 70.8138 124.155 70.9414C123.926 71.069 123.745 71.2552 123.612 71.5C123.479 71.7448 123.413 72.0417 123.413 72.3906Z" class="text"/>
<circle cx="55" cy="48.5" r="4.5" stroke="#888888"/>
<path d="M69.9688 53V45H72.6719C73.2995 45 73.8125 45.1133 74.2109 45.3398C74.612 45.5638 74.9089 45.8672 75.1016 46.25C75.2943 46.6328 75.3906 47.0599 75.3906 47.5312C75.3906 48.0026 75.2943 48.431 75.1016 48.8164C74.9115 49.2018 74.6172 49.5091 74.2188 49.7383C73.8203 49.9648 73.3099 50.0781 72.6875 50.0781H70.75V49.2188H72.6563C73.0859 49.2188 73.431 49.1445 73.6914 48.9961C73.9518 48.8477 74.1406 48.6471 74.2578 48.3945C74.3776 48.1393 74.4375 47.8516 74.4375 47.5312C74.4375 47.2109 74.3776 46.9245 74.2578 46.6719C74.1406 46.4193 73.9505 46.2214 73.6875 46.0781C73.4245 45.9323 73.0755 45.8594 72.6406 45.8594H70.9375V53H69.9688ZM76.8262 53V47H77.7168V47.9062H77.7793C77.8887 47.6094 78.0866 47.3685 78.373 47.1836C78.6595 46.9987 78.9824 46.9062 79.3418 46.9062C79.4095 46.9062 79.4941 46.9076 79.5957 46.9102C79.6973 46.9128 79.7741 46.9167 79.8262 46.9219V47.8594C79.7949 47.8516 79.7233 47.8398 79.6113 47.8242C79.502 47.806 79.3861 47.7969 79.2637 47.7969C78.972 47.7969 78.7116 47.8581 78.4824 47.9805C78.2559 48.1003 78.0762 48.2669 77.9434 48.4805C77.8132 48.6914 77.748 48.9323 77.748 49.2031V53H76.8262ZM83.1738 53.125C82.6322 53.125 82.1569 52.9961 81.748 52.7383C81.3418 52.4805 81.0241 52.1198 80.7949 51.6562C80.5684 51.1927 80.4551 50.651 80.4551 50.0312C80.4551 49.4062 80.5684 48.8607 80.7949 48.3945C81.0241 47.9284 81.3418 47.5664 81.748 47.3086C82.1569 47.0508 82.6322 46.9219 83.1738 46.9219C83.7155 46.9219 84.1895 47.0508 84.5957 47.3086C85.0046 47.5664 85.3223 47.9284 85.5488 48.3945C85.778 48.8607 85.8926 49.4062 85.8926 50.0312C85.8926 50.651 85.778 51.1927 85.5488 51.6562C85.3223 52.1198 85.0046 52.4805 84.5957 52.7383C84.1895 52.9961 83.7155 53.125 83.1738 53.125ZM83.1738 52.2969C83.5853 52.2969 83.9238 52.1914 84.1895 51.9805C84.4551 51.7695 84.6517 51.4922 84.7793 51.1484C84.9069 50.8047 84.9707 50.4323 84.9707 50.0312C84.9707 49.6302 84.9069 49.2565 84.7793 48.9102C84.6517 48.5638 84.4551 48.2839 84.1895 48.0703C83.9238 47.8568 83.5853 47.75 83.1738 47.75C82.7624 47.75 82.4238 47.8568 82.1582 48.0703C81.8926 48.2839 81.696 48.5638 81.5684 48.9102C81.4408 49.2565 81.377 49.6302 81.377 50.0312C81.377 50.4323 81.4408 50.8047 81.5684 51.1484C81.696 51.4922 81.8926 51.7695 82.1582 51.9805C82.4238 52.1914 82.7624 52.2969 83.1738 52.2969ZM89.9717 47V47.7812H86.7373V47H89.9717ZM87.7061 53V46.1719C87.7061 45.8281 87.7868 45.5417 87.9482 45.3125C88.1097 45.0833 88.3193 44.9115 88.5771 44.7969C88.835 44.6823 89.1071 44.625 89.3936 44.625C89.6201 44.625 89.805 44.6432 89.9482 44.6797C90.0915 44.7161 90.1982 44.75 90.2686 44.7812L90.0029 45.5781C89.9561 45.5625 89.891 45.543 89.8076 45.5195C89.7269 45.4961 89.6201 45.4844 89.4873 45.4844C89.1826 45.4844 88.9626 45.5612 88.8271 45.7148C88.6943 45.8685 88.6279 46.0937 88.6279 46.3906V53H87.7061ZM91.2637 53V47H92.1855V53H91.2637ZM91.7324 46C91.5527 46 91.3978 45.9388 91.2676 45.8164C91.14 45.694 91.0762 45.5469 91.0762 45.375C91.0762 45.2031 91.14 45.056 91.2676 44.9336C91.3978 44.8112 91.5527 44.75 91.7324 44.75C91.9121 44.75 92.0658 44.8112 92.1934 44.9336C92.3236 45.056 92.3887 45.2031 92.3887 45.375C92.3887 45.5469 92.3236 45.694 92.1934 45.8164C92.0658 45.9388 91.9121 46 91.7324 46ZM94.7959 45V53H93.874V45H94.7959ZM99 53.125C98.4219 53.125 97.9232 52.9974 97.5039 52.7422C97.0872 52.4844 96.7656 52.125 96.5391 51.6641C96.3151 51.2005 96.2031 50.6615 96.2031 50.0469C96.2031 49.4323 96.3151 48.8906 96.5391 48.4219C96.7656 47.9505 97.0807 47.5833 97.4844 47.3203C97.8906 47.0547 98.3646 46.9219 98.9062 46.9219C99.2188 46.9219 99.5273 46.974 99.832 47.0781C100.137 47.1823 100.414 47.3516 100.664 47.5859C100.914 47.8177 101.113 48.125 101.262 48.5078C101.41 48.8906 101.484 49.362 101.484 49.9219V50.3125H96.8594V49.5156H100.547C100.547 49.1771 100.479 48.875 100.344 48.6094C100.211 48.3437 100.021 48.1341 99.7734 47.9805C99.5286 47.8268 99.2396 47.75 98.9062 47.75C98.5391 47.75 98.2214 47.8411 97.9531 48.0234C97.6875 48.2031 97.4831 48.4375 97.3398 48.7266C97.1966 49.0156 97.125 49.3255 97.125 49.6562V50.1875C97.125 50.6406 97.2031 51.0247 97.3594 51.3398C97.5182 51.6523 97.7383 51.8906 98.0195 52.0547C98.3008 52.2161 98.6276 52.2969 99 52.2969C99.2422 52.2969 99.4609 52.263 99.6563 52.1953C99.8542 52.125 100.025 52.0208 100.168 51.8828C100.311 51.7422 100.422 51.5677 100.5 51.3594L101.391 51.6094C101.297 51.9115 101.139 52.1771 100.918 52.4062C100.697 52.6328 100.423 52.8099 100.098 52.9375C99.7721 53.0625 99.4063 53.125 99 53.125ZM106.105 53V45H108.809C109.436 45 109.949 45.1133 110.348 45.3398C110.749 45.5638 111.046 45.8672 111.238 46.25C111.431 46.6328 111.527 47.0599 111.527 47.5312C111.527 48.0026 111.431 48.431 111.238 48.8164C111.048 49.2018 110.754 49.5091 110.355 49.7383C109.957 49.9648 109.447 50.0781 108.824 50.0781H106.887V49.2188H108.793C109.223 49.2188 109.568 49.1445 109.828 48.9961C110.089 48.8477 110.277 48.6471 110.395 48.3945C110.514 48.1393 110.574 47.8516 110.574 47.5312C110.574 47.2109 110.514 46.9245 110.395 46.6719C110.277 46.4193 110.087 46.2214 109.824 46.0781C109.561 45.9323 109.212 45.8594 108.777 45.8594H107.074V53H106.105ZM112.963 53V47H113.885V53H112.963ZM113.432 46C113.252 46 113.097 45.9388 112.967 45.8164C112.839 45.694 112.775 45.5469 112.775 45.375C112.775 45.2031 112.839 45.056 112.967 44.9336C113.097 44.8112 113.252 44.75 113.432 44.75C113.611 44.75 113.765 44.8112 113.893 44.9336C114.023 45.056 114.088 45.2031 114.088 45.375C114.088 45.5469 114.023 45.694 113.893 45.8164C113.765 45.9388 113.611 46 113.432 46ZM118.011 53.125C117.448 53.125 116.964 52.9922 116.558 52.7266C116.151 52.4609 115.839 52.0951 115.62 51.6289C115.401 51.1628 115.292 50.6302 115.292 50.0312C115.292 49.4219 115.404 48.8841 115.628 48.418C115.854 47.9492 116.17 47.5833 116.573 47.3203C116.979 47.0547 117.453 46.9219 117.995 46.9219C118.417 46.9219 118.797 47 119.136 47.1562C119.474 47.3125 119.752 47.5312 119.968 47.8125C120.184 48.0937 120.318 48.4219 120.37 48.7969H119.448C119.378 48.5234 119.222 48.2812 118.979 48.0703C118.74 47.8568 118.417 47.75 118.011 47.75C117.651 47.75 117.336 47.8437 117.065 48.0312C116.797 48.2161 116.588 48.4779 116.437 48.8164C116.288 49.1523 116.214 49.5469 116.214 50C116.214 50.4635 116.287 50.8672 116.433 51.2109C116.581 51.5547 116.789 51.8216 117.058 52.0117C117.328 52.2018 117.646 52.2969 118.011 52.2969C118.25 52.2969 118.468 52.2552 118.663 52.1719C118.858 52.0885 119.024 51.9688 119.159 51.8125C119.295 51.6562 119.391 51.4687 119.448 51.25H120.37C120.318 51.6042 120.189 51.9232 119.983 52.207C119.78 52.4883 119.511 52.7122 119.175 52.8789C118.841 53.043 118.453 53.125 118.011 53.125ZM124.327 47V47.7812H121.218V47H124.327ZM122.124 45.5625H123.046V51.2812C123.046 51.5417 123.084 51.737 123.159 51.8672C123.237 51.9948 123.336 52.0807 123.456 52.125C123.578 52.1667 123.707 52.1875 123.843 52.1875C123.944 52.1875 124.028 52.1823 124.093 52.1719C124.158 52.1589 124.21 52.1484 124.249 52.1406L124.437 52.9687C124.374 52.9922 124.287 53.0156 124.175 53.0391C124.063 53.0651 123.921 53.0781 123.749 53.0781C123.489 53.0781 123.233 53.0221 122.983 52.9102C122.736 52.7982 122.53 52.6276 122.366 52.3984C122.205 52.1693 122.124 51.8802 122.124 51.5312V45.5625ZM129.495 50.5469V47H130.417V53H129.495V51.9844H129.433C129.292 52.2891 129.073 52.5482 128.776 52.7617C128.479 52.9727 128.104 53.0781 127.651 53.0781C127.276 53.0781 126.943 52.9961 126.651 52.832C126.36 52.6654 126.131 52.4154 125.964 52.082C125.797 51.7461 125.714 51.3229 125.714 50.8125V47H126.636V50.75C126.636 51.1875 126.758 51.5365 127.003 51.7969C127.25 52.0573 127.565 52.1875 127.948 52.1875C128.177 52.1875 128.41 52.1289 128.647 52.0117C128.887 51.8945 129.088 51.7148 129.249 51.4727C129.413 51.2305 129.495 50.9219 129.495 50.5469ZM132.105 53V47H132.996V47.9062H133.059C133.168 47.6094 133.366 47.3685 133.652 47.1836C133.939 46.9987 134.262 46.9062 134.621 46.9062C134.689 46.9062 134.773 46.9076 134.875 46.9102C134.977 46.9128 135.053 46.9167 135.105 46.9219V47.8594C135.074 47.8516 135.003 47.8398 134.891 47.8242C134.781 47.806 134.665 47.7969 134.543 47.7969C134.251 47.7969 133.991 47.8581 133.762 47.9805C133.535 48.1003 133.355 48.2669 133.223 48.4805C133.092 48.6914 133.027 48.9323 133.027 49.2031V53H132.105ZM138.531 53.125C137.953 53.125 137.454 52.9974 137.035 52.7422C136.618 52.4844 136.297 52.125 136.07 51.6641C135.846 51.2005 135.734 50.6615 135.734 50.0469C135.734 49.4323 135.846 48.8906 136.07 48.4219C136.297 47.9505 136.612 47.5833 137.016 47.3203C137.422 47.0547 137.896 46.9219 138.438 46.9219C138.75 46.9219 139.059 46.974 139.363 47.0781C139.668 47.1823 139.945 47.3516 140.195 47.5859C140.445 47.8177 140.645 48.125 140.793 48.5078C140.941 48.8906 141.016 49.362 141.016 49.9219V50.3125H136.391V49.5156H140.078C140.078 49.1771 140.01 48.875 139.875 48.6094C139.742 48.3437 139.552 48.1341 139.305 47.9805C139.06 47.8268 138.771 47.75 138.438 47.75C138.07 47.75 137.753 47.8411 137.484 48.0234C137.219 48.2031 137.014 48.4375 136.871 48.7266C136.728 49.0156 136.656 49.3255 136.656 49.6562V50.1875C136.656 50.6406 136.734 51.0247 136.891 51.3398C137.049 51.6523 137.27 51.8906 137.551 52.0547C137.832 52.2161 138.159 52.2969 138.531 52.2969C138.773 52.2969 138.992 52.263 139.188 52.1953C139.385 52.125 139.556 52.0208 139.699 51.8828C139.842 51.7422 139.953 51.5677 140.031 51.3594L140.922 51.6094C140.828 51.9115 140.671 52.1771 140.449 52.4062C140.228 52.6328 139.954 52.8099 139.629 52.9375C139.303 53.0625 138.938 53.125 138.531 53.125Z" class="text"/>
<path opacity="0.5" d="M15 23.5H21L18 27.5L15 23.5Z" fill="#888"/>
<rect x="30" y="29.5" width="8" height="2" transform="rotate(-90 30 29.5)" fill="#888888"/>
<rect x="34" y="30.5" width="10" height="2" transform="rotate(-90 34 30.5)" fill="#888888"/>
<rect x="38" y="28.5" width="6" height="2" transform="rotate(-90 38 28.5)" fill="#888888"/>
<path d="M49.9688 30V22H52.6719C53.2995 22 53.8125 22.1133 54.2109 22.3398C54.612 22.5638 54.9089 22.8672 55.1016 23.25C55.2943 23.6328 55.3906 24.0599 55.3906 24.5312C55.3906 25.0026 55.2943 25.431 55.1016 25.8164C54.9115 26.2018 54.6172 26.5091 54.2188 26.7383C53.8203 26.9648 53.3099 27.0781 52.6875 27.0781H50.75V26.2188H52.6563C53.0859 26.2188 53.431 26.1445 53.6914 25.9961C53.9518 25.8477 54.1406 25.6471 54.2578 25.3945C54.3776 25.1393 54.4375 24.8516 54.4375 24.5312C54.4375 24.2109 54.3776 23.9245 54.2578 23.6719C54.1406 23.4193 53.9505 23.2214 53.6875 23.0781C53.4245 22.9323 53.0755 22.8594 52.6406 22.8594H50.9375V30H49.9688ZM59.2773 30.125C58.6992 30.125 58.2005 29.9974 57.7812 29.7422C57.3646 29.4844 57.043 29.125 56.8164 28.6641C56.5924 28.2005 56.4805 27.6615 56.4805 27.0469C56.4805 26.4323 56.5924 25.8906 56.8164 25.4219C57.043 24.9505 57.3581 24.5833 57.7617 24.3203C58.168 24.0547 58.6419 23.9219 59.1836 23.9219C59.4961 23.9219 59.8047 23.974 60.1094 24.0781C60.4141 24.1823 60.6914 24.3516 60.9414 24.5859C61.1914 24.8177 61.3906 25.125 61.5391 25.5078C61.6875 25.8906 61.7617 26.362 61.7617 26.9219V27.3125H57.1367V26.5156H60.8242C60.8242 26.1771 60.7565 25.875 60.6211 25.6094C60.4883 25.3437 60.2982 25.1341 60.0508 24.9805C59.806 24.8268 59.5169 24.75 59.1836 24.75C58.8164 24.75 58.4987 24.8411 58.2305 25.0234C57.9648 25.2031 57.7604 25.4375 57.6172 25.7266C57.474 26.0156 57.4023 26.3255 57.4023 26.6562V27.1875C57.4023 27.6406 57.4805 28.0247 57.6367 28.3398C57.7956 28.6523 58.0156 28.8906 58.2969 29.0547C58.5781 29.2161 58.9049 29.2969 59.2773 29.2969C59.5195 29.2969 59.7383 29.263 59.9336 29.1953C60.1315 29.125 60.3021 29.0208 60.4453 28.8828C60.5885 28.7422 60.6992 28.5677 60.7773 28.3594L61.668 28.6094C61.5742 28.9115 61.4167 29.1771 61.1953 29.4062C60.974 29.6328 60.7005 29.8099 60.375 29.9375C60.0495 30.0625 59.6836 30.125 59.2773 30.125ZM63.1641 30V24H64.0547V24.9062H64.1172C64.2266 24.6094 64.4245 24.3685 64.7109 24.1836C64.9974 23.9987 65.3203 23.9062 65.6797 23.9062C65.7474 23.9062 65.832 23.9076 65.9336 23.9102C66.0352 23.9128 66.112 23.9167 66.1641 23.9219V24.8594C66.1328 24.8516 66.0612 24.8398 65.9492 24.8242C65.8398 24.806 65.724 24.7969 65.6016 24.7969C65.3099 24.7969 65.0495 24.8581 64.8203 24.9805C64.5938 25.1003 64.4141 25.2669 64.2813 25.4805C64.151 25.6914 64.0859 25.9323 64.0859 26.2031V30H63.1641ZM71.5068 25.3437L70.6787 25.5781C70.6266 25.4401 70.5498 25.306 70.4482 25.1758C70.3493 25.043 70.2139 24.9336 70.042 24.8477C69.8701 24.7617 69.6501 24.7187 69.3818 24.7187C69.0146 24.7187 68.7087 24.8034 68.4639 24.9727C68.2217 25.1393 68.1006 25.3516 68.1006 25.6094C68.1006 25.8385 68.1839 26.0195 68.3506 26.1523C68.5173 26.2852 68.7777 26.3958 69.1318 26.4844L70.0225 26.7031C70.5589 26.8333 70.9587 27.0326 71.2217 27.3008C71.4847 27.5664 71.6162 27.9089 71.6162 28.3281C71.6162 28.6719 71.5173 28.9792 71.3193 29.25C71.124 29.5208 70.8506 29.7344 70.499 29.8906C70.1475 30.0469 69.7386 30.125 69.2725 30.125C68.6605 30.125 68.154 29.9922 67.7529 29.7266C67.3519 29.4609 67.098 29.0729 66.9912 28.5625L67.8662 28.3437C67.9495 28.6667 68.1071 28.9089 68.3389 29.0703C68.5732 29.2318 68.8792 29.3125 69.2568 29.3125C69.6865 29.3125 70.0277 29.2214 70.2803 29.0391C70.5355 28.8542 70.6631 28.6328 70.6631 28.375C70.6631 28.1667 70.5902 27.9922 70.4443 27.8516C70.2985 27.7083 70.0745 27.6016 69.7725 27.5312L68.7725 27.2969C68.223 27.1667 67.8193 26.9648 67.5615 26.6914C67.3063 26.4154 67.1787 26.0703 67.1787 25.6562C67.1787 25.3177 67.2738 25.0182 67.4639 24.7578C67.6566 24.4974 67.9183 24.293 68.249 24.1445C68.5824 23.9961 68.96 23.9219 69.3818 23.9219C69.9756 23.9219 70.4417 24.0521 70.7803 24.3125C71.1214 24.5729 71.3636 24.9167 71.5068 25.3437ZM75.4414 30.125C74.8997 30.125 74.4245 29.9961 74.0156 29.7383C73.6094 29.4805 73.2917 29.1198 73.0625 28.6562C72.8359 28.1927 72.7227 27.651 72.7227 27.0312C72.7227 26.4062 72.8359 25.8607 73.0625 25.3945C73.2917 24.9284 73.6094 24.5664 74.0156 24.3086C74.4245 24.0508 74.8997 23.9219 75.4414 23.9219C75.9831 23.9219 76.457 24.0508 76.8633 24.3086C77.2721 24.5664 77.5898 24.9284 77.8164 25.3945C78.0456 25.8607 78.1602 26.4062 78.1602 27.0312C78.1602 27.651 78.0456 28.1927 77.8164 28.6562C77.5898 29.1198 77.2721 29.4805 76.8633 29.7383C76.457 29.9961 75.9831 30.125 75.4414 30.125ZM75.4414 29.2969C75.8529 29.2969 76.1914 29.1914 76.457 28.9805C76.7227 28.7695 76.9193 28.4922 77.0469 28.1484C77.1745 27.8047 77.2383 27.4323 77.2383 27.0312C77.2383 26.6302 77.1745 26.2565 77.0469 25.9102C76.9193 25.5638 76.7227 25.2839 76.457 25.0703C76.1914 24.8568 75.8529 24.75 75.4414 24.75C75.0299 24.75 74.6914 24.8568 74.4258 25.0703C74.1602 25.2839 73.9635 25.5638 73.8359 25.9102C73.7083 26.2565 73.6445 26.6302 73.6445 27.0312C73.6445 27.4323 73.7083 27.8047 73.8359 28.1484C73.9635 28.4922 74.1602 28.7695 74.4258 28.9805C74.6914 29.1914 75.0299 29.2969 75.4414 29.2969ZM80.4893 26.3906V30H79.5674V24H80.458V24.9375H80.5361C80.6768 24.6328 80.8903 24.388 81.1768 24.2031C81.4632 24.0156 81.833 23.9219 82.2861 23.9219C82.6924 23.9219 83.0479 24.0052 83.3525 24.1719C83.6572 24.3359 83.8942 24.5859 84.0635 24.9219C84.2327 25.2552 84.3174 25.6771 84.3174 26.1875V30H83.3955V26.25C83.3955 25.7786 83.2731 25.4115 83.0283 25.1484C82.7835 24.8828 82.4476 24.75 82.0205 24.75C81.7262 24.75 81.4632 24.8138 81.2314 24.9414C81.0023 25.069 80.8213 25.2552 80.6885 25.5C80.5557 25.7448 80.4893 26.0417 80.4893 26.3906ZM95.6582 24.5H94.6895C94.6322 24.2214 94.5319 23.9766 94.3887 23.7656C94.248 23.5547 94.0762 23.3776 93.873 23.2344C93.6725 23.0885 93.4499 22.9792 93.2051 22.9062C92.9603 22.8333 92.7051 22.7969 92.4395 22.7969C91.9551 22.7969 91.5163 22.9193 91.123 23.1641C90.7324 23.4089 90.4212 23.7695 90.1895 24.2461C89.9603 24.7227 89.8457 25.3073 89.8457 26C89.8457 26.6927 89.9603 27.2773 90.1895 27.7539C90.4212 28.2305 90.7324 28.5911 91.123 28.8359C91.5163 29.0807 91.9551 29.2031 92.4395 29.2031C92.7051 29.2031 92.9603 29.1667 93.2051 29.0937C93.4499 29.0208 93.6725 28.9128 93.873 28.7695C94.0762 28.6237 94.248 28.4453 94.3887 28.2344C94.5319 28.0208 94.6322 27.776 94.6895 27.5H95.6582C95.5853 27.9089 95.4525 28.2747 95.2598 28.5977C95.0671 28.9206 94.8275 29.1953 94.541 29.4219C94.2546 29.6458 93.9329 29.8164 93.5762 29.9336C93.222 30.0508 92.8431 30.1094 92.4395 30.1094C91.7572 30.1094 91.1504 29.9427 90.6191 29.6094C90.0879 29.276 89.6699 28.8021 89.3652 28.1875C89.0605 27.5729 88.9082 26.8437 88.9082 26C88.9082 25.1562 89.0605 24.4271 89.3652 23.8125C89.6699 23.1979 90.0879 22.724 90.6191 22.3906C91.1504 22.0573 91.7572 21.8906 92.4395 21.8906C92.8431 21.8906 93.222 21.9492 93.5762 22.0664C93.9329 22.1836 94.2546 22.3555 94.541 22.582C94.8275 22.806 95.0671 23.0794 95.2598 23.4023C95.4525 23.7227 95.5853 24.0885 95.6582 24.5ZM98.8643 30.1406C98.484 30.1406 98.139 30.069 97.8291 29.9258C97.5192 29.7799 97.2731 29.5703 97.0908 29.2969C96.9085 29.0208 96.8174 28.6875 96.8174 28.2969C96.8174 27.9531 96.8851 27.6745 97.0205 27.4609C97.1559 27.2448 97.3369 27.0755 97.5635 26.9531C97.79 26.8307 98.04 26.7396 98.3135 26.6797C98.5895 26.6172 98.8669 26.5677 99.1455 26.5313C99.5101 26.4844 99.8057 26.4492 100.032 26.4258C100.261 26.3997 100.428 26.3568 100.532 26.2969C100.639 26.237 100.692 26.1328 100.692 25.9844V25.9531C100.692 25.5677 100.587 25.2682 100.376 25.0547C100.168 24.8411 99.8512 24.7344 99.4268 24.7344C98.9867 24.7344 98.6416 24.8307 98.3916 25.0234C98.1416 25.2161 97.9658 25.4219 97.8643 25.6406L96.9893 25.3281C97.1455 24.9635 97.3538 24.6797 97.6143 24.4766C97.8773 24.2708 98.1637 24.1276 98.4736 24.0469C98.7861 23.9635 99.0934 23.9219 99.3955 23.9219C99.5882 23.9219 99.8096 23.9453 100.06 23.9922C100.312 24.0365 100.556 24.1289 100.79 24.2695C101.027 24.4102 101.224 24.6224 101.38 24.9062C101.536 25.1901 101.614 25.5703 101.614 26.0469V30H100.692V29.1875H100.646C100.583 29.3177 100.479 29.457 100.333 29.6055C100.187 29.7539 99.9932 29.8802 99.751 29.9844C99.5088 30.0885 99.2132 30.1406 98.8643 30.1406ZM99.0049 29.3125C99.3695 29.3125 99.6768 29.2409 99.9268 29.0977C100.179 28.9544 100.369 28.7695 100.497 28.543C100.627 28.3164 100.692 28.0781 100.692 27.8281V26.9844C100.653 27.0312 100.567 27.0742 100.435 27.1133C100.304 27.1497 100.153 27.1823 99.9814 27.2109C99.8122 27.237 99.6468 27.2604 99.4854 27.2812C99.3265 27.2995 99.1976 27.3151 99.0986 27.3281C98.859 27.3594 98.6351 27.4102 98.4268 27.4805C98.221 27.5482 98.0544 27.651 97.9268 27.7891C97.8018 27.9245 97.7393 28.1094 97.7393 28.3437C97.7393 28.6641 97.8577 28.9062 98.0947 29.0703C98.3343 29.2318 98.6377 29.3125 99.0049 29.3125ZM103.297 30V24H104.187V24.9062H104.25C104.359 24.6094 104.557 24.3685 104.844 24.1836C105.13 23.9987 105.453 23.9062 105.813 23.9062C105.88 23.9062 105.965 23.9076 106.066 23.9102C106.168 23.9128 106.245 23.9167 106.297 23.9219V24.8594C106.266 24.8516 106.194 24.8398 106.082 24.8242C105.973 24.806 105.857 24.7969 105.734 24.7969C105.443 24.7969 105.182 24.8581 104.953 24.9805C104.727 25.1003 104.547 25.2669 104.414 25.4805C104.284 25.6914 104.219 25.9323 104.219 26.2031V30H103.297ZM109.473 30.125C108.973 30.125 108.531 29.9987 108.148 29.7461C107.766 29.4909 107.466 29.1315 107.25 28.668C107.034 28.2018 106.926 27.651 106.926 27.0156C106.926 26.3854 107.034 25.8385 107.25 25.375C107.466 24.9115 107.767 24.5534 108.152 24.3008C108.538 24.0482 108.983 23.9219 109.488 23.9219C109.879 23.9219 110.188 23.987 110.414 24.1172C110.643 24.2448 110.818 24.3906 110.938 24.5547C111.06 24.7161 111.155 24.849 111.223 24.9531H111.301V22H112.223V30H111.332V29.0781H111.223C111.155 29.1875 111.059 29.3255 110.934 29.4922C110.809 29.6562 110.63 29.8034 110.398 29.9336C110.167 30.0612 109.858 30.125 109.473 30.125ZM109.598 29.2969C109.967 29.2969 110.28 29.2005 110.535 29.0078C110.79 28.8125 110.984 28.543 111.117 28.1992C111.25 27.8529 111.316 27.4531 111.316 27C111.316 26.5521 111.251 26.1602 111.121 25.8242C110.991 25.4857 110.798 25.2227 110.543 25.0352C110.288 24.8451 109.973 24.75 109.598 24.75C109.207 24.75 108.882 24.8503 108.621 25.0508C108.363 25.2487 108.169 25.5182 108.039 25.8594C107.911 26.1979 107.848 26.5781 107.848 27C107.848 27.4271 107.913 27.8151 108.043 28.1641C108.176 28.5104 108.371 28.7865 108.629 28.9922C108.889 29.1953 109.212 29.2969 109.598 29.2969Z" class="text"/>
<path d="M71 90.25H75.5M80 90.25H75.5M75.5 90.25V99.25M73.5 99.25H77.5M80 89.75V92.75M71 89.75V92.75" stroke="#808080"/>
<path d="M96.3125 91V99H95.375L91.0156 92.7187H90.9375V99H89.9688V91H90.9062L95.2813 97.2969H95.3594V91H96.3125ZM99.8916 99.1406C99.5114 99.1406 99.1663 99.069 98.8564 98.9258C98.5465 98.7799 98.3005 98.5703 98.1182 98.2969C97.9359 98.0208 97.8447 97.6875 97.8447 97.2969C97.8447 96.9531 97.9124 96.6745 98.0479 96.4609C98.1833 96.2448 98.3643 96.0755 98.5908 95.9531C98.8174 95.8307 99.0674 95.7396 99.3408 95.6797C99.6169 95.6172 99.8942 95.5677 100.173 95.5313C100.537 95.4844 100.833 95.4492 101.06 95.4258C101.289 95.3997 101.455 95.3568 101.56 95.2969C101.666 95.237 101.72 95.1328 101.72 94.9844V94.9531C101.72 94.5677 101.614 94.2682 101.403 94.0547C101.195 93.8411 100.879 93.7344 100.454 93.7344C100.014 93.7344 99.6689 93.8307 99.4189 94.0234C99.1689 94.2161 98.9932 94.4219 98.8916 94.6406L98.0166 94.3281C98.1729 93.9635 98.3812 93.6797 98.6416 93.4766C98.9046 93.2708 99.1911 93.1276 99.501 93.0469C99.8135 92.9635 100.121 92.9219 100.423 92.9219C100.616 92.9219 100.837 92.9453 101.087 92.9922C101.34 93.0365 101.583 93.1289 101.817 93.2695C102.054 93.4102 102.251 93.6224 102.407 93.9062C102.563 94.1901 102.642 94.5703 102.642 95.0469V99H101.72V98.1875H101.673C101.61 98.3177 101.506 98.457 101.36 98.6055C101.215 98.7539 101.021 98.8802 100.778 98.9844C100.536 99.0885 100.241 99.1406 99.8916 99.1406ZM100.032 98.3125C100.397 98.3125 100.704 98.2409 100.954 98.0977C101.207 97.9544 101.397 97.7695 101.524 97.543C101.655 97.3164 101.72 97.0781 101.72 96.8281V95.9844C101.681 96.0312 101.595 96.0742 101.462 96.1133C101.332 96.1497 101.181 96.1823 101.009 96.2109C100.84 96.237 100.674 96.2604 100.513 96.2812C100.354 96.2995 100.225 96.3151 100.126 96.3281C99.8864 96.3594 99.6624 96.4102 99.4541 96.4805C99.2484 96.5482 99.0817 96.651 98.9541 96.7891C98.8291 96.9245 98.7666 97.1094 98.7666 97.3437C98.7666 97.6641 98.8851 97.9062 99.1221 98.0703C99.3617 98.2318 99.665 98.3125 100.032 98.3125ZM104.324 99V93H105.215V93.9375H105.293C105.418 93.6172 105.62 93.3685 105.898 93.1914C106.177 93.0117 106.512 92.9219 106.902 92.9219C107.298 92.9219 107.628 93.0117 107.891 93.1914C108.156 93.3685 108.363 93.6172 108.512 93.9375H108.574C108.728 93.6276 108.958 93.3815 109.266 93.1992C109.573 93.0143 109.941 92.9219 110.371 92.9219C110.908 92.9219 111.346 93.0898 111.688 93.4258C112.029 93.7591 112.199 94.2786 112.199 94.9844V99H111.277V94.9844C111.277 94.5417 111.156 94.2253 110.914 94.0352C110.672 93.8451 110.387 93.75 110.059 93.75C109.637 93.75 109.31 93.8776 109.078 94.1328C108.846 94.3854 108.73 94.7057 108.73 95.0937V99H107.793V94.8906C107.793 94.5495 107.682 94.2747 107.461 94.0664C107.24 93.8555 106.954 93.75 106.605 93.75C106.366 93.75 106.142 93.8138 105.934 93.9414C105.728 94.069 105.561 94.2461 105.434 94.4727C105.309 94.6966 105.246 94.9557 105.246 95.25V99H104.324ZM116.4 99.125C115.822 99.125 115.324 98.9974 114.904 98.7422C114.488 98.4844 114.166 98.125 113.939 97.6641C113.715 97.2005 113.604 96.6615 113.604 96.0469C113.604 95.4323 113.715 94.8906 113.939 94.4219C114.166 93.9505 114.481 93.5833 114.885 93.3203C115.291 93.0547 115.765 92.9219 116.307 92.9219C116.619 92.9219 116.928 92.974 117.232 93.0781C117.537 93.1823 117.814 93.3516 118.064 93.5859C118.314 93.8177 118.514 94.125 118.662 94.5078C118.811 94.8906 118.885 95.362 118.885 95.9219V96.3125H114.26V95.5156H117.947C117.947 95.1771 117.88 94.875 117.744 94.6094C117.611 94.3437 117.421 94.1341 117.174 93.9805C116.929 93.8268 116.64 93.75 116.307 93.75C115.939 93.75 115.622 93.8411 115.354 94.0234C115.088 94.2031 114.883 94.4375 114.74 94.7266C114.597 95.0156 114.525 95.3255 114.525 95.6562V96.1875C114.525 96.6406 114.604 97.0247 114.76 97.3398C114.919 97.6523 115.139 97.8906 115.42 98.0547C115.701 98.2161 116.028 98.2969 116.4 98.2969C116.643 98.2969 116.861 98.263 117.057 98.1953C117.255 98.125 117.425 98.0208 117.568 97.8828C117.712 97.7422 117.822 97.5677 117.9 97.3594L118.791 97.6094C118.697 97.9115 118.54 98.1771 118.318 98.4062C118.097 98.6328 117.824 98.8099 117.498 98.9375C117.173 99.0625 116.807 99.125 116.4 99.125Z" class="text"/>
<path d="M71 113.25H75.5M80 113.25H75.5M75.5 113.25V122.25M73.5 122.25H77.5M80 112.75V115.75M71 112.75V115.75" stroke="#808080"/>
<path d="M89.9688 122V114H92.7656C93.3229 114 93.7826 114.096 94.1445 114.289C94.5065 114.479 94.776 114.736 94.9531 115.059C95.1302 115.379 95.2188 115.734 95.2188 116.125C95.2188 116.469 95.1576 116.753 95.0352 116.977C94.9154 117.201 94.7565 117.378 94.5586 117.508C94.3633 117.638 94.151 117.734 93.9219 117.797V117.875C94.1667 117.891 94.4128 117.977 94.6602 118.133C94.9076 118.289 95.1146 118.513 95.2813 118.805C95.4479 119.096 95.5312 119.453 95.5312 119.875C95.5312 120.276 95.4401 120.637 95.2578 120.957C95.0755 121.277 94.7878 121.531 94.3945 121.719C94.0013 121.906 93.4896 122 92.8594 122H89.9688ZM90.9375 121.141H92.8594C93.4922 121.141 93.9414 121.018 94.207 120.773C94.4753 120.526 94.6094 120.227 94.6094 119.875C94.6094 119.604 94.5404 119.354 94.4023 119.125C94.2643 118.893 94.0677 118.708 93.8125 118.57C93.5573 118.43 93.2552 118.359 92.9063 118.359H90.9375V121.141ZM90.9375 117.516H92.7344C93.026 117.516 93.2891 117.458 93.5234 117.344C93.7604 117.229 93.9479 117.068 94.0859 116.859C94.2266 116.651 94.2969 116.406 94.2969 116.125C94.2969 115.773 94.1745 115.475 93.9297 115.23C93.6849 114.983 93.2969 114.859 92.7656 114.859H90.9375V117.516ZM96.998 122V116H97.9199V122H96.998ZM97.4668 115C97.2871 115 97.1322 114.939 97.002 114.816C96.8743 114.694 96.8105 114.547 96.8105 114.375C96.8105 114.203 96.8743 114.056 97.002 113.934C97.1322 113.811 97.2871 113.75 97.4668 113.75C97.6465 113.75 97.8001 113.811 97.9277 113.934C98.0579 114.056 98.123 114.203 98.123 114.375C98.123 114.547 98.0579 114.694 97.9277 114.816C97.8001 114.939 97.6465 115 97.4668 115ZM102.046 122.125C101.504 122.125 101.029 121.996 100.62 121.738C100.214 121.48 99.8962 121.12 99.667 120.656C99.4404 120.193 99.3271 119.651 99.3271 119.031C99.3271 118.406 99.4404 117.861 99.667 117.395C99.8962 116.928 100.214 116.566 100.62 116.309C101.029 116.051 101.504 115.922 102.046 115.922C102.588 115.922 103.062 116.051 103.468 116.309C103.877 116.566 104.194 116.928 104.421 117.395C104.65 117.861 104.765 118.406 104.765 119.031C104.765 119.651 104.65 120.193 104.421 120.656C104.194 121.12 103.877 121.48 103.468 121.738C103.062 121.996 102.588 122.125 102.046 122.125ZM102.046 121.297C102.457 121.297 102.796 121.191 103.062 120.98C103.327 120.77 103.524 120.492 103.651 120.148C103.779 119.805 103.843 119.432 103.843 119.031C103.843 118.63 103.779 118.257 103.651 117.91C103.524 117.564 103.327 117.284 103.062 117.07C102.796 116.857 102.457 116.75 102.046 116.75C101.634 116.75 101.296 116.857 101.03 117.07C100.765 117.284 100.568 117.564 100.44 117.91C100.313 118.257 100.249 118.63 100.249 119.031C100.249 119.432 100.313 119.805 100.44 120.148C100.568 120.492 100.765 120.77 101.03 120.98C101.296 121.191 101.634 121.297 102.046 121.297Z" class="text"/>
</svg>
