<svg width="312" height="177" viewBox="0 0 312 177" fill="none" xmlns="http://www.w3.org/2000/svg">
<path d="M28.9688 61V53H31.6719C32.2995 53 32.8125 53.1133 33.2109 53.3398C33.612 53.5638 33.9089 53.8672 34.1016 54.25C34.2943 54.6328 34.3906 55.0599 34.3906 55.5312C34.3906 56.0026 34.2943 56.431 34.1016 56.8164C33.9115 57.2018 33.6172 57.5091 33.2188 57.7383C32.8203 57.9648 32.3099 58.0781 31.6875 58.0781H29.75V57.2188H31.6563C32.0859 57.2188 32.431 57.1445 32.6914 56.9961C32.9518 56.8477 33.1406 56.6471 33.2578 56.3945C33.3776 56.1393 33.4375 55.8516 33.4375 55.5312C33.4375 55.2109 33.3776 54.9245 33.2578 54.6719C33.1406 54.4193 32.9505 54.2214 32.6875 54.0781C32.4245 53.9323 32.0755 53.8594 31.6406 53.8594H29.9375V61H28.9688ZM37.5918 61.1406C37.2116 61.1406 36.8665 61.069 36.5566 60.9258C36.2467 60.7799 36.0007 60.5703 35.8184 60.2969C35.6361 60.0208 35.5449 59.6875 35.5449 59.2969C35.5449 58.9531 35.6126 58.6745 35.748 58.4609C35.8835 58.2448 36.0645 58.0755 36.291 57.9531C36.5176 57.8307 36.7676 57.7396 37.041 57.6797C37.3171 57.6172 37.5944 57.5677 37.873 57.5313C38.2376 57.4844 38.5332 57.4492 38.7598 57.4258C38.9889 57.3997 39.1556 57.3568 39.2598 57.2969C39.3665 57.237 39.4199 57.1328 39.4199 56.9844V56.9531C39.4199 56.5677 39.3145 56.2682 39.1035 56.0547C38.8952 55.8411 38.5788 55.7344 38.1543 55.7344C37.7142 55.7344 37.3691 55.8307 37.1191 56.0234C36.8691 56.2161 36.6934 56.4219 36.5918 56.6406L35.7168 56.3281C35.873 55.9635 36.0814 55.6797 36.3418 55.4766C36.6048 55.2708 36.8913 55.1276 37.2012 55.0469C37.5137 54.9635 37.821 54.9219 38.123 54.9219C38.3158 54.9219 38.5371 54.9453 38.7871 54.9922C39.0397 55.0365 39.2832 55.1289 39.5176 55.2695C39.7546 55.4102 39.9512 55.6224 40.1074 55.9062C40.2637 56.1901 40.3418 56.5703 40.3418 57.0469V61H39.4199V60.1875H39.373C39.3105 60.3177 39.2064 60.457 39.0605 60.6055C38.9147 60.7539 38.7207 60.8802 38.4785 60.9844C38.2363 61.0885 37.9408 61.1406 37.5918 61.1406ZM37.7324 60.3125C38.097 60.3125 38.4043 60.2409 38.6543 60.0977C38.9069 59.9544 39.097 59.7695 39.2246 59.543C39.3548 59.3164 39.4199 59.0781 39.4199 58.8281V57.9844C39.3809 58.0312 39.2949 58.0742 39.1621 58.1133C39.0319 58.1497 38.8809 58.1823 38.709 58.2109C38.5397 58.237 38.3743 58.2604 38.2129 58.2812C38.054 58.2995 37.9251 58.3151 37.8262 58.3281C37.5866 58.3594 37.3626 58.4102 37.1543 58.4805C36.9486 58.5482 36.7819 58.651 36.6543 58.7891C36.5293 58.9245 36.4668 59.1094 36.4668 59.3437C36.4668 59.6641 36.5853 59.9062 36.8223 60.0703C37.0618 60.2318 37.3652 60.3125 37.7324 60.3125ZM46.2744 56.3437L45.4463 56.5781C45.3942 56.4401 45.3174 56.306 45.2158 56.1758C45.1169 56.043 44.9814 55.9336 44.8096 55.8477C44.6377 55.7617 44.4176 55.7187 44.1494 55.7187C43.7822 55.7187 43.4762 55.8034 43.2314 55.9727C42.9893 56.1393 42.8682 56.3516 42.8682 56.6094C42.8682 56.8385 42.9515 57.0195 43.1182 57.1523C43.2848 57.2852 43.5452 57.3958 43.8994 57.4844L44.79 57.7031C45.3265 57.8333 45.7262 58.0326 45.9893 58.3008C46.2523 58.5664 46.3838 58.9089 46.3838 59.3281C46.3838 59.6719 46.2848 59.9792 46.0869 60.25C45.8916 60.5208 45.6182 60.7344 45.2666 60.8906C44.915 61.0469 44.5062 61.125 44.04 61.125C43.4281 61.125 42.9215 60.9922 42.5205 60.7266C42.1195 60.4609 41.8656 60.0729 41.7588 59.5625L42.6338 59.3437C42.7171 59.6667 42.8747 59.9089 43.1064 60.0703C43.3408 60.2318 43.6468 60.3125 44.0244 60.3125C44.4541 60.3125 44.7952 60.2214 45.0479 60.0391C45.3031 59.8542 45.4307 59.6328 45.4307 59.375C45.4307 59.1667 45.3577 58.9922 45.2119 58.8516C45.0661 58.7083 44.8421 58.6016 44.54 58.5312L43.54 58.2969C42.9906 58.1667 42.5869 57.9648 42.3291 57.6914C42.0739 57.4154 41.9463 57.0703 41.9463 56.6562C41.9463 56.3177 42.0413 56.0182 42.2314 55.7578C42.4242 55.4974 42.6859 55.293 43.0166 55.1445C43.3499 54.9961 43.7275 54.9219 44.1494 54.9219C44.7432 54.9219 45.2093 55.0521 45.5479 55.3125C45.889 55.5729 46.1312 55.9167 46.2744 56.3437ZM52.0215 56.3437L51.1934 56.5781C51.1413 56.4401 51.0645 56.306 50.9629 56.1758C50.8639 56.043 50.7285 55.9336 50.5566 55.8477C50.3848 55.7617 50.1647 55.7187 49.8965 55.7187C49.5293 55.7187 49.2233 55.8034 48.9785 55.9727C48.7363 56.1393 48.6152 56.3516 48.6152 56.6094C48.6152 56.8385 48.6986 57.0195 48.8652 57.1523C49.0319 57.2852 49.2923 57.3958 49.6465 57.4844L50.5371 57.7031C51.0736 57.8333 51.4733 58.0326 51.7363 58.3008C51.9993 58.5664 52.1309 58.9089 52.1309 59.3281C52.1309 59.6719 52.0319 59.9792 51.834 60.25C51.6387 60.5208 51.3652 60.7344 51.0137 60.8906C50.6621 61.0469 50.2533 61.125 49.7871 61.125C49.1751 61.125 48.6686 60.9922 48.2676 60.7266C47.8665 60.4609 47.6126 60.0729 47.5059 59.5625L48.3809 59.3437C48.4642 59.6667 48.6217 59.9089 48.8535 60.0703C49.0879 60.2318 49.3939 60.3125 49.7715 60.3125C50.2012 60.3125 50.5423 60.2214 50.7949 60.0391C51.0501 59.8542 51.1777 59.6328 51.1777 59.375C51.1777 59.1667 51.1048 58.9922 50.959 58.8516C50.8132 58.7083 50.5892 58.6016 50.2871 58.5312L49.2871 58.2969C48.7376 58.1667 48.334 57.9648 48.0762 57.6914C47.821 57.4154 47.6934 57.0703 47.6934 56.6562C47.6934 56.3177 47.7884 56.0182 47.9785 55.7578C48.1712 55.4974 48.4329 55.293 48.7637 55.1445C49.097 54.9961 49.4746 54.9219 49.8965 54.9219C50.4902 54.9219 50.9564 55.0521 51.2949 55.3125C51.6361 55.5729 51.8783 55.9167 52.0215 56.3437ZM54.8779 61L53.0498 55H54.0186L55.3154 59.5938H55.3779L56.6592 55H57.6436L58.9092 59.5781H58.9717L60.2686 55H61.2373L59.4092 61H58.5029L57.1904 56.3906H57.0967L55.7842 61H54.8779ZM64.6895 61.125C64.1478 61.125 63.6725 60.9961 63.2637 60.7383C62.8574 60.4805 62.5397 60.1198 62.3105 59.6562C62.084 59.1927 61.9707 58.651 61.9707 58.0312C61.9707 57.4062 62.084 56.8607 62.3105 56.3945C62.5397 55.9284 62.8574 55.5664 63.2637 55.3086C63.6725 55.0508 64.1478 54.9219 64.6895 54.9219C65.2311 54.9219 65.7051 55.0508 66.1113 55.3086C66.5202 55.5664 66.8379 55.9284 67.0645 56.3945C67.2936 56.8607 67.4082 57.4062 67.4082 58.0312C67.4082 58.651 67.2936 59.1927 67.0645 59.6562C66.8379 60.1198 66.5202 60.4805 66.1113 60.7383C65.7051 60.9961 65.2311 61.125 64.6895 61.125ZM64.6895 60.2969C65.1009 60.2969 65.4395 60.1914 65.7051 59.9805C65.9707 59.7695 66.1673 59.4922 66.2949 59.1484C66.4225 58.8047 66.4863 58.4323 66.4863 58.0312C66.4863 57.6302 66.4225 57.2565 66.2949 56.9102C66.1673 56.5638 65.9707 56.2839 65.7051 56.0703C65.4395 55.8568 65.1009 55.75 64.6895 55.75C64.278 55.75 63.9395 55.8568 63.6738 56.0703C63.4082 56.2839 63.2116 56.5638 63.084 56.9102C62.9564 57.2565 62.8926 57.6302 62.8926 58.0312C62.8926 58.4323 62.9564 58.8047 63.084 59.1484C63.2116 59.4922 63.4082 59.7695 63.6738 59.9805C63.9395 60.1914 64.278 60.2969 64.6895 60.2969ZM68.8154 61V55H69.7061V55.9062H69.7686C69.8779 55.6094 70.0758 55.3685 70.3623 55.1836C70.6488 54.9987 70.9717 54.9062 71.3311 54.9062C71.3988 54.9062 71.4834 54.9076 71.585 54.9102C71.6865 54.9128 71.7633 54.9167 71.8154 54.9219V55.8594C71.7842 55.8516 71.7126 55.8398 71.6006 55.8242C71.4912 55.806 71.3753 55.7969 71.2529 55.7969C70.9613 55.7969 70.7008 55.8581 70.4717 55.9805C70.2451 56.1003 70.0654 56.2669 69.9326 56.4805C69.8024 56.6914 69.7373 56.9323 69.7373 57.2031V61H68.8154ZM74.9912 61.125C74.4912 61.125 74.0498 60.9987 73.667 60.7461C73.2842 60.4909 72.9847 60.1315 72.7686 59.668C72.5524 59.2018 72.4443 58.651 72.4443 58.0156C72.4443 57.3854 72.5524 56.8385 72.7686 56.375C72.9847 55.9115 73.2855 55.5534 73.6709 55.3008C74.0563 55.0482 74.5016 54.9219 75.0068 54.9219C75.3975 54.9219 75.7061 54.987 75.9326 55.1172C76.1618 55.2448 76.3363 55.3906 76.4561 55.5547C76.5785 55.7161 76.6735 55.849 76.7412 55.9531H76.8193V53H77.7412V61H76.8506V60.0781H76.7412C76.6735 60.1875 76.5771 60.3255 76.4521 60.4922C76.3271 60.6562 76.1488 60.8034 75.917 60.9336C75.6852 61.0612 75.3766 61.125 74.9912 61.125ZM75.1162 60.2969C75.486 60.2969 75.7985 60.2005 76.0537 60.0078C76.3089 59.8125 76.5029 59.543 76.6357 59.1992C76.7686 58.8529 76.835 58.4531 76.835 58C76.835 57.5521 76.7699 57.1602 76.6396 56.8242C76.5094 56.4857 76.3167 56.2227 76.0615 56.0352C75.8063 55.8451 75.4912 55.75 75.1162 55.75C74.7256 55.75 74.4001 55.8503 74.1396 56.0508C73.8818 56.2487 73.6878 56.5182 73.5576 56.8594C73.43 57.1979 73.3662 57.5781 73.3662 58C73.3662 58.4271 73.4313 58.8151 73.5615 59.1641C73.6943 59.5104 73.8896 59.7865 74.1475 59.9922C74.4079 60.1953 74.7308 60.2969 75.1162 60.2969ZM87.1514 55C87.1045 54.6042 86.9144 54.2969 86.5811 54.0781C86.2477 53.8594 85.8389 53.75 85.3545 53.75C85.0003 53.75 84.6904 53.8073 84.4248 53.9219C84.1618 54.0365 83.9561 54.194 83.8076 54.3945C83.6618 54.5951 83.5889 54.8229 83.5889 55.0781C83.5889 55.2917 83.6396 55.4753 83.7412 55.6289C83.8454 55.7799 83.9782 55.9062 84.1396 56.0078C84.3011 56.1068 84.4704 56.1888 84.6475 56.2539C84.8245 56.3164 84.9873 56.3672 85.1357 56.4062L85.9482 56.625C86.1566 56.6797 86.3883 56.7552 86.6436 56.8516C86.9014 56.9479 87.1475 57.0794 87.3818 57.2461C87.6188 57.4102 87.8141 57.6211 87.9678 57.8789C88.1214 58.1367 88.1982 58.4531 88.1982 58.8281C88.1982 59.2604 88.085 59.651 87.8584 60C87.6344 60.349 87.3063 60.6263 86.874 60.832C86.4443 61.0378 85.9222 61.1406 85.3076 61.1406C84.7347 61.1406 84.2386 61.0482 83.8193 60.8633C83.4027 60.6784 83.0745 60.4206 82.835 60.0898C82.598 59.7591 82.4639 59.375 82.4326 58.9375H83.4326C83.4587 59.2396 83.5602 59.4896 83.7373 59.6875C83.917 59.8828 84.1436 60.0286 84.417 60.125C84.693 60.2187 84.9899 60.2656 85.3076 60.2656C85.6774 60.2656 86.0094 60.2057 86.3037 60.0859C86.598 59.9635 86.8311 59.7943 87.0029 59.5781C87.1748 59.3594 87.2607 59.1042 87.2607 58.8125C87.2607 58.5469 87.1865 58.3307 87.0381 58.1641C86.8896 57.9974 86.6943 57.862 86.4521 57.7578C86.21 57.6536 85.9482 57.5625 85.667 57.4844L84.6826 57.2031C84.0576 57.0234 83.5628 56.7669 83.1982 56.4336C82.8337 56.1003 82.6514 55.6641 82.6514 55.125C82.6514 54.6771 82.7725 54.2865 83.0146 53.9531C83.2594 53.6172 83.5876 53.3568 83.999 53.1719C84.4131 52.9844 84.8753 52.8906 85.3857 52.8906C85.9014 52.8906 86.3597 52.9831 86.7607 53.168C87.1618 53.3503 87.4795 53.6003 87.7139 53.918C87.9508 54.2357 88.0758 54.5964 88.0889 55H87.1514ZM92.2754 55V55.7812H89.166V55H92.2754ZM90.0723 53.5625H90.9941V59.2812C90.9941 59.5417 91.0319 59.737 91.1074 59.8672C91.1855 59.9948 91.2845 60.0807 91.4043 60.125C91.5267 60.1667 91.6556 60.1875 91.791 60.1875C91.8926 60.1875 91.9759 60.1823 92.041 60.1719C92.1061 60.1589 92.1582 60.1484 92.1973 60.1406L92.3848 60.9687C92.3223 60.9922 92.235 61.0156 92.123 61.0391C92.0111 61.0651 91.8691 61.0781 91.6973 61.0781C91.4368 61.0781 91.1816 61.0221 90.9316 60.9102C90.6842 60.7982 90.4785 60.6276 90.3145 60.3984C90.153 60.1693 90.0723 59.8802 90.0723 59.5312V53.5625ZM93.6621 61V55H94.5527V55.9062H94.6152C94.7246 55.6094 94.9225 55.3685 95.209 55.1836C95.4954 54.9987 95.8184 54.9062 96.1777 54.9062C96.2454 54.9062 96.3301 54.9076 96.4316 54.9102C96.5332 54.9128 96.61 54.9167 96.6621 54.9219V55.8594C96.6309 55.8516 96.5592 55.8398 96.4473 55.8242C96.3379 55.806 96.222 55.7969 96.0996 55.7969C95.8079 55.7969 95.5475 55.8581 95.3184 55.9805C95.0918 56.1003 94.9121 56.2669 94.7793 56.4805C94.6491 56.6914 94.584 56.9323 94.584 57.2031V61H93.6621ZM100.088 61.125C99.5098 61.125 99.0111 60.9974 98.5918 60.7422C98.1751 60.4844 97.8535 60.125 97.627 59.6641C97.403 59.2005 97.291 58.6615 97.291 58.0469C97.291 57.4323 97.403 56.8906 97.627 56.4219C97.8535 55.9505 98.1686 55.5833 98.5723 55.3203C98.9785 55.0547 99.4525 54.9219 99.9941 54.9219C100.307 54.9219 100.615 54.974 100.92 55.0781C101.225 55.1823 101.502 55.3516 101.752 55.5859C102.002 55.8177 102.201 56.125 102.35 56.5078C102.498 56.8906 102.572 57.362 102.572 57.9219V58.3125H97.9473V57.5156H101.635C101.635 57.1771 101.567 56.875 101.432 56.6094C101.299 56.3437 101.109 56.1341 100.861 55.9805C100.617 55.8268 100.327 55.75 99.9941 55.75C99.627 55.75 99.3092 55.8411 99.041 56.0234C98.7754 56.2031 98.571 56.4375 98.4277 56.7266C98.2845 57.0156 98.2129 57.3255 98.2129 57.6562V58.1875C98.2129 58.6406 98.291 59.0247 98.4473 59.3398C98.6061 59.6523 98.8262 59.8906 99.1074 60.0547C99.3887 60.2161 99.7155 60.2969 100.088 60.2969C100.33 60.2969 100.549 60.263 100.744 60.1953C100.942 60.125 101.113 60.0208 101.256 59.8828C101.399 59.7422 101.51 59.5677 101.588 59.3594L102.479 59.6094C102.385 59.9115 102.227 60.1771 102.006 60.4062C101.785 60.6328 101.511 60.8099 101.186 60.9375C100.86 61.0625 100.494 61.125 100.088 61.125ZM104.896 57.3906V61H103.975V55H104.865V55.9375H104.943C105.084 55.6328 105.298 55.388 105.584 55.2031C105.87 55.0156 106.24 54.9219 106.693 54.9219C107.1 54.9219 107.455 55.0052 107.76 55.1719C108.064 55.3359 108.301 55.5859 108.471 55.9219C108.64 56.2552 108.725 56.6771 108.725 57.1875V61H107.803V57.25C107.803 56.7786 107.68 56.4115 107.436 56.1484C107.191 55.8828 106.855 55.75 106.428 55.75C106.133 55.75 105.87 55.8138 105.639 55.9414C105.41 56.069 105.229 56.2552 105.096 56.5C104.963 56.7448 104.896 57.0417 104.896 57.3906ZM112.831 63.375C112.386 63.375 112.003 63.3177 111.683 63.2031C111.362 63.0911 111.095 62.9427 110.882 62.7578C110.671 62.5755 110.503 62.3802 110.378 62.1719L111.112 61.6563C111.196 61.7656 111.301 61.8906 111.429 62.0312C111.556 62.1745 111.731 62.2982 111.952 62.4023C112.176 62.5091 112.469 62.5625 112.831 62.5625C113.315 62.5625 113.715 62.4453 114.03 62.2109C114.345 61.9766 114.503 61.6094 114.503 61.1094V59.8906H114.425C114.357 60 114.261 60.1354 114.136 60.2969C114.013 60.4557 113.836 60.5977 113.604 60.7227C113.375 60.8451 113.065 60.9062 112.675 60.9062C112.19 60.9062 111.756 60.7917 111.37 60.5625C110.987 60.3333 110.684 60 110.46 59.5625C110.239 59.125 110.128 58.5937 110.128 57.9687C110.128 57.3542 110.236 56.819 110.452 56.3633C110.668 55.9049 110.969 55.5508 111.354 55.3008C111.74 55.0482 112.185 54.9219 112.69 54.9219C113.081 54.9219 113.391 54.987 113.62 55.1172C113.852 55.2448 114.029 55.3906 114.151 55.5547C114.276 55.7161 114.373 55.849 114.44 55.9531H114.534V55H115.425V61.1719C115.425 61.6875 115.308 62.1068 115.073 62.4297C114.841 62.7552 114.529 62.9935 114.136 63.1445C113.745 63.2982 113.31 63.375 112.831 63.375ZM112.8 60.0781C113.17 60.0781 113.482 59.9935 113.737 59.8242C113.993 59.6549 114.187 59.4115 114.319 59.0938C114.452 58.776 114.519 58.3958 114.519 57.9531C114.519 57.5208 114.453 57.1393 114.323 56.8086C114.193 56.4779 114 56.2187 113.745 56.0312C113.49 55.8437 113.175 55.75 112.8 55.75C112.409 55.75 112.084 55.849 111.823 56.0469C111.565 56.2448 111.371 56.5104 111.241 56.8438C111.114 57.1771 111.05 57.5469 111.05 57.9531C111.05 58.3698 111.115 58.7383 111.245 59.0586C111.378 59.3763 111.573 59.6263 111.831 59.8086C112.091 59.9883 112.414 60.0781 112.8 60.0781ZM119.722 55V55.7812H116.612V55H119.722ZM117.519 53.5625H118.44V59.2812C118.44 59.5417 118.478 59.737 118.554 59.8672C118.632 59.9948 118.731 60.0807 118.851 60.125C118.973 60.1667 119.102 60.1875 119.237 60.1875C119.339 60.1875 119.422 60.1823 119.487 60.1719C119.552 60.1589 119.604 60.1484 119.644 60.1406L119.831 60.9687C119.769 60.9922 119.681 61.0156 119.569 61.0391C119.457 61.0651 119.315 61.0781 119.144 61.0781C118.883 61.0781 118.628 61.0221 118.378 60.9102C118.131 60.7982 117.925 60.6276 117.761 60.3984C117.599 60.1693 117.519 59.8802 117.519 59.5312V53.5625ZM122.159 57.3906V61H121.237V53H122.159V55.9375H122.237C122.378 55.6276 122.589 55.3815 122.87 55.1992C123.154 55.0143 123.532 54.9219 124.003 54.9219C124.412 54.9219 124.77 55.0039 125.077 55.168C125.384 55.3294 125.623 55.5781 125.792 55.9141C125.964 56.2474 126.05 56.6719 126.05 57.1875V61H125.128V57.25C125.128 56.7734 125.004 56.4049 124.757 56.1445C124.512 55.8815 124.172 55.75 123.737 55.75C123.435 55.75 123.164 55.8138 122.925 55.9414C122.688 56.069 122.5 56.2552 122.362 56.5C122.227 56.7448 122.159 57.0417 122.159 57.3906Z" fill="#888"/>
<rect x="28" y="40" width="48" height="6" rx="3" fill="#D19E1A"/>
<rect x="80" y="40" width="48" height="6" rx="3" fill="#D19E1A"/>
<rect x="132" y="40" width="48" height="6" rx="3" fill="#888888" fill-opacity="0.5"/>
<rect x="184" y="40" width="48" height="6" rx="3" fill="#888888" fill-opacity="0.5"/>
<rect x="236" y="40" width="48" height="6" rx="3" fill="#888888" fill-opacity="0.5"/>
</svg>
