<svg width="312" height="177" viewBox="0 0 312 177" fill="none" xmlns="http://www.w3.org/2000/svg">
<path d="M28.9688 61V53H31.6719C32.2995 53 32.8125 53.1133 33.2109 53.3398C33.612 53.5638 33.9089 53.8672 34.1016 54.25C34.2943 54.6328 34.3906 55.0599 34.3906 55.5312C34.3906 56.0026 34.2943 56.431 34.1016 56.8164C33.9115 57.2018 33.6172 57.5091 33.2188 57.7383C32.8203 57.9648 32.3099 58.0781 31.6875 58.0781H29.75V57.2188H31.6563C32.0859 57.2188 32.431 57.1445 32.6914 56.9961C32.9518 56.8477 33.1406 56.6471 33.2578 56.3945C33.3776 56.1393 33.4375 55.8516 33.4375 55.5312C33.4375 55.2109 33.3776 54.9245 33.2578 54.6719C33.1406 54.4193 32.9505 54.2214 32.6875 54.0781C32.4245 53.9323 32.0755 53.8594 31.6406 53.8594H29.9375V61H28.9688ZM37.5918 61.1406C37.2116 61.1406 36.8665 61.069 36.5566 60.9258C36.2467 60.7799 36.0007 60.5703 35.8184 60.2969C35.6361 60.0208 35.5449 59.6875 35.5449 59.2969C35.5449 58.9531 35.6126 58.6745 35.748 58.4609C35.8835 58.2448 36.0645 58.0755 36.291 57.9531C36.5176 57.8307 36.7676 57.7396 37.041 57.6797C37.3171 57.6172 37.5944 57.5677 37.873 57.5313C38.2376 57.4844 38.5332 57.4492 38.7598 57.4258C38.9889 57.3997 39.1556 57.3568 39.2598 57.2969C39.3665 57.237 39.4199 57.1328 39.4199 56.9844V56.9531C39.4199 56.5677 39.3145 56.2682 39.1035 56.0547C38.8952 55.8411 38.5788 55.7344 38.1543 55.7344C37.7142 55.7344 37.3691 55.8307 37.1191 56.0234C36.8691 56.2161 36.6934 56.4219 36.5918 56.6406L35.7168 56.3281C35.873 55.9635 36.0814 55.6797 36.3418 55.4766C36.6048 55.2708 36.8913 55.1276 37.2012 55.0469C37.5137 54.9635 37.821 54.9219 38.123 54.9219C38.3158 54.9219 38.5371 54.9453 38.7871 54.9922C39.0397 55.0365 39.2832 55.1289 39.5176 55.2695C39.7546 55.4102 39.9512 55.6224 40.1074 55.9062C40.2637 56.1901 40.3418 56.5703 40.3418 57.0469V61H39.4199V60.1875H39.373C39.3105 60.3177 39.2064 60.457 39.0605 60.6055C38.9147 60.7539 38.7207 60.8802 38.4785 60.9844C38.2363 61.0885 37.9408 61.1406 37.5918 61.1406ZM37.7324 60.3125C38.097 60.3125 38.4043 60.2409 38.6543 60.0977C38.9069 59.9544 39.097 59.7695 39.2246 59.543C39.3548 59.3164 39.4199 59.0781 39.4199 58.8281V57.9844C39.3809 58.0312 39.2949 58.0742 39.1621 58.1133C39.0319 58.1497 38.8809 58.1823 38.709 58.2109C38.5397 58.237 38.3743 58.2604 38.2129 58.2812C38.054 58.2995 37.9251 58.3151 37.8262 58.3281C37.5866 58.3594 37.3626 58.4102 37.1543 58.4805C36.9486 58.5482 36.7819 58.651 36.6543 58.7891C36.5293 58.9245 36.4668 59.1094 36.4668 59.3437C36.4668 59.6641 36.5853 59.9062 36.8223 60.0703C37.0618 60.2318 37.3652 60.3125 37.7324 60.3125ZM46.2744 56.3437L45.4463 56.5781C45.3942 56.4401 45.3174 56.306 45.2158 56.1758C45.1169 56.043 44.9814 55.9336 44.8096 55.8477C44.6377 55.7617 44.4176 55.7187 44.1494 55.7187C43.7822 55.7187 43.4762 55.8034 43.2314 55.9727C42.9893 56.1393 42.8682 56.3516 42.8682 56.6094C42.8682 56.8385 42.9515 57.0195 43.1182 57.1523C43.2848 57.2852 43.5452 57.3958 43.8994 57.4844L44.79 57.7031C45.3265 57.8333 45.7262 58.0326 45.9893 58.3008C46.2523 58.5664 46.3838 58.9089 46.3838 59.3281C46.3838 59.6719 46.2848 59.9792 46.0869 60.25C45.8916 60.5208 45.6182 60.7344 45.2666 60.8906C44.915 61.0469 44.5062 61.125 44.04 61.125C43.4281 61.125 42.9215 60.9922 42.5205 60.7266C42.1195 60.4609 41.8656 60.0729 41.7588 59.5625L42.6338 59.3437C42.7171 59.6667 42.8747 59.9089 43.1064 60.0703C43.3408 60.2318 43.6468 60.3125 44.0244 60.3125C44.4541 60.3125 44.7952 60.2214 45.0479 60.0391C45.3031 59.8542 45.4307 59.6328 45.4307 59.375C45.4307 59.1667 45.3577 58.9922 45.2119 58.8516C45.0661 58.7083 44.8421 58.6016 44.54 58.5312L43.54 58.2969C42.9906 58.1667 42.5869 57.9648 42.3291 57.6914C42.0739 57.4154 41.9463 57.0703 41.9463 56.6562C41.9463 56.3177 42.0413 56.0182 42.2314 55.7578C42.4242 55.4974 42.6859 55.293 43.0166 55.1445C43.3499 54.9961 43.7275 54.9219 44.1494 54.9219C44.7432 54.9219 45.2093 55.0521 45.5479 55.3125C45.889 55.5729 46.1312 55.9167 46.2744 56.3437ZM52.0215 56.3437L51.1934 56.5781C51.1413 56.4401 51.0645 56.306 50.9629 56.1758C50.8639 56.043 50.7285 55.9336 50.5566 55.8477C50.3848 55.7617 50.1647 55.7187 49.8965 55.7187C49.5293 55.7187 49.2233 55.8034 48.9785 55.9727C48.7363 56.1393 48.6152 56.3516 48.6152 56.6094C48.6152 56.8385 48.6986 57.0195 48.8652 57.1523C49.0319 57.2852 49.2923 57.3958 49.6465 57.4844L50.5371 57.7031C51.0736 57.8333 51.4733 58.0326 51.7363 58.3008C51.9993 58.5664 52.1309 58.9089 52.1309 59.3281C52.1309 59.6719 52.0319 59.9792 51.834 60.25C51.6387 60.5208 51.3652 60.7344 51.0137 60.8906C50.6621 61.0469 50.2533 61.125 49.7871 61.125C49.1751 61.125 48.6686 60.9922 48.2676 60.7266C47.8665 60.4609 47.6126 60.0729 47.5059 59.5625L48.3809 59.3437C48.4642 59.6667 48.6217 59.9089 48.8535 60.0703C49.0879 60.2318 49.3939 60.3125 49.7715 60.3125C50.2012 60.3125 50.5423 60.2214 50.7949 60.0391C51.0501 59.8542 51.1777 59.6328 51.1777 59.375C51.1777 59.1667 51.1048 58.9922 50.959 58.8516C50.8132 58.7083 50.5892 58.6016 50.2871 58.5312L49.2871 58.2969C48.7376 58.1667 48.334 57.9648 48.0762 57.6914C47.821 57.4154 47.6934 57.0703 47.6934 56.6562C47.6934 56.3177 47.7884 56.0182 47.9785 55.7578C48.1712 55.4974 48.4329 55.293 48.7637 55.1445C49.097 54.9961 49.4746 54.9219 49.8965 54.9219C50.4902 54.9219 50.9564 55.0521 51.2949 55.3125C51.6361 55.5729 51.8783 55.9167 52.0215 56.3437ZM54.8779 61L53.0498 55H54.0186L55.3154 59.5938H55.3779L56.6592 55H57.6436L58.9092 59.5781H58.9717L60.2686 55H61.2373L59.4092 61H58.5029L57.1904 56.3906H57.0967L55.7842 61H54.8779ZM64.6895 61.125C64.1478 61.125 63.6725 60.9961 63.2637 60.7383C62.8574 60.4805 62.5397 60.1198 62.3105 59.6562C62.084 59.1927 61.9707 58.651 61.9707 58.0312C61.9707 57.4062 62.084 56.8607 62.3105 56.3945C62.5397 55.9284 62.8574 55.5664 63.2637 55.3086C63.6725 55.0508 64.1478 54.9219 64.6895 54.9219C65.2311 54.9219 65.7051 55.0508 66.1113 55.3086C66.5202 55.5664 66.8379 55.9284 67.0645 56.3945C67.2936 56.8607 67.4082 57.4062 67.4082 58.0312C67.4082 58.651 67.2936 59.1927 67.0645 59.6562C66.8379 60.1198 66.5202 60.4805 66.1113 60.7383C65.7051 60.9961 65.2311 61.125 64.6895 61.125ZM64.6895 60.2969C65.1009 60.2969 65.4395 60.1914 65.7051 59.9805C65.9707 59.7695 66.1673 59.4922 66.2949 59.1484C66.4225 58.8047 66.4863 58.4323 66.4863 58.0312C66.4863 57.6302 66.4225 57.2565 66.2949 56.9102C66.1673 56.5638 65.9707 56.2839 65.7051 56.0703C65.4395 55.8568 65.1009 55.75 64.6895 55.75C64.278 55.75 63.9395 55.8568 63.6738 56.0703C63.4082 56.2839 63.2116 56.5638 63.084 56.9102C62.9564 57.2565 62.8926 57.6302 62.8926 58.0312C62.8926 58.4323 62.9564 58.8047 63.084 59.1484C63.2116 59.4922 63.4082 59.7695 63.6738 59.9805C63.9395 60.1914 64.278 60.2969 64.6895 60.2969ZM68.8154 61V55H69.7061V55.9062H69.7686C69.8779 55.6094 70.0758 55.3685 70.3623 55.1836C70.6488 54.9987 70.9717 54.9062 71.3311 54.9062C71.3988 54.9062 71.4834 54.9076 71.585 54.9102C71.6865 54.9128 71.7633 54.9167 71.8154 54.9219V55.8594C71.7842 55.8516 71.7126 55.8398 71.6006 55.8242C71.4912 55.806 71.3753 55.7969 71.2529 55.7969C70.9613 55.7969 70.7008 55.8581 70.4717 55.9805C70.2451 56.1003 70.0654 56.2669 69.9326 56.4805C69.8024 56.6914 69.7373 56.9323 69.7373 57.2031V61H68.8154ZM74.9912 61.125C74.4912 61.125 74.0498 60.9987 73.667 60.7461C73.2842 60.4909 72.9847 60.1315 72.7686 59.668C72.5524 59.2018 72.4443 58.651 72.4443 58.0156C72.4443 57.3854 72.5524 56.8385 72.7686 56.375C72.9847 55.9115 73.2855 55.5534 73.6709 55.3008C74.0563 55.0482 74.5016 54.9219 75.0068 54.9219C75.3975 54.9219 75.7061 54.987 75.9326 55.1172C76.1618 55.2448 76.3363 55.3906 76.4561 55.5547C76.5785 55.7161 76.6735 55.849 76.7412 55.9531H76.8193V53H77.7412V61H76.8506V60.0781H76.7412C76.6735 60.1875 76.5771 60.3255 76.4521 60.4922C76.3271 60.6562 76.1488 60.8034 75.917 60.9336C75.6852 61.0612 75.3766 61.125 74.9912 61.125ZM75.1162 60.2969C75.486 60.2969 75.7985 60.2005 76.0537 60.0078C76.3089 59.8125 76.5029 59.543 76.6357 59.1992C76.7686 58.8529 76.835 58.4531 76.835 58C76.835 57.5521 76.7699 57.1602 76.6396 56.8242C76.5094 56.4857 76.3167 56.2227 76.0615 56.0352C75.8063 55.8451 75.4912 55.75 75.1162 55.75C74.7256 55.75 74.4001 55.8503 74.1396 56.0508C73.8818 56.2487 73.6878 56.5182 73.5576 56.8594C73.43 57.1979 73.3662 57.5781 73.3662 58C73.3662 58.4271 73.4313 58.8151 73.5615 59.1641C73.6943 59.5104 73.8896 59.7865 74.1475 59.9922C74.4079 60.1953 74.7308 60.2969 75.1162 60.2969ZM87.1514 55C87.1045 54.6042 86.9144 54.2969 86.5811 54.0781C86.2477 53.8594 85.8389 53.75 85.3545 53.75C85.0003 53.75 84.6904 53.8073 84.4248 53.9219C84.1618 54.0365 83.9561 54.194 83.8076 54.3945C83.6618 54.5951 83.5889 54.8229 83.5889 55.0781C83.5889 55.2917 83.6396 55.4753 83.7412 55.6289C83.8454 55.7799 83.9782 55.9062 84.1396 56.0078C84.3011 56.1068 84.4704 56.1888 84.6475 56.2539C84.8245 56.3164 84.9873 56.3672 85.1357 56.4062L85.9482 56.625C86.1566 56.6797 86.3883 56.7552 86.6436 56.8516C86.9014 56.9479 87.1475 57.0794 87.3818 57.2461C87.6188 57.4102 87.8141 57.6211 87.9678 57.8789C88.1214 58.1367 88.1982 58.4531 88.1982 58.8281C88.1982 59.2604 88.085 59.651 87.8584 60C87.6344 60.349 87.3063 60.6263 86.874 60.832C86.4443 61.0378 85.9222 61.1406 85.3076 61.1406C84.7347 61.1406 84.2386 61.0482 83.8193 60.8633C83.4027 60.6784 83.0745 60.4206 82.835 60.0898C82.598 59.7591 82.4639 59.375 82.4326 58.9375H83.4326C83.4587 59.2396 83.5602 59.4896 83.7373 59.6875C83.917 59.8828 84.1436 60.0286 84.417 60.125C84.693 60.2187 84.9899 60.2656 85.3076 60.2656C85.6774 60.2656 86.0094 60.2057 86.3037 60.0859C86.598 59.9635 86.8311 59.7943 87.0029 59.5781C87.1748 59.3594 87.2607 59.1042 87.2607 58.8125C87.2607 58.5469 87.1865 58.3307 87.0381 58.1641C86.8896 57.9974 86.6943 57.862 86.4521 57.7578C86.21 57.6536 85.9482 57.5625 85.667 57.4844L84.6826 57.2031C84.0576 57.0234 83.5628 56.7669 83.1982 56.4336C82.8337 56.1003 82.6514 55.6641 82.6514 55.125C82.6514 54.6771 82.7725 54.2865 83.0146 53.9531C83.2594 53.6172 83.5876 53.3568 83.999 53.1719C84.4131 52.9844 84.8753 52.8906 85.3857 52.8906C85.9014 52.8906 86.3597 52.9831 86.7607 53.168C87.1618 53.3503 87.4795 53.6003 87.7139 53.918C87.9508 54.2357 88.0758 54.5964 88.0889 55H87.1514ZM92.2754 55V55.7812H89.166V55H92.2754ZM90.0723 53.5625H90.9941V59.2812C90.9941 59.5417 91.0319 59.737 91.1074 59.8672C91.1855 59.9948 91.2845 60.0807 91.4043 60.125C91.5267 60.1667 91.6556 60.1875 91.791 60.1875C91.8926 60.1875 91.9759 60.1823 92.041 60.1719C92.1061 60.1589 92.1582 60.1484 92.1973 60.1406L92.3848 60.9687C92.3223 60.9922 92.235 61.0156 92.123 61.0391C92.0111 61.0651 91.8691 61.0781 91.6973 61.0781C91.4368 61.0781 91.1816 61.0221 90.9316 60.9102C90.6842 60.7982 90.4785 60.6276 90.3145 60.3984C90.153 60.1693 90.0723 59.8802 90.0723 59.5312V53.5625ZM93.6621 61V55H94.5527V55.9062H94.6152C94.7246 55.6094 94.9225 55.3685 95.209 55.1836C95.4954 54.9987 95.8184 54.9062 96.1777 54.9062C96.2454 54.9062 96.3301 54.9076 96.4316 54.9102C96.5332 54.9128 96.61 54.9167 96.6621 54.9219V55.8594C96.6309 55.8516 96.5592 55.8398 96.4473 55.8242C96.3379 55.806 96.222 55.7969 96.0996 55.7969C95.8079 55.7969 95.5475 55.8581 95.3184 55.9805C95.0918 56.1003 94.9121 56.2669 94.7793 56.4805C94.6491 56.6914 94.584 56.9323 94.584 57.2031V61H93.6621ZM100.088 61.125C99.5098 61.125 99.0111 60.9974 98.5918 60.7422C98.1751 60.4844 97.8535 60.125 97.627 59.6641C97.403 59.2005 97.291 58.6615 97.291 58.0469C97.291 57.4323 97.403 56.8906 97.627 56.4219C97.8535 55.9505 98.1686 55.5833 98.5723 55.3203C98.9785 55.0547 99.4525 54.9219 99.9941 54.9219C100.307 54.9219 100.615 54.974 100.92 55.0781C101.225 55.1823 101.502 55.3516 101.752 55.5859C102.002 55.8177 102.201 56.125 102.35 56.5078C102.498 56.8906 102.572 57.362 102.572 57.9219V58.3125H97.9473V57.5156H101.635C101.635 57.1771 101.567 56.875 101.432 56.6094C101.299 56.3437 101.109 56.1341 100.861 55.9805C100.617 55.8268 100.327 55.75 99.9941 55.75C99.627 55.75 99.3092 55.8411 99.041 56.0234C98.7754 56.2031 98.571 56.4375 98.4277 56.7266C98.2845 57.0156 98.2129 57.3255 98.2129 57.6562V58.1875C98.2129 58.6406 98.291 59.0247 98.4473 59.3398C98.6061 59.6523 98.8262 59.8906 99.1074 60.0547C99.3887 60.2161 99.7155 60.2969 100.088 60.2969C100.33 60.2969 100.549 60.263 100.744 60.1953C100.942 60.125 101.113 60.0208 101.256 59.8828C101.399 59.7422 101.51 59.5677 101.588 59.3594L102.479 59.6094C102.385 59.9115 102.227 60.1771 102.006 60.4062C101.785 60.6328 101.511 60.8099 101.186 60.9375C100.86 61.0625 100.494 61.125 100.088 61.125ZM104.896 57.3906V61H103.975V55H104.865V55.9375H104.943C105.084 55.6328 105.298 55.388 105.584 55.2031C105.87 55.0156 106.24 54.9219 106.693 54.9219C107.1 54.9219 107.455 55.0052 107.76 55.1719C108.064 55.3359 108.301 55.5859 108.471 55.9219C108.64 56.2552 108.725 56.6771 108.725 57.1875V61H107.803V57.25C107.803 56.7786 107.68 56.4115 107.436 56.1484C107.191 55.8828 106.855 55.75 106.428 55.75C106.133 55.75 105.87 55.8138 105.639 55.9414C105.41 56.069 105.229 56.2552 105.096 56.5C104.963 56.7448 104.896 57.0417 104.896 57.3906ZM112.831 63.375C112.386 63.375 112.003 63.3177 111.683 63.2031C111.362 63.0911 111.095 62.9427 110.882 62.7578C110.671 62.5755 110.503 62.3802 110.378 62.1719L111.112 61.6563C111.196 61.7656 111.301 61.8906 111.429 62.0312C111.556 62.1745 111.731 62.2982 111.952 62.4023C112.176 62.5091 112.469 62.5625 112.831 62.5625C113.315 62.5625 113.715 62.4453 114.03 62.2109C114.345 61.9766 114.503 61.6094 114.503 61.1094V59.8906H114.425C114.357 60 114.261 60.1354 114.136 60.2969C114.013 60.4557 113.836 60.5977 113.604 60.7227C113.375 60.8451 113.065 60.9062 112.675 60.9062C112.19 60.9062 111.756 60.7917 111.37 60.5625C110.987 60.3333 110.684 60 110.46 59.5625C110.239 59.125 110.128 58.5937 110.128 57.9687C110.128 57.3542 110.236 56.819 110.452 56.3633C110.668 55.9049 110.969 55.5508 111.354 55.3008C111.74 55.0482 112.185 54.9219 112.69 54.9219C113.081 54.9219 113.391 54.987 113.62 55.1172C113.852 55.2448 114.029 55.3906 114.151 55.5547C114.276 55.7161 114.373 55.849 114.44 55.9531H114.534V55H115.425V61.1719C115.425 61.6875 115.308 62.1068 115.073 62.4297C114.841 62.7552 114.529 62.9935 114.136 63.1445C113.745 63.2982 113.31 63.375 112.831 63.375ZM112.8 60.0781C113.17 60.0781 113.482 59.9935 113.737 59.8242C113.993 59.6549 114.187 59.4115 114.319 59.0938C114.452 58.776 114.519 58.3958 114.519 57.9531C114.519 57.5208 114.453 57.1393 114.323 56.8086C114.193 56.4779 114 56.2187 113.745 56.0312C113.49 55.8437 113.175 55.75 112.8 55.75C112.409 55.75 112.084 55.849 111.823 56.0469C111.565 56.2448 111.371 56.5104 111.241 56.8438C111.114 57.1771 111.05 57.5469 111.05 57.9531C111.05 58.3698 111.115 58.7383 111.245 59.0586C111.378 59.3763 111.573 59.6263 111.831 59.8086C112.091 59.9883 112.414 60.0781 112.8 60.0781ZM119.722 55V55.7812H116.612V55H119.722ZM117.519 53.5625H118.44V59.2812C118.44 59.5417 118.478 59.737 118.554 59.8672C118.632 59.9948 118.731 60.0807 118.851 60.125C118.973 60.1667 119.102 60.1875 119.237 60.1875C119.339 60.1875 119.422 60.1823 119.487 60.1719C119.552 60.1589 119.604 60.1484 119.644 60.1406L119.831 60.9687C119.769 60.9922 119.681 61.0156 119.569 61.0391C119.457 61.0651 119.315 61.0781 119.144 61.0781C118.883 61.0781 118.628 61.0221 118.378 60.9102C118.131 60.7982 117.925 60.6276 117.761 60.3984C117.599 60.1693 117.519 59.8802 117.519 59.5312V53.5625ZM122.159 57.3906V61H121.237V53H122.159V55.9375H122.237C122.378 55.6276 122.589 55.3815 122.87 55.1992C123.154 55.0143 123.532 54.9219 124.003 54.9219C124.412 54.9219 124.77 55.0039 125.077 55.168C125.384 55.3294 125.623 55.5781 125.792 55.9141C125.964 56.2474 126.05 56.6719 126.05 57.1875V61H125.128V57.25C125.128 56.7734 125.004 56.4049 124.757 56.1445C124.512 55.8815 124.172 55.75 123.737 55.75C123.435 55.75 123.164 55.8138 122.925 55.9414C122.688 56.069 122.5 56.2552 122.362 56.5C122.227 56.7448 122.159 57.0417 122.159 57.3906Z" fill="#888"/>
<rect x="28" y="40" width="48" height="6" rx="3" fill="#D19E1A"/>
<rect x="80" y="40" width="48" height="6" rx="3" fill="#D19E1A"/>
<rect x="132" y="40" width="48" height="6" rx="3" fill="#888888" fill-opacity="0.5"/>
<rect x="184" y="40" width="48" height="6" rx="3" fill="#888888" fill-opacity="0.5"/>
<rect x="236" y="40" width="48" height="6" rx="3" fill="#888888" fill-opacity="0.5"/>
<rect x="33.5" y="77.5" width="245" height="60" rx="3.5" fill="#15171C"/>
<path opacity="0.7" d="M42.1641 93.2461C42.2422 93.3216 42.332 93.3711 42.4336 93.3945C42.5378 93.4206 42.6393 93.4206 42.7383 93.3945C42.8398 93.3711 42.9271 93.3242 43 93.2539L45.2305 91.0234L47.457 93.25C47.5299 93.3255 47.6172 93.375 47.7188 93.3984C47.8203 93.4219 47.9219 93.4206 48.0234 93.3945C48.125 93.3711 48.2135 93.3216 48.2891 93.2461C48.3646 93.1706 48.4141 93.082 48.4375 92.9805C48.4635 92.8789 48.4648 92.7773 48.4414 92.6758C48.418 92.5742 48.3698 92.487 48.2969 92.4141L46.0703 90.1836L48.2969 87.957C48.3698 87.8815 48.418 87.7943 48.4414 87.6953C48.4674 87.5938 48.4674 87.4922 48.4414 87.3906C48.4154 87.2891 48.3646 87.2005 48.2891 87.125C48.2109 87.0495 48.1211 86.9987 48.0195 86.9727C47.9206 86.9466 47.8203 86.9466 47.7188 86.9727C47.6172 86.9961 47.5299 87.0443 47.457 87.1172L45.2305 89.3438L43 87.1172C42.9271 87.0443 42.8398 86.9961 42.7383 86.9727C42.6367 86.9492 42.5339 86.9492 42.4297 86.9727C42.3281 86.9961 42.2396 87.0469 42.1641 87.125C42.0911 87.2005 42.0417 87.2891 42.0156 87.3906C41.9922 87.4922 41.9922 87.5938 42.0156 87.6953C42.0417 87.7969 42.0898 87.8828 42.1602 87.9531L44.3906 90.1836L42.1602 92.418C42.0898 92.4883 42.0417 92.5742 42.0156 92.6758C41.9896 92.7747 41.9883 92.8763 42.0117 92.9805C42.0378 93.082 42.0885 93.1706 42.1641 93.2461Z" fill="white"/>
<path d="M58.9399 87.1099H62.4902C63.1921 87.1099 63.7578 87.3086 64.1875 87.7061C64.6172 88.0999 64.832 88.6549 64.832 89.3711C64.832 89.987 64.6405 90.5241 64.2573 90.9824C63.8742 91.4372 63.2852 91.6646 62.4902 91.6646H60.0088V95H58.9399V87.1099ZM63.7524 89.3765C63.7524 88.7964 63.5376 88.4025 63.1079 88.1948C62.8716 88.0838 62.5475 88.0283 62.1357 88.0283H60.0088V90.7622H62.1357C62.6156 90.7622 63.0041 90.6602 63.3013 90.4561C63.6021 90.252 63.7524 89.8921 63.7524 89.3765ZM66.7871 93.4692C66.7871 93.7485 66.8892 93.9688 67.0933 94.1299C67.2974 94.291 67.5391 94.3716 67.8184 94.3716C68.1585 94.3716 68.488 94.2928 68.8066 94.1353C69.3438 93.8739 69.6123 93.446 69.6123 92.8516V92.0728C69.4941 92.1479 69.342 92.2106 69.1558 92.2607C68.9696 92.3109 68.7869 92.3467 68.6079 92.3682L68.0225 92.4434C67.6715 92.4899 67.4084 92.5633 67.2329 92.6636C66.9357 92.8319 66.7871 93.1004 66.7871 93.4692ZM69.1289 91.5142C69.3509 91.4855 69.4995 91.3924 69.5747 91.2349C69.6177 91.1489 69.6392 91.0254 69.6392 90.8643C69.6392 90.5348 69.521 90.2967 69.2847 90.1499C69.0519 89.9995 68.7171 89.9243 68.2803 89.9243C67.7754 89.9243 67.4173 90.0604 67.2061 90.3325C67.0879 90.4829 67.0109 90.7067 66.9751 91.0039H66.0728C66.0907 90.2949 66.3198 89.8026 66.7603 89.5269C67.2043 89.2476 67.7181 89.1079 68.3018 89.1079C68.9785 89.1079 69.5282 89.2368 69.9507 89.4946C70.3696 89.7524 70.5791 90.1535 70.5791 90.6978V94.0117C70.5791 94.112 70.5988 94.1925 70.6382 94.2534C70.6812 94.3143 70.7689 94.3447 70.9014 94.3447C70.9443 94.3447 70.9927 94.3429 71.0464 94.3394C71.1001 94.3322 71.1574 94.3232 71.2183 94.3125V95.0269C71.0679 95.0698 70.9533 95.0967 70.8745 95.1074C70.7957 95.1182 70.6883 95.1235 70.5522 95.1235C70.2192 95.1235 69.9775 95.0054 69.8271 94.769C69.7484 94.6437 69.6929 94.4665 69.6606 94.2373C69.4637 94.4951 69.1808 94.7189 68.812 94.9087C68.4432 95.0985 68.0368 95.1934 67.5928 95.1934C67.0592 95.1934 66.6224 95.0322 66.2822 94.71C65.9456 94.3841 65.7773 93.9777 65.7773 93.4907C65.7773 92.9572 65.9438 92.5436 66.2769 92.25C66.6099 91.9564 67.0467 91.7756 67.5874 91.7075L69.1289 91.5142ZM72.7437 93.1953C72.7723 93.5176 72.8529 93.7646 72.9854 93.9365C73.2288 94.248 73.6514 94.4038 74.2529 94.4038C74.611 94.4038 74.9261 94.3268 75.1982 94.1729C75.4704 94.0153 75.6064 93.7736 75.6064 93.4478C75.6064 93.2007 75.4972 93.0127 75.2788 92.8838C75.1392 92.805 74.8634 92.7137 74.4517 92.6099L73.6836 92.4165C73.193 92.2948 72.8314 92.1587 72.5986 92.0083C72.1833 91.7469 71.9756 91.3853 71.9756 90.9233C71.9756 90.3791 72.1707 89.9386 72.561 89.6021C72.9549 89.2655 73.4831 89.0972 74.1455 89.0972C75.012 89.0972 75.6369 89.3514 76.02 89.8599C76.2599 90.1821 76.3763 90.5295 76.3691 90.9019H75.4561C75.4382 90.6834 75.3612 90.4847 75.2251 90.3057C75.0031 90.0514 74.6182 89.9243 74.0703 89.9243C73.7051 89.9243 73.4276 89.9941 73.2378 90.1338C73.0516 90.2734 72.9585 90.4578 72.9585 90.687C72.9585 90.9377 73.082 91.1382 73.3291 91.2886C73.4723 91.3781 73.6836 91.4569 73.9629 91.5249L74.6021 91.6807C75.2967 91.849 75.7622 92.0119 75.9985 92.1694C76.3745 92.4165 76.5625 92.805 76.5625 93.335C76.5625 93.847 76.3674 94.2892 75.9771 94.6616C75.5903 95.034 74.9995 95.2202 74.2046 95.2202C73.3488 95.2202 72.7419 95.0269 72.3838 94.6401C72.0293 94.2498 71.8395 93.7682 71.8145 93.1953H72.7437ZM78.2437 93.1953C78.2723 93.5176 78.3529 93.7646 78.4854 93.9365C78.7288 94.248 79.1514 94.4038 79.7529 94.4038C80.111 94.4038 80.4261 94.3268 80.6982 94.1729C80.9704 94.0153 81.1064 93.7736 81.1064 93.4478C81.1064 93.2007 80.9972 93.0127 80.7788 92.8838C80.6392 92.805 80.3634 92.7137 79.9517 92.6099L79.1836 92.4165C78.693 92.2948 78.3314 92.1587 78.0986 92.0083C77.6833 91.7469 77.4756 91.3853 77.4756 90.9233C77.4756 90.3791 77.6707 89.9386 78.061 89.6021C78.4549 89.2655 78.9831 89.0972 79.6455 89.0972C80.512 89.0972 81.1369 89.3514 81.52 89.8599C81.7599 90.1821 81.8763 90.5295 81.8691 90.9019H80.9561C80.9382 90.6834 80.8612 90.4847 80.7251 90.3057C80.5031 90.0514 80.1182 89.9243 79.5703 89.9243C79.2051 89.9243 78.9276 89.9941 78.7378 90.1338C78.5516 90.2734 78.4585 90.4578 78.4585 90.687C78.4585 90.9377 78.582 91.1382 78.8291 91.2886C78.9723 91.3781 79.1836 91.4569 79.4629 91.5249L80.1021 91.6807C80.7967 91.849 81.2622 92.0119 81.4985 92.1694C81.8745 92.4165 82.0625 92.805 82.0625 93.335C82.0625 93.847 81.8674 94.2892 81.4771 94.6616C81.0903 95.034 80.4995 95.2202 79.7046 95.2202C78.8488 95.2202 78.2419 95.0269 77.8838 94.6401C77.5293 94.2498 77.3395 93.7682 77.3145 93.1953H78.2437ZM83.6147 89.2476L84.7212 93.7808L85.8438 89.2476H86.9287L88.0566 93.7539L89.2329 89.2476H90.1997L88.5293 95H87.5249L86.354 90.5474L85.2207 95H84.2163L82.5566 89.2476H83.6147ZM93.4009 94.377C94.0418 94.377 94.4805 94.1353 94.7168 93.6519C94.9567 93.1649 95.0767 92.6242 95.0767 92.0298C95.0767 91.4927 94.9907 91.0558 94.8188 90.7192C94.5467 90.1893 94.0776 89.9243 93.4116 89.9243C92.8208 89.9243 92.3911 90.1499 92.1226 90.6011C91.854 91.0522 91.7197 91.5965 91.7197 92.2339C91.7197 92.8462 91.854 93.3564 92.1226 93.7646C92.3911 94.1729 92.8172 94.377 93.4009 94.377ZM93.4385 89.0811C94.1797 89.0811 94.8063 89.3281 95.3184 89.8223C95.8304 90.3164 96.0864 91.0433 96.0864 92.0029C96.0864 92.9303 95.8608 93.6966 95.4097 94.3018C94.9585 94.9069 94.2585 95.2095 93.3096 95.2095C92.5182 95.2095 91.8898 94.9427 91.4243 94.4092C90.9588 93.8721 90.7261 93.1523 90.7261 92.25C90.7261 91.2832 90.9714 90.5133 91.4619 89.9404C91.9525 89.3675 92.6113 89.0811 93.4385 89.0811ZM97.2681 89.2476H98.1865V90.2412C98.2617 90.0479 98.4461 89.8133 98.7397 89.5376C99.0334 89.2583 99.3717 89.1187 99.7549 89.1187C99.7728 89.1187 99.8032 89.1204 99.8462 89.124C99.8892 89.1276 99.9626 89.1348 100.066 89.1455V90.166C100.009 90.1553 99.9554 90.1481 99.9053 90.1445C99.8587 90.141 99.8068 90.1392 99.7495 90.1392C99.2625 90.1392 98.8883 90.2967 98.627 90.6118C98.3656 90.9233 98.2349 91.2832 98.2349 91.6914V95H97.2681V89.2476ZM101.517 92.1909C101.517 92.8068 101.647 93.3224 101.909 93.7378C102.17 94.1532 102.589 94.3608 103.166 94.3608C103.613 94.3608 103.98 94.1693 104.267 93.7861C104.557 93.3994 104.702 92.8462 104.702 92.1265C104.702 91.3996 104.553 90.8625 104.256 90.5151C103.959 90.1642 103.592 89.9888 103.155 89.9888C102.668 89.9888 102.272 90.175 101.968 90.5474C101.667 90.9198 101.517 91.4676 101.517 92.1909ZM102.972 89.1455C103.413 89.1455 103.781 89.2386 104.079 89.4248C104.25 89.5322 104.446 89.7202 104.664 89.9888V87.083H105.593V95H104.723V94.1997C104.498 94.5542 104.231 94.8102 103.923 94.9678C103.615 95.1253 103.262 95.2041 102.865 95.2041C102.224 95.2041 101.669 94.9355 101.2 94.3984C100.731 93.8577 100.496 93.1398 100.496 92.2446C100.496 91.4067 100.709 90.6816 101.135 90.0693C101.565 89.4535 102.177 89.1455 102.972 89.1455ZM110.916 92.4541C110.941 92.9017 111.047 93.2651 111.233 93.5444C111.587 94.0672 112.212 94.3286 113.107 94.3286C113.508 94.3286 113.874 94.2713 114.203 94.1567C114.84 93.9347 115.159 93.5373 115.159 92.9644C115.159 92.5347 115.025 92.2285 114.756 92.0459C114.484 91.8669 114.058 91.7111 113.478 91.5786L112.409 91.3369C111.711 91.1794 111.217 91.0057 110.927 90.8159C110.425 90.4865 110.175 89.9941 110.175 89.3389C110.175 88.6299 110.42 88.048 110.911 87.5933C111.401 87.1385 112.096 86.9111 112.995 86.9111C113.822 86.9111 114.524 87.1117 115.1 87.5127C115.68 87.9102 115.97 88.5475 115.97 89.4248H114.966C114.912 89.0023 114.798 88.6782 114.622 88.4526C114.296 88.0409 113.743 87.835 112.962 87.835C112.332 87.835 111.879 87.9674 111.604 88.2324C111.328 88.4974 111.19 88.8053 111.19 89.1562C111.19 89.543 111.351 89.8258 111.673 90.0049C111.885 90.1195 112.363 90.2627 113.107 90.4346L114.214 90.687C114.747 90.8088 115.159 90.9753 115.449 91.1865C115.951 91.5553 116.201 92.0907 116.201 92.7925C116.201 93.6662 115.882 94.291 115.245 94.667C114.611 95.043 113.874 95.231 113.032 95.231C112.051 95.231 111.283 94.9803 110.728 94.479C110.173 93.9813 109.901 93.3063 109.912 92.4541H110.916ZM117.619 87.6416H118.597V89.2476H119.515V90.0371H118.597V93.7915C118.597 93.992 118.665 94.1263 118.801 94.1943C118.876 94.2337 119.001 94.2534 119.177 94.2534C119.223 94.2534 119.273 94.2534 119.327 94.2534C119.381 94.2498 119.444 94.2445 119.515 94.2373V95C119.404 95.0322 119.288 95.0555 119.166 95.0698C119.048 95.0841 118.919 95.0913 118.779 95.0913C118.328 95.0913 118.022 94.9767 117.861 94.7476C117.7 94.5148 117.619 94.214 117.619 93.8452V90.0371H116.84V89.2476H117.619V87.6416ZM120.514 89.2476H121.433V90.2412C121.508 90.0479 121.692 89.8133 121.986 89.5376C122.279 89.2583 122.618 89.1187 123.001 89.1187C123.019 89.1187 123.049 89.1204 123.092 89.124C123.135 89.1276 123.209 89.1348 123.312 89.1455V90.166C123.255 90.1553 123.201 90.1481 123.151 90.1445C123.105 90.141 123.053 90.1392 122.996 90.1392C122.509 90.1392 122.134 90.2967 121.873 90.6118C121.612 90.9233 121.481 91.2832 121.481 91.6914V95H120.514V89.2476ZM126.546 89.1187C126.954 89.1187 127.35 89.2153 127.733 89.4087C128.116 89.5985 128.408 89.8455 128.608 90.1499C128.802 90.4399 128.931 90.7783 128.995 91.165C129.052 91.43 129.081 91.8525 129.081 92.4326H124.865C124.883 93.0163 125.021 93.4854 125.278 93.8398C125.536 94.1908 125.935 94.3662 126.476 94.3662C126.981 94.3662 127.384 94.1997 127.685 93.8667C127.856 93.6733 127.978 93.4495 128.05 93.1953H129C128.975 93.4066 128.891 93.6429 128.748 93.9043C128.608 94.1621 128.451 94.3734 128.275 94.5381C127.982 94.8245 127.618 95.0179 127.185 95.1182C126.952 95.1755 126.689 95.2041 126.396 95.2041C125.679 95.2041 125.072 94.9445 124.575 94.4253C124.077 93.9025 123.828 93.172 123.828 92.2339C123.828 91.3101 124.079 90.5599 124.58 89.9834C125.081 89.4069 125.737 89.1187 126.546 89.1187ZM128.087 91.6646C128.048 91.2456 127.957 90.9108 127.813 90.6602C127.549 90.1947 127.106 89.9619 126.487 89.9619C126.043 89.9619 125.67 90.123 125.37 90.4453C125.069 90.764 124.91 91.1704 124.892 91.6646H128.087ZM130.273 89.2476H131.192V90.064C131.464 89.7274 131.752 89.4857 132.057 89.3389C132.361 89.1921 132.699 89.1187 133.072 89.1187C133.888 89.1187 134.44 89.4033 134.726 89.9727C134.884 90.2842 134.962 90.73 134.962 91.3101V95H133.979V91.3745C133.979 91.0236 133.928 90.7407 133.824 90.5259C133.652 90.1678 133.34 89.9888 132.889 89.9888C132.66 89.9888 132.472 90.012 132.325 90.0586C132.06 90.1374 131.827 90.2949 131.627 90.5312C131.466 90.721 131.36 90.918 131.31 91.1221C131.264 91.3226 131.24 91.6108 131.24 91.9868V95H130.273V89.2476ZM138.427 89.1455C138.878 89.1455 139.272 89.2565 139.608 89.4785C139.791 89.6038 139.977 89.7865 140.167 90.0264V89.3013H141.059V94.5327C141.059 95.2632 140.951 95.8397 140.736 96.2622C140.335 97.0428 139.578 97.4331 138.464 97.4331C137.845 97.4331 137.324 97.2935 136.901 97.0142C136.479 96.7384 136.243 96.3052 136.192 95.7144H137.175C137.222 95.9722 137.315 96.1709 137.455 96.3105C137.673 96.5254 138.017 96.6328 138.486 96.6328C139.227 96.6328 139.712 96.3714 139.941 95.8486C140.077 95.5407 140.14 94.991 140.129 94.1997C139.936 94.4933 139.703 94.7118 139.431 94.855C139.159 94.9982 138.799 95.0698 138.352 95.0698C137.729 95.0698 137.182 94.8496 136.713 94.4092C136.248 93.9652 136.015 93.2329 136.015 92.2124C136.015 91.2492 136.25 90.4972 136.719 89.9565C137.191 89.4159 137.761 89.1455 138.427 89.1455ZM140.167 92.0996C140.167 91.387 140.02 90.8589 139.727 90.5151C139.433 90.1714 139.059 89.9995 138.604 89.9995C137.924 89.9995 137.458 90.3182 137.208 90.9556C137.075 91.2957 137.009 91.7415 137.009 92.293C137.009 92.9411 137.139 93.4352 137.401 93.7754C137.666 94.112 138.02 94.2803 138.464 94.2803C139.159 94.2803 139.648 93.967 139.931 93.3403C140.088 92.9858 140.167 92.5723 140.167 92.0996ZM142.713 87.6416H143.69V89.2476H144.609V90.0371H143.69V93.7915C143.69 93.992 143.758 94.1263 143.895 94.1943C143.97 94.2337 144.095 94.2534 144.271 94.2534C144.317 94.2534 144.367 94.2534 144.421 94.2534C144.475 94.2498 144.537 94.2445 144.609 94.2373V95C144.498 95.0322 144.382 95.0555 144.26 95.0698C144.142 95.0841 144.013 95.0913 143.873 95.0913C143.422 95.0913 143.116 94.9767 142.955 94.7476C142.793 94.5148 142.713 94.214 142.713 93.8452V90.0371H141.934V89.2476H142.713V87.6416ZM145.581 87.083H146.548V90.0264C146.777 89.7363 146.983 89.5322 147.166 89.4141C147.477 89.21 147.866 89.1079 148.331 89.1079C149.165 89.1079 149.731 89.3997 150.028 89.9834C150.189 90.3021 150.27 90.7443 150.27 91.3101V95H149.276V91.3745C149.276 90.952 149.223 90.6423 149.115 90.4453C148.94 90.1302 148.61 89.9727 148.127 89.9727C147.726 89.9727 147.362 90.1105 147.037 90.3862C146.711 90.6619 146.548 91.1829 146.548 91.9492V95H145.581V87.083ZM152.214 89.3228H153.337V90.4937H152.214V89.3228ZM152.214 93.8291H153.337V95H152.214V93.8291ZM160.754 92.2769V88.791L158.289 92.2769H160.754ZM160.771 95V93.1201H157.397V92.1748L160.921 87.2871H161.737V92.2769H162.871V93.1201H161.737V95H160.771ZM169.294 94.377C169.935 94.377 170.374 94.1353 170.61 93.6519C170.85 93.1649 170.97 92.6242 170.97 92.0298C170.97 91.4927 170.884 91.0558 170.712 90.7192C170.44 90.1893 169.971 89.9243 169.305 89.9243C168.714 89.9243 168.285 90.1499 168.016 90.6011C167.748 91.0522 167.613 91.5965 167.613 92.2339C167.613 92.8462 167.748 93.3564 168.016 93.7646C168.285 94.1729 168.711 94.377 169.294 94.377ZM169.332 89.0811C170.073 89.0811 170.7 89.3281 171.212 89.8223C171.724 90.3164 171.98 91.0433 171.98 92.0029C171.98 92.9303 171.754 93.6966 171.303 94.3018C170.852 94.9069 170.152 95.2095 169.203 95.2095C168.412 95.2095 167.783 94.9427 167.318 94.4092C166.852 93.8721 166.62 93.1523 166.62 92.25C166.62 91.2832 166.865 90.5133 167.355 89.9404C167.846 89.3675 168.505 89.0811 169.332 89.0811ZM174.102 89.2476V93.0664C174.102 93.36 174.148 93.5999 174.241 93.7861C174.413 94.1299 174.734 94.3018 175.203 94.3018C175.876 94.3018 176.334 94.001 176.578 93.3994C176.71 93.0771 176.776 92.6349 176.776 92.0728V89.2476H177.743V95H176.83L176.841 94.1514C176.715 94.3698 176.56 94.5542 176.374 94.7046C176.005 95.0054 175.557 95.1558 175.031 95.1558C174.211 95.1558 173.652 94.8818 173.355 94.334C173.194 94.0404 173.113 93.6483 173.113 93.1577V89.2476H174.102ZM179.451 87.6416H180.429V89.2476H181.347V90.0371H180.429V93.7915C180.429 93.992 180.497 94.1263 180.633 94.1943C180.708 94.2337 180.833 94.2534 181.009 94.2534C181.055 94.2534 181.105 94.2534 181.159 94.2534C181.213 94.2498 181.276 94.2445 181.347 94.2373V95C181.236 95.0322 181.12 95.0555 180.998 95.0698C180.88 95.0841 180.751 95.0913 180.611 95.0913C180.16 95.0913 179.854 94.9767 179.693 94.7476C179.532 94.5148 179.451 94.214 179.451 93.8452V90.0371H178.672V89.2476H179.451V87.6416ZM187.664 94.377C188.305 94.377 188.743 94.1353 188.979 93.6519C189.219 93.1649 189.339 92.6242 189.339 92.0298C189.339 91.4927 189.253 91.0558 189.082 90.7192C188.809 90.1893 188.34 89.9243 187.674 89.9243C187.083 89.9243 186.654 90.1499 186.385 90.6011C186.117 91.0522 185.982 91.5965 185.982 92.2339C185.982 92.8462 186.117 93.3564 186.385 93.7646C186.654 94.1729 187.08 94.377 187.664 94.377ZM187.701 89.0811C188.442 89.0811 189.069 89.3281 189.581 89.8223C190.093 90.3164 190.349 91.0433 190.349 92.0029C190.349 92.9303 190.124 93.6966 189.672 94.3018C189.221 94.9069 188.521 95.2095 187.572 95.2095C186.781 95.2095 186.153 94.9427 185.687 94.4092C185.222 93.8721 184.989 93.1523 184.989 92.25C184.989 91.2832 185.234 90.5133 185.725 89.9404C186.215 89.3675 186.874 89.0811 187.701 89.0811ZM191.746 88.3721C191.76 87.971 191.83 87.6774 191.955 87.4912C192.181 87.1618 192.616 86.9971 193.26 86.9971C193.321 86.9971 193.384 86.9989 193.448 87.0024C193.513 87.006 193.586 87.0114 193.668 87.0186V87.8994C193.568 87.8923 193.495 87.8887 193.448 87.8887C193.405 87.8851 193.364 87.8833 193.325 87.8833C193.031 87.8833 192.856 87.9603 192.798 88.1143C192.741 88.2646 192.712 88.6514 192.712 89.2744H193.668V90.0371H192.702V95H191.746V90.0371H190.945V89.2744H191.746V88.3721ZM197.971 89.5537V88.8125C198.669 88.7445 199.156 88.6317 199.432 88.4741C199.707 88.313 199.913 87.9352 200.049 87.3408H200.812V95H199.781V89.5537H197.971ZM206.017 87.3086C207.012 87.3086 207.732 87.7186 208.176 88.5386C208.52 89.1724 208.691 90.0407 208.691 91.1436C208.691 92.1891 208.536 93.0539 208.224 93.7378C207.773 94.7189 207.035 95.2095 206.011 95.2095C205.087 95.2095 204.4 94.8084 203.949 94.0063C203.573 93.3368 203.385 92.438 203.385 91.3101C203.385 90.4364 203.498 89.6862 203.723 89.0596C204.146 87.8923 204.91 87.3086 206.017 87.3086ZM206.006 94.3286C206.507 94.3286 206.906 94.1066 207.204 93.6626C207.501 93.2186 207.649 92.3914 207.649 91.1812C207.649 90.3075 207.542 89.5895 207.327 89.0273C207.112 88.4616 206.695 88.1787 206.076 88.1787C205.506 88.1787 205.089 88.4473 204.824 88.9844C204.563 89.5179 204.432 90.3057 204.432 91.3477C204.432 92.1318 204.516 92.762 204.685 93.2383C204.942 93.9652 205.383 94.3286 206.006 94.3286Z" fill="white"/>
<rect x="33.5" y="77.5" width="245" height="60" rx="3.5" stroke="white"/>
</svg>
