<?xml version="1.0" encoding="utf-8"?>
<svg xmlns="http://www.w3.org/2000/svg">
<symbol id="em-hundred" viewBox="0 0 42 43"><title>em-hundred</title><path d="M6.883 3.952a1.71 1.71 0 0 1 2.683 1.683l-.059.33c-.167.58-.334 1.181-.499 1.775l-.486 1.789c-.321 1.194-.634 2.392-.938 3.59l-.452 1.8-.438 1.802c-.145.601-.286 1.203-.426 1.805-.138.602-.277 1.204-.41 1.807a205.92 205.92 0 0 0-.395 1.81c-.126.603-.256 1.206-.375 1.81-.124.605-.24 1.21-.356 1.814-.112.605-.228 1.21-.33 1.815-.108.605-.206 1.21-.304 1.815-.092.605-.187 1.21-.266 1.815a37.9 37.9 0 0 0-.118.907c-.035.302-.078.605-.106.906-.03.301-.065.603-.092.904l-.076.901c-.071.849-.788 1.454-1.602 1.386a1.482 1.482 0 0 1-1.354-1.57l.061-.96c.023-.32.052-.637.078-.955.024-.319.062-.634.092-.95.03-.317.066-.633.104-.947.07-.631.155-1.257.237-1.884.089-.625.176-1.25.274-1.873.093-.624.199-1.244.3-1.865.107-.62.213-1.24.327-1.858.11-.618.228-1.234.345-1.851.119-.616.239-1.232.364-1.847a244.792 244.792 0 0 1 .773-3.68l.407-1.834.42-1.83c.284-1.22.576-2.437.876-3.653l-3.102 1.54A1.132 1.132 0 0 1 .89 8.26l5.992-4.307zm18.255 12.445l-.132.622-.088.376-.053.216-.062.225c-.083.312-.187.669-.32 1.064-.263.79-.633 1.738-1.187 2.772a14.835 14.835 0 0 1-2.314 3.241c-.52.539-1.121 1.062-1.838 1.52-.36.227-.757.428-1.186.593a5.048 5.048 0 0 1-1.395.329c-.122.017-.25.014-.375.018a3.087 3.087 0 0 1-.38-.013c-.064-.005-.127-.009-.19-.016l-.19-.03-.19-.033a1.889 1.889 0 0 1-.072-.015l-.017-.005-.035-.01-.07-.018-.14-.038-.037-.01-.052-.018-.103-.034c-.135-.047-.281-.096-.39-.15a5.193 5.193 0 0 1-.676-.358c-.43-.269-.82-.589-1.154-.947a7.764 7.764 0 0 1-.885-1.144c-.514-.805-.89-1.672-1.187-2.562a15.639 15.639 0 0 1-.635-2.74c-.07-.467-.113-.935-.144-1.406-.024-.47-.038-.943-.025-1.415l.01-.354.02-.354c.01-.236.034-.471.056-.706.021-.236.053-.47.083-.704.014-.118.035-.234.053-.35l.06-.372.062-.323.03-.162c.011-.053.021-.107.035-.17l.08-.358c.026-.12.052-.239.083-.352.06-.229.116-.458.184-.685l.098-.34.109-.338a17.798 17.798 0 0 1 1.779-3.858c.256-.4.52-.793.812-1.17.58-.754 1.24-1.458 2.02-2.06.39-.3.81-.575 1.268-.803a5.81 5.81 0 0 1 1.487-.509 4.806 4.806 0 0 1 1.623-.035l.1.015.05.008.026.004.08.017.14.035.14.035c.064.018.144.044.215.067l.216.074a.97.97 0 0 1 .098.039l.09.04c.12.055.242.105.352.17.455.246.853.547 1.186.875.333.33.624.673.867 1.025.24.352.46.705.637 1.059.189.351.34.703.486 1.048.278.692.49 1.363.655 2.007a16.227 16.227 0 0 1 .422 2.268c.015.14.035.279.046.415.021.271.045.534.054.786.026.504.02.966.008 1.383a17.916 17.916 0 0 1-.18 1.923l-.114.672-.004.024zm-3.49-.78l.092-.548c.052-.357.135-.881.205-1.55.07-.668.14-1.483.143-2.413 0-.465-.02-.959-.078-1.471a8.957 8.957 0 0 0-.31-1.569 5.743 5.743 0 0 0-.68-1.493 3.6 3.6 0 0 0-.504-.606 2.31 2.31 0 0 0-.587-.425c-.05-.031-.104-.046-.156-.07l-.039-.017a.142.142 0 0 0-.034-.012.574.574 0 0 1-.053-.017c-.02-.006-.03-.013-.057-.022l-.137-.03-.137-.028c-.058-.012.06.011.044.01l-.01-.002-.022-.001-.041-.004a1.946 1.946 0 0 0-.693.049c-.48.11-.993.427-1.472.845-.478.427-.917.968-1.308 1.565-.39.599-.733 1.255-1.033 1.943-.154.342-.289.696-.424 1.052-.126.36-.252.72-.36 1.09l-.083.276-.078.278c-.054.185-.098.374-.145.561a9.007 9.007 0 0 0-.066.276l-.063.271-.032.147-.03.154-.063.309-.05.265c-.016.095-.036.19-.05.286-.028.192-.067.382-.091.574-.055.383-.108.767-.143 1.15-.079.767-.12 1.533-.113 2.29.001.378.024.752.052 1.124.036.37.08.737.147 1.094.067.356.148.708.258 1.04.108.332.227.658.38.953.301.59.686 1.106 1.15 1.406.115.074.234.137.356.183.066.032.107.034.155.051l.034.012.017.006.034.006.139.027.069.013.034.006.018.004c.017.003-.084-.018-.036-.009l.094.005.094.007.093-.003c.062-.002.124-.001.186-.013.062-.01.123-.01.184-.027.493-.092.973-.367 1.4-.71.214-.176.42-.362.605-.573.19-.203.361-.424.526-.642.325-.445.6-.91.84-1.366.057-.116.118-.227.172-.341l.16-.338.144-.334c.048-.11.09-.221.135-.328.172-.432.321-.843.443-1.23.128-.383.227-.743.317-1.067.085-.326.16-.617.216-.873l.043-.185.033-.163.06-.283.11-.588-.004.022zm19.418-1.972l-.121.569-.082.347-.049.199-.057.206c-.076.287-.173.615-.296.978a16.108 16.108 0 0 1-1.101 2.546 13.649 13.649 0 0 1-2.149 2.977 9.352 9.352 0 0 1-1.707 1.397c-.334.21-.704.396-1.103.547a4.72 4.72 0 0 1-1.302.303c-.114.015-.233.013-.35.016a2.93 2.93 0 0 1-.356-.013c-.059-.004-.118-.008-.178-.015l-.177-.029-.177-.031a2.108 2.108 0 0 1-.07-.015l-.017-.004-.031-.009-.064-.018-.128-.035-.034-.01-.048-.015-.097-.033c-.127-.043-.266-.09-.366-.14-.22-.096-.43-.21-.632-.334-.4-.25-.763-.548-1.074-.879a7.23 7.23 0 0 1-.824-1.057c-.478-.743-.827-1.541-1.107-2.36a14.374 14.374 0 0 1-.598-2.52 15.177 15.177 0 0 1-.166-2.593l.007-.325.018-.325c.01-.218.03-.434.05-.65.02-.216.048-.431.076-.647.013-.108.032-.214.048-.322l.055-.343.057-.295.028-.148c.01-.048.019-.097.032-.155l.072-.33c.025-.111.049-.22.077-.324.055-.21.107-.421.17-.63l.09-.313.1-.31a16.222 16.222 0 0 1 1.645-3.547c.237-.368.482-.729.752-1.076a10.354 10.354 0 0 1 1.873-1.899 7.186 7.186 0 0 1 1.18-.743 5.448 5.448 0 0 1 1.389-.473 4.514 4.514 0 0 1 1.521-.031l.094.014.047.008.024.003.08.017.127.032.128.032a6.15 6.15 0 0 1 .499.17l.084.037c.112.052.227.099.33.16.425.23.798.511 1.108.817.31.307.58.626.806.953.224.326.427.653.592.98.175.324.315.649.452.967.259.637.457 1.256.612 1.848a14.937 14.937 0 0 1 .4 2.086c.015.129.034.257.045.381.02.25.044.492.053.723.026.464.022.89.012 1.273a16.11 16.11 0 0 1-.163 1.768l-.105.619-.004.023zm-3.662-.779l.081-.492c.047-.322.121-.794.186-1.396.064-.6.132-1.334.141-2.171.004-.419-.01-.863-.058-1.324a8.008 8.008 0 0 0-.264-1.41 5.076 5.076 0 0 0-.595-1.333c-.13-.2-.279-.38-.438-.534a1.963 1.963 0 0 0-.503-.368c-.043-.027-.089-.04-.133-.06l-.033-.014a.11.11 0 0 0-.027-.01.355.355 0 0 1-.042-.013c-.015-.005-.021-.01-.044-.018l-.123-.027-.124-.026c-.056-.011.06.012.045.01h-.009l-.017-.002-.036-.003a1.622 1.622 0 0 0-.584.045c-.409.096-.853.377-1.272.75-.418.381-.804.867-1.148 1.404-.344.538-.646 1.13-.91 1.749-.137.308-.255.627-.375.947-.11.324-.224.65-.32.982l-.073.249-.069.25c-.048.168-.087.337-.129.506a8.586 8.586 0 0 0-.059.248l-.056.243c-.01.038-.019.085-.028.133l-.028.14-.057.28-.043.237c-.015.086-.033.172-.046.258-.025.173-.06.344-.082.517-.05.345-.098.69-.131 1.036a19.28 19.28 0 0 0-.114 2.061c-.001.342.016.678.039 1.013.029.333.065.664.123.985.057.32.126.637.221.935.094.299.197.592.33.855.262.528.597.989.998 1.252.1.064.202.12.308.159.057.028.09.028.129.042l.028.01.014.005.03.006.125.023.062.012.031.006.016.003c.016.003-.083-.018-.037-.01l.081.004.08.006.08-.004c.053-.002.106-.002.16-.013.052-.009.104-.01.158-.025.422-.083.838-.33 1.211-.637.187-.158.366-.325.528-.515.165-.183.316-.382.46-.578.285-.402.526-.82.735-1.232.051-.105.104-.205.152-.308l.14-.305.126-.301c.041-.1.078-.2.117-.296.151-.39.282-.76.389-1.108.112-.346.199-.67.278-.963.075-.294.14-.556.19-.787l.038-.166.03-.147.052-.253.099-.534-.004.022zM8.639 32.098l.308-.126c.202-.08.497-.202.875-.346.394-.138.875-.314 1.428-.498l.875-.274.474-.146.499-.14 1.063-.294c.368-.095.75-.189 1.142-.285l.597-.145.614-.134c.415-.088.837-.187 1.27-.27.432-.081.87-.168 1.316-.25.223-.042.447-.08.673-.116l.68-.113c.912-.152 1.843-.272 2.773-.394.466-.056.932-.107 1.397-.155l.695-.073.693-.057 1.368-.106 1.338-.068c.879-.047 1.73-.05 2.536-.064.807-.008 1.57.018 2.274.031.703.02 1.349.067 1.92.1.285.021.552.033.799.06l.678.07c.41.039.73.08.949.104l.335.042a1.213 1.213 0 0 1-.047 2.412l-.035.002-.327.028c-.214.016-.527.043-.925.066-.398.027-.88.05-1.434.096-.276.019-.57.04-.88.06-.31.021-.636.036-.976.067l-1.06.081c-.365.026-.744.05-1.132.087l-1.196.1c-.408.027-.824.07-1.248.11l-1.289.116-1.32.135-.668.066-.672.076-1.35.148c-.45.055-.9.115-1.348.166-.45.05-.895.113-1.337.173-.886.109-1.753.243-2.596.36l-1.236.188c-.405.062-.8.122-1.183.188l-1.12.183-1.042.184c-.167.03-.331.058-.491.085l-.467.089-.863.16c-.533.104-.997.194-1.38.27-.394.089-.707.15-.919.196l-.326.066h-.002a1.213 1.213 0 0 1-.7-2.311zM1.917 39.68s.134-.05.384-.14l.462-.167c.184-.065.385-.142.635-.218l.814-.259.463-.145c.16-.05.322-.094.491-.143l1.078-.31.288-.082.296-.077.613-.16c.418-.107.853-.224 1.304-.335.45-.111.918-.218 1.399-.331.48-.116.975-.223 1.48-.334.506-.11 1.023-.225 1.55-.332l1.606-.316a66.998 66.998 0 0 1 1.65-.303c.557-.097 1.117-.199 1.68-.292l1.699-.264c.283-.044.566-.09.85-.129l.852-.115a165.81 165.81 0 0 1 1.692-.224l1.67-.187.822-.089c.272-.028.544-.05.813-.073l1.584-.133c.258-.023.515-.037.77-.05.253-.015.504-.03.751-.043l1.442-.08 1.353-.03c.434-.008.848-.024 1.245-.023l1.127.018.99.017c.152.002.3.014.44.022l.403.024c.51.029.91.06 1.182.078l.417.03a1.345 1.345 0 0 1-.029 2.686l-.061.003-.399.021c-.26.011-.641.033-1.125.05l-.382.014c-.134.005-.273.008-.42.021l-.948.064-1.077.071c-.38.026-.78.066-1.197.1l-1.3.113-1.394.143c-.239.024-.481.05-.727.074-.245.025-.493.05-.744.084l-1.537.182-.789.092-.8.106-1.627.21-1.653.234c-.277.04-.555.078-.833.117l-.833.125-1.665.252c-.554.084-1.104.177-1.65.264-1.095.167-2.166.363-3.207.532l-1.53.27c-.5.087-.989.17-1.462.262-.475.089-.936.179-1.383.258-.447.08-.876.17-1.289.248-.828.16-1.579.316-2.247.452-.166.035-.332.066-.483.101l-.44.097c-.282.06-.541.117-.775.168-.117.025-.228.048-.337.077l-.303.072-.477.115-.398.093-.004.001a1.347 1.347 0 0 1-.77-2.577z"  fill-rule="evenodd"/>
</symbol>
<symbol id="em-peace" viewBox="0 0 34 48"><title>em-peace</title><path d="M28.1 20.18c1.934.366 3.298 1.182 4.093 2.45.795 1.267 1.193 3.265 1.193 5.994 0 5.414-1.628 9.845-4.883 13.293-3.254 3.448-7.417 5.172-12.487 5.172-1.998 0-3.937-.36-5.817-1.08-1.88-.719-3.497-1.723-4.85-3.012-1.547-1.418-2.707-2.917-3.48-4.496-.774-1.579-1.161-3.196-1.161-4.85 0-1.848.397-3.276 1.192-4.286.795-1.01 2.052-1.697 3.77-2.063a17.317 17.317 0 0 1-.708-1.901c-.15-.516-.226-.913-.226-1.192 0-.967.51-1.955 1.531-2.965 1.02-1.01 1.982-1.515 2.884-1.515.387 0 .795.07 1.225.21.43.14.924.37 1.482.692-1.654-4.683-2.857-8.298-3.609-10.844-.752-2.546-1.128-4.302-1.128-5.269 0-1.332.344-2.39 1.031-3.174C8.84.56 9.774.168 10.956.168c2.02 0 4.576 4.511 7.67 13.535.537 1.547.945 2.739 1.225 3.577.236-.666.569-1.611.999-2.836 3.093-8.938 5.757-13.406 7.992-13.406 1.096 0 1.971.37 2.626 1.112.656.74.983 1.734.983 2.98 0 .946-.36 2.675-1.08 5.189-.72 2.514-1.81 5.8-3.27 9.861zm-2.32-.548c1.44-3.91 2.562-7.138 3.368-9.684.806-2.546 1.208-4.109 1.208-4.689 0-.623-.134-1.106-.402-1.45-.269-.344-.64-.515-1.112-.515-.602 0-1.214.5-1.837 1.498-.623 1-1.31 2.605-2.063 4.818l-3.222 9.313 4.06.71zm-7.927-1.095l-3.48-10.055c-.903-2.557-1.602-4.227-2.096-5.011-.494-.784-1.03-1.176-1.611-1.176-.451 0-.816.171-1.096.515-.279.344-.419.806-.419 1.386 0 .988.376 2.707 1.128 5.156.752 2.45 1.88 5.661 3.384 9.636.129-.236.312-.403.548-.5.236-.096.559-.145.967-.145.129 0 .386.011.773.033.387.021 1.02.075 1.902.16zm3.641 9.764c-.924-.043-1.8-.14-2.626-.29a13.962 13.962 0 0 1-2.369-.644c.344.687.65 1.375.918 2.062.269.688.49 1.365.661 2.03a15.983 15.983 0 0 1 1.628-1.756 13.67 13.67 0 0 1 1.788-1.402zM5.026 33.33c.301.365.72.902 1.257 1.611 1.418 1.955 2.729 2.933 3.932 2.933.408 0 .773-.13 1.096-.387.322-.258.483-.526.483-.806 0-.322-.215-.86-.645-1.611-.43-.752-1.02-1.6-1.772-2.546-.86-1.096-1.574-1.896-2.143-2.4-.57-.506-1.026-.758-1.37-.758-.752 0-1.445.403-2.078 1.208-.634.806-.951 1.757-.951 2.852 0 .881.22 1.864.66 2.95.441 1.084 1.08 2.174 1.918 3.27a12.796 12.796 0 0 0 4.721 3.916c1.88.913 3.959 1.37 6.236 1.37 4.19 0 7.697-1.564 10.522-4.69 2.825-3.126 4.238-7.041 4.238-11.746 0-1.44-.108-2.584-.322-3.432-.215-.849-.57-1.467-1.064-1.853-.88-.73-2.594-1.386-5.14-1.966-2.546-.58-5.205-.87-7.976-.87-.774 0-1.321.129-1.644.386-.322.258-.483.699-.483 1.322 0 1.46.816 2.519 2.45 3.174 1.632.655 4.275.983 7.927.983h1.321c.301 0 .543.113.725.338.183.226.306.564.37 1.015-.364.344-1.116.736-2.255 1.177-1.139.44-2.009.875-2.61 1.305-1.29.945-2.326 2.068-3.11 3.368-.784 1.3-1.176 2.53-1.176 3.69 0 .708.166 1.562.5 2.561.332 1 .499 1.617.499 1.854v.225l-.065.29c-.945-.064-1.692-.618-2.24-1.66-.547-1.042-.821-2.433-.821-4.173v-.29c-.172.15-.339.258-.5.322a1.42 1.42 0 0 1-.532.097 2.97 2.97 0 0 1-.547-.048 5.7 5.7 0 0 1-.58-.145c.064.236.112.467.144.693.033.225.049.402.049.531 0 .795-.312 1.477-.935 2.047a3.185 3.185 0 0 1-2.223.854c-1.354 0-2.729-.661-4.125-1.982-1.397-1.322-2.095-2.616-2.095-3.884 0-.236.027-.445.08-.628a1.08 1.08 0 0 1 .274-.467zm9.668.773c.366 0 .699-.166 1-.5.3-.332.45-.692.45-1.079 0-.408-.295-1.359-.886-2.852a28.548 28.548 0 0 0-2.207-4.399c-.645-1.074-1.279-1.885-1.902-2.433-.623-.548-1.213-.822-1.772-.822-.451 0-.95.285-1.499.854-.547.57-.821 1.101-.821 1.595 0 .516.268 1.29.805 2.32.537 1.032 1.257 2.128 2.16 3.288.945 1.267 1.836 2.256 2.674 2.965.838.709 1.504 1.063 1.998 1.063z"  fill-rule="evenodd"/>
</symbol>
<symbol id="em-poop" viewBox="0 0 47 43"><title>em-poop</title><path d="M30.343 12.584a6.378 6.378 0 0 1 5.62 6.592c2.143 1.342 3.673 3.658 3.862 6.258l-.056-.764c.139 1.907-.471 3.642-1.581 4.937h1.486c3.524 0 6.38 2.86 6.38 6.37a6.369 6.369 0 0 1-6.38 6.372H6.38C2.856 42.349 0 39.489 0 35.978a6.369 6.369 0 0 1 6.38-6.371h1.322a7.239 7.239 0 0 1-1.945-4.947v-.216c0-3.14 1.989-5.755 4.777-6.686a6.378 6.378 0 0 1 5.187-7.764 6.268 6.268 0 0 1 1.432-6.342L20.115.584a2.003 2.003 0 0 1 2.828-.047l5.796 5.597a6.268 6.268 0 0 1 1.604 6.45zm-.898 17.47c2.954 0 5.348-2.892 5.348-6.458 0-3.566-2.394-6.457-5.348-6.457-2.954 0-5.348 2.89-5.348 6.457 0 3.566 2.394 6.457 5.348 6.457zm-13.906 0c2.954 0 5.348-2.892 5.348-6.458 0-3.566-2.394-6.457-5.348-6.457-2.954 0-5.348 2.89-5.348 6.457 0 3.566 2.394 6.457 5.348 6.457zm0-3.23c1.182 0 2.14-1.445 2.14-3.228 0-1.783-.958-3.229-2.14-3.229-1.181 0-2.14 1.446-2.14 3.229 0 1.783.959 3.229 2.14 3.229zm13.906 0c1.181 0 2.14-1.445 2.14-3.228 0-1.783-.959-3.229-2.14-3.229-1.182 0-2.14 1.446-2.14 3.229 0 1.783.958 3.229 2.14 3.229zm-15.69 6.847c-.757-.809-.48-1.387.621-1.295 0 0 5.298.484 7.874.484 2.462 0 7.291-.474 7.291-.474 1.094-.1 1.432.523.749 1.4l-1.872 2.4c-1.067 1.368-3.336 2.477-5.071 2.477h-1.781c-1.733 0-4.096-1.023-5.286-2.294l-2.525-2.698z"  fill-rule="evenodd"/>
</symbol>
<symbol id="em-sparkles" viewBox="0 0 37 40"><title>em-sparkles</title><path d="M26 10V2a1.5 1.5 0 0 1 3 0v8h5.938a1.5 1.5 0 0 1 0 3H29v10a1.5 1.5 0 0 1-3 0V13h-5.938a1.5 1.5 0 0 1 0-3H26zM13 29v-5a1.5 1.5 0 0 1 3 0v5h3.313a1.5 1.5 0 0 1 0 3H16v6a1.5 1.5 0 0 1-3 0v-6H9.687a1.5 1.5 0 0 1 0-3H13zM4 14v-3.444a1.5 1.5 0 0 1 3 0V14h2.438a1.5 1.5 0 0 1 0 3H7v3.556a1.5 1.5 0 0 1-3 0V17H1.562a1.5 1.5 0 0 1 0-3H4z"  fill-rule="evenodd"/>
</symbol></svg>
