<svg width="300" height="129" viewBox="0 0 300 129" xmlns="http://www.w3.org/2000/svg"><title>Combined Shape</title><path d="M8.716 39.664c1.121.434 1.684.639 2.818 1.035 5.163 1.796 6.525-3.53 6.783-7.507.374-5.7-.601-13.211-6.581-15.847a78.022 78.022 0 0 1-2.797-1.286c-.33 9.452-.266 14.161-.223 23.605zm4.962-31.988c10.189 4.568 13.772 14.731 14.171 25.163.352 9.303-1.057 21.923-13.828 18.512C8.123 49.771 5.25 48.827 0 46.425V.455c5.73 3.427 8.35 4.828 13.678 7.22zM43.323 56.51c-5.976-.469-11.234-5.731-12.174-11.513-1.006-6.182 4.188-8.017 9.54-7.8 2.303.098 3.463.123 5.791.153-.051-.63-.077-.945-.12-1.57-.27-3.594-6.581-5.412-6.757-1.07-3.381-.43-5.056-.685-8.36-1.302.099-14.894 23.253-9.98 24.533 2.41.86 8.323 3.132 12.547 6.216 21.007-4.09-.026-6.139-.072-10.241-.251l-1.383-4.241c-.082-.004-.12-.008-.202-.013-.537 3.228-3.905 4.42-6.843 4.19-2.702-.213 1.761.136 0 0zm1.533-7.464c2.2.17 4.034-1.252 3.282-3.568-.27-.822-.404-1.235-.67-2.056-1.722.025-2.582.03-4.3.017-4.626-.064-1.443 5.364 1.688 5.607zM58.87 26.391c3.729.154 5.606.188 9.369.192.09 2.333.202 3.5.485 5.829h.19c1.013-4.837 5.472-7.251 10.253-6.353 5.172.975 7.711 5.8 8.768 10.479 1.684 7.463 3.96 11.27 7.406 18.904-4.056.332-6.096.48-10.203.728-2.9-6.736-5.357-10.112-6.675-16.724-1.117-5.578-9.545-6.498-8.416.255 1.117 6.68 3.656 10.095 6.44 16.89-4.146.154-6.23.205-10.409.234-4.656-12.3-6.95-18.329-7.208-30.434zm31.08-.523a406.06 406.06 0 0 0 9.682-.707c.674 11.505 4 17.184 9.54 28.957-3.977.426-5.97.63-10.008.992-5.434-11.875-8.48-17.631-9.215-29.242zm8.247-3.713c-4.987 5.203-11.126-2.333-5.769-6.778 5.507-4.568 10.568 1.771 5.77 6.778zm36.655 19.006c2.6 8.11-4.317 12.215-11.723 11.747-8.033-.511-15.301-6.702-17.453-14.306-2.281-8.035 2.014-14.843 10.524-15.72 8.527-.873 13.411 5.548 16.311 12.675a84 84 0 0 0 1.186 2.776c-6.895.856-10.418 1.295-17.574 2.095l.245.66c1.327 3.572 10.7 7.166 9.858 1.137 3.45-.426 5.211-.639 8.626-1.064zm-20.563-6.4c3.363-.366 5.034-.558 8.35-.945-.884-2.201-2.835-4.1-5.395-3.82-2.418.27-3.492 2.572-2.955 4.765zm22.723-23.015c4.399-.43 7.182-.673 12.157-1.18-14.571 15.874-4.627 22.797 2.857 38.094-3.763.494-5.654.746-9.46 1.26-7.547-15.442-17.981-22.408-5.554-38.174zm51.336 32.85c-9.356.766-13.948 1.277-23.205 2.397-6.96-14.348-13.927-21.122-.404-36.31 12.191-1.353 18.334-2.099 30.148-3.325-3.725 3.64-4.962 5.467-6.715 9.078-6.658.647-10.009 1.004-16.684 1.72-.962 2.43-1.22 3.64-1.47 6.029 5.985-.61 8.996-.916 15.031-1.46-.653 3.197-.691 4.78-.51 7.885-5.727.472-8.57.736-14.198 1.281.386 2.325.687 3.479 1.349 5.76 5.739-.557 8.643-.817 14.51-1.264.61 3.351.628 4.93 2.148 8.21zm13.792-.51c-10.258.511-15.297-11.793-11.624-20.1 1.963-4.432 6.25-7.75 10.842-9.188 4.34-1.363 10.259-1.341 10.181 4.572.086-.004.13-.004.215-.012 2.35-6.549 4.231-9.946 11.448-16.286 4.365-.26 6.491-.358 10.645-.451-17.058 15.902-14.747 26.014-13.566 40.614-4.008.004-6.005.038-9.966.149-.253-1.852-.374-2.806-.541-4.747l-.198.008c-.769 3.402-4.124 5.275-7.436 5.441-3.243.162 1.916-.097 0 0zm3.875-21.722c-6.482.425-8.561 13.19-1.516 13.726 6.417.49 7.667-14.13 1.516-13.726zm46.468 13.42c-2.208 7.958-11.14 9.75-18.373 8.065-8.398-1.959-12.243-9.912-9.666-17.895 2.518-7.813 10.851-13.386 19.056-13.22 9.721.195 11.719 9.047 10.1 17.111a73.752 73.752 0 0 0-.55 2.993c-7.681-.953-11.543-1.243-19.28-1.532l-.085.698c-.593 5.216 7.092 7.66 9.424 2.853 3.755.293 5.632.476 9.374.928zm-11.448-15.131c-2.775-.153-5.25 2.03-6.032 4.556 3.755.132 5.623.234 9.352.528.434-2.432-.511-4.927-3.32-5.084zm20.464-5.203c4.004.665 5.997 1.065 9.975 2.014-.915 2.393-1.324 3.607-2.058 6.012.082.021.12.03.202.047 3.265-4.675 9.322-6.076 14.159-2.746 4.235 2.916 4.828 8.277 3.638 12.905-1.847 7.204-2.728 10.33-2.818 16.154a243.677 243.677 0 0 0-10.344-1.963c-.314-5.25.726-8.341 2.22-14.86 1.517-6.599-7.34-8.383-8.762-2.022-1.504 6.714-2.939 9.997-2.243 15.49-4.197-.605-6.349-.869-10.438-1.337.708-10.317 1.207-17.33 6.469-29.694zm26.848 40.899c.502-4.85.73-7.03 2.508-12.11 3.66.984 5.503 1.482 9.146 2.504-2.333 4.403-3.183 6.655-4.468 11.22-2.835-.678-4.278-1.001-7.186-1.614zM17.676 82.134c11.937 1.716 21.457 9.163 21.027 21.889-.404 11.896-9.52 22.293-22.015 21.825-6.62-.251-9.932-.451-16.685-1.133v-45.97c6.903 1.712 10.494 2.354 17.673 3.39zm-5.477 33.095c1.52.12 2.28.175 3.797.273 13.36.873 13.428-21.812.623-23.375-1.581-.192-2.371-.294-3.957-.515.048 9.43.013 14.152-.463 23.617zm61.054-1.053c-3.33 7.92-13.626 12.598-21.943 11.947-9.584-.75-10.79-10.661-9.412-18.363 1.538-8.605 7.312-14.434 16.307-14.77 8.952-.333 18.059 5.105 16.513 15.02a45.462 45.462 0 0 1-.563 3.062c-8.6.55-12.896.762-21.474.975l-.13.737c-1.198 6.718 7.505 6.446 10.237 2.01 4.18-.21 6.272-.333 10.465-.618zm-14.095-13.331c-2.856.055-5.038 2.176-5.502 4.892 4.158-.068 6.233-.123 10.382-.277.09-2.81-2.117-4.67-4.88-4.615zm19.306 1.77c.877-13.607 29.989-16.209 29.77-2.094a630.8 630.8 0 0 1-10.538 1.017c.176-7.161-13.587.524-4.85 1.358 2.831.294 4.245.435 7.067.699 4.72.438 9.36 2.405 7.479 7.902-1.62 4.717-6.745 7.745-11.118 9.558-7.238 2.998-23.214 5.54-20.439-7.059a613.09 613.09 0 0 0 11.375-.902c-1.275 7.348 13.751-.545 5.752-1.265a489.15 489.15 0 0 1-5.91-.617c-4.932-.55-8.931-3.223-8.588-8.597zm32.953-12.05c4.416-.463 6.598-.71 10.898-1.226 2.998 11.645 3.896 17.52-4.201 29.71-4.76.61-7.14.908-11.87 1.474 8.012-12.275 7.484-18.202 5.173-29.957zm8.462-4.189c-3.428 5.028-12.797-.622-11.04-5.876 2.183-6.514 14.387.975 11.04 5.876zm8.445 41.26c-2.165.31-6.28 1.149-8.205-.41-2.354-1.907-.09-5.066 1.259-6.927 4.587-.604 6.894-.92 11.512-1.554-1.417 2.708 4.231 1.567 5.095 1.324 2.504-.702 5.202-2.133 6.637-4.364 1.538-2.393 2.1-3.58 2.93-5.944-.09.013-.138.018-.228.03-2.926 4.364-10.795 7.954-16.062 6.676-5.361-1.298-4.356-8.123-4.016-12.232.416-5.007.57-11.798 4.888-15.26 4.515-3.623 11.84-2.243 15.057 2.436l.202-.03c-.632-2.07-1.023-3.1-1.9-5.156 4-.588 5.95-.89 9.786-1.49 6.2 11.104 8.253 16.77 1.74 28.467-4.987 8.954-19.253 13.075-28.695 14.433-4.979.716 5.31-.766 0 0zm14.833-19.71c6.448-.894 8.617-12.666 1.276-13.369-6.697-.643-8.055 14.31-1.276 13.37zm15.85-23.778c3.71-.583 5.545-.881 9.188-1.465 1.241 2.202 1.89 3.283 2.9 5.48.073-.013.111-.017.184-.03-.648-5.428 3.007-8.098 8.27-7.31 4.9.736 8.995 4.466 10.507 9.081 2.375 7.226 3.136 11.198.829 19.152-3.99.455-6.01.694-10.078 1.217 2.664-6.778 2.397-10.137.756-16.554-1.426-5.573-9.347-5.156-7.78 1.346 1.547 6.408 1.659 9.695-1.572 16.375-4.123.592-6.125.928-10.863 1.618 6.718-11.888 3.982-17.623-2.342-28.91zm60.932 11.278c.374 8.124-7.161 13.386-14.898 12.71-8.183-.716-10.086-9.389-11.379-16.03-1.314-6.779-1.344-14.307 7.238-15.094 7.69-.711 16.015 4.845 17.9 12.334.293 1.154.43 1.746.68 2.96-6.431.774-9.687 1.217-16.281 2.162.051.277.077.418.12.694.786 4.684 7.754 7.128 8.643 1.235a580.58 580.58 0 0 1 7.977-.97zm-15.65-11.47c-2.34.328-2.869 2.746-2.4 4.713 3.148-.464 4.712-.685 7.835-1.107-.808-2.214-2.956-3.955-5.434-3.606-1.048.149 1.09-.153 0 0zm11.393-8.004c3.437-.349 5.15-.51 8.583-.783a279.485 279.485 0 0 0 2.792 5.228c.069-.008.103-.008.172-.017-1.169-3.819.417-7.063 4.927-5.748a255.287 255.287 0 0 0 4.231 8.09c-4.772-1.541-6.942 1.673-5.928 5.986 1.414 6 2.11 9.559 2.286 16.746-3.609.17-5.43.272-9.116.502-.72-1.888-2.122-19.176-7.947-30.004z" fill="#FFF" fill-rule="evenodd"/></svg>